%FSLAX45Y45*%
G04 Gerber Fmt 4.5, Leading zero omitted, Abs format (unit mm)*
G04 Created by KiCad (PCBNEW (5.1.9)-1) date 2021-03-27 16:35:38*
%MOMM*%
%LPD*%
G01*
G04 APERTURE LIST*
%TA.AperFunction,Profile*%
%ADD10C,0.050000*%
%TD*%
%TA.AperFunction,Profile*%
%ADD11C,0.150000*%
%TD*%
%ADD12C,0.200000*%
%ADD13C,0.300000*%
G04 APERTURE END LIST*
D10*
X14732000Y-9525000D02*
X14732000Y-10287000D01*
X16129000Y-9398000D02*
X16129000Y-4064000D01*
X16129000Y-10414000D02*
X16129000Y-13081000D01*
X16002000Y-9525000D02*
X16129000Y-9398000D01*
X16002000Y-10287000D02*
X16129000Y-10414000D01*
X15621000Y-10287000D02*
X15367000Y-10287000D01*
X14732000Y-10287000D02*
X16002000Y-10287000D01*
X16002000Y-9525000D02*
X14732000Y-9525000D01*
X14097000Y-3810000D02*
X14224000Y-3937000D01*
X13970000Y-3556000D02*
X14097000Y-3683000D01*
X2540000Y-3556000D02*
X2413000Y-3683000D01*
X2413000Y-13081000D02*
X2540000Y-13208000D01*
X16129000Y-13081000D02*
X16002000Y-13208000D01*
X16002000Y-3937000D02*
X16129000Y-4064000D01*
X14224000Y-3937000D02*
X16002000Y-3937000D01*
X14097000Y-3683000D02*
X14097000Y-3810000D01*
D11*
X6081000Y-10907000D02*
X4841000Y-10907000D01*
D10*
X2413000Y-13081000D02*
X2413000Y-3683000D01*
X16002000Y-13208000D02*
X2540000Y-13208000D01*
X2540000Y-3556000D02*
X13970000Y-3556000D01*
D11*
X12461000Y-10907000D02*
X12461000Y-10467000D01*
X13701000Y-10907000D02*
X12461000Y-10907000D01*
X13781000Y-10487000D02*
X13781000Y-10987000D01*
X13781000Y-10987000D02*
X12381000Y-10987000D01*
X13781000Y-10487000D02*
X13781000Y-10467000D01*
X13781000Y-9587000D02*
X12381000Y-9587000D01*
X13701000Y-10467000D02*
X13701000Y-10907000D01*
X13781000Y-10467000D02*
X13701000Y-10467000D01*
X13701000Y-10087000D02*
X13701000Y-10107000D01*
X12381000Y-10087000D02*
X12381000Y-10107000D01*
X12461000Y-10467000D02*
X12381000Y-10467000D01*
X12381000Y-10987000D02*
X12381000Y-10487000D01*
X13701000Y-10107000D02*
X13781000Y-10107000D01*
X12381000Y-10467000D02*
X12381000Y-10487000D01*
X12461000Y-10107000D02*
X12461000Y-10087000D01*
X12381000Y-9587000D02*
X12381000Y-10087000D01*
X13781000Y-10107000D02*
X13781000Y-10087000D01*
X13701000Y-9667000D02*
X13701000Y-10087000D01*
X12381000Y-10107000D02*
X12461000Y-10107000D01*
X13781000Y-10087000D02*
X13781000Y-9587000D01*
X12461000Y-10087000D02*
X12461000Y-9667000D01*
X12461000Y-9667000D02*
X13701000Y-9667000D01*
X12461000Y-7097000D02*
X12461000Y-6657000D01*
X13701000Y-7097000D02*
X12461000Y-7097000D01*
X13781000Y-6677000D02*
X13781000Y-7177000D01*
X13781000Y-7177000D02*
X12381000Y-7177000D01*
X13781000Y-6677000D02*
X13781000Y-6657000D01*
X13781000Y-5777000D02*
X12381000Y-5777000D01*
X13701000Y-6657000D02*
X13701000Y-7097000D01*
X13781000Y-6657000D02*
X13701000Y-6657000D01*
X13701000Y-6277000D02*
X13701000Y-6297000D01*
X12381000Y-6277000D02*
X12381000Y-6297000D01*
X12461000Y-6657000D02*
X12381000Y-6657000D01*
X12381000Y-7177000D02*
X12381000Y-6677000D01*
X13701000Y-6297000D02*
X13781000Y-6297000D01*
X12381000Y-6657000D02*
X12381000Y-6677000D01*
X12461000Y-6297000D02*
X12461000Y-6277000D01*
X12381000Y-5777000D02*
X12381000Y-6277000D01*
X13781000Y-6297000D02*
X13781000Y-6277000D01*
X13701000Y-5857000D02*
X13701000Y-6277000D01*
X12381000Y-6297000D02*
X12461000Y-6297000D01*
X13781000Y-6277000D02*
X13781000Y-5777000D01*
X12461000Y-6277000D02*
X12461000Y-5857000D01*
X12461000Y-5857000D02*
X13701000Y-5857000D01*
X11876000Y-5272000D02*
X10476000Y-5272000D01*
X10556000Y-4392000D02*
X10556000Y-4372000D01*
X10556000Y-3952000D02*
X11796000Y-3952000D01*
X11876000Y-4772000D02*
X11876000Y-4752000D01*
X11876000Y-4752000D02*
X11796000Y-4752000D01*
X10556000Y-4372000D02*
X10556000Y-3952000D01*
X10556000Y-5192000D02*
X10556000Y-4752000D01*
X11796000Y-3952000D02*
X11796000Y-4372000D01*
X10476000Y-4392000D02*
X10556000Y-4392000D01*
X11796000Y-4372000D02*
X11796000Y-4392000D01*
X11796000Y-4752000D02*
X11796000Y-5192000D01*
X10476000Y-4752000D02*
X10476000Y-4772000D01*
X11796000Y-5192000D02*
X10556000Y-5192000D01*
X11796000Y-4392000D02*
X11876000Y-4392000D01*
X10476000Y-4372000D02*
X10476000Y-4392000D01*
X11876000Y-4772000D02*
X11876000Y-5272000D01*
X10476000Y-3872000D02*
X10476000Y-4372000D01*
X12381000Y-4752000D02*
X12381000Y-4772000D01*
X12461000Y-3952000D02*
X13701000Y-3952000D01*
X13701000Y-5192000D02*
X12461000Y-5192000D01*
X13701000Y-3952000D02*
X13701000Y-4372000D01*
X12381000Y-4392000D02*
X12461000Y-4392000D01*
X12381000Y-4372000D02*
X12381000Y-4392000D01*
X13701000Y-4752000D02*
X13701000Y-5192000D01*
X13701000Y-4372000D02*
X13701000Y-4392000D01*
X13781000Y-4772000D02*
X13781000Y-4752000D01*
X11876000Y-4372000D02*
X11876000Y-3872000D01*
X11876000Y-3872000D02*
X10476000Y-3872000D01*
X10556000Y-4752000D02*
X10476000Y-4752000D01*
X12461000Y-4372000D02*
X12461000Y-3952000D01*
X13781000Y-4772000D02*
X13781000Y-5272000D01*
X13781000Y-4752000D02*
X13701000Y-4752000D01*
X13781000Y-5272000D02*
X12381000Y-5272000D01*
X12461000Y-4392000D02*
X12461000Y-4372000D01*
X13701000Y-4392000D02*
X13781000Y-4392000D01*
X11876000Y-4392000D02*
X11876000Y-4372000D01*
X10476000Y-5272000D02*
X10476000Y-4772000D01*
X12461000Y-5192000D02*
X12461000Y-4752000D01*
X13781000Y-3872000D02*
X12381000Y-3872000D01*
X13781000Y-4392000D02*
X13781000Y-4372000D01*
X12381000Y-5272000D02*
X12381000Y-4772000D01*
X12461000Y-4752000D02*
X12381000Y-4752000D01*
X12381000Y-3872000D02*
X12381000Y-4372000D01*
X13781000Y-4372000D02*
X13781000Y-3872000D01*
X4256000Y-12892000D02*
X2856000Y-12892000D01*
X2936000Y-12012000D02*
X2936000Y-11992000D01*
X2936000Y-11572000D02*
X4176000Y-11572000D01*
X4256000Y-12392000D02*
X4256000Y-12372000D01*
X4256000Y-12372000D02*
X4176000Y-12372000D01*
X2936000Y-11992000D02*
X2936000Y-11572000D01*
X2936000Y-12812000D02*
X2936000Y-12372000D01*
X4176000Y-11572000D02*
X4176000Y-11992000D01*
X2856000Y-12012000D02*
X2936000Y-12012000D01*
X4176000Y-11992000D02*
X4176000Y-12012000D01*
X4176000Y-12372000D02*
X4176000Y-12812000D01*
X2856000Y-12372000D02*
X2856000Y-12392000D01*
X4176000Y-12812000D02*
X2936000Y-12812000D01*
X4176000Y-12012000D02*
X4256000Y-12012000D01*
X2856000Y-11992000D02*
X2856000Y-12012000D01*
X4256000Y-12392000D02*
X4256000Y-12892000D01*
X2856000Y-11492000D02*
X2856000Y-11992000D01*
X4761000Y-12372000D02*
X4761000Y-12392000D01*
X4841000Y-11572000D02*
X6081000Y-11572000D01*
X6081000Y-12812000D02*
X4841000Y-12812000D01*
X6081000Y-11572000D02*
X6081000Y-11992000D01*
X4761000Y-12012000D02*
X4841000Y-12012000D01*
X4761000Y-11992000D02*
X4761000Y-12012000D01*
X6081000Y-12372000D02*
X6081000Y-12812000D01*
X6081000Y-11992000D02*
X6081000Y-12012000D01*
X6161000Y-12392000D02*
X6161000Y-12372000D01*
X4256000Y-11992000D02*
X4256000Y-11492000D01*
X4256000Y-11492000D02*
X2856000Y-11492000D01*
X2936000Y-12372000D02*
X2856000Y-12372000D01*
X4841000Y-11992000D02*
X4841000Y-11572000D01*
X6161000Y-12392000D02*
X6161000Y-12892000D01*
X6161000Y-12372000D02*
X6081000Y-12372000D01*
X6161000Y-12892000D02*
X4761000Y-12892000D01*
X4841000Y-12012000D02*
X4841000Y-11992000D01*
X6081000Y-12012000D02*
X6161000Y-12012000D01*
X4256000Y-12012000D02*
X4256000Y-11992000D01*
X2856000Y-12892000D02*
X2856000Y-12392000D01*
X4841000Y-12812000D02*
X4841000Y-12372000D01*
X6161000Y-11492000D02*
X4761000Y-11492000D01*
X6161000Y-12012000D02*
X6161000Y-11992000D01*
X4761000Y-12892000D02*
X4761000Y-12392000D01*
X4841000Y-12372000D02*
X4761000Y-12372000D01*
X4761000Y-11492000D02*
X4761000Y-11992000D01*
X6161000Y-11992000D02*
X6161000Y-11492000D01*
X8066000Y-12892000D02*
X6666000Y-12892000D01*
X6746000Y-12012000D02*
X6746000Y-11992000D01*
X6746000Y-11572000D02*
X7986000Y-11572000D01*
X8066000Y-12392000D02*
X8066000Y-12372000D01*
X8066000Y-12372000D02*
X7986000Y-12372000D01*
X6746000Y-11992000D02*
X6746000Y-11572000D01*
X6746000Y-12812000D02*
X6746000Y-12372000D01*
X7986000Y-11572000D02*
X7986000Y-11992000D01*
X6666000Y-12012000D02*
X6746000Y-12012000D01*
X7986000Y-11992000D02*
X7986000Y-12012000D01*
X7986000Y-12372000D02*
X7986000Y-12812000D01*
X6666000Y-12372000D02*
X6666000Y-12392000D01*
X7986000Y-12812000D02*
X6746000Y-12812000D01*
X7986000Y-12012000D02*
X8066000Y-12012000D01*
X6666000Y-11992000D02*
X6666000Y-12012000D01*
X8066000Y-12392000D02*
X8066000Y-12892000D01*
X6666000Y-11492000D02*
X6666000Y-11992000D01*
X8571000Y-12372000D02*
X8571000Y-12392000D01*
X8651000Y-11572000D02*
X9891000Y-11572000D01*
X9891000Y-12812000D02*
X8651000Y-12812000D01*
X9891000Y-11572000D02*
X9891000Y-11992000D01*
X8571000Y-12012000D02*
X8651000Y-12012000D01*
X8571000Y-11992000D02*
X8571000Y-12012000D01*
X9891000Y-12372000D02*
X9891000Y-12812000D01*
X9891000Y-11992000D02*
X9891000Y-12012000D01*
X9971000Y-12392000D02*
X9971000Y-12372000D01*
X8066000Y-11992000D02*
X8066000Y-11492000D01*
X8066000Y-11492000D02*
X6666000Y-11492000D01*
X6746000Y-12372000D02*
X6666000Y-12372000D01*
X8651000Y-11992000D02*
X8651000Y-11572000D01*
X9971000Y-12392000D02*
X9971000Y-12892000D01*
X9971000Y-12372000D02*
X9891000Y-12372000D01*
X9971000Y-12892000D02*
X8571000Y-12892000D01*
X8651000Y-12012000D02*
X8651000Y-11992000D01*
X9891000Y-12012000D02*
X9971000Y-12012000D01*
X8066000Y-12012000D02*
X8066000Y-11992000D01*
X6666000Y-12892000D02*
X6666000Y-12392000D01*
X8651000Y-12812000D02*
X8651000Y-12372000D01*
X9971000Y-11492000D02*
X8571000Y-11492000D01*
X9971000Y-12012000D02*
X9971000Y-11992000D01*
X8571000Y-12892000D02*
X8571000Y-12392000D01*
X8651000Y-12372000D02*
X8571000Y-12372000D01*
X8571000Y-11492000D02*
X8571000Y-11992000D01*
X9971000Y-11992000D02*
X9971000Y-11492000D01*
X6161000Y-10987000D02*
X4761000Y-10987000D01*
X6161000Y-10467000D02*
X6081000Y-10467000D01*
X4841000Y-10467000D02*
X4761000Y-10467000D01*
X6161000Y-10107000D02*
X6161000Y-10087000D01*
X4761000Y-10087000D02*
X4761000Y-10107000D01*
X4761000Y-10987000D02*
X4761000Y-10487000D01*
X6081000Y-10467000D02*
X6081000Y-10907000D01*
X4841000Y-9667000D02*
X6081000Y-9667000D01*
X6161000Y-10487000D02*
X6161000Y-10467000D01*
X2856000Y-10107000D02*
X2936000Y-10107000D01*
X2856000Y-10467000D02*
X2856000Y-10487000D01*
X2856000Y-10087000D02*
X2856000Y-10107000D01*
X4176000Y-10087000D02*
X4176000Y-10107000D01*
X4256000Y-10107000D02*
X4256000Y-10087000D01*
X4176000Y-9667000D02*
X4176000Y-10087000D01*
X4256000Y-10087000D02*
X4256000Y-9587000D01*
X2936000Y-10107000D02*
X2936000Y-10087000D01*
X4176000Y-10107000D02*
X4256000Y-10107000D01*
X4256000Y-10467000D02*
X4176000Y-10467000D01*
X2936000Y-10907000D02*
X2936000Y-10467000D01*
X4176000Y-10467000D02*
X4176000Y-10907000D01*
X4256000Y-10487000D02*
X4256000Y-10467000D01*
X2936000Y-9667000D02*
X4176000Y-9667000D01*
X2856000Y-9587000D02*
X2856000Y-10087000D01*
X4256000Y-10987000D02*
X2856000Y-10987000D01*
X4256000Y-10487000D02*
X4256000Y-10987000D01*
X4176000Y-10907000D02*
X2936000Y-10907000D01*
X2936000Y-10087000D02*
X2936000Y-9667000D01*
X4256000Y-9587000D02*
X2856000Y-9587000D01*
X8571000Y-10087000D02*
X8571000Y-10107000D01*
X6746000Y-10107000D02*
X6746000Y-10087000D01*
X6081000Y-9667000D02*
X6081000Y-10087000D01*
X6161000Y-10087000D02*
X6161000Y-9587000D01*
X4761000Y-10467000D02*
X4761000Y-10487000D01*
X6161000Y-9587000D02*
X4761000Y-9587000D01*
X6081000Y-10107000D02*
X6161000Y-10107000D01*
X6081000Y-10087000D02*
X6081000Y-10107000D01*
X4761000Y-10107000D02*
X4841000Y-10107000D01*
X9971000Y-10487000D02*
X9971000Y-10987000D01*
X8651000Y-10907000D02*
X8651000Y-10467000D01*
X4841000Y-10107000D02*
X4841000Y-10087000D01*
X8571000Y-10467000D02*
X8571000Y-10487000D01*
X4761000Y-9587000D02*
X4761000Y-10087000D01*
X10556000Y-10907000D02*
X10556000Y-10467000D01*
X11796000Y-10907000D02*
X10556000Y-10907000D01*
X11876000Y-10487000D02*
X11876000Y-10987000D01*
X11876000Y-10987000D02*
X10476000Y-10987000D01*
X11876000Y-10487000D02*
X11876000Y-10467000D01*
X11876000Y-9587000D02*
X10476000Y-9587000D01*
X11796000Y-10467000D02*
X11796000Y-10907000D01*
X11876000Y-10467000D02*
X11796000Y-10467000D01*
X11796000Y-10087000D02*
X11796000Y-10107000D01*
X10476000Y-10087000D02*
X10476000Y-10107000D01*
X6746000Y-10907000D02*
X6746000Y-10467000D01*
X10556000Y-10467000D02*
X10476000Y-10467000D01*
X10476000Y-10987000D02*
X10476000Y-10487000D01*
X11796000Y-10107000D02*
X11876000Y-10107000D01*
X10476000Y-10467000D02*
X10476000Y-10487000D01*
X6746000Y-10087000D02*
X6746000Y-9667000D01*
X8651000Y-10087000D02*
X8651000Y-9667000D01*
X10556000Y-10107000D02*
X10556000Y-10087000D01*
X8571000Y-10107000D02*
X8651000Y-10107000D01*
X10476000Y-9587000D02*
X10476000Y-10087000D01*
X11876000Y-10107000D02*
X11876000Y-10087000D01*
X11796000Y-9667000D02*
X11796000Y-10087000D01*
X10476000Y-10107000D02*
X10556000Y-10107000D01*
X11876000Y-10087000D02*
X11876000Y-9587000D01*
X10556000Y-10087000D02*
X10556000Y-9667000D01*
X10556000Y-9667000D02*
X11796000Y-9667000D01*
X9971000Y-10987000D02*
X8571000Y-10987000D01*
X8651000Y-9667000D02*
X9891000Y-9667000D01*
X6746000Y-10467000D02*
X6666000Y-10467000D01*
X6666000Y-9587000D02*
X6666000Y-10087000D01*
X9971000Y-10467000D02*
X9891000Y-10467000D01*
X9891000Y-10467000D02*
X9891000Y-10907000D01*
X9891000Y-10907000D02*
X8651000Y-10907000D01*
X6666000Y-10107000D02*
X6746000Y-10107000D01*
X7986000Y-10107000D02*
X8066000Y-10107000D01*
X8651000Y-10107000D02*
X8651000Y-10087000D01*
X9891000Y-10107000D02*
X9971000Y-10107000D01*
X9891000Y-10087000D02*
X9891000Y-10107000D01*
X8066000Y-10107000D02*
X8066000Y-10087000D01*
X6746000Y-9667000D02*
X7986000Y-9667000D01*
X9971000Y-10487000D02*
X9971000Y-10467000D01*
X4841000Y-10087000D02*
X4841000Y-9667000D01*
X7986000Y-10467000D02*
X7986000Y-10907000D01*
X6666000Y-10987000D02*
X6666000Y-10487000D01*
X8066000Y-10467000D02*
X7986000Y-10467000D01*
X8066000Y-10987000D02*
X6666000Y-10987000D01*
X9971000Y-9587000D02*
X8571000Y-9587000D01*
X8571000Y-10987000D02*
X8571000Y-10487000D01*
X4841000Y-10907000D02*
X4841000Y-10467000D01*
X8651000Y-10467000D02*
X8571000Y-10467000D01*
X9971000Y-10107000D02*
X9971000Y-10087000D01*
X6666000Y-10467000D02*
X6666000Y-10487000D01*
X8066000Y-9587000D02*
X6666000Y-9587000D01*
X6161000Y-10487000D02*
X6161000Y-10987000D01*
X9891000Y-9667000D02*
X9891000Y-10087000D01*
X8571000Y-9587000D02*
X8571000Y-10087000D01*
X6666000Y-10087000D02*
X6666000Y-10107000D01*
X9971000Y-10087000D02*
X9971000Y-9587000D01*
X8066000Y-10087000D02*
X8066000Y-9587000D01*
X7986000Y-9667000D02*
X7986000Y-10087000D01*
X7986000Y-10087000D02*
X7986000Y-10107000D01*
X8066000Y-10487000D02*
X8066000Y-10467000D01*
X8066000Y-10487000D02*
X8066000Y-10987000D01*
X7986000Y-10907000D02*
X6746000Y-10907000D01*
X2856000Y-10987000D02*
X2856000Y-10487000D01*
X2936000Y-10467000D02*
X2856000Y-10467000D01*
X8066000Y-9082000D02*
X6666000Y-9082000D01*
X7986000Y-9002000D02*
X6746000Y-9002000D01*
X8066000Y-8562000D02*
X7986000Y-8562000D01*
X6746000Y-8562000D02*
X6666000Y-8562000D01*
X8066000Y-8202000D02*
X8066000Y-8182000D01*
X6666000Y-8182000D02*
X6666000Y-8202000D01*
X6666000Y-9082000D02*
X6666000Y-8582000D01*
X7986000Y-8562000D02*
X7986000Y-9002000D01*
X6746000Y-7762000D02*
X7986000Y-7762000D01*
X8066000Y-8582000D02*
X8066000Y-8562000D01*
X4761000Y-8202000D02*
X4841000Y-8202000D01*
X4761000Y-8562000D02*
X4761000Y-8582000D01*
X4761000Y-8182000D02*
X4761000Y-8202000D01*
X6081000Y-8182000D02*
X6081000Y-8202000D01*
X6161000Y-8202000D02*
X6161000Y-8182000D01*
X6081000Y-7762000D02*
X6081000Y-8182000D01*
X6161000Y-8182000D02*
X6161000Y-7682000D01*
X4841000Y-8202000D02*
X4841000Y-8182000D01*
X6081000Y-8202000D02*
X6161000Y-8202000D01*
X6161000Y-8562000D02*
X6081000Y-8562000D01*
X4841000Y-9002000D02*
X4841000Y-8562000D01*
X6081000Y-8562000D02*
X6081000Y-9002000D01*
X6161000Y-8582000D02*
X6161000Y-8562000D01*
X4841000Y-7762000D02*
X6081000Y-7762000D01*
X4761000Y-7682000D02*
X4761000Y-8182000D01*
X6161000Y-9082000D02*
X4761000Y-9082000D01*
X6161000Y-8582000D02*
X6161000Y-9082000D01*
X6081000Y-9002000D02*
X4841000Y-9002000D01*
X4841000Y-8182000D02*
X4841000Y-7762000D01*
X6161000Y-7682000D02*
X4761000Y-7682000D01*
X10476000Y-8182000D02*
X10476000Y-8202000D01*
X8651000Y-8202000D02*
X8651000Y-8182000D01*
X7986000Y-7762000D02*
X7986000Y-8182000D01*
X8066000Y-8182000D02*
X8066000Y-7682000D01*
X6666000Y-8562000D02*
X6666000Y-8582000D01*
X8066000Y-7682000D02*
X6666000Y-7682000D01*
X7986000Y-8202000D02*
X8066000Y-8202000D01*
X7986000Y-8182000D02*
X7986000Y-8202000D01*
X6666000Y-8202000D02*
X6746000Y-8202000D01*
X11876000Y-8582000D02*
X11876000Y-9082000D01*
X10556000Y-9002000D02*
X10556000Y-8562000D01*
X6746000Y-8202000D02*
X6746000Y-8182000D01*
X10476000Y-8562000D02*
X10476000Y-8582000D01*
X6666000Y-7682000D02*
X6666000Y-8182000D01*
X12461000Y-9002000D02*
X12461000Y-8562000D01*
X13701000Y-9002000D02*
X12461000Y-9002000D01*
X13781000Y-8582000D02*
X13781000Y-9082000D01*
X13781000Y-9082000D02*
X12381000Y-9082000D01*
X13781000Y-8582000D02*
X13781000Y-8562000D01*
X13781000Y-7682000D02*
X12381000Y-7682000D01*
X13701000Y-8562000D02*
X13701000Y-9002000D01*
X13781000Y-8562000D02*
X13701000Y-8562000D01*
X13701000Y-8182000D02*
X13701000Y-8202000D01*
X12381000Y-8182000D02*
X12381000Y-8202000D01*
X8651000Y-9002000D02*
X8651000Y-8562000D01*
X12461000Y-8562000D02*
X12381000Y-8562000D01*
X12381000Y-9082000D02*
X12381000Y-8582000D01*
X13701000Y-8202000D02*
X13781000Y-8202000D01*
X12381000Y-8562000D02*
X12381000Y-8582000D01*
X8651000Y-8182000D02*
X8651000Y-7762000D01*
X10556000Y-8182000D02*
X10556000Y-7762000D01*
X12461000Y-8202000D02*
X12461000Y-8182000D01*
X10476000Y-8202000D02*
X10556000Y-8202000D01*
X12381000Y-7682000D02*
X12381000Y-8182000D01*
X13781000Y-8202000D02*
X13781000Y-8182000D01*
X13701000Y-7762000D02*
X13701000Y-8182000D01*
X12381000Y-8202000D02*
X12461000Y-8202000D01*
X13781000Y-8182000D02*
X13781000Y-7682000D01*
X12461000Y-8182000D02*
X12461000Y-7762000D01*
X12461000Y-7762000D02*
X13701000Y-7762000D01*
X11876000Y-9082000D02*
X10476000Y-9082000D01*
X10556000Y-7762000D02*
X11796000Y-7762000D01*
X8651000Y-8562000D02*
X8571000Y-8562000D01*
X8571000Y-7682000D02*
X8571000Y-8182000D01*
X11876000Y-8562000D02*
X11796000Y-8562000D01*
X11796000Y-8562000D02*
X11796000Y-9002000D01*
X11796000Y-9002000D02*
X10556000Y-9002000D01*
X8571000Y-8202000D02*
X8651000Y-8202000D01*
X9891000Y-8202000D02*
X9971000Y-8202000D01*
X10556000Y-8202000D02*
X10556000Y-8182000D01*
X11796000Y-8202000D02*
X11876000Y-8202000D01*
X11796000Y-8182000D02*
X11796000Y-8202000D01*
X9971000Y-8202000D02*
X9971000Y-8182000D01*
X8651000Y-7762000D02*
X9891000Y-7762000D01*
X11876000Y-8582000D02*
X11876000Y-8562000D01*
X6746000Y-8182000D02*
X6746000Y-7762000D01*
X9891000Y-8562000D02*
X9891000Y-9002000D01*
X8571000Y-9082000D02*
X8571000Y-8582000D01*
X9971000Y-8562000D02*
X9891000Y-8562000D01*
X9971000Y-9082000D02*
X8571000Y-9082000D01*
X11876000Y-7682000D02*
X10476000Y-7682000D01*
X10476000Y-9082000D02*
X10476000Y-8582000D01*
X6746000Y-9002000D02*
X6746000Y-8562000D01*
X10556000Y-8562000D02*
X10476000Y-8562000D01*
X11876000Y-8202000D02*
X11876000Y-8182000D01*
X8571000Y-8562000D02*
X8571000Y-8582000D01*
X9971000Y-7682000D02*
X8571000Y-7682000D01*
X8066000Y-8582000D02*
X8066000Y-9082000D01*
X11796000Y-7762000D02*
X11796000Y-8182000D01*
X10476000Y-7682000D02*
X10476000Y-8182000D01*
X8571000Y-8182000D02*
X8571000Y-8202000D01*
X11876000Y-8182000D02*
X11876000Y-7682000D01*
X9971000Y-8182000D02*
X9971000Y-7682000D01*
X9891000Y-7762000D02*
X9891000Y-8182000D01*
X9891000Y-8182000D02*
X9891000Y-8202000D01*
X9971000Y-8582000D02*
X9971000Y-8562000D01*
X9971000Y-8582000D02*
X9971000Y-9082000D01*
X9891000Y-9002000D02*
X8651000Y-9002000D01*
X4761000Y-9082000D02*
X4761000Y-8582000D01*
X4841000Y-8562000D02*
X4761000Y-8562000D01*
X11796000Y-6297000D02*
X11876000Y-6297000D01*
X11876000Y-6677000D02*
X11876000Y-6657000D01*
X10476000Y-5777000D02*
X10476000Y-6277000D01*
X11796000Y-6657000D02*
X11796000Y-7097000D01*
X11796000Y-5857000D02*
X11796000Y-6277000D01*
X11876000Y-6657000D02*
X11796000Y-6657000D01*
X10556000Y-6657000D02*
X10476000Y-6657000D01*
X11796000Y-7097000D02*
X10556000Y-7097000D01*
X10556000Y-6277000D02*
X10556000Y-5857000D01*
X10476000Y-7177000D02*
X10476000Y-6677000D01*
X10556000Y-5857000D02*
X11796000Y-5857000D01*
X11796000Y-6277000D02*
X11796000Y-6297000D01*
X10476000Y-6297000D02*
X10556000Y-6297000D01*
X11876000Y-5777000D02*
X10476000Y-5777000D01*
X11876000Y-6677000D02*
X11876000Y-7177000D01*
X10556000Y-7097000D02*
X10556000Y-6657000D01*
X11876000Y-7177000D02*
X10476000Y-7177000D01*
X10476000Y-6657000D02*
X10476000Y-6677000D01*
X11876000Y-6277000D02*
X11876000Y-5777000D01*
X10476000Y-6277000D02*
X10476000Y-6297000D01*
X10556000Y-6297000D02*
X10556000Y-6277000D01*
X11876000Y-6297000D02*
X11876000Y-6277000D01*
X8651000Y-6277000D02*
X8651000Y-5857000D01*
X6746000Y-7097000D02*
X6746000Y-6657000D01*
X8571000Y-6297000D02*
X8651000Y-6297000D01*
X6746000Y-6277000D02*
X6746000Y-5857000D01*
X9971000Y-7177000D02*
X8571000Y-7177000D01*
X8651000Y-5857000D02*
X9891000Y-5857000D01*
X6746000Y-6657000D02*
X6666000Y-6657000D01*
X9891000Y-6657000D02*
X9891000Y-7097000D01*
X9891000Y-7097000D02*
X8651000Y-7097000D01*
X8651000Y-6297000D02*
X8651000Y-6277000D01*
X8066000Y-6297000D02*
X8066000Y-6277000D01*
X9891000Y-6277000D02*
X9891000Y-6297000D01*
X7986000Y-6297000D02*
X8066000Y-6297000D01*
X9891000Y-6297000D02*
X9971000Y-6297000D01*
X6666000Y-5777000D02*
X6666000Y-6277000D01*
X9971000Y-6677000D02*
X9971000Y-6657000D01*
X6666000Y-6297000D02*
X6746000Y-6297000D01*
X9971000Y-6657000D02*
X9891000Y-6657000D01*
X6746000Y-5857000D02*
X7986000Y-5857000D01*
X9891000Y-5857000D02*
X9891000Y-6277000D01*
X8571000Y-5777000D02*
X8571000Y-6277000D01*
X7986000Y-7097000D02*
X6746000Y-7097000D01*
X6666000Y-6277000D02*
X6666000Y-6297000D01*
X9971000Y-6277000D02*
X9971000Y-5777000D01*
X4841000Y-6277000D02*
X4841000Y-5857000D01*
X9971000Y-6297000D02*
X9971000Y-6277000D01*
X9971000Y-5777000D02*
X8571000Y-5777000D01*
X8571000Y-7177000D02*
X8571000Y-6677000D01*
X7986000Y-6657000D02*
X7986000Y-7097000D01*
X8066000Y-6277000D02*
X8066000Y-5777000D01*
X7986000Y-5857000D02*
X7986000Y-6277000D01*
X8066000Y-6657000D02*
X7986000Y-6657000D01*
X8066000Y-5777000D02*
X6666000Y-5777000D01*
X6666000Y-7177000D02*
X6666000Y-6677000D01*
X4841000Y-7097000D02*
X4841000Y-6657000D01*
X8651000Y-6657000D02*
X8571000Y-6657000D01*
X8066000Y-7177000D02*
X6666000Y-7177000D01*
X8066000Y-6677000D02*
X8066000Y-6657000D01*
X8066000Y-6677000D02*
X8066000Y-7177000D01*
X7986000Y-6277000D02*
X7986000Y-6297000D01*
X6161000Y-6677000D02*
X6161000Y-7177000D01*
X6666000Y-6657000D02*
X6666000Y-6677000D01*
X8571000Y-6277000D02*
X8571000Y-6297000D01*
X6746000Y-6297000D02*
X6746000Y-6277000D01*
X9971000Y-6677000D02*
X9971000Y-7177000D01*
X8651000Y-7097000D02*
X8651000Y-6657000D01*
X8571000Y-6657000D02*
X8571000Y-6677000D01*
X6081000Y-6277000D02*
X6081000Y-6297000D01*
X6081000Y-5857000D02*
X6081000Y-6277000D01*
X4761000Y-5777000D02*
X4761000Y-6277000D01*
X6161000Y-5777000D02*
X4761000Y-5777000D01*
X4761000Y-6657000D02*
X4761000Y-6677000D01*
X4841000Y-6297000D02*
X4841000Y-6277000D01*
X6081000Y-6297000D02*
X6161000Y-6297000D01*
X6161000Y-6277000D02*
X6161000Y-5777000D01*
X4761000Y-6297000D02*
X4841000Y-6297000D01*
X6161000Y-7177000D02*
X4761000Y-7177000D01*
X6081000Y-7097000D02*
X4841000Y-7097000D01*
X6161000Y-6657000D02*
X6081000Y-6657000D01*
X4841000Y-6657000D02*
X4761000Y-6657000D01*
X6161000Y-6297000D02*
X6161000Y-6277000D01*
X4761000Y-6277000D02*
X4761000Y-6297000D01*
X4761000Y-7177000D02*
X4761000Y-6677000D01*
X6081000Y-6657000D02*
X6081000Y-7097000D01*
X4841000Y-5857000D02*
X6081000Y-5857000D01*
X6161000Y-6677000D02*
X6161000Y-6657000D01*
X9971000Y-4772000D02*
X9971000Y-5272000D01*
X8651000Y-5192000D02*
X8651000Y-4752000D01*
X8651000Y-4372000D02*
X8651000Y-3952000D01*
X8571000Y-4392000D02*
X8651000Y-4392000D01*
X9971000Y-5272000D02*
X8571000Y-5272000D01*
X8571000Y-4752000D02*
X8571000Y-4772000D01*
X8571000Y-4372000D02*
X8571000Y-4392000D01*
X9891000Y-4752000D02*
X9891000Y-5192000D01*
X8651000Y-4392000D02*
X8651000Y-4372000D01*
X8651000Y-3952000D02*
X9891000Y-3952000D01*
X9891000Y-4372000D02*
X9891000Y-4392000D01*
X9891000Y-4392000D02*
X9971000Y-4392000D01*
X9891000Y-5192000D02*
X8651000Y-5192000D01*
X9971000Y-4772000D02*
X9971000Y-4752000D01*
X9891000Y-3952000D02*
X9891000Y-4372000D01*
X9971000Y-4752000D02*
X9891000Y-4752000D01*
X8571000Y-3872000D02*
X8571000Y-4372000D01*
X9971000Y-4372000D02*
X9971000Y-3872000D01*
X9971000Y-4392000D02*
X9971000Y-4372000D01*
X9971000Y-3872000D02*
X8571000Y-3872000D01*
X8571000Y-5272000D02*
X8571000Y-4772000D01*
X8651000Y-4752000D02*
X8571000Y-4752000D01*
X4256000Y-8582000D02*
X4256000Y-9082000D01*
X2936000Y-9002000D02*
X2936000Y-8562000D01*
X2936000Y-8182000D02*
X2936000Y-7762000D01*
X2856000Y-8202000D02*
X2936000Y-8202000D01*
X4256000Y-9082000D02*
X2856000Y-9082000D01*
X2856000Y-8562000D02*
X2856000Y-8582000D01*
X2856000Y-8182000D02*
X2856000Y-8202000D01*
X4176000Y-8562000D02*
X4176000Y-9002000D01*
X2936000Y-8202000D02*
X2936000Y-8182000D01*
X2936000Y-7762000D02*
X4176000Y-7762000D01*
X4176000Y-8182000D02*
X4176000Y-8202000D01*
X4176000Y-8202000D02*
X4256000Y-8202000D01*
X4176000Y-9002000D02*
X2936000Y-9002000D01*
X4256000Y-8582000D02*
X4256000Y-8562000D01*
X4176000Y-7762000D02*
X4176000Y-8182000D01*
X4256000Y-8562000D02*
X4176000Y-8562000D01*
X2856000Y-7682000D02*
X2856000Y-8182000D01*
X4256000Y-8182000D02*
X4256000Y-7682000D01*
X4256000Y-8202000D02*
X4256000Y-8182000D01*
X4256000Y-7682000D02*
X2856000Y-7682000D01*
X2856000Y-9082000D02*
X2856000Y-8582000D01*
X2936000Y-8562000D02*
X2856000Y-8562000D01*
X4256000Y-6677000D02*
X4256000Y-7177000D01*
X2936000Y-7097000D02*
X2936000Y-6657000D01*
X2936000Y-6277000D02*
X2936000Y-5857000D01*
X2856000Y-6297000D02*
X2936000Y-6297000D01*
X4256000Y-7177000D02*
X2856000Y-7177000D01*
X2856000Y-6657000D02*
X2856000Y-6677000D01*
X2856000Y-6277000D02*
X2856000Y-6297000D01*
X4176000Y-6657000D02*
X4176000Y-7097000D01*
X2936000Y-6297000D02*
X2936000Y-6277000D01*
X2936000Y-5857000D02*
X4176000Y-5857000D01*
X4176000Y-6277000D02*
X4176000Y-6297000D01*
X4176000Y-6297000D02*
X4256000Y-6297000D01*
X4176000Y-7097000D02*
X2936000Y-7097000D01*
X4256000Y-6677000D02*
X4256000Y-6657000D01*
X4176000Y-5857000D02*
X4176000Y-6277000D01*
X4256000Y-6657000D02*
X4176000Y-6657000D01*
X2856000Y-5777000D02*
X2856000Y-6277000D01*
X4256000Y-6277000D02*
X4256000Y-5777000D01*
X4256000Y-6297000D02*
X4256000Y-6277000D01*
X4256000Y-5777000D02*
X2856000Y-5777000D01*
X2856000Y-7177000D02*
X2856000Y-6677000D01*
X2936000Y-6657000D02*
X2856000Y-6657000D01*
X8066000Y-4772000D02*
X8066000Y-5272000D01*
X6746000Y-5192000D02*
X6746000Y-4752000D01*
X6746000Y-4372000D02*
X6746000Y-3952000D01*
X6666000Y-4392000D02*
X6746000Y-4392000D01*
X8066000Y-5272000D02*
X6666000Y-5272000D01*
X6666000Y-4752000D02*
X6666000Y-4772000D01*
X6666000Y-4372000D02*
X6666000Y-4392000D01*
X7986000Y-4752000D02*
X7986000Y-5192000D01*
X6746000Y-4392000D02*
X6746000Y-4372000D01*
X6746000Y-3952000D02*
X7986000Y-3952000D01*
X7986000Y-4372000D02*
X7986000Y-4392000D01*
X7986000Y-4392000D02*
X8066000Y-4392000D01*
X7986000Y-5192000D02*
X6746000Y-5192000D01*
X8066000Y-4772000D02*
X8066000Y-4752000D01*
X7986000Y-3952000D02*
X7986000Y-4372000D01*
X8066000Y-4752000D02*
X7986000Y-4752000D01*
X6666000Y-3872000D02*
X6666000Y-4372000D01*
X8066000Y-4372000D02*
X8066000Y-3872000D01*
X8066000Y-4392000D02*
X8066000Y-4372000D01*
X8066000Y-3872000D02*
X6666000Y-3872000D01*
X6666000Y-5272000D02*
X6666000Y-4772000D01*
X6746000Y-4752000D02*
X6666000Y-4752000D01*
X6161000Y-4772000D02*
X6161000Y-5272000D01*
X4841000Y-5192000D02*
X4841000Y-4752000D01*
X4841000Y-4372000D02*
X4841000Y-3952000D01*
X4761000Y-4392000D02*
X4841000Y-4392000D01*
X6161000Y-5272000D02*
X4761000Y-5272000D01*
X4761000Y-4752000D02*
X4761000Y-4772000D01*
X4761000Y-4372000D02*
X4761000Y-4392000D01*
X6081000Y-4752000D02*
X6081000Y-5192000D01*
X4841000Y-4392000D02*
X4841000Y-4372000D01*
X4841000Y-3952000D02*
X6081000Y-3952000D01*
X6081000Y-4372000D02*
X6081000Y-4392000D01*
X6081000Y-4392000D02*
X6161000Y-4392000D01*
X6081000Y-5192000D02*
X4841000Y-5192000D01*
X6161000Y-4772000D02*
X6161000Y-4752000D01*
X6081000Y-3952000D02*
X6081000Y-4372000D01*
X6161000Y-4752000D02*
X6081000Y-4752000D01*
X4761000Y-3872000D02*
X4761000Y-4372000D01*
X6161000Y-4372000D02*
X6161000Y-3872000D01*
X6161000Y-4392000D02*
X6161000Y-4372000D01*
X6161000Y-3872000D02*
X4761000Y-3872000D01*
X4761000Y-5272000D02*
X4761000Y-4772000D01*
X4841000Y-4752000D02*
X4761000Y-4752000D01*
X4256000Y-4772000D02*
X4256000Y-5272000D01*
X2936000Y-5192000D02*
X2936000Y-4752000D01*
X2936000Y-4372000D02*
X2936000Y-3952000D01*
X2856000Y-4392000D02*
X2936000Y-4392000D01*
X4256000Y-5272000D02*
X2856000Y-5272000D01*
X2856000Y-4752000D02*
X2856000Y-4772000D01*
X2856000Y-4372000D02*
X2856000Y-4392000D01*
X4176000Y-4752000D02*
X4176000Y-5192000D01*
X2936000Y-4392000D02*
X2936000Y-4372000D01*
X2936000Y-3952000D02*
X4176000Y-3952000D01*
X4176000Y-4372000D02*
X4176000Y-4392000D01*
X4176000Y-4392000D02*
X4256000Y-4392000D01*
X4176000Y-5192000D02*
X2936000Y-5192000D01*
X4256000Y-4772000D02*
X4256000Y-4752000D01*
X4176000Y-3952000D02*
X4176000Y-4372000D01*
X4256000Y-4752000D02*
X4176000Y-4752000D01*
X2856000Y-3872000D02*
X2856000Y-4372000D01*
X4256000Y-4372000D02*
X4256000Y-3872000D01*
X4256000Y-4392000D02*
X4256000Y-4372000D01*
X4256000Y-3872000D02*
X2856000Y-3872000D01*
X2856000Y-5272000D02*
X2856000Y-4772000D01*
X2936000Y-4752000D02*
X2856000Y-4752000D01*
X11876000Y-12392000D02*
X11876000Y-12892000D01*
X10556000Y-12812000D02*
X10556000Y-12372000D01*
X10556000Y-11992000D02*
X10556000Y-11572000D01*
X10476000Y-12012000D02*
X10556000Y-12012000D01*
X11876000Y-12892000D02*
X10476000Y-12892000D01*
X10476000Y-12372000D02*
X10476000Y-12392000D01*
X10476000Y-11992000D02*
X10476000Y-12012000D01*
X11796000Y-12372000D02*
X11796000Y-12812000D01*
X10556000Y-12012000D02*
X10556000Y-11992000D01*
X10556000Y-11572000D02*
X11796000Y-11572000D01*
X11796000Y-11992000D02*
X11796000Y-12012000D01*
X11796000Y-12012000D02*
X11876000Y-12012000D01*
X11796000Y-12812000D02*
X10556000Y-12812000D01*
X11876000Y-12392000D02*
X11876000Y-12372000D01*
X11796000Y-11572000D02*
X11796000Y-11992000D01*
X11876000Y-12372000D02*
X11796000Y-12372000D01*
X10476000Y-11492000D02*
X10476000Y-11992000D01*
X11876000Y-11992000D02*
X11876000Y-11492000D01*
X11876000Y-12012000D02*
X11876000Y-11992000D01*
X11876000Y-11492000D02*
X10476000Y-11492000D01*
X10476000Y-12892000D02*
X10476000Y-12392000D01*
X10556000Y-12372000D02*
X10476000Y-12372000D01*
X13781000Y-12392000D02*
X13781000Y-12892000D01*
X12461000Y-12812000D02*
X12461000Y-12372000D01*
X12461000Y-11992000D02*
X12461000Y-11572000D01*
X12381000Y-12012000D02*
X12461000Y-12012000D01*
X13781000Y-12892000D02*
X12381000Y-12892000D01*
X12381000Y-12372000D02*
X12381000Y-12392000D01*
X12381000Y-11992000D02*
X12381000Y-12012000D01*
X13701000Y-12372000D02*
X13701000Y-12812000D01*
X12461000Y-12012000D02*
X12461000Y-11992000D01*
X12461000Y-11572000D02*
X13701000Y-11572000D01*
X13701000Y-11992000D02*
X13701000Y-12012000D01*
X13701000Y-12012000D02*
X13781000Y-12012000D01*
X13701000Y-12812000D02*
X12461000Y-12812000D01*
X13781000Y-12392000D02*
X13781000Y-12372000D01*
X13701000Y-11572000D02*
X13701000Y-11992000D01*
X13781000Y-12372000D02*
X13701000Y-12372000D01*
X12381000Y-11492000D02*
X12381000Y-11992000D01*
X13781000Y-11992000D02*
X13781000Y-11492000D01*
X13781000Y-12012000D02*
X13781000Y-11992000D01*
X13781000Y-11492000D02*
X12381000Y-11492000D01*
X12381000Y-12892000D02*
X12381000Y-12392000D01*
X12461000Y-12372000D02*
X12381000Y-12372000D01*
D12*
X13950000Y-8997000D02*
X13990000Y-9037000D01*
X13990000Y-8997000D02*
X13950000Y-9037000D01*
X14077000Y-10902000D02*
X14117000Y-10942000D01*
X14117000Y-10902000D02*
X14077000Y-10942000D01*
X2911000Y-4472000D02*
G75*
G03*
X2911000Y-4472000I-25000J0D01*
G01*
X2911000Y-4572000D02*
G75*
G03*
X2911000Y-4572000I-25000J0D01*
G01*
X2911000Y-4672000D02*
G75*
G03*
X2911000Y-4672000I-25000J0D01*
G01*
X2911000Y-6377000D02*
G75*
G03*
X2911000Y-6377000I-25000J0D01*
G01*
X2911000Y-6477000D02*
G75*
G03*
X2911000Y-6477000I-25000J0D01*
G01*
X2911000Y-6577000D02*
G75*
G03*
X2911000Y-6577000I-25000J0D01*
G01*
X2911000Y-8282000D02*
G75*
G03*
X2911000Y-8282000I-25000J0D01*
G01*
X2911000Y-8382000D02*
G75*
G03*
X2911000Y-8382000I-25000J0D01*
G01*
X2911000Y-8482000D02*
G75*
G03*
X2911000Y-8482000I-25000J0D01*
G01*
X2911000Y-10187000D02*
G75*
G03*
X2911000Y-10187000I-25000J0D01*
G01*
X2911000Y-10287000D02*
G75*
G03*
X2911000Y-10287000I-25000J0D01*
G01*
X2911000Y-10387000D02*
G75*
G03*
X2911000Y-10387000I-25000J0D01*
G01*
X2911000Y-12092000D02*
G75*
G03*
X2911000Y-12092000I-25000J0D01*
G01*
X2911000Y-12192000D02*
G75*
G03*
X2911000Y-12192000I-25000J0D01*
G01*
X2911000Y-12292000D02*
G75*
G03*
X2911000Y-12292000I-25000J0D01*
G01*
X4251000Y-4472000D02*
G75*
G03*
X4251000Y-4472000I-25000J0D01*
G01*
X4251000Y-4572000D02*
G75*
G03*
X4251000Y-4572000I-25000J0D01*
G01*
X4251000Y-4672000D02*
G75*
G03*
X4251000Y-4672000I-25000J0D01*
G01*
X4251000Y-6377000D02*
G75*
G03*
X4251000Y-6377000I-25000J0D01*
G01*
X4251000Y-6477000D02*
G75*
G03*
X4251000Y-6477000I-25000J0D01*
G01*
X4251000Y-6577000D02*
G75*
G03*
X4251000Y-6577000I-25000J0D01*
G01*
X4251000Y-8282000D02*
G75*
G03*
X4251000Y-8282000I-25000J0D01*
G01*
X4251000Y-8382000D02*
G75*
G03*
X4251000Y-8382000I-25000J0D01*
G01*
X4251000Y-8482000D02*
G75*
G03*
X4251000Y-8482000I-25000J0D01*
G01*
X4251000Y-10187000D02*
G75*
G03*
X4251000Y-10187000I-25000J0D01*
G01*
X4251000Y-10287000D02*
G75*
G03*
X4251000Y-10287000I-25000J0D01*
G01*
X4251000Y-10387000D02*
G75*
G03*
X4251000Y-10387000I-25000J0D01*
G01*
X4251000Y-12092000D02*
G75*
G03*
X4251000Y-12092000I-25000J0D01*
G01*
X4251000Y-12192000D02*
G75*
G03*
X4251000Y-12192000I-25000J0D01*
G01*
X4251000Y-12292000D02*
G75*
G03*
X4251000Y-12292000I-25000J0D01*
G01*
X4816000Y-4472000D02*
G75*
G03*
X4816000Y-4472000I-25000J0D01*
G01*
X4816000Y-4572000D02*
G75*
G03*
X4816000Y-4572000I-25000J0D01*
G01*
X4816000Y-4672000D02*
G75*
G03*
X4816000Y-4672000I-25000J0D01*
G01*
X4816000Y-6377000D02*
G75*
G03*
X4816000Y-6377000I-25000J0D01*
G01*
X4816000Y-6477000D02*
G75*
G03*
X4816000Y-6477000I-25000J0D01*
G01*
X4816000Y-6577000D02*
G75*
G03*
X4816000Y-6577000I-25000J0D01*
G01*
X4816000Y-8282000D02*
G75*
G03*
X4816000Y-8282000I-25000J0D01*
G01*
X4816000Y-8382000D02*
G75*
G03*
X4816000Y-8382000I-25000J0D01*
G01*
X4816000Y-8482000D02*
G75*
G03*
X4816000Y-8482000I-25000J0D01*
G01*
X4816000Y-10187000D02*
G75*
G03*
X4816000Y-10187000I-25000J0D01*
G01*
X4816000Y-10287000D02*
G75*
G03*
X4816000Y-10287000I-25000J0D01*
G01*
X4816000Y-10387000D02*
G75*
G03*
X4816000Y-10387000I-25000J0D01*
G01*
X4816000Y-12092000D02*
G75*
G03*
X4816000Y-12092000I-25000J0D01*
G01*
X4816000Y-12192000D02*
G75*
G03*
X4816000Y-12192000I-25000J0D01*
G01*
X4816000Y-12292000D02*
G75*
G03*
X4816000Y-12292000I-25000J0D01*
G01*
X6156000Y-4472000D02*
G75*
G03*
X6156000Y-4472000I-25000J0D01*
G01*
X6156000Y-4572000D02*
G75*
G03*
X6156000Y-4572000I-25000J0D01*
G01*
X6156000Y-4672000D02*
G75*
G03*
X6156000Y-4672000I-25000J0D01*
G01*
X6156000Y-6377000D02*
G75*
G03*
X6156000Y-6377000I-25000J0D01*
G01*
X6156000Y-6477000D02*
G75*
G03*
X6156000Y-6477000I-25000J0D01*
G01*
X6156000Y-6577000D02*
G75*
G03*
X6156000Y-6577000I-25000J0D01*
G01*
X6156000Y-8282000D02*
G75*
G03*
X6156000Y-8282000I-25000J0D01*
G01*
X6156000Y-8382000D02*
G75*
G03*
X6156000Y-8382000I-25000J0D01*
G01*
X6156000Y-8482000D02*
G75*
G03*
X6156000Y-8482000I-25000J0D01*
G01*
X6156000Y-10187000D02*
G75*
G03*
X6156000Y-10187000I-25000J0D01*
G01*
X6156000Y-10287000D02*
G75*
G03*
X6156000Y-10287000I-25000J0D01*
G01*
X6156000Y-10387000D02*
G75*
G03*
X6156000Y-10387000I-25000J0D01*
G01*
X6156000Y-12092000D02*
G75*
G03*
X6156000Y-12092000I-25000J0D01*
G01*
X6156000Y-12192000D02*
G75*
G03*
X6156000Y-12192000I-25000J0D01*
G01*
X6156000Y-12292000D02*
G75*
G03*
X6156000Y-12292000I-25000J0D01*
G01*
X6721000Y-4472000D02*
G75*
G03*
X6721000Y-4472000I-25000J0D01*
G01*
X6721000Y-4572000D02*
G75*
G03*
X6721000Y-4572000I-25000J0D01*
G01*
X6721000Y-4672000D02*
G75*
G03*
X6721000Y-4672000I-25000J0D01*
G01*
X6721000Y-6377000D02*
G75*
G03*
X6721000Y-6377000I-25000J0D01*
G01*
X6721000Y-6477000D02*
G75*
G03*
X6721000Y-6477000I-25000J0D01*
G01*
X6721000Y-6577000D02*
G75*
G03*
X6721000Y-6577000I-25000J0D01*
G01*
X6721000Y-8282000D02*
G75*
G03*
X6721000Y-8282000I-25000J0D01*
G01*
X6721000Y-8382000D02*
G75*
G03*
X6721000Y-8382000I-25000J0D01*
G01*
X6721000Y-8482000D02*
G75*
G03*
X6721000Y-8482000I-25000J0D01*
G01*
X6721000Y-10187000D02*
G75*
G03*
X6721000Y-10187000I-25000J0D01*
G01*
X6721000Y-10287000D02*
G75*
G03*
X6721000Y-10287000I-25000J0D01*
G01*
X6721000Y-10387000D02*
G75*
G03*
X6721000Y-10387000I-25000J0D01*
G01*
X6721000Y-12092000D02*
G75*
G03*
X6721000Y-12092000I-25000J0D01*
G01*
X6721000Y-12192000D02*
G75*
G03*
X6721000Y-12192000I-25000J0D01*
G01*
X6721000Y-12292000D02*
G75*
G03*
X6721000Y-12292000I-25000J0D01*
G01*
X8061000Y-4472000D02*
G75*
G03*
X8061000Y-4472000I-25000J0D01*
G01*
X8061000Y-4572000D02*
G75*
G03*
X8061000Y-4572000I-25000J0D01*
G01*
X8061000Y-4672000D02*
G75*
G03*
X8061000Y-4672000I-25000J0D01*
G01*
X8061000Y-6377000D02*
G75*
G03*
X8061000Y-6377000I-25000J0D01*
G01*
X8061000Y-6477000D02*
G75*
G03*
X8061000Y-6477000I-25000J0D01*
G01*
X8061000Y-6577000D02*
G75*
G03*
X8061000Y-6577000I-25000J0D01*
G01*
X8061000Y-8282000D02*
G75*
G03*
X8061000Y-8282000I-25000J0D01*
G01*
X8061000Y-8382000D02*
G75*
G03*
X8061000Y-8382000I-25000J0D01*
G01*
X8061000Y-8482000D02*
G75*
G03*
X8061000Y-8482000I-25000J0D01*
G01*
X8061000Y-10187000D02*
G75*
G03*
X8061000Y-10187000I-25000J0D01*
G01*
X8061000Y-10287000D02*
G75*
G03*
X8061000Y-10287000I-25000J0D01*
G01*
X8061000Y-10387000D02*
G75*
G03*
X8061000Y-10387000I-25000J0D01*
G01*
X8061000Y-12092000D02*
G75*
G03*
X8061000Y-12092000I-25000J0D01*
G01*
X8061000Y-12192000D02*
G75*
G03*
X8061000Y-12192000I-25000J0D01*
G01*
X8061000Y-12292000D02*
G75*
G03*
X8061000Y-12292000I-25000J0D01*
G01*
X8626000Y-4472000D02*
G75*
G03*
X8626000Y-4472000I-25000J0D01*
G01*
X8626000Y-4572000D02*
G75*
G03*
X8626000Y-4572000I-25000J0D01*
G01*
X8626000Y-4672000D02*
G75*
G03*
X8626000Y-4672000I-25000J0D01*
G01*
X8626000Y-6377000D02*
G75*
G03*
X8626000Y-6377000I-25000J0D01*
G01*
X8626000Y-6477000D02*
G75*
G03*
X8626000Y-6477000I-25000J0D01*
G01*
X8626000Y-6577000D02*
G75*
G03*
X8626000Y-6577000I-25000J0D01*
G01*
X8626000Y-8282000D02*
G75*
G03*
X8626000Y-8282000I-25000J0D01*
G01*
X8626000Y-8382000D02*
G75*
G03*
X8626000Y-8382000I-25000J0D01*
G01*
X8626000Y-8482000D02*
G75*
G03*
X8626000Y-8482000I-25000J0D01*
G01*
X8626000Y-10187000D02*
G75*
G03*
X8626000Y-10187000I-25000J0D01*
G01*
X8626000Y-10287000D02*
G75*
G03*
X8626000Y-10287000I-25000J0D01*
G01*
X8626000Y-10387000D02*
G75*
G03*
X8626000Y-10387000I-25000J0D01*
G01*
X8626000Y-12092000D02*
G75*
G03*
X8626000Y-12092000I-25000J0D01*
G01*
X8626000Y-12192000D02*
G75*
G03*
X8626000Y-12192000I-25000J0D01*
G01*
X8626000Y-12292000D02*
G75*
G03*
X8626000Y-12292000I-25000J0D01*
G01*
X9966000Y-4472000D02*
G75*
G03*
X9966000Y-4472000I-25000J0D01*
G01*
X9966000Y-4572000D02*
G75*
G03*
X9966000Y-4572000I-25000J0D01*
G01*
X9966000Y-4672000D02*
G75*
G03*
X9966000Y-4672000I-25000J0D01*
G01*
X9966000Y-6377000D02*
G75*
G03*
X9966000Y-6377000I-25000J0D01*
G01*
X9966000Y-6477000D02*
G75*
G03*
X9966000Y-6477000I-25000J0D01*
G01*
X9966000Y-6577000D02*
G75*
G03*
X9966000Y-6577000I-25000J0D01*
G01*
X9966000Y-8282000D02*
G75*
G03*
X9966000Y-8282000I-25000J0D01*
G01*
X9966000Y-8382000D02*
G75*
G03*
X9966000Y-8382000I-25000J0D01*
G01*
X9966000Y-8482000D02*
G75*
G03*
X9966000Y-8482000I-25000J0D01*
G01*
X9966000Y-10187000D02*
G75*
G03*
X9966000Y-10187000I-25000J0D01*
G01*
X9966000Y-10287000D02*
G75*
G03*
X9966000Y-10287000I-25000J0D01*
G01*
X9966000Y-10387000D02*
G75*
G03*
X9966000Y-10387000I-25000J0D01*
G01*
X9966000Y-12092000D02*
G75*
G03*
X9966000Y-12092000I-25000J0D01*
G01*
X9966000Y-12192000D02*
G75*
G03*
X9966000Y-12192000I-25000J0D01*
G01*
X9966000Y-12292000D02*
G75*
G03*
X9966000Y-12292000I-25000J0D01*
G01*
X10531000Y-4472000D02*
G75*
G03*
X10531000Y-4472000I-25000J0D01*
G01*
X10531000Y-4572000D02*
G75*
G03*
X10531000Y-4572000I-25000J0D01*
G01*
X10531000Y-4672000D02*
G75*
G03*
X10531000Y-4672000I-25000J0D01*
G01*
X10531000Y-6377000D02*
G75*
G03*
X10531000Y-6377000I-25000J0D01*
G01*
X10531000Y-6477000D02*
G75*
G03*
X10531000Y-6477000I-25000J0D01*
G01*
X10531000Y-6577000D02*
G75*
G03*
X10531000Y-6577000I-25000J0D01*
G01*
X10531000Y-8282000D02*
G75*
G03*
X10531000Y-8282000I-25000J0D01*
G01*
X10531000Y-8382000D02*
G75*
G03*
X10531000Y-8382000I-25000J0D01*
G01*
X10531000Y-8482000D02*
G75*
G03*
X10531000Y-8482000I-25000J0D01*
G01*
X10531000Y-10187000D02*
G75*
G03*
X10531000Y-10187000I-25000J0D01*
G01*
X10531000Y-10287000D02*
G75*
G03*
X10531000Y-10287000I-25000J0D01*
G01*
X10531000Y-10387000D02*
G75*
G03*
X10531000Y-10387000I-25000J0D01*
G01*
X10531000Y-12092000D02*
G75*
G03*
X10531000Y-12092000I-25000J0D01*
G01*
X10531000Y-12192000D02*
G75*
G03*
X10531000Y-12192000I-25000J0D01*
G01*
X10531000Y-12292000D02*
G75*
G03*
X10531000Y-12292000I-25000J0D01*
G01*
X11871000Y-4472000D02*
G75*
G03*
X11871000Y-4472000I-25000J0D01*
G01*
X11871000Y-4572000D02*
G75*
G03*
X11871000Y-4572000I-25000J0D01*
G01*
X11871000Y-4672000D02*
G75*
G03*
X11871000Y-4672000I-25000J0D01*
G01*
X11871000Y-6377000D02*
G75*
G03*
X11871000Y-6377000I-25000J0D01*
G01*
X11871000Y-6477000D02*
G75*
G03*
X11871000Y-6477000I-25000J0D01*
G01*
X11871000Y-6577000D02*
G75*
G03*
X11871000Y-6577000I-25000J0D01*
G01*
X11871000Y-8282000D02*
G75*
G03*
X11871000Y-8282000I-25000J0D01*
G01*
X11871000Y-8382000D02*
G75*
G03*
X11871000Y-8382000I-25000J0D01*
G01*
X11871000Y-8482000D02*
G75*
G03*
X11871000Y-8482000I-25000J0D01*
G01*
X11871000Y-10187000D02*
G75*
G03*
X11871000Y-10187000I-25000J0D01*
G01*
X11871000Y-10287000D02*
G75*
G03*
X11871000Y-10287000I-25000J0D01*
G01*
X11871000Y-10387000D02*
G75*
G03*
X11871000Y-10387000I-25000J0D01*
G01*
X11871000Y-12092000D02*
G75*
G03*
X11871000Y-12092000I-25000J0D01*
G01*
X11871000Y-12192000D02*
G75*
G03*
X11871000Y-12192000I-25000J0D01*
G01*
X11871000Y-12292000D02*
G75*
G03*
X11871000Y-12292000I-25000J0D01*
G01*
X12436000Y-4472000D02*
G75*
G03*
X12436000Y-4472000I-25000J0D01*
G01*
X12436000Y-4572000D02*
G75*
G03*
X12436000Y-4572000I-25000J0D01*
G01*
X12436000Y-4672000D02*
G75*
G03*
X12436000Y-4672000I-25000J0D01*
G01*
X12436000Y-6377000D02*
G75*
G03*
X12436000Y-6377000I-25000J0D01*
G01*
X12436000Y-6477000D02*
G75*
G03*
X12436000Y-6477000I-25000J0D01*
G01*
X12436000Y-6577000D02*
G75*
G03*
X12436000Y-6577000I-25000J0D01*
G01*
X12436000Y-8282000D02*
G75*
G03*
X12436000Y-8282000I-25000J0D01*
G01*
X12436000Y-8382000D02*
G75*
G03*
X12436000Y-8382000I-25000J0D01*
G01*
X12436000Y-8482000D02*
G75*
G03*
X12436000Y-8482000I-25000J0D01*
G01*
X12436000Y-10187000D02*
G75*
G03*
X12436000Y-10187000I-25000J0D01*
G01*
X12436000Y-10287000D02*
G75*
G03*
X12436000Y-10287000I-25000J0D01*
G01*
X12436000Y-10387000D02*
G75*
G03*
X12436000Y-10387000I-25000J0D01*
G01*
X12436000Y-12092000D02*
G75*
G03*
X12436000Y-12092000I-25000J0D01*
G01*
X12436000Y-12192000D02*
G75*
G03*
X12436000Y-12192000I-25000J0D01*
G01*
X12436000Y-12292000D02*
G75*
G03*
X12436000Y-12292000I-25000J0D01*
G01*
X13776000Y-4472000D02*
G75*
G03*
X13776000Y-4472000I-25000J0D01*
G01*
X13776000Y-4572000D02*
G75*
G03*
X13776000Y-4572000I-25000J0D01*
G01*
X13776000Y-4672000D02*
G75*
G03*
X13776000Y-4672000I-25000J0D01*
G01*
X13776000Y-6377000D02*
G75*
G03*
X13776000Y-6377000I-25000J0D01*
G01*
X13776000Y-6477000D02*
G75*
G03*
X13776000Y-6477000I-25000J0D01*
G01*
X13776000Y-6577000D02*
G75*
G03*
X13776000Y-6577000I-25000J0D01*
G01*
X13776000Y-8282000D02*
G75*
G03*
X13776000Y-8282000I-25000J0D01*
G01*
X13776000Y-8382000D02*
G75*
G03*
X13776000Y-8382000I-25000J0D01*
G01*
X13776000Y-8482000D02*
G75*
G03*
X13776000Y-8482000I-25000J0D01*
G01*
X13776000Y-10187000D02*
G75*
G03*
X13776000Y-10187000I-25000J0D01*
G01*
X13776000Y-10287000D02*
G75*
G03*
X13776000Y-10287000I-25000J0D01*
G01*
X13776000Y-10387000D02*
G75*
G03*
X13776000Y-10387000I-25000J0D01*
G01*
X13776000Y-12092000D02*
G75*
G03*
X13776000Y-12092000I-25000J0D01*
G01*
X13776000Y-12192000D02*
G75*
G03*
X13776000Y-12192000I-25000J0D01*
G01*
X13776000Y-12292000D02*
G75*
G03*
X13776000Y-12292000I-25000J0D01*
G01*
X2667000Y-4532000D02*
X2667000Y-4612000D01*
X2627000Y-4572000D02*
X2707000Y-4572000D01*
X2667000Y-5294000D02*
X2667000Y-5374000D01*
X2627000Y-5334000D02*
X2707000Y-5334000D01*
X2667000Y-6437000D02*
X2667000Y-6517000D01*
X2627000Y-6477000D02*
X2707000Y-6477000D01*
X2667000Y-7199000D02*
X2667000Y-7279000D01*
X2627000Y-7239000D02*
X2707000Y-7239000D01*
X2667000Y-8342000D02*
X2667000Y-8422000D01*
X2627000Y-8382000D02*
X2707000Y-8382000D01*
X2667000Y-9104000D02*
X2667000Y-9184000D01*
X2627000Y-9144000D02*
X2707000Y-9144000D01*
X2667000Y-10247000D02*
X2667000Y-10327000D01*
X2627000Y-10287000D02*
X2707000Y-10287000D01*
X2667000Y-11009000D02*
X2667000Y-11089000D01*
X2627000Y-11049000D02*
X2707000Y-11049000D01*
X2667000Y-12152000D02*
X2667000Y-12232000D01*
X2627000Y-12192000D02*
X2707000Y-12192000D01*
X2667000Y-12914000D02*
X2667000Y-12994000D01*
X2627000Y-12954000D02*
X2707000Y-12954000D01*
X4572000Y-4532000D02*
X4572000Y-4612000D01*
X4532000Y-4572000D02*
X4612000Y-4572000D01*
X4572000Y-5294000D02*
X4572000Y-5374000D01*
X4532000Y-5334000D02*
X4612000Y-5334000D01*
X4572000Y-6437000D02*
X4572000Y-6517000D01*
X4532000Y-6477000D02*
X4612000Y-6477000D01*
X4572000Y-7199000D02*
X4572000Y-7279000D01*
X4532000Y-7239000D02*
X4612000Y-7239000D01*
X4572000Y-8342000D02*
X4572000Y-8422000D01*
X4532000Y-8382000D02*
X4612000Y-8382000D01*
X4572000Y-9104000D02*
X4572000Y-9184000D01*
X4532000Y-9144000D02*
X4612000Y-9144000D01*
X4572000Y-10247000D02*
X4572000Y-10327000D01*
X4532000Y-10287000D02*
X4612000Y-10287000D01*
X4572000Y-11009000D02*
X4572000Y-11089000D01*
X4532000Y-11049000D02*
X4612000Y-11049000D01*
X4572000Y-12152000D02*
X4572000Y-12232000D01*
X4532000Y-12192000D02*
X4612000Y-12192000D01*
X4572000Y-12914000D02*
X4572000Y-12994000D01*
X4532000Y-12954000D02*
X4612000Y-12954000D01*
X6477000Y-4532000D02*
X6477000Y-4612000D01*
X6437000Y-4572000D02*
X6517000Y-4572000D01*
X6477000Y-5294000D02*
X6477000Y-5374000D01*
X6437000Y-5334000D02*
X6517000Y-5334000D01*
X6477000Y-6437000D02*
X6477000Y-6517000D01*
X6437000Y-6477000D02*
X6517000Y-6477000D01*
X6477000Y-7199000D02*
X6477000Y-7279000D01*
X6437000Y-7239000D02*
X6517000Y-7239000D01*
X6477000Y-8342000D02*
X6477000Y-8422000D01*
X6437000Y-8382000D02*
X6517000Y-8382000D01*
X6477000Y-9104000D02*
X6477000Y-9184000D01*
X6437000Y-9144000D02*
X6517000Y-9144000D01*
X6477000Y-10247000D02*
X6477000Y-10327000D01*
X6437000Y-10287000D02*
X6517000Y-10287000D01*
X6477000Y-11009000D02*
X6477000Y-11089000D01*
X6437000Y-11049000D02*
X6517000Y-11049000D01*
X6477000Y-12152000D02*
X6477000Y-12232000D01*
X6437000Y-12192000D02*
X6517000Y-12192000D01*
X6477000Y-12914000D02*
X6477000Y-12994000D01*
X6437000Y-12954000D02*
X6517000Y-12954000D01*
X8361500Y-12152000D02*
X8361500Y-12232000D01*
X8321500Y-12192000D02*
X8401500Y-12192000D01*
X8361500Y-12914000D02*
X8361500Y-12994000D01*
X8321500Y-12954000D02*
X8401500Y-12954000D01*
X8382000Y-4532000D02*
X8382000Y-4612000D01*
X8342000Y-4572000D02*
X8422000Y-4572000D01*
X8382000Y-5294000D02*
X8382000Y-5374000D01*
X8342000Y-5334000D02*
X8422000Y-5334000D01*
X8382000Y-6437000D02*
X8382000Y-6517000D01*
X8342000Y-6477000D02*
X8422000Y-6477000D01*
X8382000Y-7199000D02*
X8382000Y-7279000D01*
X8342000Y-7239000D02*
X8422000Y-7239000D01*
X8382000Y-8342000D02*
X8382000Y-8422000D01*
X8342000Y-8382000D02*
X8422000Y-8382000D01*
X8382000Y-9104000D02*
X8382000Y-9184000D01*
X8342000Y-9144000D02*
X8422000Y-9144000D01*
X8382000Y-10247000D02*
X8382000Y-10327000D01*
X8342000Y-10287000D02*
X8422000Y-10287000D01*
X8382000Y-11009000D02*
X8382000Y-11089000D01*
X8342000Y-11049000D02*
X8422000Y-11049000D01*
X10287000Y-4532000D02*
X10287000Y-4612000D01*
X10247000Y-4572000D02*
X10327000Y-4572000D01*
X10287000Y-5294000D02*
X10287000Y-5374000D01*
X10247000Y-5334000D02*
X10327000Y-5334000D01*
X10287000Y-6437000D02*
X10287000Y-6517000D01*
X10247000Y-6477000D02*
X10327000Y-6477000D01*
X10287000Y-7199000D02*
X10287000Y-7279000D01*
X10247000Y-7239000D02*
X10327000Y-7239000D01*
X10287000Y-8342000D02*
X10287000Y-8422000D01*
X10247000Y-8382000D02*
X10327000Y-8382000D01*
X10287000Y-9104000D02*
X10287000Y-9184000D01*
X10247000Y-9144000D02*
X10327000Y-9144000D01*
X10287000Y-10247000D02*
X10287000Y-10327000D01*
X10247000Y-10287000D02*
X10327000Y-10287000D01*
X10287000Y-11009000D02*
X10287000Y-11089000D01*
X10247000Y-11049000D02*
X10327000Y-11049000D01*
X10287000Y-12152000D02*
X10287000Y-12232000D01*
X10247000Y-12192000D02*
X10327000Y-12192000D01*
X10287000Y-12914000D02*
X10287000Y-12994000D01*
X10247000Y-12954000D02*
X10327000Y-12954000D01*
X12192000Y-4532000D02*
X12192000Y-4612000D01*
X12152000Y-4572000D02*
X12232000Y-4572000D01*
X12192000Y-5294000D02*
X12192000Y-5374000D01*
X12152000Y-5334000D02*
X12232000Y-5334000D01*
X12192000Y-6437000D02*
X12192000Y-6517000D01*
X12152000Y-6477000D02*
X12232000Y-6477000D01*
X12192000Y-7199000D02*
X12192000Y-7279000D01*
X12152000Y-7239000D02*
X12232000Y-7239000D01*
X12192000Y-8342000D02*
X12192000Y-8422000D01*
X12152000Y-8382000D02*
X12232000Y-8382000D01*
X12192000Y-9104000D02*
X12192000Y-9184000D01*
X12152000Y-9144000D02*
X12232000Y-9144000D01*
X12192000Y-10247000D02*
X12192000Y-10327000D01*
X12152000Y-10287000D02*
X12232000Y-10287000D01*
X12192000Y-11009000D02*
X12192000Y-11089000D01*
X12152000Y-11049000D02*
X12232000Y-11049000D01*
X12192000Y-12152000D02*
X12192000Y-12232000D01*
X12152000Y-12192000D02*
X12232000Y-12192000D01*
X12192000Y-12914000D02*
X12192000Y-12994000D01*
X12152000Y-12954000D02*
X12232000Y-12954000D01*
X15021356Y-8163356D02*
X15021356Y-8092644D01*
X14950644Y-8092644D01*
X14950644Y-8163356D01*
X15021356Y-8163356D01*
X15021356Y-8798356D02*
X15021356Y-8727644D01*
X14950644Y-8727644D01*
X14950644Y-8798356D01*
X15021356Y-8798356D01*
X15275356Y-8163356D02*
X15275356Y-8092644D01*
X15204644Y-8092644D01*
X15204644Y-8163356D01*
X15275356Y-8163356D01*
X15275356Y-8798356D02*
X15275356Y-8727644D01*
X15204644Y-8727644D01*
X15204644Y-8798356D01*
X15275356Y-8798356D01*
X15529356Y-8163356D02*
X15529356Y-8092644D01*
X15458644Y-8092644D01*
X15458644Y-8163356D01*
X15529356Y-8163356D01*
X15529356Y-8798356D02*
X15529356Y-8727644D01*
X15458644Y-8727644D01*
X15458644Y-8798356D01*
X15529356Y-8798356D01*
X15783356Y-8163356D02*
X15783356Y-8092644D01*
X15712644Y-8092644D01*
X15712644Y-8163356D01*
X15783356Y-8163356D01*
X15783356Y-8798356D02*
X15783356Y-8727644D01*
X15712644Y-8727644D01*
X15712644Y-8798356D01*
X15783356Y-8798356D01*
X3429000Y-4119000D02*
X3484000Y-4064000D01*
X3429000Y-4009000D01*
X3374000Y-4064000D01*
X3429000Y-4119000D01*
X3429000Y-6024000D02*
X3484000Y-5969000D01*
X3429000Y-5914000D01*
X3374000Y-5969000D01*
X3429000Y-6024000D01*
X3429000Y-7929000D02*
X3484000Y-7874000D01*
X3429000Y-7819000D01*
X3374000Y-7874000D01*
X3429000Y-7929000D01*
X3429000Y-9834000D02*
X3484000Y-9779000D01*
X3429000Y-9724000D01*
X3374000Y-9779000D01*
X3429000Y-9834000D01*
X3429000Y-11739000D02*
X3484000Y-11684000D01*
X3429000Y-11629000D01*
X3374000Y-11684000D01*
X3429000Y-11739000D01*
X3683000Y-4119000D02*
X3738000Y-4064000D01*
X3683000Y-4009000D01*
X3628000Y-4064000D01*
X3683000Y-4119000D01*
X3683000Y-6024000D02*
X3738000Y-5969000D01*
X3683000Y-5914000D01*
X3628000Y-5969000D01*
X3683000Y-6024000D01*
X3683000Y-7929000D02*
X3738000Y-7874000D01*
X3683000Y-7819000D01*
X3628000Y-7874000D01*
X3683000Y-7929000D01*
X3683000Y-9834000D02*
X3738000Y-9779000D01*
X3683000Y-9724000D01*
X3628000Y-9779000D01*
X3683000Y-9834000D01*
X3683000Y-11739000D02*
X3738000Y-11684000D01*
X3683000Y-11629000D01*
X3628000Y-11684000D01*
X3683000Y-11739000D01*
X5334000Y-4119000D02*
X5389000Y-4064000D01*
X5334000Y-4009000D01*
X5279000Y-4064000D01*
X5334000Y-4119000D01*
X5334000Y-6024000D02*
X5389000Y-5969000D01*
X5334000Y-5914000D01*
X5279000Y-5969000D01*
X5334000Y-6024000D01*
X5334000Y-7929000D02*
X5389000Y-7874000D01*
X5334000Y-7819000D01*
X5279000Y-7874000D01*
X5334000Y-7929000D01*
X5334000Y-9834000D02*
X5389000Y-9779000D01*
X5334000Y-9724000D01*
X5279000Y-9779000D01*
X5334000Y-9834000D01*
X5334000Y-11739000D02*
X5389000Y-11684000D01*
X5334000Y-11629000D01*
X5279000Y-11684000D01*
X5334000Y-11739000D01*
X5588000Y-4119000D02*
X5643000Y-4064000D01*
X5588000Y-4009000D01*
X5533000Y-4064000D01*
X5588000Y-4119000D01*
X5588000Y-6024000D02*
X5643000Y-5969000D01*
X5588000Y-5914000D01*
X5533000Y-5969000D01*
X5588000Y-6024000D01*
X5588000Y-7929000D02*
X5643000Y-7874000D01*
X5588000Y-7819000D01*
X5533000Y-7874000D01*
X5588000Y-7929000D01*
X5588000Y-9834000D02*
X5643000Y-9779000D01*
X5588000Y-9724000D01*
X5533000Y-9779000D01*
X5588000Y-9834000D01*
X5588000Y-11739000D02*
X5643000Y-11684000D01*
X5588000Y-11629000D01*
X5533000Y-11684000D01*
X5588000Y-11739000D01*
X7239000Y-4119000D02*
X7294000Y-4064000D01*
X7239000Y-4009000D01*
X7184000Y-4064000D01*
X7239000Y-4119000D01*
X7239000Y-6024000D02*
X7294000Y-5969000D01*
X7239000Y-5914000D01*
X7184000Y-5969000D01*
X7239000Y-6024000D01*
X7239000Y-7929000D02*
X7294000Y-7874000D01*
X7239000Y-7819000D01*
X7184000Y-7874000D01*
X7239000Y-7929000D01*
X7239000Y-9834000D02*
X7294000Y-9779000D01*
X7239000Y-9724000D01*
X7184000Y-9779000D01*
X7239000Y-9834000D01*
X7239000Y-11739000D02*
X7294000Y-11684000D01*
X7239000Y-11629000D01*
X7184000Y-11684000D01*
X7239000Y-11739000D01*
X7493000Y-4119000D02*
X7548000Y-4064000D01*
X7493000Y-4009000D01*
X7438000Y-4064000D01*
X7493000Y-4119000D01*
X7493000Y-6024000D02*
X7548000Y-5969000D01*
X7493000Y-5914000D01*
X7438000Y-5969000D01*
X7493000Y-6024000D01*
X7493000Y-7929000D02*
X7548000Y-7874000D01*
X7493000Y-7819000D01*
X7438000Y-7874000D01*
X7493000Y-7929000D01*
X7493000Y-9834000D02*
X7548000Y-9779000D01*
X7493000Y-9724000D01*
X7438000Y-9779000D01*
X7493000Y-9834000D01*
X7493000Y-11739000D02*
X7548000Y-11684000D01*
X7493000Y-11629000D01*
X7438000Y-11684000D01*
X7493000Y-11739000D01*
X9144000Y-4119000D02*
X9199000Y-4064000D01*
X9144000Y-4009000D01*
X9089000Y-4064000D01*
X9144000Y-4119000D01*
X9144000Y-6024000D02*
X9199000Y-5969000D01*
X9144000Y-5914000D01*
X9089000Y-5969000D01*
X9144000Y-6024000D01*
X9144000Y-7929000D02*
X9199000Y-7874000D01*
X9144000Y-7819000D01*
X9089000Y-7874000D01*
X9144000Y-7929000D01*
X9144000Y-9834000D02*
X9199000Y-9779000D01*
X9144000Y-9724000D01*
X9089000Y-9779000D01*
X9144000Y-9834000D01*
X9144000Y-11739000D02*
X9199000Y-11684000D01*
X9144000Y-11629000D01*
X9089000Y-11684000D01*
X9144000Y-11739000D01*
X9398000Y-4119000D02*
X9453000Y-4064000D01*
X9398000Y-4009000D01*
X9343000Y-4064000D01*
X9398000Y-4119000D01*
X9398000Y-6024000D02*
X9453000Y-5969000D01*
X9398000Y-5914000D01*
X9343000Y-5969000D01*
X9398000Y-6024000D01*
X9398000Y-7929000D02*
X9453000Y-7874000D01*
X9398000Y-7819000D01*
X9343000Y-7874000D01*
X9398000Y-7929000D01*
X9398000Y-9834000D02*
X9453000Y-9779000D01*
X9398000Y-9724000D01*
X9343000Y-9779000D01*
X9398000Y-9834000D01*
X9398000Y-11739000D02*
X9453000Y-11684000D01*
X9398000Y-11629000D01*
X9343000Y-11684000D01*
X9398000Y-11739000D01*
X11049000Y-4119000D02*
X11104000Y-4064000D01*
X11049000Y-4009000D01*
X10994000Y-4064000D01*
X11049000Y-4119000D01*
X11049000Y-6024000D02*
X11104000Y-5969000D01*
X11049000Y-5914000D01*
X10994000Y-5969000D01*
X11049000Y-6024000D01*
X11049000Y-7929000D02*
X11104000Y-7874000D01*
X11049000Y-7819000D01*
X10994000Y-7874000D01*
X11049000Y-7929000D01*
X11049000Y-9834000D02*
X11104000Y-9779000D01*
X11049000Y-9724000D01*
X10994000Y-9779000D01*
X11049000Y-9834000D01*
X11049000Y-11739000D02*
X11104000Y-11684000D01*
X11049000Y-11629000D01*
X10994000Y-11684000D01*
X11049000Y-11739000D01*
X11303000Y-4119000D02*
X11358000Y-4064000D01*
X11303000Y-4009000D01*
X11248000Y-4064000D01*
X11303000Y-4119000D01*
X11303000Y-6024000D02*
X11358000Y-5969000D01*
X11303000Y-5914000D01*
X11248000Y-5969000D01*
X11303000Y-6024000D01*
X11303000Y-7929000D02*
X11358000Y-7874000D01*
X11303000Y-7819000D01*
X11248000Y-7874000D01*
X11303000Y-7929000D01*
X11303000Y-9834000D02*
X11358000Y-9779000D01*
X11303000Y-9724000D01*
X11248000Y-9779000D01*
X11303000Y-9834000D01*
X11303000Y-11739000D02*
X11358000Y-11684000D01*
X11303000Y-11629000D01*
X11248000Y-11684000D01*
X11303000Y-11739000D01*
X12954000Y-4119000D02*
X13009000Y-4064000D01*
X12954000Y-4009000D01*
X12899000Y-4064000D01*
X12954000Y-4119000D01*
X12954000Y-6024000D02*
X13009000Y-5969000D01*
X12954000Y-5914000D01*
X12899000Y-5969000D01*
X12954000Y-6024000D01*
X12954000Y-7929000D02*
X13009000Y-7874000D01*
X12954000Y-7819000D01*
X12899000Y-7874000D01*
X12954000Y-7929000D01*
X12954000Y-9834000D02*
X13009000Y-9779000D01*
X12954000Y-9724000D01*
X12899000Y-9779000D01*
X12954000Y-9834000D01*
X12954000Y-11739000D02*
X13009000Y-11684000D01*
X12954000Y-11629000D01*
X12899000Y-11684000D01*
X12954000Y-11739000D01*
X13208000Y-4119000D02*
X13263000Y-4064000D01*
X13208000Y-4009000D01*
X13153000Y-4064000D01*
X13208000Y-4119000D01*
X13208000Y-6024000D02*
X13263000Y-5969000D01*
X13208000Y-5914000D01*
X13153000Y-5969000D01*
X13208000Y-6024000D01*
X13208000Y-7929000D02*
X13263000Y-7874000D01*
X13208000Y-7819000D01*
X13153000Y-7874000D01*
X13208000Y-7929000D01*
X13208000Y-9834000D02*
X13263000Y-9779000D01*
X13208000Y-9724000D01*
X13153000Y-9779000D01*
X13208000Y-9834000D01*
X13208000Y-11739000D02*
X13263000Y-11684000D01*
X13208000Y-11629000D01*
X13153000Y-11684000D01*
X13208000Y-11739000D01*
X14351000Y-3865000D02*
X14406000Y-3810000D01*
X14351000Y-3755000D01*
X14296000Y-3810000D01*
X14351000Y-3865000D01*
X14351000Y-4119000D02*
X14406000Y-4064000D01*
X14351000Y-4009000D01*
X14296000Y-4064000D01*
X14351000Y-4119000D01*
X14351000Y-4373000D02*
X14406000Y-4318000D01*
X14351000Y-4263000D01*
X14296000Y-4318000D01*
X14351000Y-4373000D01*
X14351000Y-4627000D02*
X14406000Y-4572000D01*
X14351000Y-4517000D01*
X14296000Y-4572000D01*
X14351000Y-4627000D01*
X14351000Y-4881000D02*
X14406000Y-4826000D01*
X14351000Y-4771000D01*
X14296000Y-4826000D01*
X14351000Y-4881000D01*
X14351000Y-5135000D02*
X14406000Y-5080000D01*
X14351000Y-5025000D01*
X14296000Y-5080000D01*
X14351000Y-5135000D01*
X14351000Y-5389000D02*
X14406000Y-5334000D01*
X14351000Y-5279000D01*
X14296000Y-5334000D01*
X14351000Y-5389000D01*
X14351000Y-5643000D02*
X14406000Y-5588000D01*
X14351000Y-5533000D01*
X14296000Y-5588000D01*
X14351000Y-5643000D01*
X14351000Y-5897000D02*
X14406000Y-5842000D01*
X14351000Y-5787000D01*
X14296000Y-5842000D01*
X14351000Y-5897000D01*
X14351000Y-6151000D02*
X14406000Y-6096000D01*
X14351000Y-6041000D01*
X14296000Y-6096000D01*
X14351000Y-6151000D01*
X14351000Y-6405000D02*
X14406000Y-6350000D01*
X14351000Y-6295000D01*
X14296000Y-6350000D01*
X14351000Y-6405000D01*
X14351000Y-6659000D02*
X14406000Y-6604000D01*
X14351000Y-6549000D01*
X14296000Y-6604000D01*
X14351000Y-6659000D01*
X15875000Y-3865000D02*
X15930000Y-3810000D01*
X15875000Y-3755000D01*
X15820000Y-3810000D01*
X15875000Y-3865000D01*
X15875000Y-4119000D02*
X15930000Y-4064000D01*
X15875000Y-4009000D01*
X15820000Y-4064000D01*
X15875000Y-4119000D01*
X15875000Y-4373000D02*
X15930000Y-4318000D01*
X15875000Y-4263000D01*
X15820000Y-4318000D01*
X15875000Y-4373000D01*
X15875000Y-4627000D02*
X15930000Y-4572000D01*
X15875000Y-4517000D01*
X15820000Y-4572000D01*
X15875000Y-4627000D01*
X15875000Y-4881000D02*
X15930000Y-4826000D01*
X15875000Y-4771000D01*
X15820000Y-4826000D01*
X15875000Y-4881000D01*
X15875000Y-5135000D02*
X15930000Y-5080000D01*
X15875000Y-5025000D01*
X15820000Y-5080000D01*
X15875000Y-5135000D01*
X15875000Y-5389000D02*
X15930000Y-5334000D01*
X15875000Y-5279000D01*
X15820000Y-5334000D01*
X15875000Y-5389000D01*
X15875000Y-5643000D02*
X15930000Y-5588000D01*
X15875000Y-5533000D01*
X15820000Y-5588000D01*
X15875000Y-5643000D01*
X15875000Y-5897000D02*
X15930000Y-5842000D01*
X15875000Y-5787000D01*
X15820000Y-5842000D01*
X15875000Y-5897000D01*
X15875000Y-6151000D02*
X15930000Y-6096000D01*
X15875000Y-6041000D01*
X15820000Y-6096000D01*
X15875000Y-6151000D01*
X15875000Y-6405000D02*
X15930000Y-6350000D01*
X15875000Y-6295000D01*
X15820000Y-6350000D01*
X15875000Y-6405000D01*
X15875000Y-6659000D02*
X15930000Y-6604000D01*
X15875000Y-6549000D01*
X15820000Y-6604000D01*
X15875000Y-6659000D01*
X3105000Y-4756000D02*
X3245000Y-4896000D01*
X3245000Y-4756000D02*
X3105000Y-4896000D01*
X3245000Y-4826000D02*
G75*
G03*
X3245000Y-4826000I-70000J0D01*
G01*
X3105000Y-6661000D02*
X3245000Y-6801000D01*
X3245000Y-6661000D02*
X3105000Y-6801000D01*
X3245000Y-6731000D02*
G75*
G03*
X3245000Y-6731000I-70000J0D01*
G01*
X3105000Y-8566000D02*
X3245000Y-8706000D01*
X3245000Y-8566000D02*
X3105000Y-8706000D01*
X3245000Y-8636000D02*
G75*
G03*
X3245000Y-8636000I-70000J0D01*
G01*
X3105000Y-10471000D02*
X3245000Y-10611000D01*
X3245000Y-10471000D02*
X3105000Y-10611000D01*
X3245000Y-10541000D02*
G75*
G03*
X3245000Y-10541000I-70000J0D01*
G01*
X3105000Y-12376000D02*
X3245000Y-12516000D01*
X3245000Y-12376000D02*
X3105000Y-12516000D01*
X3245000Y-12446000D02*
G75*
G03*
X3245000Y-12446000I-70000J0D01*
G01*
X3232000Y-4989680D02*
X3372000Y-5129680D01*
X3372000Y-4989680D02*
X3232000Y-5129680D01*
X3372000Y-5059680D02*
G75*
G03*
X3372000Y-5059680I-70000J0D01*
G01*
X3232000Y-6894680D02*
X3372000Y-7034680D01*
X3372000Y-6894680D02*
X3232000Y-7034680D01*
X3372000Y-6964680D02*
G75*
G03*
X3372000Y-6964680I-70000J0D01*
G01*
X3232000Y-8799680D02*
X3372000Y-8939680D01*
X3372000Y-8799680D02*
X3232000Y-8939680D01*
X3372000Y-8869680D02*
G75*
G03*
X3372000Y-8869680I-70000J0D01*
G01*
X3232000Y-10704680D02*
X3372000Y-10844680D01*
X3372000Y-10704680D02*
X3232000Y-10844680D01*
X3372000Y-10774680D02*
G75*
G03*
X3372000Y-10774680I-70000J0D01*
G01*
X3232000Y-12609680D02*
X3372000Y-12749680D01*
X3372000Y-12609680D02*
X3232000Y-12749680D01*
X3372000Y-12679680D02*
G75*
G03*
X3372000Y-12679680I-70000J0D01*
G01*
X3740000Y-4989680D02*
X3880000Y-5129680D01*
X3880000Y-4989680D02*
X3740000Y-5129680D01*
X3880000Y-5059680D02*
G75*
G03*
X3880000Y-5059680I-70000J0D01*
G01*
X3740000Y-6894680D02*
X3880000Y-7034680D01*
X3880000Y-6894680D02*
X3740000Y-7034680D01*
X3880000Y-6964680D02*
G75*
G03*
X3880000Y-6964680I-70000J0D01*
G01*
X3740000Y-8799680D02*
X3880000Y-8939680D01*
X3880000Y-8799680D02*
X3740000Y-8939680D01*
X3880000Y-8869680D02*
G75*
G03*
X3880000Y-8869680I-70000J0D01*
G01*
X3740000Y-10704680D02*
X3880000Y-10844680D01*
X3880000Y-10704680D02*
X3740000Y-10844680D01*
X3880000Y-10774680D02*
G75*
G03*
X3880000Y-10774680I-70000J0D01*
G01*
X3740000Y-12609680D02*
X3880000Y-12749680D01*
X3880000Y-12609680D02*
X3740000Y-12749680D01*
X3880000Y-12679680D02*
G75*
G03*
X3880000Y-12679680I-70000J0D01*
G01*
X3867000Y-4756000D02*
X4007000Y-4896000D01*
X4007000Y-4756000D02*
X3867000Y-4896000D01*
X4007000Y-4826000D02*
G75*
G03*
X4007000Y-4826000I-70000J0D01*
G01*
X3867000Y-6661000D02*
X4007000Y-6801000D01*
X4007000Y-6661000D02*
X3867000Y-6801000D01*
X4007000Y-6731000D02*
G75*
G03*
X4007000Y-6731000I-70000J0D01*
G01*
X3867000Y-8566000D02*
X4007000Y-8706000D01*
X4007000Y-8566000D02*
X3867000Y-8706000D01*
X4007000Y-8636000D02*
G75*
G03*
X4007000Y-8636000I-70000J0D01*
G01*
X3867000Y-10471000D02*
X4007000Y-10611000D01*
X4007000Y-10471000D02*
X3867000Y-10611000D01*
X4007000Y-10541000D02*
G75*
G03*
X4007000Y-10541000I-70000J0D01*
G01*
X3867000Y-12376000D02*
X4007000Y-12516000D01*
X4007000Y-12376000D02*
X3867000Y-12516000D01*
X4007000Y-12446000D02*
G75*
G03*
X4007000Y-12446000I-70000J0D01*
G01*
X5010000Y-4756000D02*
X5150000Y-4896000D01*
X5150000Y-4756000D02*
X5010000Y-4896000D01*
X5150000Y-4826000D02*
G75*
G03*
X5150000Y-4826000I-70000J0D01*
G01*
X5010000Y-6661000D02*
X5150000Y-6801000D01*
X5150000Y-6661000D02*
X5010000Y-6801000D01*
X5150000Y-6731000D02*
G75*
G03*
X5150000Y-6731000I-70000J0D01*
G01*
X5010000Y-8566000D02*
X5150000Y-8706000D01*
X5150000Y-8566000D02*
X5010000Y-8706000D01*
X5150000Y-8636000D02*
G75*
G03*
X5150000Y-8636000I-70000J0D01*
G01*
X5010000Y-10471000D02*
X5150000Y-10611000D01*
X5150000Y-10471000D02*
X5010000Y-10611000D01*
X5150000Y-10541000D02*
G75*
G03*
X5150000Y-10541000I-70000J0D01*
G01*
X5010000Y-12376000D02*
X5150000Y-12516000D01*
X5150000Y-12376000D02*
X5010000Y-12516000D01*
X5150000Y-12446000D02*
G75*
G03*
X5150000Y-12446000I-70000J0D01*
G01*
X5137000Y-4989680D02*
X5277000Y-5129680D01*
X5277000Y-4989680D02*
X5137000Y-5129680D01*
X5277000Y-5059680D02*
G75*
G03*
X5277000Y-5059680I-70000J0D01*
G01*
X5137000Y-6894680D02*
X5277000Y-7034680D01*
X5277000Y-6894680D02*
X5137000Y-7034680D01*
X5277000Y-6964680D02*
G75*
G03*
X5277000Y-6964680I-70000J0D01*
G01*
X5137000Y-8799680D02*
X5277000Y-8939680D01*
X5277000Y-8799680D02*
X5137000Y-8939680D01*
X5277000Y-8869680D02*
G75*
G03*
X5277000Y-8869680I-70000J0D01*
G01*
X5137000Y-10704680D02*
X5277000Y-10844680D01*
X5277000Y-10704680D02*
X5137000Y-10844680D01*
X5277000Y-10774680D02*
G75*
G03*
X5277000Y-10774680I-70000J0D01*
G01*
X5137000Y-12609680D02*
X5277000Y-12749680D01*
X5277000Y-12609680D02*
X5137000Y-12749680D01*
X5277000Y-12679680D02*
G75*
G03*
X5277000Y-12679680I-70000J0D01*
G01*
X5645000Y-4989680D02*
X5785000Y-5129680D01*
X5785000Y-4989680D02*
X5645000Y-5129680D01*
X5785000Y-5059680D02*
G75*
G03*
X5785000Y-5059680I-70000J0D01*
G01*
X5645000Y-6894680D02*
X5785000Y-7034680D01*
X5785000Y-6894680D02*
X5645000Y-7034680D01*
X5785000Y-6964680D02*
G75*
G03*
X5785000Y-6964680I-70000J0D01*
G01*
X5645000Y-8799680D02*
X5785000Y-8939680D01*
X5785000Y-8799680D02*
X5645000Y-8939680D01*
X5785000Y-8869680D02*
G75*
G03*
X5785000Y-8869680I-70000J0D01*
G01*
X5645000Y-10704680D02*
X5785000Y-10844680D01*
X5785000Y-10704680D02*
X5645000Y-10844680D01*
X5785000Y-10774680D02*
G75*
G03*
X5785000Y-10774680I-70000J0D01*
G01*
X5645000Y-12609680D02*
X5785000Y-12749680D01*
X5785000Y-12609680D02*
X5645000Y-12749680D01*
X5785000Y-12679680D02*
G75*
G03*
X5785000Y-12679680I-70000J0D01*
G01*
X5772000Y-4756000D02*
X5912000Y-4896000D01*
X5912000Y-4756000D02*
X5772000Y-4896000D01*
X5912000Y-4826000D02*
G75*
G03*
X5912000Y-4826000I-70000J0D01*
G01*
X5772000Y-6661000D02*
X5912000Y-6801000D01*
X5912000Y-6661000D02*
X5772000Y-6801000D01*
X5912000Y-6731000D02*
G75*
G03*
X5912000Y-6731000I-70000J0D01*
G01*
X5772000Y-8566000D02*
X5912000Y-8706000D01*
X5912000Y-8566000D02*
X5772000Y-8706000D01*
X5912000Y-8636000D02*
G75*
G03*
X5912000Y-8636000I-70000J0D01*
G01*
X5772000Y-10471000D02*
X5912000Y-10611000D01*
X5912000Y-10471000D02*
X5772000Y-10611000D01*
X5912000Y-10541000D02*
G75*
G03*
X5912000Y-10541000I-70000J0D01*
G01*
X5772000Y-12376000D02*
X5912000Y-12516000D01*
X5912000Y-12376000D02*
X5772000Y-12516000D01*
X5912000Y-12446000D02*
G75*
G03*
X5912000Y-12446000I-70000J0D01*
G01*
X6915000Y-4756000D02*
X7055000Y-4896000D01*
X7055000Y-4756000D02*
X6915000Y-4896000D01*
X7055000Y-4826000D02*
G75*
G03*
X7055000Y-4826000I-70000J0D01*
G01*
X6915000Y-6661000D02*
X7055000Y-6801000D01*
X7055000Y-6661000D02*
X6915000Y-6801000D01*
X7055000Y-6731000D02*
G75*
G03*
X7055000Y-6731000I-70000J0D01*
G01*
X6915000Y-8566000D02*
X7055000Y-8706000D01*
X7055000Y-8566000D02*
X6915000Y-8706000D01*
X7055000Y-8636000D02*
G75*
G03*
X7055000Y-8636000I-70000J0D01*
G01*
X6915000Y-10471000D02*
X7055000Y-10611000D01*
X7055000Y-10471000D02*
X6915000Y-10611000D01*
X7055000Y-10541000D02*
G75*
G03*
X7055000Y-10541000I-70000J0D01*
G01*
X6915000Y-12376000D02*
X7055000Y-12516000D01*
X7055000Y-12376000D02*
X6915000Y-12516000D01*
X7055000Y-12446000D02*
G75*
G03*
X7055000Y-12446000I-70000J0D01*
G01*
X7042000Y-4989680D02*
X7182000Y-5129680D01*
X7182000Y-4989680D02*
X7042000Y-5129680D01*
X7182000Y-5059680D02*
G75*
G03*
X7182000Y-5059680I-70000J0D01*
G01*
X7042000Y-6894680D02*
X7182000Y-7034680D01*
X7182000Y-6894680D02*
X7042000Y-7034680D01*
X7182000Y-6964680D02*
G75*
G03*
X7182000Y-6964680I-70000J0D01*
G01*
X7042000Y-8799680D02*
X7182000Y-8939680D01*
X7182000Y-8799680D02*
X7042000Y-8939680D01*
X7182000Y-8869680D02*
G75*
G03*
X7182000Y-8869680I-70000J0D01*
G01*
X7042000Y-10704680D02*
X7182000Y-10844680D01*
X7182000Y-10704680D02*
X7042000Y-10844680D01*
X7182000Y-10774680D02*
G75*
G03*
X7182000Y-10774680I-70000J0D01*
G01*
X7042000Y-12609680D02*
X7182000Y-12749680D01*
X7182000Y-12609680D02*
X7042000Y-12749680D01*
X7182000Y-12679680D02*
G75*
G03*
X7182000Y-12679680I-70000J0D01*
G01*
X7550000Y-4989680D02*
X7690000Y-5129680D01*
X7690000Y-4989680D02*
X7550000Y-5129680D01*
X7690000Y-5059680D02*
G75*
G03*
X7690000Y-5059680I-70000J0D01*
G01*
X7550000Y-6894680D02*
X7690000Y-7034680D01*
X7690000Y-6894680D02*
X7550000Y-7034680D01*
X7690000Y-6964680D02*
G75*
G03*
X7690000Y-6964680I-70000J0D01*
G01*
X7550000Y-8799680D02*
X7690000Y-8939680D01*
X7690000Y-8799680D02*
X7550000Y-8939680D01*
X7690000Y-8869680D02*
G75*
G03*
X7690000Y-8869680I-70000J0D01*
G01*
X7550000Y-10704680D02*
X7690000Y-10844680D01*
X7690000Y-10704680D02*
X7550000Y-10844680D01*
X7690000Y-10774680D02*
G75*
G03*
X7690000Y-10774680I-70000J0D01*
G01*
X7550000Y-12609680D02*
X7690000Y-12749680D01*
X7690000Y-12609680D02*
X7550000Y-12749680D01*
X7690000Y-12679680D02*
G75*
G03*
X7690000Y-12679680I-70000J0D01*
G01*
X7677000Y-4756000D02*
X7817000Y-4896000D01*
X7817000Y-4756000D02*
X7677000Y-4896000D01*
X7817000Y-4826000D02*
G75*
G03*
X7817000Y-4826000I-70000J0D01*
G01*
X7677000Y-6661000D02*
X7817000Y-6801000D01*
X7817000Y-6661000D02*
X7677000Y-6801000D01*
X7817000Y-6731000D02*
G75*
G03*
X7817000Y-6731000I-70000J0D01*
G01*
X7677000Y-8566000D02*
X7817000Y-8706000D01*
X7817000Y-8566000D02*
X7677000Y-8706000D01*
X7817000Y-8636000D02*
G75*
G03*
X7817000Y-8636000I-70000J0D01*
G01*
X7677000Y-10471000D02*
X7817000Y-10611000D01*
X7817000Y-10471000D02*
X7677000Y-10611000D01*
X7817000Y-10541000D02*
G75*
G03*
X7817000Y-10541000I-70000J0D01*
G01*
X7677000Y-12376000D02*
X7817000Y-12516000D01*
X7817000Y-12376000D02*
X7677000Y-12516000D01*
X7817000Y-12446000D02*
G75*
G03*
X7817000Y-12446000I-70000J0D01*
G01*
X8820000Y-4756000D02*
X8960000Y-4896000D01*
X8960000Y-4756000D02*
X8820000Y-4896000D01*
X8960000Y-4826000D02*
G75*
G03*
X8960000Y-4826000I-70000J0D01*
G01*
X8820000Y-6661000D02*
X8960000Y-6801000D01*
X8960000Y-6661000D02*
X8820000Y-6801000D01*
X8960000Y-6731000D02*
G75*
G03*
X8960000Y-6731000I-70000J0D01*
G01*
X8820000Y-8566000D02*
X8960000Y-8706000D01*
X8960000Y-8566000D02*
X8820000Y-8706000D01*
X8960000Y-8636000D02*
G75*
G03*
X8960000Y-8636000I-70000J0D01*
G01*
X8820000Y-10471000D02*
X8960000Y-10611000D01*
X8960000Y-10471000D02*
X8820000Y-10611000D01*
X8960000Y-10541000D02*
G75*
G03*
X8960000Y-10541000I-70000J0D01*
G01*
X8820000Y-12376000D02*
X8960000Y-12516000D01*
X8960000Y-12376000D02*
X8820000Y-12516000D01*
X8960000Y-12446000D02*
G75*
G03*
X8960000Y-12446000I-70000J0D01*
G01*
X8947000Y-4989680D02*
X9087000Y-5129680D01*
X9087000Y-4989680D02*
X8947000Y-5129680D01*
X9087000Y-5059680D02*
G75*
G03*
X9087000Y-5059680I-70000J0D01*
G01*
X8947000Y-6894680D02*
X9087000Y-7034680D01*
X9087000Y-6894680D02*
X8947000Y-7034680D01*
X9087000Y-6964680D02*
G75*
G03*
X9087000Y-6964680I-70000J0D01*
G01*
X8947000Y-8799680D02*
X9087000Y-8939680D01*
X9087000Y-8799680D02*
X8947000Y-8939680D01*
X9087000Y-8869680D02*
G75*
G03*
X9087000Y-8869680I-70000J0D01*
G01*
X8947000Y-10704680D02*
X9087000Y-10844680D01*
X9087000Y-10704680D02*
X8947000Y-10844680D01*
X9087000Y-10774680D02*
G75*
G03*
X9087000Y-10774680I-70000J0D01*
G01*
X8947000Y-12609680D02*
X9087000Y-12749680D01*
X9087000Y-12609680D02*
X8947000Y-12749680D01*
X9087000Y-12679680D02*
G75*
G03*
X9087000Y-12679680I-70000J0D01*
G01*
X9455000Y-4989680D02*
X9595000Y-5129680D01*
X9595000Y-4989680D02*
X9455000Y-5129680D01*
X9595000Y-5059680D02*
G75*
G03*
X9595000Y-5059680I-70000J0D01*
G01*
X9455000Y-6894680D02*
X9595000Y-7034680D01*
X9595000Y-6894680D02*
X9455000Y-7034680D01*
X9595000Y-6964680D02*
G75*
G03*
X9595000Y-6964680I-70000J0D01*
G01*
X9455000Y-8799680D02*
X9595000Y-8939680D01*
X9595000Y-8799680D02*
X9455000Y-8939680D01*
X9595000Y-8869680D02*
G75*
G03*
X9595000Y-8869680I-70000J0D01*
G01*
X9455000Y-10704680D02*
X9595000Y-10844680D01*
X9595000Y-10704680D02*
X9455000Y-10844680D01*
X9595000Y-10774680D02*
G75*
G03*
X9595000Y-10774680I-70000J0D01*
G01*
X9455000Y-12609680D02*
X9595000Y-12749680D01*
X9595000Y-12609680D02*
X9455000Y-12749680D01*
X9595000Y-12679680D02*
G75*
G03*
X9595000Y-12679680I-70000J0D01*
G01*
X9582000Y-4756000D02*
X9722000Y-4896000D01*
X9722000Y-4756000D02*
X9582000Y-4896000D01*
X9722000Y-4826000D02*
G75*
G03*
X9722000Y-4826000I-70000J0D01*
G01*
X9582000Y-6661000D02*
X9722000Y-6801000D01*
X9722000Y-6661000D02*
X9582000Y-6801000D01*
X9722000Y-6731000D02*
G75*
G03*
X9722000Y-6731000I-70000J0D01*
G01*
X9582000Y-8566000D02*
X9722000Y-8706000D01*
X9722000Y-8566000D02*
X9582000Y-8706000D01*
X9722000Y-8636000D02*
G75*
G03*
X9722000Y-8636000I-70000J0D01*
G01*
X9582000Y-10471000D02*
X9722000Y-10611000D01*
X9722000Y-10471000D02*
X9582000Y-10611000D01*
X9722000Y-10541000D02*
G75*
G03*
X9722000Y-10541000I-70000J0D01*
G01*
X9582000Y-12376000D02*
X9722000Y-12516000D01*
X9722000Y-12376000D02*
X9582000Y-12516000D01*
X9722000Y-12446000D02*
G75*
G03*
X9722000Y-12446000I-70000J0D01*
G01*
X10725000Y-4756000D02*
X10865000Y-4896000D01*
X10865000Y-4756000D02*
X10725000Y-4896000D01*
X10865000Y-4826000D02*
G75*
G03*
X10865000Y-4826000I-70000J0D01*
G01*
X10725000Y-6661000D02*
X10865000Y-6801000D01*
X10865000Y-6661000D02*
X10725000Y-6801000D01*
X10865000Y-6731000D02*
G75*
G03*
X10865000Y-6731000I-70000J0D01*
G01*
X10725000Y-8566000D02*
X10865000Y-8706000D01*
X10865000Y-8566000D02*
X10725000Y-8706000D01*
X10865000Y-8636000D02*
G75*
G03*
X10865000Y-8636000I-70000J0D01*
G01*
X10725000Y-10471000D02*
X10865000Y-10611000D01*
X10865000Y-10471000D02*
X10725000Y-10611000D01*
X10865000Y-10541000D02*
G75*
G03*
X10865000Y-10541000I-70000J0D01*
G01*
X10725000Y-12376000D02*
X10865000Y-12516000D01*
X10865000Y-12376000D02*
X10725000Y-12516000D01*
X10865000Y-12446000D02*
G75*
G03*
X10865000Y-12446000I-70000J0D01*
G01*
X10852000Y-4989680D02*
X10992000Y-5129680D01*
X10992000Y-4989680D02*
X10852000Y-5129680D01*
X10992000Y-5059680D02*
G75*
G03*
X10992000Y-5059680I-70000J0D01*
G01*
X10852000Y-6894680D02*
X10992000Y-7034680D01*
X10992000Y-6894680D02*
X10852000Y-7034680D01*
X10992000Y-6964680D02*
G75*
G03*
X10992000Y-6964680I-70000J0D01*
G01*
X10852000Y-8799680D02*
X10992000Y-8939680D01*
X10992000Y-8799680D02*
X10852000Y-8939680D01*
X10992000Y-8869680D02*
G75*
G03*
X10992000Y-8869680I-70000J0D01*
G01*
X10852000Y-10704680D02*
X10992000Y-10844680D01*
X10992000Y-10704680D02*
X10852000Y-10844680D01*
X10992000Y-10774680D02*
G75*
G03*
X10992000Y-10774680I-70000J0D01*
G01*
X10852000Y-12609680D02*
X10992000Y-12749680D01*
X10992000Y-12609680D02*
X10852000Y-12749680D01*
X10992000Y-12679680D02*
G75*
G03*
X10992000Y-12679680I-70000J0D01*
G01*
X11360000Y-4989680D02*
X11500000Y-5129680D01*
X11500000Y-4989680D02*
X11360000Y-5129680D01*
X11500000Y-5059680D02*
G75*
G03*
X11500000Y-5059680I-70000J0D01*
G01*
X11360000Y-6894680D02*
X11500000Y-7034680D01*
X11500000Y-6894680D02*
X11360000Y-7034680D01*
X11500000Y-6964680D02*
G75*
G03*
X11500000Y-6964680I-70000J0D01*
G01*
X11360000Y-8799680D02*
X11500000Y-8939680D01*
X11500000Y-8799680D02*
X11360000Y-8939680D01*
X11500000Y-8869680D02*
G75*
G03*
X11500000Y-8869680I-70000J0D01*
G01*
X11360000Y-10704680D02*
X11500000Y-10844680D01*
X11500000Y-10704680D02*
X11360000Y-10844680D01*
X11500000Y-10774680D02*
G75*
G03*
X11500000Y-10774680I-70000J0D01*
G01*
X11360000Y-12609680D02*
X11500000Y-12749680D01*
X11500000Y-12609680D02*
X11360000Y-12749680D01*
X11500000Y-12679680D02*
G75*
G03*
X11500000Y-12679680I-70000J0D01*
G01*
X11487000Y-4756000D02*
X11627000Y-4896000D01*
X11627000Y-4756000D02*
X11487000Y-4896000D01*
X11627000Y-4826000D02*
G75*
G03*
X11627000Y-4826000I-70000J0D01*
G01*
X11487000Y-6661000D02*
X11627000Y-6801000D01*
X11627000Y-6661000D02*
X11487000Y-6801000D01*
X11627000Y-6731000D02*
G75*
G03*
X11627000Y-6731000I-70000J0D01*
G01*
X11487000Y-8566000D02*
X11627000Y-8706000D01*
X11627000Y-8566000D02*
X11487000Y-8706000D01*
X11627000Y-8636000D02*
G75*
G03*
X11627000Y-8636000I-70000J0D01*
G01*
X11487000Y-10471000D02*
X11627000Y-10611000D01*
X11627000Y-10471000D02*
X11487000Y-10611000D01*
X11627000Y-10541000D02*
G75*
G03*
X11627000Y-10541000I-70000J0D01*
G01*
X11487000Y-12376000D02*
X11627000Y-12516000D01*
X11627000Y-12376000D02*
X11487000Y-12516000D01*
X11627000Y-12446000D02*
G75*
G03*
X11627000Y-12446000I-70000J0D01*
G01*
X12630000Y-4756000D02*
X12770000Y-4896000D01*
X12770000Y-4756000D02*
X12630000Y-4896000D01*
X12770000Y-4826000D02*
G75*
G03*
X12770000Y-4826000I-70000J0D01*
G01*
X12630000Y-6661000D02*
X12770000Y-6801000D01*
X12770000Y-6661000D02*
X12630000Y-6801000D01*
X12770000Y-6731000D02*
G75*
G03*
X12770000Y-6731000I-70000J0D01*
G01*
X12630000Y-8566000D02*
X12770000Y-8706000D01*
X12770000Y-8566000D02*
X12630000Y-8706000D01*
X12770000Y-8636000D02*
G75*
G03*
X12770000Y-8636000I-70000J0D01*
G01*
X12630000Y-10471000D02*
X12770000Y-10611000D01*
X12770000Y-10471000D02*
X12630000Y-10611000D01*
X12770000Y-10541000D02*
G75*
G03*
X12770000Y-10541000I-70000J0D01*
G01*
X12630000Y-12376000D02*
X12770000Y-12516000D01*
X12770000Y-12376000D02*
X12630000Y-12516000D01*
X12770000Y-12446000D02*
G75*
G03*
X12770000Y-12446000I-70000J0D01*
G01*
X12757000Y-4989680D02*
X12897000Y-5129680D01*
X12897000Y-4989680D02*
X12757000Y-5129680D01*
X12897000Y-5059680D02*
G75*
G03*
X12897000Y-5059680I-70000J0D01*
G01*
X12757000Y-6894680D02*
X12897000Y-7034680D01*
X12897000Y-6894680D02*
X12757000Y-7034680D01*
X12897000Y-6964680D02*
G75*
G03*
X12897000Y-6964680I-70000J0D01*
G01*
X12757000Y-8799680D02*
X12897000Y-8939680D01*
X12897000Y-8799680D02*
X12757000Y-8939680D01*
X12897000Y-8869680D02*
G75*
G03*
X12897000Y-8869680I-70000J0D01*
G01*
X12757000Y-10704680D02*
X12897000Y-10844680D01*
X12897000Y-10704680D02*
X12757000Y-10844680D01*
X12897000Y-10774680D02*
G75*
G03*
X12897000Y-10774680I-70000J0D01*
G01*
X12757000Y-12609680D02*
X12897000Y-12749680D01*
X12897000Y-12609680D02*
X12757000Y-12749680D01*
X12897000Y-12679680D02*
G75*
G03*
X12897000Y-12679680I-70000J0D01*
G01*
X13265000Y-4989680D02*
X13405000Y-5129680D01*
X13405000Y-4989680D02*
X13265000Y-5129680D01*
X13405000Y-5059680D02*
G75*
G03*
X13405000Y-5059680I-70000J0D01*
G01*
X13265000Y-6894680D02*
X13405000Y-7034680D01*
X13405000Y-6894680D02*
X13265000Y-7034680D01*
X13405000Y-6964680D02*
G75*
G03*
X13405000Y-6964680I-70000J0D01*
G01*
X13265000Y-8799680D02*
X13405000Y-8939680D01*
X13405000Y-8799680D02*
X13265000Y-8939680D01*
X13405000Y-8869680D02*
G75*
G03*
X13405000Y-8869680I-70000J0D01*
G01*
X13265000Y-10704680D02*
X13405000Y-10844680D01*
X13405000Y-10704680D02*
X13265000Y-10844680D01*
X13405000Y-10774680D02*
G75*
G03*
X13405000Y-10774680I-70000J0D01*
G01*
X13265000Y-12609680D02*
X13405000Y-12749680D01*
X13405000Y-12609680D02*
X13265000Y-12749680D01*
X13405000Y-12679680D02*
G75*
G03*
X13405000Y-12679680I-70000J0D01*
G01*
X13392000Y-4756000D02*
X13532000Y-4896000D01*
X13532000Y-4756000D02*
X13392000Y-4896000D01*
X13532000Y-4826000D02*
G75*
G03*
X13532000Y-4826000I-70000J0D01*
G01*
X13392000Y-6661000D02*
X13532000Y-6801000D01*
X13532000Y-6661000D02*
X13392000Y-6801000D01*
X13532000Y-6731000D02*
G75*
G03*
X13532000Y-6731000I-70000J0D01*
G01*
X13392000Y-8566000D02*
X13532000Y-8706000D01*
X13532000Y-8566000D02*
X13392000Y-8706000D01*
X13532000Y-8636000D02*
G75*
G03*
X13532000Y-8636000I-70000J0D01*
G01*
X13392000Y-10471000D02*
X13532000Y-10611000D01*
X13532000Y-10471000D02*
X13392000Y-10611000D01*
X13532000Y-10541000D02*
G75*
G03*
X13532000Y-10541000I-70000J0D01*
G01*
X13392000Y-12376000D02*
X13532000Y-12516000D01*
X13532000Y-12376000D02*
X13392000Y-12516000D01*
X13532000Y-12446000D02*
G75*
G03*
X13532000Y-12446000I-70000J0D01*
G01*
X2962910Y-4486910D02*
X3133090Y-4657090D01*
X3133090Y-4486910D02*
X2962910Y-4657090D01*
X3048000Y-4486910D02*
X3048000Y-4657090D01*
X2962910Y-4572000D02*
X3133090Y-4572000D01*
X2962910Y-6391910D02*
X3133090Y-6562090D01*
X3133090Y-6391910D02*
X2962910Y-6562090D01*
X3048000Y-6391910D02*
X3048000Y-6562090D01*
X2962910Y-6477000D02*
X3133090Y-6477000D01*
X2962910Y-8296910D02*
X3133090Y-8467090D01*
X3133090Y-8296910D02*
X2962910Y-8467090D01*
X3048000Y-8296910D02*
X3048000Y-8467090D01*
X2962910Y-8382000D02*
X3133090Y-8382000D01*
X2962910Y-10201910D02*
X3133090Y-10372090D01*
X3133090Y-10201910D02*
X2962910Y-10372090D01*
X3048000Y-10201910D02*
X3048000Y-10372090D01*
X2962910Y-10287000D02*
X3133090Y-10287000D01*
X2962910Y-12106910D02*
X3133090Y-12277090D01*
X3133090Y-12106910D02*
X2962910Y-12277090D01*
X3048000Y-12106910D02*
X3048000Y-12277090D01*
X2962910Y-12192000D02*
X3133090Y-12192000D01*
X3978910Y-4486910D02*
X4149090Y-4657090D01*
X4149090Y-4486910D02*
X3978910Y-4657090D01*
X4064000Y-4486910D02*
X4064000Y-4657090D01*
X3978910Y-4572000D02*
X4149090Y-4572000D01*
X3978910Y-6391910D02*
X4149090Y-6562090D01*
X4149090Y-6391910D02*
X3978910Y-6562090D01*
X4064000Y-6391910D02*
X4064000Y-6562090D01*
X3978910Y-6477000D02*
X4149090Y-6477000D01*
X3978910Y-8296910D02*
X4149090Y-8467090D01*
X4149090Y-8296910D02*
X3978910Y-8467090D01*
X4064000Y-8296910D02*
X4064000Y-8467090D01*
X3978910Y-8382000D02*
X4149090Y-8382000D01*
X3978910Y-10201910D02*
X4149090Y-10372090D01*
X4149090Y-10201910D02*
X3978910Y-10372090D01*
X4064000Y-10201910D02*
X4064000Y-10372090D01*
X3978910Y-10287000D02*
X4149090Y-10287000D01*
X3978910Y-12106910D02*
X4149090Y-12277090D01*
X4149090Y-12106910D02*
X3978910Y-12277090D01*
X4064000Y-12106910D02*
X4064000Y-12277090D01*
X3978910Y-12192000D02*
X4149090Y-12192000D01*
X4867910Y-4486910D02*
X5038090Y-4657090D01*
X5038090Y-4486910D02*
X4867910Y-4657090D01*
X4953000Y-4486910D02*
X4953000Y-4657090D01*
X4867910Y-4572000D02*
X5038090Y-4572000D01*
X4867910Y-6391910D02*
X5038090Y-6562090D01*
X5038090Y-6391910D02*
X4867910Y-6562090D01*
X4953000Y-6391910D02*
X4953000Y-6562090D01*
X4867910Y-6477000D02*
X5038090Y-6477000D01*
X4867910Y-8296910D02*
X5038090Y-8467090D01*
X5038090Y-8296910D02*
X4867910Y-8467090D01*
X4953000Y-8296910D02*
X4953000Y-8467090D01*
X4867910Y-8382000D02*
X5038090Y-8382000D01*
X4867910Y-10201910D02*
X5038090Y-10372090D01*
X5038090Y-10201910D02*
X4867910Y-10372090D01*
X4953000Y-10201910D02*
X4953000Y-10372090D01*
X4867910Y-10287000D02*
X5038090Y-10287000D01*
X4867910Y-12106910D02*
X5038090Y-12277090D01*
X5038090Y-12106910D02*
X4867910Y-12277090D01*
X4953000Y-12106910D02*
X4953000Y-12277090D01*
X4867910Y-12192000D02*
X5038090Y-12192000D01*
X5883910Y-4486910D02*
X6054090Y-4657090D01*
X6054090Y-4486910D02*
X5883910Y-4657090D01*
X5969000Y-4486910D02*
X5969000Y-4657090D01*
X5883910Y-4572000D02*
X6054090Y-4572000D01*
X5883910Y-6391910D02*
X6054090Y-6562090D01*
X6054090Y-6391910D02*
X5883910Y-6562090D01*
X5969000Y-6391910D02*
X5969000Y-6562090D01*
X5883910Y-6477000D02*
X6054090Y-6477000D01*
X5883910Y-8296910D02*
X6054090Y-8467090D01*
X6054090Y-8296910D02*
X5883910Y-8467090D01*
X5969000Y-8296910D02*
X5969000Y-8467090D01*
X5883910Y-8382000D02*
X6054090Y-8382000D01*
X5883910Y-10201910D02*
X6054090Y-10372090D01*
X6054090Y-10201910D02*
X5883910Y-10372090D01*
X5969000Y-10201910D02*
X5969000Y-10372090D01*
X5883910Y-10287000D02*
X6054090Y-10287000D01*
X5883910Y-12106910D02*
X6054090Y-12277090D01*
X6054090Y-12106910D02*
X5883910Y-12277090D01*
X5969000Y-12106910D02*
X5969000Y-12277090D01*
X5883910Y-12192000D02*
X6054090Y-12192000D01*
X6772910Y-4486910D02*
X6943090Y-4657090D01*
X6943090Y-4486910D02*
X6772910Y-4657090D01*
X6858000Y-4486910D02*
X6858000Y-4657090D01*
X6772910Y-4572000D02*
X6943090Y-4572000D01*
X6772910Y-6391910D02*
X6943090Y-6562090D01*
X6943090Y-6391910D02*
X6772910Y-6562090D01*
X6858000Y-6391910D02*
X6858000Y-6562090D01*
X6772910Y-6477000D02*
X6943090Y-6477000D01*
X6772910Y-8296910D02*
X6943090Y-8467090D01*
X6943090Y-8296910D02*
X6772910Y-8467090D01*
X6858000Y-8296910D02*
X6858000Y-8467090D01*
X6772910Y-8382000D02*
X6943090Y-8382000D01*
X6772910Y-10201910D02*
X6943090Y-10372090D01*
X6943090Y-10201910D02*
X6772910Y-10372090D01*
X6858000Y-10201910D02*
X6858000Y-10372090D01*
X6772910Y-10287000D02*
X6943090Y-10287000D01*
X6772910Y-12106910D02*
X6943090Y-12277090D01*
X6943090Y-12106910D02*
X6772910Y-12277090D01*
X6858000Y-12106910D02*
X6858000Y-12277090D01*
X6772910Y-12192000D02*
X6943090Y-12192000D01*
X7788910Y-4486910D02*
X7959090Y-4657090D01*
X7959090Y-4486910D02*
X7788910Y-4657090D01*
X7874000Y-4486910D02*
X7874000Y-4657090D01*
X7788910Y-4572000D02*
X7959090Y-4572000D01*
X7788910Y-6391910D02*
X7959090Y-6562090D01*
X7959090Y-6391910D02*
X7788910Y-6562090D01*
X7874000Y-6391910D02*
X7874000Y-6562090D01*
X7788910Y-6477000D02*
X7959090Y-6477000D01*
X7788910Y-8296910D02*
X7959090Y-8467090D01*
X7959090Y-8296910D02*
X7788910Y-8467090D01*
X7874000Y-8296910D02*
X7874000Y-8467090D01*
X7788910Y-8382000D02*
X7959090Y-8382000D01*
X7788910Y-10201910D02*
X7959090Y-10372090D01*
X7959090Y-10201910D02*
X7788910Y-10372090D01*
X7874000Y-10201910D02*
X7874000Y-10372090D01*
X7788910Y-10287000D02*
X7959090Y-10287000D01*
X7788910Y-12106910D02*
X7959090Y-12277090D01*
X7959090Y-12106910D02*
X7788910Y-12277090D01*
X7874000Y-12106910D02*
X7874000Y-12277090D01*
X7788910Y-12192000D02*
X7959090Y-12192000D01*
X8677910Y-4486910D02*
X8848090Y-4657090D01*
X8848090Y-4486910D02*
X8677910Y-4657090D01*
X8763000Y-4486910D02*
X8763000Y-4657090D01*
X8677910Y-4572000D02*
X8848090Y-4572000D01*
X8677910Y-6391910D02*
X8848090Y-6562090D01*
X8848090Y-6391910D02*
X8677910Y-6562090D01*
X8763000Y-6391910D02*
X8763000Y-6562090D01*
X8677910Y-6477000D02*
X8848090Y-6477000D01*
X8677910Y-8296910D02*
X8848090Y-8467090D01*
X8848090Y-8296910D02*
X8677910Y-8467090D01*
X8763000Y-8296910D02*
X8763000Y-8467090D01*
X8677910Y-8382000D02*
X8848090Y-8382000D01*
X8677910Y-10201910D02*
X8848090Y-10372090D01*
X8848090Y-10201910D02*
X8677910Y-10372090D01*
X8763000Y-10201910D02*
X8763000Y-10372090D01*
X8677910Y-10287000D02*
X8848090Y-10287000D01*
X8677910Y-12106910D02*
X8848090Y-12277090D01*
X8848090Y-12106910D02*
X8677910Y-12277090D01*
X8763000Y-12106910D02*
X8763000Y-12277090D01*
X8677910Y-12192000D02*
X8848090Y-12192000D01*
X9693910Y-4486910D02*
X9864090Y-4657090D01*
X9864090Y-4486910D02*
X9693910Y-4657090D01*
X9779000Y-4486910D02*
X9779000Y-4657090D01*
X9693910Y-4572000D02*
X9864090Y-4572000D01*
X9693910Y-6391910D02*
X9864090Y-6562090D01*
X9864090Y-6391910D02*
X9693910Y-6562090D01*
X9779000Y-6391910D02*
X9779000Y-6562090D01*
X9693910Y-6477000D02*
X9864090Y-6477000D01*
X9693910Y-8296910D02*
X9864090Y-8467090D01*
X9864090Y-8296910D02*
X9693910Y-8467090D01*
X9779000Y-8296910D02*
X9779000Y-8467090D01*
X9693910Y-8382000D02*
X9864090Y-8382000D01*
X9693910Y-10201910D02*
X9864090Y-10372090D01*
X9864090Y-10201910D02*
X9693910Y-10372090D01*
X9779000Y-10201910D02*
X9779000Y-10372090D01*
X9693910Y-10287000D02*
X9864090Y-10287000D01*
X9693910Y-12106910D02*
X9864090Y-12277090D01*
X9864090Y-12106910D02*
X9693910Y-12277090D01*
X9779000Y-12106910D02*
X9779000Y-12277090D01*
X9693910Y-12192000D02*
X9864090Y-12192000D01*
X10582910Y-4486910D02*
X10753090Y-4657090D01*
X10753090Y-4486910D02*
X10582910Y-4657090D01*
X10668000Y-4486910D02*
X10668000Y-4657090D01*
X10582910Y-4572000D02*
X10753090Y-4572000D01*
X10582910Y-6391910D02*
X10753090Y-6562090D01*
X10753090Y-6391910D02*
X10582910Y-6562090D01*
X10668000Y-6391910D02*
X10668000Y-6562090D01*
X10582910Y-6477000D02*
X10753090Y-6477000D01*
X10582910Y-8296910D02*
X10753090Y-8467090D01*
X10753090Y-8296910D02*
X10582910Y-8467090D01*
X10668000Y-8296910D02*
X10668000Y-8467090D01*
X10582910Y-8382000D02*
X10753090Y-8382000D01*
X10582910Y-10201910D02*
X10753090Y-10372090D01*
X10753090Y-10201910D02*
X10582910Y-10372090D01*
X10668000Y-10201910D02*
X10668000Y-10372090D01*
X10582910Y-10287000D02*
X10753090Y-10287000D01*
X10582910Y-12106910D02*
X10753090Y-12277090D01*
X10753090Y-12106910D02*
X10582910Y-12277090D01*
X10668000Y-12106910D02*
X10668000Y-12277090D01*
X10582910Y-12192000D02*
X10753090Y-12192000D01*
X11598910Y-4486910D02*
X11769090Y-4657090D01*
X11769090Y-4486910D02*
X11598910Y-4657090D01*
X11684000Y-4486910D02*
X11684000Y-4657090D01*
X11598910Y-4572000D02*
X11769090Y-4572000D01*
X11598910Y-6391910D02*
X11769090Y-6562090D01*
X11769090Y-6391910D02*
X11598910Y-6562090D01*
X11684000Y-6391910D02*
X11684000Y-6562090D01*
X11598910Y-6477000D02*
X11769090Y-6477000D01*
X11598910Y-8296910D02*
X11769090Y-8467090D01*
X11769090Y-8296910D02*
X11598910Y-8467090D01*
X11684000Y-8296910D02*
X11684000Y-8467090D01*
X11598910Y-8382000D02*
X11769090Y-8382000D01*
X11598910Y-10201910D02*
X11769090Y-10372090D01*
X11769090Y-10201910D02*
X11598910Y-10372090D01*
X11684000Y-10201910D02*
X11684000Y-10372090D01*
X11598910Y-10287000D02*
X11769090Y-10287000D01*
X11598910Y-12106910D02*
X11769090Y-12277090D01*
X11769090Y-12106910D02*
X11598910Y-12277090D01*
X11684000Y-12106910D02*
X11684000Y-12277090D01*
X11598910Y-12192000D02*
X11769090Y-12192000D01*
X12487910Y-4486910D02*
X12658090Y-4657090D01*
X12658090Y-4486910D02*
X12487910Y-4657090D01*
X12573000Y-4486910D02*
X12573000Y-4657090D01*
X12487910Y-4572000D02*
X12658090Y-4572000D01*
X12487910Y-6391910D02*
X12658090Y-6562090D01*
X12658090Y-6391910D02*
X12487910Y-6562090D01*
X12573000Y-6391910D02*
X12573000Y-6562090D01*
X12487910Y-6477000D02*
X12658090Y-6477000D01*
X12487910Y-8296910D02*
X12658090Y-8467090D01*
X12658090Y-8296910D02*
X12487910Y-8467090D01*
X12573000Y-8296910D02*
X12573000Y-8467090D01*
X12487910Y-8382000D02*
X12658090Y-8382000D01*
X12487910Y-10201910D02*
X12658090Y-10372090D01*
X12658090Y-10201910D02*
X12487910Y-10372090D01*
X12573000Y-10201910D02*
X12573000Y-10372090D01*
X12487910Y-10287000D02*
X12658090Y-10287000D01*
X12487910Y-12106910D02*
X12658090Y-12277090D01*
X12658090Y-12106910D02*
X12487910Y-12277090D01*
X12573000Y-12106910D02*
X12573000Y-12277090D01*
X12487910Y-12192000D02*
X12658090Y-12192000D01*
X13503910Y-4486910D02*
X13674090Y-4657090D01*
X13674090Y-4486910D02*
X13503910Y-4657090D01*
X13589000Y-4486910D02*
X13589000Y-4657090D01*
X13503910Y-4572000D02*
X13674090Y-4572000D01*
X13503910Y-6391910D02*
X13674090Y-6562090D01*
X13674090Y-6391910D02*
X13503910Y-6562090D01*
X13589000Y-6391910D02*
X13589000Y-6562090D01*
X13503910Y-6477000D02*
X13674090Y-6477000D01*
X13503910Y-8296910D02*
X13674090Y-8467090D01*
X13674090Y-8296910D02*
X13503910Y-8467090D01*
X13589000Y-8296910D02*
X13589000Y-8467090D01*
X13503910Y-8382000D02*
X13674090Y-8382000D01*
X13503910Y-10201910D02*
X13674090Y-10372090D01*
X13674090Y-10201910D02*
X13503910Y-10372090D01*
X13589000Y-10201910D02*
X13589000Y-10372090D01*
X13503910Y-10287000D02*
X13674090Y-10287000D01*
X13503910Y-12106910D02*
X13674090Y-12277090D01*
X13674090Y-12106910D02*
X13503910Y-12277090D01*
X13589000Y-12106910D02*
X13589000Y-12277090D01*
X13503910Y-12192000D02*
X13674090Y-12192000D01*
X3356610Y-4372610D02*
X3755390Y-4771390D01*
X3755390Y-4372610D02*
X3356610Y-4771390D01*
X3696991Y-4712991D02*
X3696991Y-4431009D01*
X3415009Y-4431009D01*
X3415009Y-4712991D01*
X3696991Y-4712991D01*
X3356610Y-6277610D02*
X3755390Y-6676390D01*
X3755390Y-6277610D02*
X3356610Y-6676390D01*
X3696991Y-6617991D02*
X3696991Y-6336009D01*
X3415009Y-6336009D01*
X3415009Y-6617991D01*
X3696991Y-6617991D01*
X3356610Y-8182610D02*
X3755390Y-8581390D01*
X3755390Y-8182610D02*
X3356610Y-8581390D01*
X3696991Y-8522991D02*
X3696991Y-8241009D01*
X3415009Y-8241009D01*
X3415009Y-8522991D01*
X3696991Y-8522991D01*
X3356610Y-10087610D02*
X3755390Y-10486390D01*
X3755390Y-10087610D02*
X3356610Y-10486390D01*
X3696991Y-10427991D02*
X3696991Y-10146009D01*
X3415009Y-10146009D01*
X3415009Y-10427991D01*
X3696991Y-10427991D01*
X3356610Y-11992610D02*
X3755390Y-12391390D01*
X3755390Y-11992610D02*
X3356610Y-12391390D01*
X3696991Y-12332991D02*
X3696991Y-12051009D01*
X3415009Y-12051009D01*
X3415009Y-12332991D01*
X3696991Y-12332991D01*
X5261610Y-4372610D02*
X5660390Y-4771390D01*
X5660390Y-4372610D02*
X5261610Y-4771390D01*
X5601991Y-4712991D02*
X5601991Y-4431009D01*
X5320009Y-4431009D01*
X5320009Y-4712991D01*
X5601991Y-4712991D01*
X5261610Y-6277610D02*
X5660390Y-6676390D01*
X5660390Y-6277610D02*
X5261610Y-6676390D01*
X5601991Y-6617991D02*
X5601991Y-6336009D01*
X5320009Y-6336009D01*
X5320009Y-6617991D01*
X5601991Y-6617991D01*
X5261610Y-8182610D02*
X5660390Y-8581390D01*
X5660390Y-8182610D02*
X5261610Y-8581390D01*
X5601991Y-8522991D02*
X5601991Y-8241009D01*
X5320009Y-8241009D01*
X5320009Y-8522991D01*
X5601991Y-8522991D01*
X5261610Y-10087610D02*
X5660390Y-10486390D01*
X5660390Y-10087610D02*
X5261610Y-10486390D01*
X5601991Y-10427991D02*
X5601991Y-10146009D01*
X5320009Y-10146009D01*
X5320009Y-10427991D01*
X5601991Y-10427991D01*
X5261610Y-11992610D02*
X5660390Y-12391390D01*
X5660390Y-11992610D02*
X5261610Y-12391390D01*
X5601991Y-12332991D02*
X5601991Y-12051009D01*
X5320009Y-12051009D01*
X5320009Y-12332991D01*
X5601991Y-12332991D01*
X7166610Y-4372610D02*
X7565390Y-4771390D01*
X7565390Y-4372610D02*
X7166610Y-4771390D01*
X7506991Y-4712991D02*
X7506991Y-4431009D01*
X7225009Y-4431009D01*
X7225009Y-4712991D01*
X7506991Y-4712991D01*
X7166610Y-6277610D02*
X7565390Y-6676390D01*
X7565390Y-6277610D02*
X7166610Y-6676390D01*
X7506991Y-6617991D02*
X7506991Y-6336009D01*
X7225009Y-6336009D01*
X7225009Y-6617991D01*
X7506991Y-6617991D01*
X7166610Y-8182610D02*
X7565390Y-8581390D01*
X7565390Y-8182610D02*
X7166610Y-8581390D01*
X7506991Y-8522991D02*
X7506991Y-8241009D01*
X7225009Y-8241009D01*
X7225009Y-8522991D01*
X7506991Y-8522991D01*
X7166610Y-10087610D02*
X7565390Y-10486390D01*
X7565390Y-10087610D02*
X7166610Y-10486390D01*
X7506991Y-10427991D02*
X7506991Y-10146009D01*
X7225009Y-10146009D01*
X7225009Y-10427991D01*
X7506991Y-10427991D01*
X7166610Y-11992610D02*
X7565390Y-12391390D01*
X7565390Y-11992610D02*
X7166610Y-12391390D01*
X7506991Y-12332991D02*
X7506991Y-12051009D01*
X7225009Y-12051009D01*
X7225009Y-12332991D01*
X7506991Y-12332991D01*
X9071610Y-4372610D02*
X9470390Y-4771390D01*
X9470390Y-4372610D02*
X9071610Y-4771390D01*
X9411991Y-4712991D02*
X9411991Y-4431009D01*
X9130009Y-4431009D01*
X9130009Y-4712991D01*
X9411991Y-4712991D01*
X9071610Y-6277610D02*
X9470390Y-6676390D01*
X9470390Y-6277610D02*
X9071610Y-6676390D01*
X9411991Y-6617991D02*
X9411991Y-6336009D01*
X9130009Y-6336009D01*
X9130009Y-6617991D01*
X9411991Y-6617991D01*
X9071610Y-8182610D02*
X9470390Y-8581390D01*
X9470390Y-8182610D02*
X9071610Y-8581390D01*
X9411991Y-8522991D02*
X9411991Y-8241009D01*
X9130009Y-8241009D01*
X9130009Y-8522991D01*
X9411991Y-8522991D01*
X9071610Y-10087610D02*
X9470390Y-10486390D01*
X9470390Y-10087610D02*
X9071610Y-10486390D01*
X9411991Y-10427991D02*
X9411991Y-10146009D01*
X9130009Y-10146009D01*
X9130009Y-10427991D01*
X9411991Y-10427991D01*
X9071610Y-11992610D02*
X9470390Y-12391390D01*
X9470390Y-11992610D02*
X9071610Y-12391390D01*
X9411991Y-12332991D02*
X9411991Y-12051009D01*
X9130009Y-12051009D01*
X9130009Y-12332991D01*
X9411991Y-12332991D01*
X10976610Y-4372610D02*
X11375390Y-4771390D01*
X11375390Y-4372610D02*
X10976610Y-4771390D01*
X11316991Y-4712991D02*
X11316991Y-4431009D01*
X11035009Y-4431009D01*
X11035009Y-4712991D01*
X11316991Y-4712991D01*
X10976610Y-6277610D02*
X11375390Y-6676390D01*
X11375390Y-6277610D02*
X10976610Y-6676390D01*
X11316991Y-6617991D02*
X11316991Y-6336009D01*
X11035009Y-6336009D01*
X11035009Y-6617991D01*
X11316991Y-6617991D01*
X10976610Y-8182610D02*
X11375390Y-8581390D01*
X11375390Y-8182610D02*
X10976610Y-8581390D01*
X11316991Y-8522991D02*
X11316991Y-8241009D01*
X11035009Y-8241009D01*
X11035009Y-8522991D01*
X11316991Y-8522991D01*
X10976610Y-10087610D02*
X11375390Y-10486390D01*
X11375390Y-10087610D02*
X10976610Y-10486390D01*
X11316991Y-10427991D02*
X11316991Y-10146009D01*
X11035009Y-10146009D01*
X11035009Y-10427991D01*
X11316991Y-10427991D01*
X10976610Y-11992610D02*
X11375390Y-12391390D01*
X11375390Y-11992610D02*
X10976610Y-12391390D01*
X11316991Y-12332991D02*
X11316991Y-12051009D01*
X11035009Y-12051009D01*
X11035009Y-12332991D01*
X11316991Y-12332991D01*
X12881610Y-4372610D02*
X13280390Y-4771390D01*
X13280390Y-4372610D02*
X12881610Y-4771390D01*
X13221991Y-4712991D02*
X13221991Y-4431009D01*
X12940009Y-4431009D01*
X12940009Y-4712991D01*
X13221991Y-4712991D01*
X12881610Y-6277610D02*
X13280390Y-6676390D01*
X13280390Y-6277610D02*
X12881610Y-6676390D01*
X13221991Y-6617991D02*
X13221991Y-6336009D01*
X12940009Y-6336009D01*
X12940009Y-6617991D01*
X13221991Y-6617991D01*
X12881610Y-8182610D02*
X13280390Y-8581390D01*
X13280390Y-8182610D02*
X12881610Y-8581390D01*
X13221991Y-8522991D02*
X13221991Y-8241009D01*
X12940009Y-8241009D01*
X12940009Y-8522991D01*
X13221991Y-8522991D01*
X12881610Y-10087610D02*
X13280390Y-10486390D01*
X13280390Y-10087610D02*
X12881610Y-10486390D01*
X13221991Y-10427991D02*
X13221991Y-10146009D01*
X12940009Y-10146009D01*
X12940009Y-10427991D01*
X13221991Y-10427991D01*
X12881610Y-11992610D02*
X13280390Y-12391390D01*
X13280390Y-11992610D02*
X12881610Y-12391390D01*
X13221991Y-12332991D02*
X13221991Y-12051009D01*
X12940009Y-12051009D01*
X12940009Y-12332991D01*
X13221991Y-12332991D01*
D13*
X2696928Y-13676214D02*
X2696928Y-13376214D01*
X2768357Y-13376214D01*
X2811214Y-13390500D01*
X2839786Y-13419071D01*
X2854071Y-13447643D01*
X2868357Y-13504786D01*
X2868357Y-13547643D01*
X2854071Y-13604786D01*
X2839786Y-13633357D01*
X2811214Y-13661929D01*
X2768357Y-13676214D01*
X2696928Y-13676214D01*
X2996928Y-13676214D02*
X2996928Y-13476214D01*
X2996928Y-13533357D02*
X3011214Y-13504786D01*
X3025500Y-13490500D01*
X3054071Y-13476214D01*
X3082643Y-13476214D01*
X3182643Y-13676214D02*
X3182643Y-13476214D01*
X3182643Y-13376214D02*
X3168357Y-13390500D01*
X3182643Y-13404786D01*
X3196928Y-13390500D01*
X3182643Y-13376214D01*
X3182643Y-13404786D01*
X3368357Y-13676214D02*
X3339786Y-13661929D01*
X3325500Y-13633357D01*
X3325500Y-13376214D01*
X3525500Y-13676214D02*
X3496928Y-13661929D01*
X3482643Y-13633357D01*
X3482643Y-13376214D01*
X3868357Y-13676214D02*
X3868357Y-13376214D01*
X3968357Y-13590500D01*
X4068357Y-13376214D01*
X4068357Y-13676214D01*
X4339786Y-13676214D02*
X4339786Y-13519071D01*
X4325500Y-13490500D01*
X4296928Y-13476214D01*
X4239786Y-13476214D01*
X4211214Y-13490500D01*
X4339786Y-13661929D02*
X4311214Y-13676214D01*
X4239786Y-13676214D01*
X4211214Y-13661929D01*
X4196928Y-13633357D01*
X4196928Y-13604786D01*
X4211214Y-13576214D01*
X4239786Y-13561929D01*
X4311214Y-13561929D01*
X4339786Y-13547643D01*
X4482643Y-13476214D02*
X4482643Y-13776214D01*
X4482643Y-13490500D02*
X4511214Y-13476214D01*
X4568357Y-13476214D01*
X4596928Y-13490500D01*
X4611214Y-13504786D01*
X4625500Y-13533357D01*
X4625500Y-13619071D01*
X4611214Y-13647643D01*
X4596928Y-13661929D01*
X4568357Y-13676214D01*
X4511214Y-13676214D01*
X4482643Y-13661929D01*
X4754071Y-13647643D02*
X4768357Y-13661929D01*
X4754071Y-13676214D01*
X4739786Y-13661929D01*
X4754071Y-13647643D01*
X4754071Y-13676214D01*
X4754071Y-13490500D02*
X4768357Y-13504786D01*
X4754071Y-13519071D01*
X4739786Y-13504786D01*
X4754071Y-13490500D01*
X4754071Y-13519071D01*
X2370500Y-14150500D02*
X2410500Y-14190500D01*
X2410500Y-14150500D02*
X2370500Y-14190500D01*
X2754071Y-14006214D02*
X2782643Y-14006214D01*
X2811214Y-14020500D01*
X2825500Y-14034786D01*
X2839786Y-14063357D01*
X2854071Y-14120500D01*
X2854071Y-14191929D01*
X2839786Y-14249071D01*
X2825500Y-14277643D01*
X2811214Y-14291929D01*
X2782643Y-14306214D01*
X2754071Y-14306214D01*
X2725500Y-14291929D01*
X2711214Y-14277643D01*
X2696928Y-14249071D01*
X2682643Y-14191929D01*
X2682643Y-14120500D01*
X2696928Y-14063357D01*
X2711214Y-14034786D01*
X2725500Y-14020500D01*
X2754071Y-14006214D01*
X2982643Y-14277643D02*
X2996928Y-14291929D01*
X2982643Y-14306214D01*
X2968357Y-14291929D01*
X2982643Y-14277643D01*
X2982643Y-14306214D01*
X3254071Y-14106214D02*
X3254071Y-14306214D01*
X3182643Y-13991929D02*
X3111214Y-14206214D01*
X3296928Y-14206214D01*
X3468357Y-14006214D02*
X3496928Y-14006214D01*
X3525500Y-14020500D01*
X3539786Y-14034786D01*
X3554071Y-14063357D01*
X3568357Y-14120500D01*
X3568357Y-14191929D01*
X3554071Y-14249071D01*
X3539786Y-14277643D01*
X3525500Y-14291929D01*
X3496928Y-14306214D01*
X3468357Y-14306214D01*
X3439786Y-14291929D01*
X3425500Y-14277643D01*
X3411214Y-14249071D01*
X3396928Y-14191929D01*
X3396928Y-14120500D01*
X3411214Y-14063357D01*
X3425500Y-14034786D01*
X3439786Y-14020500D01*
X3468357Y-14006214D01*
X3696928Y-14306214D02*
X3696928Y-14106214D01*
X3696928Y-14134786D02*
X3711214Y-14120500D01*
X3739786Y-14106214D01*
X3782643Y-14106214D01*
X3811214Y-14120500D01*
X3825500Y-14149071D01*
X3825500Y-14306214D01*
X3825500Y-14149071D02*
X3839786Y-14120500D01*
X3868357Y-14106214D01*
X3911214Y-14106214D01*
X3939786Y-14120500D01*
X3954071Y-14149071D01*
X3954071Y-14306214D01*
X4096928Y-14306214D02*
X4096928Y-14106214D01*
X4096928Y-14134786D02*
X4111214Y-14120500D01*
X4139786Y-14106214D01*
X4182643Y-14106214D01*
X4211214Y-14120500D01*
X4225500Y-14149071D01*
X4225500Y-14306214D01*
X4225500Y-14149071D02*
X4239786Y-14120500D01*
X4268357Y-14106214D01*
X4311214Y-14106214D01*
X4339786Y-14120500D01*
X4354071Y-14149071D01*
X4354071Y-14306214D01*
X4939786Y-13991929D02*
X4682643Y-14377643D01*
X5325500Y-14006214D02*
X5354071Y-14006214D01*
X5382643Y-14020500D01*
X5396928Y-14034786D01*
X5411214Y-14063357D01*
X5425500Y-14120500D01*
X5425500Y-14191929D01*
X5411214Y-14249071D01*
X5396928Y-14277643D01*
X5382643Y-14291929D01*
X5354071Y-14306214D01*
X5325500Y-14306214D01*
X5296928Y-14291929D01*
X5282643Y-14277643D01*
X5268357Y-14249071D01*
X5254071Y-14191929D01*
X5254071Y-14120500D01*
X5268357Y-14063357D01*
X5282643Y-14034786D01*
X5296928Y-14020500D01*
X5325500Y-14006214D01*
X5554071Y-14277643D02*
X5568357Y-14291929D01*
X5554071Y-14306214D01*
X5539786Y-14291929D01*
X5554071Y-14277643D01*
X5554071Y-14306214D01*
X5754071Y-14006214D02*
X5782643Y-14006214D01*
X5811214Y-14020500D01*
X5825500Y-14034786D01*
X5839786Y-14063357D01*
X5854071Y-14120500D01*
X5854071Y-14191929D01*
X5839786Y-14249071D01*
X5825500Y-14277643D01*
X5811214Y-14291929D01*
X5782643Y-14306214D01*
X5754071Y-14306214D01*
X5725500Y-14291929D01*
X5711214Y-14277643D01*
X5696928Y-14249071D01*
X5682643Y-14191929D01*
X5682643Y-14120500D01*
X5696928Y-14063357D01*
X5711214Y-14034786D01*
X5725500Y-14020500D01*
X5754071Y-14006214D01*
X6139786Y-14306214D02*
X5968357Y-14306214D01*
X6054071Y-14306214D02*
X6054071Y-14006214D01*
X6025500Y-14049071D01*
X5996928Y-14077643D01*
X5968357Y-14091929D01*
X6396928Y-14006214D02*
X6339786Y-14006214D01*
X6311214Y-14020500D01*
X6296928Y-14034786D01*
X6268357Y-14077643D01*
X6254071Y-14134786D01*
X6254071Y-14249071D01*
X6268357Y-14277643D01*
X6282643Y-14291929D01*
X6311214Y-14306214D01*
X6368357Y-14306214D01*
X6396928Y-14291929D01*
X6411214Y-14277643D01*
X6425500Y-14249071D01*
X6425500Y-14177643D01*
X6411214Y-14149071D01*
X6396928Y-14134786D01*
X6368357Y-14120500D01*
X6311214Y-14120500D01*
X6282643Y-14134786D01*
X6268357Y-14149071D01*
X6254071Y-14177643D01*
X6539786Y-14006214D02*
X6539786Y-14063357D01*
X6654071Y-14006214D02*
X6654071Y-14063357D01*
X7096928Y-14420500D02*
X7082643Y-14406214D01*
X7054071Y-14363357D01*
X7039786Y-14334786D01*
X7025500Y-14291929D01*
X7011214Y-14220500D01*
X7011214Y-14163357D01*
X7025500Y-14091929D01*
X7039786Y-14049071D01*
X7054071Y-14020500D01*
X7082643Y-13977643D01*
X7096928Y-13963357D01*
X7196928Y-14034786D02*
X7211214Y-14020500D01*
X7239786Y-14006214D01*
X7311214Y-14006214D01*
X7339786Y-14020500D01*
X7354071Y-14034786D01*
X7368357Y-14063357D01*
X7368357Y-14091929D01*
X7354071Y-14134786D01*
X7182643Y-14306214D01*
X7368357Y-14306214D01*
X7725500Y-14306214D02*
X7725500Y-14006214D01*
X7854071Y-14306214D02*
X7854071Y-14149071D01*
X7839786Y-14120500D01*
X7811214Y-14106214D01*
X7768357Y-14106214D01*
X7739786Y-14120500D01*
X7725500Y-14134786D01*
X8039786Y-14306214D02*
X8011214Y-14291929D01*
X7996928Y-14277643D01*
X7982643Y-14249071D01*
X7982643Y-14163357D01*
X7996928Y-14134786D01*
X8011214Y-14120500D01*
X8039786Y-14106214D01*
X8082643Y-14106214D01*
X8111214Y-14120500D01*
X8125500Y-14134786D01*
X8139786Y-14163357D01*
X8139786Y-14249071D01*
X8125500Y-14277643D01*
X8111214Y-14291929D01*
X8082643Y-14306214D01*
X8039786Y-14306214D01*
X8311214Y-14306214D02*
X8282643Y-14291929D01*
X8268357Y-14263357D01*
X8268357Y-14006214D01*
X8539786Y-14291929D02*
X8511214Y-14306214D01*
X8454071Y-14306214D01*
X8425500Y-14291929D01*
X8411214Y-14263357D01*
X8411214Y-14149071D01*
X8425500Y-14120500D01*
X8454071Y-14106214D01*
X8511214Y-14106214D01*
X8539786Y-14120500D01*
X8554071Y-14149071D01*
X8554071Y-14177643D01*
X8411214Y-14206214D01*
X8668357Y-14291929D02*
X8696928Y-14306214D01*
X8754071Y-14306214D01*
X8782643Y-14291929D01*
X8796928Y-14263357D01*
X8796928Y-14249071D01*
X8782643Y-14220500D01*
X8754071Y-14206214D01*
X8711214Y-14206214D01*
X8682643Y-14191929D01*
X8668357Y-14163357D01*
X8668357Y-14149071D01*
X8682643Y-14120500D01*
X8711214Y-14106214D01*
X8754071Y-14106214D01*
X8782643Y-14120500D01*
X8896928Y-14420500D02*
X8911214Y-14406214D01*
X8939786Y-14363357D01*
X8954071Y-14334786D01*
X8968357Y-14291929D01*
X8982643Y-14220500D01*
X8982643Y-14163357D01*
X8968357Y-14091929D01*
X8954071Y-14049071D01*
X8939786Y-14020500D01*
X8911214Y-13977643D01*
X8896928Y-13963357D01*
X2410500Y-14566500D02*
G75*
G03*
X2410500Y-14566500I-25000J0D01*
G01*
X2754071Y-14402214D02*
X2782643Y-14402214D01*
X2811214Y-14416500D01*
X2825500Y-14430786D01*
X2839786Y-14459357D01*
X2854071Y-14516500D01*
X2854071Y-14587929D01*
X2839786Y-14645071D01*
X2825500Y-14673643D01*
X2811214Y-14687929D01*
X2782643Y-14702214D01*
X2754071Y-14702214D01*
X2725500Y-14687929D01*
X2711214Y-14673643D01*
X2696928Y-14645071D01*
X2682643Y-14587929D01*
X2682643Y-14516500D01*
X2696928Y-14459357D01*
X2711214Y-14430786D01*
X2725500Y-14416500D01*
X2754071Y-14402214D01*
X2982643Y-14673643D02*
X2996928Y-14687929D01*
X2982643Y-14702214D01*
X2968357Y-14687929D01*
X2982643Y-14673643D01*
X2982643Y-14702214D01*
X3268357Y-14402214D02*
X3125500Y-14402214D01*
X3111214Y-14545071D01*
X3125500Y-14530786D01*
X3154071Y-14516500D01*
X3225500Y-14516500D01*
X3254071Y-14530786D01*
X3268357Y-14545071D01*
X3282643Y-14573643D01*
X3282643Y-14645071D01*
X3268357Y-14673643D01*
X3254071Y-14687929D01*
X3225500Y-14702214D01*
X3154071Y-14702214D01*
X3125500Y-14687929D01*
X3111214Y-14673643D01*
X3468357Y-14402214D02*
X3496928Y-14402214D01*
X3525500Y-14416500D01*
X3539786Y-14430786D01*
X3554071Y-14459357D01*
X3568357Y-14516500D01*
X3568357Y-14587929D01*
X3554071Y-14645071D01*
X3539786Y-14673643D01*
X3525500Y-14687929D01*
X3496928Y-14702214D01*
X3468357Y-14702214D01*
X3439786Y-14687929D01*
X3425500Y-14673643D01*
X3411214Y-14645071D01*
X3396928Y-14587929D01*
X3396928Y-14516500D01*
X3411214Y-14459357D01*
X3425500Y-14430786D01*
X3439786Y-14416500D01*
X3468357Y-14402214D01*
X3696928Y-14702214D02*
X3696928Y-14502214D01*
X3696928Y-14530786D02*
X3711214Y-14516500D01*
X3739786Y-14502214D01*
X3782643Y-14502214D01*
X3811214Y-14516500D01*
X3825500Y-14545071D01*
X3825500Y-14702214D01*
X3825500Y-14545071D02*
X3839786Y-14516500D01*
X3868357Y-14502214D01*
X3911214Y-14502214D01*
X3939786Y-14516500D01*
X3954071Y-14545071D01*
X3954071Y-14702214D01*
X4096928Y-14702214D02*
X4096928Y-14502214D01*
X4096928Y-14530786D02*
X4111214Y-14516500D01*
X4139786Y-14502214D01*
X4182643Y-14502214D01*
X4211214Y-14516500D01*
X4225500Y-14545071D01*
X4225500Y-14702214D01*
X4225500Y-14545071D02*
X4239786Y-14516500D01*
X4268357Y-14502214D01*
X4311214Y-14502214D01*
X4339786Y-14516500D01*
X4354071Y-14545071D01*
X4354071Y-14702214D01*
X4939786Y-14387929D02*
X4682643Y-14773643D01*
X5325500Y-14402214D02*
X5354071Y-14402214D01*
X5382643Y-14416500D01*
X5396928Y-14430786D01*
X5411214Y-14459357D01*
X5425500Y-14516500D01*
X5425500Y-14587929D01*
X5411214Y-14645071D01*
X5396928Y-14673643D01*
X5382643Y-14687929D01*
X5354071Y-14702214D01*
X5325500Y-14702214D01*
X5296928Y-14687929D01*
X5282643Y-14673643D01*
X5268357Y-14645071D01*
X5254071Y-14587929D01*
X5254071Y-14516500D01*
X5268357Y-14459357D01*
X5282643Y-14430786D01*
X5296928Y-14416500D01*
X5325500Y-14402214D01*
X5554071Y-14673643D02*
X5568357Y-14687929D01*
X5554071Y-14702214D01*
X5539786Y-14687929D01*
X5554071Y-14673643D01*
X5554071Y-14702214D01*
X5754071Y-14402214D02*
X5782643Y-14402214D01*
X5811214Y-14416500D01*
X5825500Y-14430786D01*
X5839786Y-14459357D01*
X5854071Y-14516500D01*
X5854071Y-14587929D01*
X5839786Y-14645071D01*
X5825500Y-14673643D01*
X5811214Y-14687929D01*
X5782643Y-14702214D01*
X5754071Y-14702214D01*
X5725500Y-14687929D01*
X5711214Y-14673643D01*
X5696928Y-14645071D01*
X5682643Y-14587929D01*
X5682643Y-14516500D01*
X5696928Y-14459357D01*
X5711214Y-14430786D01*
X5725500Y-14416500D01*
X5754071Y-14402214D01*
X5968357Y-14430786D02*
X5982643Y-14416500D01*
X6011214Y-14402214D01*
X6082643Y-14402214D01*
X6111214Y-14416500D01*
X6125500Y-14430786D01*
X6139786Y-14459357D01*
X6139786Y-14487929D01*
X6125500Y-14530786D01*
X5954071Y-14702214D01*
X6139786Y-14702214D01*
X6325500Y-14402214D02*
X6354071Y-14402214D01*
X6382643Y-14416500D01*
X6396928Y-14430786D01*
X6411214Y-14459357D01*
X6425500Y-14516500D01*
X6425500Y-14587929D01*
X6411214Y-14645071D01*
X6396928Y-14673643D01*
X6382643Y-14687929D01*
X6354071Y-14702214D01*
X6325500Y-14702214D01*
X6296928Y-14687929D01*
X6282643Y-14673643D01*
X6268357Y-14645071D01*
X6254071Y-14587929D01*
X6254071Y-14516500D01*
X6268357Y-14459357D01*
X6282643Y-14430786D01*
X6296928Y-14416500D01*
X6325500Y-14402214D01*
X6539786Y-14402214D02*
X6539786Y-14459357D01*
X6654071Y-14402214D02*
X6654071Y-14459357D01*
X7096928Y-14816500D02*
X7082643Y-14802214D01*
X7054071Y-14759357D01*
X7039786Y-14730786D01*
X7025500Y-14687929D01*
X7011214Y-14616500D01*
X7011214Y-14559357D01*
X7025500Y-14487929D01*
X7039786Y-14445071D01*
X7054071Y-14416500D01*
X7082643Y-14373643D01*
X7096928Y-14359357D01*
X7368357Y-14702214D02*
X7196928Y-14702214D01*
X7282643Y-14702214D02*
X7282643Y-14402214D01*
X7254071Y-14445071D01*
X7225500Y-14473643D01*
X7196928Y-14487929D01*
X7539786Y-14530786D02*
X7511214Y-14516500D01*
X7496928Y-14502214D01*
X7482643Y-14473643D01*
X7482643Y-14459357D01*
X7496928Y-14430786D01*
X7511214Y-14416500D01*
X7539786Y-14402214D01*
X7596928Y-14402214D01*
X7625500Y-14416500D01*
X7639786Y-14430786D01*
X7654071Y-14459357D01*
X7654071Y-14473643D01*
X7639786Y-14502214D01*
X7625500Y-14516500D01*
X7596928Y-14530786D01*
X7539786Y-14530786D01*
X7511214Y-14545071D01*
X7496928Y-14559357D01*
X7482643Y-14587929D01*
X7482643Y-14645071D01*
X7496928Y-14673643D01*
X7511214Y-14687929D01*
X7539786Y-14702214D01*
X7596928Y-14702214D01*
X7625500Y-14687929D01*
X7639786Y-14673643D01*
X7654071Y-14645071D01*
X7654071Y-14587929D01*
X7639786Y-14559357D01*
X7625500Y-14545071D01*
X7596928Y-14530786D01*
X7839786Y-14402214D02*
X7868357Y-14402214D01*
X7896928Y-14416500D01*
X7911214Y-14430786D01*
X7925500Y-14459357D01*
X7939786Y-14516500D01*
X7939786Y-14587929D01*
X7925500Y-14645071D01*
X7911214Y-14673643D01*
X7896928Y-14687929D01*
X7868357Y-14702214D01*
X7839786Y-14702214D01*
X7811214Y-14687929D01*
X7796928Y-14673643D01*
X7782643Y-14645071D01*
X7768357Y-14587929D01*
X7768357Y-14516500D01*
X7782643Y-14459357D01*
X7796928Y-14430786D01*
X7811214Y-14416500D01*
X7839786Y-14402214D01*
X8296928Y-14702214D02*
X8296928Y-14402214D01*
X8425500Y-14702214D02*
X8425500Y-14545071D01*
X8411214Y-14516500D01*
X8382643Y-14502214D01*
X8339786Y-14502214D01*
X8311214Y-14516500D01*
X8296928Y-14530786D01*
X8611214Y-14702214D02*
X8582643Y-14687929D01*
X8568357Y-14673643D01*
X8554071Y-14645071D01*
X8554071Y-14559357D01*
X8568357Y-14530786D01*
X8582643Y-14516500D01*
X8611214Y-14502214D01*
X8654071Y-14502214D01*
X8682643Y-14516500D01*
X8696928Y-14530786D01*
X8711214Y-14559357D01*
X8711214Y-14645071D01*
X8696928Y-14673643D01*
X8682643Y-14687929D01*
X8654071Y-14702214D01*
X8611214Y-14702214D01*
X8882643Y-14702214D02*
X8854071Y-14687929D01*
X8839786Y-14659357D01*
X8839786Y-14402214D01*
X9111214Y-14687929D02*
X9082643Y-14702214D01*
X9025500Y-14702214D01*
X8996928Y-14687929D01*
X8982643Y-14659357D01*
X8982643Y-14545071D01*
X8996928Y-14516500D01*
X9025500Y-14502214D01*
X9082643Y-14502214D01*
X9111214Y-14516500D01*
X9125500Y-14545071D01*
X9125500Y-14573643D01*
X8982643Y-14602214D01*
X9239786Y-14687929D02*
X9268357Y-14702214D01*
X9325500Y-14702214D01*
X9354071Y-14687929D01*
X9368357Y-14659357D01*
X9368357Y-14645071D01*
X9354071Y-14616500D01*
X9325500Y-14602214D01*
X9282643Y-14602214D01*
X9254071Y-14587929D01*
X9239786Y-14559357D01*
X9239786Y-14545071D01*
X9254071Y-14516500D01*
X9282643Y-14502214D01*
X9325500Y-14502214D01*
X9354071Y-14516500D01*
X9468357Y-14816500D02*
X9482643Y-14802214D01*
X9511214Y-14759357D01*
X9525500Y-14730786D01*
X9539786Y-14687929D01*
X9554071Y-14616500D01*
X9554071Y-14559357D01*
X9539786Y-14487929D01*
X9525500Y-14445071D01*
X9511214Y-14416500D01*
X9482643Y-14373643D01*
X9468357Y-14359357D01*
X2370500Y-14922500D02*
X2370500Y-15002500D01*
X2330500Y-14962500D02*
X2410500Y-14962500D01*
X2754071Y-14798214D02*
X2782643Y-14798214D01*
X2811214Y-14812500D01*
X2825500Y-14826786D01*
X2839786Y-14855357D01*
X2854071Y-14912500D01*
X2854071Y-14983929D01*
X2839786Y-15041071D01*
X2825500Y-15069643D01*
X2811214Y-15083929D01*
X2782643Y-15098214D01*
X2754071Y-15098214D01*
X2725500Y-15083929D01*
X2711214Y-15069643D01*
X2696928Y-15041071D01*
X2682643Y-14983929D01*
X2682643Y-14912500D01*
X2696928Y-14855357D01*
X2711214Y-14826786D01*
X2725500Y-14812500D01*
X2754071Y-14798214D01*
X2982643Y-15069643D02*
X2996928Y-15083929D01*
X2982643Y-15098214D01*
X2968357Y-15083929D01*
X2982643Y-15069643D01*
X2982643Y-15098214D01*
X3168357Y-14926786D02*
X3139786Y-14912500D01*
X3125500Y-14898214D01*
X3111214Y-14869643D01*
X3111214Y-14855357D01*
X3125500Y-14826786D01*
X3139786Y-14812500D01*
X3168357Y-14798214D01*
X3225500Y-14798214D01*
X3254071Y-14812500D01*
X3268357Y-14826786D01*
X3282643Y-14855357D01*
X3282643Y-14869643D01*
X3268357Y-14898214D01*
X3254071Y-14912500D01*
X3225500Y-14926786D01*
X3168357Y-14926786D01*
X3139786Y-14941071D01*
X3125500Y-14955357D01*
X3111214Y-14983929D01*
X3111214Y-15041071D01*
X3125500Y-15069643D01*
X3139786Y-15083929D01*
X3168357Y-15098214D01*
X3225500Y-15098214D01*
X3254071Y-15083929D01*
X3268357Y-15069643D01*
X3282643Y-15041071D01*
X3282643Y-14983929D01*
X3268357Y-14955357D01*
X3254071Y-14941071D01*
X3225500Y-14926786D01*
X3468357Y-14798214D02*
X3496928Y-14798214D01*
X3525500Y-14812500D01*
X3539786Y-14826786D01*
X3554071Y-14855357D01*
X3568357Y-14912500D01*
X3568357Y-14983929D01*
X3554071Y-15041071D01*
X3539786Y-15069643D01*
X3525500Y-15083929D01*
X3496928Y-15098214D01*
X3468357Y-15098214D01*
X3439786Y-15083929D01*
X3425500Y-15069643D01*
X3411214Y-15041071D01*
X3396928Y-14983929D01*
X3396928Y-14912500D01*
X3411214Y-14855357D01*
X3425500Y-14826786D01*
X3439786Y-14812500D01*
X3468357Y-14798214D01*
X3696928Y-15098214D02*
X3696928Y-14898214D01*
X3696928Y-14926786D02*
X3711214Y-14912500D01*
X3739786Y-14898214D01*
X3782643Y-14898214D01*
X3811214Y-14912500D01*
X3825500Y-14941071D01*
X3825500Y-15098214D01*
X3825500Y-14941071D02*
X3839786Y-14912500D01*
X3868357Y-14898214D01*
X3911214Y-14898214D01*
X3939786Y-14912500D01*
X3954071Y-14941071D01*
X3954071Y-15098214D01*
X4096928Y-15098214D02*
X4096928Y-14898214D01*
X4096928Y-14926786D02*
X4111214Y-14912500D01*
X4139786Y-14898214D01*
X4182643Y-14898214D01*
X4211214Y-14912500D01*
X4225500Y-14941071D01*
X4225500Y-15098214D01*
X4225500Y-14941071D02*
X4239786Y-14912500D01*
X4268357Y-14898214D01*
X4311214Y-14898214D01*
X4339786Y-14912500D01*
X4354071Y-14941071D01*
X4354071Y-15098214D01*
X4939786Y-14783929D02*
X4682643Y-15169643D01*
X5325500Y-14798214D02*
X5354071Y-14798214D01*
X5382643Y-14812500D01*
X5396928Y-14826786D01*
X5411214Y-14855357D01*
X5425500Y-14912500D01*
X5425500Y-14983929D01*
X5411214Y-15041071D01*
X5396928Y-15069643D01*
X5382643Y-15083929D01*
X5354071Y-15098214D01*
X5325500Y-15098214D01*
X5296928Y-15083929D01*
X5282643Y-15069643D01*
X5268357Y-15041071D01*
X5254071Y-14983929D01*
X5254071Y-14912500D01*
X5268357Y-14855357D01*
X5282643Y-14826786D01*
X5296928Y-14812500D01*
X5325500Y-14798214D01*
X5554071Y-15069643D02*
X5568357Y-15083929D01*
X5554071Y-15098214D01*
X5539786Y-15083929D01*
X5554071Y-15069643D01*
X5554071Y-15098214D01*
X5754071Y-14798214D02*
X5782643Y-14798214D01*
X5811214Y-14812500D01*
X5825500Y-14826786D01*
X5839786Y-14855357D01*
X5854071Y-14912500D01*
X5854071Y-14983929D01*
X5839786Y-15041071D01*
X5825500Y-15069643D01*
X5811214Y-15083929D01*
X5782643Y-15098214D01*
X5754071Y-15098214D01*
X5725500Y-15083929D01*
X5711214Y-15069643D01*
X5696928Y-15041071D01*
X5682643Y-14983929D01*
X5682643Y-14912500D01*
X5696928Y-14855357D01*
X5711214Y-14826786D01*
X5725500Y-14812500D01*
X5754071Y-14798214D01*
X5954071Y-14798214D02*
X6139786Y-14798214D01*
X6039786Y-14912500D01*
X6082643Y-14912500D01*
X6111214Y-14926786D01*
X6125500Y-14941071D01*
X6139786Y-14969643D01*
X6139786Y-15041071D01*
X6125500Y-15069643D01*
X6111214Y-15083929D01*
X6082643Y-15098214D01*
X5996928Y-15098214D01*
X5968357Y-15083929D01*
X5954071Y-15069643D01*
X6425500Y-15098214D02*
X6254071Y-15098214D01*
X6339786Y-15098214D02*
X6339786Y-14798214D01*
X6311214Y-14841071D01*
X6282643Y-14869643D01*
X6254071Y-14883929D01*
X6539786Y-14798214D02*
X6539786Y-14855357D01*
X6654071Y-14798214D02*
X6654071Y-14855357D01*
X7096928Y-15212500D02*
X7082643Y-15198214D01*
X7054071Y-15155357D01*
X7039786Y-15126786D01*
X7025500Y-15083929D01*
X7011214Y-15012500D01*
X7011214Y-14955357D01*
X7025500Y-14883929D01*
X7039786Y-14841071D01*
X7054071Y-14812500D01*
X7082643Y-14769643D01*
X7096928Y-14755357D01*
X7339786Y-14798214D02*
X7282643Y-14798214D01*
X7254071Y-14812500D01*
X7239786Y-14826786D01*
X7211214Y-14869643D01*
X7196928Y-14926786D01*
X7196928Y-15041071D01*
X7211214Y-15069643D01*
X7225500Y-15083929D01*
X7254071Y-15098214D01*
X7311214Y-15098214D01*
X7339786Y-15083929D01*
X7354071Y-15069643D01*
X7368357Y-15041071D01*
X7368357Y-14969643D01*
X7354071Y-14941071D01*
X7339786Y-14926786D01*
X7311214Y-14912500D01*
X7254071Y-14912500D01*
X7225500Y-14926786D01*
X7211214Y-14941071D01*
X7196928Y-14969643D01*
X7554071Y-14798214D02*
X7582643Y-14798214D01*
X7611214Y-14812500D01*
X7625500Y-14826786D01*
X7639786Y-14855357D01*
X7654071Y-14912500D01*
X7654071Y-14983929D01*
X7639786Y-15041071D01*
X7625500Y-15069643D01*
X7611214Y-15083929D01*
X7582643Y-15098214D01*
X7554071Y-15098214D01*
X7525500Y-15083929D01*
X7511214Y-15069643D01*
X7496928Y-15041071D01*
X7482643Y-14983929D01*
X7482643Y-14912500D01*
X7496928Y-14855357D01*
X7511214Y-14826786D01*
X7525500Y-14812500D01*
X7554071Y-14798214D01*
X8011214Y-15098214D02*
X8011214Y-14798214D01*
X8139786Y-15098214D02*
X8139786Y-14941071D01*
X8125500Y-14912500D01*
X8096928Y-14898214D01*
X8054071Y-14898214D01*
X8025500Y-14912500D01*
X8011214Y-14926786D01*
X8325500Y-15098214D02*
X8296928Y-15083929D01*
X8282643Y-15069643D01*
X8268357Y-15041071D01*
X8268357Y-14955357D01*
X8282643Y-14926786D01*
X8296928Y-14912500D01*
X8325500Y-14898214D01*
X8368357Y-14898214D01*
X8396928Y-14912500D01*
X8411214Y-14926786D01*
X8425500Y-14955357D01*
X8425500Y-15041071D01*
X8411214Y-15069643D01*
X8396928Y-15083929D01*
X8368357Y-15098214D01*
X8325500Y-15098214D01*
X8596928Y-15098214D02*
X8568357Y-15083929D01*
X8554071Y-15055357D01*
X8554071Y-14798214D01*
X8825500Y-15083929D02*
X8796928Y-15098214D01*
X8739786Y-15098214D01*
X8711214Y-15083929D01*
X8696928Y-15055357D01*
X8696928Y-14941071D01*
X8711214Y-14912500D01*
X8739786Y-14898214D01*
X8796928Y-14898214D01*
X8825500Y-14912500D01*
X8839786Y-14941071D01*
X8839786Y-14969643D01*
X8696928Y-14998214D01*
X8954071Y-15083929D02*
X8982643Y-15098214D01*
X9039786Y-15098214D01*
X9068357Y-15083929D01*
X9082643Y-15055357D01*
X9082643Y-15041071D01*
X9068357Y-15012500D01*
X9039786Y-14998214D01*
X8996928Y-14998214D01*
X8968357Y-14983929D01*
X8954071Y-14955357D01*
X8954071Y-14941071D01*
X8968357Y-14912500D01*
X8996928Y-14898214D01*
X9039786Y-14898214D01*
X9068357Y-14912500D01*
X9182643Y-15212500D02*
X9196928Y-15198214D01*
X9225500Y-15155357D01*
X9239786Y-15126786D01*
X9254071Y-15083929D01*
X9268357Y-15012500D01*
X9268357Y-14955357D01*
X9254071Y-14883929D01*
X9239786Y-14841071D01*
X9225500Y-14812500D01*
X9196928Y-14769643D01*
X9182643Y-14755357D01*
X2395856Y-15393856D02*
X2395856Y-15323144D01*
X2325144Y-15323144D01*
X2325144Y-15393856D01*
X2395856Y-15393856D01*
X2854071Y-15494214D02*
X2682643Y-15494214D01*
X2768357Y-15494214D02*
X2768357Y-15194214D01*
X2739786Y-15237071D01*
X2711214Y-15265643D01*
X2682643Y-15279929D01*
X2982643Y-15465643D02*
X2996928Y-15479929D01*
X2982643Y-15494214D01*
X2968357Y-15479929D01*
X2982643Y-15465643D01*
X2982643Y-15494214D01*
X3182643Y-15194214D02*
X3211214Y-15194214D01*
X3239786Y-15208500D01*
X3254071Y-15222786D01*
X3268357Y-15251357D01*
X3282643Y-15308500D01*
X3282643Y-15379929D01*
X3268357Y-15437071D01*
X3254071Y-15465643D01*
X3239786Y-15479929D01*
X3211214Y-15494214D01*
X3182643Y-15494214D01*
X3154071Y-15479929D01*
X3139786Y-15465643D01*
X3125500Y-15437071D01*
X3111214Y-15379929D01*
X3111214Y-15308500D01*
X3125500Y-15251357D01*
X3139786Y-15222786D01*
X3154071Y-15208500D01*
X3182643Y-15194214D01*
X3468357Y-15194214D02*
X3496928Y-15194214D01*
X3525500Y-15208500D01*
X3539786Y-15222786D01*
X3554071Y-15251357D01*
X3568357Y-15308500D01*
X3568357Y-15379929D01*
X3554071Y-15437071D01*
X3539786Y-15465643D01*
X3525500Y-15479929D01*
X3496928Y-15494214D01*
X3468357Y-15494214D01*
X3439786Y-15479929D01*
X3425500Y-15465643D01*
X3411214Y-15437071D01*
X3396928Y-15379929D01*
X3396928Y-15308500D01*
X3411214Y-15251357D01*
X3425500Y-15222786D01*
X3439786Y-15208500D01*
X3468357Y-15194214D01*
X3696928Y-15494214D02*
X3696928Y-15294214D01*
X3696928Y-15322786D02*
X3711214Y-15308500D01*
X3739786Y-15294214D01*
X3782643Y-15294214D01*
X3811214Y-15308500D01*
X3825500Y-15337071D01*
X3825500Y-15494214D01*
X3825500Y-15337071D02*
X3839786Y-15308500D01*
X3868357Y-15294214D01*
X3911214Y-15294214D01*
X3939786Y-15308500D01*
X3954071Y-15337071D01*
X3954071Y-15494214D01*
X4096928Y-15494214D02*
X4096928Y-15294214D01*
X4096928Y-15322786D02*
X4111214Y-15308500D01*
X4139786Y-15294214D01*
X4182643Y-15294214D01*
X4211214Y-15308500D01*
X4225500Y-15337071D01*
X4225500Y-15494214D01*
X4225500Y-15337071D02*
X4239786Y-15308500D01*
X4268357Y-15294214D01*
X4311214Y-15294214D01*
X4339786Y-15308500D01*
X4354071Y-15337071D01*
X4354071Y-15494214D01*
X4939786Y-15179929D02*
X4682643Y-15565643D01*
X5325500Y-15194214D02*
X5354071Y-15194214D01*
X5382643Y-15208500D01*
X5396928Y-15222786D01*
X5411214Y-15251357D01*
X5425500Y-15308500D01*
X5425500Y-15379929D01*
X5411214Y-15437071D01*
X5396928Y-15465643D01*
X5382643Y-15479929D01*
X5354071Y-15494214D01*
X5325500Y-15494214D01*
X5296928Y-15479929D01*
X5282643Y-15465643D01*
X5268357Y-15437071D01*
X5254071Y-15379929D01*
X5254071Y-15308500D01*
X5268357Y-15251357D01*
X5282643Y-15222786D01*
X5296928Y-15208500D01*
X5325500Y-15194214D01*
X5554071Y-15465643D02*
X5568357Y-15479929D01*
X5554071Y-15494214D01*
X5539786Y-15479929D01*
X5554071Y-15465643D01*
X5554071Y-15494214D01*
X5754071Y-15194214D02*
X5782643Y-15194214D01*
X5811214Y-15208500D01*
X5825500Y-15222786D01*
X5839786Y-15251357D01*
X5854071Y-15308500D01*
X5854071Y-15379929D01*
X5839786Y-15437071D01*
X5825500Y-15465643D01*
X5811214Y-15479929D01*
X5782643Y-15494214D01*
X5754071Y-15494214D01*
X5725500Y-15479929D01*
X5711214Y-15465643D01*
X5696928Y-15437071D01*
X5682643Y-15379929D01*
X5682643Y-15308500D01*
X5696928Y-15251357D01*
X5711214Y-15222786D01*
X5725500Y-15208500D01*
X5754071Y-15194214D01*
X5954071Y-15194214D02*
X6139786Y-15194214D01*
X6039786Y-15308500D01*
X6082643Y-15308500D01*
X6111214Y-15322786D01*
X6125500Y-15337071D01*
X6139786Y-15365643D01*
X6139786Y-15437071D01*
X6125500Y-15465643D01*
X6111214Y-15479929D01*
X6082643Y-15494214D01*
X5996928Y-15494214D01*
X5968357Y-15479929D01*
X5954071Y-15465643D01*
X6282643Y-15494214D02*
X6339786Y-15494214D01*
X6368357Y-15479929D01*
X6382643Y-15465643D01*
X6411214Y-15422786D01*
X6425500Y-15365643D01*
X6425500Y-15251357D01*
X6411214Y-15222786D01*
X6396928Y-15208500D01*
X6368357Y-15194214D01*
X6311214Y-15194214D01*
X6282643Y-15208500D01*
X6268357Y-15222786D01*
X6254071Y-15251357D01*
X6254071Y-15322786D01*
X6268357Y-15351357D01*
X6282643Y-15365643D01*
X6311214Y-15379929D01*
X6368357Y-15379929D01*
X6396928Y-15365643D01*
X6411214Y-15351357D01*
X6425500Y-15322786D01*
X6539786Y-15194214D02*
X6539786Y-15251357D01*
X6654071Y-15194214D02*
X6654071Y-15251357D01*
X7096928Y-15608500D02*
X7082643Y-15594214D01*
X7054071Y-15551357D01*
X7039786Y-15522786D01*
X7025500Y-15479929D01*
X7011214Y-15408500D01*
X7011214Y-15351357D01*
X7025500Y-15279929D01*
X7039786Y-15237071D01*
X7054071Y-15208500D01*
X7082643Y-15165643D01*
X7096928Y-15151357D01*
X7254071Y-15322786D02*
X7225500Y-15308500D01*
X7211214Y-15294214D01*
X7196928Y-15265643D01*
X7196928Y-15251357D01*
X7211214Y-15222786D01*
X7225500Y-15208500D01*
X7254071Y-15194214D01*
X7311214Y-15194214D01*
X7339786Y-15208500D01*
X7354071Y-15222786D01*
X7368357Y-15251357D01*
X7368357Y-15265643D01*
X7354071Y-15294214D01*
X7339786Y-15308500D01*
X7311214Y-15322786D01*
X7254071Y-15322786D01*
X7225500Y-15337071D01*
X7211214Y-15351357D01*
X7196928Y-15379929D01*
X7196928Y-15437071D01*
X7211214Y-15465643D01*
X7225500Y-15479929D01*
X7254071Y-15494214D01*
X7311214Y-15494214D01*
X7339786Y-15479929D01*
X7354071Y-15465643D01*
X7368357Y-15437071D01*
X7368357Y-15379929D01*
X7354071Y-15351357D01*
X7339786Y-15337071D01*
X7311214Y-15322786D01*
X7725500Y-15494214D02*
X7725500Y-15194214D01*
X7854071Y-15494214D02*
X7854071Y-15337071D01*
X7839786Y-15308500D01*
X7811214Y-15294214D01*
X7768357Y-15294214D01*
X7739786Y-15308500D01*
X7725500Y-15322786D01*
X8039786Y-15494214D02*
X8011214Y-15479929D01*
X7996928Y-15465643D01*
X7982643Y-15437071D01*
X7982643Y-15351357D01*
X7996928Y-15322786D01*
X8011214Y-15308500D01*
X8039786Y-15294214D01*
X8082643Y-15294214D01*
X8111214Y-15308500D01*
X8125500Y-15322786D01*
X8139786Y-15351357D01*
X8139786Y-15437071D01*
X8125500Y-15465643D01*
X8111214Y-15479929D01*
X8082643Y-15494214D01*
X8039786Y-15494214D01*
X8311214Y-15494214D02*
X8282643Y-15479929D01*
X8268357Y-15451357D01*
X8268357Y-15194214D01*
X8539786Y-15479929D02*
X8511214Y-15494214D01*
X8454071Y-15494214D01*
X8425500Y-15479929D01*
X8411214Y-15451357D01*
X8411214Y-15337071D01*
X8425500Y-15308500D01*
X8454071Y-15294214D01*
X8511214Y-15294214D01*
X8539786Y-15308500D01*
X8554071Y-15337071D01*
X8554071Y-15365643D01*
X8411214Y-15394214D01*
X8668357Y-15479929D02*
X8696928Y-15494214D01*
X8754071Y-15494214D01*
X8782643Y-15479929D01*
X8796928Y-15451357D01*
X8796928Y-15437071D01*
X8782643Y-15408500D01*
X8754071Y-15394214D01*
X8711214Y-15394214D01*
X8682643Y-15379929D01*
X8668357Y-15351357D01*
X8668357Y-15337071D01*
X8682643Y-15308500D01*
X8711214Y-15294214D01*
X8754071Y-15294214D01*
X8782643Y-15308500D01*
X8896928Y-15608500D02*
X8911214Y-15594214D01*
X8939786Y-15551357D01*
X8954071Y-15522786D01*
X8968357Y-15479929D01*
X8982643Y-15408500D01*
X8982643Y-15351357D01*
X8968357Y-15279929D01*
X8954071Y-15237071D01*
X8939786Y-15208500D01*
X8911214Y-15165643D01*
X8896928Y-15151357D01*
X2355500Y-15809500D02*
X2410500Y-15754500D01*
X2355500Y-15699500D01*
X2300500Y-15754500D01*
X2355500Y-15809500D01*
X2854071Y-15890214D02*
X2682643Y-15890214D01*
X2768357Y-15890214D02*
X2768357Y-15590214D01*
X2739786Y-15633071D01*
X2711214Y-15661643D01*
X2682643Y-15675929D01*
X2982643Y-15861643D02*
X2996928Y-15875929D01*
X2982643Y-15890214D01*
X2968357Y-15875929D01*
X2982643Y-15861643D01*
X2982643Y-15890214D01*
X3282643Y-15890214D02*
X3111214Y-15890214D01*
X3196928Y-15890214D02*
X3196928Y-15590214D01*
X3168357Y-15633071D01*
X3139786Y-15661643D01*
X3111214Y-15675929D01*
X3468357Y-15590214D02*
X3496928Y-15590214D01*
X3525500Y-15604500D01*
X3539786Y-15618786D01*
X3554071Y-15647357D01*
X3568357Y-15704500D01*
X3568357Y-15775929D01*
X3554071Y-15833071D01*
X3539786Y-15861643D01*
X3525500Y-15875929D01*
X3496928Y-15890214D01*
X3468357Y-15890214D01*
X3439786Y-15875929D01*
X3425500Y-15861643D01*
X3411214Y-15833071D01*
X3396928Y-15775929D01*
X3396928Y-15704500D01*
X3411214Y-15647357D01*
X3425500Y-15618786D01*
X3439786Y-15604500D01*
X3468357Y-15590214D01*
X3696928Y-15890214D02*
X3696928Y-15690214D01*
X3696928Y-15718786D02*
X3711214Y-15704500D01*
X3739786Y-15690214D01*
X3782643Y-15690214D01*
X3811214Y-15704500D01*
X3825500Y-15733071D01*
X3825500Y-15890214D01*
X3825500Y-15733071D02*
X3839786Y-15704500D01*
X3868357Y-15690214D01*
X3911214Y-15690214D01*
X3939786Y-15704500D01*
X3954071Y-15733071D01*
X3954071Y-15890214D01*
X4096928Y-15890214D02*
X4096928Y-15690214D01*
X4096928Y-15718786D02*
X4111214Y-15704500D01*
X4139786Y-15690214D01*
X4182643Y-15690214D01*
X4211214Y-15704500D01*
X4225500Y-15733071D01*
X4225500Y-15890214D01*
X4225500Y-15733071D02*
X4239786Y-15704500D01*
X4268357Y-15690214D01*
X4311214Y-15690214D01*
X4339786Y-15704500D01*
X4354071Y-15733071D01*
X4354071Y-15890214D01*
X4939786Y-15575929D02*
X4682643Y-15961643D01*
X5325500Y-15590214D02*
X5354071Y-15590214D01*
X5382643Y-15604500D01*
X5396928Y-15618786D01*
X5411214Y-15647357D01*
X5425500Y-15704500D01*
X5425500Y-15775929D01*
X5411214Y-15833071D01*
X5396928Y-15861643D01*
X5382643Y-15875929D01*
X5354071Y-15890214D01*
X5325500Y-15890214D01*
X5296928Y-15875929D01*
X5282643Y-15861643D01*
X5268357Y-15833071D01*
X5254071Y-15775929D01*
X5254071Y-15704500D01*
X5268357Y-15647357D01*
X5282643Y-15618786D01*
X5296928Y-15604500D01*
X5325500Y-15590214D01*
X5554071Y-15861643D02*
X5568357Y-15875929D01*
X5554071Y-15890214D01*
X5539786Y-15875929D01*
X5554071Y-15861643D01*
X5554071Y-15890214D01*
X5754071Y-15590214D02*
X5782643Y-15590214D01*
X5811214Y-15604500D01*
X5825500Y-15618786D01*
X5839786Y-15647357D01*
X5854071Y-15704500D01*
X5854071Y-15775929D01*
X5839786Y-15833071D01*
X5825500Y-15861643D01*
X5811214Y-15875929D01*
X5782643Y-15890214D01*
X5754071Y-15890214D01*
X5725500Y-15875929D01*
X5711214Y-15861643D01*
X5696928Y-15833071D01*
X5682643Y-15775929D01*
X5682643Y-15704500D01*
X5696928Y-15647357D01*
X5711214Y-15618786D01*
X5725500Y-15604500D01*
X5754071Y-15590214D01*
X6111214Y-15690214D02*
X6111214Y-15890214D01*
X6039786Y-15575929D02*
X5968357Y-15790214D01*
X6154071Y-15790214D01*
X6239786Y-15590214D02*
X6425500Y-15590214D01*
X6325500Y-15704500D01*
X6368357Y-15704500D01*
X6396928Y-15718786D01*
X6411214Y-15733071D01*
X6425500Y-15761643D01*
X6425500Y-15833071D01*
X6411214Y-15861643D01*
X6396928Y-15875929D01*
X6368357Y-15890214D01*
X6282643Y-15890214D01*
X6254071Y-15875929D01*
X6239786Y-15861643D01*
X6539786Y-15590214D02*
X6539786Y-15647357D01*
X6654071Y-15590214D02*
X6654071Y-15647357D01*
X7096928Y-16004500D02*
X7082643Y-15990214D01*
X7054071Y-15947357D01*
X7039786Y-15918786D01*
X7025500Y-15875929D01*
X7011214Y-15804500D01*
X7011214Y-15747357D01*
X7025500Y-15675929D01*
X7039786Y-15633071D01*
X7054071Y-15604500D01*
X7082643Y-15561643D01*
X7096928Y-15547357D01*
X7254071Y-15718786D02*
X7225500Y-15704500D01*
X7211214Y-15690214D01*
X7196928Y-15661643D01*
X7196928Y-15647357D01*
X7211214Y-15618786D01*
X7225500Y-15604500D01*
X7254071Y-15590214D01*
X7311214Y-15590214D01*
X7339786Y-15604500D01*
X7354071Y-15618786D01*
X7368357Y-15647357D01*
X7368357Y-15661643D01*
X7354071Y-15690214D01*
X7339786Y-15704500D01*
X7311214Y-15718786D01*
X7254071Y-15718786D01*
X7225500Y-15733071D01*
X7211214Y-15747357D01*
X7196928Y-15775929D01*
X7196928Y-15833071D01*
X7211214Y-15861643D01*
X7225500Y-15875929D01*
X7254071Y-15890214D01*
X7311214Y-15890214D01*
X7339786Y-15875929D01*
X7354071Y-15861643D01*
X7368357Y-15833071D01*
X7368357Y-15775929D01*
X7354071Y-15747357D01*
X7339786Y-15733071D01*
X7311214Y-15718786D01*
X7625500Y-15690214D02*
X7625500Y-15890214D01*
X7554071Y-15575929D02*
X7482643Y-15790214D01*
X7668357Y-15790214D01*
X8011214Y-15890214D02*
X8011214Y-15590214D01*
X8139786Y-15890214D02*
X8139786Y-15733071D01*
X8125500Y-15704500D01*
X8096928Y-15690214D01*
X8054071Y-15690214D01*
X8025500Y-15704500D01*
X8011214Y-15718786D01*
X8325500Y-15890214D02*
X8296928Y-15875929D01*
X8282643Y-15861643D01*
X8268357Y-15833071D01*
X8268357Y-15747357D01*
X8282643Y-15718786D01*
X8296928Y-15704500D01*
X8325500Y-15690214D01*
X8368357Y-15690214D01*
X8396928Y-15704500D01*
X8411214Y-15718786D01*
X8425500Y-15747357D01*
X8425500Y-15833071D01*
X8411214Y-15861643D01*
X8396928Y-15875929D01*
X8368357Y-15890214D01*
X8325500Y-15890214D01*
X8596928Y-15890214D02*
X8568357Y-15875929D01*
X8554071Y-15847357D01*
X8554071Y-15590214D01*
X8825500Y-15875929D02*
X8796928Y-15890214D01*
X8739786Y-15890214D01*
X8711214Y-15875929D01*
X8696928Y-15847357D01*
X8696928Y-15733071D01*
X8711214Y-15704500D01*
X8739786Y-15690214D01*
X8796928Y-15690214D01*
X8825500Y-15704500D01*
X8839786Y-15733071D01*
X8839786Y-15761643D01*
X8696928Y-15790214D01*
X8954071Y-15875929D02*
X8982643Y-15890214D01*
X9039786Y-15890214D01*
X9068357Y-15875929D01*
X9082643Y-15847357D01*
X9082643Y-15833071D01*
X9068357Y-15804500D01*
X9039786Y-15790214D01*
X8996928Y-15790214D01*
X8968357Y-15775929D01*
X8954071Y-15747357D01*
X8954071Y-15733071D01*
X8968357Y-15704500D01*
X8996928Y-15690214D01*
X9039786Y-15690214D01*
X9068357Y-15704500D01*
X9182643Y-16004500D02*
X9196928Y-15990214D01*
X9225500Y-15947357D01*
X9239786Y-15918786D01*
X9254071Y-15875929D01*
X9268357Y-15804500D01*
X9268357Y-15747357D01*
X9254071Y-15675929D01*
X9239786Y-15633071D01*
X9225500Y-15604500D01*
X9196928Y-15561643D01*
X9182643Y-15547357D01*
X2270500Y-16080500D02*
X2410500Y-16220500D01*
X2410500Y-16080500D02*
X2270500Y-16220500D01*
X2410500Y-16150500D02*
G75*
G03*
X2410500Y-16150500I-70000J0D01*
G01*
X2854071Y-16286214D02*
X2682643Y-16286214D01*
X2768357Y-16286214D02*
X2768357Y-15986214D01*
X2739786Y-16029071D01*
X2711214Y-16057643D01*
X2682643Y-16071929D01*
X2982643Y-16257643D02*
X2996928Y-16271929D01*
X2982643Y-16286214D01*
X2968357Y-16271929D01*
X2982643Y-16257643D01*
X2982643Y-16286214D01*
X3254071Y-16086214D02*
X3254071Y-16286214D01*
X3182643Y-15971929D02*
X3111214Y-16186214D01*
X3296928Y-16186214D01*
X3468357Y-15986214D02*
X3496928Y-15986214D01*
X3525500Y-16000500D01*
X3539786Y-16014786D01*
X3554071Y-16043357D01*
X3568357Y-16100500D01*
X3568357Y-16171929D01*
X3554071Y-16229071D01*
X3539786Y-16257643D01*
X3525500Y-16271929D01*
X3496928Y-16286214D01*
X3468357Y-16286214D01*
X3439786Y-16271929D01*
X3425500Y-16257643D01*
X3411214Y-16229071D01*
X3396928Y-16171929D01*
X3396928Y-16100500D01*
X3411214Y-16043357D01*
X3425500Y-16014786D01*
X3439786Y-16000500D01*
X3468357Y-15986214D01*
X3696928Y-16286214D02*
X3696928Y-16086214D01*
X3696928Y-16114786D02*
X3711214Y-16100500D01*
X3739786Y-16086214D01*
X3782643Y-16086214D01*
X3811214Y-16100500D01*
X3825500Y-16129071D01*
X3825500Y-16286214D01*
X3825500Y-16129071D02*
X3839786Y-16100500D01*
X3868357Y-16086214D01*
X3911214Y-16086214D01*
X3939786Y-16100500D01*
X3954071Y-16129071D01*
X3954071Y-16286214D01*
X4096928Y-16286214D02*
X4096928Y-16086214D01*
X4096928Y-16114786D02*
X4111214Y-16100500D01*
X4139786Y-16086214D01*
X4182643Y-16086214D01*
X4211214Y-16100500D01*
X4225500Y-16129071D01*
X4225500Y-16286214D01*
X4225500Y-16129071D02*
X4239786Y-16100500D01*
X4268357Y-16086214D01*
X4311214Y-16086214D01*
X4339786Y-16100500D01*
X4354071Y-16129071D01*
X4354071Y-16286214D01*
X4939786Y-15971929D02*
X4682643Y-16357643D01*
X5325500Y-15986214D02*
X5354071Y-15986214D01*
X5382643Y-16000500D01*
X5396928Y-16014786D01*
X5411214Y-16043357D01*
X5425500Y-16100500D01*
X5425500Y-16171929D01*
X5411214Y-16229071D01*
X5396928Y-16257643D01*
X5382643Y-16271929D01*
X5354071Y-16286214D01*
X5325500Y-16286214D01*
X5296928Y-16271929D01*
X5282643Y-16257643D01*
X5268357Y-16229071D01*
X5254071Y-16171929D01*
X5254071Y-16100500D01*
X5268357Y-16043357D01*
X5282643Y-16014786D01*
X5296928Y-16000500D01*
X5325500Y-15986214D01*
X5554071Y-16257643D02*
X5568357Y-16271929D01*
X5554071Y-16286214D01*
X5539786Y-16271929D01*
X5554071Y-16257643D01*
X5554071Y-16286214D01*
X5754071Y-15986214D02*
X5782643Y-15986214D01*
X5811214Y-16000500D01*
X5825500Y-16014786D01*
X5839786Y-16043357D01*
X5854071Y-16100500D01*
X5854071Y-16171929D01*
X5839786Y-16229071D01*
X5825500Y-16257643D01*
X5811214Y-16271929D01*
X5782643Y-16286214D01*
X5754071Y-16286214D01*
X5725500Y-16271929D01*
X5711214Y-16257643D01*
X5696928Y-16229071D01*
X5682643Y-16171929D01*
X5682643Y-16100500D01*
X5696928Y-16043357D01*
X5711214Y-16014786D01*
X5725500Y-16000500D01*
X5754071Y-15986214D01*
X6125500Y-15986214D02*
X5982643Y-15986214D01*
X5968357Y-16129071D01*
X5982643Y-16114786D01*
X6011214Y-16100500D01*
X6082643Y-16100500D01*
X6111214Y-16114786D01*
X6125500Y-16129071D01*
X6139786Y-16157643D01*
X6139786Y-16229071D01*
X6125500Y-16257643D01*
X6111214Y-16271929D01*
X6082643Y-16286214D01*
X6011214Y-16286214D01*
X5982643Y-16271929D01*
X5968357Y-16257643D01*
X6411214Y-15986214D02*
X6268357Y-15986214D01*
X6254071Y-16129071D01*
X6268357Y-16114786D01*
X6296928Y-16100500D01*
X6368357Y-16100500D01*
X6396928Y-16114786D01*
X6411214Y-16129071D01*
X6425500Y-16157643D01*
X6425500Y-16229071D01*
X6411214Y-16257643D01*
X6396928Y-16271929D01*
X6368357Y-16286214D01*
X6296928Y-16286214D01*
X6268357Y-16271929D01*
X6254071Y-16257643D01*
X6539786Y-15986214D02*
X6539786Y-16043357D01*
X6654071Y-15986214D02*
X6654071Y-16043357D01*
X7096928Y-16400500D02*
X7082643Y-16386214D01*
X7054071Y-16343357D01*
X7039786Y-16314786D01*
X7025500Y-16271929D01*
X7011214Y-16200500D01*
X7011214Y-16143357D01*
X7025500Y-16071929D01*
X7039786Y-16029071D01*
X7054071Y-16000500D01*
X7082643Y-15957643D01*
X7096928Y-15943357D01*
X7368357Y-16286214D02*
X7196928Y-16286214D01*
X7282643Y-16286214D02*
X7282643Y-15986214D01*
X7254071Y-16029071D01*
X7225500Y-16057643D01*
X7196928Y-16071929D01*
X7482643Y-16014786D02*
X7496928Y-16000500D01*
X7525500Y-15986214D01*
X7596928Y-15986214D01*
X7625500Y-16000500D01*
X7639786Y-16014786D01*
X7654071Y-16043357D01*
X7654071Y-16071929D01*
X7639786Y-16114786D01*
X7468357Y-16286214D01*
X7654071Y-16286214D01*
X7839786Y-15986214D02*
X7868357Y-15986214D01*
X7896928Y-16000500D01*
X7911214Y-16014786D01*
X7925500Y-16043357D01*
X7939786Y-16100500D01*
X7939786Y-16171929D01*
X7925500Y-16229071D01*
X7911214Y-16257643D01*
X7896928Y-16271929D01*
X7868357Y-16286214D01*
X7839786Y-16286214D01*
X7811214Y-16271929D01*
X7796928Y-16257643D01*
X7782643Y-16229071D01*
X7768357Y-16171929D01*
X7768357Y-16100500D01*
X7782643Y-16043357D01*
X7796928Y-16014786D01*
X7811214Y-16000500D01*
X7839786Y-15986214D01*
X8296928Y-16286214D02*
X8296928Y-15986214D01*
X8425500Y-16286214D02*
X8425500Y-16129071D01*
X8411214Y-16100500D01*
X8382643Y-16086214D01*
X8339786Y-16086214D01*
X8311214Y-16100500D01*
X8296928Y-16114786D01*
X8611214Y-16286214D02*
X8582643Y-16271929D01*
X8568357Y-16257643D01*
X8554071Y-16229071D01*
X8554071Y-16143357D01*
X8568357Y-16114786D01*
X8582643Y-16100500D01*
X8611214Y-16086214D01*
X8654071Y-16086214D01*
X8682643Y-16100500D01*
X8696928Y-16114786D01*
X8711214Y-16143357D01*
X8711214Y-16229071D01*
X8696928Y-16257643D01*
X8682643Y-16271929D01*
X8654071Y-16286214D01*
X8611214Y-16286214D01*
X8882643Y-16286214D02*
X8854071Y-16271929D01*
X8839786Y-16243357D01*
X8839786Y-15986214D01*
X9111214Y-16271929D02*
X9082643Y-16286214D01*
X9025500Y-16286214D01*
X8996928Y-16271929D01*
X8982643Y-16243357D01*
X8982643Y-16129071D01*
X8996928Y-16100500D01*
X9025500Y-16086214D01*
X9082643Y-16086214D01*
X9111214Y-16100500D01*
X9125500Y-16129071D01*
X9125500Y-16157643D01*
X8982643Y-16186214D01*
X9239786Y-16271929D02*
X9268357Y-16286214D01*
X9325500Y-16286214D01*
X9354071Y-16271929D01*
X9368357Y-16243357D01*
X9368357Y-16229071D01*
X9354071Y-16200500D01*
X9325500Y-16186214D01*
X9282643Y-16186214D01*
X9254071Y-16171929D01*
X9239786Y-16143357D01*
X9239786Y-16129071D01*
X9254071Y-16100500D01*
X9282643Y-16086214D01*
X9325500Y-16086214D01*
X9354071Y-16100500D01*
X9468357Y-16400500D02*
X9482643Y-16386214D01*
X9511214Y-16343357D01*
X9525500Y-16314786D01*
X9539786Y-16271929D01*
X9554071Y-16200500D01*
X9554071Y-16143357D01*
X9539786Y-16071929D01*
X9525500Y-16029071D01*
X9511214Y-16000500D01*
X9482643Y-15957643D01*
X9468357Y-15943357D01*
X2240320Y-16461410D02*
X2410500Y-16631590D01*
X2410500Y-16461410D02*
X2240320Y-16631590D01*
X2325410Y-16461410D02*
X2325410Y-16631590D01*
X2240320Y-16546500D02*
X2410500Y-16546500D01*
X2854071Y-16682214D02*
X2682643Y-16682214D01*
X2768357Y-16682214D02*
X2768357Y-16382214D01*
X2739786Y-16425071D01*
X2711214Y-16453643D01*
X2682643Y-16467929D01*
X2982643Y-16653643D02*
X2996928Y-16667929D01*
X2982643Y-16682214D01*
X2968357Y-16667929D01*
X2982643Y-16653643D01*
X2982643Y-16682214D01*
X3096928Y-16382214D02*
X3296928Y-16382214D01*
X3168357Y-16682214D01*
X3468357Y-16382214D02*
X3496928Y-16382214D01*
X3525500Y-16396500D01*
X3539786Y-16410786D01*
X3554071Y-16439357D01*
X3568357Y-16496500D01*
X3568357Y-16567929D01*
X3554071Y-16625071D01*
X3539786Y-16653643D01*
X3525500Y-16667929D01*
X3496928Y-16682214D01*
X3468357Y-16682214D01*
X3439786Y-16667929D01*
X3425500Y-16653643D01*
X3411214Y-16625071D01*
X3396928Y-16567929D01*
X3396928Y-16496500D01*
X3411214Y-16439357D01*
X3425500Y-16410786D01*
X3439786Y-16396500D01*
X3468357Y-16382214D01*
X3696928Y-16682214D02*
X3696928Y-16482214D01*
X3696928Y-16510786D02*
X3711214Y-16496500D01*
X3739786Y-16482214D01*
X3782643Y-16482214D01*
X3811214Y-16496500D01*
X3825500Y-16525071D01*
X3825500Y-16682214D01*
X3825500Y-16525071D02*
X3839786Y-16496500D01*
X3868357Y-16482214D01*
X3911214Y-16482214D01*
X3939786Y-16496500D01*
X3954071Y-16525071D01*
X3954071Y-16682214D01*
X4096928Y-16682214D02*
X4096928Y-16482214D01*
X4096928Y-16510786D02*
X4111214Y-16496500D01*
X4139786Y-16482214D01*
X4182643Y-16482214D01*
X4211214Y-16496500D01*
X4225500Y-16525071D01*
X4225500Y-16682214D01*
X4225500Y-16525071D02*
X4239786Y-16496500D01*
X4268357Y-16482214D01*
X4311214Y-16482214D01*
X4339786Y-16496500D01*
X4354071Y-16525071D01*
X4354071Y-16682214D01*
X4939786Y-16367929D02*
X4682643Y-16753643D01*
X5325500Y-16382214D02*
X5354071Y-16382214D01*
X5382643Y-16396500D01*
X5396928Y-16410786D01*
X5411214Y-16439357D01*
X5425500Y-16496500D01*
X5425500Y-16567929D01*
X5411214Y-16625071D01*
X5396928Y-16653643D01*
X5382643Y-16667929D01*
X5354071Y-16682214D01*
X5325500Y-16682214D01*
X5296928Y-16667929D01*
X5282643Y-16653643D01*
X5268357Y-16625071D01*
X5254071Y-16567929D01*
X5254071Y-16496500D01*
X5268357Y-16439357D01*
X5282643Y-16410786D01*
X5296928Y-16396500D01*
X5325500Y-16382214D01*
X5554071Y-16653643D02*
X5568357Y-16667929D01*
X5554071Y-16682214D01*
X5539786Y-16667929D01*
X5554071Y-16653643D01*
X5554071Y-16682214D01*
X5754071Y-16382214D02*
X5782643Y-16382214D01*
X5811214Y-16396500D01*
X5825500Y-16410786D01*
X5839786Y-16439357D01*
X5854071Y-16496500D01*
X5854071Y-16567929D01*
X5839786Y-16625071D01*
X5825500Y-16653643D01*
X5811214Y-16667929D01*
X5782643Y-16682214D01*
X5754071Y-16682214D01*
X5725500Y-16667929D01*
X5711214Y-16653643D01*
X5696928Y-16625071D01*
X5682643Y-16567929D01*
X5682643Y-16496500D01*
X5696928Y-16439357D01*
X5711214Y-16410786D01*
X5725500Y-16396500D01*
X5754071Y-16382214D01*
X6111214Y-16382214D02*
X6054071Y-16382214D01*
X6025500Y-16396500D01*
X6011214Y-16410786D01*
X5982643Y-16453643D01*
X5968357Y-16510786D01*
X5968357Y-16625071D01*
X5982643Y-16653643D01*
X5996928Y-16667929D01*
X6025500Y-16682214D01*
X6082643Y-16682214D01*
X6111214Y-16667929D01*
X6125500Y-16653643D01*
X6139786Y-16625071D01*
X6139786Y-16553643D01*
X6125500Y-16525071D01*
X6111214Y-16510786D01*
X6082643Y-16496500D01*
X6025500Y-16496500D01*
X5996928Y-16510786D01*
X5982643Y-16525071D01*
X5968357Y-16553643D01*
X6239786Y-16382214D02*
X6439786Y-16382214D01*
X6311214Y-16682214D01*
X6539786Y-16382214D02*
X6539786Y-16439357D01*
X6654071Y-16382214D02*
X6654071Y-16439357D01*
X7096928Y-16796500D02*
X7082643Y-16782214D01*
X7054071Y-16739357D01*
X7039786Y-16710786D01*
X7025500Y-16667929D01*
X7011214Y-16596500D01*
X7011214Y-16539357D01*
X7025500Y-16467929D01*
X7039786Y-16425071D01*
X7054071Y-16396500D01*
X7082643Y-16353643D01*
X7096928Y-16339357D01*
X7339786Y-16382214D02*
X7282643Y-16382214D01*
X7254071Y-16396500D01*
X7239786Y-16410786D01*
X7211214Y-16453643D01*
X7196928Y-16510786D01*
X7196928Y-16625071D01*
X7211214Y-16653643D01*
X7225500Y-16667929D01*
X7254071Y-16682214D01*
X7311214Y-16682214D01*
X7339786Y-16667929D01*
X7354071Y-16653643D01*
X7368357Y-16625071D01*
X7368357Y-16553643D01*
X7354071Y-16525071D01*
X7339786Y-16510786D01*
X7311214Y-16496500D01*
X7254071Y-16496500D01*
X7225500Y-16510786D01*
X7211214Y-16525071D01*
X7196928Y-16553643D01*
X7554071Y-16382214D02*
X7582643Y-16382214D01*
X7611214Y-16396500D01*
X7625500Y-16410786D01*
X7639786Y-16439357D01*
X7654071Y-16496500D01*
X7654071Y-16567929D01*
X7639786Y-16625071D01*
X7625500Y-16653643D01*
X7611214Y-16667929D01*
X7582643Y-16682214D01*
X7554071Y-16682214D01*
X7525500Y-16667929D01*
X7511214Y-16653643D01*
X7496928Y-16625071D01*
X7482643Y-16567929D01*
X7482643Y-16496500D01*
X7496928Y-16439357D01*
X7511214Y-16410786D01*
X7525500Y-16396500D01*
X7554071Y-16382214D01*
X8011214Y-16682214D02*
X8011214Y-16382214D01*
X8139786Y-16682214D02*
X8139786Y-16525071D01*
X8125500Y-16496500D01*
X8096928Y-16482214D01*
X8054071Y-16482214D01*
X8025500Y-16496500D01*
X8011214Y-16510786D01*
X8325500Y-16682214D02*
X8296928Y-16667929D01*
X8282643Y-16653643D01*
X8268357Y-16625071D01*
X8268357Y-16539357D01*
X8282643Y-16510786D01*
X8296928Y-16496500D01*
X8325500Y-16482214D01*
X8368357Y-16482214D01*
X8396928Y-16496500D01*
X8411214Y-16510786D01*
X8425500Y-16539357D01*
X8425500Y-16625071D01*
X8411214Y-16653643D01*
X8396928Y-16667929D01*
X8368357Y-16682214D01*
X8325500Y-16682214D01*
X8596928Y-16682214D02*
X8568357Y-16667929D01*
X8554071Y-16639357D01*
X8554071Y-16382214D01*
X8825500Y-16667929D02*
X8796928Y-16682214D01*
X8739786Y-16682214D01*
X8711214Y-16667929D01*
X8696928Y-16639357D01*
X8696928Y-16525071D01*
X8711214Y-16496500D01*
X8739786Y-16482214D01*
X8796928Y-16482214D01*
X8825500Y-16496500D01*
X8839786Y-16525071D01*
X8839786Y-16553643D01*
X8696928Y-16582214D01*
X8954071Y-16667929D02*
X8982643Y-16682214D01*
X9039786Y-16682214D01*
X9068357Y-16667929D01*
X9082643Y-16639357D01*
X9082643Y-16625071D01*
X9068357Y-16596500D01*
X9039786Y-16582214D01*
X8996928Y-16582214D01*
X8968357Y-16567929D01*
X8954071Y-16539357D01*
X8954071Y-16525071D01*
X8968357Y-16496500D01*
X8996928Y-16482214D01*
X9039786Y-16482214D01*
X9068357Y-16496500D01*
X9182643Y-16796500D02*
X9196928Y-16782214D01*
X9225500Y-16739357D01*
X9239786Y-16710786D01*
X9254071Y-16667929D01*
X9268357Y-16596500D01*
X9268357Y-16539357D01*
X9254071Y-16467929D01*
X9239786Y-16425071D01*
X9225500Y-16396500D01*
X9196928Y-16353643D01*
X9182643Y-16339357D01*
X2011720Y-16743110D02*
X2410500Y-17141890D01*
X2410500Y-16743110D02*
X2011720Y-17141890D01*
X2352101Y-17083492D02*
X2352101Y-16801509D01*
X2070118Y-16801509D01*
X2070118Y-17083492D01*
X2352101Y-17083492D01*
X2668357Y-16778214D02*
X2854071Y-16778214D01*
X2754071Y-16892500D01*
X2796928Y-16892500D01*
X2825500Y-16906786D01*
X2839786Y-16921072D01*
X2854071Y-16949643D01*
X2854071Y-17021072D01*
X2839786Y-17049643D01*
X2825500Y-17063929D01*
X2796928Y-17078214D01*
X2711214Y-17078214D01*
X2682643Y-17063929D01*
X2668357Y-17049643D01*
X2982643Y-17049643D02*
X2996928Y-17063929D01*
X2982643Y-17078214D01*
X2968357Y-17063929D01*
X2982643Y-17049643D01*
X2982643Y-17078214D01*
X3139786Y-17078214D02*
X3196928Y-17078214D01*
X3225500Y-17063929D01*
X3239786Y-17049643D01*
X3268357Y-17006786D01*
X3282643Y-16949643D01*
X3282643Y-16835357D01*
X3268357Y-16806786D01*
X3254071Y-16792500D01*
X3225500Y-16778214D01*
X3168357Y-16778214D01*
X3139786Y-16792500D01*
X3125500Y-16806786D01*
X3111214Y-16835357D01*
X3111214Y-16906786D01*
X3125500Y-16935357D01*
X3139786Y-16949643D01*
X3168357Y-16963929D01*
X3225500Y-16963929D01*
X3254071Y-16949643D01*
X3268357Y-16935357D01*
X3282643Y-16906786D01*
X3425500Y-17078214D02*
X3482643Y-17078214D01*
X3511214Y-17063929D01*
X3525500Y-17049643D01*
X3554071Y-17006786D01*
X3568357Y-16949643D01*
X3568357Y-16835357D01*
X3554071Y-16806786D01*
X3539786Y-16792500D01*
X3511214Y-16778214D01*
X3454071Y-16778214D01*
X3425500Y-16792500D01*
X3411214Y-16806786D01*
X3396928Y-16835357D01*
X3396928Y-16906786D01*
X3411214Y-16935357D01*
X3425500Y-16949643D01*
X3454071Y-16963929D01*
X3511214Y-16963929D01*
X3539786Y-16949643D01*
X3554071Y-16935357D01*
X3568357Y-16906786D01*
X3696928Y-17078214D02*
X3696928Y-16878214D01*
X3696928Y-16906786D02*
X3711214Y-16892500D01*
X3739786Y-16878214D01*
X3782643Y-16878214D01*
X3811214Y-16892500D01*
X3825500Y-16921072D01*
X3825500Y-17078214D01*
X3825500Y-16921072D02*
X3839786Y-16892500D01*
X3868357Y-16878214D01*
X3911214Y-16878214D01*
X3939786Y-16892500D01*
X3954071Y-16921072D01*
X3954071Y-17078214D01*
X4096928Y-17078214D02*
X4096928Y-16878214D01*
X4096928Y-16906786D02*
X4111214Y-16892500D01*
X4139786Y-16878214D01*
X4182643Y-16878214D01*
X4211214Y-16892500D01*
X4225500Y-16921072D01*
X4225500Y-17078214D01*
X4225500Y-16921072D02*
X4239786Y-16892500D01*
X4268357Y-16878214D01*
X4311214Y-16878214D01*
X4339786Y-16892500D01*
X4354071Y-16921072D01*
X4354071Y-17078214D01*
X4939786Y-16763929D02*
X4682643Y-17149643D01*
X5325500Y-16778214D02*
X5354071Y-16778214D01*
X5382643Y-16792500D01*
X5396928Y-16806786D01*
X5411214Y-16835357D01*
X5425500Y-16892500D01*
X5425500Y-16963929D01*
X5411214Y-17021072D01*
X5396928Y-17049643D01*
X5382643Y-17063929D01*
X5354071Y-17078214D01*
X5325500Y-17078214D01*
X5296928Y-17063929D01*
X5282643Y-17049643D01*
X5268357Y-17021072D01*
X5254071Y-16963929D01*
X5254071Y-16892500D01*
X5268357Y-16835357D01*
X5282643Y-16806786D01*
X5296928Y-16792500D01*
X5325500Y-16778214D01*
X5554071Y-17049643D02*
X5568357Y-17063929D01*
X5554071Y-17078214D01*
X5539786Y-17063929D01*
X5554071Y-17049643D01*
X5554071Y-17078214D01*
X5854071Y-17078214D02*
X5682643Y-17078214D01*
X5768357Y-17078214D02*
X5768357Y-16778214D01*
X5739786Y-16821072D01*
X5711214Y-16849643D01*
X5682643Y-16863929D01*
X6125500Y-16778214D02*
X5982643Y-16778214D01*
X5968357Y-16921072D01*
X5982643Y-16906786D01*
X6011214Y-16892500D01*
X6082643Y-16892500D01*
X6111214Y-16906786D01*
X6125500Y-16921072D01*
X6139786Y-16949643D01*
X6139786Y-17021072D01*
X6125500Y-17049643D01*
X6111214Y-17063929D01*
X6082643Y-17078214D01*
X6011214Y-17078214D01*
X5982643Y-17063929D01*
X5968357Y-17049643D01*
X6239786Y-16778214D02*
X6439786Y-16778214D01*
X6311214Y-17078214D01*
X6539786Y-16778214D02*
X6539786Y-16835357D01*
X6654071Y-16778214D02*
X6654071Y-16835357D01*
X7096928Y-17192500D02*
X7082643Y-17178214D01*
X7054071Y-17135357D01*
X7039786Y-17106786D01*
X7025500Y-17063929D01*
X7011214Y-16992500D01*
X7011214Y-16935357D01*
X7025500Y-16863929D01*
X7039786Y-16821072D01*
X7054071Y-16792500D01*
X7082643Y-16749643D01*
X7096928Y-16735357D01*
X7182643Y-16778214D02*
X7368357Y-16778214D01*
X7268357Y-16892500D01*
X7311214Y-16892500D01*
X7339786Y-16906786D01*
X7354071Y-16921072D01*
X7368357Y-16949643D01*
X7368357Y-17021072D01*
X7354071Y-17049643D01*
X7339786Y-17063929D01*
X7311214Y-17078214D01*
X7225500Y-17078214D01*
X7196928Y-17063929D01*
X7182643Y-17049643D01*
X7554071Y-16778214D02*
X7582643Y-16778214D01*
X7611214Y-16792500D01*
X7625500Y-16806786D01*
X7639786Y-16835357D01*
X7654071Y-16892500D01*
X7654071Y-16963929D01*
X7639786Y-17021072D01*
X7625500Y-17049643D01*
X7611214Y-17063929D01*
X7582643Y-17078214D01*
X7554071Y-17078214D01*
X7525500Y-17063929D01*
X7511214Y-17049643D01*
X7496928Y-17021072D01*
X7482643Y-16963929D01*
X7482643Y-16892500D01*
X7496928Y-16835357D01*
X7511214Y-16806786D01*
X7525500Y-16792500D01*
X7554071Y-16778214D01*
X8011214Y-17078214D02*
X8011214Y-16778214D01*
X8139786Y-17078214D02*
X8139786Y-16921072D01*
X8125500Y-16892500D01*
X8096928Y-16878214D01*
X8054071Y-16878214D01*
X8025500Y-16892500D01*
X8011214Y-16906786D01*
X8325500Y-17078214D02*
X8296928Y-17063929D01*
X8282643Y-17049643D01*
X8268357Y-17021072D01*
X8268357Y-16935357D01*
X8282643Y-16906786D01*
X8296928Y-16892500D01*
X8325500Y-16878214D01*
X8368357Y-16878214D01*
X8396928Y-16892500D01*
X8411214Y-16906786D01*
X8425500Y-16935357D01*
X8425500Y-17021072D01*
X8411214Y-17049643D01*
X8396928Y-17063929D01*
X8368357Y-17078214D01*
X8325500Y-17078214D01*
X8596928Y-17078214D02*
X8568357Y-17063929D01*
X8554071Y-17035357D01*
X8554071Y-16778214D01*
X8825500Y-17063929D02*
X8796928Y-17078214D01*
X8739786Y-17078214D01*
X8711214Y-17063929D01*
X8696928Y-17035357D01*
X8696928Y-16921072D01*
X8711214Y-16892500D01*
X8739786Y-16878214D01*
X8796928Y-16878214D01*
X8825500Y-16892500D01*
X8839786Y-16921072D01*
X8839786Y-16949643D01*
X8696928Y-16978214D01*
X8954071Y-17063929D02*
X8982643Y-17078214D01*
X9039786Y-17078214D01*
X9068357Y-17063929D01*
X9082643Y-17035357D01*
X9082643Y-17021072D01*
X9068357Y-16992500D01*
X9039786Y-16978214D01*
X8996928Y-16978214D01*
X8968357Y-16963929D01*
X8954071Y-16935357D01*
X8954071Y-16921072D01*
X8968357Y-16892500D01*
X8996928Y-16878214D01*
X9039786Y-16878214D01*
X9068357Y-16892500D01*
X9182643Y-17192500D02*
X9196928Y-17178214D01*
X9225500Y-17135357D01*
X9239786Y-17106786D01*
X9254071Y-17063929D01*
X9268357Y-16992500D01*
X9268357Y-16935357D01*
X9254071Y-16863929D01*
X9239786Y-16821072D01*
X9225500Y-16792500D01*
X9196928Y-16749643D01*
X9182643Y-16735357D01*
M02*
