%TF.GenerationSoftware,KiCad,Pcbnew,(5.1.9)-1*%
%TF.CreationDate,2021-03-27T16:35:30+07:00*%
%TF.ProjectId,LetsSplit256,4c657473-5370-46c6-9974-3235362e6b69,rev?*%
%TF.SameCoordinates,Original*%
%TF.FileFunction,Profile,NP*%
%FSLAX46Y46*%
G04 Gerber Fmt 4.6, Leading zero omitted, Abs format (unit mm)*
G04 Created by KiCad (PCBNEW (5.1.9)-1) date 2021-03-27 16:35:30*
%MOMM*%
%LPD*%
G01*
G04 APERTURE LIST*
%TA.AperFunction,Profile*%
%ADD10C,0.050000*%
%TD*%
%TA.AperFunction,Profile*%
%ADD11C,0.150000*%
%TD*%
G04 APERTURE END LIST*
D10*
X147320000Y-95250000D02*
X147320000Y-102870000D01*
X161290000Y-93980000D02*
X161290000Y-40640000D01*
X161290000Y-104140000D02*
X161290000Y-130810000D01*
X160020000Y-95250000D02*
X161290000Y-93980000D01*
X160020000Y-102870000D02*
X161290000Y-104140000D01*
X156210000Y-102870000D02*
X153670000Y-102870000D01*
X147320000Y-102870000D02*
X160020000Y-102870000D01*
X160020000Y-95250000D02*
X147320000Y-95250000D01*
X140970000Y-38100000D02*
X142240000Y-39370000D01*
X139700000Y-35560000D02*
X140970000Y-36830000D01*
X25400000Y-35560000D02*
X24130000Y-36830000D01*
X24130000Y-130810000D02*
X25400000Y-132080000D01*
X161290000Y-130810000D02*
X160020000Y-132080000D01*
X160020000Y-39370000D02*
X161290000Y-40640000D01*
X142240000Y-39370000D02*
X160020000Y-39370000D01*
X140970000Y-36830000D02*
X140970000Y-38100000D01*
D11*
X60810000Y-109070000D02*
X48410000Y-109070000D01*
D10*
X24130000Y-130810000D02*
X24130000Y-36830000D01*
X160020000Y-132080000D02*
X25400000Y-132080000D01*
X25400000Y-35560000D02*
X139700000Y-35560000D01*
D11*
X124610000Y-109070000D02*
X124610000Y-104670000D01*
X137010000Y-109070000D02*
X124610000Y-109070000D01*
X137810000Y-104870000D02*
X137810000Y-109870000D01*
X137810000Y-109870000D02*
X123810000Y-109870000D01*
X137810000Y-104870000D02*
X137810000Y-104670000D01*
X137810000Y-95870000D02*
X123810000Y-95870000D01*
X137010000Y-104670000D02*
X137010000Y-109070000D01*
X137810000Y-104670000D02*
X137010000Y-104670000D01*
X137010000Y-100870000D02*
X137010000Y-101070000D01*
X123810000Y-100870000D02*
X123810000Y-101070000D01*
X124610000Y-104670000D02*
X123810000Y-104670000D01*
X123810000Y-109870000D02*
X123810000Y-104870000D01*
X137010000Y-101070000D02*
X137810000Y-101070000D01*
X123810000Y-104670000D02*
X123810000Y-104870000D01*
X124610000Y-101070000D02*
X124610000Y-100870000D01*
X123810000Y-95870000D02*
X123810000Y-100870000D01*
X137810000Y-101070000D02*
X137810000Y-100870000D01*
X137010000Y-96670000D02*
X137010000Y-100870000D01*
X123810000Y-101070000D02*
X124610000Y-101070000D01*
X137810000Y-100870000D02*
X137810000Y-95870000D01*
X124610000Y-100870000D02*
X124610000Y-96670000D01*
X124610000Y-96670000D02*
X137010000Y-96670000D01*
X124610000Y-70970000D02*
X124610000Y-66570000D01*
X137010000Y-70970000D02*
X124610000Y-70970000D01*
X137810000Y-66770000D02*
X137810000Y-71770000D01*
X137810000Y-71770000D02*
X123810000Y-71770000D01*
X137810000Y-66770000D02*
X137810000Y-66570000D01*
X137810000Y-57770000D02*
X123810000Y-57770000D01*
X137010000Y-66570000D02*
X137010000Y-70970000D01*
X137810000Y-66570000D02*
X137010000Y-66570000D01*
X137010000Y-62770000D02*
X137010000Y-62970000D01*
X123810000Y-62770000D02*
X123810000Y-62970000D01*
X124610000Y-66570000D02*
X123810000Y-66570000D01*
X123810000Y-71770000D02*
X123810000Y-66770000D01*
X137010000Y-62970000D02*
X137810000Y-62970000D01*
X123810000Y-66570000D02*
X123810000Y-66770000D01*
X124610000Y-62970000D02*
X124610000Y-62770000D01*
X123810000Y-57770000D02*
X123810000Y-62770000D01*
X137810000Y-62970000D02*
X137810000Y-62770000D01*
X137010000Y-58570000D02*
X137010000Y-62770000D01*
X123810000Y-62970000D02*
X124610000Y-62970000D01*
X137810000Y-62770000D02*
X137810000Y-57770000D01*
X124610000Y-62770000D02*
X124610000Y-58570000D01*
X124610000Y-58570000D02*
X137010000Y-58570000D01*
X118760000Y-52720000D02*
X104760000Y-52720000D01*
X105560000Y-43920000D02*
X105560000Y-43720000D01*
X105560000Y-39520000D02*
X117960000Y-39520000D01*
X118760000Y-47720000D02*
X118760000Y-47520000D01*
X118760000Y-47520000D02*
X117960000Y-47520000D01*
X105560000Y-43720000D02*
X105560000Y-39520000D01*
X105560000Y-51920000D02*
X105560000Y-47520000D01*
X117960000Y-39520000D02*
X117960000Y-43720000D01*
X104760000Y-43920000D02*
X105560000Y-43920000D01*
X117960000Y-43720000D02*
X117960000Y-43920000D01*
X117960000Y-47520000D02*
X117960000Y-51920000D01*
X104760000Y-47520000D02*
X104760000Y-47720000D01*
X117960000Y-51920000D02*
X105560000Y-51920000D01*
X117960000Y-43920000D02*
X118760000Y-43920000D01*
X104760000Y-43720000D02*
X104760000Y-43920000D01*
X118760000Y-47720000D02*
X118760000Y-52720000D01*
X104760000Y-38720000D02*
X104760000Y-43720000D01*
X123810000Y-47520000D02*
X123810000Y-47720000D01*
X124610000Y-39520000D02*
X137010000Y-39520000D01*
X137010000Y-51920000D02*
X124610000Y-51920000D01*
X137010000Y-39520000D02*
X137010000Y-43720000D01*
X123810000Y-43920000D02*
X124610000Y-43920000D01*
X123810000Y-43720000D02*
X123810000Y-43920000D01*
X137010000Y-47520000D02*
X137010000Y-51920000D01*
X137010000Y-43720000D02*
X137010000Y-43920000D01*
X137810000Y-47720000D02*
X137810000Y-47520000D01*
X118760000Y-43720000D02*
X118760000Y-38720000D01*
X118760000Y-38720000D02*
X104760000Y-38720000D01*
X105560000Y-47520000D02*
X104760000Y-47520000D01*
X124610000Y-43720000D02*
X124610000Y-39520000D01*
X137810000Y-47720000D02*
X137810000Y-52720000D01*
X137810000Y-47520000D02*
X137010000Y-47520000D01*
X137810000Y-52720000D02*
X123810000Y-52720000D01*
X124610000Y-43920000D02*
X124610000Y-43720000D01*
X137010000Y-43920000D02*
X137810000Y-43920000D01*
X118760000Y-43920000D02*
X118760000Y-43720000D01*
X104760000Y-52720000D02*
X104760000Y-47720000D01*
X124610000Y-51920000D02*
X124610000Y-47520000D01*
X137810000Y-38720000D02*
X123810000Y-38720000D01*
X137810000Y-43920000D02*
X137810000Y-43720000D01*
X123810000Y-52720000D02*
X123810000Y-47720000D01*
X124610000Y-47520000D02*
X123810000Y-47520000D01*
X123810000Y-38720000D02*
X123810000Y-43720000D01*
X137810000Y-43720000D02*
X137810000Y-38720000D01*
X42560000Y-128920000D02*
X28560000Y-128920000D01*
X29360000Y-120120000D02*
X29360000Y-119920000D01*
X29360000Y-115720000D02*
X41760000Y-115720000D01*
X42560000Y-123920000D02*
X42560000Y-123720000D01*
X42560000Y-123720000D02*
X41760000Y-123720000D01*
X29360000Y-119920000D02*
X29360000Y-115720000D01*
X29360000Y-128120000D02*
X29360000Y-123720000D01*
X41760000Y-115720000D02*
X41760000Y-119920000D01*
X28560000Y-120120000D02*
X29360000Y-120120000D01*
X41760000Y-119920000D02*
X41760000Y-120120000D01*
X41760000Y-123720000D02*
X41760000Y-128120000D01*
X28560000Y-123720000D02*
X28560000Y-123920000D01*
X41760000Y-128120000D02*
X29360000Y-128120000D01*
X41760000Y-120120000D02*
X42560000Y-120120000D01*
X28560000Y-119920000D02*
X28560000Y-120120000D01*
X42560000Y-123920000D02*
X42560000Y-128920000D01*
X28560000Y-114920000D02*
X28560000Y-119920000D01*
X47610000Y-123720000D02*
X47610000Y-123920000D01*
X48410000Y-115720000D02*
X60810000Y-115720000D01*
X60810000Y-128120000D02*
X48410000Y-128120000D01*
X60810000Y-115720000D02*
X60810000Y-119920000D01*
X47610000Y-120120000D02*
X48410000Y-120120000D01*
X47610000Y-119920000D02*
X47610000Y-120120000D01*
X60810000Y-123720000D02*
X60810000Y-128120000D01*
X60810000Y-119920000D02*
X60810000Y-120120000D01*
X61610000Y-123920000D02*
X61610000Y-123720000D01*
X42560000Y-119920000D02*
X42560000Y-114920000D01*
X42560000Y-114920000D02*
X28560000Y-114920000D01*
X29360000Y-123720000D02*
X28560000Y-123720000D01*
X48410000Y-119920000D02*
X48410000Y-115720000D01*
X61610000Y-123920000D02*
X61610000Y-128920000D01*
X61610000Y-123720000D02*
X60810000Y-123720000D01*
X61610000Y-128920000D02*
X47610000Y-128920000D01*
X48410000Y-120120000D02*
X48410000Y-119920000D01*
X60810000Y-120120000D02*
X61610000Y-120120000D01*
X42560000Y-120120000D02*
X42560000Y-119920000D01*
X28560000Y-128920000D02*
X28560000Y-123920000D01*
X48410000Y-128120000D02*
X48410000Y-123720000D01*
X61610000Y-114920000D02*
X47610000Y-114920000D01*
X61610000Y-120120000D02*
X61610000Y-119920000D01*
X47610000Y-128920000D02*
X47610000Y-123920000D01*
X48410000Y-123720000D02*
X47610000Y-123720000D01*
X47610000Y-114920000D02*
X47610000Y-119920000D01*
X61610000Y-119920000D02*
X61610000Y-114920000D01*
X80660000Y-128920000D02*
X66660000Y-128920000D01*
X67460000Y-120120000D02*
X67460000Y-119920000D01*
X67460000Y-115720000D02*
X79860000Y-115720000D01*
X80660000Y-123920000D02*
X80660000Y-123720000D01*
X80660000Y-123720000D02*
X79860000Y-123720000D01*
X67460000Y-119920000D02*
X67460000Y-115720000D01*
X67460000Y-128120000D02*
X67460000Y-123720000D01*
X79860000Y-115720000D02*
X79860000Y-119920000D01*
X66660000Y-120120000D02*
X67460000Y-120120000D01*
X79860000Y-119920000D02*
X79860000Y-120120000D01*
X79860000Y-123720000D02*
X79860000Y-128120000D01*
X66660000Y-123720000D02*
X66660000Y-123920000D01*
X79860000Y-128120000D02*
X67460000Y-128120000D01*
X79860000Y-120120000D02*
X80660000Y-120120000D01*
X66660000Y-119920000D02*
X66660000Y-120120000D01*
X80660000Y-123920000D02*
X80660000Y-128920000D01*
X66660000Y-114920000D02*
X66660000Y-119920000D01*
X85710000Y-123720000D02*
X85710000Y-123920000D01*
X86510000Y-115720000D02*
X98910000Y-115720000D01*
X98910000Y-128120000D02*
X86510000Y-128120000D01*
X98910000Y-115720000D02*
X98910000Y-119920000D01*
X85710000Y-120120000D02*
X86510000Y-120120000D01*
X85710000Y-119920000D02*
X85710000Y-120120000D01*
X98910000Y-123720000D02*
X98910000Y-128120000D01*
X98910000Y-119920000D02*
X98910000Y-120120000D01*
X99710000Y-123920000D02*
X99710000Y-123720000D01*
X80660000Y-119920000D02*
X80660000Y-114920000D01*
X80660000Y-114920000D02*
X66660000Y-114920000D01*
X67460000Y-123720000D02*
X66660000Y-123720000D01*
X86510000Y-119920000D02*
X86510000Y-115720000D01*
X99710000Y-123920000D02*
X99710000Y-128920000D01*
X99710000Y-123720000D02*
X98910000Y-123720000D01*
X99710000Y-128920000D02*
X85710000Y-128920000D01*
X86510000Y-120120000D02*
X86510000Y-119920000D01*
X98910000Y-120120000D02*
X99710000Y-120120000D01*
X80660000Y-120120000D02*
X80660000Y-119920000D01*
X66660000Y-128920000D02*
X66660000Y-123920000D01*
X86510000Y-128120000D02*
X86510000Y-123720000D01*
X99710000Y-114920000D02*
X85710000Y-114920000D01*
X99710000Y-120120000D02*
X99710000Y-119920000D01*
X85710000Y-128920000D02*
X85710000Y-123920000D01*
X86510000Y-123720000D02*
X85710000Y-123720000D01*
X85710000Y-114920000D02*
X85710000Y-119920000D01*
X99710000Y-119920000D02*
X99710000Y-114920000D01*
X61610000Y-109870000D02*
X47610000Y-109870000D01*
X61610000Y-104670000D02*
X60810000Y-104670000D01*
X48410000Y-104670000D02*
X47610000Y-104670000D01*
X61610000Y-101070000D02*
X61610000Y-100870000D01*
X47610000Y-100870000D02*
X47610000Y-101070000D01*
X47610000Y-109870000D02*
X47610000Y-104870000D01*
X60810000Y-104670000D02*
X60810000Y-109070000D01*
X48410000Y-96670000D02*
X60810000Y-96670000D01*
X61610000Y-104870000D02*
X61610000Y-104670000D01*
X28560000Y-101070000D02*
X29360000Y-101070000D01*
X28560000Y-104670000D02*
X28560000Y-104870000D01*
X28560000Y-100870000D02*
X28560000Y-101070000D01*
X41760000Y-100870000D02*
X41760000Y-101070000D01*
X42560000Y-101070000D02*
X42560000Y-100870000D01*
X41760000Y-96670000D02*
X41760000Y-100870000D01*
X42560000Y-100870000D02*
X42560000Y-95870000D01*
X29360000Y-101070000D02*
X29360000Y-100870000D01*
X41760000Y-101070000D02*
X42560000Y-101070000D01*
X42560000Y-104670000D02*
X41760000Y-104670000D01*
X29360000Y-109070000D02*
X29360000Y-104670000D01*
X41760000Y-104670000D02*
X41760000Y-109070000D01*
X42560000Y-104870000D02*
X42560000Y-104670000D01*
X29360000Y-96670000D02*
X41760000Y-96670000D01*
X28560000Y-95870000D02*
X28560000Y-100870000D01*
X42560000Y-109870000D02*
X28560000Y-109870000D01*
X42560000Y-104870000D02*
X42560000Y-109870000D01*
X41760000Y-109070000D02*
X29360000Y-109070000D01*
X29360000Y-100870000D02*
X29360000Y-96670000D01*
X42560000Y-95870000D02*
X28560000Y-95870000D01*
X85710000Y-100870000D02*
X85710000Y-101070000D01*
X67460000Y-101070000D02*
X67460000Y-100870000D01*
X60810000Y-96670000D02*
X60810000Y-100870000D01*
X61610000Y-100870000D02*
X61610000Y-95870000D01*
X47610000Y-104670000D02*
X47610000Y-104870000D01*
X61610000Y-95870000D02*
X47610000Y-95870000D01*
X60810000Y-101070000D02*
X61610000Y-101070000D01*
X60810000Y-100870000D02*
X60810000Y-101070000D01*
X47610000Y-101070000D02*
X48410000Y-101070000D01*
X99710000Y-104870000D02*
X99710000Y-109870000D01*
X86510000Y-109070000D02*
X86510000Y-104670000D01*
X48410000Y-101070000D02*
X48410000Y-100870000D01*
X85710000Y-104670000D02*
X85710000Y-104870000D01*
X47610000Y-95870000D02*
X47610000Y-100870000D01*
X105560000Y-109070000D02*
X105560000Y-104670000D01*
X117960000Y-109070000D02*
X105560000Y-109070000D01*
X118760000Y-104870000D02*
X118760000Y-109870000D01*
X118760000Y-109870000D02*
X104760000Y-109870000D01*
X118760000Y-104870000D02*
X118760000Y-104670000D01*
X118760000Y-95870000D02*
X104760000Y-95870000D01*
X117960000Y-104670000D02*
X117960000Y-109070000D01*
X118760000Y-104670000D02*
X117960000Y-104670000D01*
X117960000Y-100870000D02*
X117960000Y-101070000D01*
X104760000Y-100870000D02*
X104760000Y-101070000D01*
X67460000Y-109070000D02*
X67460000Y-104670000D01*
X105560000Y-104670000D02*
X104760000Y-104670000D01*
X104760000Y-109870000D02*
X104760000Y-104870000D01*
X117960000Y-101070000D02*
X118760000Y-101070000D01*
X104760000Y-104670000D02*
X104760000Y-104870000D01*
X67460000Y-100870000D02*
X67460000Y-96670000D01*
X86510000Y-100870000D02*
X86510000Y-96670000D01*
X105560000Y-101070000D02*
X105560000Y-100870000D01*
X85710000Y-101070000D02*
X86510000Y-101070000D01*
X104760000Y-95870000D02*
X104760000Y-100870000D01*
X118760000Y-101070000D02*
X118760000Y-100870000D01*
X117960000Y-96670000D02*
X117960000Y-100870000D01*
X104760000Y-101070000D02*
X105560000Y-101070000D01*
X118760000Y-100870000D02*
X118760000Y-95870000D01*
X105560000Y-100870000D02*
X105560000Y-96670000D01*
X105560000Y-96670000D02*
X117960000Y-96670000D01*
X99710000Y-109870000D02*
X85710000Y-109870000D01*
X86510000Y-96670000D02*
X98910000Y-96670000D01*
X67460000Y-104670000D02*
X66660000Y-104670000D01*
X66660000Y-95870000D02*
X66660000Y-100870000D01*
X99710000Y-104670000D02*
X98910000Y-104670000D01*
X98910000Y-104670000D02*
X98910000Y-109070000D01*
X98910000Y-109070000D02*
X86510000Y-109070000D01*
X66660000Y-101070000D02*
X67460000Y-101070000D01*
X79860000Y-101070000D02*
X80660000Y-101070000D01*
X86510000Y-101070000D02*
X86510000Y-100870000D01*
X98910000Y-101070000D02*
X99710000Y-101070000D01*
X98910000Y-100870000D02*
X98910000Y-101070000D01*
X80660000Y-101070000D02*
X80660000Y-100870000D01*
X67460000Y-96670000D02*
X79860000Y-96670000D01*
X99710000Y-104870000D02*
X99710000Y-104670000D01*
X48410000Y-100870000D02*
X48410000Y-96670000D01*
X79860000Y-104670000D02*
X79860000Y-109070000D01*
X66660000Y-109870000D02*
X66660000Y-104870000D01*
X80660000Y-104670000D02*
X79860000Y-104670000D01*
X80660000Y-109870000D02*
X66660000Y-109870000D01*
X99710000Y-95870000D02*
X85710000Y-95870000D01*
X85710000Y-109870000D02*
X85710000Y-104870000D01*
X48410000Y-109070000D02*
X48410000Y-104670000D01*
X86510000Y-104670000D02*
X85710000Y-104670000D01*
X99710000Y-101070000D02*
X99710000Y-100870000D01*
X66660000Y-104670000D02*
X66660000Y-104870000D01*
X80660000Y-95870000D02*
X66660000Y-95870000D01*
X61610000Y-104870000D02*
X61610000Y-109870000D01*
X98910000Y-96670000D02*
X98910000Y-100870000D01*
X85710000Y-95870000D02*
X85710000Y-100870000D01*
X66660000Y-100870000D02*
X66660000Y-101070000D01*
X99710000Y-100870000D02*
X99710000Y-95870000D01*
X80660000Y-100870000D02*
X80660000Y-95870000D01*
X79860000Y-96670000D02*
X79860000Y-100870000D01*
X79860000Y-100870000D02*
X79860000Y-101070000D01*
X80660000Y-104870000D02*
X80660000Y-104670000D01*
X80660000Y-104870000D02*
X80660000Y-109870000D01*
X79860000Y-109070000D02*
X67460000Y-109070000D01*
X28560000Y-109870000D02*
X28560000Y-104870000D01*
X29360000Y-104670000D02*
X28560000Y-104670000D01*
X80660000Y-90820000D02*
X66660000Y-90820000D01*
X79860000Y-90020000D02*
X67460000Y-90020000D01*
X80660000Y-85620000D02*
X79860000Y-85620000D01*
X67460000Y-85620000D02*
X66660000Y-85620000D01*
X80660000Y-82020000D02*
X80660000Y-81820000D01*
X66660000Y-81820000D02*
X66660000Y-82020000D01*
X66660000Y-90820000D02*
X66660000Y-85820000D01*
X79860000Y-85620000D02*
X79860000Y-90020000D01*
X67460000Y-77620000D02*
X79860000Y-77620000D01*
X80660000Y-85820000D02*
X80660000Y-85620000D01*
X47610000Y-82020000D02*
X48410000Y-82020000D01*
X47610000Y-85620000D02*
X47610000Y-85820000D01*
X47610000Y-81820000D02*
X47610000Y-82020000D01*
X60810000Y-81820000D02*
X60810000Y-82020000D01*
X61610000Y-82020000D02*
X61610000Y-81820000D01*
X60810000Y-77620000D02*
X60810000Y-81820000D01*
X61610000Y-81820000D02*
X61610000Y-76820000D01*
X48410000Y-82020000D02*
X48410000Y-81820000D01*
X60810000Y-82020000D02*
X61610000Y-82020000D01*
X61610000Y-85620000D02*
X60810000Y-85620000D01*
X48410000Y-90020000D02*
X48410000Y-85620000D01*
X60810000Y-85620000D02*
X60810000Y-90020000D01*
X61610000Y-85820000D02*
X61610000Y-85620000D01*
X48410000Y-77620000D02*
X60810000Y-77620000D01*
X47610000Y-76820000D02*
X47610000Y-81820000D01*
X61610000Y-90820000D02*
X47610000Y-90820000D01*
X61610000Y-85820000D02*
X61610000Y-90820000D01*
X60810000Y-90020000D02*
X48410000Y-90020000D01*
X48410000Y-81820000D02*
X48410000Y-77620000D01*
X61610000Y-76820000D02*
X47610000Y-76820000D01*
X104760000Y-81820000D02*
X104760000Y-82020000D01*
X86510000Y-82020000D02*
X86510000Y-81820000D01*
X79860000Y-77620000D02*
X79860000Y-81820000D01*
X80660000Y-81820000D02*
X80660000Y-76820000D01*
X66660000Y-85620000D02*
X66660000Y-85820000D01*
X80660000Y-76820000D02*
X66660000Y-76820000D01*
X79860000Y-82020000D02*
X80660000Y-82020000D01*
X79860000Y-81820000D02*
X79860000Y-82020000D01*
X66660000Y-82020000D02*
X67460000Y-82020000D01*
X118760000Y-85820000D02*
X118760000Y-90820000D01*
X105560000Y-90020000D02*
X105560000Y-85620000D01*
X67460000Y-82020000D02*
X67460000Y-81820000D01*
X104760000Y-85620000D02*
X104760000Y-85820000D01*
X66660000Y-76820000D02*
X66660000Y-81820000D01*
X124610000Y-90020000D02*
X124610000Y-85620000D01*
X137010000Y-90020000D02*
X124610000Y-90020000D01*
X137810000Y-85820000D02*
X137810000Y-90820000D01*
X137810000Y-90820000D02*
X123810000Y-90820000D01*
X137810000Y-85820000D02*
X137810000Y-85620000D01*
X137810000Y-76820000D02*
X123810000Y-76820000D01*
X137010000Y-85620000D02*
X137010000Y-90020000D01*
X137810000Y-85620000D02*
X137010000Y-85620000D01*
X137010000Y-81820000D02*
X137010000Y-82020000D01*
X123810000Y-81820000D02*
X123810000Y-82020000D01*
X86510000Y-90020000D02*
X86510000Y-85620000D01*
X124610000Y-85620000D02*
X123810000Y-85620000D01*
X123810000Y-90820000D02*
X123810000Y-85820000D01*
X137010000Y-82020000D02*
X137810000Y-82020000D01*
X123810000Y-85620000D02*
X123810000Y-85820000D01*
X86510000Y-81820000D02*
X86510000Y-77620000D01*
X105560000Y-81820000D02*
X105560000Y-77620000D01*
X124610000Y-82020000D02*
X124610000Y-81820000D01*
X104760000Y-82020000D02*
X105560000Y-82020000D01*
X123810000Y-76820000D02*
X123810000Y-81820000D01*
X137810000Y-82020000D02*
X137810000Y-81820000D01*
X137010000Y-77620000D02*
X137010000Y-81820000D01*
X123810000Y-82020000D02*
X124610000Y-82020000D01*
X137810000Y-81820000D02*
X137810000Y-76820000D01*
X124610000Y-81820000D02*
X124610000Y-77620000D01*
X124610000Y-77620000D02*
X137010000Y-77620000D01*
X118760000Y-90820000D02*
X104760000Y-90820000D01*
X105560000Y-77620000D02*
X117960000Y-77620000D01*
X86510000Y-85620000D02*
X85710000Y-85620000D01*
X85710000Y-76820000D02*
X85710000Y-81820000D01*
X118760000Y-85620000D02*
X117960000Y-85620000D01*
X117960000Y-85620000D02*
X117960000Y-90020000D01*
X117960000Y-90020000D02*
X105560000Y-90020000D01*
X85710000Y-82020000D02*
X86510000Y-82020000D01*
X98910000Y-82020000D02*
X99710000Y-82020000D01*
X105560000Y-82020000D02*
X105560000Y-81820000D01*
X117960000Y-82020000D02*
X118760000Y-82020000D01*
X117960000Y-81820000D02*
X117960000Y-82020000D01*
X99710000Y-82020000D02*
X99710000Y-81820000D01*
X86510000Y-77620000D02*
X98910000Y-77620000D01*
X118760000Y-85820000D02*
X118760000Y-85620000D01*
X67460000Y-81820000D02*
X67460000Y-77620000D01*
X98910000Y-85620000D02*
X98910000Y-90020000D01*
X85710000Y-90820000D02*
X85710000Y-85820000D01*
X99710000Y-85620000D02*
X98910000Y-85620000D01*
X99710000Y-90820000D02*
X85710000Y-90820000D01*
X118760000Y-76820000D02*
X104760000Y-76820000D01*
X104760000Y-90820000D02*
X104760000Y-85820000D01*
X67460000Y-90020000D02*
X67460000Y-85620000D01*
X105560000Y-85620000D02*
X104760000Y-85620000D01*
X118760000Y-82020000D02*
X118760000Y-81820000D01*
X85710000Y-85620000D02*
X85710000Y-85820000D01*
X99710000Y-76820000D02*
X85710000Y-76820000D01*
X80660000Y-85820000D02*
X80660000Y-90820000D01*
X117960000Y-77620000D02*
X117960000Y-81820000D01*
X104760000Y-76820000D02*
X104760000Y-81820000D01*
X85710000Y-81820000D02*
X85710000Y-82020000D01*
X118760000Y-81820000D02*
X118760000Y-76820000D01*
X99710000Y-81820000D02*
X99710000Y-76820000D01*
X98910000Y-77620000D02*
X98910000Y-81820000D01*
X98910000Y-81820000D02*
X98910000Y-82020000D01*
X99710000Y-85820000D02*
X99710000Y-85620000D01*
X99710000Y-85820000D02*
X99710000Y-90820000D01*
X98910000Y-90020000D02*
X86510000Y-90020000D01*
X47610000Y-90820000D02*
X47610000Y-85820000D01*
X48410000Y-85620000D02*
X47610000Y-85620000D01*
X117960000Y-62970000D02*
X118760000Y-62970000D01*
X118760000Y-66770000D02*
X118760000Y-66570000D01*
X104760000Y-57770000D02*
X104760000Y-62770000D01*
X117960000Y-66570000D02*
X117960000Y-70970000D01*
X117960000Y-58570000D02*
X117960000Y-62770000D01*
X118760000Y-66570000D02*
X117960000Y-66570000D01*
X105560000Y-66570000D02*
X104760000Y-66570000D01*
X117960000Y-70970000D02*
X105560000Y-70970000D01*
X105560000Y-62770000D02*
X105560000Y-58570000D01*
X104760000Y-71770000D02*
X104760000Y-66770000D01*
X105560000Y-58570000D02*
X117960000Y-58570000D01*
X117960000Y-62770000D02*
X117960000Y-62970000D01*
X104760000Y-62970000D02*
X105560000Y-62970000D01*
X118760000Y-57770000D02*
X104760000Y-57770000D01*
X118760000Y-66770000D02*
X118760000Y-71770000D01*
X105560000Y-70970000D02*
X105560000Y-66570000D01*
X118760000Y-71770000D02*
X104760000Y-71770000D01*
X104760000Y-66570000D02*
X104760000Y-66770000D01*
X118760000Y-62770000D02*
X118760000Y-57770000D01*
X104760000Y-62770000D02*
X104760000Y-62970000D01*
X105560000Y-62970000D02*
X105560000Y-62770000D01*
X118760000Y-62970000D02*
X118760000Y-62770000D01*
X86510000Y-62770000D02*
X86510000Y-58570000D01*
X67460000Y-70970000D02*
X67460000Y-66570000D01*
X85710000Y-62970000D02*
X86510000Y-62970000D01*
X67460000Y-62770000D02*
X67460000Y-58570000D01*
X99710000Y-71770000D02*
X85710000Y-71770000D01*
X86510000Y-58570000D02*
X98910000Y-58570000D01*
X67460000Y-66570000D02*
X66660000Y-66570000D01*
X98910000Y-66570000D02*
X98910000Y-70970000D01*
X98910000Y-70970000D02*
X86510000Y-70970000D01*
X86510000Y-62970000D02*
X86510000Y-62770000D01*
X80660000Y-62970000D02*
X80660000Y-62770000D01*
X98910000Y-62770000D02*
X98910000Y-62970000D01*
X79860000Y-62970000D02*
X80660000Y-62970000D01*
X98910000Y-62970000D02*
X99710000Y-62970000D01*
X66660000Y-57770000D02*
X66660000Y-62770000D01*
X99710000Y-66770000D02*
X99710000Y-66570000D01*
X66660000Y-62970000D02*
X67460000Y-62970000D01*
X99710000Y-66570000D02*
X98910000Y-66570000D01*
X67460000Y-58570000D02*
X79860000Y-58570000D01*
X98910000Y-58570000D02*
X98910000Y-62770000D01*
X85710000Y-57770000D02*
X85710000Y-62770000D01*
X79860000Y-70970000D02*
X67460000Y-70970000D01*
X66660000Y-62770000D02*
X66660000Y-62970000D01*
X99710000Y-62770000D02*
X99710000Y-57770000D01*
X48410000Y-62770000D02*
X48410000Y-58570000D01*
X99710000Y-62970000D02*
X99710000Y-62770000D01*
X99710000Y-57770000D02*
X85710000Y-57770000D01*
X85710000Y-71770000D02*
X85710000Y-66770000D01*
X79860000Y-66570000D02*
X79860000Y-70970000D01*
X80660000Y-62770000D02*
X80660000Y-57770000D01*
X79860000Y-58570000D02*
X79860000Y-62770000D01*
X80660000Y-66570000D02*
X79860000Y-66570000D01*
X80660000Y-57770000D02*
X66660000Y-57770000D01*
X66660000Y-71770000D02*
X66660000Y-66770000D01*
X48410000Y-70970000D02*
X48410000Y-66570000D01*
X86510000Y-66570000D02*
X85710000Y-66570000D01*
X80660000Y-71770000D02*
X66660000Y-71770000D01*
X80660000Y-66770000D02*
X80660000Y-66570000D01*
X80660000Y-66770000D02*
X80660000Y-71770000D01*
X79860000Y-62770000D02*
X79860000Y-62970000D01*
X61610000Y-66770000D02*
X61610000Y-71770000D01*
X66660000Y-66570000D02*
X66660000Y-66770000D01*
X85710000Y-62770000D02*
X85710000Y-62970000D01*
X67460000Y-62970000D02*
X67460000Y-62770000D01*
X99710000Y-66770000D02*
X99710000Y-71770000D01*
X86510000Y-70970000D02*
X86510000Y-66570000D01*
X85710000Y-66570000D02*
X85710000Y-66770000D01*
X60810000Y-62770000D02*
X60810000Y-62970000D01*
X60810000Y-58570000D02*
X60810000Y-62770000D01*
X47610000Y-57770000D02*
X47610000Y-62770000D01*
X61610000Y-57770000D02*
X47610000Y-57770000D01*
X47610000Y-66570000D02*
X47610000Y-66770000D01*
X48410000Y-62970000D02*
X48410000Y-62770000D01*
X60810000Y-62970000D02*
X61610000Y-62970000D01*
X61610000Y-62770000D02*
X61610000Y-57770000D01*
X47610000Y-62970000D02*
X48410000Y-62970000D01*
X61610000Y-71770000D02*
X47610000Y-71770000D01*
X60810000Y-70970000D02*
X48410000Y-70970000D01*
X61610000Y-66570000D02*
X60810000Y-66570000D01*
X48410000Y-66570000D02*
X47610000Y-66570000D01*
X61610000Y-62970000D02*
X61610000Y-62770000D01*
X47610000Y-62770000D02*
X47610000Y-62970000D01*
X47610000Y-71770000D02*
X47610000Y-66770000D01*
X60810000Y-66570000D02*
X60810000Y-70970000D01*
X48410000Y-58570000D02*
X60810000Y-58570000D01*
X61610000Y-66770000D02*
X61610000Y-66570000D01*
X99710000Y-47720000D02*
X99710000Y-52720000D01*
X86510000Y-51920000D02*
X86510000Y-47520000D01*
X86510000Y-43720000D02*
X86510000Y-39520000D01*
X85710000Y-43920000D02*
X86510000Y-43920000D01*
X99710000Y-52720000D02*
X85710000Y-52720000D01*
X85710000Y-47520000D02*
X85710000Y-47720000D01*
X85710000Y-43720000D02*
X85710000Y-43920000D01*
X98910000Y-47520000D02*
X98910000Y-51920000D01*
X86510000Y-43920000D02*
X86510000Y-43720000D01*
X86510000Y-39520000D02*
X98910000Y-39520000D01*
X98910000Y-43720000D02*
X98910000Y-43920000D01*
X98910000Y-43920000D02*
X99710000Y-43920000D01*
X98910000Y-51920000D02*
X86510000Y-51920000D01*
X99710000Y-47720000D02*
X99710000Y-47520000D01*
X98910000Y-39520000D02*
X98910000Y-43720000D01*
X99710000Y-47520000D02*
X98910000Y-47520000D01*
X85710000Y-38720000D02*
X85710000Y-43720000D01*
X99710000Y-43720000D02*
X99710000Y-38720000D01*
X99710000Y-43920000D02*
X99710000Y-43720000D01*
X99710000Y-38720000D02*
X85710000Y-38720000D01*
X85710000Y-52720000D02*
X85710000Y-47720000D01*
X86510000Y-47520000D02*
X85710000Y-47520000D01*
X42560000Y-85820000D02*
X42560000Y-90820000D01*
X29360000Y-90020000D02*
X29360000Y-85620000D01*
X29360000Y-81820000D02*
X29360000Y-77620000D01*
X28560000Y-82020000D02*
X29360000Y-82020000D01*
X42560000Y-90820000D02*
X28560000Y-90820000D01*
X28560000Y-85620000D02*
X28560000Y-85820000D01*
X28560000Y-81820000D02*
X28560000Y-82020000D01*
X41760000Y-85620000D02*
X41760000Y-90020000D01*
X29360000Y-82020000D02*
X29360000Y-81820000D01*
X29360000Y-77620000D02*
X41760000Y-77620000D01*
X41760000Y-81820000D02*
X41760000Y-82020000D01*
X41760000Y-82020000D02*
X42560000Y-82020000D01*
X41760000Y-90020000D02*
X29360000Y-90020000D01*
X42560000Y-85820000D02*
X42560000Y-85620000D01*
X41760000Y-77620000D02*
X41760000Y-81820000D01*
X42560000Y-85620000D02*
X41760000Y-85620000D01*
X28560000Y-76820000D02*
X28560000Y-81820000D01*
X42560000Y-81820000D02*
X42560000Y-76820000D01*
X42560000Y-82020000D02*
X42560000Y-81820000D01*
X42560000Y-76820000D02*
X28560000Y-76820000D01*
X28560000Y-90820000D02*
X28560000Y-85820000D01*
X29360000Y-85620000D02*
X28560000Y-85620000D01*
X42560000Y-66770000D02*
X42560000Y-71770000D01*
X29360000Y-70970000D02*
X29360000Y-66570000D01*
X29360000Y-62770000D02*
X29360000Y-58570000D01*
X28560000Y-62970000D02*
X29360000Y-62970000D01*
X42560000Y-71770000D02*
X28560000Y-71770000D01*
X28560000Y-66570000D02*
X28560000Y-66770000D01*
X28560000Y-62770000D02*
X28560000Y-62970000D01*
X41760000Y-66570000D02*
X41760000Y-70970000D01*
X29360000Y-62970000D02*
X29360000Y-62770000D01*
X29360000Y-58570000D02*
X41760000Y-58570000D01*
X41760000Y-62770000D02*
X41760000Y-62970000D01*
X41760000Y-62970000D02*
X42560000Y-62970000D01*
X41760000Y-70970000D02*
X29360000Y-70970000D01*
X42560000Y-66770000D02*
X42560000Y-66570000D01*
X41760000Y-58570000D02*
X41760000Y-62770000D01*
X42560000Y-66570000D02*
X41760000Y-66570000D01*
X28560000Y-57770000D02*
X28560000Y-62770000D01*
X42560000Y-62770000D02*
X42560000Y-57770000D01*
X42560000Y-62970000D02*
X42560000Y-62770000D01*
X42560000Y-57770000D02*
X28560000Y-57770000D01*
X28560000Y-71770000D02*
X28560000Y-66770000D01*
X29360000Y-66570000D02*
X28560000Y-66570000D01*
X80660000Y-47720000D02*
X80660000Y-52720000D01*
X67460000Y-51920000D02*
X67460000Y-47520000D01*
X67460000Y-43720000D02*
X67460000Y-39520000D01*
X66660000Y-43920000D02*
X67460000Y-43920000D01*
X80660000Y-52720000D02*
X66660000Y-52720000D01*
X66660000Y-47520000D02*
X66660000Y-47720000D01*
X66660000Y-43720000D02*
X66660000Y-43920000D01*
X79860000Y-47520000D02*
X79860000Y-51920000D01*
X67460000Y-43920000D02*
X67460000Y-43720000D01*
X67460000Y-39520000D02*
X79860000Y-39520000D01*
X79860000Y-43720000D02*
X79860000Y-43920000D01*
X79860000Y-43920000D02*
X80660000Y-43920000D01*
X79860000Y-51920000D02*
X67460000Y-51920000D01*
X80660000Y-47720000D02*
X80660000Y-47520000D01*
X79860000Y-39520000D02*
X79860000Y-43720000D01*
X80660000Y-47520000D02*
X79860000Y-47520000D01*
X66660000Y-38720000D02*
X66660000Y-43720000D01*
X80660000Y-43720000D02*
X80660000Y-38720000D01*
X80660000Y-43920000D02*
X80660000Y-43720000D01*
X80660000Y-38720000D02*
X66660000Y-38720000D01*
X66660000Y-52720000D02*
X66660000Y-47720000D01*
X67460000Y-47520000D02*
X66660000Y-47520000D01*
X61610000Y-47720000D02*
X61610000Y-52720000D01*
X48410000Y-51920000D02*
X48410000Y-47520000D01*
X48410000Y-43720000D02*
X48410000Y-39520000D01*
X47610000Y-43920000D02*
X48410000Y-43920000D01*
X61610000Y-52720000D02*
X47610000Y-52720000D01*
X47610000Y-47520000D02*
X47610000Y-47720000D01*
X47610000Y-43720000D02*
X47610000Y-43920000D01*
X60810000Y-47520000D02*
X60810000Y-51920000D01*
X48410000Y-43920000D02*
X48410000Y-43720000D01*
X48410000Y-39520000D02*
X60810000Y-39520000D01*
X60810000Y-43720000D02*
X60810000Y-43920000D01*
X60810000Y-43920000D02*
X61610000Y-43920000D01*
X60810000Y-51920000D02*
X48410000Y-51920000D01*
X61610000Y-47720000D02*
X61610000Y-47520000D01*
X60810000Y-39520000D02*
X60810000Y-43720000D01*
X61610000Y-47520000D02*
X60810000Y-47520000D01*
X47610000Y-38720000D02*
X47610000Y-43720000D01*
X61610000Y-43720000D02*
X61610000Y-38720000D01*
X61610000Y-43920000D02*
X61610000Y-43720000D01*
X61610000Y-38720000D02*
X47610000Y-38720000D01*
X47610000Y-52720000D02*
X47610000Y-47720000D01*
X48410000Y-47520000D02*
X47610000Y-47520000D01*
X42560000Y-47720000D02*
X42560000Y-52720000D01*
X29360000Y-51920000D02*
X29360000Y-47520000D01*
X29360000Y-43720000D02*
X29360000Y-39520000D01*
X28560000Y-43920000D02*
X29360000Y-43920000D01*
X42560000Y-52720000D02*
X28560000Y-52720000D01*
X28560000Y-47520000D02*
X28560000Y-47720000D01*
X28560000Y-43720000D02*
X28560000Y-43920000D01*
X41760000Y-47520000D02*
X41760000Y-51920000D01*
X29360000Y-43920000D02*
X29360000Y-43720000D01*
X29360000Y-39520000D02*
X41760000Y-39520000D01*
X41760000Y-43720000D02*
X41760000Y-43920000D01*
X41760000Y-43920000D02*
X42560000Y-43920000D01*
X41760000Y-51920000D02*
X29360000Y-51920000D01*
X42560000Y-47720000D02*
X42560000Y-47520000D01*
X41760000Y-39520000D02*
X41760000Y-43720000D01*
X42560000Y-47520000D02*
X41760000Y-47520000D01*
X28560000Y-38720000D02*
X28560000Y-43720000D01*
X42560000Y-43720000D02*
X42560000Y-38720000D01*
X42560000Y-43920000D02*
X42560000Y-43720000D01*
X42560000Y-38720000D02*
X28560000Y-38720000D01*
X28560000Y-52720000D02*
X28560000Y-47720000D01*
X29360000Y-47520000D02*
X28560000Y-47520000D01*
X118760000Y-123920000D02*
X118760000Y-128920000D01*
X105560000Y-128120000D02*
X105560000Y-123720000D01*
X105560000Y-119920000D02*
X105560000Y-115720000D01*
X104760000Y-120120000D02*
X105560000Y-120120000D01*
X118760000Y-128920000D02*
X104760000Y-128920000D01*
X104760000Y-123720000D02*
X104760000Y-123920000D01*
X104760000Y-119920000D02*
X104760000Y-120120000D01*
X117960000Y-123720000D02*
X117960000Y-128120000D01*
X105560000Y-120120000D02*
X105560000Y-119920000D01*
X105560000Y-115720000D02*
X117960000Y-115720000D01*
X117960000Y-119920000D02*
X117960000Y-120120000D01*
X117960000Y-120120000D02*
X118760000Y-120120000D01*
X117960000Y-128120000D02*
X105560000Y-128120000D01*
X118760000Y-123920000D02*
X118760000Y-123720000D01*
X117960000Y-115720000D02*
X117960000Y-119920000D01*
X118760000Y-123720000D02*
X117960000Y-123720000D01*
X104760000Y-114920000D02*
X104760000Y-119920000D01*
X118760000Y-119920000D02*
X118760000Y-114920000D01*
X118760000Y-120120000D02*
X118760000Y-119920000D01*
X118760000Y-114920000D02*
X104760000Y-114920000D01*
X104760000Y-128920000D02*
X104760000Y-123920000D01*
X105560000Y-123720000D02*
X104760000Y-123720000D01*
X137810000Y-123920000D02*
X137810000Y-128920000D01*
X124610000Y-128120000D02*
X124610000Y-123720000D01*
X124610000Y-119920000D02*
X124610000Y-115720000D01*
X123810000Y-120120000D02*
X124610000Y-120120000D01*
X137810000Y-128920000D02*
X123810000Y-128920000D01*
X123810000Y-123720000D02*
X123810000Y-123920000D01*
X123810000Y-119920000D02*
X123810000Y-120120000D01*
X137010000Y-123720000D02*
X137010000Y-128120000D01*
X124610000Y-120120000D02*
X124610000Y-119920000D01*
X124610000Y-115720000D02*
X137010000Y-115720000D01*
X137010000Y-119920000D02*
X137010000Y-120120000D01*
X137010000Y-120120000D02*
X137810000Y-120120000D01*
X137010000Y-128120000D02*
X124610000Y-128120000D01*
X137810000Y-123920000D02*
X137810000Y-123720000D01*
X137010000Y-115720000D02*
X137010000Y-119920000D01*
X137810000Y-123720000D02*
X137010000Y-123720000D01*
X123810000Y-114920000D02*
X123810000Y-119920000D01*
X137810000Y-119920000D02*
X137810000Y-114920000D01*
X137810000Y-120120000D02*
X137810000Y-119920000D01*
X137810000Y-114920000D02*
X123810000Y-114920000D01*
X123810000Y-128920000D02*
X123810000Y-123920000D01*
X124610000Y-123720000D02*
X123810000Y-123720000D01*
M02*
