%TF.GenerationSoftware,KiCad,Pcbnew,(5.1.9)-1*%
%TF.CreationDate,2021-03-27T16:35:30+07:00*%
%TF.ProjectId,LetsSplit256,4c657473-5370-46c6-9974-3235362e6b69,rev?*%
%TF.SameCoordinates,Original*%
%TF.FileFunction,Paste,Bot*%
%TF.FilePolarity,Positive*%
%FSLAX46Y46*%
G04 Gerber Fmt 4.6, Leading zero omitted, Abs format (unit mm)*
G04 Created by KiCad (PCBNEW (5.1.9)-1) date 2021-03-27 16:35:30*
%MOMM*%
%LPD*%
G01*
G04 APERTURE LIST*
%ADD10C,1.000000*%
%ADD11O,2.500000X1.800000*%
%ADD12C,2.500000*%
%ADD13C,2.000000*%
%ADD14C,4.300000*%
%ADD15C,1.600000*%
G04 APERTURE END LIST*
D10*
%TO.C,KLZ1*%
X47910000Y-101870000D03*
X47910000Y-103870000D03*
X47910000Y-102870000D03*
D11*
X57150000Y-107746800D03*
D12*
X50800000Y-105410000D03*
D11*
X52070000Y-107746800D03*
D12*
X58420000Y-105410000D03*
D13*
X49530000Y-102870000D03*
X59690000Y-102870000D03*
D14*
X54610000Y-102870000D03*
D10*
X61310000Y-102870000D03*
X61310000Y-101870000D03*
X61310000Y-103870000D03*
D15*
X55880000Y-97790000D03*
X53340000Y-97790000D03*
%TD*%
D10*
%TO.C,KLX1*%
X66960000Y-101870000D03*
X66960000Y-103870000D03*
X66960000Y-102870000D03*
D11*
X76200000Y-107746800D03*
D12*
X69850000Y-105410000D03*
D11*
X71120000Y-107746800D03*
D12*
X77470000Y-105410000D03*
D13*
X68580000Y-102870000D03*
X78740000Y-102870000D03*
D14*
X73660000Y-102870000D03*
D10*
X80360000Y-102870000D03*
X80360000Y-101870000D03*
X80360000Y-103870000D03*
D15*
X74930000Y-97790000D03*
X72390000Y-97790000D03*
%TD*%
D10*
%TO.C,KLW1*%
X66960000Y-63770000D03*
X66960000Y-65770000D03*
X66960000Y-64770000D03*
D11*
X76200000Y-69646800D03*
D12*
X69850000Y-67310000D03*
D11*
X71120000Y-69646800D03*
D12*
X77470000Y-67310000D03*
D13*
X68580000Y-64770000D03*
X78740000Y-64770000D03*
D14*
X73660000Y-64770000D03*
D10*
X80360000Y-64770000D03*
X80360000Y-63770000D03*
X80360000Y-65770000D03*
D15*
X74930000Y-59690000D03*
X72390000Y-59690000D03*
%TD*%
D10*
%TO.C,KLV1*%
X105060000Y-101870000D03*
X105060000Y-103870000D03*
X105060000Y-102870000D03*
D11*
X114300000Y-107746800D03*
D12*
X107950000Y-105410000D03*
D11*
X109220000Y-107746800D03*
D12*
X115570000Y-105410000D03*
D13*
X106680000Y-102870000D03*
X116840000Y-102870000D03*
D14*
X111760000Y-102870000D03*
D10*
X118460000Y-102870000D03*
X118460000Y-101870000D03*
X118460000Y-103870000D03*
D15*
X113030000Y-97790000D03*
X110490000Y-97790000D03*
%TD*%
D10*
%TO.C,KLR1*%
X105060000Y-63770000D03*
X105060000Y-65770000D03*
X105060000Y-64770000D03*
D11*
X114300000Y-69646800D03*
D12*
X107950000Y-67310000D03*
D11*
X109220000Y-69646800D03*
D12*
X115570000Y-67310000D03*
D13*
X106680000Y-64770000D03*
X116840000Y-64770000D03*
D14*
X111760000Y-64770000D03*
D10*
X118460000Y-64770000D03*
X118460000Y-63770000D03*
X118460000Y-65770000D03*
D15*
X113030000Y-59690000D03*
X110490000Y-59690000D03*
%TD*%
D10*
%TO.C,KLQ1*%
X47910000Y-63770000D03*
X47910000Y-65770000D03*
X47910000Y-64770000D03*
D11*
X57150000Y-69646800D03*
D12*
X50800000Y-67310000D03*
D11*
X52070000Y-69646800D03*
D12*
X58420000Y-67310000D03*
D13*
X49530000Y-64770000D03*
X59690000Y-64770000D03*
D14*
X54610000Y-64770000D03*
D10*
X61310000Y-64770000D03*
X61310000Y-63770000D03*
X61310000Y-65770000D03*
D15*
X55880000Y-59690000D03*
X53340000Y-59690000D03*
%TD*%
D10*
%TO.C,KLFunc65*%
X124110000Y-120920000D03*
X124110000Y-122920000D03*
X124110000Y-121920000D03*
D11*
X133350000Y-126796800D03*
D12*
X127000000Y-124460000D03*
D11*
X128270000Y-126796800D03*
D12*
X134620000Y-124460000D03*
D13*
X125730000Y-121920000D03*
X135890000Y-121920000D03*
D14*
X130810000Y-121920000D03*
D10*
X137510000Y-121920000D03*
X137510000Y-120920000D03*
X137510000Y-122920000D03*
D15*
X132080000Y-116840000D03*
X129540000Y-116840000D03*
%TD*%
D10*
%TO.C,KLFunc55*%
X105060000Y-120920000D03*
X105060000Y-122920000D03*
X105060000Y-121920000D03*
D11*
X114300000Y-126796800D03*
D12*
X107950000Y-124460000D03*
D11*
X109220000Y-126796800D03*
D12*
X115570000Y-124460000D03*
D13*
X106680000Y-121920000D03*
X116840000Y-121920000D03*
D14*
X111760000Y-121920000D03*
D10*
X118460000Y-121920000D03*
X118460000Y-120920000D03*
X118460000Y-122920000D03*
D15*
X113030000Y-116840000D03*
X110490000Y-116840000D03*
%TD*%
D10*
%TO.C,KLFunc35*%
X66960000Y-120920000D03*
X66960000Y-122920000D03*
X66960000Y-121920000D03*
D11*
X76200000Y-126796800D03*
D12*
X69850000Y-124460000D03*
D11*
X71120000Y-126796800D03*
D12*
X77470000Y-124460000D03*
D13*
X68580000Y-121920000D03*
X78740000Y-121920000D03*
D14*
X73660000Y-121920000D03*
D10*
X80360000Y-121920000D03*
X80360000Y-120920000D03*
X80360000Y-122920000D03*
D15*
X74930000Y-116840000D03*
X72390000Y-116840000D03*
%TD*%
D10*
%TO.C,KLFunc25*%
X47910000Y-120920000D03*
X47910000Y-122920000D03*
X47910000Y-121920000D03*
D11*
X57150000Y-126796800D03*
D12*
X50800000Y-124460000D03*
D11*
X52070000Y-126796800D03*
D12*
X58420000Y-124460000D03*
D13*
X49530000Y-121920000D03*
X59690000Y-121920000D03*
D14*
X54610000Y-121920000D03*
D10*
X61310000Y-121920000D03*
X61310000Y-120920000D03*
X61310000Y-122920000D03*
D15*
X55880000Y-116840000D03*
X53340000Y-116840000D03*
%TD*%
D10*
%TO.C,KLFunc15*%
X28860000Y-120920000D03*
X28860000Y-122920000D03*
X28860000Y-121920000D03*
D11*
X38100000Y-126796800D03*
D12*
X31750000Y-124460000D03*
D11*
X33020000Y-126796800D03*
D12*
X39370000Y-124460000D03*
D13*
X30480000Y-121920000D03*
X40640000Y-121920000D03*
D14*
X35560000Y-121920000D03*
D10*
X42260000Y-121920000D03*
X42260000Y-120920000D03*
X42260000Y-122920000D03*
D15*
X36830000Y-116840000D03*
X34290000Y-116840000D03*
%TD*%
D10*
%TO.C,KLFunc14*%
X28860000Y-101870000D03*
X28860000Y-103870000D03*
X28860000Y-102870000D03*
D11*
X38100000Y-107746800D03*
D12*
X31750000Y-105410000D03*
D11*
X33020000Y-107746800D03*
D12*
X39370000Y-105410000D03*
D13*
X30480000Y-102870000D03*
X40640000Y-102870000D03*
D14*
X35560000Y-102870000D03*
D10*
X42260000Y-102870000D03*
X42260000Y-101870000D03*
X42260000Y-103870000D03*
D15*
X36830000Y-97790000D03*
X34290000Y-97790000D03*
%TD*%
D10*
%TO.C,KLFunc13*%
X28860000Y-82820000D03*
X28860000Y-84820000D03*
X28860000Y-83820000D03*
D11*
X38100000Y-88696800D03*
D12*
X31750000Y-86360000D03*
D11*
X33020000Y-88696800D03*
D12*
X39370000Y-86360000D03*
D13*
X30480000Y-83820000D03*
X40640000Y-83820000D03*
D14*
X35560000Y-83820000D03*
D10*
X42260000Y-83820000D03*
X42260000Y-82820000D03*
X42260000Y-84820000D03*
D15*
X36830000Y-78740000D03*
X34290000Y-78740000D03*
%TD*%
D10*
%TO.C,KLFunc12*%
X28860000Y-63770000D03*
X28860000Y-65770000D03*
X28860000Y-64770000D03*
D11*
X38100000Y-69646800D03*
D12*
X31750000Y-67310000D03*
D11*
X33020000Y-69646800D03*
D12*
X39370000Y-67310000D03*
D13*
X30480000Y-64770000D03*
X40640000Y-64770000D03*
D14*
X35560000Y-64770000D03*
D10*
X42260000Y-64770000D03*
X42260000Y-63770000D03*
X42260000Y-65770000D03*
D15*
X36830000Y-59690000D03*
X34290000Y-59690000D03*
%TD*%
D10*
%TO.C,KLFunc11*%
X28860000Y-44720000D03*
X28860000Y-46720000D03*
X28860000Y-45720000D03*
D11*
X38100000Y-50596800D03*
D12*
X31750000Y-48260000D03*
D11*
X33020000Y-50596800D03*
D12*
X39370000Y-48260000D03*
D13*
X30480000Y-45720000D03*
X40640000Y-45720000D03*
D14*
X35560000Y-45720000D03*
D10*
X42260000Y-45720000D03*
X42260000Y-44720000D03*
X42260000Y-46720000D03*
D15*
X36830000Y-40640000D03*
X34290000Y-40640000D03*
%TD*%
D10*
%TO.C,KLF1*%
X105060000Y-82820000D03*
X105060000Y-84820000D03*
X105060000Y-83820000D03*
D11*
X114300000Y-88696800D03*
D12*
X107950000Y-86360000D03*
D11*
X109220000Y-88696800D03*
D12*
X115570000Y-86360000D03*
D13*
X106680000Y-83820000D03*
X116840000Y-83820000D03*
D14*
X111760000Y-83820000D03*
D10*
X118460000Y-83820000D03*
X118460000Y-82820000D03*
X118460000Y-84820000D03*
D15*
X113030000Y-78740000D03*
X110490000Y-78740000D03*
%TD*%
D10*
%TO.C,KLE1*%
X86010000Y-63770000D03*
X86010000Y-65770000D03*
X86010000Y-64770000D03*
D11*
X95250000Y-69646800D03*
D12*
X88900000Y-67310000D03*
D11*
X90170000Y-69646800D03*
D12*
X96520000Y-67310000D03*
D13*
X87630000Y-64770000D03*
X97790000Y-64770000D03*
D14*
X92710000Y-64770000D03*
D10*
X99410000Y-64770000D03*
X99410000Y-63770000D03*
X99410000Y-65770000D03*
D15*
X93980000Y-59690000D03*
X91440000Y-59690000D03*
%TD*%
D10*
%TO.C,KLD1*%
X86010000Y-82820000D03*
X86010000Y-84820000D03*
X86010000Y-83820000D03*
D11*
X95250000Y-88696800D03*
D12*
X88900000Y-86360000D03*
D11*
X90170000Y-88696800D03*
D12*
X96520000Y-86360000D03*
D13*
X87630000Y-83820000D03*
X97790000Y-83820000D03*
D14*
X92710000Y-83820000D03*
D10*
X99410000Y-83820000D03*
X99410000Y-82820000D03*
X99410000Y-84820000D03*
D15*
X93980000Y-78740000D03*
X91440000Y-78740000D03*
%TD*%
D10*
%TO.C,KLC1*%
X86010000Y-101870000D03*
X86010000Y-103870000D03*
X86010000Y-102870000D03*
D11*
X95250000Y-107746800D03*
D12*
X88900000Y-105410000D03*
D11*
X90170000Y-107746800D03*
D12*
X96520000Y-105410000D03*
D13*
X87630000Y-102870000D03*
X97790000Y-102870000D03*
D14*
X92710000Y-102870000D03*
D10*
X99410000Y-102870000D03*
X99410000Y-101870000D03*
X99410000Y-103870000D03*
D15*
X93980000Y-97790000D03*
X91440000Y-97790000D03*
%TD*%
D10*
%TO.C,KLB1*%
X124110000Y-101870000D03*
X124110000Y-103870000D03*
X124110000Y-102870000D03*
D11*
X133350000Y-107746800D03*
D12*
X127000000Y-105410000D03*
D11*
X128270000Y-107746800D03*
D12*
X134620000Y-105410000D03*
D13*
X125730000Y-102870000D03*
X135890000Y-102870000D03*
D14*
X130810000Y-102870000D03*
D10*
X137510000Y-102870000D03*
X137510000Y-101870000D03*
X137510000Y-103870000D03*
D15*
X132080000Y-97790000D03*
X129540000Y-97790000D03*
%TD*%
D10*
%TO.C,KLA1*%
X47910000Y-82820000D03*
X47910000Y-84820000D03*
X47910000Y-83820000D03*
D11*
X57150000Y-88696800D03*
D12*
X50800000Y-86360000D03*
D11*
X52070000Y-88696800D03*
D12*
X58420000Y-86360000D03*
D13*
X49530000Y-83820000D03*
X59690000Y-83820000D03*
D14*
X54610000Y-83820000D03*
D10*
X61310000Y-83820000D03*
X61310000Y-82820000D03*
X61310000Y-84820000D03*
D15*
X55880000Y-78740000D03*
X53340000Y-78740000D03*
%TD*%
D10*
%TO.C,KL4*%
X105060000Y-44720000D03*
X105060000Y-46720000D03*
X105060000Y-45720000D03*
D11*
X114300000Y-50596800D03*
D12*
X107950000Y-48260000D03*
D11*
X109220000Y-50596800D03*
D12*
X115570000Y-48260000D03*
D13*
X106680000Y-45720000D03*
X116840000Y-45720000D03*
D14*
X111760000Y-45720000D03*
D10*
X118460000Y-45720000D03*
X118460000Y-44720000D03*
X118460000Y-46720000D03*
D15*
X113030000Y-40640000D03*
X110490000Y-40640000D03*
%TD*%
D10*
%TO.C,KL3*%
X86010000Y-44720000D03*
X86010000Y-46720000D03*
X86010000Y-45720000D03*
D11*
X95250000Y-50596800D03*
D12*
X88900000Y-48260000D03*
D11*
X90170000Y-50596800D03*
D12*
X96520000Y-48260000D03*
D13*
X87630000Y-45720000D03*
X97790000Y-45720000D03*
D14*
X92710000Y-45720000D03*
D10*
X99410000Y-45720000D03*
X99410000Y-44720000D03*
X99410000Y-46720000D03*
D15*
X93980000Y-40640000D03*
X91440000Y-40640000D03*
%TD*%
D10*
%TO.C,KL2*%
X66960000Y-44720000D03*
X66960000Y-46720000D03*
X66960000Y-45720000D03*
D11*
X76200000Y-50596800D03*
D12*
X69850000Y-48260000D03*
D11*
X71120000Y-50596800D03*
D12*
X77470000Y-48260000D03*
D13*
X68580000Y-45720000D03*
X78740000Y-45720000D03*
D14*
X73660000Y-45720000D03*
D10*
X80360000Y-45720000D03*
X80360000Y-44720000D03*
X80360000Y-46720000D03*
D15*
X74930000Y-40640000D03*
X72390000Y-40640000D03*
%TD*%
D10*
%TO.C,KL1*%
X47910000Y-44720000D03*
X47910000Y-46720000D03*
X47910000Y-45720000D03*
D11*
X57150000Y-50596800D03*
D12*
X50800000Y-48260000D03*
D11*
X52070000Y-50596800D03*
D12*
X58420000Y-48260000D03*
D13*
X49530000Y-45720000D03*
X59690000Y-45720000D03*
D14*
X54610000Y-45720000D03*
D10*
X61310000Y-45720000D03*
X61310000Y-44720000D03*
X61310000Y-46720000D03*
D15*
X55880000Y-40640000D03*
X53340000Y-40640000D03*
%TD*%
D10*
%TO.C,KLS1*%
X66960000Y-82820000D03*
X66960000Y-84820000D03*
X66960000Y-83820000D03*
D11*
X76200000Y-88696800D03*
D12*
X69850000Y-86360000D03*
D11*
X71120000Y-88696800D03*
D12*
X77470000Y-86360000D03*
D13*
X68580000Y-83820000D03*
X78740000Y-83820000D03*
D14*
X73660000Y-83820000D03*
D10*
X80360000Y-83820000D03*
X80360000Y-82820000D03*
X80360000Y-84820000D03*
D15*
X74930000Y-78740000D03*
X72390000Y-78740000D03*
%TD*%
D10*
%TO.C,KLFunc45*%
X86010000Y-120920000D03*
X86010000Y-122920000D03*
X86010000Y-121920000D03*
D11*
X95250000Y-126796800D03*
D12*
X88900000Y-124460000D03*
D11*
X90170000Y-126796800D03*
D12*
X96520000Y-124460000D03*
D13*
X87630000Y-121920000D03*
X97790000Y-121920000D03*
D14*
X92710000Y-121920000D03*
D10*
X99410000Y-121920000D03*
X99410000Y-120920000D03*
X99410000Y-122920000D03*
D15*
X93980000Y-116840000D03*
X91440000Y-116840000D03*
%TD*%
D10*
%TO.C,KLT1*%
X124110000Y-63770000D03*
X124110000Y-65770000D03*
X124110000Y-64770000D03*
D11*
X133350000Y-69646800D03*
D12*
X127000000Y-67310000D03*
D11*
X128270000Y-69646800D03*
D12*
X134620000Y-67310000D03*
D13*
X125730000Y-64770000D03*
X135890000Y-64770000D03*
D14*
X130810000Y-64770000D03*
D10*
X137510000Y-64770000D03*
X137510000Y-63770000D03*
X137510000Y-65770000D03*
D15*
X132080000Y-59690000D03*
X129540000Y-59690000D03*
%TD*%
D10*
%TO.C,KL5*%
X124110000Y-44720000D03*
X124110000Y-46720000D03*
X124110000Y-45720000D03*
D11*
X133350000Y-50596800D03*
D12*
X127000000Y-48260000D03*
D11*
X128270000Y-50596800D03*
D12*
X134620000Y-48260000D03*
D13*
X125730000Y-45720000D03*
X135890000Y-45720000D03*
D14*
X130810000Y-45720000D03*
D10*
X137510000Y-45720000D03*
X137510000Y-44720000D03*
X137510000Y-46720000D03*
D15*
X132080000Y-40640000D03*
X129540000Y-40640000D03*
%TD*%
D10*
%TO.C,KLG1*%
X124110000Y-82820000D03*
X124110000Y-84820000D03*
X124110000Y-83820000D03*
D11*
X133350000Y-88696800D03*
D12*
X127000000Y-86360000D03*
D11*
X128270000Y-88696800D03*
D12*
X134620000Y-86360000D03*
D13*
X125730000Y-83820000D03*
X135890000Y-83820000D03*
D14*
X130810000Y-83820000D03*
D10*
X137510000Y-83820000D03*
X137510000Y-82820000D03*
X137510000Y-84820000D03*
D15*
X132080000Y-78740000D03*
X129540000Y-78740000D03*
%TD*%
M02*
