M48
INCH,TZ
T1C0.0157
T2C0.0197
T3C0.0315
T4C0.0394
T5C0.0433
T6C0.0551
T7C0.0670
T8C0.1570
%
G90
G05
T1
X55000Y-35500
X55500Y-43000
T2
X11362Y-17606
X11362Y-18000
X11362Y-18394
X11362Y-25106
X11362Y-25500
X11362Y-25894
X11362Y-32606
X11362Y-33000
X11362Y-33394
X11362Y-40106
X11362Y-40500
X11362Y-40894
X11362Y-47606
X11362Y-48000
X11362Y-48394
X16638Y-17606
X16638Y-18000
X16638Y-18394
X16638Y-25106
X16638Y-25500
X16638Y-25894
X16638Y-32606
X16638Y-33000
X16638Y-33394
X16638Y-40106
X16638Y-40500
X16638Y-40894
X16638Y-47606
X16638Y-48000
X16638Y-48394
X18862Y-17606
X18862Y-18000
X18862Y-18394
X18862Y-25106
X18862Y-25500
X18862Y-25894
X18862Y-32606
X18862Y-33000
X18862Y-33394
X18862Y-40106
X18862Y-40500
X18862Y-40894
X18862Y-47606
X18862Y-48000
X18862Y-48394
X24138Y-17606
X24138Y-18000
X24138Y-18394
X24138Y-25106
X24138Y-25500
X24138Y-25894
X24138Y-32606
X24138Y-33000
X24138Y-33394
X24138Y-40106
X24138Y-40500
X24138Y-40894
X24138Y-47606
X24138Y-48000
X24138Y-48394
X26362Y-17606
X26362Y-18000
X26362Y-18394
X26362Y-25106
X26362Y-25500
X26362Y-25894
X26362Y-32606
X26362Y-33000
X26362Y-33394
X26362Y-40106
X26362Y-40500
X26362Y-40894
X26362Y-47606
X26362Y-48000
X26362Y-48394
X31638Y-17606
X31638Y-18000
X31638Y-18394
X31638Y-25106
X31638Y-25500
X31638Y-25894
X31638Y-32606
X31638Y-33000
X31638Y-33394
X31638Y-40106
X31638Y-40500
X31638Y-40894
X31638Y-47606
X31638Y-48000
X31638Y-48394
X33862Y-17606
X33862Y-18000
X33862Y-18394
X33862Y-25106
X33862Y-25500
X33862Y-25894
X33862Y-32606
X33862Y-33000
X33862Y-33394
X33862Y-40106
X33862Y-40500
X33862Y-40894
X33862Y-47606
X33862Y-48000
X33862Y-48394
X39138Y-17606
X39138Y-18000
X39138Y-18394
X39138Y-25106
X39138Y-25500
X39138Y-25894
X39138Y-32606
X39138Y-33000
X39138Y-33394
X39138Y-40106
X39138Y-40500
X39138Y-40894
X39138Y-47606
X39138Y-48000
X39138Y-48394
X41362Y-17606
X41362Y-18000
X41362Y-18394
X41362Y-25106
X41362Y-25500
X41362Y-25894
X41362Y-32606
X41362Y-33000
X41362Y-33394
X41362Y-40106
X41362Y-40500
X41362Y-40894
X41362Y-47606
X41362Y-48000
X41362Y-48394
X46638Y-17606
X46638Y-18000
X46638Y-18394
X46638Y-25106
X46638Y-25500
X46638Y-25894
X46638Y-32606
X46638Y-33000
X46638Y-33394
X46638Y-40106
X46638Y-40500
X46638Y-40894
X46638Y-47606
X46638Y-48000
X46638Y-48394
X48862Y-17606
X48862Y-18000
X48862Y-18394
X48862Y-25106
X48862Y-25500
X48862Y-25894
X48862Y-32606
X48862Y-33000
X48862Y-33394
X48862Y-40106
X48862Y-40500
X48862Y-40894
X48862Y-47606
X48862Y-48000
X48862Y-48394
X54138Y-17606
X54138Y-18000
X54138Y-18394
X54138Y-25106
X54138Y-25500
X54138Y-25894
X54138Y-32606
X54138Y-33000
X54138Y-33394
X54138Y-40106
X54138Y-40500
X54138Y-40894
X54138Y-47606
X54138Y-48000
X54138Y-48394
T3
X10500Y-18000
X10500Y-21000
X10500Y-25500
X10500Y-28500
X10500Y-33000
X10500Y-36000
X10500Y-40500
X10500Y-43500
X10500Y-48000
X10500Y-51000
X18000Y-18000
X18000Y-21000
X18000Y-25500
X18000Y-28500
X18000Y-33000
X18000Y-36000
X18000Y-40500
X18000Y-43500
X18000Y-48000
X18000Y-51000
X25500Y-18000
X25500Y-21000
X25500Y-25500
X25500Y-28500
X25500Y-33000
X25500Y-36000
X25500Y-40500
X25500Y-43500
X25500Y-48000
X25500Y-51000
X32919Y-48000
X32919Y-51000
X33000Y-18000
X33000Y-21000
X33000Y-25500
X33000Y-28500
X33000Y-33000
X33000Y-36000
X33000Y-40500
X33000Y-43500
X40500Y-18000
X40500Y-21000
X40500Y-25500
X40500Y-28500
X40500Y-33000
X40500Y-36000
X40500Y-40500
X40500Y-43500
X40500Y-48000
X40500Y-51000
X48000Y-18000
X48000Y-21000
X48000Y-25500
X48000Y-28500
X48000Y-33000
X48000Y-36000
X48000Y-40500
X48000Y-43500
X48000Y-48000
X48000Y-51000
T4
X59000Y-32000
X59000Y-34500
X60000Y-32000
X60000Y-34500
X61000Y-32000
X61000Y-34500
X62000Y-32000
X62000Y-34500
T5
X13500Y-16000
X13500Y-23500
X13500Y-31000
X13500Y-38500
X13500Y-46000
X14500Y-16000
X14500Y-23500
X14500Y-31000
X14500Y-38500
X14500Y-46000
X21000Y-16000
X21000Y-23500
X21000Y-31000
X21000Y-38500
X21000Y-46000
X22000Y-16000
X22000Y-23500
X22000Y-31000
X22000Y-38500
X22000Y-46000
X28500Y-16000
X28500Y-23500
X28500Y-31000
X28500Y-38500
X28500Y-46000
X29500Y-16000
X29500Y-23500
X29500Y-31000
X29500Y-38500
X29500Y-46000
X36000Y-16000
X36000Y-23500
X36000Y-31000
X36000Y-38500
X36000Y-46000
X37000Y-16000
X37000Y-23500
X37000Y-31000
X37000Y-38500
X37000Y-46000
X43500Y-16000
X43500Y-23500
X43500Y-31000
X43500Y-38500
X43500Y-46000
X44500Y-16000
X44500Y-23500
X44500Y-31000
X44500Y-38500
X44500Y-46000
X51000Y-16000
X51000Y-23500
X51000Y-31000
X51000Y-38500
X51000Y-46000
X52000Y-16000
X52000Y-23500
X52000Y-31000
X52000Y-38500
X52000Y-46000
X56500Y-15000
X56500Y-16000
X56500Y-17000
X56500Y-18000
X56500Y-19000
X56500Y-20000
X56500Y-21000
X56500Y-22000
X56500Y-23000
X56500Y-24000
X56500Y-25000
X56500Y-26000
X62500Y-15000
X62500Y-16000
X62500Y-17000
X62500Y-18000
X62500Y-19000
X62500Y-20000
X62500Y-21000
X62500Y-22000
X62500Y-23000
X62500Y-24000
X62500Y-25000
X62500Y-26000
T6
X12500Y-19000
X12500Y-26500
X12500Y-34000
X12500Y-41500
X12500Y-49000
X13000Y-19920
X13000Y-27420
X13000Y-34920
X13000Y-42420
X13000Y-49920
X15000Y-19920
X15000Y-27420
X15000Y-34920
X15000Y-42420
X15000Y-49920
X15500Y-19000
X15500Y-26500
X15500Y-34000
X15500Y-41500
X15500Y-49000
X20000Y-19000
X20000Y-26500
X20000Y-34000
X20000Y-41500
X20000Y-49000
X20500Y-19920
X20500Y-27420
X20500Y-34920
X20500Y-42420
X20500Y-49920
X22500Y-19920
X22500Y-27420
X22500Y-34920
X22500Y-42420
X22500Y-49920
X23000Y-19000
X23000Y-26500
X23000Y-34000
X23000Y-41500
X23000Y-49000
X27500Y-19000
X27500Y-26500
X27500Y-34000
X27500Y-41500
X27500Y-49000
X28000Y-19920
X28000Y-27420
X28000Y-34920
X28000Y-42420
X28000Y-49920
X30000Y-19920
X30000Y-27420
X30000Y-34920
X30000Y-42420
X30000Y-49920
X30500Y-19000
X30500Y-26500
X30500Y-34000
X30500Y-41500
X30500Y-49000
X35000Y-19000
X35000Y-26500
X35000Y-34000
X35000Y-41500
X35000Y-49000
X35500Y-19920
X35500Y-27420
X35500Y-34920
X35500Y-42420
X35500Y-49920
X37500Y-19920
X37500Y-27420
X37500Y-34920
X37500Y-42420
X37500Y-49920
X38000Y-19000
X38000Y-26500
X38000Y-34000
X38000Y-41500
X38000Y-49000
X42500Y-19000
X42500Y-26500
X42500Y-34000
X42500Y-41500
X42500Y-49000
X43000Y-19920
X43000Y-27420
X43000Y-34920
X43000Y-42420
X43000Y-49920
X45000Y-19920
X45000Y-27420
X45000Y-34920
X45000Y-42420
X45000Y-49920
X45500Y-19000
X45500Y-26500
X45500Y-34000
X45500Y-41500
X45500Y-49000
X50000Y-19000
X50000Y-26500
X50000Y-34000
X50000Y-41500
X50000Y-49000
X50500Y-19920
X50500Y-27420
X50500Y-34920
X50500Y-42420
X50500Y-49920
X52500Y-19920
X52500Y-27420
X52500Y-34920
X52500Y-42420
X52500Y-49920
X53000Y-19000
X53000Y-26500
X53000Y-34000
X53000Y-41500
X53000Y-49000
T7
X12000Y-18000
X12000Y-25500
X12000Y-33000
X12000Y-40500
X12000Y-48000
X16000Y-18000
X16000Y-25500
X16000Y-33000
X16000Y-40500
X16000Y-48000
X19500Y-18000
X19500Y-25500
X19500Y-33000
X19500Y-40500
X19500Y-48000
X23500Y-18000
X23500Y-25500
X23500Y-33000
X23500Y-40500
X23500Y-48000
X27000Y-18000
X27000Y-25500
X27000Y-33000
X27000Y-40500
X27000Y-48000
X31000Y-18000
X31000Y-25500
X31000Y-33000
X31000Y-40500
X31000Y-48000
X34500Y-18000
X34500Y-25500
X34500Y-33000
X34500Y-40500
X34500Y-48000
X38500Y-18000
X38500Y-25500
X38500Y-33000
X38500Y-40500
X38500Y-48000
X42000Y-18000
X42000Y-25500
X42000Y-33000
X42000Y-40500
X42000Y-48000
X46000Y-18000
X46000Y-25500
X46000Y-33000
X46000Y-40500
X46000Y-48000
X49500Y-18000
X49500Y-25500
X49500Y-33000
X49500Y-40500
X49500Y-48000
X53500Y-18000
X53500Y-25500
X53500Y-33000
X53500Y-40500
X53500Y-48000
T8
X14000Y-18000
X14000Y-25500
X14000Y-33000
X14000Y-40500
X14000Y-48000
X21500Y-18000
X21500Y-25500
X21500Y-33000
X21500Y-40500
X21500Y-48000
X29000Y-18000
X29000Y-25500
X29000Y-33000
X29000Y-40500
X29000Y-48000
X36500Y-18000
X36500Y-25500
X36500Y-33000
X36500Y-40500
X36500Y-48000
X44000Y-18000
X44000Y-25500
X44000Y-33000
X44000Y-40500
X44000Y-48000
X51500Y-18000
X51500Y-25500
X51500Y-33000
X51500Y-40500
X51500Y-48000
T0
M30
