%TF.GenerationSoftware,KiCad,Pcbnew,(5.1.9)-1*%
%TF.CreationDate,2021-03-27T16:35:30+07:00*%
%TF.ProjectId,LetsSplit256,4c657473-5370-46c6-9974-3235362e6b69,rev?*%
%TF.SameCoordinates,Original*%
%TF.FileFunction,Other,Fab,Top*%
%FSLAX46Y46*%
G04 Gerber Fmt 4.6, Leading zero omitted, Abs format (unit mm)*
G04 Created by KiCad (PCBNEW (5.1.9)-1) date 2021-03-27 16:35:30*
%MOMM*%
%LPD*%
G01*
G04 APERTURE LIST*
%ADD10C,0.100000*%
%ADD11C,0.150000*%
%ADD12C,0.050000*%
%ADD13C,0.120000*%
G04 APERTURE END LIST*
D10*
%TO.C,JL1*%
X148590000Y-81915000D02*
X148590000Y-80010000D01*
X148590000Y-80010000D02*
X158750000Y-80010000D01*
X158750000Y-80010000D02*
X158750000Y-82550000D01*
X158750000Y-82550000D02*
X149225000Y-82550000D01*
X149225000Y-82550000D02*
X148590000Y-81915000D01*
%TO.C,JL2*%
X158750000Y-86995000D02*
X158750000Y-88900000D01*
X158750000Y-88900000D02*
X148590000Y-88900000D01*
X148590000Y-88900000D02*
X148590000Y-86360000D01*
X148590000Y-86360000D02*
X158115000Y-86360000D01*
X158115000Y-86360000D02*
X158750000Y-86995000D01*
%TO.C,DL65*%
X120920000Y-127230000D02*
X122920000Y-127230000D01*
X120920000Y-127030000D02*
X122920000Y-127030000D01*
X120920000Y-127130000D02*
X122920000Y-127130000D01*
X121920000Y-121920000D02*
X121920000Y-123730000D01*
X121920000Y-129540000D02*
X121920000Y-127730000D01*
X120920000Y-123730000D02*
X120920000Y-127730000D01*
X122920000Y-123730000D02*
X120920000Y-123730000D01*
X122920000Y-127730000D02*
X122920000Y-123730000D01*
X120920000Y-127730000D02*
X122920000Y-127730000D01*
%TO.C,DL64*%
X120920000Y-108680000D02*
X122920000Y-108680000D01*
X122920000Y-108680000D02*
X122920000Y-104680000D01*
X122920000Y-104680000D02*
X120920000Y-104680000D01*
X120920000Y-104680000D02*
X120920000Y-108680000D01*
X121920000Y-110490000D02*
X121920000Y-108680000D01*
X121920000Y-102870000D02*
X121920000Y-104680000D01*
X120920000Y-108080000D02*
X122920000Y-108080000D01*
X120920000Y-107980000D02*
X122920000Y-107980000D01*
X120920000Y-108180000D02*
X122920000Y-108180000D01*
%TO.C,DL63*%
X120920000Y-89130000D02*
X122920000Y-89130000D01*
X120920000Y-88930000D02*
X122920000Y-88930000D01*
X120920000Y-89030000D02*
X122920000Y-89030000D01*
X121920000Y-83820000D02*
X121920000Y-85630000D01*
X121920000Y-91440000D02*
X121920000Y-89630000D01*
X120920000Y-85630000D02*
X120920000Y-89630000D01*
X122920000Y-85630000D02*
X120920000Y-85630000D01*
X122920000Y-89630000D02*
X122920000Y-85630000D01*
X120920000Y-89630000D02*
X122920000Y-89630000D01*
%TO.C,DL62*%
X120920000Y-70080000D02*
X122920000Y-70080000D01*
X120920000Y-69880000D02*
X122920000Y-69880000D01*
X120920000Y-69980000D02*
X122920000Y-69980000D01*
X121920000Y-64770000D02*
X121920000Y-66580000D01*
X121920000Y-72390000D02*
X121920000Y-70580000D01*
X120920000Y-66580000D02*
X120920000Y-70580000D01*
X122920000Y-66580000D02*
X120920000Y-66580000D01*
X122920000Y-70580000D02*
X122920000Y-66580000D01*
X120920000Y-70580000D02*
X122920000Y-70580000D01*
%TO.C,DL61*%
X120920000Y-51030000D02*
X122920000Y-51030000D01*
X120920000Y-50830000D02*
X122920000Y-50830000D01*
X120920000Y-50930000D02*
X122920000Y-50930000D01*
X121920000Y-45720000D02*
X121920000Y-47530000D01*
X121920000Y-53340000D02*
X121920000Y-51530000D01*
X120920000Y-47530000D02*
X120920000Y-51530000D01*
X122920000Y-47530000D02*
X120920000Y-47530000D01*
X122920000Y-51530000D02*
X122920000Y-47530000D01*
X120920000Y-51530000D02*
X122920000Y-51530000D01*
%TO.C,DL55*%
X101870000Y-127730000D02*
X103870000Y-127730000D01*
X103870000Y-127730000D02*
X103870000Y-123730000D01*
X103870000Y-123730000D02*
X101870000Y-123730000D01*
X101870000Y-123730000D02*
X101870000Y-127730000D01*
X102870000Y-129540000D02*
X102870000Y-127730000D01*
X102870000Y-121920000D02*
X102870000Y-123730000D01*
X101870000Y-127130000D02*
X103870000Y-127130000D01*
X101870000Y-127030000D02*
X103870000Y-127030000D01*
X101870000Y-127230000D02*
X103870000Y-127230000D01*
%TO.C,DL54*%
X101870000Y-108180000D02*
X103870000Y-108180000D01*
X101870000Y-107980000D02*
X103870000Y-107980000D01*
X101870000Y-108080000D02*
X103870000Y-108080000D01*
X102870000Y-102870000D02*
X102870000Y-104680000D01*
X102870000Y-110490000D02*
X102870000Y-108680000D01*
X101870000Y-104680000D02*
X101870000Y-108680000D01*
X103870000Y-104680000D02*
X101870000Y-104680000D01*
X103870000Y-108680000D02*
X103870000Y-104680000D01*
X101870000Y-108680000D02*
X103870000Y-108680000D01*
%TO.C,DL53*%
X101870000Y-89630000D02*
X103870000Y-89630000D01*
X103870000Y-89630000D02*
X103870000Y-85630000D01*
X103870000Y-85630000D02*
X101870000Y-85630000D01*
X101870000Y-85630000D02*
X101870000Y-89630000D01*
X102870000Y-91440000D02*
X102870000Y-89630000D01*
X102870000Y-83820000D02*
X102870000Y-85630000D01*
X101870000Y-89030000D02*
X103870000Y-89030000D01*
X101870000Y-88930000D02*
X103870000Y-88930000D01*
X101870000Y-89130000D02*
X103870000Y-89130000D01*
%TO.C,DL52*%
X101870000Y-70580000D02*
X103870000Y-70580000D01*
X103870000Y-70580000D02*
X103870000Y-66580000D01*
X103870000Y-66580000D02*
X101870000Y-66580000D01*
X101870000Y-66580000D02*
X101870000Y-70580000D01*
X102870000Y-72390000D02*
X102870000Y-70580000D01*
X102870000Y-64770000D02*
X102870000Y-66580000D01*
X101870000Y-69980000D02*
X103870000Y-69980000D01*
X101870000Y-69880000D02*
X103870000Y-69880000D01*
X101870000Y-70080000D02*
X103870000Y-70080000D01*
%TO.C,DL51*%
X101870000Y-51530000D02*
X103870000Y-51530000D01*
X103870000Y-51530000D02*
X103870000Y-47530000D01*
X103870000Y-47530000D02*
X101870000Y-47530000D01*
X101870000Y-47530000D02*
X101870000Y-51530000D01*
X102870000Y-53340000D02*
X102870000Y-51530000D01*
X102870000Y-45720000D02*
X102870000Y-47530000D01*
X101870000Y-50930000D02*
X103870000Y-50930000D01*
X101870000Y-50830000D02*
X103870000Y-50830000D01*
X101870000Y-51030000D02*
X103870000Y-51030000D01*
%TO.C,DL45*%
X82615001Y-127230000D02*
X84615001Y-127230000D01*
X82615001Y-127030000D02*
X84615001Y-127030000D01*
X82615001Y-127130000D02*
X84615001Y-127130000D01*
X83615001Y-121920000D02*
X83615001Y-123730000D01*
X83615001Y-129540000D02*
X83615001Y-127730000D01*
X82615001Y-123730000D02*
X82615001Y-127730000D01*
X84615001Y-123730000D02*
X82615001Y-123730000D01*
X84615001Y-127730000D02*
X84615001Y-123730000D01*
X82615001Y-127730000D02*
X84615001Y-127730000D01*
%TO.C,DL44*%
X82820000Y-108680000D02*
X84820000Y-108680000D01*
X84820000Y-108680000D02*
X84820000Y-104680000D01*
X84820000Y-104680000D02*
X82820000Y-104680000D01*
X82820000Y-104680000D02*
X82820000Y-108680000D01*
X83820000Y-110490000D02*
X83820000Y-108680000D01*
X83820000Y-102870000D02*
X83820000Y-104680000D01*
X82820000Y-108080000D02*
X84820000Y-108080000D01*
X82820000Y-107980000D02*
X84820000Y-107980000D01*
X82820000Y-108180000D02*
X84820000Y-108180000D01*
%TO.C,DL43*%
X82820000Y-89130000D02*
X84820000Y-89130000D01*
X82820000Y-88930000D02*
X84820000Y-88930000D01*
X82820000Y-89030000D02*
X84820000Y-89030000D01*
X83820000Y-83820000D02*
X83820000Y-85630000D01*
X83820000Y-91440000D02*
X83820000Y-89630000D01*
X82820000Y-85630000D02*
X82820000Y-89630000D01*
X84820000Y-85630000D02*
X82820000Y-85630000D01*
X84820000Y-89630000D02*
X84820000Y-85630000D01*
X82820000Y-89630000D02*
X84820000Y-89630000D01*
%TO.C,DL42*%
X82820000Y-70080000D02*
X84820000Y-70080000D01*
X82820000Y-69880000D02*
X84820000Y-69880000D01*
X82820000Y-69980000D02*
X84820000Y-69980000D01*
X83820000Y-64770000D02*
X83820000Y-66580000D01*
X83820000Y-72390000D02*
X83820000Y-70580000D01*
X82820000Y-66580000D02*
X82820000Y-70580000D01*
X84820000Y-66580000D02*
X82820000Y-66580000D01*
X84820000Y-70580000D02*
X84820000Y-66580000D01*
X82820000Y-70580000D02*
X84820000Y-70580000D01*
%TO.C,DL41*%
X82820000Y-51030000D02*
X84820000Y-51030000D01*
X82820000Y-50830000D02*
X84820000Y-50830000D01*
X82820000Y-50930000D02*
X84820000Y-50930000D01*
X83820000Y-45720000D02*
X83820000Y-47530000D01*
X83820000Y-53340000D02*
X83820000Y-51530000D01*
X82820000Y-47530000D02*
X82820000Y-51530000D01*
X84820000Y-47530000D02*
X82820000Y-47530000D01*
X84820000Y-51530000D02*
X84820000Y-47530000D01*
X82820000Y-51530000D02*
X84820000Y-51530000D01*
%TO.C,DL35*%
X63770000Y-127730000D02*
X65770000Y-127730000D01*
X65770000Y-127730000D02*
X65770000Y-123730000D01*
X65770000Y-123730000D02*
X63770000Y-123730000D01*
X63770000Y-123730000D02*
X63770000Y-127730000D01*
X64770000Y-129540000D02*
X64770000Y-127730000D01*
X64770000Y-121920000D02*
X64770000Y-123730000D01*
X63770000Y-127130000D02*
X65770000Y-127130000D01*
X63770000Y-127030000D02*
X65770000Y-127030000D01*
X63770000Y-127230000D02*
X65770000Y-127230000D01*
%TO.C,DL34*%
X63770000Y-108180000D02*
X65770000Y-108180000D01*
X63770000Y-107980000D02*
X65770000Y-107980000D01*
X63770000Y-108080000D02*
X65770000Y-108080000D01*
X64770000Y-102870000D02*
X64770000Y-104680000D01*
X64770000Y-110490000D02*
X64770000Y-108680000D01*
X63770000Y-104680000D02*
X63770000Y-108680000D01*
X65770000Y-104680000D02*
X63770000Y-104680000D01*
X65770000Y-108680000D02*
X65770000Y-104680000D01*
X63770000Y-108680000D02*
X65770000Y-108680000D01*
%TO.C,DL33*%
X63770000Y-89630000D02*
X65770000Y-89630000D01*
X65770000Y-89630000D02*
X65770000Y-85630000D01*
X65770000Y-85630000D02*
X63770000Y-85630000D01*
X63770000Y-85630000D02*
X63770000Y-89630000D01*
X64770000Y-91440000D02*
X64770000Y-89630000D01*
X64770000Y-83820000D02*
X64770000Y-85630000D01*
X63770000Y-89030000D02*
X65770000Y-89030000D01*
X63770000Y-88930000D02*
X65770000Y-88930000D01*
X63770000Y-89130000D02*
X65770000Y-89130000D01*
%TO.C,DL32*%
X63770000Y-70580000D02*
X65770000Y-70580000D01*
X65770000Y-70580000D02*
X65770000Y-66580000D01*
X65770000Y-66580000D02*
X63770000Y-66580000D01*
X63770000Y-66580000D02*
X63770000Y-70580000D01*
X64770000Y-72390000D02*
X64770000Y-70580000D01*
X64770000Y-64770000D02*
X64770000Y-66580000D01*
X63770000Y-69980000D02*
X65770000Y-69980000D01*
X63770000Y-69880000D02*
X65770000Y-69880000D01*
X63770000Y-70080000D02*
X65770000Y-70080000D01*
%TO.C,DL31*%
X63770000Y-51530000D02*
X65770000Y-51530000D01*
X65770000Y-51530000D02*
X65770000Y-47530000D01*
X65770000Y-47530000D02*
X63770000Y-47530000D01*
X63770000Y-47530000D02*
X63770000Y-51530000D01*
X64770000Y-53340000D02*
X64770000Y-51530000D01*
X64770000Y-45720000D02*
X64770000Y-47530000D01*
X63770000Y-50930000D02*
X65770000Y-50930000D01*
X63770000Y-50830000D02*
X65770000Y-50830000D01*
X63770000Y-51030000D02*
X65770000Y-51030000D01*
%TO.C,DL25*%
X44720000Y-127230000D02*
X46720000Y-127230000D01*
X44720000Y-127030000D02*
X46720000Y-127030000D01*
X44720000Y-127130000D02*
X46720000Y-127130000D01*
X45720000Y-121920000D02*
X45720000Y-123730000D01*
X45720000Y-129540000D02*
X45720000Y-127730000D01*
X44720000Y-123730000D02*
X44720000Y-127730000D01*
X46720000Y-123730000D02*
X44720000Y-123730000D01*
X46720000Y-127730000D02*
X46720000Y-123730000D01*
X44720000Y-127730000D02*
X46720000Y-127730000D01*
%TO.C,DL24*%
X44720000Y-108680000D02*
X46720000Y-108680000D01*
X46720000Y-108680000D02*
X46720000Y-104680000D01*
X46720000Y-104680000D02*
X44720000Y-104680000D01*
X44720000Y-104680000D02*
X44720000Y-108680000D01*
X45720000Y-110490000D02*
X45720000Y-108680000D01*
X45720000Y-102870000D02*
X45720000Y-104680000D01*
X44720000Y-108080000D02*
X46720000Y-108080000D01*
X44720000Y-107980000D02*
X46720000Y-107980000D01*
X44720000Y-108180000D02*
X46720000Y-108180000D01*
%TO.C,DL23*%
X44720000Y-89130000D02*
X46720000Y-89130000D01*
X44720000Y-88930000D02*
X46720000Y-88930000D01*
X44720000Y-89030000D02*
X46720000Y-89030000D01*
X45720000Y-83820000D02*
X45720000Y-85630000D01*
X45720000Y-91440000D02*
X45720000Y-89630000D01*
X44720000Y-85630000D02*
X44720000Y-89630000D01*
X46720000Y-85630000D02*
X44720000Y-85630000D01*
X46720000Y-89630000D02*
X46720000Y-85630000D01*
X44720000Y-89630000D02*
X46720000Y-89630000D01*
%TO.C,DL22*%
X44720000Y-70580000D02*
X46720000Y-70580000D01*
X46720000Y-70580000D02*
X46720000Y-66580000D01*
X46720000Y-66580000D02*
X44720000Y-66580000D01*
X44720000Y-66580000D02*
X44720000Y-70580000D01*
X45720000Y-72390000D02*
X45720000Y-70580000D01*
X45720000Y-64770000D02*
X45720000Y-66580000D01*
X44720000Y-69980000D02*
X46720000Y-69980000D01*
X44720000Y-69880000D02*
X46720000Y-69880000D01*
X44720000Y-70080000D02*
X46720000Y-70080000D01*
%TO.C,DL21*%
X44720000Y-51030000D02*
X46720000Y-51030000D01*
X44720000Y-50830000D02*
X46720000Y-50830000D01*
X44720000Y-50930000D02*
X46720000Y-50930000D01*
X45720000Y-45720000D02*
X45720000Y-47530000D01*
X45720000Y-53340000D02*
X45720000Y-51530000D01*
X44720000Y-47530000D02*
X44720000Y-51530000D01*
X46720000Y-47530000D02*
X44720000Y-47530000D01*
X46720000Y-51530000D02*
X46720000Y-47530000D01*
X44720000Y-51530000D02*
X46720000Y-51530000D01*
%TO.C,DL15*%
X25670000Y-127730000D02*
X27670000Y-127730000D01*
X27670000Y-127730000D02*
X27670000Y-123730000D01*
X27670000Y-123730000D02*
X25670000Y-123730000D01*
X25670000Y-123730000D02*
X25670000Y-127730000D01*
X26670000Y-129540000D02*
X26670000Y-127730000D01*
X26670000Y-121920000D02*
X26670000Y-123730000D01*
X25670000Y-127130000D02*
X27670000Y-127130000D01*
X25670000Y-127030000D02*
X27670000Y-127030000D01*
X25670000Y-127230000D02*
X27670000Y-127230000D01*
%TO.C,DL14*%
X25670000Y-108680000D02*
X27670000Y-108680000D01*
X27670000Y-108680000D02*
X27670000Y-104680000D01*
X27670000Y-104680000D02*
X25670000Y-104680000D01*
X25670000Y-104680000D02*
X25670000Y-108680000D01*
X26670000Y-110490000D02*
X26670000Y-108680000D01*
X26670000Y-102870000D02*
X26670000Y-104680000D01*
X25670000Y-108080000D02*
X27670000Y-108080000D01*
X25670000Y-107980000D02*
X27670000Y-107980000D01*
X25670000Y-108180000D02*
X27670000Y-108180000D01*
%TO.C,DL13*%
X25670000Y-89130000D02*
X27670000Y-89130000D01*
X25670000Y-88930000D02*
X27670000Y-88930000D01*
X25670000Y-89030000D02*
X27670000Y-89030000D01*
X26670000Y-83820000D02*
X26670000Y-85630000D01*
X26670000Y-91440000D02*
X26670000Y-89630000D01*
X25670000Y-85630000D02*
X25670000Y-89630000D01*
X27670000Y-85630000D02*
X25670000Y-85630000D01*
X27670000Y-89630000D02*
X27670000Y-85630000D01*
X25670000Y-89630000D02*
X27670000Y-89630000D01*
%TO.C,DL12*%
X25670000Y-70080000D02*
X27670000Y-70080000D01*
X25670000Y-69880000D02*
X27670000Y-69880000D01*
X25670000Y-69980000D02*
X27670000Y-69980000D01*
X26670000Y-64770000D02*
X26670000Y-66580000D01*
X26670000Y-72390000D02*
X26670000Y-70580000D01*
X25670000Y-66580000D02*
X25670000Y-70580000D01*
X27670000Y-66580000D02*
X25670000Y-66580000D01*
X27670000Y-70580000D02*
X27670000Y-66580000D01*
X25670000Y-70580000D02*
X27670000Y-70580000D01*
%TO.C,DL11*%
X25670000Y-51530000D02*
X27670000Y-51530000D01*
X27670000Y-51530000D02*
X27670000Y-47530000D01*
X27670000Y-47530000D02*
X25670000Y-47530000D01*
X25670000Y-47530000D02*
X25670000Y-51530000D01*
X26670000Y-53340000D02*
X26670000Y-51530000D01*
X26670000Y-45720000D02*
X26670000Y-47530000D01*
X25670000Y-50930000D02*
X27670000Y-50930000D01*
X25670000Y-50830000D02*
X27670000Y-50830000D01*
X25670000Y-51030000D02*
X27670000Y-51030000D01*
%TD*%
%TO.C,JL1*%
D11*
X149931904Y-84177142D02*
X149884285Y-84224761D01*
X149741428Y-84272380D01*
X149646190Y-84272380D01*
X149503333Y-84224761D01*
X149408095Y-84129523D01*
X149360476Y-84034285D01*
X149312857Y-83843809D01*
X149312857Y-83700952D01*
X149360476Y-83510476D01*
X149408095Y-83415238D01*
X149503333Y-83320000D01*
X149646190Y-83272380D01*
X149741428Y-83272380D01*
X149884285Y-83320000D01*
X149931904Y-83367619D01*
X150503333Y-84272380D02*
X150408095Y-84224761D01*
X150360476Y-84177142D01*
X150312857Y-84081904D01*
X150312857Y-83796190D01*
X150360476Y-83700952D01*
X150408095Y-83653333D01*
X150503333Y-83605714D01*
X150646190Y-83605714D01*
X150741428Y-83653333D01*
X150789047Y-83700952D01*
X150836666Y-83796190D01*
X150836666Y-84081904D01*
X150789047Y-84177142D01*
X150741428Y-84224761D01*
X150646190Y-84272380D01*
X150503333Y-84272380D01*
X151265238Y-83605714D02*
X151265238Y-84272380D01*
X151265238Y-83700952D02*
X151312857Y-83653333D01*
X151408095Y-83605714D01*
X151550952Y-83605714D01*
X151646190Y-83653333D01*
X151693809Y-83748571D01*
X151693809Y-84272380D01*
X152170000Y-83605714D02*
X152170000Y-84272380D01*
X152170000Y-83700952D02*
X152217619Y-83653333D01*
X152312857Y-83605714D01*
X152455714Y-83605714D01*
X152550952Y-83653333D01*
X152598571Y-83748571D01*
X152598571Y-84272380D01*
X152836666Y-84367619D02*
X153598571Y-84367619D01*
X154027142Y-83272380D02*
X154122380Y-83272380D01*
X154217619Y-83320000D01*
X154265238Y-83367619D01*
X154312857Y-83462857D01*
X154360476Y-83653333D01*
X154360476Y-83891428D01*
X154312857Y-84081904D01*
X154265238Y-84177142D01*
X154217619Y-84224761D01*
X154122380Y-84272380D01*
X154027142Y-84272380D01*
X153931904Y-84224761D01*
X153884285Y-84177142D01*
X153836666Y-84081904D01*
X153789047Y-83891428D01*
X153789047Y-83653333D01*
X153836666Y-83462857D01*
X153884285Y-83367619D01*
X153931904Y-83320000D01*
X154027142Y-83272380D01*
X155312857Y-84272380D02*
X154741428Y-84272380D01*
X155027142Y-84272380D02*
X155027142Y-83272380D01*
X154931904Y-83415238D01*
X154836666Y-83510476D01*
X154741428Y-83558095D01*
X155646190Y-84272380D02*
X156170000Y-83605714D01*
X155646190Y-83605714D02*
X156170000Y-84272380D01*
X156741428Y-83272380D02*
X156836666Y-83272380D01*
X156931904Y-83320000D01*
X156979523Y-83367619D01*
X157027142Y-83462857D01*
X157074761Y-83653333D01*
X157074761Y-83891428D01*
X157027142Y-84081904D01*
X156979523Y-84177142D01*
X156931904Y-84224761D01*
X156836666Y-84272380D01*
X156741428Y-84272380D01*
X156646190Y-84224761D01*
X156598571Y-84177142D01*
X156550952Y-84081904D01*
X156503333Y-83891428D01*
X156503333Y-83653333D01*
X156550952Y-83462857D01*
X156598571Y-83367619D01*
X156646190Y-83320000D01*
X156741428Y-83272380D01*
X157931904Y-83605714D02*
X157931904Y-84272380D01*
X157693809Y-83224761D02*
X157455714Y-83939047D01*
X158074761Y-83939047D01*
X152931904Y-77962380D02*
X152931904Y-78676666D01*
X152884285Y-78819523D01*
X152789047Y-78914761D01*
X152646190Y-78962380D01*
X152550952Y-78962380D01*
X153884285Y-78962380D02*
X153408095Y-78962380D01*
X153408095Y-77962380D01*
X154741428Y-78962380D02*
X154170000Y-78962380D01*
X154455714Y-78962380D02*
X154455714Y-77962380D01*
X154360476Y-78105238D01*
X154265238Y-78200476D01*
X154170000Y-78248095D01*
%TO.C,JL2*%
X149931904Y-85447142D02*
X149884285Y-85494761D01*
X149741428Y-85542380D01*
X149646190Y-85542380D01*
X149503333Y-85494761D01*
X149408095Y-85399523D01*
X149360476Y-85304285D01*
X149312857Y-85113809D01*
X149312857Y-84970952D01*
X149360476Y-84780476D01*
X149408095Y-84685238D01*
X149503333Y-84590000D01*
X149646190Y-84542380D01*
X149741428Y-84542380D01*
X149884285Y-84590000D01*
X149931904Y-84637619D01*
X150503333Y-85542380D02*
X150408095Y-85494761D01*
X150360476Y-85447142D01*
X150312857Y-85351904D01*
X150312857Y-85066190D01*
X150360476Y-84970952D01*
X150408095Y-84923333D01*
X150503333Y-84875714D01*
X150646190Y-84875714D01*
X150741428Y-84923333D01*
X150789047Y-84970952D01*
X150836666Y-85066190D01*
X150836666Y-85351904D01*
X150789047Y-85447142D01*
X150741428Y-85494761D01*
X150646190Y-85542380D01*
X150503333Y-85542380D01*
X151265238Y-84875714D02*
X151265238Y-85542380D01*
X151265238Y-84970952D02*
X151312857Y-84923333D01*
X151408095Y-84875714D01*
X151550952Y-84875714D01*
X151646190Y-84923333D01*
X151693809Y-85018571D01*
X151693809Y-85542380D01*
X152170000Y-84875714D02*
X152170000Y-85542380D01*
X152170000Y-84970952D02*
X152217619Y-84923333D01*
X152312857Y-84875714D01*
X152455714Y-84875714D01*
X152550952Y-84923333D01*
X152598571Y-85018571D01*
X152598571Y-85542380D01*
X152836666Y-85637619D02*
X153598571Y-85637619D01*
X154027142Y-84542380D02*
X154122380Y-84542380D01*
X154217619Y-84590000D01*
X154265238Y-84637619D01*
X154312857Y-84732857D01*
X154360476Y-84923333D01*
X154360476Y-85161428D01*
X154312857Y-85351904D01*
X154265238Y-85447142D01*
X154217619Y-85494761D01*
X154122380Y-85542380D01*
X154027142Y-85542380D01*
X153931904Y-85494761D01*
X153884285Y-85447142D01*
X153836666Y-85351904D01*
X153789047Y-85161428D01*
X153789047Y-84923333D01*
X153836666Y-84732857D01*
X153884285Y-84637619D01*
X153931904Y-84590000D01*
X154027142Y-84542380D01*
X155312857Y-85542380D02*
X154741428Y-85542380D01*
X155027142Y-85542380D02*
X155027142Y-84542380D01*
X154931904Y-84685238D01*
X154836666Y-84780476D01*
X154741428Y-84828095D01*
X155646190Y-85542380D02*
X156170000Y-84875714D01*
X155646190Y-84875714D02*
X156170000Y-85542380D01*
X156741428Y-84542380D02*
X156836666Y-84542380D01*
X156931904Y-84590000D01*
X156979523Y-84637619D01*
X157027142Y-84732857D01*
X157074761Y-84923333D01*
X157074761Y-85161428D01*
X157027142Y-85351904D01*
X156979523Y-85447142D01*
X156931904Y-85494761D01*
X156836666Y-85542380D01*
X156741428Y-85542380D01*
X156646190Y-85494761D01*
X156598571Y-85447142D01*
X156550952Y-85351904D01*
X156503333Y-85161428D01*
X156503333Y-84923333D01*
X156550952Y-84732857D01*
X156598571Y-84637619D01*
X156646190Y-84590000D01*
X156741428Y-84542380D01*
X157931904Y-84875714D02*
X157931904Y-85542380D01*
X157693809Y-84494761D02*
X157455714Y-85209047D01*
X158074761Y-85209047D01*
X152931904Y-89852380D02*
X152931904Y-90566666D01*
X152884285Y-90709523D01*
X152789047Y-90804761D01*
X152646190Y-90852380D01*
X152550952Y-90852380D01*
X153884285Y-90852380D02*
X153408095Y-90852380D01*
X153408095Y-89852380D01*
X154170000Y-89947619D02*
X154217619Y-89900000D01*
X154312857Y-89852380D01*
X154550952Y-89852380D01*
X154646190Y-89900000D01*
X154693809Y-89947619D01*
X154741428Y-90042857D01*
X154741428Y-90138095D01*
X154693809Y-90280952D01*
X154122380Y-90852380D01*
X154741428Y-90852380D01*
%TO.C,KLZ1*%
D12*
X52142571Y-101019428D02*
X52142571Y-99495428D01*
X53013428Y-101019428D02*
X52360285Y-100148571D01*
X53013428Y-99495428D02*
X52142571Y-100366285D01*
X54392285Y-101019428D02*
X53666571Y-101019428D01*
X53666571Y-99495428D01*
X54755142Y-99495428D02*
X55771142Y-99495428D01*
X54755142Y-101019428D01*
X55771142Y-101019428D01*
X57150000Y-101019428D02*
X56279142Y-101019428D01*
X56714571Y-101019428D02*
X56714571Y-99495428D01*
X56569428Y-99713142D01*
X56424285Y-99858285D01*
X56279142Y-99930857D01*
%TO.C,KLX1*%
X71192571Y-101019428D02*
X71192571Y-99495428D01*
X72063428Y-101019428D02*
X71410285Y-100148571D01*
X72063428Y-99495428D02*
X71192571Y-100366285D01*
X73442285Y-101019428D02*
X72716571Y-101019428D01*
X72716571Y-99495428D01*
X73805142Y-99495428D02*
X74821142Y-101019428D01*
X74821142Y-99495428D02*
X73805142Y-101019428D01*
X76200000Y-101019428D02*
X75329142Y-101019428D01*
X75764571Y-101019428D02*
X75764571Y-99495428D01*
X75619428Y-99713142D01*
X75474285Y-99858285D01*
X75329142Y-99930857D01*
%TO.C,KLW1*%
X71047428Y-62919428D02*
X71047428Y-61395428D01*
X71918285Y-62919428D02*
X71265142Y-62048571D01*
X71918285Y-61395428D02*
X71047428Y-62266285D01*
X73297142Y-62919428D02*
X72571428Y-62919428D01*
X72571428Y-61395428D01*
X73660000Y-61395428D02*
X74022857Y-62919428D01*
X74313142Y-61830857D01*
X74603428Y-62919428D01*
X74966285Y-61395428D01*
X76345142Y-62919428D02*
X75474285Y-62919428D01*
X75909714Y-62919428D02*
X75909714Y-61395428D01*
X75764571Y-61613142D01*
X75619428Y-61758285D01*
X75474285Y-61830857D01*
%TO.C,KLV1*%
X109365142Y-101019428D02*
X109365142Y-99495428D01*
X110236000Y-101019428D02*
X109582857Y-100148571D01*
X110236000Y-99495428D02*
X109365142Y-100366285D01*
X111614857Y-101019428D02*
X110889142Y-101019428D01*
X110889142Y-99495428D01*
X111905142Y-99495428D02*
X112413142Y-101019428D01*
X112921142Y-99495428D01*
X114227428Y-101019428D02*
X113356571Y-101019428D01*
X113792000Y-101019428D02*
X113792000Y-99495428D01*
X113646857Y-99713142D01*
X113501714Y-99858285D01*
X113356571Y-99930857D01*
%TO.C,KLR1*%
X109256285Y-62919428D02*
X109256285Y-61395428D01*
X110127142Y-62919428D02*
X109474000Y-62048571D01*
X110127142Y-61395428D02*
X109256285Y-62266285D01*
X111506000Y-62919428D02*
X110780285Y-62919428D01*
X110780285Y-61395428D01*
X112884857Y-62919428D02*
X112376857Y-62193714D01*
X112014000Y-62919428D02*
X112014000Y-61395428D01*
X112594571Y-61395428D01*
X112739714Y-61468000D01*
X112812285Y-61540571D01*
X112884857Y-61685714D01*
X112884857Y-61903428D01*
X112812285Y-62048571D01*
X112739714Y-62121142D01*
X112594571Y-62193714D01*
X112014000Y-62193714D01*
X114336285Y-62919428D02*
X113465428Y-62919428D01*
X113900857Y-62919428D02*
X113900857Y-61395428D01*
X113755714Y-61613142D01*
X113610571Y-61758285D01*
X113465428Y-61830857D01*
%TO.C,KLQ1*%
X52070000Y-62919428D02*
X52070000Y-61395428D01*
X52940857Y-62919428D02*
X52287714Y-62048571D01*
X52940857Y-61395428D02*
X52070000Y-62266285D01*
X54319714Y-62919428D02*
X53594000Y-62919428D01*
X53594000Y-61395428D01*
X55843714Y-63064571D02*
X55698571Y-62992000D01*
X55553428Y-62846857D01*
X55335714Y-62629142D01*
X55190571Y-62556571D01*
X55045428Y-62556571D01*
X55118000Y-62919428D02*
X54972857Y-62846857D01*
X54827714Y-62701714D01*
X54755142Y-62411428D01*
X54755142Y-61903428D01*
X54827714Y-61613142D01*
X54972857Y-61468000D01*
X55118000Y-61395428D01*
X55408285Y-61395428D01*
X55553428Y-61468000D01*
X55698571Y-61613142D01*
X55771142Y-61903428D01*
X55771142Y-62411428D01*
X55698571Y-62701714D01*
X55553428Y-62846857D01*
X55408285Y-62919428D01*
X55118000Y-62919428D01*
X57222571Y-62919428D02*
X56351714Y-62919428D01*
X56787142Y-62919428D02*
X56787142Y-61395428D01*
X56642000Y-61613142D01*
X56496857Y-61758285D01*
X56351714Y-61830857D01*
%TO.C,KLFunc65*%
X125657428Y-120069428D02*
X125657428Y-118545428D01*
X126528285Y-120069428D02*
X125875142Y-119198571D01*
X126528285Y-118545428D02*
X125657428Y-119416285D01*
X127907142Y-120069428D02*
X127181428Y-120069428D01*
X127181428Y-118545428D01*
X128923142Y-119271142D02*
X128415142Y-119271142D01*
X128415142Y-120069428D02*
X128415142Y-118545428D01*
X129140857Y-118545428D01*
X130374571Y-119053428D02*
X130374571Y-120069428D01*
X129721428Y-119053428D02*
X129721428Y-119851714D01*
X129794000Y-119996857D01*
X129939142Y-120069428D01*
X130156857Y-120069428D01*
X130302000Y-119996857D01*
X130374571Y-119924285D01*
X131100285Y-119053428D02*
X131100285Y-120069428D01*
X131100285Y-119198571D02*
X131172857Y-119126000D01*
X131318000Y-119053428D01*
X131535714Y-119053428D01*
X131680857Y-119126000D01*
X131753428Y-119271142D01*
X131753428Y-120069428D01*
X133132285Y-119996857D02*
X132987142Y-120069428D01*
X132696857Y-120069428D01*
X132551714Y-119996857D01*
X132479142Y-119924285D01*
X132406571Y-119779142D01*
X132406571Y-119343714D01*
X132479142Y-119198571D01*
X132551714Y-119126000D01*
X132696857Y-119053428D01*
X132987142Y-119053428D01*
X133132285Y-119126000D01*
X134438571Y-118545428D02*
X134148285Y-118545428D01*
X134003142Y-118618000D01*
X133930571Y-118690571D01*
X133785428Y-118908285D01*
X133712857Y-119198571D01*
X133712857Y-119779142D01*
X133785428Y-119924285D01*
X133858000Y-119996857D01*
X134003142Y-120069428D01*
X134293428Y-120069428D01*
X134438571Y-119996857D01*
X134511142Y-119924285D01*
X134583714Y-119779142D01*
X134583714Y-119416285D01*
X134511142Y-119271142D01*
X134438571Y-119198571D01*
X134293428Y-119126000D01*
X134003142Y-119126000D01*
X133858000Y-119198571D01*
X133785428Y-119271142D01*
X133712857Y-119416285D01*
X135962571Y-118545428D02*
X135236857Y-118545428D01*
X135164285Y-119271142D01*
X135236857Y-119198571D01*
X135382000Y-119126000D01*
X135744857Y-119126000D01*
X135890000Y-119198571D01*
X135962571Y-119271142D01*
X136035142Y-119416285D01*
X136035142Y-119779142D01*
X135962571Y-119924285D01*
X135890000Y-119996857D01*
X135744857Y-120069428D01*
X135382000Y-120069428D01*
X135236857Y-119996857D01*
X135164285Y-119924285D01*
%TO.C,KLFunc55*%
X106607428Y-120069428D02*
X106607428Y-118545428D01*
X107478285Y-120069428D02*
X106825142Y-119198571D01*
X107478285Y-118545428D02*
X106607428Y-119416285D01*
X108857142Y-120069428D02*
X108131428Y-120069428D01*
X108131428Y-118545428D01*
X109873142Y-119271142D02*
X109365142Y-119271142D01*
X109365142Y-120069428D02*
X109365142Y-118545428D01*
X110090857Y-118545428D01*
X111324571Y-119053428D02*
X111324571Y-120069428D01*
X110671428Y-119053428D02*
X110671428Y-119851714D01*
X110744000Y-119996857D01*
X110889142Y-120069428D01*
X111106857Y-120069428D01*
X111252000Y-119996857D01*
X111324571Y-119924285D01*
X112050285Y-119053428D02*
X112050285Y-120069428D01*
X112050285Y-119198571D02*
X112122857Y-119126000D01*
X112268000Y-119053428D01*
X112485714Y-119053428D01*
X112630857Y-119126000D01*
X112703428Y-119271142D01*
X112703428Y-120069428D01*
X114082285Y-119996857D02*
X113937142Y-120069428D01*
X113646857Y-120069428D01*
X113501714Y-119996857D01*
X113429142Y-119924285D01*
X113356571Y-119779142D01*
X113356571Y-119343714D01*
X113429142Y-119198571D01*
X113501714Y-119126000D01*
X113646857Y-119053428D01*
X113937142Y-119053428D01*
X114082285Y-119126000D01*
X115461142Y-118545428D02*
X114735428Y-118545428D01*
X114662857Y-119271142D01*
X114735428Y-119198571D01*
X114880571Y-119126000D01*
X115243428Y-119126000D01*
X115388571Y-119198571D01*
X115461142Y-119271142D01*
X115533714Y-119416285D01*
X115533714Y-119779142D01*
X115461142Y-119924285D01*
X115388571Y-119996857D01*
X115243428Y-120069428D01*
X114880571Y-120069428D01*
X114735428Y-119996857D01*
X114662857Y-119924285D01*
X116912571Y-118545428D02*
X116186857Y-118545428D01*
X116114285Y-119271142D01*
X116186857Y-119198571D01*
X116332000Y-119126000D01*
X116694857Y-119126000D01*
X116840000Y-119198571D01*
X116912571Y-119271142D01*
X116985142Y-119416285D01*
X116985142Y-119779142D01*
X116912571Y-119924285D01*
X116840000Y-119996857D01*
X116694857Y-120069428D01*
X116332000Y-120069428D01*
X116186857Y-119996857D01*
X116114285Y-119924285D01*
%TO.C,KLFunc35*%
X68507428Y-120069428D02*
X68507428Y-118545428D01*
X69378285Y-120069428D02*
X68725142Y-119198571D01*
X69378285Y-118545428D02*
X68507428Y-119416285D01*
X70757142Y-120069428D02*
X70031428Y-120069428D01*
X70031428Y-118545428D01*
X71773142Y-119271142D02*
X71265142Y-119271142D01*
X71265142Y-120069428D02*
X71265142Y-118545428D01*
X71990857Y-118545428D01*
X73224571Y-119053428D02*
X73224571Y-120069428D01*
X72571428Y-119053428D02*
X72571428Y-119851714D01*
X72644000Y-119996857D01*
X72789142Y-120069428D01*
X73006857Y-120069428D01*
X73152000Y-119996857D01*
X73224571Y-119924285D01*
X73950285Y-119053428D02*
X73950285Y-120069428D01*
X73950285Y-119198571D02*
X74022857Y-119126000D01*
X74168000Y-119053428D01*
X74385714Y-119053428D01*
X74530857Y-119126000D01*
X74603428Y-119271142D01*
X74603428Y-120069428D01*
X75982285Y-119996857D02*
X75837142Y-120069428D01*
X75546857Y-120069428D01*
X75401714Y-119996857D01*
X75329142Y-119924285D01*
X75256571Y-119779142D01*
X75256571Y-119343714D01*
X75329142Y-119198571D01*
X75401714Y-119126000D01*
X75546857Y-119053428D01*
X75837142Y-119053428D01*
X75982285Y-119126000D01*
X76490285Y-118545428D02*
X77433714Y-118545428D01*
X76925714Y-119126000D01*
X77143428Y-119126000D01*
X77288571Y-119198571D01*
X77361142Y-119271142D01*
X77433714Y-119416285D01*
X77433714Y-119779142D01*
X77361142Y-119924285D01*
X77288571Y-119996857D01*
X77143428Y-120069428D01*
X76708000Y-120069428D01*
X76562857Y-119996857D01*
X76490285Y-119924285D01*
X78812571Y-118545428D02*
X78086857Y-118545428D01*
X78014285Y-119271142D01*
X78086857Y-119198571D01*
X78232000Y-119126000D01*
X78594857Y-119126000D01*
X78740000Y-119198571D01*
X78812571Y-119271142D01*
X78885142Y-119416285D01*
X78885142Y-119779142D01*
X78812571Y-119924285D01*
X78740000Y-119996857D01*
X78594857Y-120069428D01*
X78232000Y-120069428D01*
X78086857Y-119996857D01*
X78014285Y-119924285D01*
%TO.C,KLFunc25*%
X49457428Y-120069428D02*
X49457428Y-118545428D01*
X50328285Y-120069428D02*
X49675142Y-119198571D01*
X50328285Y-118545428D02*
X49457428Y-119416285D01*
X51707142Y-120069428D02*
X50981428Y-120069428D01*
X50981428Y-118545428D01*
X52723142Y-119271142D02*
X52215142Y-119271142D01*
X52215142Y-120069428D02*
X52215142Y-118545428D01*
X52940857Y-118545428D01*
X54174571Y-119053428D02*
X54174571Y-120069428D01*
X53521428Y-119053428D02*
X53521428Y-119851714D01*
X53594000Y-119996857D01*
X53739142Y-120069428D01*
X53956857Y-120069428D01*
X54102000Y-119996857D01*
X54174571Y-119924285D01*
X54900285Y-119053428D02*
X54900285Y-120069428D01*
X54900285Y-119198571D02*
X54972857Y-119126000D01*
X55118000Y-119053428D01*
X55335714Y-119053428D01*
X55480857Y-119126000D01*
X55553428Y-119271142D01*
X55553428Y-120069428D01*
X56932285Y-119996857D02*
X56787142Y-120069428D01*
X56496857Y-120069428D01*
X56351714Y-119996857D01*
X56279142Y-119924285D01*
X56206571Y-119779142D01*
X56206571Y-119343714D01*
X56279142Y-119198571D01*
X56351714Y-119126000D01*
X56496857Y-119053428D01*
X56787142Y-119053428D01*
X56932285Y-119126000D01*
X57512857Y-118690571D02*
X57585428Y-118618000D01*
X57730571Y-118545428D01*
X58093428Y-118545428D01*
X58238571Y-118618000D01*
X58311142Y-118690571D01*
X58383714Y-118835714D01*
X58383714Y-118980857D01*
X58311142Y-119198571D01*
X57440285Y-120069428D01*
X58383714Y-120069428D01*
X59762571Y-118545428D02*
X59036857Y-118545428D01*
X58964285Y-119271142D01*
X59036857Y-119198571D01*
X59182000Y-119126000D01*
X59544857Y-119126000D01*
X59690000Y-119198571D01*
X59762571Y-119271142D01*
X59835142Y-119416285D01*
X59835142Y-119779142D01*
X59762571Y-119924285D01*
X59690000Y-119996857D01*
X59544857Y-120069428D01*
X59182000Y-120069428D01*
X59036857Y-119996857D01*
X58964285Y-119924285D01*
%TO.C,KLFunc15*%
X30407428Y-120069428D02*
X30407428Y-118545428D01*
X31278285Y-120069428D02*
X30625142Y-119198571D01*
X31278285Y-118545428D02*
X30407428Y-119416285D01*
X32657142Y-120069428D02*
X31931428Y-120069428D01*
X31931428Y-118545428D01*
X33673142Y-119271142D02*
X33165142Y-119271142D01*
X33165142Y-120069428D02*
X33165142Y-118545428D01*
X33890857Y-118545428D01*
X35124571Y-119053428D02*
X35124571Y-120069428D01*
X34471428Y-119053428D02*
X34471428Y-119851714D01*
X34544000Y-119996857D01*
X34689142Y-120069428D01*
X34906857Y-120069428D01*
X35052000Y-119996857D01*
X35124571Y-119924285D01*
X35850285Y-119053428D02*
X35850285Y-120069428D01*
X35850285Y-119198571D02*
X35922857Y-119126000D01*
X36068000Y-119053428D01*
X36285714Y-119053428D01*
X36430857Y-119126000D01*
X36503428Y-119271142D01*
X36503428Y-120069428D01*
X37882285Y-119996857D02*
X37737142Y-120069428D01*
X37446857Y-120069428D01*
X37301714Y-119996857D01*
X37229142Y-119924285D01*
X37156571Y-119779142D01*
X37156571Y-119343714D01*
X37229142Y-119198571D01*
X37301714Y-119126000D01*
X37446857Y-119053428D01*
X37737142Y-119053428D01*
X37882285Y-119126000D01*
X39333714Y-120069428D02*
X38462857Y-120069428D01*
X38898285Y-120069428D02*
X38898285Y-118545428D01*
X38753142Y-118763142D01*
X38608000Y-118908285D01*
X38462857Y-118980857D01*
X40712571Y-118545428D02*
X39986857Y-118545428D01*
X39914285Y-119271142D01*
X39986857Y-119198571D01*
X40132000Y-119126000D01*
X40494857Y-119126000D01*
X40640000Y-119198571D01*
X40712571Y-119271142D01*
X40785142Y-119416285D01*
X40785142Y-119779142D01*
X40712571Y-119924285D01*
X40640000Y-119996857D01*
X40494857Y-120069428D01*
X40132000Y-120069428D01*
X39986857Y-119996857D01*
X39914285Y-119924285D01*
%TO.C,KLFunc14*%
X30407428Y-101019428D02*
X30407428Y-99495428D01*
X31278285Y-101019428D02*
X30625142Y-100148571D01*
X31278285Y-99495428D02*
X30407428Y-100366285D01*
X32657142Y-101019428D02*
X31931428Y-101019428D01*
X31931428Y-99495428D01*
X33673142Y-100221142D02*
X33165142Y-100221142D01*
X33165142Y-101019428D02*
X33165142Y-99495428D01*
X33890857Y-99495428D01*
X35124571Y-100003428D02*
X35124571Y-101019428D01*
X34471428Y-100003428D02*
X34471428Y-100801714D01*
X34544000Y-100946857D01*
X34689142Y-101019428D01*
X34906857Y-101019428D01*
X35052000Y-100946857D01*
X35124571Y-100874285D01*
X35850285Y-100003428D02*
X35850285Y-101019428D01*
X35850285Y-100148571D02*
X35922857Y-100076000D01*
X36068000Y-100003428D01*
X36285714Y-100003428D01*
X36430857Y-100076000D01*
X36503428Y-100221142D01*
X36503428Y-101019428D01*
X37882285Y-100946857D02*
X37737142Y-101019428D01*
X37446857Y-101019428D01*
X37301714Y-100946857D01*
X37229142Y-100874285D01*
X37156571Y-100729142D01*
X37156571Y-100293714D01*
X37229142Y-100148571D01*
X37301714Y-100076000D01*
X37446857Y-100003428D01*
X37737142Y-100003428D01*
X37882285Y-100076000D01*
X39333714Y-101019428D02*
X38462857Y-101019428D01*
X38898285Y-101019428D02*
X38898285Y-99495428D01*
X38753142Y-99713142D01*
X38608000Y-99858285D01*
X38462857Y-99930857D01*
X40640000Y-100003428D02*
X40640000Y-101019428D01*
X40277142Y-99422857D02*
X39914285Y-100511428D01*
X40857714Y-100511428D01*
%TO.C,KLFunc13*%
X30407428Y-81969428D02*
X30407428Y-80445428D01*
X31278285Y-81969428D02*
X30625142Y-81098571D01*
X31278285Y-80445428D02*
X30407428Y-81316285D01*
X32657142Y-81969428D02*
X31931428Y-81969428D01*
X31931428Y-80445428D01*
X33673142Y-81171142D02*
X33165142Y-81171142D01*
X33165142Y-81969428D02*
X33165142Y-80445428D01*
X33890857Y-80445428D01*
X35124571Y-80953428D02*
X35124571Y-81969428D01*
X34471428Y-80953428D02*
X34471428Y-81751714D01*
X34544000Y-81896857D01*
X34689142Y-81969428D01*
X34906857Y-81969428D01*
X35052000Y-81896857D01*
X35124571Y-81824285D01*
X35850285Y-80953428D02*
X35850285Y-81969428D01*
X35850285Y-81098571D02*
X35922857Y-81026000D01*
X36068000Y-80953428D01*
X36285714Y-80953428D01*
X36430857Y-81026000D01*
X36503428Y-81171142D01*
X36503428Y-81969428D01*
X37882285Y-81896857D02*
X37737142Y-81969428D01*
X37446857Y-81969428D01*
X37301714Y-81896857D01*
X37229142Y-81824285D01*
X37156571Y-81679142D01*
X37156571Y-81243714D01*
X37229142Y-81098571D01*
X37301714Y-81026000D01*
X37446857Y-80953428D01*
X37737142Y-80953428D01*
X37882285Y-81026000D01*
X39333714Y-81969428D02*
X38462857Y-81969428D01*
X38898285Y-81969428D02*
X38898285Y-80445428D01*
X38753142Y-80663142D01*
X38608000Y-80808285D01*
X38462857Y-80880857D01*
X39841714Y-80445428D02*
X40785142Y-80445428D01*
X40277142Y-81026000D01*
X40494857Y-81026000D01*
X40640000Y-81098571D01*
X40712571Y-81171142D01*
X40785142Y-81316285D01*
X40785142Y-81679142D01*
X40712571Y-81824285D01*
X40640000Y-81896857D01*
X40494857Y-81969428D01*
X40059428Y-81969428D01*
X39914285Y-81896857D01*
X39841714Y-81824285D01*
%TO.C,KLFunc12*%
X30407428Y-62919428D02*
X30407428Y-61395428D01*
X31278285Y-62919428D02*
X30625142Y-62048571D01*
X31278285Y-61395428D02*
X30407428Y-62266285D01*
X32657142Y-62919428D02*
X31931428Y-62919428D01*
X31931428Y-61395428D01*
X33673142Y-62121142D02*
X33165142Y-62121142D01*
X33165142Y-62919428D02*
X33165142Y-61395428D01*
X33890857Y-61395428D01*
X35124571Y-61903428D02*
X35124571Y-62919428D01*
X34471428Y-61903428D02*
X34471428Y-62701714D01*
X34544000Y-62846857D01*
X34689142Y-62919428D01*
X34906857Y-62919428D01*
X35052000Y-62846857D01*
X35124571Y-62774285D01*
X35850285Y-61903428D02*
X35850285Y-62919428D01*
X35850285Y-62048571D02*
X35922857Y-61976000D01*
X36068000Y-61903428D01*
X36285714Y-61903428D01*
X36430857Y-61976000D01*
X36503428Y-62121142D01*
X36503428Y-62919428D01*
X37882285Y-62846857D02*
X37737142Y-62919428D01*
X37446857Y-62919428D01*
X37301714Y-62846857D01*
X37229142Y-62774285D01*
X37156571Y-62629142D01*
X37156571Y-62193714D01*
X37229142Y-62048571D01*
X37301714Y-61976000D01*
X37446857Y-61903428D01*
X37737142Y-61903428D01*
X37882285Y-61976000D01*
X39333714Y-62919428D02*
X38462857Y-62919428D01*
X38898285Y-62919428D02*
X38898285Y-61395428D01*
X38753142Y-61613142D01*
X38608000Y-61758285D01*
X38462857Y-61830857D01*
X39914285Y-61540571D02*
X39986857Y-61468000D01*
X40132000Y-61395428D01*
X40494857Y-61395428D01*
X40640000Y-61468000D01*
X40712571Y-61540571D01*
X40785142Y-61685714D01*
X40785142Y-61830857D01*
X40712571Y-62048571D01*
X39841714Y-62919428D01*
X40785142Y-62919428D01*
%TO.C,KLFunc11*%
X30407428Y-43869428D02*
X30407428Y-42345428D01*
X31278285Y-43869428D02*
X30625142Y-42998571D01*
X31278285Y-42345428D02*
X30407428Y-43216285D01*
X32657142Y-43869428D02*
X31931428Y-43869428D01*
X31931428Y-42345428D01*
X33673142Y-43071142D02*
X33165142Y-43071142D01*
X33165142Y-43869428D02*
X33165142Y-42345428D01*
X33890857Y-42345428D01*
X35124571Y-42853428D02*
X35124571Y-43869428D01*
X34471428Y-42853428D02*
X34471428Y-43651714D01*
X34544000Y-43796857D01*
X34689142Y-43869428D01*
X34906857Y-43869428D01*
X35052000Y-43796857D01*
X35124571Y-43724285D01*
X35850285Y-42853428D02*
X35850285Y-43869428D01*
X35850285Y-42998571D02*
X35922857Y-42926000D01*
X36068000Y-42853428D01*
X36285714Y-42853428D01*
X36430857Y-42926000D01*
X36503428Y-43071142D01*
X36503428Y-43869428D01*
X37882285Y-43796857D02*
X37737142Y-43869428D01*
X37446857Y-43869428D01*
X37301714Y-43796857D01*
X37229142Y-43724285D01*
X37156571Y-43579142D01*
X37156571Y-43143714D01*
X37229142Y-42998571D01*
X37301714Y-42926000D01*
X37446857Y-42853428D01*
X37737142Y-42853428D01*
X37882285Y-42926000D01*
X39333714Y-43869428D02*
X38462857Y-43869428D01*
X38898285Y-43869428D02*
X38898285Y-42345428D01*
X38753142Y-42563142D01*
X38608000Y-42708285D01*
X38462857Y-42780857D01*
X40785142Y-43869428D02*
X39914285Y-43869428D01*
X40349714Y-43869428D02*
X40349714Y-42345428D01*
X40204571Y-42563142D01*
X40059428Y-42708285D01*
X39914285Y-42780857D01*
%TO.C,KLF1*%
X109365142Y-81969428D02*
X109365142Y-80445428D01*
X110236000Y-81969428D02*
X109582857Y-81098571D01*
X110236000Y-80445428D02*
X109365142Y-81316285D01*
X111614857Y-81969428D02*
X110889142Y-81969428D01*
X110889142Y-80445428D01*
X112630857Y-81171142D02*
X112122857Y-81171142D01*
X112122857Y-81969428D02*
X112122857Y-80445428D01*
X112848571Y-80445428D01*
X114227428Y-81969428D02*
X113356571Y-81969428D01*
X113792000Y-81969428D02*
X113792000Y-80445428D01*
X113646857Y-80663142D01*
X113501714Y-80808285D01*
X113356571Y-80880857D01*
%TO.C,KLE1*%
X90278857Y-62919428D02*
X90278857Y-61395428D01*
X91149714Y-62919428D02*
X90496571Y-62048571D01*
X91149714Y-61395428D02*
X90278857Y-62266285D01*
X92528571Y-62919428D02*
X91802857Y-62919428D01*
X91802857Y-61395428D01*
X93036571Y-62121142D02*
X93544571Y-62121142D01*
X93762285Y-62919428D02*
X93036571Y-62919428D01*
X93036571Y-61395428D01*
X93762285Y-61395428D01*
X95213714Y-62919428D02*
X94342857Y-62919428D01*
X94778285Y-62919428D02*
X94778285Y-61395428D01*
X94633142Y-61613142D01*
X94488000Y-61758285D01*
X94342857Y-61830857D01*
%TO.C,KLD1*%
X90206285Y-81969428D02*
X90206285Y-80445428D01*
X91077142Y-81969428D02*
X90424000Y-81098571D01*
X91077142Y-80445428D02*
X90206285Y-81316285D01*
X92456000Y-81969428D02*
X91730285Y-81969428D01*
X91730285Y-80445428D01*
X92964000Y-81969428D02*
X92964000Y-80445428D01*
X93326857Y-80445428D01*
X93544571Y-80518000D01*
X93689714Y-80663142D01*
X93762285Y-80808285D01*
X93834857Y-81098571D01*
X93834857Y-81316285D01*
X93762285Y-81606571D01*
X93689714Y-81751714D01*
X93544571Y-81896857D01*
X93326857Y-81969428D01*
X92964000Y-81969428D01*
X95286285Y-81969428D02*
X94415428Y-81969428D01*
X94850857Y-81969428D02*
X94850857Y-80445428D01*
X94705714Y-80663142D01*
X94560571Y-80808285D01*
X94415428Y-80880857D01*
%TO.C,KLC1*%
X90206285Y-101019428D02*
X90206285Y-99495428D01*
X91077142Y-101019428D02*
X90424000Y-100148571D01*
X91077142Y-99495428D02*
X90206285Y-100366285D01*
X92456000Y-101019428D02*
X91730285Y-101019428D01*
X91730285Y-99495428D01*
X93834857Y-100874285D02*
X93762285Y-100946857D01*
X93544571Y-101019428D01*
X93399428Y-101019428D01*
X93181714Y-100946857D01*
X93036571Y-100801714D01*
X92964000Y-100656571D01*
X92891428Y-100366285D01*
X92891428Y-100148571D01*
X92964000Y-99858285D01*
X93036571Y-99713142D01*
X93181714Y-99568000D01*
X93399428Y-99495428D01*
X93544571Y-99495428D01*
X93762285Y-99568000D01*
X93834857Y-99640571D01*
X95286285Y-101019428D02*
X94415428Y-101019428D01*
X94850857Y-101019428D02*
X94850857Y-99495428D01*
X94705714Y-99713142D01*
X94560571Y-99858285D01*
X94415428Y-99930857D01*
%TO.C,KLB1*%
X128306285Y-101019428D02*
X128306285Y-99495428D01*
X129177142Y-101019428D02*
X128524000Y-100148571D01*
X129177142Y-99495428D02*
X128306285Y-100366285D01*
X130556000Y-101019428D02*
X129830285Y-101019428D01*
X129830285Y-99495428D01*
X131572000Y-100221142D02*
X131789714Y-100293714D01*
X131862285Y-100366285D01*
X131934857Y-100511428D01*
X131934857Y-100729142D01*
X131862285Y-100874285D01*
X131789714Y-100946857D01*
X131644571Y-101019428D01*
X131064000Y-101019428D01*
X131064000Y-99495428D01*
X131572000Y-99495428D01*
X131717142Y-99568000D01*
X131789714Y-99640571D01*
X131862285Y-99785714D01*
X131862285Y-99930857D01*
X131789714Y-100076000D01*
X131717142Y-100148571D01*
X131572000Y-100221142D01*
X131064000Y-100221142D01*
X133386285Y-101019428D02*
X132515428Y-101019428D01*
X132950857Y-101019428D02*
X132950857Y-99495428D01*
X132805714Y-99713142D01*
X132660571Y-99858285D01*
X132515428Y-99930857D01*
%TO.C,KLA1*%
X52215142Y-81969428D02*
X52215142Y-80445428D01*
X53086000Y-81969428D02*
X52432857Y-81098571D01*
X53086000Y-80445428D02*
X52215142Y-81316285D01*
X54464857Y-81969428D02*
X53739142Y-81969428D01*
X53739142Y-80445428D01*
X54900285Y-81534000D02*
X55626000Y-81534000D01*
X54755142Y-81969428D02*
X55263142Y-80445428D01*
X55771142Y-81969428D01*
X57077428Y-81969428D02*
X56206571Y-81969428D01*
X56642000Y-81969428D02*
X56642000Y-80445428D01*
X56496857Y-80663142D01*
X56351714Y-80808285D01*
X56206571Y-80880857D01*
%TO.C,KL4*%
X110018285Y-43869428D02*
X110018285Y-42345428D01*
X110889142Y-43869428D02*
X110236000Y-42998571D01*
X110889142Y-42345428D02*
X110018285Y-43216285D01*
X112268000Y-43869428D02*
X111542285Y-43869428D01*
X111542285Y-42345428D01*
X113429142Y-42853428D02*
X113429142Y-43869428D01*
X113066285Y-42272857D02*
X112703428Y-43361428D01*
X113646857Y-43361428D01*
%TO.C,KL3*%
X90968285Y-43869428D02*
X90968285Y-42345428D01*
X91839142Y-43869428D02*
X91186000Y-42998571D01*
X91839142Y-42345428D02*
X90968285Y-43216285D01*
X93218000Y-43869428D02*
X92492285Y-43869428D01*
X92492285Y-42345428D01*
X93580857Y-42345428D02*
X94524285Y-42345428D01*
X94016285Y-42926000D01*
X94234000Y-42926000D01*
X94379142Y-42998571D01*
X94451714Y-43071142D01*
X94524285Y-43216285D01*
X94524285Y-43579142D01*
X94451714Y-43724285D01*
X94379142Y-43796857D01*
X94234000Y-43869428D01*
X93798571Y-43869428D01*
X93653428Y-43796857D01*
X93580857Y-43724285D01*
%TO.C,KL2*%
X71918285Y-43869428D02*
X71918285Y-42345428D01*
X72789142Y-43869428D02*
X72136000Y-42998571D01*
X72789142Y-42345428D02*
X71918285Y-43216285D01*
X74168000Y-43869428D02*
X73442285Y-43869428D01*
X73442285Y-42345428D01*
X74603428Y-42490571D02*
X74676000Y-42418000D01*
X74821142Y-42345428D01*
X75184000Y-42345428D01*
X75329142Y-42418000D01*
X75401714Y-42490571D01*
X75474285Y-42635714D01*
X75474285Y-42780857D01*
X75401714Y-42998571D01*
X74530857Y-43869428D01*
X75474285Y-43869428D01*
%TO.C,KL1*%
X52868285Y-43869428D02*
X52868285Y-42345428D01*
X53739142Y-43869428D02*
X53086000Y-42998571D01*
X53739142Y-42345428D02*
X52868285Y-43216285D01*
X55118000Y-43869428D02*
X54392285Y-43869428D01*
X54392285Y-42345428D01*
X56424285Y-43869428D02*
X55553428Y-43869428D01*
X55988857Y-43869428D02*
X55988857Y-42345428D01*
X55843714Y-42563142D01*
X55698571Y-42708285D01*
X55553428Y-42780857D01*
%TO.C,KLS1*%
X71192571Y-81969428D02*
X71192571Y-80445428D01*
X72063428Y-81969428D02*
X71410285Y-81098571D01*
X72063428Y-80445428D02*
X71192571Y-81316285D01*
X73442285Y-81969428D02*
X72716571Y-81969428D01*
X72716571Y-80445428D01*
X73877714Y-81896857D02*
X74095428Y-81969428D01*
X74458285Y-81969428D01*
X74603428Y-81896857D01*
X74676000Y-81824285D01*
X74748571Y-81679142D01*
X74748571Y-81534000D01*
X74676000Y-81388857D01*
X74603428Y-81316285D01*
X74458285Y-81243714D01*
X74168000Y-81171142D01*
X74022857Y-81098571D01*
X73950285Y-81026000D01*
X73877714Y-80880857D01*
X73877714Y-80735714D01*
X73950285Y-80590571D01*
X74022857Y-80518000D01*
X74168000Y-80445428D01*
X74530857Y-80445428D01*
X74748571Y-80518000D01*
X76200000Y-81969428D02*
X75329142Y-81969428D01*
X75764571Y-81969428D02*
X75764571Y-80445428D01*
X75619428Y-80663142D01*
X75474285Y-80808285D01*
X75329142Y-80880857D01*
%TO.C,KLFunc45*%
X87557428Y-120069428D02*
X87557428Y-118545428D01*
X88428285Y-120069428D02*
X87775142Y-119198571D01*
X88428285Y-118545428D02*
X87557428Y-119416285D01*
X89807142Y-120069428D02*
X89081428Y-120069428D01*
X89081428Y-118545428D01*
X90823142Y-119271142D02*
X90315142Y-119271142D01*
X90315142Y-120069428D02*
X90315142Y-118545428D01*
X91040857Y-118545428D01*
X92274571Y-119053428D02*
X92274571Y-120069428D01*
X91621428Y-119053428D02*
X91621428Y-119851714D01*
X91694000Y-119996857D01*
X91839142Y-120069428D01*
X92056857Y-120069428D01*
X92202000Y-119996857D01*
X92274571Y-119924285D01*
X93000285Y-119053428D02*
X93000285Y-120069428D01*
X93000285Y-119198571D02*
X93072857Y-119126000D01*
X93218000Y-119053428D01*
X93435714Y-119053428D01*
X93580857Y-119126000D01*
X93653428Y-119271142D01*
X93653428Y-120069428D01*
X95032285Y-119996857D02*
X94887142Y-120069428D01*
X94596857Y-120069428D01*
X94451714Y-119996857D01*
X94379142Y-119924285D01*
X94306571Y-119779142D01*
X94306571Y-119343714D01*
X94379142Y-119198571D01*
X94451714Y-119126000D01*
X94596857Y-119053428D01*
X94887142Y-119053428D01*
X95032285Y-119126000D01*
X96338571Y-119053428D02*
X96338571Y-120069428D01*
X95975714Y-118472857D02*
X95612857Y-119561428D01*
X96556285Y-119561428D01*
X97862571Y-118545428D02*
X97136857Y-118545428D01*
X97064285Y-119271142D01*
X97136857Y-119198571D01*
X97282000Y-119126000D01*
X97644857Y-119126000D01*
X97790000Y-119198571D01*
X97862571Y-119271142D01*
X97935142Y-119416285D01*
X97935142Y-119779142D01*
X97862571Y-119924285D01*
X97790000Y-119996857D01*
X97644857Y-120069428D01*
X97282000Y-120069428D01*
X97136857Y-119996857D01*
X97064285Y-119924285D01*
%TO.C,KLT1*%
X128487714Y-62919428D02*
X128487714Y-61395428D01*
X129358571Y-62919428D02*
X128705428Y-62048571D01*
X129358571Y-61395428D02*
X128487714Y-62266285D01*
X130737428Y-62919428D02*
X130011714Y-62919428D01*
X130011714Y-61395428D01*
X131027714Y-61395428D02*
X131898571Y-61395428D01*
X131463142Y-62919428D02*
X131463142Y-61395428D01*
X133204857Y-62919428D02*
X132334000Y-62919428D01*
X132769428Y-62919428D02*
X132769428Y-61395428D01*
X132624285Y-61613142D01*
X132479142Y-61758285D01*
X132334000Y-61830857D01*
%TO.C,KL5*%
X129068285Y-43869428D02*
X129068285Y-42345428D01*
X129939142Y-43869428D02*
X129286000Y-42998571D01*
X129939142Y-42345428D02*
X129068285Y-43216285D01*
X131318000Y-43869428D02*
X130592285Y-43869428D01*
X130592285Y-42345428D01*
X132551714Y-42345428D02*
X131826000Y-42345428D01*
X131753428Y-43071142D01*
X131826000Y-42998571D01*
X131971142Y-42926000D01*
X132334000Y-42926000D01*
X132479142Y-42998571D01*
X132551714Y-43071142D01*
X132624285Y-43216285D01*
X132624285Y-43579142D01*
X132551714Y-43724285D01*
X132479142Y-43796857D01*
X132334000Y-43869428D01*
X131971142Y-43869428D01*
X131826000Y-43796857D01*
X131753428Y-43724285D01*
%TO.C,KLG1*%
X128306285Y-81969428D02*
X128306285Y-80445428D01*
X129177142Y-81969428D02*
X128524000Y-81098571D01*
X129177142Y-80445428D02*
X128306285Y-81316285D01*
X130556000Y-81969428D02*
X129830285Y-81969428D01*
X129830285Y-80445428D01*
X131862285Y-80518000D02*
X131717142Y-80445428D01*
X131499428Y-80445428D01*
X131281714Y-80518000D01*
X131136571Y-80663142D01*
X131064000Y-80808285D01*
X130991428Y-81098571D01*
X130991428Y-81316285D01*
X131064000Y-81606571D01*
X131136571Y-81751714D01*
X131281714Y-81896857D01*
X131499428Y-81969428D01*
X131644571Y-81969428D01*
X131862285Y-81896857D01*
X131934857Y-81824285D01*
X131934857Y-81316285D01*
X131644571Y-81316285D01*
X133386285Y-81969428D02*
X132515428Y-81969428D01*
X132950857Y-81969428D02*
X132950857Y-80445428D01*
X132805714Y-80663142D01*
X132660571Y-80808285D01*
X132515428Y-80880857D01*
%TO.C,DL65*%
D11*
X124492380Y-127872857D02*
X124492380Y-128444285D01*
X124492380Y-128158571D02*
X123492380Y-128158571D01*
X123635238Y-128253809D01*
X123730476Y-128349047D01*
X123778095Y-128444285D01*
X124492380Y-127444285D02*
X123492380Y-127444285D01*
X124492380Y-126872857D01*
X123492380Y-126872857D01*
X123825714Y-125968095D02*
X124492380Y-125968095D01*
X123444761Y-126206190D02*
X124159047Y-126444285D01*
X124159047Y-125825238D01*
X124492380Y-124920476D02*
X124492380Y-125491904D01*
X124492380Y-125206190D02*
X123492380Y-125206190D01*
X123635238Y-125301428D01*
X123730476Y-125396666D01*
X123778095Y-125491904D01*
X123825714Y-124063333D02*
X124492380Y-124063333D01*
X123444761Y-124301428D02*
X124159047Y-124539523D01*
X124159047Y-123920476D01*
X123920952Y-123396666D02*
X123873333Y-123491904D01*
X123825714Y-123539523D01*
X123730476Y-123587142D01*
X123682857Y-123587142D01*
X123587619Y-123539523D01*
X123540000Y-123491904D01*
X123492380Y-123396666D01*
X123492380Y-123206190D01*
X123540000Y-123110952D01*
X123587619Y-123063333D01*
X123682857Y-123015714D01*
X123730476Y-123015714D01*
X123825714Y-123063333D01*
X123873333Y-123110952D01*
X123920952Y-123206190D01*
X123920952Y-123396666D01*
X123968571Y-123491904D01*
X124016190Y-123539523D01*
X124111428Y-123587142D01*
X124301904Y-123587142D01*
X124397142Y-123539523D01*
X124444761Y-123491904D01*
X124492380Y-123396666D01*
X124492380Y-123206190D01*
X124444761Y-123110952D01*
X124397142Y-123063333D01*
X124301904Y-123015714D01*
X124111428Y-123015714D01*
X124016190Y-123063333D01*
X123968571Y-123110952D01*
X123920952Y-123206190D01*
D13*
X122281904Y-126725238D02*
X121481904Y-126725238D01*
X121481904Y-126534761D01*
X121520000Y-126420476D01*
X121596190Y-126344285D01*
X121672380Y-126306190D01*
X121824761Y-126268095D01*
X121939047Y-126268095D01*
X122091428Y-126306190D01*
X122167619Y-126344285D01*
X122243809Y-126420476D01*
X122281904Y-126534761D01*
X122281904Y-126725238D01*
X122281904Y-125544285D02*
X122281904Y-125925238D01*
X121481904Y-125925238D01*
X121481904Y-124934761D02*
X121481904Y-125087142D01*
X121520000Y-125163333D01*
X121558095Y-125201428D01*
X121672380Y-125277619D01*
X121824761Y-125315714D01*
X122129523Y-125315714D01*
X122205714Y-125277619D01*
X122243809Y-125239523D01*
X122281904Y-125163333D01*
X122281904Y-125010952D01*
X122243809Y-124934761D01*
X122205714Y-124896666D01*
X122129523Y-124858571D01*
X121939047Y-124858571D01*
X121862857Y-124896666D01*
X121824761Y-124934761D01*
X121786666Y-125010952D01*
X121786666Y-125163333D01*
X121824761Y-125239523D01*
X121862857Y-125277619D01*
X121939047Y-125315714D01*
X121481904Y-124134761D02*
X121481904Y-124515714D01*
X121862857Y-124553809D01*
X121824761Y-124515714D01*
X121786666Y-124439523D01*
X121786666Y-124249047D01*
X121824761Y-124172857D01*
X121862857Y-124134761D01*
X121939047Y-124096666D01*
X122129523Y-124096666D01*
X122205714Y-124134761D01*
X122243809Y-124172857D01*
X122281904Y-124249047D01*
X122281904Y-124439523D01*
X122243809Y-124515714D01*
X122205714Y-124553809D01*
D11*
X120572380Y-129801904D02*
X119572380Y-129801904D01*
X120572380Y-129230476D02*
X120000952Y-129659047D01*
X119572380Y-129230476D02*
X120143809Y-129801904D01*
%TO.C,DL64*%
X124492380Y-108822857D02*
X124492380Y-109394285D01*
X124492380Y-109108571D02*
X123492380Y-109108571D01*
X123635238Y-109203809D01*
X123730476Y-109299047D01*
X123778095Y-109394285D01*
X124492380Y-108394285D02*
X123492380Y-108394285D01*
X124492380Y-107822857D01*
X123492380Y-107822857D01*
X123825714Y-106918095D02*
X124492380Y-106918095D01*
X123444761Y-107156190D02*
X124159047Y-107394285D01*
X124159047Y-106775238D01*
X124492380Y-105870476D02*
X124492380Y-106441904D01*
X124492380Y-106156190D02*
X123492380Y-106156190D01*
X123635238Y-106251428D01*
X123730476Y-106346666D01*
X123778095Y-106441904D01*
X123825714Y-105013333D02*
X124492380Y-105013333D01*
X123444761Y-105251428D02*
X124159047Y-105489523D01*
X124159047Y-104870476D01*
X123920952Y-104346666D02*
X123873333Y-104441904D01*
X123825714Y-104489523D01*
X123730476Y-104537142D01*
X123682857Y-104537142D01*
X123587619Y-104489523D01*
X123540000Y-104441904D01*
X123492380Y-104346666D01*
X123492380Y-104156190D01*
X123540000Y-104060952D01*
X123587619Y-104013333D01*
X123682857Y-103965714D01*
X123730476Y-103965714D01*
X123825714Y-104013333D01*
X123873333Y-104060952D01*
X123920952Y-104156190D01*
X123920952Y-104346666D01*
X123968571Y-104441904D01*
X124016190Y-104489523D01*
X124111428Y-104537142D01*
X124301904Y-104537142D01*
X124397142Y-104489523D01*
X124444761Y-104441904D01*
X124492380Y-104346666D01*
X124492380Y-104156190D01*
X124444761Y-104060952D01*
X124397142Y-104013333D01*
X124301904Y-103965714D01*
X124111428Y-103965714D01*
X124016190Y-104013333D01*
X123968571Y-104060952D01*
X123920952Y-104156190D01*
X120572380Y-110751904D02*
X119572380Y-110751904D01*
X120572380Y-110180476D02*
X120000952Y-110609047D01*
X119572380Y-110180476D02*
X120143809Y-110751904D01*
D13*
X122281904Y-107675238D02*
X121481904Y-107675238D01*
X121481904Y-107484761D01*
X121520000Y-107370476D01*
X121596190Y-107294285D01*
X121672380Y-107256190D01*
X121824761Y-107218095D01*
X121939047Y-107218095D01*
X122091428Y-107256190D01*
X122167619Y-107294285D01*
X122243809Y-107370476D01*
X122281904Y-107484761D01*
X122281904Y-107675238D01*
X122281904Y-106494285D02*
X122281904Y-106875238D01*
X121481904Y-106875238D01*
X121481904Y-105884761D02*
X121481904Y-106037142D01*
X121520000Y-106113333D01*
X121558095Y-106151428D01*
X121672380Y-106227619D01*
X121824761Y-106265714D01*
X122129523Y-106265714D01*
X122205714Y-106227619D01*
X122243809Y-106189523D01*
X122281904Y-106113333D01*
X122281904Y-105960952D01*
X122243809Y-105884761D01*
X122205714Y-105846666D01*
X122129523Y-105808571D01*
X121939047Y-105808571D01*
X121862857Y-105846666D01*
X121824761Y-105884761D01*
X121786666Y-105960952D01*
X121786666Y-106113333D01*
X121824761Y-106189523D01*
X121862857Y-106227619D01*
X121939047Y-106265714D01*
X121748571Y-105122857D02*
X122281904Y-105122857D01*
X121443809Y-105313333D02*
X122015238Y-105503809D01*
X122015238Y-105008571D01*
%TO.C,DL63*%
D11*
X124492380Y-89772857D02*
X124492380Y-90344285D01*
X124492380Y-90058571D02*
X123492380Y-90058571D01*
X123635238Y-90153809D01*
X123730476Y-90249047D01*
X123778095Y-90344285D01*
X124492380Y-89344285D02*
X123492380Y-89344285D01*
X124492380Y-88772857D01*
X123492380Y-88772857D01*
X123825714Y-87868095D02*
X124492380Y-87868095D01*
X123444761Y-88106190D02*
X124159047Y-88344285D01*
X124159047Y-87725238D01*
X124492380Y-86820476D02*
X124492380Y-87391904D01*
X124492380Y-87106190D02*
X123492380Y-87106190D01*
X123635238Y-87201428D01*
X123730476Y-87296666D01*
X123778095Y-87391904D01*
X123825714Y-85963333D02*
X124492380Y-85963333D01*
X123444761Y-86201428D02*
X124159047Y-86439523D01*
X124159047Y-85820476D01*
X123920952Y-85296666D02*
X123873333Y-85391904D01*
X123825714Y-85439523D01*
X123730476Y-85487142D01*
X123682857Y-85487142D01*
X123587619Y-85439523D01*
X123540000Y-85391904D01*
X123492380Y-85296666D01*
X123492380Y-85106190D01*
X123540000Y-85010952D01*
X123587619Y-84963333D01*
X123682857Y-84915714D01*
X123730476Y-84915714D01*
X123825714Y-84963333D01*
X123873333Y-85010952D01*
X123920952Y-85106190D01*
X123920952Y-85296666D01*
X123968571Y-85391904D01*
X124016190Y-85439523D01*
X124111428Y-85487142D01*
X124301904Y-85487142D01*
X124397142Y-85439523D01*
X124444761Y-85391904D01*
X124492380Y-85296666D01*
X124492380Y-85106190D01*
X124444761Y-85010952D01*
X124397142Y-84963333D01*
X124301904Y-84915714D01*
X124111428Y-84915714D01*
X124016190Y-84963333D01*
X123968571Y-85010952D01*
X123920952Y-85106190D01*
D13*
X122281904Y-88625238D02*
X121481904Y-88625238D01*
X121481904Y-88434761D01*
X121520000Y-88320476D01*
X121596190Y-88244285D01*
X121672380Y-88206190D01*
X121824761Y-88168095D01*
X121939047Y-88168095D01*
X122091428Y-88206190D01*
X122167619Y-88244285D01*
X122243809Y-88320476D01*
X122281904Y-88434761D01*
X122281904Y-88625238D01*
X122281904Y-87444285D02*
X122281904Y-87825238D01*
X121481904Y-87825238D01*
X121481904Y-86834761D02*
X121481904Y-86987142D01*
X121520000Y-87063333D01*
X121558095Y-87101428D01*
X121672380Y-87177619D01*
X121824761Y-87215714D01*
X122129523Y-87215714D01*
X122205714Y-87177619D01*
X122243809Y-87139523D01*
X122281904Y-87063333D01*
X122281904Y-86910952D01*
X122243809Y-86834761D01*
X122205714Y-86796666D01*
X122129523Y-86758571D01*
X121939047Y-86758571D01*
X121862857Y-86796666D01*
X121824761Y-86834761D01*
X121786666Y-86910952D01*
X121786666Y-87063333D01*
X121824761Y-87139523D01*
X121862857Y-87177619D01*
X121939047Y-87215714D01*
X121481904Y-86491904D02*
X121481904Y-85996666D01*
X121786666Y-86263333D01*
X121786666Y-86149047D01*
X121824761Y-86072857D01*
X121862857Y-86034761D01*
X121939047Y-85996666D01*
X122129523Y-85996666D01*
X122205714Y-86034761D01*
X122243809Y-86072857D01*
X122281904Y-86149047D01*
X122281904Y-86377619D01*
X122243809Y-86453809D01*
X122205714Y-86491904D01*
D11*
X120572380Y-91701904D02*
X119572380Y-91701904D01*
X120572380Y-91130476D02*
X120000952Y-91559047D01*
X119572380Y-91130476D02*
X120143809Y-91701904D01*
%TO.C,DL62*%
X124492380Y-70722857D02*
X124492380Y-71294285D01*
X124492380Y-71008571D02*
X123492380Y-71008571D01*
X123635238Y-71103809D01*
X123730476Y-71199047D01*
X123778095Y-71294285D01*
X124492380Y-70294285D02*
X123492380Y-70294285D01*
X124492380Y-69722857D01*
X123492380Y-69722857D01*
X123825714Y-68818095D02*
X124492380Y-68818095D01*
X123444761Y-69056190D02*
X124159047Y-69294285D01*
X124159047Y-68675238D01*
X124492380Y-67770476D02*
X124492380Y-68341904D01*
X124492380Y-68056190D02*
X123492380Y-68056190D01*
X123635238Y-68151428D01*
X123730476Y-68246666D01*
X123778095Y-68341904D01*
X123825714Y-66913333D02*
X124492380Y-66913333D01*
X123444761Y-67151428D02*
X124159047Y-67389523D01*
X124159047Y-66770476D01*
X123920952Y-66246666D02*
X123873333Y-66341904D01*
X123825714Y-66389523D01*
X123730476Y-66437142D01*
X123682857Y-66437142D01*
X123587619Y-66389523D01*
X123540000Y-66341904D01*
X123492380Y-66246666D01*
X123492380Y-66056190D01*
X123540000Y-65960952D01*
X123587619Y-65913333D01*
X123682857Y-65865714D01*
X123730476Y-65865714D01*
X123825714Y-65913333D01*
X123873333Y-65960952D01*
X123920952Y-66056190D01*
X123920952Y-66246666D01*
X123968571Y-66341904D01*
X124016190Y-66389523D01*
X124111428Y-66437142D01*
X124301904Y-66437142D01*
X124397142Y-66389523D01*
X124444761Y-66341904D01*
X124492380Y-66246666D01*
X124492380Y-66056190D01*
X124444761Y-65960952D01*
X124397142Y-65913333D01*
X124301904Y-65865714D01*
X124111428Y-65865714D01*
X124016190Y-65913333D01*
X123968571Y-65960952D01*
X123920952Y-66056190D01*
D13*
X122281904Y-69575238D02*
X121481904Y-69575238D01*
X121481904Y-69384761D01*
X121520000Y-69270476D01*
X121596190Y-69194285D01*
X121672380Y-69156190D01*
X121824761Y-69118095D01*
X121939047Y-69118095D01*
X122091428Y-69156190D01*
X122167619Y-69194285D01*
X122243809Y-69270476D01*
X122281904Y-69384761D01*
X122281904Y-69575238D01*
X122281904Y-68394285D02*
X122281904Y-68775238D01*
X121481904Y-68775238D01*
X121481904Y-67784761D02*
X121481904Y-67937142D01*
X121520000Y-68013333D01*
X121558095Y-68051428D01*
X121672380Y-68127619D01*
X121824761Y-68165714D01*
X122129523Y-68165714D01*
X122205714Y-68127619D01*
X122243809Y-68089523D01*
X122281904Y-68013333D01*
X122281904Y-67860952D01*
X122243809Y-67784761D01*
X122205714Y-67746666D01*
X122129523Y-67708571D01*
X121939047Y-67708571D01*
X121862857Y-67746666D01*
X121824761Y-67784761D01*
X121786666Y-67860952D01*
X121786666Y-68013333D01*
X121824761Y-68089523D01*
X121862857Y-68127619D01*
X121939047Y-68165714D01*
X121558095Y-67403809D02*
X121520000Y-67365714D01*
X121481904Y-67289523D01*
X121481904Y-67099047D01*
X121520000Y-67022857D01*
X121558095Y-66984761D01*
X121634285Y-66946666D01*
X121710476Y-66946666D01*
X121824761Y-66984761D01*
X122281904Y-67441904D01*
X122281904Y-66946666D01*
D11*
X120572380Y-72651904D02*
X119572380Y-72651904D01*
X120572380Y-72080476D02*
X120000952Y-72509047D01*
X119572380Y-72080476D02*
X120143809Y-72651904D01*
%TO.C,DL61*%
X124492380Y-51672857D02*
X124492380Y-52244285D01*
X124492380Y-51958571D02*
X123492380Y-51958571D01*
X123635238Y-52053809D01*
X123730476Y-52149047D01*
X123778095Y-52244285D01*
X124492380Y-51244285D02*
X123492380Y-51244285D01*
X124492380Y-50672857D01*
X123492380Y-50672857D01*
X123825714Y-49768095D02*
X124492380Y-49768095D01*
X123444761Y-50006190D02*
X124159047Y-50244285D01*
X124159047Y-49625238D01*
X124492380Y-48720476D02*
X124492380Y-49291904D01*
X124492380Y-49006190D02*
X123492380Y-49006190D01*
X123635238Y-49101428D01*
X123730476Y-49196666D01*
X123778095Y-49291904D01*
X123825714Y-47863333D02*
X124492380Y-47863333D01*
X123444761Y-48101428D02*
X124159047Y-48339523D01*
X124159047Y-47720476D01*
X123920952Y-47196666D02*
X123873333Y-47291904D01*
X123825714Y-47339523D01*
X123730476Y-47387142D01*
X123682857Y-47387142D01*
X123587619Y-47339523D01*
X123540000Y-47291904D01*
X123492380Y-47196666D01*
X123492380Y-47006190D01*
X123540000Y-46910952D01*
X123587619Y-46863333D01*
X123682857Y-46815714D01*
X123730476Y-46815714D01*
X123825714Y-46863333D01*
X123873333Y-46910952D01*
X123920952Y-47006190D01*
X123920952Y-47196666D01*
X123968571Y-47291904D01*
X124016190Y-47339523D01*
X124111428Y-47387142D01*
X124301904Y-47387142D01*
X124397142Y-47339523D01*
X124444761Y-47291904D01*
X124492380Y-47196666D01*
X124492380Y-47006190D01*
X124444761Y-46910952D01*
X124397142Y-46863333D01*
X124301904Y-46815714D01*
X124111428Y-46815714D01*
X124016190Y-46863333D01*
X123968571Y-46910952D01*
X123920952Y-47006190D01*
D13*
X122281904Y-50525238D02*
X121481904Y-50525238D01*
X121481904Y-50334761D01*
X121520000Y-50220476D01*
X121596190Y-50144285D01*
X121672380Y-50106190D01*
X121824761Y-50068095D01*
X121939047Y-50068095D01*
X122091428Y-50106190D01*
X122167619Y-50144285D01*
X122243809Y-50220476D01*
X122281904Y-50334761D01*
X122281904Y-50525238D01*
X122281904Y-49344285D02*
X122281904Y-49725238D01*
X121481904Y-49725238D01*
X121481904Y-48734761D02*
X121481904Y-48887142D01*
X121520000Y-48963333D01*
X121558095Y-49001428D01*
X121672380Y-49077619D01*
X121824761Y-49115714D01*
X122129523Y-49115714D01*
X122205714Y-49077619D01*
X122243809Y-49039523D01*
X122281904Y-48963333D01*
X122281904Y-48810952D01*
X122243809Y-48734761D01*
X122205714Y-48696666D01*
X122129523Y-48658571D01*
X121939047Y-48658571D01*
X121862857Y-48696666D01*
X121824761Y-48734761D01*
X121786666Y-48810952D01*
X121786666Y-48963333D01*
X121824761Y-49039523D01*
X121862857Y-49077619D01*
X121939047Y-49115714D01*
X122281904Y-47896666D02*
X122281904Y-48353809D01*
X122281904Y-48125238D02*
X121481904Y-48125238D01*
X121596190Y-48201428D01*
X121672380Y-48277619D01*
X121710476Y-48353809D01*
D11*
X120572380Y-53601904D02*
X119572380Y-53601904D01*
X120572380Y-53030476D02*
X120000952Y-53459047D01*
X119572380Y-53030476D02*
X120143809Y-53601904D01*
%TO.C,DL55*%
X105442380Y-127872857D02*
X105442380Y-128444285D01*
X105442380Y-128158571D02*
X104442380Y-128158571D01*
X104585238Y-128253809D01*
X104680476Y-128349047D01*
X104728095Y-128444285D01*
X105442380Y-127444285D02*
X104442380Y-127444285D01*
X105442380Y-126872857D01*
X104442380Y-126872857D01*
X104775714Y-125968095D02*
X105442380Y-125968095D01*
X104394761Y-126206190D02*
X105109047Y-126444285D01*
X105109047Y-125825238D01*
X105442380Y-124920476D02*
X105442380Y-125491904D01*
X105442380Y-125206190D02*
X104442380Y-125206190D01*
X104585238Y-125301428D01*
X104680476Y-125396666D01*
X104728095Y-125491904D01*
X104775714Y-124063333D02*
X105442380Y-124063333D01*
X104394761Y-124301428D02*
X105109047Y-124539523D01*
X105109047Y-123920476D01*
X104870952Y-123396666D02*
X104823333Y-123491904D01*
X104775714Y-123539523D01*
X104680476Y-123587142D01*
X104632857Y-123587142D01*
X104537619Y-123539523D01*
X104490000Y-123491904D01*
X104442380Y-123396666D01*
X104442380Y-123206190D01*
X104490000Y-123110952D01*
X104537619Y-123063333D01*
X104632857Y-123015714D01*
X104680476Y-123015714D01*
X104775714Y-123063333D01*
X104823333Y-123110952D01*
X104870952Y-123206190D01*
X104870952Y-123396666D01*
X104918571Y-123491904D01*
X104966190Y-123539523D01*
X105061428Y-123587142D01*
X105251904Y-123587142D01*
X105347142Y-123539523D01*
X105394761Y-123491904D01*
X105442380Y-123396666D01*
X105442380Y-123206190D01*
X105394761Y-123110952D01*
X105347142Y-123063333D01*
X105251904Y-123015714D01*
X105061428Y-123015714D01*
X104966190Y-123063333D01*
X104918571Y-123110952D01*
X104870952Y-123206190D01*
X101522380Y-129801904D02*
X100522380Y-129801904D01*
X101522380Y-129230476D02*
X100950952Y-129659047D01*
X100522380Y-129230476D02*
X101093809Y-129801904D01*
D13*
X103231904Y-126725238D02*
X102431904Y-126725238D01*
X102431904Y-126534761D01*
X102470000Y-126420476D01*
X102546190Y-126344285D01*
X102622380Y-126306190D01*
X102774761Y-126268095D01*
X102889047Y-126268095D01*
X103041428Y-126306190D01*
X103117619Y-126344285D01*
X103193809Y-126420476D01*
X103231904Y-126534761D01*
X103231904Y-126725238D01*
X103231904Y-125544285D02*
X103231904Y-125925238D01*
X102431904Y-125925238D01*
X102431904Y-124896666D02*
X102431904Y-125277619D01*
X102812857Y-125315714D01*
X102774761Y-125277619D01*
X102736666Y-125201428D01*
X102736666Y-125010952D01*
X102774761Y-124934761D01*
X102812857Y-124896666D01*
X102889047Y-124858571D01*
X103079523Y-124858571D01*
X103155714Y-124896666D01*
X103193809Y-124934761D01*
X103231904Y-125010952D01*
X103231904Y-125201428D01*
X103193809Y-125277619D01*
X103155714Y-125315714D01*
X102431904Y-124134761D02*
X102431904Y-124515714D01*
X102812857Y-124553809D01*
X102774761Y-124515714D01*
X102736666Y-124439523D01*
X102736666Y-124249047D01*
X102774761Y-124172857D01*
X102812857Y-124134761D01*
X102889047Y-124096666D01*
X103079523Y-124096666D01*
X103155714Y-124134761D01*
X103193809Y-124172857D01*
X103231904Y-124249047D01*
X103231904Y-124439523D01*
X103193809Y-124515714D01*
X103155714Y-124553809D01*
%TO.C,DL54*%
D11*
X105442380Y-108822857D02*
X105442380Y-109394285D01*
X105442380Y-109108571D02*
X104442380Y-109108571D01*
X104585238Y-109203809D01*
X104680476Y-109299047D01*
X104728095Y-109394285D01*
X105442380Y-108394285D02*
X104442380Y-108394285D01*
X105442380Y-107822857D01*
X104442380Y-107822857D01*
X104775714Y-106918095D02*
X105442380Y-106918095D01*
X104394761Y-107156190D02*
X105109047Y-107394285D01*
X105109047Y-106775238D01*
X105442380Y-105870476D02*
X105442380Y-106441904D01*
X105442380Y-106156190D02*
X104442380Y-106156190D01*
X104585238Y-106251428D01*
X104680476Y-106346666D01*
X104728095Y-106441904D01*
X104775714Y-105013333D02*
X105442380Y-105013333D01*
X104394761Y-105251428D02*
X105109047Y-105489523D01*
X105109047Y-104870476D01*
X104870952Y-104346666D02*
X104823333Y-104441904D01*
X104775714Y-104489523D01*
X104680476Y-104537142D01*
X104632857Y-104537142D01*
X104537619Y-104489523D01*
X104490000Y-104441904D01*
X104442380Y-104346666D01*
X104442380Y-104156190D01*
X104490000Y-104060952D01*
X104537619Y-104013333D01*
X104632857Y-103965714D01*
X104680476Y-103965714D01*
X104775714Y-104013333D01*
X104823333Y-104060952D01*
X104870952Y-104156190D01*
X104870952Y-104346666D01*
X104918571Y-104441904D01*
X104966190Y-104489523D01*
X105061428Y-104537142D01*
X105251904Y-104537142D01*
X105347142Y-104489523D01*
X105394761Y-104441904D01*
X105442380Y-104346666D01*
X105442380Y-104156190D01*
X105394761Y-104060952D01*
X105347142Y-104013333D01*
X105251904Y-103965714D01*
X105061428Y-103965714D01*
X104966190Y-104013333D01*
X104918571Y-104060952D01*
X104870952Y-104156190D01*
D13*
X103231904Y-107675238D02*
X102431904Y-107675238D01*
X102431904Y-107484761D01*
X102470000Y-107370476D01*
X102546190Y-107294285D01*
X102622380Y-107256190D01*
X102774761Y-107218095D01*
X102889047Y-107218095D01*
X103041428Y-107256190D01*
X103117619Y-107294285D01*
X103193809Y-107370476D01*
X103231904Y-107484761D01*
X103231904Y-107675238D01*
X103231904Y-106494285D02*
X103231904Y-106875238D01*
X102431904Y-106875238D01*
X102431904Y-105846666D02*
X102431904Y-106227619D01*
X102812857Y-106265714D01*
X102774761Y-106227619D01*
X102736666Y-106151428D01*
X102736666Y-105960952D01*
X102774761Y-105884761D01*
X102812857Y-105846666D01*
X102889047Y-105808571D01*
X103079523Y-105808571D01*
X103155714Y-105846666D01*
X103193809Y-105884761D01*
X103231904Y-105960952D01*
X103231904Y-106151428D01*
X103193809Y-106227619D01*
X103155714Y-106265714D01*
X102698571Y-105122857D02*
X103231904Y-105122857D01*
X102393809Y-105313333D02*
X102965238Y-105503809D01*
X102965238Y-105008571D01*
D11*
X101522380Y-110751904D02*
X100522380Y-110751904D01*
X101522380Y-110180476D02*
X100950952Y-110609047D01*
X100522380Y-110180476D02*
X101093809Y-110751904D01*
%TO.C,DL53*%
X105442380Y-89772857D02*
X105442380Y-90344285D01*
X105442380Y-90058571D02*
X104442380Y-90058571D01*
X104585238Y-90153809D01*
X104680476Y-90249047D01*
X104728095Y-90344285D01*
X105442380Y-89344285D02*
X104442380Y-89344285D01*
X105442380Y-88772857D01*
X104442380Y-88772857D01*
X104775714Y-87868095D02*
X105442380Y-87868095D01*
X104394761Y-88106190D02*
X105109047Y-88344285D01*
X105109047Y-87725238D01*
X105442380Y-86820476D02*
X105442380Y-87391904D01*
X105442380Y-87106190D02*
X104442380Y-87106190D01*
X104585238Y-87201428D01*
X104680476Y-87296666D01*
X104728095Y-87391904D01*
X104775714Y-85963333D02*
X105442380Y-85963333D01*
X104394761Y-86201428D02*
X105109047Y-86439523D01*
X105109047Y-85820476D01*
X104870952Y-85296666D02*
X104823333Y-85391904D01*
X104775714Y-85439523D01*
X104680476Y-85487142D01*
X104632857Y-85487142D01*
X104537619Y-85439523D01*
X104490000Y-85391904D01*
X104442380Y-85296666D01*
X104442380Y-85106190D01*
X104490000Y-85010952D01*
X104537619Y-84963333D01*
X104632857Y-84915714D01*
X104680476Y-84915714D01*
X104775714Y-84963333D01*
X104823333Y-85010952D01*
X104870952Y-85106190D01*
X104870952Y-85296666D01*
X104918571Y-85391904D01*
X104966190Y-85439523D01*
X105061428Y-85487142D01*
X105251904Y-85487142D01*
X105347142Y-85439523D01*
X105394761Y-85391904D01*
X105442380Y-85296666D01*
X105442380Y-85106190D01*
X105394761Y-85010952D01*
X105347142Y-84963333D01*
X105251904Y-84915714D01*
X105061428Y-84915714D01*
X104966190Y-84963333D01*
X104918571Y-85010952D01*
X104870952Y-85106190D01*
X101522380Y-91701904D02*
X100522380Y-91701904D01*
X101522380Y-91130476D02*
X100950952Y-91559047D01*
X100522380Y-91130476D02*
X101093809Y-91701904D01*
D13*
X103231904Y-88625238D02*
X102431904Y-88625238D01*
X102431904Y-88434761D01*
X102470000Y-88320476D01*
X102546190Y-88244285D01*
X102622380Y-88206190D01*
X102774761Y-88168095D01*
X102889047Y-88168095D01*
X103041428Y-88206190D01*
X103117619Y-88244285D01*
X103193809Y-88320476D01*
X103231904Y-88434761D01*
X103231904Y-88625238D01*
X103231904Y-87444285D02*
X103231904Y-87825238D01*
X102431904Y-87825238D01*
X102431904Y-86796666D02*
X102431904Y-87177619D01*
X102812857Y-87215714D01*
X102774761Y-87177619D01*
X102736666Y-87101428D01*
X102736666Y-86910952D01*
X102774761Y-86834761D01*
X102812857Y-86796666D01*
X102889047Y-86758571D01*
X103079523Y-86758571D01*
X103155714Y-86796666D01*
X103193809Y-86834761D01*
X103231904Y-86910952D01*
X103231904Y-87101428D01*
X103193809Y-87177619D01*
X103155714Y-87215714D01*
X102431904Y-86491904D02*
X102431904Y-85996666D01*
X102736666Y-86263333D01*
X102736666Y-86149047D01*
X102774761Y-86072857D01*
X102812857Y-86034761D01*
X102889047Y-85996666D01*
X103079523Y-85996666D01*
X103155714Y-86034761D01*
X103193809Y-86072857D01*
X103231904Y-86149047D01*
X103231904Y-86377619D01*
X103193809Y-86453809D01*
X103155714Y-86491904D01*
%TO.C,DL52*%
D11*
X105442380Y-70722857D02*
X105442380Y-71294285D01*
X105442380Y-71008571D02*
X104442380Y-71008571D01*
X104585238Y-71103809D01*
X104680476Y-71199047D01*
X104728095Y-71294285D01*
X105442380Y-70294285D02*
X104442380Y-70294285D01*
X105442380Y-69722857D01*
X104442380Y-69722857D01*
X104775714Y-68818095D02*
X105442380Y-68818095D01*
X104394761Y-69056190D02*
X105109047Y-69294285D01*
X105109047Y-68675238D01*
X105442380Y-67770476D02*
X105442380Y-68341904D01*
X105442380Y-68056190D02*
X104442380Y-68056190D01*
X104585238Y-68151428D01*
X104680476Y-68246666D01*
X104728095Y-68341904D01*
X104775714Y-66913333D02*
X105442380Y-66913333D01*
X104394761Y-67151428D02*
X105109047Y-67389523D01*
X105109047Y-66770476D01*
X104870952Y-66246666D02*
X104823333Y-66341904D01*
X104775714Y-66389523D01*
X104680476Y-66437142D01*
X104632857Y-66437142D01*
X104537619Y-66389523D01*
X104490000Y-66341904D01*
X104442380Y-66246666D01*
X104442380Y-66056190D01*
X104490000Y-65960952D01*
X104537619Y-65913333D01*
X104632857Y-65865714D01*
X104680476Y-65865714D01*
X104775714Y-65913333D01*
X104823333Y-65960952D01*
X104870952Y-66056190D01*
X104870952Y-66246666D01*
X104918571Y-66341904D01*
X104966190Y-66389523D01*
X105061428Y-66437142D01*
X105251904Y-66437142D01*
X105347142Y-66389523D01*
X105394761Y-66341904D01*
X105442380Y-66246666D01*
X105442380Y-66056190D01*
X105394761Y-65960952D01*
X105347142Y-65913333D01*
X105251904Y-65865714D01*
X105061428Y-65865714D01*
X104966190Y-65913333D01*
X104918571Y-65960952D01*
X104870952Y-66056190D01*
X101522380Y-72651904D02*
X100522380Y-72651904D01*
X101522380Y-72080476D02*
X100950952Y-72509047D01*
X100522380Y-72080476D02*
X101093809Y-72651904D01*
D13*
X103231904Y-69575238D02*
X102431904Y-69575238D01*
X102431904Y-69384761D01*
X102470000Y-69270476D01*
X102546190Y-69194285D01*
X102622380Y-69156190D01*
X102774761Y-69118095D01*
X102889047Y-69118095D01*
X103041428Y-69156190D01*
X103117619Y-69194285D01*
X103193809Y-69270476D01*
X103231904Y-69384761D01*
X103231904Y-69575238D01*
X103231904Y-68394285D02*
X103231904Y-68775238D01*
X102431904Y-68775238D01*
X102431904Y-67746666D02*
X102431904Y-68127619D01*
X102812857Y-68165714D01*
X102774761Y-68127619D01*
X102736666Y-68051428D01*
X102736666Y-67860952D01*
X102774761Y-67784761D01*
X102812857Y-67746666D01*
X102889047Y-67708571D01*
X103079523Y-67708571D01*
X103155714Y-67746666D01*
X103193809Y-67784761D01*
X103231904Y-67860952D01*
X103231904Y-68051428D01*
X103193809Y-68127619D01*
X103155714Y-68165714D01*
X102508095Y-67403809D02*
X102470000Y-67365714D01*
X102431904Y-67289523D01*
X102431904Y-67099047D01*
X102470000Y-67022857D01*
X102508095Y-66984761D01*
X102584285Y-66946666D01*
X102660476Y-66946666D01*
X102774761Y-66984761D01*
X103231904Y-67441904D01*
X103231904Y-66946666D01*
%TO.C,DL51*%
D11*
X105442380Y-51672857D02*
X105442380Y-52244285D01*
X105442380Y-51958571D02*
X104442380Y-51958571D01*
X104585238Y-52053809D01*
X104680476Y-52149047D01*
X104728095Y-52244285D01*
X105442380Y-51244285D02*
X104442380Y-51244285D01*
X105442380Y-50672857D01*
X104442380Y-50672857D01*
X104775714Y-49768095D02*
X105442380Y-49768095D01*
X104394761Y-50006190D02*
X105109047Y-50244285D01*
X105109047Y-49625238D01*
X105442380Y-48720476D02*
X105442380Y-49291904D01*
X105442380Y-49006190D02*
X104442380Y-49006190D01*
X104585238Y-49101428D01*
X104680476Y-49196666D01*
X104728095Y-49291904D01*
X104775714Y-47863333D02*
X105442380Y-47863333D01*
X104394761Y-48101428D02*
X105109047Y-48339523D01*
X105109047Y-47720476D01*
X104870952Y-47196666D02*
X104823333Y-47291904D01*
X104775714Y-47339523D01*
X104680476Y-47387142D01*
X104632857Y-47387142D01*
X104537619Y-47339523D01*
X104490000Y-47291904D01*
X104442380Y-47196666D01*
X104442380Y-47006190D01*
X104490000Y-46910952D01*
X104537619Y-46863333D01*
X104632857Y-46815714D01*
X104680476Y-46815714D01*
X104775714Y-46863333D01*
X104823333Y-46910952D01*
X104870952Y-47006190D01*
X104870952Y-47196666D01*
X104918571Y-47291904D01*
X104966190Y-47339523D01*
X105061428Y-47387142D01*
X105251904Y-47387142D01*
X105347142Y-47339523D01*
X105394761Y-47291904D01*
X105442380Y-47196666D01*
X105442380Y-47006190D01*
X105394761Y-46910952D01*
X105347142Y-46863333D01*
X105251904Y-46815714D01*
X105061428Y-46815714D01*
X104966190Y-46863333D01*
X104918571Y-46910952D01*
X104870952Y-47006190D01*
X101522380Y-53601904D02*
X100522380Y-53601904D01*
X101522380Y-53030476D02*
X100950952Y-53459047D01*
X100522380Y-53030476D02*
X101093809Y-53601904D01*
D13*
X103231904Y-50525238D02*
X102431904Y-50525238D01*
X102431904Y-50334761D01*
X102470000Y-50220476D01*
X102546190Y-50144285D01*
X102622380Y-50106190D01*
X102774761Y-50068095D01*
X102889047Y-50068095D01*
X103041428Y-50106190D01*
X103117619Y-50144285D01*
X103193809Y-50220476D01*
X103231904Y-50334761D01*
X103231904Y-50525238D01*
X103231904Y-49344285D02*
X103231904Y-49725238D01*
X102431904Y-49725238D01*
X102431904Y-48696666D02*
X102431904Y-49077619D01*
X102812857Y-49115714D01*
X102774761Y-49077619D01*
X102736666Y-49001428D01*
X102736666Y-48810952D01*
X102774761Y-48734761D01*
X102812857Y-48696666D01*
X102889047Y-48658571D01*
X103079523Y-48658571D01*
X103155714Y-48696666D01*
X103193809Y-48734761D01*
X103231904Y-48810952D01*
X103231904Y-49001428D01*
X103193809Y-49077619D01*
X103155714Y-49115714D01*
X103231904Y-47896666D02*
X103231904Y-48353809D01*
X103231904Y-48125238D02*
X102431904Y-48125238D01*
X102546190Y-48201428D01*
X102622380Y-48277619D01*
X102660476Y-48353809D01*
%TO.C,DL45*%
D11*
X86187381Y-127872857D02*
X86187381Y-128444285D01*
X86187381Y-128158571D02*
X85187381Y-128158571D01*
X85330239Y-128253809D01*
X85425477Y-128349047D01*
X85473096Y-128444285D01*
X86187381Y-127444285D02*
X85187381Y-127444285D01*
X86187381Y-126872857D01*
X85187381Y-126872857D01*
X85520715Y-125968095D02*
X86187381Y-125968095D01*
X85139762Y-126206190D02*
X85854048Y-126444285D01*
X85854048Y-125825238D01*
X86187381Y-124920476D02*
X86187381Y-125491904D01*
X86187381Y-125206190D02*
X85187381Y-125206190D01*
X85330239Y-125301428D01*
X85425477Y-125396666D01*
X85473096Y-125491904D01*
X85520715Y-124063333D02*
X86187381Y-124063333D01*
X85139762Y-124301428D02*
X85854048Y-124539523D01*
X85854048Y-123920476D01*
X85615953Y-123396666D02*
X85568334Y-123491904D01*
X85520715Y-123539523D01*
X85425477Y-123587142D01*
X85377858Y-123587142D01*
X85282620Y-123539523D01*
X85235001Y-123491904D01*
X85187381Y-123396666D01*
X85187381Y-123206190D01*
X85235001Y-123110952D01*
X85282620Y-123063333D01*
X85377858Y-123015714D01*
X85425477Y-123015714D01*
X85520715Y-123063333D01*
X85568334Y-123110952D01*
X85615953Y-123206190D01*
X85615953Y-123396666D01*
X85663572Y-123491904D01*
X85711191Y-123539523D01*
X85806429Y-123587142D01*
X85996905Y-123587142D01*
X86092143Y-123539523D01*
X86139762Y-123491904D01*
X86187381Y-123396666D01*
X86187381Y-123206190D01*
X86139762Y-123110952D01*
X86092143Y-123063333D01*
X85996905Y-123015714D01*
X85806429Y-123015714D01*
X85711191Y-123063333D01*
X85663572Y-123110952D01*
X85615953Y-123206190D01*
D13*
X83976905Y-126725238D02*
X83176905Y-126725238D01*
X83176905Y-126534761D01*
X83215001Y-126420476D01*
X83291191Y-126344285D01*
X83367381Y-126306190D01*
X83519762Y-126268095D01*
X83634048Y-126268095D01*
X83786429Y-126306190D01*
X83862620Y-126344285D01*
X83938810Y-126420476D01*
X83976905Y-126534761D01*
X83976905Y-126725238D01*
X83976905Y-125544285D02*
X83976905Y-125925238D01*
X83176905Y-125925238D01*
X83443572Y-124934761D02*
X83976905Y-124934761D01*
X83138810Y-125125238D02*
X83710239Y-125315714D01*
X83710239Y-124820476D01*
X83176905Y-124134761D02*
X83176905Y-124515714D01*
X83557858Y-124553809D01*
X83519762Y-124515714D01*
X83481667Y-124439523D01*
X83481667Y-124249047D01*
X83519762Y-124172857D01*
X83557858Y-124134761D01*
X83634048Y-124096666D01*
X83824524Y-124096666D01*
X83900715Y-124134761D01*
X83938810Y-124172857D01*
X83976905Y-124249047D01*
X83976905Y-124439523D01*
X83938810Y-124515714D01*
X83900715Y-124553809D01*
D11*
X82267381Y-129801904D02*
X81267381Y-129801904D01*
X82267381Y-129230476D02*
X81695953Y-129659047D01*
X81267381Y-129230476D02*
X81838810Y-129801904D01*
%TO.C,DL44*%
X86392380Y-108822857D02*
X86392380Y-109394285D01*
X86392380Y-109108571D02*
X85392380Y-109108571D01*
X85535238Y-109203809D01*
X85630476Y-109299047D01*
X85678095Y-109394285D01*
X86392380Y-108394285D02*
X85392380Y-108394285D01*
X86392380Y-107822857D01*
X85392380Y-107822857D01*
X85725714Y-106918095D02*
X86392380Y-106918095D01*
X85344761Y-107156190D02*
X86059047Y-107394285D01*
X86059047Y-106775238D01*
X86392380Y-105870476D02*
X86392380Y-106441904D01*
X86392380Y-106156190D02*
X85392380Y-106156190D01*
X85535238Y-106251428D01*
X85630476Y-106346666D01*
X85678095Y-106441904D01*
X85725714Y-105013333D02*
X86392380Y-105013333D01*
X85344761Y-105251428D02*
X86059047Y-105489523D01*
X86059047Y-104870476D01*
X85820952Y-104346666D02*
X85773333Y-104441904D01*
X85725714Y-104489523D01*
X85630476Y-104537142D01*
X85582857Y-104537142D01*
X85487619Y-104489523D01*
X85440000Y-104441904D01*
X85392380Y-104346666D01*
X85392380Y-104156190D01*
X85440000Y-104060952D01*
X85487619Y-104013333D01*
X85582857Y-103965714D01*
X85630476Y-103965714D01*
X85725714Y-104013333D01*
X85773333Y-104060952D01*
X85820952Y-104156190D01*
X85820952Y-104346666D01*
X85868571Y-104441904D01*
X85916190Y-104489523D01*
X86011428Y-104537142D01*
X86201904Y-104537142D01*
X86297142Y-104489523D01*
X86344761Y-104441904D01*
X86392380Y-104346666D01*
X86392380Y-104156190D01*
X86344761Y-104060952D01*
X86297142Y-104013333D01*
X86201904Y-103965714D01*
X86011428Y-103965714D01*
X85916190Y-104013333D01*
X85868571Y-104060952D01*
X85820952Y-104156190D01*
X82472380Y-110751904D02*
X81472380Y-110751904D01*
X82472380Y-110180476D02*
X81900952Y-110609047D01*
X81472380Y-110180476D02*
X82043809Y-110751904D01*
D13*
X84181904Y-107675238D02*
X83381904Y-107675238D01*
X83381904Y-107484761D01*
X83420000Y-107370476D01*
X83496190Y-107294285D01*
X83572380Y-107256190D01*
X83724761Y-107218095D01*
X83839047Y-107218095D01*
X83991428Y-107256190D01*
X84067619Y-107294285D01*
X84143809Y-107370476D01*
X84181904Y-107484761D01*
X84181904Y-107675238D01*
X84181904Y-106494285D02*
X84181904Y-106875238D01*
X83381904Y-106875238D01*
X83648571Y-105884761D02*
X84181904Y-105884761D01*
X83343809Y-106075238D02*
X83915238Y-106265714D01*
X83915238Y-105770476D01*
X83648571Y-105122857D02*
X84181904Y-105122857D01*
X83343809Y-105313333D02*
X83915238Y-105503809D01*
X83915238Y-105008571D01*
%TO.C,DL43*%
D11*
X86392380Y-89772857D02*
X86392380Y-90344285D01*
X86392380Y-90058571D02*
X85392380Y-90058571D01*
X85535238Y-90153809D01*
X85630476Y-90249047D01*
X85678095Y-90344285D01*
X86392380Y-89344285D02*
X85392380Y-89344285D01*
X86392380Y-88772857D01*
X85392380Y-88772857D01*
X85725714Y-87868095D02*
X86392380Y-87868095D01*
X85344761Y-88106190D02*
X86059047Y-88344285D01*
X86059047Y-87725238D01*
X86392380Y-86820476D02*
X86392380Y-87391904D01*
X86392380Y-87106190D02*
X85392380Y-87106190D01*
X85535238Y-87201428D01*
X85630476Y-87296666D01*
X85678095Y-87391904D01*
X85725714Y-85963333D02*
X86392380Y-85963333D01*
X85344761Y-86201428D02*
X86059047Y-86439523D01*
X86059047Y-85820476D01*
X85820952Y-85296666D02*
X85773333Y-85391904D01*
X85725714Y-85439523D01*
X85630476Y-85487142D01*
X85582857Y-85487142D01*
X85487619Y-85439523D01*
X85440000Y-85391904D01*
X85392380Y-85296666D01*
X85392380Y-85106190D01*
X85440000Y-85010952D01*
X85487619Y-84963333D01*
X85582857Y-84915714D01*
X85630476Y-84915714D01*
X85725714Y-84963333D01*
X85773333Y-85010952D01*
X85820952Y-85106190D01*
X85820952Y-85296666D01*
X85868571Y-85391904D01*
X85916190Y-85439523D01*
X86011428Y-85487142D01*
X86201904Y-85487142D01*
X86297142Y-85439523D01*
X86344761Y-85391904D01*
X86392380Y-85296666D01*
X86392380Y-85106190D01*
X86344761Y-85010952D01*
X86297142Y-84963333D01*
X86201904Y-84915714D01*
X86011428Y-84915714D01*
X85916190Y-84963333D01*
X85868571Y-85010952D01*
X85820952Y-85106190D01*
D13*
X84181904Y-88625238D02*
X83381904Y-88625238D01*
X83381904Y-88434761D01*
X83420000Y-88320476D01*
X83496190Y-88244285D01*
X83572380Y-88206190D01*
X83724761Y-88168095D01*
X83839047Y-88168095D01*
X83991428Y-88206190D01*
X84067619Y-88244285D01*
X84143809Y-88320476D01*
X84181904Y-88434761D01*
X84181904Y-88625238D01*
X84181904Y-87444285D02*
X84181904Y-87825238D01*
X83381904Y-87825238D01*
X83648571Y-86834761D02*
X84181904Y-86834761D01*
X83343809Y-87025238D02*
X83915238Y-87215714D01*
X83915238Y-86720476D01*
X83381904Y-86491904D02*
X83381904Y-85996666D01*
X83686666Y-86263333D01*
X83686666Y-86149047D01*
X83724761Y-86072857D01*
X83762857Y-86034761D01*
X83839047Y-85996666D01*
X84029523Y-85996666D01*
X84105714Y-86034761D01*
X84143809Y-86072857D01*
X84181904Y-86149047D01*
X84181904Y-86377619D01*
X84143809Y-86453809D01*
X84105714Y-86491904D01*
D11*
X82472380Y-91701904D02*
X81472380Y-91701904D01*
X82472380Y-91130476D02*
X81900952Y-91559047D01*
X81472380Y-91130476D02*
X82043809Y-91701904D01*
%TO.C,DL42*%
X86392380Y-70722857D02*
X86392380Y-71294285D01*
X86392380Y-71008571D02*
X85392380Y-71008571D01*
X85535238Y-71103809D01*
X85630476Y-71199047D01*
X85678095Y-71294285D01*
X86392380Y-70294285D02*
X85392380Y-70294285D01*
X86392380Y-69722857D01*
X85392380Y-69722857D01*
X85725714Y-68818095D02*
X86392380Y-68818095D01*
X85344761Y-69056190D02*
X86059047Y-69294285D01*
X86059047Y-68675238D01*
X86392380Y-67770476D02*
X86392380Y-68341904D01*
X86392380Y-68056190D02*
X85392380Y-68056190D01*
X85535238Y-68151428D01*
X85630476Y-68246666D01*
X85678095Y-68341904D01*
X85725714Y-66913333D02*
X86392380Y-66913333D01*
X85344761Y-67151428D02*
X86059047Y-67389523D01*
X86059047Y-66770476D01*
X85820952Y-66246666D02*
X85773333Y-66341904D01*
X85725714Y-66389523D01*
X85630476Y-66437142D01*
X85582857Y-66437142D01*
X85487619Y-66389523D01*
X85440000Y-66341904D01*
X85392380Y-66246666D01*
X85392380Y-66056190D01*
X85440000Y-65960952D01*
X85487619Y-65913333D01*
X85582857Y-65865714D01*
X85630476Y-65865714D01*
X85725714Y-65913333D01*
X85773333Y-65960952D01*
X85820952Y-66056190D01*
X85820952Y-66246666D01*
X85868571Y-66341904D01*
X85916190Y-66389523D01*
X86011428Y-66437142D01*
X86201904Y-66437142D01*
X86297142Y-66389523D01*
X86344761Y-66341904D01*
X86392380Y-66246666D01*
X86392380Y-66056190D01*
X86344761Y-65960952D01*
X86297142Y-65913333D01*
X86201904Y-65865714D01*
X86011428Y-65865714D01*
X85916190Y-65913333D01*
X85868571Y-65960952D01*
X85820952Y-66056190D01*
D13*
X84181904Y-69575238D02*
X83381904Y-69575238D01*
X83381904Y-69384761D01*
X83420000Y-69270476D01*
X83496190Y-69194285D01*
X83572380Y-69156190D01*
X83724761Y-69118095D01*
X83839047Y-69118095D01*
X83991428Y-69156190D01*
X84067619Y-69194285D01*
X84143809Y-69270476D01*
X84181904Y-69384761D01*
X84181904Y-69575238D01*
X84181904Y-68394285D02*
X84181904Y-68775238D01*
X83381904Y-68775238D01*
X83648571Y-67784761D02*
X84181904Y-67784761D01*
X83343809Y-67975238D02*
X83915238Y-68165714D01*
X83915238Y-67670476D01*
X83458095Y-67403809D02*
X83420000Y-67365714D01*
X83381904Y-67289523D01*
X83381904Y-67099047D01*
X83420000Y-67022857D01*
X83458095Y-66984761D01*
X83534285Y-66946666D01*
X83610476Y-66946666D01*
X83724761Y-66984761D01*
X84181904Y-67441904D01*
X84181904Y-66946666D01*
D11*
X82472380Y-72651904D02*
X81472380Y-72651904D01*
X82472380Y-72080476D02*
X81900952Y-72509047D01*
X81472380Y-72080476D02*
X82043809Y-72651904D01*
%TO.C,DL41*%
X86392380Y-51672857D02*
X86392380Y-52244285D01*
X86392380Y-51958571D02*
X85392380Y-51958571D01*
X85535238Y-52053809D01*
X85630476Y-52149047D01*
X85678095Y-52244285D01*
X86392380Y-51244285D02*
X85392380Y-51244285D01*
X86392380Y-50672857D01*
X85392380Y-50672857D01*
X85725714Y-49768095D02*
X86392380Y-49768095D01*
X85344761Y-50006190D02*
X86059047Y-50244285D01*
X86059047Y-49625238D01*
X86392380Y-48720476D02*
X86392380Y-49291904D01*
X86392380Y-49006190D02*
X85392380Y-49006190D01*
X85535238Y-49101428D01*
X85630476Y-49196666D01*
X85678095Y-49291904D01*
X85725714Y-47863333D02*
X86392380Y-47863333D01*
X85344761Y-48101428D02*
X86059047Y-48339523D01*
X86059047Y-47720476D01*
X85820952Y-47196666D02*
X85773333Y-47291904D01*
X85725714Y-47339523D01*
X85630476Y-47387142D01*
X85582857Y-47387142D01*
X85487619Y-47339523D01*
X85440000Y-47291904D01*
X85392380Y-47196666D01*
X85392380Y-47006190D01*
X85440000Y-46910952D01*
X85487619Y-46863333D01*
X85582857Y-46815714D01*
X85630476Y-46815714D01*
X85725714Y-46863333D01*
X85773333Y-46910952D01*
X85820952Y-47006190D01*
X85820952Y-47196666D01*
X85868571Y-47291904D01*
X85916190Y-47339523D01*
X86011428Y-47387142D01*
X86201904Y-47387142D01*
X86297142Y-47339523D01*
X86344761Y-47291904D01*
X86392380Y-47196666D01*
X86392380Y-47006190D01*
X86344761Y-46910952D01*
X86297142Y-46863333D01*
X86201904Y-46815714D01*
X86011428Y-46815714D01*
X85916190Y-46863333D01*
X85868571Y-46910952D01*
X85820952Y-47006190D01*
D13*
X84181904Y-50525238D02*
X83381904Y-50525238D01*
X83381904Y-50334761D01*
X83420000Y-50220476D01*
X83496190Y-50144285D01*
X83572380Y-50106190D01*
X83724761Y-50068095D01*
X83839047Y-50068095D01*
X83991428Y-50106190D01*
X84067619Y-50144285D01*
X84143809Y-50220476D01*
X84181904Y-50334761D01*
X84181904Y-50525238D01*
X84181904Y-49344285D02*
X84181904Y-49725238D01*
X83381904Y-49725238D01*
X83648571Y-48734761D02*
X84181904Y-48734761D01*
X83343809Y-48925238D02*
X83915238Y-49115714D01*
X83915238Y-48620476D01*
X84181904Y-47896666D02*
X84181904Y-48353809D01*
X84181904Y-48125238D02*
X83381904Y-48125238D01*
X83496190Y-48201428D01*
X83572380Y-48277619D01*
X83610476Y-48353809D01*
D11*
X82472380Y-53601904D02*
X81472380Y-53601904D01*
X82472380Y-53030476D02*
X81900952Y-53459047D01*
X81472380Y-53030476D02*
X82043809Y-53601904D01*
%TO.C,DL35*%
X67342380Y-127872857D02*
X67342380Y-128444285D01*
X67342380Y-128158571D02*
X66342380Y-128158571D01*
X66485238Y-128253809D01*
X66580476Y-128349047D01*
X66628095Y-128444285D01*
X67342380Y-127444285D02*
X66342380Y-127444285D01*
X67342380Y-126872857D01*
X66342380Y-126872857D01*
X66675714Y-125968095D02*
X67342380Y-125968095D01*
X66294761Y-126206190D02*
X67009047Y-126444285D01*
X67009047Y-125825238D01*
X67342380Y-124920476D02*
X67342380Y-125491904D01*
X67342380Y-125206190D02*
X66342380Y-125206190D01*
X66485238Y-125301428D01*
X66580476Y-125396666D01*
X66628095Y-125491904D01*
X66675714Y-124063333D02*
X67342380Y-124063333D01*
X66294761Y-124301428D02*
X67009047Y-124539523D01*
X67009047Y-123920476D01*
X66770952Y-123396666D02*
X66723333Y-123491904D01*
X66675714Y-123539523D01*
X66580476Y-123587142D01*
X66532857Y-123587142D01*
X66437619Y-123539523D01*
X66390000Y-123491904D01*
X66342380Y-123396666D01*
X66342380Y-123206190D01*
X66390000Y-123110952D01*
X66437619Y-123063333D01*
X66532857Y-123015714D01*
X66580476Y-123015714D01*
X66675714Y-123063333D01*
X66723333Y-123110952D01*
X66770952Y-123206190D01*
X66770952Y-123396666D01*
X66818571Y-123491904D01*
X66866190Y-123539523D01*
X66961428Y-123587142D01*
X67151904Y-123587142D01*
X67247142Y-123539523D01*
X67294761Y-123491904D01*
X67342380Y-123396666D01*
X67342380Y-123206190D01*
X67294761Y-123110952D01*
X67247142Y-123063333D01*
X67151904Y-123015714D01*
X66961428Y-123015714D01*
X66866190Y-123063333D01*
X66818571Y-123110952D01*
X66770952Y-123206190D01*
X63422380Y-129801904D02*
X62422380Y-129801904D01*
X63422380Y-129230476D02*
X62850952Y-129659047D01*
X62422380Y-129230476D02*
X62993809Y-129801904D01*
D13*
X65131904Y-126725238D02*
X64331904Y-126725238D01*
X64331904Y-126534761D01*
X64370000Y-126420476D01*
X64446190Y-126344285D01*
X64522380Y-126306190D01*
X64674761Y-126268095D01*
X64789047Y-126268095D01*
X64941428Y-126306190D01*
X65017619Y-126344285D01*
X65093809Y-126420476D01*
X65131904Y-126534761D01*
X65131904Y-126725238D01*
X65131904Y-125544285D02*
X65131904Y-125925238D01*
X64331904Y-125925238D01*
X64331904Y-125353809D02*
X64331904Y-124858571D01*
X64636666Y-125125238D01*
X64636666Y-125010952D01*
X64674761Y-124934761D01*
X64712857Y-124896666D01*
X64789047Y-124858571D01*
X64979523Y-124858571D01*
X65055714Y-124896666D01*
X65093809Y-124934761D01*
X65131904Y-125010952D01*
X65131904Y-125239523D01*
X65093809Y-125315714D01*
X65055714Y-125353809D01*
X64331904Y-124134761D02*
X64331904Y-124515714D01*
X64712857Y-124553809D01*
X64674761Y-124515714D01*
X64636666Y-124439523D01*
X64636666Y-124249047D01*
X64674761Y-124172857D01*
X64712857Y-124134761D01*
X64789047Y-124096666D01*
X64979523Y-124096666D01*
X65055714Y-124134761D01*
X65093809Y-124172857D01*
X65131904Y-124249047D01*
X65131904Y-124439523D01*
X65093809Y-124515714D01*
X65055714Y-124553809D01*
%TO.C,DL34*%
D11*
X67342380Y-108822857D02*
X67342380Y-109394285D01*
X67342380Y-109108571D02*
X66342380Y-109108571D01*
X66485238Y-109203809D01*
X66580476Y-109299047D01*
X66628095Y-109394285D01*
X67342380Y-108394285D02*
X66342380Y-108394285D01*
X67342380Y-107822857D01*
X66342380Y-107822857D01*
X66675714Y-106918095D02*
X67342380Y-106918095D01*
X66294761Y-107156190D02*
X67009047Y-107394285D01*
X67009047Y-106775238D01*
X67342380Y-105870476D02*
X67342380Y-106441904D01*
X67342380Y-106156190D02*
X66342380Y-106156190D01*
X66485238Y-106251428D01*
X66580476Y-106346666D01*
X66628095Y-106441904D01*
X66675714Y-105013333D02*
X67342380Y-105013333D01*
X66294761Y-105251428D02*
X67009047Y-105489523D01*
X67009047Y-104870476D01*
X66770952Y-104346666D02*
X66723333Y-104441904D01*
X66675714Y-104489523D01*
X66580476Y-104537142D01*
X66532857Y-104537142D01*
X66437619Y-104489523D01*
X66390000Y-104441904D01*
X66342380Y-104346666D01*
X66342380Y-104156190D01*
X66390000Y-104060952D01*
X66437619Y-104013333D01*
X66532857Y-103965714D01*
X66580476Y-103965714D01*
X66675714Y-104013333D01*
X66723333Y-104060952D01*
X66770952Y-104156190D01*
X66770952Y-104346666D01*
X66818571Y-104441904D01*
X66866190Y-104489523D01*
X66961428Y-104537142D01*
X67151904Y-104537142D01*
X67247142Y-104489523D01*
X67294761Y-104441904D01*
X67342380Y-104346666D01*
X67342380Y-104156190D01*
X67294761Y-104060952D01*
X67247142Y-104013333D01*
X67151904Y-103965714D01*
X66961428Y-103965714D01*
X66866190Y-104013333D01*
X66818571Y-104060952D01*
X66770952Y-104156190D01*
D13*
X65131904Y-107675238D02*
X64331904Y-107675238D01*
X64331904Y-107484761D01*
X64370000Y-107370476D01*
X64446190Y-107294285D01*
X64522380Y-107256190D01*
X64674761Y-107218095D01*
X64789047Y-107218095D01*
X64941428Y-107256190D01*
X65017619Y-107294285D01*
X65093809Y-107370476D01*
X65131904Y-107484761D01*
X65131904Y-107675238D01*
X65131904Y-106494285D02*
X65131904Y-106875238D01*
X64331904Y-106875238D01*
X64331904Y-106303809D02*
X64331904Y-105808571D01*
X64636666Y-106075238D01*
X64636666Y-105960952D01*
X64674761Y-105884761D01*
X64712857Y-105846666D01*
X64789047Y-105808571D01*
X64979523Y-105808571D01*
X65055714Y-105846666D01*
X65093809Y-105884761D01*
X65131904Y-105960952D01*
X65131904Y-106189523D01*
X65093809Y-106265714D01*
X65055714Y-106303809D01*
X64598571Y-105122857D02*
X65131904Y-105122857D01*
X64293809Y-105313333D02*
X64865238Y-105503809D01*
X64865238Y-105008571D01*
D11*
X63422380Y-110751904D02*
X62422380Y-110751904D01*
X63422380Y-110180476D02*
X62850952Y-110609047D01*
X62422380Y-110180476D02*
X62993809Y-110751904D01*
%TO.C,DL33*%
X67342380Y-89772857D02*
X67342380Y-90344285D01*
X67342380Y-90058571D02*
X66342380Y-90058571D01*
X66485238Y-90153809D01*
X66580476Y-90249047D01*
X66628095Y-90344285D01*
X67342380Y-89344285D02*
X66342380Y-89344285D01*
X67342380Y-88772857D01*
X66342380Y-88772857D01*
X66675714Y-87868095D02*
X67342380Y-87868095D01*
X66294761Y-88106190D02*
X67009047Y-88344285D01*
X67009047Y-87725238D01*
X67342380Y-86820476D02*
X67342380Y-87391904D01*
X67342380Y-87106190D02*
X66342380Y-87106190D01*
X66485238Y-87201428D01*
X66580476Y-87296666D01*
X66628095Y-87391904D01*
X66675714Y-85963333D02*
X67342380Y-85963333D01*
X66294761Y-86201428D02*
X67009047Y-86439523D01*
X67009047Y-85820476D01*
X66770952Y-85296666D02*
X66723333Y-85391904D01*
X66675714Y-85439523D01*
X66580476Y-85487142D01*
X66532857Y-85487142D01*
X66437619Y-85439523D01*
X66390000Y-85391904D01*
X66342380Y-85296666D01*
X66342380Y-85106190D01*
X66390000Y-85010952D01*
X66437619Y-84963333D01*
X66532857Y-84915714D01*
X66580476Y-84915714D01*
X66675714Y-84963333D01*
X66723333Y-85010952D01*
X66770952Y-85106190D01*
X66770952Y-85296666D01*
X66818571Y-85391904D01*
X66866190Y-85439523D01*
X66961428Y-85487142D01*
X67151904Y-85487142D01*
X67247142Y-85439523D01*
X67294761Y-85391904D01*
X67342380Y-85296666D01*
X67342380Y-85106190D01*
X67294761Y-85010952D01*
X67247142Y-84963333D01*
X67151904Y-84915714D01*
X66961428Y-84915714D01*
X66866190Y-84963333D01*
X66818571Y-85010952D01*
X66770952Y-85106190D01*
X63422380Y-91701904D02*
X62422380Y-91701904D01*
X63422380Y-91130476D02*
X62850952Y-91559047D01*
X62422380Y-91130476D02*
X62993809Y-91701904D01*
D13*
X65131904Y-88625238D02*
X64331904Y-88625238D01*
X64331904Y-88434761D01*
X64370000Y-88320476D01*
X64446190Y-88244285D01*
X64522380Y-88206190D01*
X64674761Y-88168095D01*
X64789047Y-88168095D01*
X64941428Y-88206190D01*
X65017619Y-88244285D01*
X65093809Y-88320476D01*
X65131904Y-88434761D01*
X65131904Y-88625238D01*
X65131904Y-87444285D02*
X65131904Y-87825238D01*
X64331904Y-87825238D01*
X64331904Y-87253809D02*
X64331904Y-86758571D01*
X64636666Y-87025238D01*
X64636666Y-86910952D01*
X64674761Y-86834761D01*
X64712857Y-86796666D01*
X64789047Y-86758571D01*
X64979523Y-86758571D01*
X65055714Y-86796666D01*
X65093809Y-86834761D01*
X65131904Y-86910952D01*
X65131904Y-87139523D01*
X65093809Y-87215714D01*
X65055714Y-87253809D01*
X64331904Y-86491904D02*
X64331904Y-85996666D01*
X64636666Y-86263333D01*
X64636666Y-86149047D01*
X64674761Y-86072857D01*
X64712857Y-86034761D01*
X64789047Y-85996666D01*
X64979523Y-85996666D01*
X65055714Y-86034761D01*
X65093809Y-86072857D01*
X65131904Y-86149047D01*
X65131904Y-86377619D01*
X65093809Y-86453809D01*
X65055714Y-86491904D01*
%TO.C,DL32*%
D11*
X67342380Y-70722857D02*
X67342380Y-71294285D01*
X67342380Y-71008571D02*
X66342380Y-71008571D01*
X66485238Y-71103809D01*
X66580476Y-71199047D01*
X66628095Y-71294285D01*
X67342380Y-70294285D02*
X66342380Y-70294285D01*
X67342380Y-69722857D01*
X66342380Y-69722857D01*
X66675714Y-68818095D02*
X67342380Y-68818095D01*
X66294761Y-69056190D02*
X67009047Y-69294285D01*
X67009047Y-68675238D01*
X67342380Y-67770476D02*
X67342380Y-68341904D01*
X67342380Y-68056190D02*
X66342380Y-68056190D01*
X66485238Y-68151428D01*
X66580476Y-68246666D01*
X66628095Y-68341904D01*
X66675714Y-66913333D02*
X67342380Y-66913333D01*
X66294761Y-67151428D02*
X67009047Y-67389523D01*
X67009047Y-66770476D01*
X66770952Y-66246666D02*
X66723333Y-66341904D01*
X66675714Y-66389523D01*
X66580476Y-66437142D01*
X66532857Y-66437142D01*
X66437619Y-66389523D01*
X66390000Y-66341904D01*
X66342380Y-66246666D01*
X66342380Y-66056190D01*
X66390000Y-65960952D01*
X66437619Y-65913333D01*
X66532857Y-65865714D01*
X66580476Y-65865714D01*
X66675714Y-65913333D01*
X66723333Y-65960952D01*
X66770952Y-66056190D01*
X66770952Y-66246666D01*
X66818571Y-66341904D01*
X66866190Y-66389523D01*
X66961428Y-66437142D01*
X67151904Y-66437142D01*
X67247142Y-66389523D01*
X67294761Y-66341904D01*
X67342380Y-66246666D01*
X67342380Y-66056190D01*
X67294761Y-65960952D01*
X67247142Y-65913333D01*
X67151904Y-65865714D01*
X66961428Y-65865714D01*
X66866190Y-65913333D01*
X66818571Y-65960952D01*
X66770952Y-66056190D01*
X63422380Y-72651904D02*
X62422380Y-72651904D01*
X63422380Y-72080476D02*
X62850952Y-72509047D01*
X62422380Y-72080476D02*
X62993809Y-72651904D01*
D13*
X65131904Y-69575238D02*
X64331904Y-69575238D01*
X64331904Y-69384761D01*
X64370000Y-69270476D01*
X64446190Y-69194285D01*
X64522380Y-69156190D01*
X64674761Y-69118095D01*
X64789047Y-69118095D01*
X64941428Y-69156190D01*
X65017619Y-69194285D01*
X65093809Y-69270476D01*
X65131904Y-69384761D01*
X65131904Y-69575238D01*
X65131904Y-68394285D02*
X65131904Y-68775238D01*
X64331904Y-68775238D01*
X64331904Y-68203809D02*
X64331904Y-67708571D01*
X64636666Y-67975238D01*
X64636666Y-67860952D01*
X64674761Y-67784761D01*
X64712857Y-67746666D01*
X64789047Y-67708571D01*
X64979523Y-67708571D01*
X65055714Y-67746666D01*
X65093809Y-67784761D01*
X65131904Y-67860952D01*
X65131904Y-68089523D01*
X65093809Y-68165714D01*
X65055714Y-68203809D01*
X64408095Y-67403809D02*
X64370000Y-67365714D01*
X64331904Y-67289523D01*
X64331904Y-67099047D01*
X64370000Y-67022857D01*
X64408095Y-66984761D01*
X64484285Y-66946666D01*
X64560476Y-66946666D01*
X64674761Y-66984761D01*
X65131904Y-67441904D01*
X65131904Y-66946666D01*
%TO.C,DL31*%
D11*
X67342380Y-51672857D02*
X67342380Y-52244285D01*
X67342380Y-51958571D02*
X66342380Y-51958571D01*
X66485238Y-52053809D01*
X66580476Y-52149047D01*
X66628095Y-52244285D01*
X67342380Y-51244285D02*
X66342380Y-51244285D01*
X67342380Y-50672857D01*
X66342380Y-50672857D01*
X66675714Y-49768095D02*
X67342380Y-49768095D01*
X66294761Y-50006190D02*
X67009047Y-50244285D01*
X67009047Y-49625238D01*
X67342380Y-48720476D02*
X67342380Y-49291904D01*
X67342380Y-49006190D02*
X66342380Y-49006190D01*
X66485238Y-49101428D01*
X66580476Y-49196666D01*
X66628095Y-49291904D01*
X66675714Y-47863333D02*
X67342380Y-47863333D01*
X66294761Y-48101428D02*
X67009047Y-48339523D01*
X67009047Y-47720476D01*
X66770952Y-47196666D02*
X66723333Y-47291904D01*
X66675714Y-47339523D01*
X66580476Y-47387142D01*
X66532857Y-47387142D01*
X66437619Y-47339523D01*
X66390000Y-47291904D01*
X66342380Y-47196666D01*
X66342380Y-47006190D01*
X66390000Y-46910952D01*
X66437619Y-46863333D01*
X66532857Y-46815714D01*
X66580476Y-46815714D01*
X66675714Y-46863333D01*
X66723333Y-46910952D01*
X66770952Y-47006190D01*
X66770952Y-47196666D01*
X66818571Y-47291904D01*
X66866190Y-47339523D01*
X66961428Y-47387142D01*
X67151904Y-47387142D01*
X67247142Y-47339523D01*
X67294761Y-47291904D01*
X67342380Y-47196666D01*
X67342380Y-47006190D01*
X67294761Y-46910952D01*
X67247142Y-46863333D01*
X67151904Y-46815714D01*
X66961428Y-46815714D01*
X66866190Y-46863333D01*
X66818571Y-46910952D01*
X66770952Y-47006190D01*
X63422380Y-53601904D02*
X62422380Y-53601904D01*
X63422380Y-53030476D02*
X62850952Y-53459047D01*
X62422380Y-53030476D02*
X62993809Y-53601904D01*
D13*
X65131904Y-50525238D02*
X64331904Y-50525238D01*
X64331904Y-50334761D01*
X64370000Y-50220476D01*
X64446190Y-50144285D01*
X64522380Y-50106190D01*
X64674761Y-50068095D01*
X64789047Y-50068095D01*
X64941428Y-50106190D01*
X65017619Y-50144285D01*
X65093809Y-50220476D01*
X65131904Y-50334761D01*
X65131904Y-50525238D01*
X65131904Y-49344285D02*
X65131904Y-49725238D01*
X64331904Y-49725238D01*
X64331904Y-49153809D02*
X64331904Y-48658571D01*
X64636666Y-48925238D01*
X64636666Y-48810952D01*
X64674761Y-48734761D01*
X64712857Y-48696666D01*
X64789047Y-48658571D01*
X64979523Y-48658571D01*
X65055714Y-48696666D01*
X65093809Y-48734761D01*
X65131904Y-48810952D01*
X65131904Y-49039523D01*
X65093809Y-49115714D01*
X65055714Y-49153809D01*
X65131904Y-47896666D02*
X65131904Y-48353809D01*
X65131904Y-48125238D02*
X64331904Y-48125238D01*
X64446190Y-48201428D01*
X64522380Y-48277619D01*
X64560476Y-48353809D01*
%TO.C,DL25*%
D11*
X48292380Y-127872857D02*
X48292380Y-128444285D01*
X48292380Y-128158571D02*
X47292380Y-128158571D01*
X47435238Y-128253809D01*
X47530476Y-128349047D01*
X47578095Y-128444285D01*
X48292380Y-127444285D02*
X47292380Y-127444285D01*
X48292380Y-126872857D01*
X47292380Y-126872857D01*
X47625714Y-125968095D02*
X48292380Y-125968095D01*
X47244761Y-126206190D02*
X47959047Y-126444285D01*
X47959047Y-125825238D01*
X48292380Y-124920476D02*
X48292380Y-125491904D01*
X48292380Y-125206190D02*
X47292380Y-125206190D01*
X47435238Y-125301428D01*
X47530476Y-125396666D01*
X47578095Y-125491904D01*
X47625714Y-124063333D02*
X48292380Y-124063333D01*
X47244761Y-124301428D02*
X47959047Y-124539523D01*
X47959047Y-123920476D01*
X47720952Y-123396666D02*
X47673333Y-123491904D01*
X47625714Y-123539523D01*
X47530476Y-123587142D01*
X47482857Y-123587142D01*
X47387619Y-123539523D01*
X47340000Y-123491904D01*
X47292380Y-123396666D01*
X47292380Y-123206190D01*
X47340000Y-123110952D01*
X47387619Y-123063333D01*
X47482857Y-123015714D01*
X47530476Y-123015714D01*
X47625714Y-123063333D01*
X47673333Y-123110952D01*
X47720952Y-123206190D01*
X47720952Y-123396666D01*
X47768571Y-123491904D01*
X47816190Y-123539523D01*
X47911428Y-123587142D01*
X48101904Y-123587142D01*
X48197142Y-123539523D01*
X48244761Y-123491904D01*
X48292380Y-123396666D01*
X48292380Y-123206190D01*
X48244761Y-123110952D01*
X48197142Y-123063333D01*
X48101904Y-123015714D01*
X47911428Y-123015714D01*
X47816190Y-123063333D01*
X47768571Y-123110952D01*
X47720952Y-123206190D01*
D13*
X46081904Y-126725238D02*
X45281904Y-126725238D01*
X45281904Y-126534761D01*
X45320000Y-126420476D01*
X45396190Y-126344285D01*
X45472380Y-126306190D01*
X45624761Y-126268095D01*
X45739047Y-126268095D01*
X45891428Y-126306190D01*
X45967619Y-126344285D01*
X46043809Y-126420476D01*
X46081904Y-126534761D01*
X46081904Y-126725238D01*
X46081904Y-125544285D02*
X46081904Y-125925238D01*
X45281904Y-125925238D01*
X45358095Y-125315714D02*
X45320000Y-125277619D01*
X45281904Y-125201428D01*
X45281904Y-125010952D01*
X45320000Y-124934761D01*
X45358095Y-124896666D01*
X45434285Y-124858571D01*
X45510476Y-124858571D01*
X45624761Y-124896666D01*
X46081904Y-125353809D01*
X46081904Y-124858571D01*
X45281904Y-124134761D02*
X45281904Y-124515714D01*
X45662857Y-124553809D01*
X45624761Y-124515714D01*
X45586666Y-124439523D01*
X45586666Y-124249047D01*
X45624761Y-124172857D01*
X45662857Y-124134761D01*
X45739047Y-124096666D01*
X45929523Y-124096666D01*
X46005714Y-124134761D01*
X46043809Y-124172857D01*
X46081904Y-124249047D01*
X46081904Y-124439523D01*
X46043809Y-124515714D01*
X46005714Y-124553809D01*
D11*
X44372380Y-129801904D02*
X43372380Y-129801904D01*
X44372380Y-129230476D02*
X43800952Y-129659047D01*
X43372380Y-129230476D02*
X43943809Y-129801904D01*
%TO.C,DL24*%
X48292380Y-108822857D02*
X48292380Y-109394285D01*
X48292380Y-109108571D02*
X47292380Y-109108571D01*
X47435238Y-109203809D01*
X47530476Y-109299047D01*
X47578095Y-109394285D01*
X48292380Y-108394285D02*
X47292380Y-108394285D01*
X48292380Y-107822857D01*
X47292380Y-107822857D01*
X47625714Y-106918095D02*
X48292380Y-106918095D01*
X47244761Y-107156190D02*
X47959047Y-107394285D01*
X47959047Y-106775238D01*
X48292380Y-105870476D02*
X48292380Y-106441904D01*
X48292380Y-106156190D02*
X47292380Y-106156190D01*
X47435238Y-106251428D01*
X47530476Y-106346666D01*
X47578095Y-106441904D01*
X47625714Y-105013333D02*
X48292380Y-105013333D01*
X47244761Y-105251428D02*
X47959047Y-105489523D01*
X47959047Y-104870476D01*
X47720952Y-104346666D02*
X47673333Y-104441904D01*
X47625714Y-104489523D01*
X47530476Y-104537142D01*
X47482857Y-104537142D01*
X47387619Y-104489523D01*
X47340000Y-104441904D01*
X47292380Y-104346666D01*
X47292380Y-104156190D01*
X47340000Y-104060952D01*
X47387619Y-104013333D01*
X47482857Y-103965714D01*
X47530476Y-103965714D01*
X47625714Y-104013333D01*
X47673333Y-104060952D01*
X47720952Y-104156190D01*
X47720952Y-104346666D01*
X47768571Y-104441904D01*
X47816190Y-104489523D01*
X47911428Y-104537142D01*
X48101904Y-104537142D01*
X48197142Y-104489523D01*
X48244761Y-104441904D01*
X48292380Y-104346666D01*
X48292380Y-104156190D01*
X48244761Y-104060952D01*
X48197142Y-104013333D01*
X48101904Y-103965714D01*
X47911428Y-103965714D01*
X47816190Y-104013333D01*
X47768571Y-104060952D01*
X47720952Y-104156190D01*
X44372380Y-110751904D02*
X43372380Y-110751904D01*
X44372380Y-110180476D02*
X43800952Y-110609047D01*
X43372380Y-110180476D02*
X43943809Y-110751904D01*
D13*
X46081904Y-107675238D02*
X45281904Y-107675238D01*
X45281904Y-107484761D01*
X45320000Y-107370476D01*
X45396190Y-107294285D01*
X45472380Y-107256190D01*
X45624761Y-107218095D01*
X45739047Y-107218095D01*
X45891428Y-107256190D01*
X45967619Y-107294285D01*
X46043809Y-107370476D01*
X46081904Y-107484761D01*
X46081904Y-107675238D01*
X46081904Y-106494285D02*
X46081904Y-106875238D01*
X45281904Y-106875238D01*
X45358095Y-106265714D02*
X45320000Y-106227619D01*
X45281904Y-106151428D01*
X45281904Y-105960952D01*
X45320000Y-105884761D01*
X45358095Y-105846666D01*
X45434285Y-105808571D01*
X45510476Y-105808571D01*
X45624761Y-105846666D01*
X46081904Y-106303809D01*
X46081904Y-105808571D01*
X45548571Y-105122857D02*
X46081904Y-105122857D01*
X45243809Y-105313333D02*
X45815238Y-105503809D01*
X45815238Y-105008571D01*
%TO.C,DL23*%
D11*
X48292380Y-89772857D02*
X48292380Y-90344285D01*
X48292380Y-90058571D02*
X47292380Y-90058571D01*
X47435238Y-90153809D01*
X47530476Y-90249047D01*
X47578095Y-90344285D01*
X48292380Y-89344285D02*
X47292380Y-89344285D01*
X48292380Y-88772857D01*
X47292380Y-88772857D01*
X47625714Y-87868095D02*
X48292380Y-87868095D01*
X47244761Y-88106190D02*
X47959047Y-88344285D01*
X47959047Y-87725238D01*
X48292380Y-86820476D02*
X48292380Y-87391904D01*
X48292380Y-87106190D02*
X47292380Y-87106190D01*
X47435238Y-87201428D01*
X47530476Y-87296666D01*
X47578095Y-87391904D01*
X47625714Y-85963333D02*
X48292380Y-85963333D01*
X47244761Y-86201428D02*
X47959047Y-86439523D01*
X47959047Y-85820476D01*
X47720952Y-85296666D02*
X47673333Y-85391904D01*
X47625714Y-85439523D01*
X47530476Y-85487142D01*
X47482857Y-85487142D01*
X47387619Y-85439523D01*
X47340000Y-85391904D01*
X47292380Y-85296666D01*
X47292380Y-85106190D01*
X47340000Y-85010952D01*
X47387619Y-84963333D01*
X47482857Y-84915714D01*
X47530476Y-84915714D01*
X47625714Y-84963333D01*
X47673333Y-85010952D01*
X47720952Y-85106190D01*
X47720952Y-85296666D01*
X47768571Y-85391904D01*
X47816190Y-85439523D01*
X47911428Y-85487142D01*
X48101904Y-85487142D01*
X48197142Y-85439523D01*
X48244761Y-85391904D01*
X48292380Y-85296666D01*
X48292380Y-85106190D01*
X48244761Y-85010952D01*
X48197142Y-84963333D01*
X48101904Y-84915714D01*
X47911428Y-84915714D01*
X47816190Y-84963333D01*
X47768571Y-85010952D01*
X47720952Y-85106190D01*
D13*
X46081904Y-88625238D02*
X45281904Y-88625238D01*
X45281904Y-88434761D01*
X45320000Y-88320476D01*
X45396190Y-88244285D01*
X45472380Y-88206190D01*
X45624761Y-88168095D01*
X45739047Y-88168095D01*
X45891428Y-88206190D01*
X45967619Y-88244285D01*
X46043809Y-88320476D01*
X46081904Y-88434761D01*
X46081904Y-88625238D01*
X46081904Y-87444285D02*
X46081904Y-87825238D01*
X45281904Y-87825238D01*
X45358095Y-87215714D02*
X45320000Y-87177619D01*
X45281904Y-87101428D01*
X45281904Y-86910952D01*
X45320000Y-86834761D01*
X45358095Y-86796666D01*
X45434285Y-86758571D01*
X45510476Y-86758571D01*
X45624761Y-86796666D01*
X46081904Y-87253809D01*
X46081904Y-86758571D01*
X45281904Y-86491904D02*
X45281904Y-85996666D01*
X45586666Y-86263333D01*
X45586666Y-86149047D01*
X45624761Y-86072857D01*
X45662857Y-86034761D01*
X45739047Y-85996666D01*
X45929523Y-85996666D01*
X46005714Y-86034761D01*
X46043809Y-86072857D01*
X46081904Y-86149047D01*
X46081904Y-86377619D01*
X46043809Y-86453809D01*
X46005714Y-86491904D01*
D11*
X44372380Y-91701904D02*
X43372380Y-91701904D01*
X44372380Y-91130476D02*
X43800952Y-91559047D01*
X43372380Y-91130476D02*
X43943809Y-91701904D01*
%TO.C,DL22*%
X48292380Y-70722857D02*
X48292380Y-71294285D01*
X48292380Y-71008571D02*
X47292380Y-71008571D01*
X47435238Y-71103809D01*
X47530476Y-71199047D01*
X47578095Y-71294285D01*
X48292380Y-70294285D02*
X47292380Y-70294285D01*
X48292380Y-69722857D01*
X47292380Y-69722857D01*
X47625714Y-68818095D02*
X48292380Y-68818095D01*
X47244761Y-69056190D02*
X47959047Y-69294285D01*
X47959047Y-68675238D01*
X48292380Y-67770476D02*
X48292380Y-68341904D01*
X48292380Y-68056190D02*
X47292380Y-68056190D01*
X47435238Y-68151428D01*
X47530476Y-68246666D01*
X47578095Y-68341904D01*
X47625714Y-66913333D02*
X48292380Y-66913333D01*
X47244761Y-67151428D02*
X47959047Y-67389523D01*
X47959047Y-66770476D01*
X47720952Y-66246666D02*
X47673333Y-66341904D01*
X47625714Y-66389523D01*
X47530476Y-66437142D01*
X47482857Y-66437142D01*
X47387619Y-66389523D01*
X47340000Y-66341904D01*
X47292380Y-66246666D01*
X47292380Y-66056190D01*
X47340000Y-65960952D01*
X47387619Y-65913333D01*
X47482857Y-65865714D01*
X47530476Y-65865714D01*
X47625714Y-65913333D01*
X47673333Y-65960952D01*
X47720952Y-66056190D01*
X47720952Y-66246666D01*
X47768571Y-66341904D01*
X47816190Y-66389523D01*
X47911428Y-66437142D01*
X48101904Y-66437142D01*
X48197142Y-66389523D01*
X48244761Y-66341904D01*
X48292380Y-66246666D01*
X48292380Y-66056190D01*
X48244761Y-65960952D01*
X48197142Y-65913333D01*
X48101904Y-65865714D01*
X47911428Y-65865714D01*
X47816190Y-65913333D01*
X47768571Y-65960952D01*
X47720952Y-66056190D01*
X44372380Y-72651904D02*
X43372380Y-72651904D01*
X44372380Y-72080476D02*
X43800952Y-72509047D01*
X43372380Y-72080476D02*
X43943809Y-72651904D01*
D13*
X46081904Y-69575238D02*
X45281904Y-69575238D01*
X45281904Y-69384761D01*
X45320000Y-69270476D01*
X45396190Y-69194285D01*
X45472380Y-69156190D01*
X45624761Y-69118095D01*
X45739047Y-69118095D01*
X45891428Y-69156190D01*
X45967619Y-69194285D01*
X46043809Y-69270476D01*
X46081904Y-69384761D01*
X46081904Y-69575238D01*
X46081904Y-68394285D02*
X46081904Y-68775238D01*
X45281904Y-68775238D01*
X45358095Y-68165714D02*
X45320000Y-68127619D01*
X45281904Y-68051428D01*
X45281904Y-67860952D01*
X45320000Y-67784761D01*
X45358095Y-67746666D01*
X45434285Y-67708571D01*
X45510476Y-67708571D01*
X45624761Y-67746666D01*
X46081904Y-68203809D01*
X46081904Y-67708571D01*
X45358095Y-67403809D02*
X45320000Y-67365714D01*
X45281904Y-67289523D01*
X45281904Y-67099047D01*
X45320000Y-67022857D01*
X45358095Y-66984761D01*
X45434285Y-66946666D01*
X45510476Y-66946666D01*
X45624761Y-66984761D01*
X46081904Y-67441904D01*
X46081904Y-66946666D01*
%TO.C,DL21*%
D11*
X48292380Y-51672857D02*
X48292380Y-52244285D01*
X48292380Y-51958571D02*
X47292380Y-51958571D01*
X47435238Y-52053809D01*
X47530476Y-52149047D01*
X47578095Y-52244285D01*
X48292380Y-51244285D02*
X47292380Y-51244285D01*
X48292380Y-50672857D01*
X47292380Y-50672857D01*
X47625714Y-49768095D02*
X48292380Y-49768095D01*
X47244761Y-50006190D02*
X47959047Y-50244285D01*
X47959047Y-49625238D01*
X48292380Y-48720476D02*
X48292380Y-49291904D01*
X48292380Y-49006190D02*
X47292380Y-49006190D01*
X47435238Y-49101428D01*
X47530476Y-49196666D01*
X47578095Y-49291904D01*
X47625714Y-47863333D02*
X48292380Y-47863333D01*
X47244761Y-48101428D02*
X47959047Y-48339523D01*
X47959047Y-47720476D01*
X47720952Y-47196666D02*
X47673333Y-47291904D01*
X47625714Y-47339523D01*
X47530476Y-47387142D01*
X47482857Y-47387142D01*
X47387619Y-47339523D01*
X47340000Y-47291904D01*
X47292380Y-47196666D01*
X47292380Y-47006190D01*
X47340000Y-46910952D01*
X47387619Y-46863333D01*
X47482857Y-46815714D01*
X47530476Y-46815714D01*
X47625714Y-46863333D01*
X47673333Y-46910952D01*
X47720952Y-47006190D01*
X47720952Y-47196666D01*
X47768571Y-47291904D01*
X47816190Y-47339523D01*
X47911428Y-47387142D01*
X48101904Y-47387142D01*
X48197142Y-47339523D01*
X48244761Y-47291904D01*
X48292380Y-47196666D01*
X48292380Y-47006190D01*
X48244761Y-46910952D01*
X48197142Y-46863333D01*
X48101904Y-46815714D01*
X47911428Y-46815714D01*
X47816190Y-46863333D01*
X47768571Y-46910952D01*
X47720952Y-47006190D01*
D13*
X46081904Y-50525238D02*
X45281904Y-50525238D01*
X45281904Y-50334761D01*
X45320000Y-50220476D01*
X45396190Y-50144285D01*
X45472380Y-50106190D01*
X45624761Y-50068095D01*
X45739047Y-50068095D01*
X45891428Y-50106190D01*
X45967619Y-50144285D01*
X46043809Y-50220476D01*
X46081904Y-50334761D01*
X46081904Y-50525238D01*
X46081904Y-49344285D02*
X46081904Y-49725238D01*
X45281904Y-49725238D01*
X45358095Y-49115714D02*
X45320000Y-49077619D01*
X45281904Y-49001428D01*
X45281904Y-48810952D01*
X45320000Y-48734761D01*
X45358095Y-48696666D01*
X45434285Y-48658571D01*
X45510476Y-48658571D01*
X45624761Y-48696666D01*
X46081904Y-49153809D01*
X46081904Y-48658571D01*
X46081904Y-47896666D02*
X46081904Y-48353809D01*
X46081904Y-48125238D02*
X45281904Y-48125238D01*
X45396190Y-48201428D01*
X45472380Y-48277619D01*
X45510476Y-48353809D01*
D11*
X44372380Y-53601904D02*
X43372380Y-53601904D01*
X44372380Y-53030476D02*
X43800952Y-53459047D01*
X43372380Y-53030476D02*
X43943809Y-53601904D01*
%TO.C,DL15*%
X29242380Y-127872857D02*
X29242380Y-128444285D01*
X29242380Y-128158571D02*
X28242380Y-128158571D01*
X28385238Y-128253809D01*
X28480476Y-128349047D01*
X28528095Y-128444285D01*
X29242380Y-127444285D02*
X28242380Y-127444285D01*
X29242380Y-126872857D01*
X28242380Y-126872857D01*
X28575714Y-125968095D02*
X29242380Y-125968095D01*
X28194761Y-126206190D02*
X28909047Y-126444285D01*
X28909047Y-125825238D01*
X29242380Y-124920476D02*
X29242380Y-125491904D01*
X29242380Y-125206190D02*
X28242380Y-125206190D01*
X28385238Y-125301428D01*
X28480476Y-125396666D01*
X28528095Y-125491904D01*
X28575714Y-124063333D02*
X29242380Y-124063333D01*
X28194761Y-124301428D02*
X28909047Y-124539523D01*
X28909047Y-123920476D01*
X28670952Y-123396666D02*
X28623333Y-123491904D01*
X28575714Y-123539523D01*
X28480476Y-123587142D01*
X28432857Y-123587142D01*
X28337619Y-123539523D01*
X28290000Y-123491904D01*
X28242380Y-123396666D01*
X28242380Y-123206190D01*
X28290000Y-123110952D01*
X28337619Y-123063333D01*
X28432857Y-123015714D01*
X28480476Y-123015714D01*
X28575714Y-123063333D01*
X28623333Y-123110952D01*
X28670952Y-123206190D01*
X28670952Y-123396666D01*
X28718571Y-123491904D01*
X28766190Y-123539523D01*
X28861428Y-123587142D01*
X29051904Y-123587142D01*
X29147142Y-123539523D01*
X29194761Y-123491904D01*
X29242380Y-123396666D01*
X29242380Y-123206190D01*
X29194761Y-123110952D01*
X29147142Y-123063333D01*
X29051904Y-123015714D01*
X28861428Y-123015714D01*
X28766190Y-123063333D01*
X28718571Y-123110952D01*
X28670952Y-123206190D01*
X25322380Y-129801904D02*
X24322380Y-129801904D01*
X25322380Y-129230476D02*
X24750952Y-129659047D01*
X24322380Y-129230476D02*
X24893809Y-129801904D01*
D13*
X27031904Y-126725238D02*
X26231904Y-126725238D01*
X26231904Y-126534761D01*
X26270000Y-126420476D01*
X26346190Y-126344285D01*
X26422380Y-126306190D01*
X26574761Y-126268095D01*
X26689047Y-126268095D01*
X26841428Y-126306190D01*
X26917619Y-126344285D01*
X26993809Y-126420476D01*
X27031904Y-126534761D01*
X27031904Y-126725238D01*
X27031904Y-125544285D02*
X27031904Y-125925238D01*
X26231904Y-125925238D01*
X27031904Y-124858571D02*
X27031904Y-125315714D01*
X27031904Y-125087142D02*
X26231904Y-125087142D01*
X26346190Y-125163333D01*
X26422380Y-125239523D01*
X26460476Y-125315714D01*
X26231904Y-124134761D02*
X26231904Y-124515714D01*
X26612857Y-124553809D01*
X26574761Y-124515714D01*
X26536666Y-124439523D01*
X26536666Y-124249047D01*
X26574761Y-124172857D01*
X26612857Y-124134761D01*
X26689047Y-124096666D01*
X26879523Y-124096666D01*
X26955714Y-124134761D01*
X26993809Y-124172857D01*
X27031904Y-124249047D01*
X27031904Y-124439523D01*
X26993809Y-124515714D01*
X26955714Y-124553809D01*
%TO.C,DL14*%
D11*
X29242380Y-108822857D02*
X29242380Y-109394285D01*
X29242380Y-109108571D02*
X28242380Y-109108571D01*
X28385238Y-109203809D01*
X28480476Y-109299047D01*
X28528095Y-109394285D01*
X29242380Y-108394285D02*
X28242380Y-108394285D01*
X29242380Y-107822857D01*
X28242380Y-107822857D01*
X28575714Y-106918095D02*
X29242380Y-106918095D01*
X28194761Y-107156190D02*
X28909047Y-107394285D01*
X28909047Y-106775238D01*
X29242380Y-105870476D02*
X29242380Y-106441904D01*
X29242380Y-106156190D02*
X28242380Y-106156190D01*
X28385238Y-106251428D01*
X28480476Y-106346666D01*
X28528095Y-106441904D01*
X28575714Y-105013333D02*
X29242380Y-105013333D01*
X28194761Y-105251428D02*
X28909047Y-105489523D01*
X28909047Y-104870476D01*
X28670952Y-104346666D02*
X28623333Y-104441904D01*
X28575714Y-104489523D01*
X28480476Y-104537142D01*
X28432857Y-104537142D01*
X28337619Y-104489523D01*
X28290000Y-104441904D01*
X28242380Y-104346666D01*
X28242380Y-104156190D01*
X28290000Y-104060952D01*
X28337619Y-104013333D01*
X28432857Y-103965714D01*
X28480476Y-103965714D01*
X28575714Y-104013333D01*
X28623333Y-104060952D01*
X28670952Y-104156190D01*
X28670952Y-104346666D01*
X28718571Y-104441904D01*
X28766190Y-104489523D01*
X28861428Y-104537142D01*
X29051904Y-104537142D01*
X29147142Y-104489523D01*
X29194761Y-104441904D01*
X29242380Y-104346666D01*
X29242380Y-104156190D01*
X29194761Y-104060952D01*
X29147142Y-104013333D01*
X29051904Y-103965714D01*
X28861428Y-103965714D01*
X28766190Y-104013333D01*
X28718571Y-104060952D01*
X28670952Y-104156190D01*
X25322380Y-110751904D02*
X24322380Y-110751904D01*
X25322380Y-110180476D02*
X24750952Y-110609047D01*
X24322380Y-110180476D02*
X24893809Y-110751904D01*
D13*
X27031904Y-107675238D02*
X26231904Y-107675238D01*
X26231904Y-107484761D01*
X26270000Y-107370476D01*
X26346190Y-107294285D01*
X26422380Y-107256190D01*
X26574761Y-107218095D01*
X26689047Y-107218095D01*
X26841428Y-107256190D01*
X26917619Y-107294285D01*
X26993809Y-107370476D01*
X27031904Y-107484761D01*
X27031904Y-107675238D01*
X27031904Y-106494285D02*
X27031904Y-106875238D01*
X26231904Y-106875238D01*
X27031904Y-105808571D02*
X27031904Y-106265714D01*
X27031904Y-106037142D02*
X26231904Y-106037142D01*
X26346190Y-106113333D01*
X26422380Y-106189523D01*
X26460476Y-106265714D01*
X26498571Y-105122857D02*
X27031904Y-105122857D01*
X26193809Y-105313333D02*
X26765238Y-105503809D01*
X26765238Y-105008571D01*
%TO.C,DL13*%
D11*
X29242380Y-89772857D02*
X29242380Y-90344285D01*
X29242380Y-90058571D02*
X28242380Y-90058571D01*
X28385238Y-90153809D01*
X28480476Y-90249047D01*
X28528095Y-90344285D01*
X29242380Y-89344285D02*
X28242380Y-89344285D01*
X29242380Y-88772857D01*
X28242380Y-88772857D01*
X28575714Y-87868095D02*
X29242380Y-87868095D01*
X28194761Y-88106190D02*
X28909047Y-88344285D01*
X28909047Y-87725238D01*
X29242380Y-86820476D02*
X29242380Y-87391904D01*
X29242380Y-87106190D02*
X28242380Y-87106190D01*
X28385238Y-87201428D01*
X28480476Y-87296666D01*
X28528095Y-87391904D01*
X28575714Y-85963333D02*
X29242380Y-85963333D01*
X28194761Y-86201428D02*
X28909047Y-86439523D01*
X28909047Y-85820476D01*
X28670952Y-85296666D02*
X28623333Y-85391904D01*
X28575714Y-85439523D01*
X28480476Y-85487142D01*
X28432857Y-85487142D01*
X28337619Y-85439523D01*
X28290000Y-85391904D01*
X28242380Y-85296666D01*
X28242380Y-85106190D01*
X28290000Y-85010952D01*
X28337619Y-84963333D01*
X28432857Y-84915714D01*
X28480476Y-84915714D01*
X28575714Y-84963333D01*
X28623333Y-85010952D01*
X28670952Y-85106190D01*
X28670952Y-85296666D01*
X28718571Y-85391904D01*
X28766190Y-85439523D01*
X28861428Y-85487142D01*
X29051904Y-85487142D01*
X29147142Y-85439523D01*
X29194761Y-85391904D01*
X29242380Y-85296666D01*
X29242380Y-85106190D01*
X29194761Y-85010952D01*
X29147142Y-84963333D01*
X29051904Y-84915714D01*
X28861428Y-84915714D01*
X28766190Y-84963333D01*
X28718571Y-85010952D01*
X28670952Y-85106190D01*
D13*
X27031904Y-88625238D02*
X26231904Y-88625238D01*
X26231904Y-88434761D01*
X26270000Y-88320476D01*
X26346190Y-88244285D01*
X26422380Y-88206190D01*
X26574761Y-88168095D01*
X26689047Y-88168095D01*
X26841428Y-88206190D01*
X26917619Y-88244285D01*
X26993809Y-88320476D01*
X27031904Y-88434761D01*
X27031904Y-88625238D01*
X27031904Y-87444285D02*
X27031904Y-87825238D01*
X26231904Y-87825238D01*
X27031904Y-86758571D02*
X27031904Y-87215714D01*
X27031904Y-86987142D02*
X26231904Y-86987142D01*
X26346190Y-87063333D01*
X26422380Y-87139523D01*
X26460476Y-87215714D01*
X26231904Y-86491904D02*
X26231904Y-85996666D01*
X26536666Y-86263333D01*
X26536666Y-86149047D01*
X26574761Y-86072857D01*
X26612857Y-86034761D01*
X26689047Y-85996666D01*
X26879523Y-85996666D01*
X26955714Y-86034761D01*
X26993809Y-86072857D01*
X27031904Y-86149047D01*
X27031904Y-86377619D01*
X26993809Y-86453809D01*
X26955714Y-86491904D01*
D11*
X25322380Y-91701904D02*
X24322380Y-91701904D01*
X25322380Y-91130476D02*
X24750952Y-91559047D01*
X24322380Y-91130476D02*
X24893809Y-91701904D01*
%TO.C,DL12*%
X29242380Y-70722857D02*
X29242380Y-71294285D01*
X29242380Y-71008571D02*
X28242380Y-71008571D01*
X28385238Y-71103809D01*
X28480476Y-71199047D01*
X28528095Y-71294285D01*
X29242380Y-70294285D02*
X28242380Y-70294285D01*
X29242380Y-69722857D01*
X28242380Y-69722857D01*
X28575714Y-68818095D02*
X29242380Y-68818095D01*
X28194761Y-69056190D02*
X28909047Y-69294285D01*
X28909047Y-68675238D01*
X29242380Y-67770476D02*
X29242380Y-68341904D01*
X29242380Y-68056190D02*
X28242380Y-68056190D01*
X28385238Y-68151428D01*
X28480476Y-68246666D01*
X28528095Y-68341904D01*
X28575714Y-66913333D02*
X29242380Y-66913333D01*
X28194761Y-67151428D02*
X28909047Y-67389523D01*
X28909047Y-66770476D01*
X28670952Y-66246666D02*
X28623333Y-66341904D01*
X28575714Y-66389523D01*
X28480476Y-66437142D01*
X28432857Y-66437142D01*
X28337619Y-66389523D01*
X28290000Y-66341904D01*
X28242380Y-66246666D01*
X28242380Y-66056190D01*
X28290000Y-65960952D01*
X28337619Y-65913333D01*
X28432857Y-65865714D01*
X28480476Y-65865714D01*
X28575714Y-65913333D01*
X28623333Y-65960952D01*
X28670952Y-66056190D01*
X28670952Y-66246666D01*
X28718571Y-66341904D01*
X28766190Y-66389523D01*
X28861428Y-66437142D01*
X29051904Y-66437142D01*
X29147142Y-66389523D01*
X29194761Y-66341904D01*
X29242380Y-66246666D01*
X29242380Y-66056190D01*
X29194761Y-65960952D01*
X29147142Y-65913333D01*
X29051904Y-65865714D01*
X28861428Y-65865714D01*
X28766190Y-65913333D01*
X28718571Y-65960952D01*
X28670952Y-66056190D01*
D13*
X27031904Y-69575238D02*
X26231904Y-69575238D01*
X26231904Y-69384761D01*
X26270000Y-69270476D01*
X26346190Y-69194285D01*
X26422380Y-69156190D01*
X26574761Y-69118095D01*
X26689047Y-69118095D01*
X26841428Y-69156190D01*
X26917619Y-69194285D01*
X26993809Y-69270476D01*
X27031904Y-69384761D01*
X27031904Y-69575238D01*
X27031904Y-68394285D02*
X27031904Y-68775238D01*
X26231904Y-68775238D01*
X27031904Y-67708571D02*
X27031904Y-68165714D01*
X27031904Y-67937142D02*
X26231904Y-67937142D01*
X26346190Y-68013333D01*
X26422380Y-68089523D01*
X26460476Y-68165714D01*
X26308095Y-67403809D02*
X26270000Y-67365714D01*
X26231904Y-67289523D01*
X26231904Y-67099047D01*
X26270000Y-67022857D01*
X26308095Y-66984761D01*
X26384285Y-66946666D01*
X26460476Y-66946666D01*
X26574761Y-66984761D01*
X27031904Y-67441904D01*
X27031904Y-66946666D01*
D11*
X25322380Y-72651904D02*
X24322380Y-72651904D01*
X25322380Y-72080476D02*
X24750952Y-72509047D01*
X24322380Y-72080476D02*
X24893809Y-72651904D01*
%TO.C,DL11*%
X29242380Y-51672857D02*
X29242380Y-52244285D01*
X29242380Y-51958571D02*
X28242380Y-51958571D01*
X28385238Y-52053809D01*
X28480476Y-52149047D01*
X28528095Y-52244285D01*
X29242380Y-51244285D02*
X28242380Y-51244285D01*
X29242380Y-50672857D01*
X28242380Y-50672857D01*
X28575714Y-49768095D02*
X29242380Y-49768095D01*
X28194761Y-50006190D02*
X28909047Y-50244285D01*
X28909047Y-49625238D01*
X29242380Y-48720476D02*
X29242380Y-49291904D01*
X29242380Y-49006190D02*
X28242380Y-49006190D01*
X28385238Y-49101428D01*
X28480476Y-49196666D01*
X28528095Y-49291904D01*
X28575714Y-47863333D02*
X29242380Y-47863333D01*
X28194761Y-48101428D02*
X28909047Y-48339523D01*
X28909047Y-47720476D01*
X28670952Y-47196666D02*
X28623333Y-47291904D01*
X28575714Y-47339523D01*
X28480476Y-47387142D01*
X28432857Y-47387142D01*
X28337619Y-47339523D01*
X28290000Y-47291904D01*
X28242380Y-47196666D01*
X28242380Y-47006190D01*
X28290000Y-46910952D01*
X28337619Y-46863333D01*
X28432857Y-46815714D01*
X28480476Y-46815714D01*
X28575714Y-46863333D01*
X28623333Y-46910952D01*
X28670952Y-47006190D01*
X28670952Y-47196666D01*
X28718571Y-47291904D01*
X28766190Y-47339523D01*
X28861428Y-47387142D01*
X29051904Y-47387142D01*
X29147142Y-47339523D01*
X29194761Y-47291904D01*
X29242380Y-47196666D01*
X29242380Y-47006190D01*
X29194761Y-46910952D01*
X29147142Y-46863333D01*
X29051904Y-46815714D01*
X28861428Y-46815714D01*
X28766190Y-46863333D01*
X28718571Y-46910952D01*
X28670952Y-47006190D01*
X25322380Y-53601904D02*
X24322380Y-53601904D01*
X25322380Y-53030476D02*
X24750952Y-53459047D01*
X24322380Y-53030476D02*
X24893809Y-53601904D01*
D13*
X27031904Y-50525238D02*
X26231904Y-50525238D01*
X26231904Y-50334761D01*
X26270000Y-50220476D01*
X26346190Y-50144285D01*
X26422380Y-50106190D01*
X26574761Y-50068095D01*
X26689047Y-50068095D01*
X26841428Y-50106190D01*
X26917619Y-50144285D01*
X26993809Y-50220476D01*
X27031904Y-50334761D01*
X27031904Y-50525238D01*
X27031904Y-49344285D02*
X27031904Y-49725238D01*
X26231904Y-49725238D01*
X27031904Y-48658571D02*
X27031904Y-49115714D01*
X27031904Y-48887142D02*
X26231904Y-48887142D01*
X26346190Y-48963333D01*
X26422380Y-49039523D01*
X26460476Y-49115714D01*
X27031904Y-47896666D02*
X27031904Y-48353809D01*
X27031904Y-48125238D02*
X26231904Y-48125238D01*
X26346190Y-48201428D01*
X26422380Y-48277619D01*
X26460476Y-48353809D01*
%TO.C,U1*%
D11*
X151582380Y-55093809D02*
X150582380Y-55093809D01*
X150582380Y-54712857D01*
X150630000Y-54617619D01*
X150677619Y-54570000D01*
X150772857Y-54522380D01*
X150915714Y-54522380D01*
X151010952Y-54570000D01*
X151058571Y-54617619D01*
X151106190Y-54712857D01*
X151106190Y-55093809D01*
X151582380Y-54093809D02*
X150915714Y-54093809D01*
X151106190Y-54093809D02*
X151010952Y-54046190D01*
X150963333Y-53998571D01*
X150915714Y-53903333D01*
X150915714Y-53808095D01*
X151582380Y-53331904D02*
X151534761Y-53427142D01*
X151487142Y-53474761D01*
X151391904Y-53522380D01*
X151106190Y-53522380D01*
X151010952Y-53474761D01*
X150963333Y-53427142D01*
X150915714Y-53331904D01*
X150915714Y-53189047D01*
X150963333Y-53093809D01*
X151010952Y-53046190D01*
X151106190Y-52998571D01*
X151391904Y-52998571D01*
X151487142Y-53046190D01*
X151534761Y-53093809D01*
X151582380Y-53189047D01*
X151582380Y-53331904D01*
X151582380Y-52570000D02*
X150582380Y-52570000D01*
X151296666Y-52236666D01*
X150582380Y-51903333D01*
X151582380Y-51903333D01*
X151582380Y-51427142D02*
X150915714Y-51427142D01*
X150582380Y-51427142D02*
X150630000Y-51474761D01*
X150677619Y-51427142D01*
X150630000Y-51379523D01*
X150582380Y-51427142D01*
X150677619Y-51427142D01*
X151534761Y-50522380D02*
X151582380Y-50617619D01*
X151582380Y-50808095D01*
X151534761Y-50903333D01*
X151487142Y-50950952D01*
X151391904Y-50998571D01*
X151106190Y-50998571D01*
X151010952Y-50950952D01*
X150963333Y-50903333D01*
X150915714Y-50808095D01*
X150915714Y-50617619D01*
X150963333Y-50522380D01*
X151582380Y-50093809D02*
X150915714Y-50093809D01*
X151106190Y-50093809D02*
X151010952Y-50046190D01*
X150963333Y-49998571D01*
X150915714Y-49903333D01*
X150915714Y-49808095D01*
X151582380Y-49331904D02*
X151534761Y-49427142D01*
X151487142Y-49474761D01*
X151391904Y-49522380D01*
X151106190Y-49522380D01*
X151010952Y-49474761D01*
X150963333Y-49427142D01*
X150915714Y-49331904D01*
X150915714Y-49189047D01*
X150963333Y-49093809D01*
X151010952Y-49046190D01*
X151106190Y-48998571D01*
X151391904Y-48998571D01*
X151487142Y-49046190D01*
X151534761Y-49093809D01*
X151582380Y-49189047D01*
X151582380Y-49331904D01*
%TD*%
M02*
