M48
INCH,TZ
T1C0.0157
T2C0.0197
T3C0.0315
T4C0.0394
T5C0.0433
T6C0.0551
T7C0.0670
T8C0.1570
%
G90
G05
T1
X49000Y-45000
X55000Y-35500
X55000Y-45500
X55500Y-43000
T2
X11362Y-17606
X11362Y-18000
X11362Y-18394
X11362Y-25106
X11362Y-25500
X11362Y-25894
X11362Y-32606
X11362Y-33000
X11362Y-33394
X11362Y-40106
X11362Y-40500
X11362Y-40894
X16638Y-17606
X16638Y-18000
X16638Y-18394
X16638Y-25106
X16638Y-25500
X16638Y-25894
X16638Y-32606
X16638Y-33000
X16638Y-33394
X16638Y-40106
X16638Y-40500
X16638Y-40894
X18862Y-17606
X18862Y-18000
X18862Y-18394
X18862Y-25106
X18862Y-25500
X18862Y-25894
X18862Y-32606
X18862Y-33000
X18862Y-33394
X18862Y-40106
X18862Y-40500
X18862Y-40894
X18862Y-47606
X18862Y-48000
X18862Y-48394
X24138Y-17606
X24138Y-18000
X24138Y-18394
X24138Y-25106
X24138Y-25500
X24138Y-25894
X24138Y-32606
X24138Y-33000
X24138Y-33394
X24138Y-40106
X24138Y-40500
X24138Y-40894
X24138Y-47606
X24138Y-48000
X24138Y-48394
X26362Y-15606
X26362Y-16000
X26362Y-16394
X26362Y-23106
X26362Y-23500
X26362Y-23894
X26362Y-30606
X26362Y-31000
X26362Y-31394
X26362Y-38106
X26362Y-38500
X26362Y-38894
X26362Y-45606
X26362Y-46000
X26362Y-46394
X31638Y-15606
X31638Y-16000
X31638Y-16394
X31638Y-23106
X31638Y-23500
X31638Y-23894
X31638Y-30606
X31638Y-31000
X31638Y-31394
X31638Y-38106
X31638Y-38500
X31638Y-38894
X31638Y-45606
X31638Y-46000
X31638Y-46394
X33862Y-13606
X33862Y-14000
X33862Y-14394
X33862Y-21106
X33862Y-21500
X33862Y-21894
X33862Y-28606
X33862Y-29000
X33862Y-29394
X33862Y-36106
X33862Y-36500
X33862Y-36894
X33862Y-43606
X33862Y-44000
X33862Y-44394
X39138Y-13606
X39138Y-14000
X39138Y-14394
X39138Y-21106
X39138Y-21500
X39138Y-21894
X39138Y-28606
X39138Y-29000
X39138Y-29394
X39138Y-36106
X39138Y-36500
X39138Y-36894
X39138Y-43606
X39138Y-44000
X39138Y-44394
X41362Y-15606
X41362Y-16000
X41362Y-16394
X41362Y-23106
X41362Y-23500
X41362Y-23894
X41362Y-30606
X41362Y-31000
X41362Y-31394
X41362Y-38106
X41362Y-38500
X41362Y-38894
X41362Y-45606
X41362Y-46000
X41362Y-46394
X46638Y-15606
X46638Y-16000
X46638Y-16394
X46638Y-23106
X46638Y-23500
X46638Y-23894
X46638Y-30606
X46638Y-31000
X46638Y-31394
X46638Y-38106
X46638Y-38500
X46638Y-38894
X46638Y-45606
X46638Y-46000
X46638Y-46394
X48862Y-17606
X48862Y-18000
X48862Y-18394
X48862Y-25106
X48862Y-25500
X48862Y-25894
X48862Y-32606
X48862Y-33000
X48862Y-33394
X48862Y-40106
X48862Y-40500
X48862Y-40894
X48862Y-47606
X48862Y-48000
X48862Y-48394
X54138Y-17606
X54138Y-18000
X54138Y-18394
X54138Y-25106
X54138Y-25500
X54138Y-25894
X54138Y-32606
X54138Y-33000
X54138Y-33394
X54138Y-40106
X54138Y-40500
X54138Y-40894
X54138Y-47606
X54138Y-48000
X54138Y-48394
X56362Y-52106
X56362Y-52500
X56362Y-52894
X61638Y-52106
X61638Y-52500
X61638Y-52894
T3
X10500Y-18000
X10500Y-21000
X10500Y-25500
X10500Y-28500
X10500Y-33000
X10500Y-36000
X10500Y-40500
X10500Y-43500
X18000Y-18000
X18000Y-21000
X18000Y-25500
X18000Y-28500
X18000Y-33000
X18000Y-36000
X18000Y-40500
X18000Y-43500
X18000Y-48000
X18000Y-51000
X25500Y-16000
X25500Y-19000
X25500Y-23500
X25500Y-26500
X25500Y-31000
X25500Y-34000
X25500Y-38500
X25500Y-41500
X25500Y-46000
X25500Y-49000
X33000Y-14000
X33000Y-17000
X33000Y-21500
X33000Y-24500
X33000Y-29000
X33000Y-32000
X33000Y-36500
X33000Y-39500
X33000Y-44000
X33000Y-47000
X40500Y-16000
X40500Y-19000
X40500Y-23500
X40500Y-26500
X40500Y-31000
X40500Y-34000
X40500Y-38500
X40500Y-41500
X40500Y-46000
X40500Y-49000
X48000Y-18000
X48000Y-21000
X48000Y-25500
X48000Y-28500
X48000Y-33000
X48000Y-36000
X48000Y-40500
X48000Y-43500
X48000Y-48000
X48000Y-51000
X55500Y-52500
X55500Y-55500
T4
X59000Y-32000
X59000Y-34500
X60000Y-32000
X60000Y-34500
X61000Y-32000
X61000Y-34500
X62000Y-32000
X62000Y-34500
T5
X13500Y-16000
X13500Y-23500
X13500Y-31000
X13500Y-38500
X14500Y-16000
X14500Y-23500
X14500Y-31000
X14500Y-38500
X21000Y-16000
X21000Y-23500
X21000Y-31000
X21000Y-38500
X21000Y-46000
X22000Y-16000
X22000Y-23500
X22000Y-31000
X22000Y-38500
X22000Y-46000
X28500Y-14000
X28500Y-21500
X28500Y-29000
X28500Y-36500
X28500Y-44000
X29500Y-14000
X29500Y-21500
X29500Y-29000
X29500Y-36500
X29500Y-44000
X36000Y-12000
X36000Y-19500
X36000Y-27000
X36000Y-34500
X36000Y-42000
X37000Y-12000
X37000Y-19500
X37000Y-27000
X37000Y-34500
X37000Y-42000
X43500Y-14000
X43500Y-21500
X43500Y-29000
X43500Y-36500
X43500Y-44000
X44500Y-14000
X44500Y-21500
X44500Y-29000
X44500Y-36500
X44500Y-44000
X51000Y-16000
X51000Y-23500
X51000Y-31000
X51000Y-38500
X51000Y-46000
X52000Y-16000
X52000Y-23500
X52000Y-31000
X52000Y-38500
X52000Y-46000
X56500Y-15000
X56500Y-16000
X56500Y-17000
X56500Y-18000
X56500Y-19000
X56500Y-20000
X56500Y-21000
X56500Y-22000
X56500Y-23000
X56500Y-24000
X56500Y-25000
X56500Y-26000
X58500Y-50500
X59500Y-50500
X62500Y-15000
X62500Y-16000
X62500Y-17000
X62500Y-18000
X62500Y-19000
X62500Y-20000
X62500Y-21000
X62500Y-22000
X62500Y-23000
X62500Y-24000
X62500Y-25000
X62500Y-26000
T6
X12500Y-19000
X12500Y-26500
X12500Y-34000
X12500Y-41500
X13000Y-19920
X13000Y-27420
X13000Y-34920
X13000Y-42420
X15000Y-19920
X15000Y-27420
X15000Y-34920
X15000Y-42420
X15500Y-19000
X15500Y-26500
X15500Y-34000
X15500Y-41500
X20000Y-19000
X20000Y-26500
X20000Y-34000
X20000Y-41500
X20000Y-49000
X20500Y-19920
X20500Y-27420
X20500Y-34920
X20500Y-42420
X20500Y-49920
X22500Y-19920
X22500Y-27420
X22500Y-34920
X22500Y-42420
X22500Y-49920
X23000Y-19000
X23000Y-26500
X23000Y-34000
X23000Y-41500
X23000Y-49000
X27500Y-17000
X27500Y-24500
X27500Y-32000
X27500Y-39500
X27500Y-47000
X28000Y-17920
X28000Y-25420
X28000Y-32920
X28000Y-40420
X28000Y-47920
X30000Y-17920
X30000Y-25420
X30000Y-32920
X30000Y-40420
X30000Y-47920
X30500Y-17000
X30500Y-24500
X30500Y-32000
X30500Y-39500
X30500Y-47000
X35000Y-15000
X35000Y-22500
X35000Y-30000
X35000Y-37500
X35000Y-45000
X35500Y-15920
X35500Y-23420
X35500Y-30920
X35500Y-38420
X35500Y-45920
X37500Y-15920
X37500Y-23420
X37500Y-30920
X37500Y-38420
X37500Y-45920
X38000Y-15000
X38000Y-22500
X38000Y-30000
X38000Y-37500
X38000Y-45000
X42500Y-17000
X42500Y-24500
X42500Y-32000
X42500Y-39500
X42500Y-47000
X43000Y-17920
X43000Y-25420
X43000Y-32920
X43000Y-40420
X43000Y-47920
X45000Y-17920
X45000Y-25420
X45000Y-32920
X45000Y-40420
X45000Y-47920
X45500Y-17000
X45500Y-24500
X45500Y-32000
X45500Y-39500
X45500Y-47000
X50000Y-19000
X50000Y-26500
X50000Y-34000
X50000Y-41500
X50000Y-49000
X50500Y-19920
X50500Y-27420
X50500Y-34920
X50500Y-42420
X50500Y-49920
X52500Y-19920
X52500Y-27420
X52500Y-34920
X52500Y-42420
X52500Y-49920
X53000Y-19000
X53000Y-26500
X53000Y-34000
X53000Y-41500
X53000Y-49000
X57500Y-53500
X58000Y-54420
X60000Y-54420
X60500Y-53500
T7
X12000Y-18000
X12000Y-25500
X12000Y-33000
X12000Y-40500
X16000Y-18000
X16000Y-25500
X16000Y-33000
X16000Y-40500
X19500Y-18000
X19500Y-25500
X19500Y-33000
X19500Y-40500
X19500Y-48000
X23500Y-18000
X23500Y-25500
X23500Y-33000
X23500Y-40500
X23500Y-48000
X27000Y-16000
X27000Y-23500
X27000Y-31000
X27000Y-38500
X27000Y-46000
X31000Y-16000
X31000Y-23500
X31000Y-31000
X31000Y-38500
X31000Y-46000
X34500Y-14000
X34500Y-21500
X34500Y-29000
X34500Y-36500
X34500Y-44000
X38500Y-14000
X38500Y-21500
X38500Y-29000
X38500Y-36500
X38500Y-44000
X42000Y-16000
X42000Y-23500
X42000Y-31000
X42000Y-38500
X42000Y-46000
X46000Y-16000
X46000Y-23500
X46000Y-31000
X46000Y-38500
X46000Y-46000
X49500Y-18000
X49500Y-25500
X49500Y-33000
X49500Y-40500
X49500Y-48000
X53500Y-18000
X53500Y-25500
X53500Y-33000
X53500Y-40500
X53500Y-48000
X57000Y-52500
X61000Y-52500
T8
X14000Y-18000
X14000Y-25500
X14000Y-33000
X14000Y-40500
X21500Y-18000
X21500Y-25500
X21500Y-33000
X21500Y-40500
X21500Y-48000
X29000Y-16000
X29000Y-23500
X29000Y-31000
X29000Y-38500
X29000Y-46000
X36500Y-14000
X36500Y-21500
X36500Y-29000
X36500Y-36500
X36500Y-44000
X44000Y-16000
X44000Y-23500
X44000Y-31000
X44000Y-38500
X44000Y-46000
X51500Y-18000
X51500Y-25500
X51500Y-33000
X51500Y-40500
X51500Y-48000
X59000Y-52500
T0
M30
