%TF.GenerationSoftware,KiCad,Pcbnew,(5.1.9)-1*%
%TF.CreationDate,2021-03-27T16:34:22+07:00*%
%TF.ProjectId,LetsSplit256,4c657473-5370-46c6-9974-3235362e6b69,rev?*%
%TF.SameCoordinates,Original*%
%TF.FileFunction,Soldermask,Bot*%
%TF.FilePolarity,Negative*%
%FSLAX46Y46*%
G04 Gerber Fmt 4.6, Leading zero omitted, Abs format (unit mm)*
G04 Created by KiCad (PCBNEW (5.1.9)-1) date 2021-03-27 16:34:22*
%MOMM*%
%LPD*%
G01*
G04 APERTURE LIST*
%ADD10O,1.700000X1.700000*%
%ADD11R,1.700000X1.700000*%
%ADD12C,1.000000*%
%ADD13O,2.500000X1.800000*%
%ADD14C,2.500000*%
%ADD15C,2.000000*%
%ADD16C,4.300000*%
%ADD17C,1.600000*%
%ADD18R,1.600000X1.600000*%
%ADD19O,1.600000X1.600000*%
G04 APERTURE END LIST*
D10*
%TO.C,JL1*%
X157480000Y-81280000D03*
X154940000Y-81280000D03*
X152400000Y-81280000D03*
D11*
X149860000Y-81280000D03*
%TD*%
D10*
%TO.C,JL2*%
X149860000Y-87630000D03*
X152400000Y-87630000D03*
X154940000Y-87630000D03*
D11*
X157480000Y-87630000D03*
%TD*%
D12*
%TO.C,KLZ1*%
X47910000Y-101870000D03*
X47910000Y-103870000D03*
X47910000Y-102870000D03*
D13*
X57150000Y-107746800D03*
D14*
X50800000Y-105410000D03*
D13*
X52070000Y-107746800D03*
D14*
X58420000Y-105410000D03*
D15*
X49530000Y-102870000D03*
X59690000Y-102870000D03*
D16*
X54610000Y-102870000D03*
D12*
X61310000Y-102870000D03*
X61310000Y-101870000D03*
X61310000Y-103870000D03*
D17*
X55880000Y-97790000D03*
X53340000Y-97790000D03*
%TD*%
D12*
%TO.C,KLX1*%
X66960000Y-96790000D03*
X66960000Y-98790000D03*
X66960000Y-97790000D03*
D13*
X76200000Y-102666800D03*
D14*
X69850000Y-100330000D03*
D13*
X71120000Y-102666800D03*
D14*
X77470000Y-100330000D03*
D15*
X68580000Y-97790000D03*
X78740000Y-97790000D03*
D16*
X73660000Y-97790000D03*
D12*
X80360000Y-97790000D03*
X80360000Y-96790000D03*
X80360000Y-98790000D03*
D17*
X74930000Y-92710000D03*
X72390000Y-92710000D03*
%TD*%
D12*
%TO.C,KLW1*%
X66960000Y-58690000D03*
X66960000Y-60690000D03*
X66960000Y-59690000D03*
D13*
X76200000Y-64566800D03*
D14*
X69850000Y-62230000D03*
D13*
X71120000Y-64566800D03*
D14*
X77470000Y-62230000D03*
D15*
X68580000Y-59690000D03*
X78740000Y-59690000D03*
D16*
X73660000Y-59690000D03*
D12*
X80360000Y-59690000D03*
X80360000Y-58690000D03*
X80360000Y-60690000D03*
D17*
X74930000Y-54610000D03*
X72390000Y-54610000D03*
%TD*%
D12*
%TO.C,KLV1*%
X105060000Y-96790000D03*
X105060000Y-98790000D03*
X105060000Y-97790000D03*
D13*
X114300000Y-102666800D03*
D14*
X107950000Y-100330000D03*
D13*
X109220000Y-102666800D03*
D14*
X115570000Y-100330000D03*
D15*
X106680000Y-97790000D03*
X116840000Y-97790000D03*
D16*
X111760000Y-97790000D03*
D12*
X118460000Y-97790000D03*
X118460000Y-96790000D03*
X118460000Y-98790000D03*
D17*
X113030000Y-92710000D03*
X110490000Y-92710000D03*
%TD*%
D12*
%TO.C,KLR1*%
X105060000Y-58690000D03*
X105060000Y-60690000D03*
X105060000Y-59690000D03*
D13*
X114300000Y-64566800D03*
D14*
X107950000Y-62230000D03*
D13*
X109220000Y-64566800D03*
D14*
X115570000Y-62230000D03*
D15*
X106680000Y-59690000D03*
X116840000Y-59690000D03*
D16*
X111760000Y-59690000D03*
D12*
X118460000Y-59690000D03*
X118460000Y-58690000D03*
X118460000Y-60690000D03*
D17*
X113030000Y-54610000D03*
X110490000Y-54610000D03*
%TD*%
D12*
%TO.C,KLQ1*%
X47910000Y-63770000D03*
X47910000Y-65770000D03*
X47910000Y-64770000D03*
D13*
X57150000Y-69646800D03*
D14*
X50800000Y-67310000D03*
D13*
X52070000Y-69646800D03*
D14*
X58420000Y-67310000D03*
D15*
X49530000Y-64770000D03*
X59690000Y-64770000D03*
D16*
X54610000Y-64770000D03*
D12*
X61310000Y-64770000D03*
X61310000Y-63770000D03*
X61310000Y-65770000D03*
D17*
X55880000Y-59690000D03*
X53340000Y-59690000D03*
%TD*%
%TO.C,KLFunc65*%
X148590000Y-128270000D03*
X151130000Y-128270000D03*
D12*
X156560000Y-134350000D03*
X156560000Y-132350000D03*
X156560000Y-133350000D03*
D16*
X149860000Y-133350000D03*
D15*
X154940000Y-133350000D03*
X144780000Y-133350000D03*
D14*
X153670000Y-135890000D03*
D13*
X147320000Y-138226800D03*
D14*
X146050000Y-135890000D03*
D13*
X152400000Y-138226800D03*
D12*
X143160000Y-133350000D03*
X143160000Y-134350000D03*
X143160000Y-132350000D03*
%TD*%
%TO.C,KLFunc55*%
X124110000Y-120920000D03*
X124110000Y-122920000D03*
X124110000Y-121920000D03*
D13*
X133350000Y-126796800D03*
D14*
X127000000Y-124460000D03*
D13*
X128270000Y-126796800D03*
D14*
X134620000Y-124460000D03*
D15*
X125730000Y-121920000D03*
X135890000Y-121920000D03*
D16*
X130810000Y-121920000D03*
D12*
X137510000Y-121920000D03*
X137510000Y-120920000D03*
X137510000Y-122920000D03*
D17*
X132080000Y-116840000D03*
X129540000Y-116840000D03*
%TD*%
D12*
%TO.C,KLFunc35*%
X86010000Y-110760000D03*
X86010000Y-112760000D03*
X86010000Y-111760000D03*
D13*
X95250000Y-116636800D03*
D14*
X88900000Y-114300000D03*
D13*
X90170000Y-116636800D03*
D14*
X96520000Y-114300000D03*
D15*
X87630000Y-111760000D03*
X97790000Y-111760000D03*
D16*
X92710000Y-111760000D03*
D12*
X99410000Y-111760000D03*
X99410000Y-110760000D03*
X99410000Y-112760000D03*
D17*
X93980000Y-106680000D03*
X91440000Y-106680000D03*
%TD*%
D12*
%TO.C,KLFunc25*%
X66960000Y-115840000D03*
X66960000Y-117840000D03*
X66960000Y-116840000D03*
D13*
X76200000Y-121716800D03*
D14*
X69850000Y-119380000D03*
D13*
X71120000Y-121716800D03*
D14*
X77470000Y-119380000D03*
D15*
X68580000Y-116840000D03*
X78740000Y-116840000D03*
D16*
X73660000Y-116840000D03*
D12*
X80360000Y-116840000D03*
X80360000Y-115840000D03*
X80360000Y-117840000D03*
D17*
X74930000Y-111760000D03*
X72390000Y-111760000D03*
%TD*%
D12*
%TO.C,KLFunc15*%
X47910000Y-120920000D03*
X47910000Y-122920000D03*
X47910000Y-121920000D03*
D13*
X57150000Y-126796800D03*
D14*
X50800000Y-124460000D03*
D13*
X52070000Y-126796800D03*
D14*
X58420000Y-124460000D03*
D15*
X49530000Y-121920000D03*
X59690000Y-121920000D03*
D16*
X54610000Y-121920000D03*
D12*
X61310000Y-121920000D03*
X61310000Y-120920000D03*
X61310000Y-122920000D03*
D17*
X55880000Y-116840000D03*
X53340000Y-116840000D03*
%TD*%
D12*
%TO.C,KLFunc14*%
X28860000Y-101870000D03*
X28860000Y-103870000D03*
X28860000Y-102870000D03*
D13*
X38100000Y-107746800D03*
D14*
X31750000Y-105410000D03*
D13*
X33020000Y-107746800D03*
D14*
X39370000Y-105410000D03*
D15*
X30480000Y-102870000D03*
X40640000Y-102870000D03*
D16*
X35560000Y-102870000D03*
D12*
X42260000Y-102870000D03*
X42260000Y-101870000D03*
X42260000Y-103870000D03*
D17*
X36830000Y-97790000D03*
X34290000Y-97790000D03*
%TD*%
D12*
%TO.C,KLFunc13*%
X28860000Y-82820000D03*
X28860000Y-84820000D03*
X28860000Y-83820000D03*
D13*
X38100000Y-88696800D03*
D14*
X31750000Y-86360000D03*
D13*
X33020000Y-88696800D03*
D14*
X39370000Y-86360000D03*
D15*
X30480000Y-83820000D03*
X40640000Y-83820000D03*
D16*
X35560000Y-83820000D03*
D12*
X42260000Y-83820000D03*
X42260000Y-82820000D03*
X42260000Y-84820000D03*
D17*
X36830000Y-78740000D03*
X34290000Y-78740000D03*
%TD*%
D12*
%TO.C,KLFunc12*%
X28860000Y-63770000D03*
X28860000Y-65770000D03*
X28860000Y-64770000D03*
D13*
X38100000Y-69646800D03*
D14*
X31750000Y-67310000D03*
D13*
X33020000Y-69646800D03*
D14*
X39370000Y-67310000D03*
D15*
X30480000Y-64770000D03*
X40640000Y-64770000D03*
D16*
X35560000Y-64770000D03*
D12*
X42260000Y-64770000D03*
X42260000Y-63770000D03*
X42260000Y-65770000D03*
D17*
X36830000Y-59690000D03*
X34290000Y-59690000D03*
%TD*%
D12*
%TO.C,KLFunc11*%
X28860000Y-44720000D03*
X28860000Y-46720000D03*
X28860000Y-45720000D03*
D13*
X38100000Y-50596800D03*
D14*
X31750000Y-48260000D03*
D13*
X33020000Y-50596800D03*
D14*
X39370000Y-48260000D03*
D15*
X30480000Y-45720000D03*
X40640000Y-45720000D03*
D16*
X35560000Y-45720000D03*
D12*
X42260000Y-45720000D03*
X42260000Y-44720000D03*
X42260000Y-46720000D03*
D17*
X36830000Y-40640000D03*
X34290000Y-40640000D03*
%TD*%
D12*
%TO.C,KLF1*%
X105060000Y-77740000D03*
X105060000Y-79740000D03*
X105060000Y-78740000D03*
D13*
X114300000Y-83616800D03*
D14*
X107950000Y-81280000D03*
D13*
X109220000Y-83616800D03*
D14*
X115570000Y-81280000D03*
D15*
X106680000Y-78740000D03*
X116840000Y-78740000D03*
D16*
X111760000Y-78740000D03*
D12*
X118460000Y-78740000D03*
X118460000Y-77740000D03*
X118460000Y-79740000D03*
D17*
X113030000Y-73660000D03*
X110490000Y-73660000D03*
%TD*%
D12*
%TO.C,KLE1*%
X86010000Y-53610000D03*
X86010000Y-55610000D03*
X86010000Y-54610000D03*
D13*
X95250000Y-59486800D03*
D14*
X88900000Y-57150000D03*
D13*
X90170000Y-59486800D03*
D14*
X96520000Y-57150000D03*
D15*
X87630000Y-54610000D03*
X97790000Y-54610000D03*
D16*
X92710000Y-54610000D03*
D12*
X99410000Y-54610000D03*
X99410000Y-53610000D03*
X99410000Y-55610000D03*
D17*
X93980000Y-49530000D03*
X91440000Y-49530000D03*
%TD*%
D12*
%TO.C,KLD1*%
X86010000Y-72660000D03*
X86010000Y-74660000D03*
X86010000Y-73660000D03*
D13*
X95250000Y-78536800D03*
D14*
X88900000Y-76200000D03*
D13*
X90170000Y-78536800D03*
D14*
X96520000Y-76200000D03*
D15*
X87630000Y-73660000D03*
X97790000Y-73660000D03*
D16*
X92710000Y-73660000D03*
D12*
X99410000Y-73660000D03*
X99410000Y-72660000D03*
X99410000Y-74660000D03*
D17*
X93980000Y-68580000D03*
X91440000Y-68580000D03*
%TD*%
D12*
%TO.C,KLC1*%
X86010000Y-91710000D03*
X86010000Y-93710000D03*
X86010000Y-92710000D03*
D13*
X95250000Y-97586800D03*
D14*
X88900000Y-95250000D03*
D13*
X90170000Y-97586800D03*
D14*
X96520000Y-95250000D03*
D15*
X87630000Y-92710000D03*
X97790000Y-92710000D03*
D16*
X92710000Y-92710000D03*
D12*
X99410000Y-92710000D03*
X99410000Y-91710000D03*
X99410000Y-93710000D03*
D17*
X93980000Y-87630000D03*
X91440000Y-87630000D03*
%TD*%
D12*
%TO.C,KLB1*%
X124110000Y-101870000D03*
X124110000Y-103870000D03*
X124110000Y-102870000D03*
D13*
X133350000Y-107746800D03*
D14*
X127000000Y-105410000D03*
D13*
X128270000Y-107746800D03*
D14*
X134620000Y-105410000D03*
D15*
X125730000Y-102870000D03*
X135890000Y-102870000D03*
D16*
X130810000Y-102870000D03*
D12*
X137510000Y-102870000D03*
X137510000Y-101870000D03*
X137510000Y-103870000D03*
D17*
X132080000Y-97790000D03*
X129540000Y-97790000D03*
%TD*%
D12*
%TO.C,KLA1*%
X47910000Y-82820000D03*
X47910000Y-84820000D03*
X47910000Y-83820000D03*
D13*
X57150000Y-88696800D03*
D14*
X50800000Y-86360000D03*
D13*
X52070000Y-88696800D03*
D14*
X58420000Y-86360000D03*
D15*
X49530000Y-83820000D03*
X59690000Y-83820000D03*
D16*
X54610000Y-83820000D03*
D12*
X61310000Y-83820000D03*
X61310000Y-82820000D03*
X61310000Y-84820000D03*
D17*
X55880000Y-78740000D03*
X53340000Y-78740000D03*
%TD*%
D12*
%TO.C,KL4*%
X105060000Y-39640000D03*
X105060000Y-41640000D03*
X105060000Y-40640000D03*
D13*
X114300000Y-45516800D03*
D14*
X107950000Y-43180000D03*
D13*
X109220000Y-45516800D03*
D14*
X115570000Y-43180000D03*
D15*
X106680000Y-40640000D03*
X116840000Y-40640000D03*
D16*
X111760000Y-40640000D03*
D12*
X118460000Y-40640000D03*
X118460000Y-39640000D03*
X118460000Y-41640000D03*
D17*
X113030000Y-35560000D03*
X110490000Y-35560000D03*
%TD*%
D12*
%TO.C,KL3*%
X86010000Y-34560000D03*
X86010000Y-36560000D03*
X86010000Y-35560000D03*
D13*
X95250000Y-40436800D03*
D14*
X88900000Y-38100000D03*
D13*
X90170000Y-40436800D03*
D14*
X96520000Y-38100000D03*
D15*
X87630000Y-35560000D03*
X97790000Y-35560000D03*
D16*
X92710000Y-35560000D03*
D12*
X99410000Y-35560000D03*
X99410000Y-34560000D03*
X99410000Y-36560000D03*
D17*
X93980000Y-30480000D03*
X91440000Y-30480000D03*
%TD*%
D12*
%TO.C,KL2*%
X66960000Y-39640000D03*
X66960000Y-41640000D03*
X66960000Y-40640000D03*
D13*
X76200000Y-45516800D03*
D14*
X69850000Y-43180000D03*
D13*
X71120000Y-45516800D03*
D14*
X77470000Y-43180000D03*
D15*
X68580000Y-40640000D03*
X78740000Y-40640000D03*
D16*
X73660000Y-40640000D03*
D12*
X80360000Y-40640000D03*
X80360000Y-39640000D03*
X80360000Y-41640000D03*
D17*
X74930000Y-35560000D03*
X72390000Y-35560000D03*
%TD*%
D12*
%TO.C,KL1*%
X47910000Y-44720000D03*
X47910000Y-46720000D03*
X47910000Y-45720000D03*
D13*
X57150000Y-50596800D03*
D14*
X50800000Y-48260000D03*
D13*
X52070000Y-50596800D03*
D14*
X58420000Y-48260000D03*
D15*
X49530000Y-45720000D03*
X59690000Y-45720000D03*
D16*
X54610000Y-45720000D03*
D12*
X61310000Y-45720000D03*
X61310000Y-44720000D03*
X61310000Y-46720000D03*
D17*
X55880000Y-40640000D03*
X53340000Y-40640000D03*
%TD*%
D12*
%TO.C,KLS1*%
X66960000Y-77740000D03*
X66960000Y-79740000D03*
X66960000Y-78740000D03*
D13*
X76200000Y-83616800D03*
D14*
X69850000Y-81280000D03*
D13*
X71120000Y-83616800D03*
D14*
X77470000Y-81280000D03*
D15*
X68580000Y-78740000D03*
X78740000Y-78740000D03*
D16*
X73660000Y-78740000D03*
D12*
X80360000Y-78740000D03*
X80360000Y-77740000D03*
X80360000Y-79740000D03*
D17*
X74930000Y-73660000D03*
X72390000Y-73660000D03*
%TD*%
D12*
%TO.C,KLFunc45*%
X105060000Y-115840000D03*
X105060000Y-117840000D03*
X105060000Y-116840000D03*
D13*
X114300000Y-121716800D03*
D14*
X107950000Y-119380000D03*
D13*
X109220000Y-121716800D03*
D14*
X115570000Y-119380000D03*
D15*
X106680000Y-116840000D03*
X116840000Y-116840000D03*
D16*
X111760000Y-116840000D03*
D12*
X118460000Y-116840000D03*
X118460000Y-115840000D03*
X118460000Y-117840000D03*
D17*
X113030000Y-111760000D03*
X110490000Y-111760000D03*
%TD*%
D12*
%TO.C,KLT1*%
X124110000Y-63770000D03*
X124110000Y-65770000D03*
X124110000Y-64770000D03*
D13*
X133350000Y-69646800D03*
D14*
X127000000Y-67310000D03*
D13*
X128270000Y-69646800D03*
D14*
X134620000Y-67310000D03*
D15*
X125730000Y-64770000D03*
X135890000Y-64770000D03*
D16*
X130810000Y-64770000D03*
D12*
X137510000Y-64770000D03*
X137510000Y-63770000D03*
X137510000Y-65770000D03*
D17*
X132080000Y-59690000D03*
X129540000Y-59690000D03*
%TD*%
D12*
%TO.C,KL5*%
X124110000Y-44720000D03*
X124110000Y-46720000D03*
X124110000Y-45720000D03*
D13*
X133350000Y-50596800D03*
D14*
X127000000Y-48260000D03*
D13*
X128270000Y-50596800D03*
D14*
X134620000Y-48260000D03*
D15*
X125730000Y-45720000D03*
X135890000Y-45720000D03*
D16*
X130810000Y-45720000D03*
D12*
X137510000Y-45720000D03*
X137510000Y-44720000D03*
X137510000Y-46720000D03*
D17*
X132080000Y-40640000D03*
X129540000Y-40640000D03*
%TD*%
D12*
%TO.C,KLG1*%
X124110000Y-82820000D03*
X124110000Y-84820000D03*
X124110000Y-83820000D03*
D13*
X133350000Y-88696800D03*
D14*
X127000000Y-86360000D03*
D13*
X128270000Y-88696800D03*
D14*
X134620000Y-86360000D03*
D15*
X125730000Y-83820000D03*
X135890000Y-83820000D03*
D16*
X130810000Y-83820000D03*
D12*
X137510000Y-83820000D03*
X137510000Y-82820000D03*
X137510000Y-84820000D03*
D17*
X132080000Y-78740000D03*
X129540000Y-78740000D03*
%TD*%
D18*
%TO.C,DL65*%
X140970000Y-140970000D03*
D19*
X140970000Y-133350000D03*
%TD*%
%TO.C,DL64*%
X121920000Y-102870000D03*
D18*
X121920000Y-110490000D03*
%TD*%
%TO.C,DL63*%
X121920000Y-91440000D03*
D19*
X121920000Y-83820000D03*
%TD*%
D18*
%TO.C,DL62*%
X121920000Y-72390000D03*
D19*
X121920000Y-64770000D03*
%TD*%
D18*
%TO.C,DL61*%
X121920000Y-53340000D03*
D19*
X121920000Y-45720000D03*
%TD*%
%TO.C,DL55*%
X121920000Y-121920000D03*
D18*
X121920000Y-129540000D03*
%TD*%
%TO.C,DL54*%
X102870000Y-105410000D03*
D19*
X102870000Y-97790000D03*
%TD*%
%TO.C,DL53*%
X102870000Y-78740000D03*
D18*
X102870000Y-86360000D03*
%TD*%
D19*
%TO.C,DL52*%
X102870000Y-59690000D03*
D18*
X102870000Y-67310000D03*
%TD*%
D19*
%TO.C,DL51*%
X102870000Y-40640000D03*
D18*
X102870000Y-48260000D03*
%TD*%
%TO.C,DL45*%
X102870000Y-124460000D03*
D19*
X102870000Y-116840000D03*
%TD*%
%TO.C,DL44*%
X83820000Y-92710000D03*
D18*
X83820000Y-100330000D03*
%TD*%
%TO.C,DL43*%
X83820000Y-81280000D03*
D19*
X83820000Y-73660000D03*
%TD*%
D18*
%TO.C,DL42*%
X83820000Y-62230000D03*
D19*
X83820000Y-54610000D03*
%TD*%
D18*
%TO.C,DL41*%
X83820000Y-43180000D03*
D19*
X83820000Y-35560000D03*
%TD*%
%TO.C,DL35*%
X83820000Y-111760000D03*
D18*
X83820000Y-119380000D03*
%TD*%
%TO.C,DL34*%
X64770000Y-105410000D03*
D19*
X64770000Y-97790000D03*
%TD*%
%TO.C,DL33*%
X64770000Y-78740000D03*
D18*
X64770000Y-86360000D03*
%TD*%
D19*
%TO.C,DL32*%
X64770000Y-59690000D03*
D18*
X64770000Y-67310000D03*
%TD*%
D19*
%TO.C,DL31*%
X64770000Y-40640000D03*
D18*
X64770000Y-48260000D03*
%TD*%
%TO.C,DL25*%
X64770000Y-124460000D03*
D19*
X64770000Y-116840000D03*
%TD*%
%TO.C,DL24*%
X45720000Y-102870000D03*
D18*
X45720000Y-110490000D03*
%TD*%
%TO.C,DL23*%
X45720000Y-91440000D03*
D19*
X45720000Y-83820000D03*
%TD*%
%TO.C,DL22*%
X45720000Y-64770000D03*
D18*
X45720000Y-72390000D03*
%TD*%
%TO.C,DL21*%
X45720000Y-53340000D03*
D19*
X45720000Y-45720000D03*
%TD*%
%TO.C,DL15*%
X45720000Y-121920000D03*
D18*
X45720000Y-129540000D03*
%TD*%
D19*
%TO.C,DL14*%
X26670000Y-102870000D03*
D18*
X26670000Y-110490000D03*
%TD*%
%TO.C,DL13*%
X26670000Y-91440000D03*
D19*
X26670000Y-83820000D03*
%TD*%
D18*
%TO.C,DL12*%
X26670000Y-72390000D03*
D19*
X26670000Y-64770000D03*
%TD*%
%TO.C,DL11*%
X26670000Y-45720000D03*
D18*
X26670000Y-53340000D03*
%TD*%
D17*
%TO.C,U1*%
X158750000Y-38100000D03*
X158750000Y-40640000D03*
X158750000Y-43180000D03*
X158750000Y-45720000D03*
X158750000Y-48260000D03*
X158750000Y-50800000D03*
X158750000Y-53340000D03*
X158750000Y-55880000D03*
X158750000Y-58420000D03*
X158750000Y-60960000D03*
X158750000Y-63500000D03*
X158750000Y-66040000D03*
X143510000Y-66040000D03*
X143510000Y-63500000D03*
X143510000Y-60960000D03*
X143510000Y-58420000D03*
X143510000Y-55880000D03*
X143510000Y-53340000D03*
X143510000Y-50800000D03*
X143510000Y-48260000D03*
X143510000Y-45720000D03*
X143510000Y-43180000D03*
X143510000Y-40640000D03*
D18*
X143510000Y-38100000D03*
%TD*%
M02*
