%TF.GenerationSoftware,KiCad,Pcbnew,(5.1.9)-1*%
%TF.CreationDate,2021-03-27T16:34:22+07:00*%
%TF.ProjectId,LetsSplit256,4c657473-5370-46c6-9974-3235362e6b69,rev?*%
%TF.SameCoordinates,Original*%
%TF.FileFunction,Other,Fab,Top*%
%FSLAX46Y46*%
G04 Gerber Fmt 4.6, Leading zero omitted, Abs format (unit mm)*
G04 Created by KiCad (PCBNEW (5.1.9)-1) date 2021-03-27 16:34:22*
%MOMM*%
%LPD*%
G01*
G04 APERTURE LIST*
%ADD10C,0.100000*%
%ADD11C,0.150000*%
%ADD12C,0.050000*%
%ADD13C,0.120000*%
G04 APERTURE END LIST*
D10*
%TO.C,JL1*%
X148590000Y-81915000D02*
X148590000Y-80010000D01*
X148590000Y-80010000D02*
X158750000Y-80010000D01*
X158750000Y-80010000D02*
X158750000Y-82550000D01*
X158750000Y-82550000D02*
X149225000Y-82550000D01*
X149225000Y-82550000D02*
X148590000Y-81915000D01*
%TO.C,JL2*%
X158750000Y-86995000D02*
X158750000Y-88900000D01*
X158750000Y-88900000D02*
X148590000Y-88900000D01*
X148590000Y-88900000D02*
X148590000Y-86360000D01*
X148590000Y-86360000D02*
X158115000Y-86360000D01*
X158115000Y-86360000D02*
X158750000Y-86995000D01*
%TO.C,DL65*%
X139970000Y-138660000D02*
X141970000Y-138660000D01*
X139970000Y-138460000D02*
X141970000Y-138460000D01*
X139970000Y-138560000D02*
X141970000Y-138560000D01*
X140970000Y-133350000D02*
X140970000Y-135160000D01*
X140970000Y-140970000D02*
X140970000Y-139160000D01*
X139970000Y-135160000D02*
X139970000Y-139160000D01*
X141970000Y-135160000D02*
X139970000Y-135160000D01*
X141970000Y-139160000D02*
X141970000Y-135160000D01*
X139970000Y-139160000D02*
X141970000Y-139160000D01*
%TO.C,DL64*%
X120920000Y-108680000D02*
X122920000Y-108680000D01*
X122920000Y-108680000D02*
X122920000Y-104680000D01*
X122920000Y-104680000D02*
X120920000Y-104680000D01*
X120920000Y-104680000D02*
X120920000Y-108680000D01*
X121920000Y-110490000D02*
X121920000Y-108680000D01*
X121920000Y-102870000D02*
X121920000Y-104680000D01*
X120920000Y-108080000D02*
X122920000Y-108080000D01*
X120920000Y-107980000D02*
X122920000Y-107980000D01*
X120920000Y-108180000D02*
X122920000Y-108180000D01*
%TO.C,DL63*%
X120920000Y-89130000D02*
X122920000Y-89130000D01*
X120920000Y-88930000D02*
X122920000Y-88930000D01*
X120920000Y-89030000D02*
X122920000Y-89030000D01*
X121920000Y-83820000D02*
X121920000Y-85630000D01*
X121920000Y-91440000D02*
X121920000Y-89630000D01*
X120920000Y-85630000D02*
X120920000Y-89630000D01*
X122920000Y-85630000D02*
X120920000Y-85630000D01*
X122920000Y-89630000D02*
X122920000Y-85630000D01*
X120920000Y-89630000D02*
X122920000Y-89630000D01*
%TO.C,DL62*%
X120920000Y-70080000D02*
X122920000Y-70080000D01*
X120920000Y-69880000D02*
X122920000Y-69880000D01*
X120920000Y-69980000D02*
X122920000Y-69980000D01*
X121920000Y-64770000D02*
X121920000Y-66580000D01*
X121920000Y-72390000D02*
X121920000Y-70580000D01*
X120920000Y-66580000D02*
X120920000Y-70580000D01*
X122920000Y-66580000D02*
X120920000Y-66580000D01*
X122920000Y-70580000D02*
X122920000Y-66580000D01*
X120920000Y-70580000D02*
X122920000Y-70580000D01*
%TO.C,DL61*%
X120920000Y-51030000D02*
X122920000Y-51030000D01*
X120920000Y-50830000D02*
X122920000Y-50830000D01*
X120920000Y-50930000D02*
X122920000Y-50930000D01*
X121920000Y-45720000D02*
X121920000Y-47530000D01*
X121920000Y-53340000D02*
X121920000Y-51530000D01*
X120920000Y-47530000D02*
X120920000Y-51530000D01*
X122920000Y-47530000D02*
X120920000Y-47530000D01*
X122920000Y-51530000D02*
X122920000Y-47530000D01*
X120920000Y-51530000D02*
X122920000Y-51530000D01*
%TO.C,DL55*%
X120920000Y-127730000D02*
X122920000Y-127730000D01*
X122920000Y-127730000D02*
X122920000Y-123730000D01*
X122920000Y-123730000D02*
X120920000Y-123730000D01*
X120920000Y-123730000D02*
X120920000Y-127730000D01*
X121920000Y-129540000D02*
X121920000Y-127730000D01*
X121920000Y-121920000D02*
X121920000Y-123730000D01*
X120920000Y-127130000D02*
X122920000Y-127130000D01*
X120920000Y-127030000D02*
X122920000Y-127030000D01*
X120920000Y-127230000D02*
X122920000Y-127230000D01*
%TO.C,DL54*%
X101870000Y-103100000D02*
X103870000Y-103100000D01*
X101870000Y-102900000D02*
X103870000Y-102900000D01*
X101870000Y-103000000D02*
X103870000Y-103000000D01*
X102870000Y-97790000D02*
X102870000Y-99600000D01*
X102870000Y-105410000D02*
X102870000Y-103600000D01*
X101870000Y-99600000D02*
X101870000Y-103600000D01*
X103870000Y-99600000D02*
X101870000Y-99600000D01*
X103870000Y-103600000D02*
X103870000Y-99600000D01*
X101870000Y-103600000D02*
X103870000Y-103600000D01*
%TO.C,DL53*%
X101870000Y-84550000D02*
X103870000Y-84550000D01*
X103870000Y-84550000D02*
X103870000Y-80550000D01*
X103870000Y-80550000D02*
X101870000Y-80550000D01*
X101870000Y-80550000D02*
X101870000Y-84550000D01*
X102870000Y-86360000D02*
X102870000Y-84550000D01*
X102870000Y-78740000D02*
X102870000Y-80550000D01*
X101870000Y-83950000D02*
X103870000Y-83950000D01*
X101870000Y-83850000D02*
X103870000Y-83850000D01*
X101870000Y-84050000D02*
X103870000Y-84050000D01*
%TO.C,DL52*%
X101870000Y-65500000D02*
X103870000Y-65500000D01*
X103870000Y-65500000D02*
X103870000Y-61500000D01*
X103870000Y-61500000D02*
X101870000Y-61500000D01*
X101870000Y-61500000D02*
X101870000Y-65500000D01*
X102870000Y-67310000D02*
X102870000Y-65500000D01*
X102870000Y-59690000D02*
X102870000Y-61500000D01*
X101870000Y-64900000D02*
X103870000Y-64900000D01*
X101870000Y-64800000D02*
X103870000Y-64800000D01*
X101870000Y-65000000D02*
X103870000Y-65000000D01*
%TO.C,DL51*%
X101870000Y-46450000D02*
X103870000Y-46450000D01*
X103870000Y-46450000D02*
X103870000Y-42450000D01*
X103870000Y-42450000D02*
X101870000Y-42450000D01*
X101870000Y-42450000D02*
X101870000Y-46450000D01*
X102870000Y-48260000D02*
X102870000Y-46450000D01*
X102870000Y-40640000D02*
X102870000Y-42450000D01*
X101870000Y-45850000D02*
X103870000Y-45850000D01*
X101870000Y-45750000D02*
X103870000Y-45750000D01*
X101870000Y-45950000D02*
X103870000Y-45950000D01*
%TO.C,DL45*%
X101870000Y-122150000D02*
X103870000Y-122150000D01*
X101870000Y-121950000D02*
X103870000Y-121950000D01*
X101870000Y-122050000D02*
X103870000Y-122050000D01*
X102870000Y-116840000D02*
X102870000Y-118650000D01*
X102870000Y-124460000D02*
X102870000Y-122650000D01*
X101870000Y-118650000D02*
X101870000Y-122650000D01*
X103870000Y-118650000D02*
X101870000Y-118650000D01*
X103870000Y-122650000D02*
X103870000Y-118650000D01*
X101870000Y-122650000D02*
X103870000Y-122650000D01*
%TO.C,DL44*%
X82820000Y-98520000D02*
X84820000Y-98520000D01*
X84820000Y-98520000D02*
X84820000Y-94520000D01*
X84820000Y-94520000D02*
X82820000Y-94520000D01*
X82820000Y-94520000D02*
X82820000Y-98520000D01*
X83820000Y-100330000D02*
X83820000Y-98520000D01*
X83820000Y-92710000D02*
X83820000Y-94520000D01*
X82820000Y-97920000D02*
X84820000Y-97920000D01*
X82820000Y-97820000D02*
X84820000Y-97820000D01*
X82820000Y-98020000D02*
X84820000Y-98020000D01*
%TO.C,DL43*%
X82820000Y-78970000D02*
X84820000Y-78970000D01*
X82820000Y-78770000D02*
X84820000Y-78770000D01*
X82820000Y-78870000D02*
X84820000Y-78870000D01*
X83820000Y-73660000D02*
X83820000Y-75470000D01*
X83820000Y-81280000D02*
X83820000Y-79470000D01*
X82820000Y-75470000D02*
X82820000Y-79470000D01*
X84820000Y-75470000D02*
X82820000Y-75470000D01*
X84820000Y-79470000D02*
X84820000Y-75470000D01*
X82820000Y-79470000D02*
X84820000Y-79470000D01*
%TO.C,DL42*%
X82820000Y-59920000D02*
X84820000Y-59920000D01*
X82820000Y-59720000D02*
X84820000Y-59720000D01*
X82820000Y-59820000D02*
X84820000Y-59820000D01*
X83820000Y-54610000D02*
X83820000Y-56420000D01*
X83820000Y-62230000D02*
X83820000Y-60420000D01*
X82820000Y-56420000D02*
X82820000Y-60420000D01*
X84820000Y-56420000D02*
X82820000Y-56420000D01*
X84820000Y-60420000D02*
X84820000Y-56420000D01*
X82820000Y-60420000D02*
X84820000Y-60420000D01*
%TO.C,DL41*%
X82820000Y-40870000D02*
X84820000Y-40870000D01*
X82820000Y-40670000D02*
X84820000Y-40670000D01*
X82820000Y-40770000D02*
X84820000Y-40770000D01*
X83820000Y-35560000D02*
X83820000Y-37370000D01*
X83820000Y-43180000D02*
X83820000Y-41370000D01*
X82820000Y-37370000D02*
X82820000Y-41370000D01*
X84820000Y-37370000D02*
X82820000Y-37370000D01*
X84820000Y-41370000D02*
X84820000Y-37370000D01*
X82820000Y-41370000D02*
X84820000Y-41370000D01*
%TO.C,DL35*%
X82820000Y-117570000D02*
X84820000Y-117570000D01*
X84820000Y-117570000D02*
X84820000Y-113570000D01*
X84820000Y-113570000D02*
X82820000Y-113570000D01*
X82820000Y-113570000D02*
X82820000Y-117570000D01*
X83820000Y-119380000D02*
X83820000Y-117570000D01*
X83820000Y-111760000D02*
X83820000Y-113570000D01*
X82820000Y-116970000D02*
X84820000Y-116970000D01*
X82820000Y-116870000D02*
X84820000Y-116870000D01*
X82820000Y-117070000D02*
X84820000Y-117070000D01*
%TO.C,DL34*%
X63770000Y-103100000D02*
X65770000Y-103100000D01*
X63770000Y-102900000D02*
X65770000Y-102900000D01*
X63770000Y-103000000D02*
X65770000Y-103000000D01*
X64770000Y-97790000D02*
X64770000Y-99600000D01*
X64770000Y-105410000D02*
X64770000Y-103600000D01*
X63770000Y-99600000D02*
X63770000Y-103600000D01*
X65770000Y-99600000D02*
X63770000Y-99600000D01*
X65770000Y-103600000D02*
X65770000Y-99600000D01*
X63770000Y-103600000D02*
X65770000Y-103600000D01*
%TO.C,DL33*%
X63770000Y-84550000D02*
X65770000Y-84550000D01*
X65770000Y-84550000D02*
X65770000Y-80550000D01*
X65770000Y-80550000D02*
X63770000Y-80550000D01*
X63770000Y-80550000D02*
X63770000Y-84550000D01*
X64770000Y-86360000D02*
X64770000Y-84550000D01*
X64770000Y-78740000D02*
X64770000Y-80550000D01*
X63770000Y-83950000D02*
X65770000Y-83950000D01*
X63770000Y-83850000D02*
X65770000Y-83850000D01*
X63770000Y-84050000D02*
X65770000Y-84050000D01*
%TO.C,DL32*%
X63770000Y-65500000D02*
X65770000Y-65500000D01*
X65770000Y-65500000D02*
X65770000Y-61500000D01*
X65770000Y-61500000D02*
X63770000Y-61500000D01*
X63770000Y-61500000D02*
X63770000Y-65500000D01*
X64770000Y-67310000D02*
X64770000Y-65500000D01*
X64770000Y-59690000D02*
X64770000Y-61500000D01*
X63770000Y-64900000D02*
X65770000Y-64900000D01*
X63770000Y-64800000D02*
X65770000Y-64800000D01*
X63770000Y-65000000D02*
X65770000Y-65000000D01*
%TO.C,DL31*%
X63770000Y-46450000D02*
X65770000Y-46450000D01*
X65770000Y-46450000D02*
X65770000Y-42450000D01*
X65770000Y-42450000D02*
X63770000Y-42450000D01*
X63770000Y-42450000D02*
X63770000Y-46450000D01*
X64770000Y-48260000D02*
X64770000Y-46450000D01*
X64770000Y-40640000D02*
X64770000Y-42450000D01*
X63770000Y-45850000D02*
X65770000Y-45850000D01*
X63770000Y-45750000D02*
X65770000Y-45750000D01*
X63770000Y-45950000D02*
X65770000Y-45950000D01*
%TO.C,DL25*%
X63770000Y-122150000D02*
X65770000Y-122150000D01*
X63770000Y-121950000D02*
X65770000Y-121950000D01*
X63770000Y-122050000D02*
X65770000Y-122050000D01*
X64770000Y-116840000D02*
X64770000Y-118650000D01*
X64770000Y-124460000D02*
X64770000Y-122650000D01*
X63770000Y-118650000D02*
X63770000Y-122650000D01*
X65770000Y-118650000D02*
X63770000Y-118650000D01*
X65770000Y-122650000D02*
X65770000Y-118650000D01*
X63770000Y-122650000D02*
X65770000Y-122650000D01*
%TO.C,DL24*%
X44720000Y-108680000D02*
X46720000Y-108680000D01*
X46720000Y-108680000D02*
X46720000Y-104680000D01*
X46720000Y-104680000D02*
X44720000Y-104680000D01*
X44720000Y-104680000D02*
X44720000Y-108680000D01*
X45720000Y-110490000D02*
X45720000Y-108680000D01*
X45720000Y-102870000D02*
X45720000Y-104680000D01*
X44720000Y-108080000D02*
X46720000Y-108080000D01*
X44720000Y-107980000D02*
X46720000Y-107980000D01*
X44720000Y-108180000D02*
X46720000Y-108180000D01*
%TO.C,DL23*%
X44720000Y-89130000D02*
X46720000Y-89130000D01*
X44720000Y-88930000D02*
X46720000Y-88930000D01*
X44720000Y-89030000D02*
X46720000Y-89030000D01*
X45720000Y-83820000D02*
X45720000Y-85630000D01*
X45720000Y-91440000D02*
X45720000Y-89630000D01*
X44720000Y-85630000D02*
X44720000Y-89630000D01*
X46720000Y-85630000D02*
X44720000Y-85630000D01*
X46720000Y-89630000D02*
X46720000Y-85630000D01*
X44720000Y-89630000D02*
X46720000Y-89630000D01*
%TO.C,DL22*%
X44720000Y-70580000D02*
X46720000Y-70580000D01*
X46720000Y-70580000D02*
X46720000Y-66580000D01*
X46720000Y-66580000D02*
X44720000Y-66580000D01*
X44720000Y-66580000D02*
X44720000Y-70580000D01*
X45720000Y-72390000D02*
X45720000Y-70580000D01*
X45720000Y-64770000D02*
X45720000Y-66580000D01*
X44720000Y-69980000D02*
X46720000Y-69980000D01*
X44720000Y-69880000D02*
X46720000Y-69880000D01*
X44720000Y-70080000D02*
X46720000Y-70080000D01*
%TO.C,DL21*%
X44720000Y-51030000D02*
X46720000Y-51030000D01*
X44720000Y-50830000D02*
X46720000Y-50830000D01*
X44720000Y-50930000D02*
X46720000Y-50930000D01*
X45720000Y-45720000D02*
X45720000Y-47530000D01*
X45720000Y-53340000D02*
X45720000Y-51530000D01*
X44720000Y-47530000D02*
X44720000Y-51530000D01*
X46720000Y-47530000D02*
X44720000Y-47530000D01*
X46720000Y-51530000D02*
X46720000Y-47530000D01*
X44720000Y-51530000D02*
X46720000Y-51530000D01*
%TO.C,DL15*%
X44720000Y-127730000D02*
X46720000Y-127730000D01*
X46720000Y-127730000D02*
X46720000Y-123730000D01*
X46720000Y-123730000D02*
X44720000Y-123730000D01*
X44720000Y-123730000D02*
X44720000Y-127730000D01*
X45720000Y-129540000D02*
X45720000Y-127730000D01*
X45720000Y-121920000D02*
X45720000Y-123730000D01*
X44720000Y-127130000D02*
X46720000Y-127130000D01*
X44720000Y-127030000D02*
X46720000Y-127030000D01*
X44720000Y-127230000D02*
X46720000Y-127230000D01*
%TO.C,DL14*%
X25670000Y-108680000D02*
X27670000Y-108680000D01*
X27670000Y-108680000D02*
X27670000Y-104680000D01*
X27670000Y-104680000D02*
X25670000Y-104680000D01*
X25670000Y-104680000D02*
X25670000Y-108680000D01*
X26670000Y-110490000D02*
X26670000Y-108680000D01*
X26670000Y-102870000D02*
X26670000Y-104680000D01*
X25670000Y-108080000D02*
X27670000Y-108080000D01*
X25670000Y-107980000D02*
X27670000Y-107980000D01*
X25670000Y-108180000D02*
X27670000Y-108180000D01*
%TO.C,DL13*%
X25670000Y-89130000D02*
X27670000Y-89130000D01*
X25670000Y-88930000D02*
X27670000Y-88930000D01*
X25670000Y-89030000D02*
X27670000Y-89030000D01*
X26670000Y-83820000D02*
X26670000Y-85630000D01*
X26670000Y-91440000D02*
X26670000Y-89630000D01*
X25670000Y-85630000D02*
X25670000Y-89630000D01*
X27670000Y-85630000D02*
X25670000Y-85630000D01*
X27670000Y-89630000D02*
X27670000Y-85630000D01*
X25670000Y-89630000D02*
X27670000Y-89630000D01*
%TO.C,DL12*%
X25670000Y-70080000D02*
X27670000Y-70080000D01*
X25670000Y-69880000D02*
X27670000Y-69880000D01*
X25670000Y-69980000D02*
X27670000Y-69980000D01*
X26670000Y-64770000D02*
X26670000Y-66580000D01*
X26670000Y-72390000D02*
X26670000Y-70580000D01*
X25670000Y-66580000D02*
X25670000Y-70580000D01*
X27670000Y-66580000D02*
X25670000Y-66580000D01*
X27670000Y-70580000D02*
X27670000Y-66580000D01*
X25670000Y-70580000D02*
X27670000Y-70580000D01*
%TO.C,DL11*%
X25670000Y-51530000D02*
X27670000Y-51530000D01*
X27670000Y-51530000D02*
X27670000Y-47530000D01*
X27670000Y-47530000D02*
X25670000Y-47530000D01*
X25670000Y-47530000D02*
X25670000Y-51530000D01*
X26670000Y-53340000D02*
X26670000Y-51530000D01*
X26670000Y-45720000D02*
X26670000Y-47530000D01*
X25670000Y-50930000D02*
X27670000Y-50930000D01*
X25670000Y-50830000D02*
X27670000Y-50830000D01*
X25670000Y-51030000D02*
X27670000Y-51030000D01*
%TD*%
%TO.C,JL1*%
D11*
X149931904Y-84177142D02*
X149884285Y-84224761D01*
X149741428Y-84272380D01*
X149646190Y-84272380D01*
X149503333Y-84224761D01*
X149408095Y-84129523D01*
X149360476Y-84034285D01*
X149312857Y-83843809D01*
X149312857Y-83700952D01*
X149360476Y-83510476D01*
X149408095Y-83415238D01*
X149503333Y-83320000D01*
X149646190Y-83272380D01*
X149741428Y-83272380D01*
X149884285Y-83320000D01*
X149931904Y-83367619D01*
X150503333Y-84272380D02*
X150408095Y-84224761D01*
X150360476Y-84177142D01*
X150312857Y-84081904D01*
X150312857Y-83796190D01*
X150360476Y-83700952D01*
X150408095Y-83653333D01*
X150503333Y-83605714D01*
X150646190Y-83605714D01*
X150741428Y-83653333D01*
X150789047Y-83700952D01*
X150836666Y-83796190D01*
X150836666Y-84081904D01*
X150789047Y-84177142D01*
X150741428Y-84224761D01*
X150646190Y-84272380D01*
X150503333Y-84272380D01*
X151265238Y-83605714D02*
X151265238Y-84272380D01*
X151265238Y-83700952D02*
X151312857Y-83653333D01*
X151408095Y-83605714D01*
X151550952Y-83605714D01*
X151646190Y-83653333D01*
X151693809Y-83748571D01*
X151693809Y-84272380D01*
X152170000Y-83605714D02*
X152170000Y-84272380D01*
X152170000Y-83700952D02*
X152217619Y-83653333D01*
X152312857Y-83605714D01*
X152455714Y-83605714D01*
X152550952Y-83653333D01*
X152598571Y-83748571D01*
X152598571Y-84272380D01*
X152836666Y-84367619D02*
X153598571Y-84367619D01*
X154027142Y-83272380D02*
X154122380Y-83272380D01*
X154217619Y-83320000D01*
X154265238Y-83367619D01*
X154312857Y-83462857D01*
X154360476Y-83653333D01*
X154360476Y-83891428D01*
X154312857Y-84081904D01*
X154265238Y-84177142D01*
X154217619Y-84224761D01*
X154122380Y-84272380D01*
X154027142Y-84272380D01*
X153931904Y-84224761D01*
X153884285Y-84177142D01*
X153836666Y-84081904D01*
X153789047Y-83891428D01*
X153789047Y-83653333D01*
X153836666Y-83462857D01*
X153884285Y-83367619D01*
X153931904Y-83320000D01*
X154027142Y-83272380D01*
X155312857Y-84272380D02*
X154741428Y-84272380D01*
X155027142Y-84272380D02*
X155027142Y-83272380D01*
X154931904Y-83415238D01*
X154836666Y-83510476D01*
X154741428Y-83558095D01*
X155646190Y-84272380D02*
X156170000Y-83605714D01*
X155646190Y-83605714D02*
X156170000Y-84272380D01*
X156741428Y-83272380D02*
X156836666Y-83272380D01*
X156931904Y-83320000D01*
X156979523Y-83367619D01*
X157027142Y-83462857D01*
X157074761Y-83653333D01*
X157074761Y-83891428D01*
X157027142Y-84081904D01*
X156979523Y-84177142D01*
X156931904Y-84224761D01*
X156836666Y-84272380D01*
X156741428Y-84272380D01*
X156646190Y-84224761D01*
X156598571Y-84177142D01*
X156550952Y-84081904D01*
X156503333Y-83891428D01*
X156503333Y-83653333D01*
X156550952Y-83462857D01*
X156598571Y-83367619D01*
X156646190Y-83320000D01*
X156741428Y-83272380D01*
X157931904Y-83605714D02*
X157931904Y-84272380D01*
X157693809Y-83224761D02*
X157455714Y-83939047D01*
X158074761Y-83939047D01*
X152931904Y-77962380D02*
X152931904Y-78676666D01*
X152884285Y-78819523D01*
X152789047Y-78914761D01*
X152646190Y-78962380D01*
X152550952Y-78962380D01*
X153884285Y-78962380D02*
X153408095Y-78962380D01*
X153408095Y-77962380D01*
X154741428Y-78962380D02*
X154170000Y-78962380D01*
X154455714Y-78962380D02*
X154455714Y-77962380D01*
X154360476Y-78105238D01*
X154265238Y-78200476D01*
X154170000Y-78248095D01*
%TO.C,JL2*%
X149931904Y-85447142D02*
X149884285Y-85494761D01*
X149741428Y-85542380D01*
X149646190Y-85542380D01*
X149503333Y-85494761D01*
X149408095Y-85399523D01*
X149360476Y-85304285D01*
X149312857Y-85113809D01*
X149312857Y-84970952D01*
X149360476Y-84780476D01*
X149408095Y-84685238D01*
X149503333Y-84590000D01*
X149646190Y-84542380D01*
X149741428Y-84542380D01*
X149884285Y-84590000D01*
X149931904Y-84637619D01*
X150503333Y-85542380D02*
X150408095Y-85494761D01*
X150360476Y-85447142D01*
X150312857Y-85351904D01*
X150312857Y-85066190D01*
X150360476Y-84970952D01*
X150408095Y-84923333D01*
X150503333Y-84875714D01*
X150646190Y-84875714D01*
X150741428Y-84923333D01*
X150789047Y-84970952D01*
X150836666Y-85066190D01*
X150836666Y-85351904D01*
X150789047Y-85447142D01*
X150741428Y-85494761D01*
X150646190Y-85542380D01*
X150503333Y-85542380D01*
X151265238Y-84875714D02*
X151265238Y-85542380D01*
X151265238Y-84970952D02*
X151312857Y-84923333D01*
X151408095Y-84875714D01*
X151550952Y-84875714D01*
X151646190Y-84923333D01*
X151693809Y-85018571D01*
X151693809Y-85542380D01*
X152170000Y-84875714D02*
X152170000Y-85542380D01*
X152170000Y-84970952D02*
X152217619Y-84923333D01*
X152312857Y-84875714D01*
X152455714Y-84875714D01*
X152550952Y-84923333D01*
X152598571Y-85018571D01*
X152598571Y-85542380D01*
X152836666Y-85637619D02*
X153598571Y-85637619D01*
X154027142Y-84542380D02*
X154122380Y-84542380D01*
X154217619Y-84590000D01*
X154265238Y-84637619D01*
X154312857Y-84732857D01*
X154360476Y-84923333D01*
X154360476Y-85161428D01*
X154312857Y-85351904D01*
X154265238Y-85447142D01*
X154217619Y-85494761D01*
X154122380Y-85542380D01*
X154027142Y-85542380D01*
X153931904Y-85494761D01*
X153884285Y-85447142D01*
X153836666Y-85351904D01*
X153789047Y-85161428D01*
X153789047Y-84923333D01*
X153836666Y-84732857D01*
X153884285Y-84637619D01*
X153931904Y-84590000D01*
X154027142Y-84542380D01*
X155312857Y-85542380D02*
X154741428Y-85542380D01*
X155027142Y-85542380D02*
X155027142Y-84542380D01*
X154931904Y-84685238D01*
X154836666Y-84780476D01*
X154741428Y-84828095D01*
X155646190Y-85542380D02*
X156170000Y-84875714D01*
X155646190Y-84875714D02*
X156170000Y-85542380D01*
X156741428Y-84542380D02*
X156836666Y-84542380D01*
X156931904Y-84590000D01*
X156979523Y-84637619D01*
X157027142Y-84732857D01*
X157074761Y-84923333D01*
X157074761Y-85161428D01*
X157027142Y-85351904D01*
X156979523Y-85447142D01*
X156931904Y-85494761D01*
X156836666Y-85542380D01*
X156741428Y-85542380D01*
X156646190Y-85494761D01*
X156598571Y-85447142D01*
X156550952Y-85351904D01*
X156503333Y-85161428D01*
X156503333Y-84923333D01*
X156550952Y-84732857D01*
X156598571Y-84637619D01*
X156646190Y-84590000D01*
X156741428Y-84542380D01*
X157931904Y-84875714D02*
X157931904Y-85542380D01*
X157693809Y-84494761D02*
X157455714Y-85209047D01*
X158074761Y-85209047D01*
X152931904Y-89852380D02*
X152931904Y-90566666D01*
X152884285Y-90709523D01*
X152789047Y-90804761D01*
X152646190Y-90852380D01*
X152550952Y-90852380D01*
X153884285Y-90852380D02*
X153408095Y-90852380D01*
X153408095Y-89852380D01*
X154170000Y-89947619D02*
X154217619Y-89900000D01*
X154312857Y-89852380D01*
X154550952Y-89852380D01*
X154646190Y-89900000D01*
X154693809Y-89947619D01*
X154741428Y-90042857D01*
X154741428Y-90138095D01*
X154693809Y-90280952D01*
X154122380Y-90852380D01*
X154741428Y-90852380D01*
%TO.C,KLZ1*%
D12*
X52142571Y-101019428D02*
X52142571Y-99495428D01*
X53013428Y-101019428D02*
X52360285Y-100148571D01*
X53013428Y-99495428D02*
X52142571Y-100366285D01*
X54392285Y-101019428D02*
X53666571Y-101019428D01*
X53666571Y-99495428D01*
X54755142Y-99495428D02*
X55771142Y-99495428D01*
X54755142Y-101019428D01*
X55771142Y-101019428D01*
X57150000Y-101019428D02*
X56279142Y-101019428D01*
X56714571Y-101019428D02*
X56714571Y-99495428D01*
X56569428Y-99713142D01*
X56424285Y-99858285D01*
X56279142Y-99930857D01*
%TO.C,KLX1*%
X71192571Y-95939428D02*
X71192571Y-94415428D01*
X72063428Y-95939428D02*
X71410285Y-95068571D01*
X72063428Y-94415428D02*
X71192571Y-95286285D01*
X73442285Y-95939428D02*
X72716571Y-95939428D01*
X72716571Y-94415428D01*
X73805142Y-94415428D02*
X74821142Y-95939428D01*
X74821142Y-94415428D02*
X73805142Y-95939428D01*
X76200000Y-95939428D02*
X75329142Y-95939428D01*
X75764571Y-95939428D02*
X75764571Y-94415428D01*
X75619428Y-94633142D01*
X75474285Y-94778285D01*
X75329142Y-94850857D01*
%TO.C,KLW1*%
X71047428Y-57839428D02*
X71047428Y-56315428D01*
X71918285Y-57839428D02*
X71265142Y-56968571D01*
X71918285Y-56315428D02*
X71047428Y-57186285D01*
X73297142Y-57839428D02*
X72571428Y-57839428D01*
X72571428Y-56315428D01*
X73660000Y-56315428D02*
X74022857Y-57839428D01*
X74313142Y-56750857D01*
X74603428Y-57839428D01*
X74966285Y-56315428D01*
X76345142Y-57839428D02*
X75474285Y-57839428D01*
X75909714Y-57839428D02*
X75909714Y-56315428D01*
X75764571Y-56533142D01*
X75619428Y-56678285D01*
X75474285Y-56750857D01*
%TO.C,KLV1*%
X109365142Y-95939428D02*
X109365142Y-94415428D01*
X110236000Y-95939428D02*
X109582857Y-95068571D01*
X110236000Y-94415428D02*
X109365142Y-95286285D01*
X111614857Y-95939428D02*
X110889142Y-95939428D01*
X110889142Y-94415428D01*
X111905142Y-94415428D02*
X112413142Y-95939428D01*
X112921142Y-94415428D01*
X114227428Y-95939428D02*
X113356571Y-95939428D01*
X113792000Y-95939428D02*
X113792000Y-94415428D01*
X113646857Y-94633142D01*
X113501714Y-94778285D01*
X113356571Y-94850857D01*
%TO.C,KLR1*%
X109256285Y-57839428D02*
X109256285Y-56315428D01*
X110127142Y-57839428D02*
X109474000Y-56968571D01*
X110127142Y-56315428D02*
X109256285Y-57186285D01*
X111506000Y-57839428D02*
X110780285Y-57839428D01*
X110780285Y-56315428D01*
X112884857Y-57839428D02*
X112376857Y-57113714D01*
X112014000Y-57839428D02*
X112014000Y-56315428D01*
X112594571Y-56315428D01*
X112739714Y-56388000D01*
X112812285Y-56460571D01*
X112884857Y-56605714D01*
X112884857Y-56823428D01*
X112812285Y-56968571D01*
X112739714Y-57041142D01*
X112594571Y-57113714D01*
X112014000Y-57113714D01*
X114336285Y-57839428D02*
X113465428Y-57839428D01*
X113900857Y-57839428D02*
X113900857Y-56315428D01*
X113755714Y-56533142D01*
X113610571Y-56678285D01*
X113465428Y-56750857D01*
%TO.C,KLQ1*%
X52070000Y-62919428D02*
X52070000Y-61395428D01*
X52940857Y-62919428D02*
X52287714Y-62048571D01*
X52940857Y-61395428D02*
X52070000Y-62266285D01*
X54319714Y-62919428D02*
X53594000Y-62919428D01*
X53594000Y-61395428D01*
X55843714Y-63064571D02*
X55698571Y-62992000D01*
X55553428Y-62846857D01*
X55335714Y-62629142D01*
X55190571Y-62556571D01*
X55045428Y-62556571D01*
X55118000Y-62919428D02*
X54972857Y-62846857D01*
X54827714Y-62701714D01*
X54755142Y-62411428D01*
X54755142Y-61903428D01*
X54827714Y-61613142D01*
X54972857Y-61468000D01*
X55118000Y-61395428D01*
X55408285Y-61395428D01*
X55553428Y-61468000D01*
X55698571Y-61613142D01*
X55771142Y-61903428D01*
X55771142Y-62411428D01*
X55698571Y-62701714D01*
X55553428Y-62846857D01*
X55408285Y-62919428D01*
X55118000Y-62919428D01*
X57222571Y-62919428D02*
X56351714Y-62919428D01*
X56787142Y-62919428D02*
X56787142Y-61395428D01*
X56642000Y-61613142D01*
X56496857Y-61758285D01*
X56351714Y-61830857D01*
%TO.C,KLFunc65*%
X144707428Y-131499428D02*
X144707428Y-129975428D01*
X145578285Y-131499428D02*
X144925142Y-130628571D01*
X145578285Y-129975428D02*
X144707428Y-130846285D01*
X146957142Y-131499428D02*
X146231428Y-131499428D01*
X146231428Y-129975428D01*
X147973142Y-130701142D02*
X147465142Y-130701142D01*
X147465142Y-131499428D02*
X147465142Y-129975428D01*
X148190857Y-129975428D01*
X149424571Y-130483428D02*
X149424571Y-131499428D01*
X148771428Y-130483428D02*
X148771428Y-131281714D01*
X148844000Y-131426857D01*
X148989142Y-131499428D01*
X149206857Y-131499428D01*
X149352000Y-131426857D01*
X149424571Y-131354285D01*
X150150285Y-130483428D02*
X150150285Y-131499428D01*
X150150285Y-130628571D02*
X150222857Y-130556000D01*
X150368000Y-130483428D01*
X150585714Y-130483428D01*
X150730857Y-130556000D01*
X150803428Y-130701142D01*
X150803428Y-131499428D01*
X152182285Y-131426857D02*
X152037142Y-131499428D01*
X151746857Y-131499428D01*
X151601714Y-131426857D01*
X151529142Y-131354285D01*
X151456571Y-131209142D01*
X151456571Y-130773714D01*
X151529142Y-130628571D01*
X151601714Y-130556000D01*
X151746857Y-130483428D01*
X152037142Y-130483428D01*
X152182285Y-130556000D01*
X153488571Y-129975428D02*
X153198285Y-129975428D01*
X153053142Y-130048000D01*
X152980571Y-130120571D01*
X152835428Y-130338285D01*
X152762857Y-130628571D01*
X152762857Y-131209142D01*
X152835428Y-131354285D01*
X152908000Y-131426857D01*
X153053142Y-131499428D01*
X153343428Y-131499428D01*
X153488571Y-131426857D01*
X153561142Y-131354285D01*
X153633714Y-131209142D01*
X153633714Y-130846285D01*
X153561142Y-130701142D01*
X153488571Y-130628571D01*
X153343428Y-130556000D01*
X153053142Y-130556000D01*
X152908000Y-130628571D01*
X152835428Y-130701142D01*
X152762857Y-130846285D01*
X155012571Y-129975428D02*
X154286857Y-129975428D01*
X154214285Y-130701142D01*
X154286857Y-130628571D01*
X154432000Y-130556000D01*
X154794857Y-130556000D01*
X154940000Y-130628571D01*
X155012571Y-130701142D01*
X155085142Y-130846285D01*
X155085142Y-131209142D01*
X155012571Y-131354285D01*
X154940000Y-131426857D01*
X154794857Y-131499428D01*
X154432000Y-131499428D01*
X154286857Y-131426857D01*
X154214285Y-131354285D01*
%TO.C,KLFunc55*%
X125657428Y-120069428D02*
X125657428Y-118545428D01*
X126528285Y-120069428D02*
X125875142Y-119198571D01*
X126528285Y-118545428D02*
X125657428Y-119416285D01*
X127907142Y-120069428D02*
X127181428Y-120069428D01*
X127181428Y-118545428D01*
X128923142Y-119271142D02*
X128415142Y-119271142D01*
X128415142Y-120069428D02*
X128415142Y-118545428D01*
X129140857Y-118545428D01*
X130374571Y-119053428D02*
X130374571Y-120069428D01*
X129721428Y-119053428D02*
X129721428Y-119851714D01*
X129794000Y-119996857D01*
X129939142Y-120069428D01*
X130156857Y-120069428D01*
X130302000Y-119996857D01*
X130374571Y-119924285D01*
X131100285Y-119053428D02*
X131100285Y-120069428D01*
X131100285Y-119198571D02*
X131172857Y-119126000D01*
X131318000Y-119053428D01*
X131535714Y-119053428D01*
X131680857Y-119126000D01*
X131753428Y-119271142D01*
X131753428Y-120069428D01*
X133132285Y-119996857D02*
X132987142Y-120069428D01*
X132696857Y-120069428D01*
X132551714Y-119996857D01*
X132479142Y-119924285D01*
X132406571Y-119779142D01*
X132406571Y-119343714D01*
X132479142Y-119198571D01*
X132551714Y-119126000D01*
X132696857Y-119053428D01*
X132987142Y-119053428D01*
X133132285Y-119126000D01*
X134511142Y-118545428D02*
X133785428Y-118545428D01*
X133712857Y-119271142D01*
X133785428Y-119198571D01*
X133930571Y-119126000D01*
X134293428Y-119126000D01*
X134438571Y-119198571D01*
X134511142Y-119271142D01*
X134583714Y-119416285D01*
X134583714Y-119779142D01*
X134511142Y-119924285D01*
X134438571Y-119996857D01*
X134293428Y-120069428D01*
X133930571Y-120069428D01*
X133785428Y-119996857D01*
X133712857Y-119924285D01*
X135962571Y-118545428D02*
X135236857Y-118545428D01*
X135164285Y-119271142D01*
X135236857Y-119198571D01*
X135382000Y-119126000D01*
X135744857Y-119126000D01*
X135890000Y-119198571D01*
X135962571Y-119271142D01*
X136035142Y-119416285D01*
X136035142Y-119779142D01*
X135962571Y-119924285D01*
X135890000Y-119996857D01*
X135744857Y-120069428D01*
X135382000Y-120069428D01*
X135236857Y-119996857D01*
X135164285Y-119924285D01*
%TO.C,KLFunc35*%
X87557428Y-109909428D02*
X87557428Y-108385428D01*
X88428285Y-109909428D02*
X87775142Y-109038571D01*
X88428285Y-108385428D02*
X87557428Y-109256285D01*
X89807142Y-109909428D02*
X89081428Y-109909428D01*
X89081428Y-108385428D01*
X90823142Y-109111142D02*
X90315142Y-109111142D01*
X90315142Y-109909428D02*
X90315142Y-108385428D01*
X91040857Y-108385428D01*
X92274571Y-108893428D02*
X92274571Y-109909428D01*
X91621428Y-108893428D02*
X91621428Y-109691714D01*
X91694000Y-109836857D01*
X91839142Y-109909428D01*
X92056857Y-109909428D01*
X92202000Y-109836857D01*
X92274571Y-109764285D01*
X93000285Y-108893428D02*
X93000285Y-109909428D01*
X93000285Y-109038571D02*
X93072857Y-108966000D01*
X93218000Y-108893428D01*
X93435714Y-108893428D01*
X93580857Y-108966000D01*
X93653428Y-109111142D01*
X93653428Y-109909428D01*
X95032285Y-109836857D02*
X94887142Y-109909428D01*
X94596857Y-109909428D01*
X94451714Y-109836857D01*
X94379142Y-109764285D01*
X94306571Y-109619142D01*
X94306571Y-109183714D01*
X94379142Y-109038571D01*
X94451714Y-108966000D01*
X94596857Y-108893428D01*
X94887142Y-108893428D01*
X95032285Y-108966000D01*
X95540285Y-108385428D02*
X96483714Y-108385428D01*
X95975714Y-108966000D01*
X96193428Y-108966000D01*
X96338571Y-109038571D01*
X96411142Y-109111142D01*
X96483714Y-109256285D01*
X96483714Y-109619142D01*
X96411142Y-109764285D01*
X96338571Y-109836857D01*
X96193428Y-109909428D01*
X95758000Y-109909428D01*
X95612857Y-109836857D01*
X95540285Y-109764285D01*
X97862571Y-108385428D02*
X97136857Y-108385428D01*
X97064285Y-109111142D01*
X97136857Y-109038571D01*
X97282000Y-108966000D01*
X97644857Y-108966000D01*
X97790000Y-109038571D01*
X97862571Y-109111142D01*
X97935142Y-109256285D01*
X97935142Y-109619142D01*
X97862571Y-109764285D01*
X97790000Y-109836857D01*
X97644857Y-109909428D01*
X97282000Y-109909428D01*
X97136857Y-109836857D01*
X97064285Y-109764285D01*
%TO.C,KLFunc25*%
X68507428Y-114989428D02*
X68507428Y-113465428D01*
X69378285Y-114989428D02*
X68725142Y-114118571D01*
X69378285Y-113465428D02*
X68507428Y-114336285D01*
X70757142Y-114989428D02*
X70031428Y-114989428D01*
X70031428Y-113465428D01*
X71773142Y-114191142D02*
X71265142Y-114191142D01*
X71265142Y-114989428D02*
X71265142Y-113465428D01*
X71990857Y-113465428D01*
X73224571Y-113973428D02*
X73224571Y-114989428D01*
X72571428Y-113973428D02*
X72571428Y-114771714D01*
X72644000Y-114916857D01*
X72789142Y-114989428D01*
X73006857Y-114989428D01*
X73152000Y-114916857D01*
X73224571Y-114844285D01*
X73950285Y-113973428D02*
X73950285Y-114989428D01*
X73950285Y-114118571D02*
X74022857Y-114046000D01*
X74168000Y-113973428D01*
X74385714Y-113973428D01*
X74530857Y-114046000D01*
X74603428Y-114191142D01*
X74603428Y-114989428D01*
X75982285Y-114916857D02*
X75837142Y-114989428D01*
X75546857Y-114989428D01*
X75401714Y-114916857D01*
X75329142Y-114844285D01*
X75256571Y-114699142D01*
X75256571Y-114263714D01*
X75329142Y-114118571D01*
X75401714Y-114046000D01*
X75546857Y-113973428D01*
X75837142Y-113973428D01*
X75982285Y-114046000D01*
X76562857Y-113610571D02*
X76635428Y-113538000D01*
X76780571Y-113465428D01*
X77143428Y-113465428D01*
X77288571Y-113538000D01*
X77361142Y-113610571D01*
X77433714Y-113755714D01*
X77433714Y-113900857D01*
X77361142Y-114118571D01*
X76490285Y-114989428D01*
X77433714Y-114989428D01*
X78812571Y-113465428D02*
X78086857Y-113465428D01*
X78014285Y-114191142D01*
X78086857Y-114118571D01*
X78232000Y-114046000D01*
X78594857Y-114046000D01*
X78740000Y-114118571D01*
X78812571Y-114191142D01*
X78885142Y-114336285D01*
X78885142Y-114699142D01*
X78812571Y-114844285D01*
X78740000Y-114916857D01*
X78594857Y-114989428D01*
X78232000Y-114989428D01*
X78086857Y-114916857D01*
X78014285Y-114844285D01*
%TO.C,KLFunc15*%
X49457428Y-120069428D02*
X49457428Y-118545428D01*
X50328285Y-120069428D02*
X49675142Y-119198571D01*
X50328285Y-118545428D02*
X49457428Y-119416285D01*
X51707142Y-120069428D02*
X50981428Y-120069428D01*
X50981428Y-118545428D01*
X52723142Y-119271142D02*
X52215142Y-119271142D01*
X52215142Y-120069428D02*
X52215142Y-118545428D01*
X52940857Y-118545428D01*
X54174571Y-119053428D02*
X54174571Y-120069428D01*
X53521428Y-119053428D02*
X53521428Y-119851714D01*
X53594000Y-119996857D01*
X53739142Y-120069428D01*
X53956857Y-120069428D01*
X54102000Y-119996857D01*
X54174571Y-119924285D01*
X54900285Y-119053428D02*
X54900285Y-120069428D01*
X54900285Y-119198571D02*
X54972857Y-119126000D01*
X55118000Y-119053428D01*
X55335714Y-119053428D01*
X55480857Y-119126000D01*
X55553428Y-119271142D01*
X55553428Y-120069428D01*
X56932285Y-119996857D02*
X56787142Y-120069428D01*
X56496857Y-120069428D01*
X56351714Y-119996857D01*
X56279142Y-119924285D01*
X56206571Y-119779142D01*
X56206571Y-119343714D01*
X56279142Y-119198571D01*
X56351714Y-119126000D01*
X56496857Y-119053428D01*
X56787142Y-119053428D01*
X56932285Y-119126000D01*
X58383714Y-120069428D02*
X57512857Y-120069428D01*
X57948285Y-120069428D02*
X57948285Y-118545428D01*
X57803142Y-118763142D01*
X57658000Y-118908285D01*
X57512857Y-118980857D01*
X59762571Y-118545428D02*
X59036857Y-118545428D01*
X58964285Y-119271142D01*
X59036857Y-119198571D01*
X59182000Y-119126000D01*
X59544857Y-119126000D01*
X59690000Y-119198571D01*
X59762571Y-119271142D01*
X59835142Y-119416285D01*
X59835142Y-119779142D01*
X59762571Y-119924285D01*
X59690000Y-119996857D01*
X59544857Y-120069428D01*
X59182000Y-120069428D01*
X59036857Y-119996857D01*
X58964285Y-119924285D01*
%TO.C,KLFunc14*%
X30407428Y-101019428D02*
X30407428Y-99495428D01*
X31278285Y-101019428D02*
X30625142Y-100148571D01*
X31278285Y-99495428D02*
X30407428Y-100366285D01*
X32657142Y-101019428D02*
X31931428Y-101019428D01*
X31931428Y-99495428D01*
X33673142Y-100221142D02*
X33165142Y-100221142D01*
X33165142Y-101019428D02*
X33165142Y-99495428D01*
X33890857Y-99495428D01*
X35124571Y-100003428D02*
X35124571Y-101019428D01*
X34471428Y-100003428D02*
X34471428Y-100801714D01*
X34544000Y-100946857D01*
X34689142Y-101019428D01*
X34906857Y-101019428D01*
X35052000Y-100946857D01*
X35124571Y-100874285D01*
X35850285Y-100003428D02*
X35850285Y-101019428D01*
X35850285Y-100148571D02*
X35922857Y-100076000D01*
X36068000Y-100003428D01*
X36285714Y-100003428D01*
X36430857Y-100076000D01*
X36503428Y-100221142D01*
X36503428Y-101019428D01*
X37882285Y-100946857D02*
X37737142Y-101019428D01*
X37446857Y-101019428D01*
X37301714Y-100946857D01*
X37229142Y-100874285D01*
X37156571Y-100729142D01*
X37156571Y-100293714D01*
X37229142Y-100148571D01*
X37301714Y-100076000D01*
X37446857Y-100003428D01*
X37737142Y-100003428D01*
X37882285Y-100076000D01*
X39333714Y-101019428D02*
X38462857Y-101019428D01*
X38898285Y-101019428D02*
X38898285Y-99495428D01*
X38753142Y-99713142D01*
X38608000Y-99858285D01*
X38462857Y-99930857D01*
X40640000Y-100003428D02*
X40640000Y-101019428D01*
X40277142Y-99422857D02*
X39914285Y-100511428D01*
X40857714Y-100511428D01*
%TO.C,KLFunc13*%
X30407428Y-81969428D02*
X30407428Y-80445428D01*
X31278285Y-81969428D02*
X30625142Y-81098571D01*
X31278285Y-80445428D02*
X30407428Y-81316285D01*
X32657142Y-81969428D02*
X31931428Y-81969428D01*
X31931428Y-80445428D01*
X33673142Y-81171142D02*
X33165142Y-81171142D01*
X33165142Y-81969428D02*
X33165142Y-80445428D01*
X33890857Y-80445428D01*
X35124571Y-80953428D02*
X35124571Y-81969428D01*
X34471428Y-80953428D02*
X34471428Y-81751714D01*
X34544000Y-81896857D01*
X34689142Y-81969428D01*
X34906857Y-81969428D01*
X35052000Y-81896857D01*
X35124571Y-81824285D01*
X35850285Y-80953428D02*
X35850285Y-81969428D01*
X35850285Y-81098571D02*
X35922857Y-81026000D01*
X36068000Y-80953428D01*
X36285714Y-80953428D01*
X36430857Y-81026000D01*
X36503428Y-81171142D01*
X36503428Y-81969428D01*
X37882285Y-81896857D02*
X37737142Y-81969428D01*
X37446857Y-81969428D01*
X37301714Y-81896857D01*
X37229142Y-81824285D01*
X37156571Y-81679142D01*
X37156571Y-81243714D01*
X37229142Y-81098571D01*
X37301714Y-81026000D01*
X37446857Y-80953428D01*
X37737142Y-80953428D01*
X37882285Y-81026000D01*
X39333714Y-81969428D02*
X38462857Y-81969428D01*
X38898285Y-81969428D02*
X38898285Y-80445428D01*
X38753142Y-80663142D01*
X38608000Y-80808285D01*
X38462857Y-80880857D01*
X39841714Y-80445428D02*
X40785142Y-80445428D01*
X40277142Y-81026000D01*
X40494857Y-81026000D01*
X40640000Y-81098571D01*
X40712571Y-81171142D01*
X40785142Y-81316285D01*
X40785142Y-81679142D01*
X40712571Y-81824285D01*
X40640000Y-81896857D01*
X40494857Y-81969428D01*
X40059428Y-81969428D01*
X39914285Y-81896857D01*
X39841714Y-81824285D01*
%TO.C,KLFunc12*%
X30407428Y-62919428D02*
X30407428Y-61395428D01*
X31278285Y-62919428D02*
X30625142Y-62048571D01*
X31278285Y-61395428D02*
X30407428Y-62266285D01*
X32657142Y-62919428D02*
X31931428Y-62919428D01*
X31931428Y-61395428D01*
X33673142Y-62121142D02*
X33165142Y-62121142D01*
X33165142Y-62919428D02*
X33165142Y-61395428D01*
X33890857Y-61395428D01*
X35124571Y-61903428D02*
X35124571Y-62919428D01*
X34471428Y-61903428D02*
X34471428Y-62701714D01*
X34544000Y-62846857D01*
X34689142Y-62919428D01*
X34906857Y-62919428D01*
X35052000Y-62846857D01*
X35124571Y-62774285D01*
X35850285Y-61903428D02*
X35850285Y-62919428D01*
X35850285Y-62048571D02*
X35922857Y-61976000D01*
X36068000Y-61903428D01*
X36285714Y-61903428D01*
X36430857Y-61976000D01*
X36503428Y-62121142D01*
X36503428Y-62919428D01*
X37882285Y-62846857D02*
X37737142Y-62919428D01*
X37446857Y-62919428D01*
X37301714Y-62846857D01*
X37229142Y-62774285D01*
X37156571Y-62629142D01*
X37156571Y-62193714D01*
X37229142Y-62048571D01*
X37301714Y-61976000D01*
X37446857Y-61903428D01*
X37737142Y-61903428D01*
X37882285Y-61976000D01*
X39333714Y-62919428D02*
X38462857Y-62919428D01*
X38898285Y-62919428D02*
X38898285Y-61395428D01*
X38753142Y-61613142D01*
X38608000Y-61758285D01*
X38462857Y-61830857D01*
X39914285Y-61540571D02*
X39986857Y-61468000D01*
X40132000Y-61395428D01*
X40494857Y-61395428D01*
X40640000Y-61468000D01*
X40712571Y-61540571D01*
X40785142Y-61685714D01*
X40785142Y-61830857D01*
X40712571Y-62048571D01*
X39841714Y-62919428D01*
X40785142Y-62919428D01*
%TO.C,KLFunc11*%
X30407428Y-43869428D02*
X30407428Y-42345428D01*
X31278285Y-43869428D02*
X30625142Y-42998571D01*
X31278285Y-42345428D02*
X30407428Y-43216285D01*
X32657142Y-43869428D02*
X31931428Y-43869428D01*
X31931428Y-42345428D01*
X33673142Y-43071142D02*
X33165142Y-43071142D01*
X33165142Y-43869428D02*
X33165142Y-42345428D01*
X33890857Y-42345428D01*
X35124571Y-42853428D02*
X35124571Y-43869428D01*
X34471428Y-42853428D02*
X34471428Y-43651714D01*
X34544000Y-43796857D01*
X34689142Y-43869428D01*
X34906857Y-43869428D01*
X35052000Y-43796857D01*
X35124571Y-43724285D01*
X35850285Y-42853428D02*
X35850285Y-43869428D01*
X35850285Y-42998571D02*
X35922857Y-42926000D01*
X36068000Y-42853428D01*
X36285714Y-42853428D01*
X36430857Y-42926000D01*
X36503428Y-43071142D01*
X36503428Y-43869428D01*
X37882285Y-43796857D02*
X37737142Y-43869428D01*
X37446857Y-43869428D01*
X37301714Y-43796857D01*
X37229142Y-43724285D01*
X37156571Y-43579142D01*
X37156571Y-43143714D01*
X37229142Y-42998571D01*
X37301714Y-42926000D01*
X37446857Y-42853428D01*
X37737142Y-42853428D01*
X37882285Y-42926000D01*
X39333714Y-43869428D02*
X38462857Y-43869428D01*
X38898285Y-43869428D02*
X38898285Y-42345428D01*
X38753142Y-42563142D01*
X38608000Y-42708285D01*
X38462857Y-42780857D01*
X40785142Y-43869428D02*
X39914285Y-43869428D01*
X40349714Y-43869428D02*
X40349714Y-42345428D01*
X40204571Y-42563142D01*
X40059428Y-42708285D01*
X39914285Y-42780857D01*
%TO.C,KLF1*%
X109365142Y-76889428D02*
X109365142Y-75365428D01*
X110236000Y-76889428D02*
X109582857Y-76018571D01*
X110236000Y-75365428D02*
X109365142Y-76236285D01*
X111614857Y-76889428D02*
X110889142Y-76889428D01*
X110889142Y-75365428D01*
X112630857Y-76091142D02*
X112122857Y-76091142D01*
X112122857Y-76889428D02*
X112122857Y-75365428D01*
X112848571Y-75365428D01*
X114227428Y-76889428D02*
X113356571Y-76889428D01*
X113792000Y-76889428D02*
X113792000Y-75365428D01*
X113646857Y-75583142D01*
X113501714Y-75728285D01*
X113356571Y-75800857D01*
%TO.C,KLE1*%
X90278857Y-52759428D02*
X90278857Y-51235428D01*
X91149714Y-52759428D02*
X90496571Y-51888571D01*
X91149714Y-51235428D02*
X90278857Y-52106285D01*
X92528571Y-52759428D02*
X91802857Y-52759428D01*
X91802857Y-51235428D01*
X93036571Y-51961142D02*
X93544571Y-51961142D01*
X93762285Y-52759428D02*
X93036571Y-52759428D01*
X93036571Y-51235428D01*
X93762285Y-51235428D01*
X95213714Y-52759428D02*
X94342857Y-52759428D01*
X94778285Y-52759428D02*
X94778285Y-51235428D01*
X94633142Y-51453142D01*
X94488000Y-51598285D01*
X94342857Y-51670857D01*
%TO.C,KLD1*%
X90206285Y-71809428D02*
X90206285Y-70285428D01*
X91077142Y-71809428D02*
X90424000Y-70938571D01*
X91077142Y-70285428D02*
X90206285Y-71156285D01*
X92456000Y-71809428D02*
X91730285Y-71809428D01*
X91730285Y-70285428D01*
X92964000Y-71809428D02*
X92964000Y-70285428D01*
X93326857Y-70285428D01*
X93544571Y-70358000D01*
X93689714Y-70503142D01*
X93762285Y-70648285D01*
X93834857Y-70938571D01*
X93834857Y-71156285D01*
X93762285Y-71446571D01*
X93689714Y-71591714D01*
X93544571Y-71736857D01*
X93326857Y-71809428D01*
X92964000Y-71809428D01*
X95286285Y-71809428D02*
X94415428Y-71809428D01*
X94850857Y-71809428D02*
X94850857Y-70285428D01*
X94705714Y-70503142D01*
X94560571Y-70648285D01*
X94415428Y-70720857D01*
%TO.C,KLC1*%
X90206285Y-90859428D02*
X90206285Y-89335428D01*
X91077142Y-90859428D02*
X90424000Y-89988571D01*
X91077142Y-89335428D02*
X90206285Y-90206285D01*
X92456000Y-90859428D02*
X91730285Y-90859428D01*
X91730285Y-89335428D01*
X93834857Y-90714285D02*
X93762285Y-90786857D01*
X93544571Y-90859428D01*
X93399428Y-90859428D01*
X93181714Y-90786857D01*
X93036571Y-90641714D01*
X92964000Y-90496571D01*
X92891428Y-90206285D01*
X92891428Y-89988571D01*
X92964000Y-89698285D01*
X93036571Y-89553142D01*
X93181714Y-89408000D01*
X93399428Y-89335428D01*
X93544571Y-89335428D01*
X93762285Y-89408000D01*
X93834857Y-89480571D01*
X95286285Y-90859428D02*
X94415428Y-90859428D01*
X94850857Y-90859428D02*
X94850857Y-89335428D01*
X94705714Y-89553142D01*
X94560571Y-89698285D01*
X94415428Y-89770857D01*
%TO.C,KLB1*%
X128306285Y-101019428D02*
X128306285Y-99495428D01*
X129177142Y-101019428D02*
X128524000Y-100148571D01*
X129177142Y-99495428D02*
X128306285Y-100366285D01*
X130556000Y-101019428D02*
X129830285Y-101019428D01*
X129830285Y-99495428D01*
X131572000Y-100221142D02*
X131789714Y-100293714D01*
X131862285Y-100366285D01*
X131934857Y-100511428D01*
X131934857Y-100729142D01*
X131862285Y-100874285D01*
X131789714Y-100946857D01*
X131644571Y-101019428D01*
X131064000Y-101019428D01*
X131064000Y-99495428D01*
X131572000Y-99495428D01*
X131717142Y-99568000D01*
X131789714Y-99640571D01*
X131862285Y-99785714D01*
X131862285Y-99930857D01*
X131789714Y-100076000D01*
X131717142Y-100148571D01*
X131572000Y-100221142D01*
X131064000Y-100221142D01*
X133386285Y-101019428D02*
X132515428Y-101019428D01*
X132950857Y-101019428D02*
X132950857Y-99495428D01*
X132805714Y-99713142D01*
X132660571Y-99858285D01*
X132515428Y-99930857D01*
%TO.C,KLA1*%
X52215142Y-81969428D02*
X52215142Y-80445428D01*
X53086000Y-81969428D02*
X52432857Y-81098571D01*
X53086000Y-80445428D02*
X52215142Y-81316285D01*
X54464857Y-81969428D02*
X53739142Y-81969428D01*
X53739142Y-80445428D01*
X54900285Y-81534000D02*
X55626000Y-81534000D01*
X54755142Y-81969428D02*
X55263142Y-80445428D01*
X55771142Y-81969428D01*
X57077428Y-81969428D02*
X56206571Y-81969428D01*
X56642000Y-81969428D02*
X56642000Y-80445428D01*
X56496857Y-80663142D01*
X56351714Y-80808285D01*
X56206571Y-80880857D01*
%TO.C,KL4*%
X110018285Y-38789428D02*
X110018285Y-37265428D01*
X110889142Y-38789428D02*
X110236000Y-37918571D01*
X110889142Y-37265428D02*
X110018285Y-38136285D01*
X112268000Y-38789428D02*
X111542285Y-38789428D01*
X111542285Y-37265428D01*
X113429142Y-37773428D02*
X113429142Y-38789428D01*
X113066285Y-37192857D02*
X112703428Y-38281428D01*
X113646857Y-38281428D01*
%TO.C,KL3*%
X90968285Y-33709428D02*
X90968285Y-32185428D01*
X91839142Y-33709428D02*
X91186000Y-32838571D01*
X91839142Y-32185428D02*
X90968285Y-33056285D01*
X93218000Y-33709428D02*
X92492285Y-33709428D01*
X92492285Y-32185428D01*
X93580857Y-32185428D02*
X94524285Y-32185428D01*
X94016285Y-32766000D01*
X94234000Y-32766000D01*
X94379142Y-32838571D01*
X94451714Y-32911142D01*
X94524285Y-33056285D01*
X94524285Y-33419142D01*
X94451714Y-33564285D01*
X94379142Y-33636857D01*
X94234000Y-33709428D01*
X93798571Y-33709428D01*
X93653428Y-33636857D01*
X93580857Y-33564285D01*
%TO.C,KL2*%
X71918285Y-38789428D02*
X71918285Y-37265428D01*
X72789142Y-38789428D02*
X72136000Y-37918571D01*
X72789142Y-37265428D02*
X71918285Y-38136285D01*
X74168000Y-38789428D02*
X73442285Y-38789428D01*
X73442285Y-37265428D01*
X74603428Y-37410571D02*
X74676000Y-37338000D01*
X74821142Y-37265428D01*
X75184000Y-37265428D01*
X75329142Y-37338000D01*
X75401714Y-37410571D01*
X75474285Y-37555714D01*
X75474285Y-37700857D01*
X75401714Y-37918571D01*
X74530857Y-38789428D01*
X75474285Y-38789428D01*
%TO.C,KL1*%
X52868285Y-43869428D02*
X52868285Y-42345428D01*
X53739142Y-43869428D02*
X53086000Y-42998571D01*
X53739142Y-42345428D02*
X52868285Y-43216285D01*
X55118000Y-43869428D02*
X54392285Y-43869428D01*
X54392285Y-42345428D01*
X56424285Y-43869428D02*
X55553428Y-43869428D01*
X55988857Y-43869428D02*
X55988857Y-42345428D01*
X55843714Y-42563142D01*
X55698571Y-42708285D01*
X55553428Y-42780857D01*
%TO.C,KLS1*%
X71192571Y-76889428D02*
X71192571Y-75365428D01*
X72063428Y-76889428D02*
X71410285Y-76018571D01*
X72063428Y-75365428D02*
X71192571Y-76236285D01*
X73442285Y-76889428D02*
X72716571Y-76889428D01*
X72716571Y-75365428D01*
X73877714Y-76816857D02*
X74095428Y-76889428D01*
X74458285Y-76889428D01*
X74603428Y-76816857D01*
X74676000Y-76744285D01*
X74748571Y-76599142D01*
X74748571Y-76454000D01*
X74676000Y-76308857D01*
X74603428Y-76236285D01*
X74458285Y-76163714D01*
X74168000Y-76091142D01*
X74022857Y-76018571D01*
X73950285Y-75946000D01*
X73877714Y-75800857D01*
X73877714Y-75655714D01*
X73950285Y-75510571D01*
X74022857Y-75438000D01*
X74168000Y-75365428D01*
X74530857Y-75365428D01*
X74748571Y-75438000D01*
X76200000Y-76889428D02*
X75329142Y-76889428D01*
X75764571Y-76889428D02*
X75764571Y-75365428D01*
X75619428Y-75583142D01*
X75474285Y-75728285D01*
X75329142Y-75800857D01*
%TO.C,KLFunc45*%
X106607428Y-114989428D02*
X106607428Y-113465428D01*
X107478285Y-114989428D02*
X106825142Y-114118571D01*
X107478285Y-113465428D02*
X106607428Y-114336285D01*
X108857142Y-114989428D02*
X108131428Y-114989428D01*
X108131428Y-113465428D01*
X109873142Y-114191142D02*
X109365142Y-114191142D01*
X109365142Y-114989428D02*
X109365142Y-113465428D01*
X110090857Y-113465428D01*
X111324571Y-113973428D02*
X111324571Y-114989428D01*
X110671428Y-113973428D02*
X110671428Y-114771714D01*
X110744000Y-114916857D01*
X110889142Y-114989428D01*
X111106857Y-114989428D01*
X111252000Y-114916857D01*
X111324571Y-114844285D01*
X112050285Y-113973428D02*
X112050285Y-114989428D01*
X112050285Y-114118571D02*
X112122857Y-114046000D01*
X112268000Y-113973428D01*
X112485714Y-113973428D01*
X112630857Y-114046000D01*
X112703428Y-114191142D01*
X112703428Y-114989428D01*
X114082285Y-114916857D02*
X113937142Y-114989428D01*
X113646857Y-114989428D01*
X113501714Y-114916857D01*
X113429142Y-114844285D01*
X113356571Y-114699142D01*
X113356571Y-114263714D01*
X113429142Y-114118571D01*
X113501714Y-114046000D01*
X113646857Y-113973428D01*
X113937142Y-113973428D01*
X114082285Y-114046000D01*
X115388571Y-113973428D02*
X115388571Y-114989428D01*
X115025714Y-113392857D02*
X114662857Y-114481428D01*
X115606285Y-114481428D01*
X116912571Y-113465428D02*
X116186857Y-113465428D01*
X116114285Y-114191142D01*
X116186857Y-114118571D01*
X116332000Y-114046000D01*
X116694857Y-114046000D01*
X116840000Y-114118571D01*
X116912571Y-114191142D01*
X116985142Y-114336285D01*
X116985142Y-114699142D01*
X116912571Y-114844285D01*
X116840000Y-114916857D01*
X116694857Y-114989428D01*
X116332000Y-114989428D01*
X116186857Y-114916857D01*
X116114285Y-114844285D01*
%TO.C,KLT1*%
X128487714Y-62919428D02*
X128487714Y-61395428D01*
X129358571Y-62919428D02*
X128705428Y-62048571D01*
X129358571Y-61395428D02*
X128487714Y-62266285D01*
X130737428Y-62919428D02*
X130011714Y-62919428D01*
X130011714Y-61395428D01*
X131027714Y-61395428D02*
X131898571Y-61395428D01*
X131463142Y-62919428D02*
X131463142Y-61395428D01*
X133204857Y-62919428D02*
X132334000Y-62919428D01*
X132769428Y-62919428D02*
X132769428Y-61395428D01*
X132624285Y-61613142D01*
X132479142Y-61758285D01*
X132334000Y-61830857D01*
%TO.C,KL5*%
X129068285Y-43869428D02*
X129068285Y-42345428D01*
X129939142Y-43869428D02*
X129286000Y-42998571D01*
X129939142Y-42345428D02*
X129068285Y-43216285D01*
X131318000Y-43869428D02*
X130592285Y-43869428D01*
X130592285Y-42345428D01*
X132551714Y-42345428D02*
X131826000Y-42345428D01*
X131753428Y-43071142D01*
X131826000Y-42998571D01*
X131971142Y-42926000D01*
X132334000Y-42926000D01*
X132479142Y-42998571D01*
X132551714Y-43071142D01*
X132624285Y-43216285D01*
X132624285Y-43579142D01*
X132551714Y-43724285D01*
X132479142Y-43796857D01*
X132334000Y-43869428D01*
X131971142Y-43869428D01*
X131826000Y-43796857D01*
X131753428Y-43724285D01*
%TO.C,KLG1*%
X128306285Y-81969428D02*
X128306285Y-80445428D01*
X129177142Y-81969428D02*
X128524000Y-81098571D01*
X129177142Y-80445428D02*
X128306285Y-81316285D01*
X130556000Y-81969428D02*
X129830285Y-81969428D01*
X129830285Y-80445428D01*
X131862285Y-80518000D02*
X131717142Y-80445428D01*
X131499428Y-80445428D01*
X131281714Y-80518000D01*
X131136571Y-80663142D01*
X131064000Y-80808285D01*
X130991428Y-81098571D01*
X130991428Y-81316285D01*
X131064000Y-81606571D01*
X131136571Y-81751714D01*
X131281714Y-81896857D01*
X131499428Y-81969428D01*
X131644571Y-81969428D01*
X131862285Y-81896857D01*
X131934857Y-81824285D01*
X131934857Y-81316285D01*
X131644571Y-81316285D01*
X133386285Y-81969428D02*
X132515428Y-81969428D01*
X132950857Y-81969428D02*
X132950857Y-80445428D01*
X132805714Y-80663142D01*
X132660571Y-80808285D01*
X132515428Y-80880857D01*
%TO.C,DL65*%
D11*
X143542380Y-139302857D02*
X143542380Y-139874285D01*
X143542380Y-139588571D02*
X142542380Y-139588571D01*
X142685238Y-139683809D01*
X142780476Y-139779047D01*
X142828095Y-139874285D01*
X143542380Y-138874285D02*
X142542380Y-138874285D01*
X143542380Y-138302857D01*
X142542380Y-138302857D01*
X142875714Y-137398095D02*
X143542380Y-137398095D01*
X142494761Y-137636190D02*
X143209047Y-137874285D01*
X143209047Y-137255238D01*
X143542380Y-136350476D02*
X143542380Y-136921904D01*
X143542380Y-136636190D02*
X142542380Y-136636190D01*
X142685238Y-136731428D01*
X142780476Y-136826666D01*
X142828095Y-136921904D01*
X142875714Y-135493333D02*
X143542380Y-135493333D01*
X142494761Y-135731428D02*
X143209047Y-135969523D01*
X143209047Y-135350476D01*
X142970952Y-134826666D02*
X142923333Y-134921904D01*
X142875714Y-134969523D01*
X142780476Y-135017142D01*
X142732857Y-135017142D01*
X142637619Y-134969523D01*
X142590000Y-134921904D01*
X142542380Y-134826666D01*
X142542380Y-134636190D01*
X142590000Y-134540952D01*
X142637619Y-134493333D01*
X142732857Y-134445714D01*
X142780476Y-134445714D01*
X142875714Y-134493333D01*
X142923333Y-134540952D01*
X142970952Y-134636190D01*
X142970952Y-134826666D01*
X143018571Y-134921904D01*
X143066190Y-134969523D01*
X143161428Y-135017142D01*
X143351904Y-135017142D01*
X143447142Y-134969523D01*
X143494761Y-134921904D01*
X143542380Y-134826666D01*
X143542380Y-134636190D01*
X143494761Y-134540952D01*
X143447142Y-134493333D01*
X143351904Y-134445714D01*
X143161428Y-134445714D01*
X143066190Y-134493333D01*
X143018571Y-134540952D01*
X142970952Y-134636190D01*
D13*
X141331904Y-138155238D02*
X140531904Y-138155238D01*
X140531904Y-137964761D01*
X140570000Y-137850476D01*
X140646190Y-137774285D01*
X140722380Y-137736190D01*
X140874761Y-137698095D01*
X140989047Y-137698095D01*
X141141428Y-137736190D01*
X141217619Y-137774285D01*
X141293809Y-137850476D01*
X141331904Y-137964761D01*
X141331904Y-138155238D01*
X141331904Y-136974285D02*
X141331904Y-137355238D01*
X140531904Y-137355238D01*
X140531904Y-136364761D02*
X140531904Y-136517142D01*
X140570000Y-136593333D01*
X140608095Y-136631428D01*
X140722380Y-136707619D01*
X140874761Y-136745714D01*
X141179523Y-136745714D01*
X141255714Y-136707619D01*
X141293809Y-136669523D01*
X141331904Y-136593333D01*
X141331904Y-136440952D01*
X141293809Y-136364761D01*
X141255714Y-136326666D01*
X141179523Y-136288571D01*
X140989047Y-136288571D01*
X140912857Y-136326666D01*
X140874761Y-136364761D01*
X140836666Y-136440952D01*
X140836666Y-136593333D01*
X140874761Y-136669523D01*
X140912857Y-136707619D01*
X140989047Y-136745714D01*
X140531904Y-135564761D02*
X140531904Y-135945714D01*
X140912857Y-135983809D01*
X140874761Y-135945714D01*
X140836666Y-135869523D01*
X140836666Y-135679047D01*
X140874761Y-135602857D01*
X140912857Y-135564761D01*
X140989047Y-135526666D01*
X141179523Y-135526666D01*
X141255714Y-135564761D01*
X141293809Y-135602857D01*
X141331904Y-135679047D01*
X141331904Y-135869523D01*
X141293809Y-135945714D01*
X141255714Y-135983809D01*
D11*
X139622380Y-141231904D02*
X138622380Y-141231904D01*
X139622380Y-140660476D02*
X139050952Y-141089047D01*
X138622380Y-140660476D02*
X139193809Y-141231904D01*
%TO.C,DL64*%
X124492380Y-108822857D02*
X124492380Y-109394285D01*
X124492380Y-109108571D02*
X123492380Y-109108571D01*
X123635238Y-109203809D01*
X123730476Y-109299047D01*
X123778095Y-109394285D01*
X124492380Y-108394285D02*
X123492380Y-108394285D01*
X124492380Y-107822857D01*
X123492380Y-107822857D01*
X123825714Y-106918095D02*
X124492380Y-106918095D01*
X123444761Y-107156190D02*
X124159047Y-107394285D01*
X124159047Y-106775238D01*
X124492380Y-105870476D02*
X124492380Y-106441904D01*
X124492380Y-106156190D02*
X123492380Y-106156190D01*
X123635238Y-106251428D01*
X123730476Y-106346666D01*
X123778095Y-106441904D01*
X123825714Y-105013333D02*
X124492380Y-105013333D01*
X123444761Y-105251428D02*
X124159047Y-105489523D01*
X124159047Y-104870476D01*
X123920952Y-104346666D02*
X123873333Y-104441904D01*
X123825714Y-104489523D01*
X123730476Y-104537142D01*
X123682857Y-104537142D01*
X123587619Y-104489523D01*
X123540000Y-104441904D01*
X123492380Y-104346666D01*
X123492380Y-104156190D01*
X123540000Y-104060952D01*
X123587619Y-104013333D01*
X123682857Y-103965714D01*
X123730476Y-103965714D01*
X123825714Y-104013333D01*
X123873333Y-104060952D01*
X123920952Y-104156190D01*
X123920952Y-104346666D01*
X123968571Y-104441904D01*
X124016190Y-104489523D01*
X124111428Y-104537142D01*
X124301904Y-104537142D01*
X124397142Y-104489523D01*
X124444761Y-104441904D01*
X124492380Y-104346666D01*
X124492380Y-104156190D01*
X124444761Y-104060952D01*
X124397142Y-104013333D01*
X124301904Y-103965714D01*
X124111428Y-103965714D01*
X124016190Y-104013333D01*
X123968571Y-104060952D01*
X123920952Y-104156190D01*
X120572380Y-110751904D02*
X119572380Y-110751904D01*
X120572380Y-110180476D02*
X120000952Y-110609047D01*
X119572380Y-110180476D02*
X120143809Y-110751904D01*
D13*
X122281904Y-107675238D02*
X121481904Y-107675238D01*
X121481904Y-107484761D01*
X121520000Y-107370476D01*
X121596190Y-107294285D01*
X121672380Y-107256190D01*
X121824761Y-107218095D01*
X121939047Y-107218095D01*
X122091428Y-107256190D01*
X122167619Y-107294285D01*
X122243809Y-107370476D01*
X122281904Y-107484761D01*
X122281904Y-107675238D01*
X122281904Y-106494285D02*
X122281904Y-106875238D01*
X121481904Y-106875238D01*
X121481904Y-105884761D02*
X121481904Y-106037142D01*
X121520000Y-106113333D01*
X121558095Y-106151428D01*
X121672380Y-106227619D01*
X121824761Y-106265714D01*
X122129523Y-106265714D01*
X122205714Y-106227619D01*
X122243809Y-106189523D01*
X122281904Y-106113333D01*
X122281904Y-105960952D01*
X122243809Y-105884761D01*
X122205714Y-105846666D01*
X122129523Y-105808571D01*
X121939047Y-105808571D01*
X121862857Y-105846666D01*
X121824761Y-105884761D01*
X121786666Y-105960952D01*
X121786666Y-106113333D01*
X121824761Y-106189523D01*
X121862857Y-106227619D01*
X121939047Y-106265714D01*
X121748571Y-105122857D02*
X122281904Y-105122857D01*
X121443809Y-105313333D02*
X122015238Y-105503809D01*
X122015238Y-105008571D01*
%TO.C,DL63*%
D11*
X124492380Y-89772857D02*
X124492380Y-90344285D01*
X124492380Y-90058571D02*
X123492380Y-90058571D01*
X123635238Y-90153809D01*
X123730476Y-90249047D01*
X123778095Y-90344285D01*
X124492380Y-89344285D02*
X123492380Y-89344285D01*
X124492380Y-88772857D01*
X123492380Y-88772857D01*
X123825714Y-87868095D02*
X124492380Y-87868095D01*
X123444761Y-88106190D02*
X124159047Y-88344285D01*
X124159047Y-87725238D01*
X124492380Y-86820476D02*
X124492380Y-87391904D01*
X124492380Y-87106190D02*
X123492380Y-87106190D01*
X123635238Y-87201428D01*
X123730476Y-87296666D01*
X123778095Y-87391904D01*
X123825714Y-85963333D02*
X124492380Y-85963333D01*
X123444761Y-86201428D02*
X124159047Y-86439523D01*
X124159047Y-85820476D01*
X123920952Y-85296666D02*
X123873333Y-85391904D01*
X123825714Y-85439523D01*
X123730476Y-85487142D01*
X123682857Y-85487142D01*
X123587619Y-85439523D01*
X123540000Y-85391904D01*
X123492380Y-85296666D01*
X123492380Y-85106190D01*
X123540000Y-85010952D01*
X123587619Y-84963333D01*
X123682857Y-84915714D01*
X123730476Y-84915714D01*
X123825714Y-84963333D01*
X123873333Y-85010952D01*
X123920952Y-85106190D01*
X123920952Y-85296666D01*
X123968571Y-85391904D01*
X124016190Y-85439523D01*
X124111428Y-85487142D01*
X124301904Y-85487142D01*
X124397142Y-85439523D01*
X124444761Y-85391904D01*
X124492380Y-85296666D01*
X124492380Y-85106190D01*
X124444761Y-85010952D01*
X124397142Y-84963333D01*
X124301904Y-84915714D01*
X124111428Y-84915714D01*
X124016190Y-84963333D01*
X123968571Y-85010952D01*
X123920952Y-85106190D01*
D13*
X122281904Y-88625238D02*
X121481904Y-88625238D01*
X121481904Y-88434761D01*
X121520000Y-88320476D01*
X121596190Y-88244285D01*
X121672380Y-88206190D01*
X121824761Y-88168095D01*
X121939047Y-88168095D01*
X122091428Y-88206190D01*
X122167619Y-88244285D01*
X122243809Y-88320476D01*
X122281904Y-88434761D01*
X122281904Y-88625238D01*
X122281904Y-87444285D02*
X122281904Y-87825238D01*
X121481904Y-87825238D01*
X121481904Y-86834761D02*
X121481904Y-86987142D01*
X121520000Y-87063333D01*
X121558095Y-87101428D01*
X121672380Y-87177619D01*
X121824761Y-87215714D01*
X122129523Y-87215714D01*
X122205714Y-87177619D01*
X122243809Y-87139523D01*
X122281904Y-87063333D01*
X122281904Y-86910952D01*
X122243809Y-86834761D01*
X122205714Y-86796666D01*
X122129523Y-86758571D01*
X121939047Y-86758571D01*
X121862857Y-86796666D01*
X121824761Y-86834761D01*
X121786666Y-86910952D01*
X121786666Y-87063333D01*
X121824761Y-87139523D01*
X121862857Y-87177619D01*
X121939047Y-87215714D01*
X121481904Y-86491904D02*
X121481904Y-85996666D01*
X121786666Y-86263333D01*
X121786666Y-86149047D01*
X121824761Y-86072857D01*
X121862857Y-86034761D01*
X121939047Y-85996666D01*
X122129523Y-85996666D01*
X122205714Y-86034761D01*
X122243809Y-86072857D01*
X122281904Y-86149047D01*
X122281904Y-86377619D01*
X122243809Y-86453809D01*
X122205714Y-86491904D01*
D11*
X120572380Y-91701904D02*
X119572380Y-91701904D01*
X120572380Y-91130476D02*
X120000952Y-91559047D01*
X119572380Y-91130476D02*
X120143809Y-91701904D01*
%TO.C,DL62*%
X124492380Y-70722857D02*
X124492380Y-71294285D01*
X124492380Y-71008571D02*
X123492380Y-71008571D01*
X123635238Y-71103809D01*
X123730476Y-71199047D01*
X123778095Y-71294285D01*
X124492380Y-70294285D02*
X123492380Y-70294285D01*
X124492380Y-69722857D01*
X123492380Y-69722857D01*
X123825714Y-68818095D02*
X124492380Y-68818095D01*
X123444761Y-69056190D02*
X124159047Y-69294285D01*
X124159047Y-68675238D01*
X124492380Y-67770476D02*
X124492380Y-68341904D01*
X124492380Y-68056190D02*
X123492380Y-68056190D01*
X123635238Y-68151428D01*
X123730476Y-68246666D01*
X123778095Y-68341904D01*
X123825714Y-66913333D02*
X124492380Y-66913333D01*
X123444761Y-67151428D02*
X124159047Y-67389523D01*
X124159047Y-66770476D01*
X123920952Y-66246666D02*
X123873333Y-66341904D01*
X123825714Y-66389523D01*
X123730476Y-66437142D01*
X123682857Y-66437142D01*
X123587619Y-66389523D01*
X123540000Y-66341904D01*
X123492380Y-66246666D01*
X123492380Y-66056190D01*
X123540000Y-65960952D01*
X123587619Y-65913333D01*
X123682857Y-65865714D01*
X123730476Y-65865714D01*
X123825714Y-65913333D01*
X123873333Y-65960952D01*
X123920952Y-66056190D01*
X123920952Y-66246666D01*
X123968571Y-66341904D01*
X124016190Y-66389523D01*
X124111428Y-66437142D01*
X124301904Y-66437142D01*
X124397142Y-66389523D01*
X124444761Y-66341904D01*
X124492380Y-66246666D01*
X124492380Y-66056190D01*
X124444761Y-65960952D01*
X124397142Y-65913333D01*
X124301904Y-65865714D01*
X124111428Y-65865714D01*
X124016190Y-65913333D01*
X123968571Y-65960952D01*
X123920952Y-66056190D01*
D13*
X122281904Y-69575238D02*
X121481904Y-69575238D01*
X121481904Y-69384761D01*
X121520000Y-69270476D01*
X121596190Y-69194285D01*
X121672380Y-69156190D01*
X121824761Y-69118095D01*
X121939047Y-69118095D01*
X122091428Y-69156190D01*
X122167619Y-69194285D01*
X122243809Y-69270476D01*
X122281904Y-69384761D01*
X122281904Y-69575238D01*
X122281904Y-68394285D02*
X122281904Y-68775238D01*
X121481904Y-68775238D01*
X121481904Y-67784761D02*
X121481904Y-67937142D01*
X121520000Y-68013333D01*
X121558095Y-68051428D01*
X121672380Y-68127619D01*
X121824761Y-68165714D01*
X122129523Y-68165714D01*
X122205714Y-68127619D01*
X122243809Y-68089523D01*
X122281904Y-68013333D01*
X122281904Y-67860952D01*
X122243809Y-67784761D01*
X122205714Y-67746666D01*
X122129523Y-67708571D01*
X121939047Y-67708571D01*
X121862857Y-67746666D01*
X121824761Y-67784761D01*
X121786666Y-67860952D01*
X121786666Y-68013333D01*
X121824761Y-68089523D01*
X121862857Y-68127619D01*
X121939047Y-68165714D01*
X121558095Y-67403809D02*
X121520000Y-67365714D01*
X121481904Y-67289523D01*
X121481904Y-67099047D01*
X121520000Y-67022857D01*
X121558095Y-66984761D01*
X121634285Y-66946666D01*
X121710476Y-66946666D01*
X121824761Y-66984761D01*
X122281904Y-67441904D01*
X122281904Y-66946666D01*
D11*
X120572380Y-72651904D02*
X119572380Y-72651904D01*
X120572380Y-72080476D02*
X120000952Y-72509047D01*
X119572380Y-72080476D02*
X120143809Y-72651904D01*
%TO.C,DL61*%
X124492380Y-51672857D02*
X124492380Y-52244285D01*
X124492380Y-51958571D02*
X123492380Y-51958571D01*
X123635238Y-52053809D01*
X123730476Y-52149047D01*
X123778095Y-52244285D01*
X124492380Y-51244285D02*
X123492380Y-51244285D01*
X124492380Y-50672857D01*
X123492380Y-50672857D01*
X123825714Y-49768095D02*
X124492380Y-49768095D01*
X123444761Y-50006190D02*
X124159047Y-50244285D01*
X124159047Y-49625238D01*
X124492380Y-48720476D02*
X124492380Y-49291904D01*
X124492380Y-49006190D02*
X123492380Y-49006190D01*
X123635238Y-49101428D01*
X123730476Y-49196666D01*
X123778095Y-49291904D01*
X123825714Y-47863333D02*
X124492380Y-47863333D01*
X123444761Y-48101428D02*
X124159047Y-48339523D01*
X124159047Y-47720476D01*
X123920952Y-47196666D02*
X123873333Y-47291904D01*
X123825714Y-47339523D01*
X123730476Y-47387142D01*
X123682857Y-47387142D01*
X123587619Y-47339523D01*
X123540000Y-47291904D01*
X123492380Y-47196666D01*
X123492380Y-47006190D01*
X123540000Y-46910952D01*
X123587619Y-46863333D01*
X123682857Y-46815714D01*
X123730476Y-46815714D01*
X123825714Y-46863333D01*
X123873333Y-46910952D01*
X123920952Y-47006190D01*
X123920952Y-47196666D01*
X123968571Y-47291904D01*
X124016190Y-47339523D01*
X124111428Y-47387142D01*
X124301904Y-47387142D01*
X124397142Y-47339523D01*
X124444761Y-47291904D01*
X124492380Y-47196666D01*
X124492380Y-47006190D01*
X124444761Y-46910952D01*
X124397142Y-46863333D01*
X124301904Y-46815714D01*
X124111428Y-46815714D01*
X124016190Y-46863333D01*
X123968571Y-46910952D01*
X123920952Y-47006190D01*
D13*
X122281904Y-50525238D02*
X121481904Y-50525238D01*
X121481904Y-50334761D01*
X121520000Y-50220476D01*
X121596190Y-50144285D01*
X121672380Y-50106190D01*
X121824761Y-50068095D01*
X121939047Y-50068095D01*
X122091428Y-50106190D01*
X122167619Y-50144285D01*
X122243809Y-50220476D01*
X122281904Y-50334761D01*
X122281904Y-50525238D01*
X122281904Y-49344285D02*
X122281904Y-49725238D01*
X121481904Y-49725238D01*
X121481904Y-48734761D02*
X121481904Y-48887142D01*
X121520000Y-48963333D01*
X121558095Y-49001428D01*
X121672380Y-49077619D01*
X121824761Y-49115714D01*
X122129523Y-49115714D01*
X122205714Y-49077619D01*
X122243809Y-49039523D01*
X122281904Y-48963333D01*
X122281904Y-48810952D01*
X122243809Y-48734761D01*
X122205714Y-48696666D01*
X122129523Y-48658571D01*
X121939047Y-48658571D01*
X121862857Y-48696666D01*
X121824761Y-48734761D01*
X121786666Y-48810952D01*
X121786666Y-48963333D01*
X121824761Y-49039523D01*
X121862857Y-49077619D01*
X121939047Y-49115714D01*
X122281904Y-47896666D02*
X122281904Y-48353809D01*
X122281904Y-48125238D02*
X121481904Y-48125238D01*
X121596190Y-48201428D01*
X121672380Y-48277619D01*
X121710476Y-48353809D01*
D11*
X120572380Y-53601904D02*
X119572380Y-53601904D01*
X120572380Y-53030476D02*
X120000952Y-53459047D01*
X119572380Y-53030476D02*
X120143809Y-53601904D01*
%TO.C,DL55*%
X124492380Y-127872857D02*
X124492380Y-128444285D01*
X124492380Y-128158571D02*
X123492380Y-128158571D01*
X123635238Y-128253809D01*
X123730476Y-128349047D01*
X123778095Y-128444285D01*
X124492380Y-127444285D02*
X123492380Y-127444285D01*
X124492380Y-126872857D01*
X123492380Y-126872857D01*
X123825714Y-125968095D02*
X124492380Y-125968095D01*
X123444761Y-126206190D02*
X124159047Y-126444285D01*
X124159047Y-125825238D01*
X124492380Y-124920476D02*
X124492380Y-125491904D01*
X124492380Y-125206190D02*
X123492380Y-125206190D01*
X123635238Y-125301428D01*
X123730476Y-125396666D01*
X123778095Y-125491904D01*
X123825714Y-124063333D02*
X124492380Y-124063333D01*
X123444761Y-124301428D02*
X124159047Y-124539523D01*
X124159047Y-123920476D01*
X123920952Y-123396666D02*
X123873333Y-123491904D01*
X123825714Y-123539523D01*
X123730476Y-123587142D01*
X123682857Y-123587142D01*
X123587619Y-123539523D01*
X123540000Y-123491904D01*
X123492380Y-123396666D01*
X123492380Y-123206190D01*
X123540000Y-123110952D01*
X123587619Y-123063333D01*
X123682857Y-123015714D01*
X123730476Y-123015714D01*
X123825714Y-123063333D01*
X123873333Y-123110952D01*
X123920952Y-123206190D01*
X123920952Y-123396666D01*
X123968571Y-123491904D01*
X124016190Y-123539523D01*
X124111428Y-123587142D01*
X124301904Y-123587142D01*
X124397142Y-123539523D01*
X124444761Y-123491904D01*
X124492380Y-123396666D01*
X124492380Y-123206190D01*
X124444761Y-123110952D01*
X124397142Y-123063333D01*
X124301904Y-123015714D01*
X124111428Y-123015714D01*
X124016190Y-123063333D01*
X123968571Y-123110952D01*
X123920952Y-123206190D01*
X120572380Y-129801904D02*
X119572380Y-129801904D01*
X120572380Y-129230476D02*
X120000952Y-129659047D01*
X119572380Y-129230476D02*
X120143809Y-129801904D01*
D13*
X122281904Y-126725238D02*
X121481904Y-126725238D01*
X121481904Y-126534761D01*
X121520000Y-126420476D01*
X121596190Y-126344285D01*
X121672380Y-126306190D01*
X121824761Y-126268095D01*
X121939047Y-126268095D01*
X122091428Y-126306190D01*
X122167619Y-126344285D01*
X122243809Y-126420476D01*
X122281904Y-126534761D01*
X122281904Y-126725238D01*
X122281904Y-125544285D02*
X122281904Y-125925238D01*
X121481904Y-125925238D01*
X121481904Y-124896666D02*
X121481904Y-125277619D01*
X121862857Y-125315714D01*
X121824761Y-125277619D01*
X121786666Y-125201428D01*
X121786666Y-125010952D01*
X121824761Y-124934761D01*
X121862857Y-124896666D01*
X121939047Y-124858571D01*
X122129523Y-124858571D01*
X122205714Y-124896666D01*
X122243809Y-124934761D01*
X122281904Y-125010952D01*
X122281904Y-125201428D01*
X122243809Y-125277619D01*
X122205714Y-125315714D01*
X121481904Y-124134761D02*
X121481904Y-124515714D01*
X121862857Y-124553809D01*
X121824761Y-124515714D01*
X121786666Y-124439523D01*
X121786666Y-124249047D01*
X121824761Y-124172857D01*
X121862857Y-124134761D01*
X121939047Y-124096666D01*
X122129523Y-124096666D01*
X122205714Y-124134761D01*
X122243809Y-124172857D01*
X122281904Y-124249047D01*
X122281904Y-124439523D01*
X122243809Y-124515714D01*
X122205714Y-124553809D01*
%TO.C,DL54*%
D11*
X105442380Y-103742857D02*
X105442380Y-104314285D01*
X105442380Y-104028571D02*
X104442380Y-104028571D01*
X104585238Y-104123809D01*
X104680476Y-104219047D01*
X104728095Y-104314285D01*
X105442380Y-103314285D02*
X104442380Y-103314285D01*
X105442380Y-102742857D01*
X104442380Y-102742857D01*
X104775714Y-101838095D02*
X105442380Y-101838095D01*
X104394761Y-102076190D02*
X105109047Y-102314285D01*
X105109047Y-101695238D01*
X105442380Y-100790476D02*
X105442380Y-101361904D01*
X105442380Y-101076190D02*
X104442380Y-101076190D01*
X104585238Y-101171428D01*
X104680476Y-101266666D01*
X104728095Y-101361904D01*
X104775714Y-99933333D02*
X105442380Y-99933333D01*
X104394761Y-100171428D02*
X105109047Y-100409523D01*
X105109047Y-99790476D01*
X104870952Y-99266666D02*
X104823333Y-99361904D01*
X104775714Y-99409523D01*
X104680476Y-99457142D01*
X104632857Y-99457142D01*
X104537619Y-99409523D01*
X104490000Y-99361904D01*
X104442380Y-99266666D01*
X104442380Y-99076190D01*
X104490000Y-98980952D01*
X104537619Y-98933333D01*
X104632857Y-98885714D01*
X104680476Y-98885714D01*
X104775714Y-98933333D01*
X104823333Y-98980952D01*
X104870952Y-99076190D01*
X104870952Y-99266666D01*
X104918571Y-99361904D01*
X104966190Y-99409523D01*
X105061428Y-99457142D01*
X105251904Y-99457142D01*
X105347142Y-99409523D01*
X105394761Y-99361904D01*
X105442380Y-99266666D01*
X105442380Y-99076190D01*
X105394761Y-98980952D01*
X105347142Y-98933333D01*
X105251904Y-98885714D01*
X105061428Y-98885714D01*
X104966190Y-98933333D01*
X104918571Y-98980952D01*
X104870952Y-99076190D01*
D13*
X103231904Y-102595238D02*
X102431904Y-102595238D01*
X102431904Y-102404761D01*
X102470000Y-102290476D01*
X102546190Y-102214285D01*
X102622380Y-102176190D01*
X102774761Y-102138095D01*
X102889047Y-102138095D01*
X103041428Y-102176190D01*
X103117619Y-102214285D01*
X103193809Y-102290476D01*
X103231904Y-102404761D01*
X103231904Y-102595238D01*
X103231904Y-101414285D02*
X103231904Y-101795238D01*
X102431904Y-101795238D01*
X102431904Y-100766666D02*
X102431904Y-101147619D01*
X102812857Y-101185714D01*
X102774761Y-101147619D01*
X102736666Y-101071428D01*
X102736666Y-100880952D01*
X102774761Y-100804761D01*
X102812857Y-100766666D01*
X102889047Y-100728571D01*
X103079523Y-100728571D01*
X103155714Y-100766666D01*
X103193809Y-100804761D01*
X103231904Y-100880952D01*
X103231904Y-101071428D01*
X103193809Y-101147619D01*
X103155714Y-101185714D01*
X102698571Y-100042857D02*
X103231904Y-100042857D01*
X102393809Y-100233333D02*
X102965238Y-100423809D01*
X102965238Y-99928571D01*
D11*
X101522380Y-105671904D02*
X100522380Y-105671904D01*
X101522380Y-105100476D02*
X100950952Y-105529047D01*
X100522380Y-105100476D02*
X101093809Y-105671904D01*
%TO.C,DL53*%
X105442380Y-84692857D02*
X105442380Y-85264285D01*
X105442380Y-84978571D02*
X104442380Y-84978571D01*
X104585238Y-85073809D01*
X104680476Y-85169047D01*
X104728095Y-85264285D01*
X105442380Y-84264285D02*
X104442380Y-84264285D01*
X105442380Y-83692857D01*
X104442380Y-83692857D01*
X104775714Y-82788095D02*
X105442380Y-82788095D01*
X104394761Y-83026190D02*
X105109047Y-83264285D01*
X105109047Y-82645238D01*
X105442380Y-81740476D02*
X105442380Y-82311904D01*
X105442380Y-82026190D02*
X104442380Y-82026190D01*
X104585238Y-82121428D01*
X104680476Y-82216666D01*
X104728095Y-82311904D01*
X104775714Y-80883333D02*
X105442380Y-80883333D01*
X104394761Y-81121428D02*
X105109047Y-81359523D01*
X105109047Y-80740476D01*
X104870952Y-80216666D02*
X104823333Y-80311904D01*
X104775714Y-80359523D01*
X104680476Y-80407142D01*
X104632857Y-80407142D01*
X104537619Y-80359523D01*
X104490000Y-80311904D01*
X104442380Y-80216666D01*
X104442380Y-80026190D01*
X104490000Y-79930952D01*
X104537619Y-79883333D01*
X104632857Y-79835714D01*
X104680476Y-79835714D01*
X104775714Y-79883333D01*
X104823333Y-79930952D01*
X104870952Y-80026190D01*
X104870952Y-80216666D01*
X104918571Y-80311904D01*
X104966190Y-80359523D01*
X105061428Y-80407142D01*
X105251904Y-80407142D01*
X105347142Y-80359523D01*
X105394761Y-80311904D01*
X105442380Y-80216666D01*
X105442380Y-80026190D01*
X105394761Y-79930952D01*
X105347142Y-79883333D01*
X105251904Y-79835714D01*
X105061428Y-79835714D01*
X104966190Y-79883333D01*
X104918571Y-79930952D01*
X104870952Y-80026190D01*
X101522380Y-86621904D02*
X100522380Y-86621904D01*
X101522380Y-86050476D02*
X100950952Y-86479047D01*
X100522380Y-86050476D02*
X101093809Y-86621904D01*
D13*
X103231904Y-83545238D02*
X102431904Y-83545238D01*
X102431904Y-83354761D01*
X102470000Y-83240476D01*
X102546190Y-83164285D01*
X102622380Y-83126190D01*
X102774761Y-83088095D01*
X102889047Y-83088095D01*
X103041428Y-83126190D01*
X103117619Y-83164285D01*
X103193809Y-83240476D01*
X103231904Y-83354761D01*
X103231904Y-83545238D01*
X103231904Y-82364285D02*
X103231904Y-82745238D01*
X102431904Y-82745238D01*
X102431904Y-81716666D02*
X102431904Y-82097619D01*
X102812857Y-82135714D01*
X102774761Y-82097619D01*
X102736666Y-82021428D01*
X102736666Y-81830952D01*
X102774761Y-81754761D01*
X102812857Y-81716666D01*
X102889047Y-81678571D01*
X103079523Y-81678571D01*
X103155714Y-81716666D01*
X103193809Y-81754761D01*
X103231904Y-81830952D01*
X103231904Y-82021428D01*
X103193809Y-82097619D01*
X103155714Y-82135714D01*
X102431904Y-81411904D02*
X102431904Y-80916666D01*
X102736666Y-81183333D01*
X102736666Y-81069047D01*
X102774761Y-80992857D01*
X102812857Y-80954761D01*
X102889047Y-80916666D01*
X103079523Y-80916666D01*
X103155714Y-80954761D01*
X103193809Y-80992857D01*
X103231904Y-81069047D01*
X103231904Y-81297619D01*
X103193809Y-81373809D01*
X103155714Y-81411904D01*
%TO.C,DL52*%
D11*
X105442380Y-65642857D02*
X105442380Y-66214285D01*
X105442380Y-65928571D02*
X104442380Y-65928571D01*
X104585238Y-66023809D01*
X104680476Y-66119047D01*
X104728095Y-66214285D01*
X105442380Y-65214285D02*
X104442380Y-65214285D01*
X105442380Y-64642857D01*
X104442380Y-64642857D01*
X104775714Y-63738095D02*
X105442380Y-63738095D01*
X104394761Y-63976190D02*
X105109047Y-64214285D01*
X105109047Y-63595238D01*
X105442380Y-62690476D02*
X105442380Y-63261904D01*
X105442380Y-62976190D02*
X104442380Y-62976190D01*
X104585238Y-63071428D01*
X104680476Y-63166666D01*
X104728095Y-63261904D01*
X104775714Y-61833333D02*
X105442380Y-61833333D01*
X104394761Y-62071428D02*
X105109047Y-62309523D01*
X105109047Y-61690476D01*
X104870952Y-61166666D02*
X104823333Y-61261904D01*
X104775714Y-61309523D01*
X104680476Y-61357142D01*
X104632857Y-61357142D01*
X104537619Y-61309523D01*
X104490000Y-61261904D01*
X104442380Y-61166666D01*
X104442380Y-60976190D01*
X104490000Y-60880952D01*
X104537619Y-60833333D01*
X104632857Y-60785714D01*
X104680476Y-60785714D01*
X104775714Y-60833333D01*
X104823333Y-60880952D01*
X104870952Y-60976190D01*
X104870952Y-61166666D01*
X104918571Y-61261904D01*
X104966190Y-61309523D01*
X105061428Y-61357142D01*
X105251904Y-61357142D01*
X105347142Y-61309523D01*
X105394761Y-61261904D01*
X105442380Y-61166666D01*
X105442380Y-60976190D01*
X105394761Y-60880952D01*
X105347142Y-60833333D01*
X105251904Y-60785714D01*
X105061428Y-60785714D01*
X104966190Y-60833333D01*
X104918571Y-60880952D01*
X104870952Y-60976190D01*
X101522380Y-67571904D02*
X100522380Y-67571904D01*
X101522380Y-67000476D02*
X100950952Y-67429047D01*
X100522380Y-67000476D02*
X101093809Y-67571904D01*
D13*
X103231904Y-64495238D02*
X102431904Y-64495238D01*
X102431904Y-64304761D01*
X102470000Y-64190476D01*
X102546190Y-64114285D01*
X102622380Y-64076190D01*
X102774761Y-64038095D01*
X102889047Y-64038095D01*
X103041428Y-64076190D01*
X103117619Y-64114285D01*
X103193809Y-64190476D01*
X103231904Y-64304761D01*
X103231904Y-64495238D01*
X103231904Y-63314285D02*
X103231904Y-63695238D01*
X102431904Y-63695238D01*
X102431904Y-62666666D02*
X102431904Y-63047619D01*
X102812857Y-63085714D01*
X102774761Y-63047619D01*
X102736666Y-62971428D01*
X102736666Y-62780952D01*
X102774761Y-62704761D01*
X102812857Y-62666666D01*
X102889047Y-62628571D01*
X103079523Y-62628571D01*
X103155714Y-62666666D01*
X103193809Y-62704761D01*
X103231904Y-62780952D01*
X103231904Y-62971428D01*
X103193809Y-63047619D01*
X103155714Y-63085714D01*
X102508095Y-62323809D02*
X102470000Y-62285714D01*
X102431904Y-62209523D01*
X102431904Y-62019047D01*
X102470000Y-61942857D01*
X102508095Y-61904761D01*
X102584285Y-61866666D01*
X102660476Y-61866666D01*
X102774761Y-61904761D01*
X103231904Y-62361904D01*
X103231904Y-61866666D01*
%TO.C,DL51*%
D11*
X105442380Y-46592857D02*
X105442380Y-47164285D01*
X105442380Y-46878571D02*
X104442380Y-46878571D01*
X104585238Y-46973809D01*
X104680476Y-47069047D01*
X104728095Y-47164285D01*
X105442380Y-46164285D02*
X104442380Y-46164285D01*
X105442380Y-45592857D01*
X104442380Y-45592857D01*
X104775714Y-44688095D02*
X105442380Y-44688095D01*
X104394761Y-44926190D02*
X105109047Y-45164285D01*
X105109047Y-44545238D01*
X105442380Y-43640476D02*
X105442380Y-44211904D01*
X105442380Y-43926190D02*
X104442380Y-43926190D01*
X104585238Y-44021428D01*
X104680476Y-44116666D01*
X104728095Y-44211904D01*
X104775714Y-42783333D02*
X105442380Y-42783333D01*
X104394761Y-43021428D02*
X105109047Y-43259523D01*
X105109047Y-42640476D01*
X104870952Y-42116666D02*
X104823333Y-42211904D01*
X104775714Y-42259523D01*
X104680476Y-42307142D01*
X104632857Y-42307142D01*
X104537619Y-42259523D01*
X104490000Y-42211904D01*
X104442380Y-42116666D01*
X104442380Y-41926190D01*
X104490000Y-41830952D01*
X104537619Y-41783333D01*
X104632857Y-41735714D01*
X104680476Y-41735714D01*
X104775714Y-41783333D01*
X104823333Y-41830952D01*
X104870952Y-41926190D01*
X104870952Y-42116666D01*
X104918571Y-42211904D01*
X104966190Y-42259523D01*
X105061428Y-42307142D01*
X105251904Y-42307142D01*
X105347142Y-42259523D01*
X105394761Y-42211904D01*
X105442380Y-42116666D01*
X105442380Y-41926190D01*
X105394761Y-41830952D01*
X105347142Y-41783333D01*
X105251904Y-41735714D01*
X105061428Y-41735714D01*
X104966190Y-41783333D01*
X104918571Y-41830952D01*
X104870952Y-41926190D01*
X101522380Y-48521904D02*
X100522380Y-48521904D01*
X101522380Y-47950476D02*
X100950952Y-48379047D01*
X100522380Y-47950476D02*
X101093809Y-48521904D01*
D13*
X103231904Y-45445238D02*
X102431904Y-45445238D01*
X102431904Y-45254761D01*
X102470000Y-45140476D01*
X102546190Y-45064285D01*
X102622380Y-45026190D01*
X102774761Y-44988095D01*
X102889047Y-44988095D01*
X103041428Y-45026190D01*
X103117619Y-45064285D01*
X103193809Y-45140476D01*
X103231904Y-45254761D01*
X103231904Y-45445238D01*
X103231904Y-44264285D02*
X103231904Y-44645238D01*
X102431904Y-44645238D01*
X102431904Y-43616666D02*
X102431904Y-43997619D01*
X102812857Y-44035714D01*
X102774761Y-43997619D01*
X102736666Y-43921428D01*
X102736666Y-43730952D01*
X102774761Y-43654761D01*
X102812857Y-43616666D01*
X102889047Y-43578571D01*
X103079523Y-43578571D01*
X103155714Y-43616666D01*
X103193809Y-43654761D01*
X103231904Y-43730952D01*
X103231904Y-43921428D01*
X103193809Y-43997619D01*
X103155714Y-44035714D01*
X103231904Y-42816666D02*
X103231904Y-43273809D01*
X103231904Y-43045238D02*
X102431904Y-43045238D01*
X102546190Y-43121428D01*
X102622380Y-43197619D01*
X102660476Y-43273809D01*
%TO.C,DL45*%
D11*
X105442380Y-122792857D02*
X105442380Y-123364285D01*
X105442380Y-123078571D02*
X104442380Y-123078571D01*
X104585238Y-123173809D01*
X104680476Y-123269047D01*
X104728095Y-123364285D01*
X105442380Y-122364285D02*
X104442380Y-122364285D01*
X105442380Y-121792857D01*
X104442380Y-121792857D01*
X104775714Y-120888095D02*
X105442380Y-120888095D01*
X104394761Y-121126190D02*
X105109047Y-121364285D01*
X105109047Y-120745238D01*
X105442380Y-119840476D02*
X105442380Y-120411904D01*
X105442380Y-120126190D02*
X104442380Y-120126190D01*
X104585238Y-120221428D01*
X104680476Y-120316666D01*
X104728095Y-120411904D01*
X104775714Y-118983333D02*
X105442380Y-118983333D01*
X104394761Y-119221428D02*
X105109047Y-119459523D01*
X105109047Y-118840476D01*
X104870952Y-118316666D02*
X104823333Y-118411904D01*
X104775714Y-118459523D01*
X104680476Y-118507142D01*
X104632857Y-118507142D01*
X104537619Y-118459523D01*
X104490000Y-118411904D01*
X104442380Y-118316666D01*
X104442380Y-118126190D01*
X104490000Y-118030952D01*
X104537619Y-117983333D01*
X104632857Y-117935714D01*
X104680476Y-117935714D01*
X104775714Y-117983333D01*
X104823333Y-118030952D01*
X104870952Y-118126190D01*
X104870952Y-118316666D01*
X104918571Y-118411904D01*
X104966190Y-118459523D01*
X105061428Y-118507142D01*
X105251904Y-118507142D01*
X105347142Y-118459523D01*
X105394761Y-118411904D01*
X105442380Y-118316666D01*
X105442380Y-118126190D01*
X105394761Y-118030952D01*
X105347142Y-117983333D01*
X105251904Y-117935714D01*
X105061428Y-117935714D01*
X104966190Y-117983333D01*
X104918571Y-118030952D01*
X104870952Y-118126190D01*
D13*
X103231904Y-121645238D02*
X102431904Y-121645238D01*
X102431904Y-121454761D01*
X102470000Y-121340476D01*
X102546190Y-121264285D01*
X102622380Y-121226190D01*
X102774761Y-121188095D01*
X102889047Y-121188095D01*
X103041428Y-121226190D01*
X103117619Y-121264285D01*
X103193809Y-121340476D01*
X103231904Y-121454761D01*
X103231904Y-121645238D01*
X103231904Y-120464285D02*
X103231904Y-120845238D01*
X102431904Y-120845238D01*
X102698571Y-119854761D02*
X103231904Y-119854761D01*
X102393809Y-120045238D02*
X102965238Y-120235714D01*
X102965238Y-119740476D01*
X102431904Y-119054761D02*
X102431904Y-119435714D01*
X102812857Y-119473809D01*
X102774761Y-119435714D01*
X102736666Y-119359523D01*
X102736666Y-119169047D01*
X102774761Y-119092857D01*
X102812857Y-119054761D01*
X102889047Y-119016666D01*
X103079523Y-119016666D01*
X103155714Y-119054761D01*
X103193809Y-119092857D01*
X103231904Y-119169047D01*
X103231904Y-119359523D01*
X103193809Y-119435714D01*
X103155714Y-119473809D01*
D11*
X101522380Y-124721904D02*
X100522380Y-124721904D01*
X101522380Y-124150476D02*
X100950952Y-124579047D01*
X100522380Y-124150476D02*
X101093809Y-124721904D01*
%TO.C,DL44*%
X86392380Y-98662857D02*
X86392380Y-99234285D01*
X86392380Y-98948571D02*
X85392380Y-98948571D01*
X85535238Y-99043809D01*
X85630476Y-99139047D01*
X85678095Y-99234285D01*
X86392380Y-98234285D02*
X85392380Y-98234285D01*
X86392380Y-97662857D01*
X85392380Y-97662857D01*
X85725714Y-96758095D02*
X86392380Y-96758095D01*
X85344761Y-96996190D02*
X86059047Y-97234285D01*
X86059047Y-96615238D01*
X86392380Y-95710476D02*
X86392380Y-96281904D01*
X86392380Y-95996190D02*
X85392380Y-95996190D01*
X85535238Y-96091428D01*
X85630476Y-96186666D01*
X85678095Y-96281904D01*
X85725714Y-94853333D02*
X86392380Y-94853333D01*
X85344761Y-95091428D02*
X86059047Y-95329523D01*
X86059047Y-94710476D01*
X85820952Y-94186666D02*
X85773333Y-94281904D01*
X85725714Y-94329523D01*
X85630476Y-94377142D01*
X85582857Y-94377142D01*
X85487619Y-94329523D01*
X85440000Y-94281904D01*
X85392380Y-94186666D01*
X85392380Y-93996190D01*
X85440000Y-93900952D01*
X85487619Y-93853333D01*
X85582857Y-93805714D01*
X85630476Y-93805714D01*
X85725714Y-93853333D01*
X85773333Y-93900952D01*
X85820952Y-93996190D01*
X85820952Y-94186666D01*
X85868571Y-94281904D01*
X85916190Y-94329523D01*
X86011428Y-94377142D01*
X86201904Y-94377142D01*
X86297142Y-94329523D01*
X86344761Y-94281904D01*
X86392380Y-94186666D01*
X86392380Y-93996190D01*
X86344761Y-93900952D01*
X86297142Y-93853333D01*
X86201904Y-93805714D01*
X86011428Y-93805714D01*
X85916190Y-93853333D01*
X85868571Y-93900952D01*
X85820952Y-93996190D01*
X82472380Y-100591904D02*
X81472380Y-100591904D01*
X82472380Y-100020476D02*
X81900952Y-100449047D01*
X81472380Y-100020476D02*
X82043809Y-100591904D01*
D13*
X84181904Y-97515238D02*
X83381904Y-97515238D01*
X83381904Y-97324761D01*
X83420000Y-97210476D01*
X83496190Y-97134285D01*
X83572380Y-97096190D01*
X83724761Y-97058095D01*
X83839047Y-97058095D01*
X83991428Y-97096190D01*
X84067619Y-97134285D01*
X84143809Y-97210476D01*
X84181904Y-97324761D01*
X84181904Y-97515238D01*
X84181904Y-96334285D02*
X84181904Y-96715238D01*
X83381904Y-96715238D01*
X83648571Y-95724761D02*
X84181904Y-95724761D01*
X83343809Y-95915238D02*
X83915238Y-96105714D01*
X83915238Y-95610476D01*
X83648571Y-94962857D02*
X84181904Y-94962857D01*
X83343809Y-95153333D02*
X83915238Y-95343809D01*
X83915238Y-94848571D01*
%TO.C,DL43*%
D11*
X86392380Y-79612857D02*
X86392380Y-80184285D01*
X86392380Y-79898571D02*
X85392380Y-79898571D01*
X85535238Y-79993809D01*
X85630476Y-80089047D01*
X85678095Y-80184285D01*
X86392380Y-79184285D02*
X85392380Y-79184285D01*
X86392380Y-78612857D01*
X85392380Y-78612857D01*
X85725714Y-77708095D02*
X86392380Y-77708095D01*
X85344761Y-77946190D02*
X86059047Y-78184285D01*
X86059047Y-77565238D01*
X86392380Y-76660476D02*
X86392380Y-77231904D01*
X86392380Y-76946190D02*
X85392380Y-76946190D01*
X85535238Y-77041428D01*
X85630476Y-77136666D01*
X85678095Y-77231904D01*
X85725714Y-75803333D02*
X86392380Y-75803333D01*
X85344761Y-76041428D02*
X86059047Y-76279523D01*
X86059047Y-75660476D01*
X85820952Y-75136666D02*
X85773333Y-75231904D01*
X85725714Y-75279523D01*
X85630476Y-75327142D01*
X85582857Y-75327142D01*
X85487619Y-75279523D01*
X85440000Y-75231904D01*
X85392380Y-75136666D01*
X85392380Y-74946190D01*
X85440000Y-74850952D01*
X85487619Y-74803333D01*
X85582857Y-74755714D01*
X85630476Y-74755714D01*
X85725714Y-74803333D01*
X85773333Y-74850952D01*
X85820952Y-74946190D01*
X85820952Y-75136666D01*
X85868571Y-75231904D01*
X85916190Y-75279523D01*
X86011428Y-75327142D01*
X86201904Y-75327142D01*
X86297142Y-75279523D01*
X86344761Y-75231904D01*
X86392380Y-75136666D01*
X86392380Y-74946190D01*
X86344761Y-74850952D01*
X86297142Y-74803333D01*
X86201904Y-74755714D01*
X86011428Y-74755714D01*
X85916190Y-74803333D01*
X85868571Y-74850952D01*
X85820952Y-74946190D01*
D13*
X84181904Y-78465238D02*
X83381904Y-78465238D01*
X83381904Y-78274761D01*
X83420000Y-78160476D01*
X83496190Y-78084285D01*
X83572380Y-78046190D01*
X83724761Y-78008095D01*
X83839047Y-78008095D01*
X83991428Y-78046190D01*
X84067619Y-78084285D01*
X84143809Y-78160476D01*
X84181904Y-78274761D01*
X84181904Y-78465238D01*
X84181904Y-77284285D02*
X84181904Y-77665238D01*
X83381904Y-77665238D01*
X83648571Y-76674761D02*
X84181904Y-76674761D01*
X83343809Y-76865238D02*
X83915238Y-77055714D01*
X83915238Y-76560476D01*
X83381904Y-76331904D02*
X83381904Y-75836666D01*
X83686666Y-76103333D01*
X83686666Y-75989047D01*
X83724761Y-75912857D01*
X83762857Y-75874761D01*
X83839047Y-75836666D01*
X84029523Y-75836666D01*
X84105714Y-75874761D01*
X84143809Y-75912857D01*
X84181904Y-75989047D01*
X84181904Y-76217619D01*
X84143809Y-76293809D01*
X84105714Y-76331904D01*
D11*
X82472380Y-81541904D02*
X81472380Y-81541904D01*
X82472380Y-80970476D02*
X81900952Y-81399047D01*
X81472380Y-80970476D02*
X82043809Y-81541904D01*
%TO.C,DL42*%
X86392380Y-60562857D02*
X86392380Y-61134285D01*
X86392380Y-60848571D02*
X85392380Y-60848571D01*
X85535238Y-60943809D01*
X85630476Y-61039047D01*
X85678095Y-61134285D01*
X86392380Y-60134285D02*
X85392380Y-60134285D01*
X86392380Y-59562857D01*
X85392380Y-59562857D01*
X85725714Y-58658095D02*
X86392380Y-58658095D01*
X85344761Y-58896190D02*
X86059047Y-59134285D01*
X86059047Y-58515238D01*
X86392380Y-57610476D02*
X86392380Y-58181904D01*
X86392380Y-57896190D02*
X85392380Y-57896190D01*
X85535238Y-57991428D01*
X85630476Y-58086666D01*
X85678095Y-58181904D01*
X85725714Y-56753333D02*
X86392380Y-56753333D01*
X85344761Y-56991428D02*
X86059047Y-57229523D01*
X86059047Y-56610476D01*
X85820952Y-56086666D02*
X85773333Y-56181904D01*
X85725714Y-56229523D01*
X85630476Y-56277142D01*
X85582857Y-56277142D01*
X85487619Y-56229523D01*
X85440000Y-56181904D01*
X85392380Y-56086666D01*
X85392380Y-55896190D01*
X85440000Y-55800952D01*
X85487619Y-55753333D01*
X85582857Y-55705714D01*
X85630476Y-55705714D01*
X85725714Y-55753333D01*
X85773333Y-55800952D01*
X85820952Y-55896190D01*
X85820952Y-56086666D01*
X85868571Y-56181904D01*
X85916190Y-56229523D01*
X86011428Y-56277142D01*
X86201904Y-56277142D01*
X86297142Y-56229523D01*
X86344761Y-56181904D01*
X86392380Y-56086666D01*
X86392380Y-55896190D01*
X86344761Y-55800952D01*
X86297142Y-55753333D01*
X86201904Y-55705714D01*
X86011428Y-55705714D01*
X85916190Y-55753333D01*
X85868571Y-55800952D01*
X85820952Y-55896190D01*
D13*
X84181904Y-59415238D02*
X83381904Y-59415238D01*
X83381904Y-59224761D01*
X83420000Y-59110476D01*
X83496190Y-59034285D01*
X83572380Y-58996190D01*
X83724761Y-58958095D01*
X83839047Y-58958095D01*
X83991428Y-58996190D01*
X84067619Y-59034285D01*
X84143809Y-59110476D01*
X84181904Y-59224761D01*
X84181904Y-59415238D01*
X84181904Y-58234285D02*
X84181904Y-58615238D01*
X83381904Y-58615238D01*
X83648571Y-57624761D02*
X84181904Y-57624761D01*
X83343809Y-57815238D02*
X83915238Y-58005714D01*
X83915238Y-57510476D01*
X83458095Y-57243809D02*
X83420000Y-57205714D01*
X83381904Y-57129523D01*
X83381904Y-56939047D01*
X83420000Y-56862857D01*
X83458095Y-56824761D01*
X83534285Y-56786666D01*
X83610476Y-56786666D01*
X83724761Y-56824761D01*
X84181904Y-57281904D01*
X84181904Y-56786666D01*
D11*
X82472380Y-62491904D02*
X81472380Y-62491904D01*
X82472380Y-61920476D02*
X81900952Y-62349047D01*
X81472380Y-61920476D02*
X82043809Y-62491904D01*
%TO.C,DL41*%
X86392380Y-41512857D02*
X86392380Y-42084285D01*
X86392380Y-41798571D02*
X85392380Y-41798571D01*
X85535238Y-41893809D01*
X85630476Y-41989047D01*
X85678095Y-42084285D01*
X86392380Y-41084285D02*
X85392380Y-41084285D01*
X86392380Y-40512857D01*
X85392380Y-40512857D01*
X85725714Y-39608095D02*
X86392380Y-39608095D01*
X85344761Y-39846190D02*
X86059047Y-40084285D01*
X86059047Y-39465238D01*
X86392380Y-38560476D02*
X86392380Y-39131904D01*
X86392380Y-38846190D02*
X85392380Y-38846190D01*
X85535238Y-38941428D01*
X85630476Y-39036666D01*
X85678095Y-39131904D01*
X85725714Y-37703333D02*
X86392380Y-37703333D01*
X85344761Y-37941428D02*
X86059047Y-38179523D01*
X86059047Y-37560476D01*
X85820952Y-37036666D02*
X85773333Y-37131904D01*
X85725714Y-37179523D01*
X85630476Y-37227142D01*
X85582857Y-37227142D01*
X85487619Y-37179523D01*
X85440000Y-37131904D01*
X85392380Y-37036666D01*
X85392380Y-36846190D01*
X85440000Y-36750952D01*
X85487619Y-36703333D01*
X85582857Y-36655714D01*
X85630476Y-36655714D01*
X85725714Y-36703333D01*
X85773333Y-36750952D01*
X85820952Y-36846190D01*
X85820952Y-37036666D01*
X85868571Y-37131904D01*
X85916190Y-37179523D01*
X86011428Y-37227142D01*
X86201904Y-37227142D01*
X86297142Y-37179523D01*
X86344761Y-37131904D01*
X86392380Y-37036666D01*
X86392380Y-36846190D01*
X86344761Y-36750952D01*
X86297142Y-36703333D01*
X86201904Y-36655714D01*
X86011428Y-36655714D01*
X85916190Y-36703333D01*
X85868571Y-36750952D01*
X85820952Y-36846190D01*
D13*
X84181904Y-40365238D02*
X83381904Y-40365238D01*
X83381904Y-40174761D01*
X83420000Y-40060476D01*
X83496190Y-39984285D01*
X83572380Y-39946190D01*
X83724761Y-39908095D01*
X83839047Y-39908095D01*
X83991428Y-39946190D01*
X84067619Y-39984285D01*
X84143809Y-40060476D01*
X84181904Y-40174761D01*
X84181904Y-40365238D01*
X84181904Y-39184285D02*
X84181904Y-39565238D01*
X83381904Y-39565238D01*
X83648571Y-38574761D02*
X84181904Y-38574761D01*
X83343809Y-38765238D02*
X83915238Y-38955714D01*
X83915238Y-38460476D01*
X84181904Y-37736666D02*
X84181904Y-38193809D01*
X84181904Y-37965238D02*
X83381904Y-37965238D01*
X83496190Y-38041428D01*
X83572380Y-38117619D01*
X83610476Y-38193809D01*
D11*
X82472380Y-43441904D02*
X81472380Y-43441904D01*
X82472380Y-42870476D02*
X81900952Y-43299047D01*
X81472380Y-42870476D02*
X82043809Y-43441904D01*
%TO.C,DL35*%
X86392380Y-117712857D02*
X86392380Y-118284285D01*
X86392380Y-117998571D02*
X85392380Y-117998571D01*
X85535238Y-118093809D01*
X85630476Y-118189047D01*
X85678095Y-118284285D01*
X86392380Y-117284285D02*
X85392380Y-117284285D01*
X86392380Y-116712857D01*
X85392380Y-116712857D01*
X85725714Y-115808095D02*
X86392380Y-115808095D01*
X85344761Y-116046190D02*
X86059047Y-116284285D01*
X86059047Y-115665238D01*
X86392380Y-114760476D02*
X86392380Y-115331904D01*
X86392380Y-115046190D02*
X85392380Y-115046190D01*
X85535238Y-115141428D01*
X85630476Y-115236666D01*
X85678095Y-115331904D01*
X85725714Y-113903333D02*
X86392380Y-113903333D01*
X85344761Y-114141428D02*
X86059047Y-114379523D01*
X86059047Y-113760476D01*
X85820952Y-113236666D02*
X85773333Y-113331904D01*
X85725714Y-113379523D01*
X85630476Y-113427142D01*
X85582857Y-113427142D01*
X85487619Y-113379523D01*
X85440000Y-113331904D01*
X85392380Y-113236666D01*
X85392380Y-113046190D01*
X85440000Y-112950952D01*
X85487619Y-112903333D01*
X85582857Y-112855714D01*
X85630476Y-112855714D01*
X85725714Y-112903333D01*
X85773333Y-112950952D01*
X85820952Y-113046190D01*
X85820952Y-113236666D01*
X85868571Y-113331904D01*
X85916190Y-113379523D01*
X86011428Y-113427142D01*
X86201904Y-113427142D01*
X86297142Y-113379523D01*
X86344761Y-113331904D01*
X86392380Y-113236666D01*
X86392380Y-113046190D01*
X86344761Y-112950952D01*
X86297142Y-112903333D01*
X86201904Y-112855714D01*
X86011428Y-112855714D01*
X85916190Y-112903333D01*
X85868571Y-112950952D01*
X85820952Y-113046190D01*
X82472380Y-119641904D02*
X81472380Y-119641904D01*
X82472380Y-119070476D02*
X81900952Y-119499047D01*
X81472380Y-119070476D02*
X82043809Y-119641904D01*
D13*
X84181904Y-116565238D02*
X83381904Y-116565238D01*
X83381904Y-116374761D01*
X83420000Y-116260476D01*
X83496190Y-116184285D01*
X83572380Y-116146190D01*
X83724761Y-116108095D01*
X83839047Y-116108095D01*
X83991428Y-116146190D01*
X84067619Y-116184285D01*
X84143809Y-116260476D01*
X84181904Y-116374761D01*
X84181904Y-116565238D01*
X84181904Y-115384285D02*
X84181904Y-115765238D01*
X83381904Y-115765238D01*
X83381904Y-115193809D02*
X83381904Y-114698571D01*
X83686666Y-114965238D01*
X83686666Y-114850952D01*
X83724761Y-114774761D01*
X83762857Y-114736666D01*
X83839047Y-114698571D01*
X84029523Y-114698571D01*
X84105714Y-114736666D01*
X84143809Y-114774761D01*
X84181904Y-114850952D01*
X84181904Y-115079523D01*
X84143809Y-115155714D01*
X84105714Y-115193809D01*
X83381904Y-113974761D02*
X83381904Y-114355714D01*
X83762857Y-114393809D01*
X83724761Y-114355714D01*
X83686666Y-114279523D01*
X83686666Y-114089047D01*
X83724761Y-114012857D01*
X83762857Y-113974761D01*
X83839047Y-113936666D01*
X84029523Y-113936666D01*
X84105714Y-113974761D01*
X84143809Y-114012857D01*
X84181904Y-114089047D01*
X84181904Y-114279523D01*
X84143809Y-114355714D01*
X84105714Y-114393809D01*
%TO.C,DL34*%
D11*
X67342380Y-103742857D02*
X67342380Y-104314285D01*
X67342380Y-104028571D02*
X66342380Y-104028571D01*
X66485238Y-104123809D01*
X66580476Y-104219047D01*
X66628095Y-104314285D01*
X67342380Y-103314285D02*
X66342380Y-103314285D01*
X67342380Y-102742857D01*
X66342380Y-102742857D01*
X66675714Y-101838095D02*
X67342380Y-101838095D01*
X66294761Y-102076190D02*
X67009047Y-102314285D01*
X67009047Y-101695238D01*
X67342380Y-100790476D02*
X67342380Y-101361904D01*
X67342380Y-101076190D02*
X66342380Y-101076190D01*
X66485238Y-101171428D01*
X66580476Y-101266666D01*
X66628095Y-101361904D01*
X66675714Y-99933333D02*
X67342380Y-99933333D01*
X66294761Y-100171428D02*
X67009047Y-100409523D01*
X67009047Y-99790476D01*
X66770952Y-99266666D02*
X66723333Y-99361904D01*
X66675714Y-99409523D01*
X66580476Y-99457142D01*
X66532857Y-99457142D01*
X66437619Y-99409523D01*
X66390000Y-99361904D01*
X66342380Y-99266666D01*
X66342380Y-99076190D01*
X66390000Y-98980952D01*
X66437619Y-98933333D01*
X66532857Y-98885714D01*
X66580476Y-98885714D01*
X66675714Y-98933333D01*
X66723333Y-98980952D01*
X66770952Y-99076190D01*
X66770952Y-99266666D01*
X66818571Y-99361904D01*
X66866190Y-99409523D01*
X66961428Y-99457142D01*
X67151904Y-99457142D01*
X67247142Y-99409523D01*
X67294761Y-99361904D01*
X67342380Y-99266666D01*
X67342380Y-99076190D01*
X67294761Y-98980952D01*
X67247142Y-98933333D01*
X67151904Y-98885714D01*
X66961428Y-98885714D01*
X66866190Y-98933333D01*
X66818571Y-98980952D01*
X66770952Y-99076190D01*
D13*
X65131904Y-102595238D02*
X64331904Y-102595238D01*
X64331904Y-102404761D01*
X64370000Y-102290476D01*
X64446190Y-102214285D01*
X64522380Y-102176190D01*
X64674761Y-102138095D01*
X64789047Y-102138095D01*
X64941428Y-102176190D01*
X65017619Y-102214285D01*
X65093809Y-102290476D01*
X65131904Y-102404761D01*
X65131904Y-102595238D01*
X65131904Y-101414285D02*
X65131904Y-101795238D01*
X64331904Y-101795238D01*
X64331904Y-101223809D02*
X64331904Y-100728571D01*
X64636666Y-100995238D01*
X64636666Y-100880952D01*
X64674761Y-100804761D01*
X64712857Y-100766666D01*
X64789047Y-100728571D01*
X64979523Y-100728571D01*
X65055714Y-100766666D01*
X65093809Y-100804761D01*
X65131904Y-100880952D01*
X65131904Y-101109523D01*
X65093809Y-101185714D01*
X65055714Y-101223809D01*
X64598571Y-100042857D02*
X65131904Y-100042857D01*
X64293809Y-100233333D02*
X64865238Y-100423809D01*
X64865238Y-99928571D01*
D11*
X63422380Y-105671904D02*
X62422380Y-105671904D01*
X63422380Y-105100476D02*
X62850952Y-105529047D01*
X62422380Y-105100476D02*
X62993809Y-105671904D01*
%TO.C,DL33*%
X67342380Y-84692857D02*
X67342380Y-85264285D01*
X67342380Y-84978571D02*
X66342380Y-84978571D01*
X66485238Y-85073809D01*
X66580476Y-85169047D01*
X66628095Y-85264285D01*
X67342380Y-84264285D02*
X66342380Y-84264285D01*
X67342380Y-83692857D01*
X66342380Y-83692857D01*
X66675714Y-82788095D02*
X67342380Y-82788095D01*
X66294761Y-83026190D02*
X67009047Y-83264285D01*
X67009047Y-82645238D01*
X67342380Y-81740476D02*
X67342380Y-82311904D01*
X67342380Y-82026190D02*
X66342380Y-82026190D01*
X66485238Y-82121428D01*
X66580476Y-82216666D01*
X66628095Y-82311904D01*
X66675714Y-80883333D02*
X67342380Y-80883333D01*
X66294761Y-81121428D02*
X67009047Y-81359523D01*
X67009047Y-80740476D01*
X66770952Y-80216666D02*
X66723333Y-80311904D01*
X66675714Y-80359523D01*
X66580476Y-80407142D01*
X66532857Y-80407142D01*
X66437619Y-80359523D01*
X66390000Y-80311904D01*
X66342380Y-80216666D01*
X66342380Y-80026190D01*
X66390000Y-79930952D01*
X66437619Y-79883333D01*
X66532857Y-79835714D01*
X66580476Y-79835714D01*
X66675714Y-79883333D01*
X66723333Y-79930952D01*
X66770952Y-80026190D01*
X66770952Y-80216666D01*
X66818571Y-80311904D01*
X66866190Y-80359523D01*
X66961428Y-80407142D01*
X67151904Y-80407142D01*
X67247142Y-80359523D01*
X67294761Y-80311904D01*
X67342380Y-80216666D01*
X67342380Y-80026190D01*
X67294761Y-79930952D01*
X67247142Y-79883333D01*
X67151904Y-79835714D01*
X66961428Y-79835714D01*
X66866190Y-79883333D01*
X66818571Y-79930952D01*
X66770952Y-80026190D01*
X63422380Y-86621904D02*
X62422380Y-86621904D01*
X63422380Y-86050476D02*
X62850952Y-86479047D01*
X62422380Y-86050476D02*
X62993809Y-86621904D01*
D13*
X65131904Y-83545238D02*
X64331904Y-83545238D01*
X64331904Y-83354761D01*
X64370000Y-83240476D01*
X64446190Y-83164285D01*
X64522380Y-83126190D01*
X64674761Y-83088095D01*
X64789047Y-83088095D01*
X64941428Y-83126190D01*
X65017619Y-83164285D01*
X65093809Y-83240476D01*
X65131904Y-83354761D01*
X65131904Y-83545238D01*
X65131904Y-82364285D02*
X65131904Y-82745238D01*
X64331904Y-82745238D01*
X64331904Y-82173809D02*
X64331904Y-81678571D01*
X64636666Y-81945238D01*
X64636666Y-81830952D01*
X64674761Y-81754761D01*
X64712857Y-81716666D01*
X64789047Y-81678571D01*
X64979523Y-81678571D01*
X65055714Y-81716666D01*
X65093809Y-81754761D01*
X65131904Y-81830952D01*
X65131904Y-82059523D01*
X65093809Y-82135714D01*
X65055714Y-82173809D01*
X64331904Y-81411904D02*
X64331904Y-80916666D01*
X64636666Y-81183333D01*
X64636666Y-81069047D01*
X64674761Y-80992857D01*
X64712857Y-80954761D01*
X64789047Y-80916666D01*
X64979523Y-80916666D01*
X65055714Y-80954761D01*
X65093809Y-80992857D01*
X65131904Y-81069047D01*
X65131904Y-81297619D01*
X65093809Y-81373809D01*
X65055714Y-81411904D01*
%TO.C,DL32*%
D11*
X67342380Y-65642857D02*
X67342380Y-66214285D01*
X67342380Y-65928571D02*
X66342380Y-65928571D01*
X66485238Y-66023809D01*
X66580476Y-66119047D01*
X66628095Y-66214285D01*
X67342380Y-65214285D02*
X66342380Y-65214285D01*
X67342380Y-64642857D01*
X66342380Y-64642857D01*
X66675714Y-63738095D02*
X67342380Y-63738095D01*
X66294761Y-63976190D02*
X67009047Y-64214285D01*
X67009047Y-63595238D01*
X67342380Y-62690476D02*
X67342380Y-63261904D01*
X67342380Y-62976190D02*
X66342380Y-62976190D01*
X66485238Y-63071428D01*
X66580476Y-63166666D01*
X66628095Y-63261904D01*
X66675714Y-61833333D02*
X67342380Y-61833333D01*
X66294761Y-62071428D02*
X67009047Y-62309523D01*
X67009047Y-61690476D01*
X66770952Y-61166666D02*
X66723333Y-61261904D01*
X66675714Y-61309523D01*
X66580476Y-61357142D01*
X66532857Y-61357142D01*
X66437619Y-61309523D01*
X66390000Y-61261904D01*
X66342380Y-61166666D01*
X66342380Y-60976190D01*
X66390000Y-60880952D01*
X66437619Y-60833333D01*
X66532857Y-60785714D01*
X66580476Y-60785714D01*
X66675714Y-60833333D01*
X66723333Y-60880952D01*
X66770952Y-60976190D01*
X66770952Y-61166666D01*
X66818571Y-61261904D01*
X66866190Y-61309523D01*
X66961428Y-61357142D01*
X67151904Y-61357142D01*
X67247142Y-61309523D01*
X67294761Y-61261904D01*
X67342380Y-61166666D01*
X67342380Y-60976190D01*
X67294761Y-60880952D01*
X67247142Y-60833333D01*
X67151904Y-60785714D01*
X66961428Y-60785714D01*
X66866190Y-60833333D01*
X66818571Y-60880952D01*
X66770952Y-60976190D01*
X63422380Y-67571904D02*
X62422380Y-67571904D01*
X63422380Y-67000476D02*
X62850952Y-67429047D01*
X62422380Y-67000476D02*
X62993809Y-67571904D01*
D13*
X65131904Y-64495238D02*
X64331904Y-64495238D01*
X64331904Y-64304761D01*
X64370000Y-64190476D01*
X64446190Y-64114285D01*
X64522380Y-64076190D01*
X64674761Y-64038095D01*
X64789047Y-64038095D01*
X64941428Y-64076190D01*
X65017619Y-64114285D01*
X65093809Y-64190476D01*
X65131904Y-64304761D01*
X65131904Y-64495238D01*
X65131904Y-63314285D02*
X65131904Y-63695238D01*
X64331904Y-63695238D01*
X64331904Y-63123809D02*
X64331904Y-62628571D01*
X64636666Y-62895238D01*
X64636666Y-62780952D01*
X64674761Y-62704761D01*
X64712857Y-62666666D01*
X64789047Y-62628571D01*
X64979523Y-62628571D01*
X65055714Y-62666666D01*
X65093809Y-62704761D01*
X65131904Y-62780952D01*
X65131904Y-63009523D01*
X65093809Y-63085714D01*
X65055714Y-63123809D01*
X64408095Y-62323809D02*
X64370000Y-62285714D01*
X64331904Y-62209523D01*
X64331904Y-62019047D01*
X64370000Y-61942857D01*
X64408095Y-61904761D01*
X64484285Y-61866666D01*
X64560476Y-61866666D01*
X64674761Y-61904761D01*
X65131904Y-62361904D01*
X65131904Y-61866666D01*
%TO.C,DL31*%
D11*
X67342380Y-46592857D02*
X67342380Y-47164285D01*
X67342380Y-46878571D02*
X66342380Y-46878571D01*
X66485238Y-46973809D01*
X66580476Y-47069047D01*
X66628095Y-47164285D01*
X67342380Y-46164285D02*
X66342380Y-46164285D01*
X67342380Y-45592857D01*
X66342380Y-45592857D01*
X66675714Y-44688095D02*
X67342380Y-44688095D01*
X66294761Y-44926190D02*
X67009047Y-45164285D01*
X67009047Y-44545238D01*
X67342380Y-43640476D02*
X67342380Y-44211904D01*
X67342380Y-43926190D02*
X66342380Y-43926190D01*
X66485238Y-44021428D01*
X66580476Y-44116666D01*
X66628095Y-44211904D01*
X66675714Y-42783333D02*
X67342380Y-42783333D01*
X66294761Y-43021428D02*
X67009047Y-43259523D01*
X67009047Y-42640476D01*
X66770952Y-42116666D02*
X66723333Y-42211904D01*
X66675714Y-42259523D01*
X66580476Y-42307142D01*
X66532857Y-42307142D01*
X66437619Y-42259523D01*
X66390000Y-42211904D01*
X66342380Y-42116666D01*
X66342380Y-41926190D01*
X66390000Y-41830952D01*
X66437619Y-41783333D01*
X66532857Y-41735714D01*
X66580476Y-41735714D01*
X66675714Y-41783333D01*
X66723333Y-41830952D01*
X66770952Y-41926190D01*
X66770952Y-42116666D01*
X66818571Y-42211904D01*
X66866190Y-42259523D01*
X66961428Y-42307142D01*
X67151904Y-42307142D01*
X67247142Y-42259523D01*
X67294761Y-42211904D01*
X67342380Y-42116666D01*
X67342380Y-41926190D01*
X67294761Y-41830952D01*
X67247142Y-41783333D01*
X67151904Y-41735714D01*
X66961428Y-41735714D01*
X66866190Y-41783333D01*
X66818571Y-41830952D01*
X66770952Y-41926190D01*
X63422380Y-48521904D02*
X62422380Y-48521904D01*
X63422380Y-47950476D02*
X62850952Y-48379047D01*
X62422380Y-47950476D02*
X62993809Y-48521904D01*
D13*
X65131904Y-45445238D02*
X64331904Y-45445238D01*
X64331904Y-45254761D01*
X64370000Y-45140476D01*
X64446190Y-45064285D01*
X64522380Y-45026190D01*
X64674761Y-44988095D01*
X64789047Y-44988095D01*
X64941428Y-45026190D01*
X65017619Y-45064285D01*
X65093809Y-45140476D01*
X65131904Y-45254761D01*
X65131904Y-45445238D01*
X65131904Y-44264285D02*
X65131904Y-44645238D01*
X64331904Y-44645238D01*
X64331904Y-44073809D02*
X64331904Y-43578571D01*
X64636666Y-43845238D01*
X64636666Y-43730952D01*
X64674761Y-43654761D01*
X64712857Y-43616666D01*
X64789047Y-43578571D01*
X64979523Y-43578571D01*
X65055714Y-43616666D01*
X65093809Y-43654761D01*
X65131904Y-43730952D01*
X65131904Y-43959523D01*
X65093809Y-44035714D01*
X65055714Y-44073809D01*
X65131904Y-42816666D02*
X65131904Y-43273809D01*
X65131904Y-43045238D02*
X64331904Y-43045238D01*
X64446190Y-43121428D01*
X64522380Y-43197619D01*
X64560476Y-43273809D01*
%TO.C,DL25*%
D11*
X67342380Y-122792857D02*
X67342380Y-123364285D01*
X67342380Y-123078571D02*
X66342380Y-123078571D01*
X66485238Y-123173809D01*
X66580476Y-123269047D01*
X66628095Y-123364285D01*
X67342380Y-122364285D02*
X66342380Y-122364285D01*
X67342380Y-121792857D01*
X66342380Y-121792857D01*
X66675714Y-120888095D02*
X67342380Y-120888095D01*
X66294761Y-121126190D02*
X67009047Y-121364285D01*
X67009047Y-120745238D01*
X67342380Y-119840476D02*
X67342380Y-120411904D01*
X67342380Y-120126190D02*
X66342380Y-120126190D01*
X66485238Y-120221428D01*
X66580476Y-120316666D01*
X66628095Y-120411904D01*
X66675714Y-118983333D02*
X67342380Y-118983333D01*
X66294761Y-119221428D02*
X67009047Y-119459523D01*
X67009047Y-118840476D01*
X66770952Y-118316666D02*
X66723333Y-118411904D01*
X66675714Y-118459523D01*
X66580476Y-118507142D01*
X66532857Y-118507142D01*
X66437619Y-118459523D01*
X66390000Y-118411904D01*
X66342380Y-118316666D01*
X66342380Y-118126190D01*
X66390000Y-118030952D01*
X66437619Y-117983333D01*
X66532857Y-117935714D01*
X66580476Y-117935714D01*
X66675714Y-117983333D01*
X66723333Y-118030952D01*
X66770952Y-118126190D01*
X66770952Y-118316666D01*
X66818571Y-118411904D01*
X66866190Y-118459523D01*
X66961428Y-118507142D01*
X67151904Y-118507142D01*
X67247142Y-118459523D01*
X67294761Y-118411904D01*
X67342380Y-118316666D01*
X67342380Y-118126190D01*
X67294761Y-118030952D01*
X67247142Y-117983333D01*
X67151904Y-117935714D01*
X66961428Y-117935714D01*
X66866190Y-117983333D01*
X66818571Y-118030952D01*
X66770952Y-118126190D01*
D13*
X65131904Y-121645238D02*
X64331904Y-121645238D01*
X64331904Y-121454761D01*
X64370000Y-121340476D01*
X64446190Y-121264285D01*
X64522380Y-121226190D01*
X64674761Y-121188095D01*
X64789047Y-121188095D01*
X64941428Y-121226190D01*
X65017619Y-121264285D01*
X65093809Y-121340476D01*
X65131904Y-121454761D01*
X65131904Y-121645238D01*
X65131904Y-120464285D02*
X65131904Y-120845238D01*
X64331904Y-120845238D01*
X64408095Y-120235714D02*
X64370000Y-120197619D01*
X64331904Y-120121428D01*
X64331904Y-119930952D01*
X64370000Y-119854761D01*
X64408095Y-119816666D01*
X64484285Y-119778571D01*
X64560476Y-119778571D01*
X64674761Y-119816666D01*
X65131904Y-120273809D01*
X65131904Y-119778571D01*
X64331904Y-119054761D02*
X64331904Y-119435714D01*
X64712857Y-119473809D01*
X64674761Y-119435714D01*
X64636666Y-119359523D01*
X64636666Y-119169047D01*
X64674761Y-119092857D01*
X64712857Y-119054761D01*
X64789047Y-119016666D01*
X64979523Y-119016666D01*
X65055714Y-119054761D01*
X65093809Y-119092857D01*
X65131904Y-119169047D01*
X65131904Y-119359523D01*
X65093809Y-119435714D01*
X65055714Y-119473809D01*
D11*
X63422380Y-124721904D02*
X62422380Y-124721904D01*
X63422380Y-124150476D02*
X62850952Y-124579047D01*
X62422380Y-124150476D02*
X62993809Y-124721904D01*
%TO.C,DL24*%
X48292380Y-108822857D02*
X48292380Y-109394285D01*
X48292380Y-109108571D02*
X47292380Y-109108571D01*
X47435238Y-109203809D01*
X47530476Y-109299047D01*
X47578095Y-109394285D01*
X48292380Y-108394285D02*
X47292380Y-108394285D01*
X48292380Y-107822857D01*
X47292380Y-107822857D01*
X47625714Y-106918095D02*
X48292380Y-106918095D01*
X47244761Y-107156190D02*
X47959047Y-107394285D01*
X47959047Y-106775238D01*
X48292380Y-105870476D02*
X48292380Y-106441904D01*
X48292380Y-106156190D02*
X47292380Y-106156190D01*
X47435238Y-106251428D01*
X47530476Y-106346666D01*
X47578095Y-106441904D01*
X47625714Y-105013333D02*
X48292380Y-105013333D01*
X47244761Y-105251428D02*
X47959047Y-105489523D01*
X47959047Y-104870476D01*
X47720952Y-104346666D02*
X47673333Y-104441904D01*
X47625714Y-104489523D01*
X47530476Y-104537142D01*
X47482857Y-104537142D01*
X47387619Y-104489523D01*
X47340000Y-104441904D01*
X47292380Y-104346666D01*
X47292380Y-104156190D01*
X47340000Y-104060952D01*
X47387619Y-104013333D01*
X47482857Y-103965714D01*
X47530476Y-103965714D01*
X47625714Y-104013333D01*
X47673333Y-104060952D01*
X47720952Y-104156190D01*
X47720952Y-104346666D01*
X47768571Y-104441904D01*
X47816190Y-104489523D01*
X47911428Y-104537142D01*
X48101904Y-104537142D01*
X48197142Y-104489523D01*
X48244761Y-104441904D01*
X48292380Y-104346666D01*
X48292380Y-104156190D01*
X48244761Y-104060952D01*
X48197142Y-104013333D01*
X48101904Y-103965714D01*
X47911428Y-103965714D01*
X47816190Y-104013333D01*
X47768571Y-104060952D01*
X47720952Y-104156190D01*
X44372380Y-110751904D02*
X43372380Y-110751904D01*
X44372380Y-110180476D02*
X43800952Y-110609047D01*
X43372380Y-110180476D02*
X43943809Y-110751904D01*
D13*
X46081904Y-107675238D02*
X45281904Y-107675238D01*
X45281904Y-107484761D01*
X45320000Y-107370476D01*
X45396190Y-107294285D01*
X45472380Y-107256190D01*
X45624761Y-107218095D01*
X45739047Y-107218095D01*
X45891428Y-107256190D01*
X45967619Y-107294285D01*
X46043809Y-107370476D01*
X46081904Y-107484761D01*
X46081904Y-107675238D01*
X46081904Y-106494285D02*
X46081904Y-106875238D01*
X45281904Y-106875238D01*
X45358095Y-106265714D02*
X45320000Y-106227619D01*
X45281904Y-106151428D01*
X45281904Y-105960952D01*
X45320000Y-105884761D01*
X45358095Y-105846666D01*
X45434285Y-105808571D01*
X45510476Y-105808571D01*
X45624761Y-105846666D01*
X46081904Y-106303809D01*
X46081904Y-105808571D01*
X45548571Y-105122857D02*
X46081904Y-105122857D01*
X45243809Y-105313333D02*
X45815238Y-105503809D01*
X45815238Y-105008571D01*
%TO.C,DL23*%
D11*
X48292380Y-89772857D02*
X48292380Y-90344285D01*
X48292380Y-90058571D02*
X47292380Y-90058571D01*
X47435238Y-90153809D01*
X47530476Y-90249047D01*
X47578095Y-90344285D01*
X48292380Y-89344285D02*
X47292380Y-89344285D01*
X48292380Y-88772857D01*
X47292380Y-88772857D01*
X47625714Y-87868095D02*
X48292380Y-87868095D01*
X47244761Y-88106190D02*
X47959047Y-88344285D01*
X47959047Y-87725238D01*
X48292380Y-86820476D02*
X48292380Y-87391904D01*
X48292380Y-87106190D02*
X47292380Y-87106190D01*
X47435238Y-87201428D01*
X47530476Y-87296666D01*
X47578095Y-87391904D01*
X47625714Y-85963333D02*
X48292380Y-85963333D01*
X47244761Y-86201428D02*
X47959047Y-86439523D01*
X47959047Y-85820476D01*
X47720952Y-85296666D02*
X47673333Y-85391904D01*
X47625714Y-85439523D01*
X47530476Y-85487142D01*
X47482857Y-85487142D01*
X47387619Y-85439523D01*
X47340000Y-85391904D01*
X47292380Y-85296666D01*
X47292380Y-85106190D01*
X47340000Y-85010952D01*
X47387619Y-84963333D01*
X47482857Y-84915714D01*
X47530476Y-84915714D01*
X47625714Y-84963333D01*
X47673333Y-85010952D01*
X47720952Y-85106190D01*
X47720952Y-85296666D01*
X47768571Y-85391904D01*
X47816190Y-85439523D01*
X47911428Y-85487142D01*
X48101904Y-85487142D01*
X48197142Y-85439523D01*
X48244761Y-85391904D01*
X48292380Y-85296666D01*
X48292380Y-85106190D01*
X48244761Y-85010952D01*
X48197142Y-84963333D01*
X48101904Y-84915714D01*
X47911428Y-84915714D01*
X47816190Y-84963333D01*
X47768571Y-85010952D01*
X47720952Y-85106190D01*
D13*
X46081904Y-88625238D02*
X45281904Y-88625238D01*
X45281904Y-88434761D01*
X45320000Y-88320476D01*
X45396190Y-88244285D01*
X45472380Y-88206190D01*
X45624761Y-88168095D01*
X45739047Y-88168095D01*
X45891428Y-88206190D01*
X45967619Y-88244285D01*
X46043809Y-88320476D01*
X46081904Y-88434761D01*
X46081904Y-88625238D01*
X46081904Y-87444285D02*
X46081904Y-87825238D01*
X45281904Y-87825238D01*
X45358095Y-87215714D02*
X45320000Y-87177619D01*
X45281904Y-87101428D01*
X45281904Y-86910952D01*
X45320000Y-86834761D01*
X45358095Y-86796666D01*
X45434285Y-86758571D01*
X45510476Y-86758571D01*
X45624761Y-86796666D01*
X46081904Y-87253809D01*
X46081904Y-86758571D01*
X45281904Y-86491904D02*
X45281904Y-85996666D01*
X45586666Y-86263333D01*
X45586666Y-86149047D01*
X45624761Y-86072857D01*
X45662857Y-86034761D01*
X45739047Y-85996666D01*
X45929523Y-85996666D01*
X46005714Y-86034761D01*
X46043809Y-86072857D01*
X46081904Y-86149047D01*
X46081904Y-86377619D01*
X46043809Y-86453809D01*
X46005714Y-86491904D01*
D11*
X44372380Y-91701904D02*
X43372380Y-91701904D01*
X44372380Y-91130476D02*
X43800952Y-91559047D01*
X43372380Y-91130476D02*
X43943809Y-91701904D01*
%TO.C,DL22*%
X48292380Y-70722857D02*
X48292380Y-71294285D01*
X48292380Y-71008571D02*
X47292380Y-71008571D01*
X47435238Y-71103809D01*
X47530476Y-71199047D01*
X47578095Y-71294285D01*
X48292380Y-70294285D02*
X47292380Y-70294285D01*
X48292380Y-69722857D01*
X47292380Y-69722857D01*
X47625714Y-68818095D02*
X48292380Y-68818095D01*
X47244761Y-69056190D02*
X47959047Y-69294285D01*
X47959047Y-68675238D01*
X48292380Y-67770476D02*
X48292380Y-68341904D01*
X48292380Y-68056190D02*
X47292380Y-68056190D01*
X47435238Y-68151428D01*
X47530476Y-68246666D01*
X47578095Y-68341904D01*
X47625714Y-66913333D02*
X48292380Y-66913333D01*
X47244761Y-67151428D02*
X47959047Y-67389523D01*
X47959047Y-66770476D01*
X47720952Y-66246666D02*
X47673333Y-66341904D01*
X47625714Y-66389523D01*
X47530476Y-66437142D01*
X47482857Y-66437142D01*
X47387619Y-66389523D01*
X47340000Y-66341904D01*
X47292380Y-66246666D01*
X47292380Y-66056190D01*
X47340000Y-65960952D01*
X47387619Y-65913333D01*
X47482857Y-65865714D01*
X47530476Y-65865714D01*
X47625714Y-65913333D01*
X47673333Y-65960952D01*
X47720952Y-66056190D01*
X47720952Y-66246666D01*
X47768571Y-66341904D01*
X47816190Y-66389523D01*
X47911428Y-66437142D01*
X48101904Y-66437142D01*
X48197142Y-66389523D01*
X48244761Y-66341904D01*
X48292380Y-66246666D01*
X48292380Y-66056190D01*
X48244761Y-65960952D01*
X48197142Y-65913333D01*
X48101904Y-65865714D01*
X47911428Y-65865714D01*
X47816190Y-65913333D01*
X47768571Y-65960952D01*
X47720952Y-66056190D01*
X44372380Y-72651904D02*
X43372380Y-72651904D01*
X44372380Y-72080476D02*
X43800952Y-72509047D01*
X43372380Y-72080476D02*
X43943809Y-72651904D01*
D13*
X46081904Y-69575238D02*
X45281904Y-69575238D01*
X45281904Y-69384761D01*
X45320000Y-69270476D01*
X45396190Y-69194285D01*
X45472380Y-69156190D01*
X45624761Y-69118095D01*
X45739047Y-69118095D01*
X45891428Y-69156190D01*
X45967619Y-69194285D01*
X46043809Y-69270476D01*
X46081904Y-69384761D01*
X46081904Y-69575238D01*
X46081904Y-68394285D02*
X46081904Y-68775238D01*
X45281904Y-68775238D01*
X45358095Y-68165714D02*
X45320000Y-68127619D01*
X45281904Y-68051428D01*
X45281904Y-67860952D01*
X45320000Y-67784761D01*
X45358095Y-67746666D01*
X45434285Y-67708571D01*
X45510476Y-67708571D01*
X45624761Y-67746666D01*
X46081904Y-68203809D01*
X46081904Y-67708571D01*
X45358095Y-67403809D02*
X45320000Y-67365714D01*
X45281904Y-67289523D01*
X45281904Y-67099047D01*
X45320000Y-67022857D01*
X45358095Y-66984761D01*
X45434285Y-66946666D01*
X45510476Y-66946666D01*
X45624761Y-66984761D01*
X46081904Y-67441904D01*
X46081904Y-66946666D01*
%TO.C,DL21*%
D11*
X48292380Y-51672857D02*
X48292380Y-52244285D01*
X48292380Y-51958571D02*
X47292380Y-51958571D01*
X47435238Y-52053809D01*
X47530476Y-52149047D01*
X47578095Y-52244285D01*
X48292380Y-51244285D02*
X47292380Y-51244285D01*
X48292380Y-50672857D01*
X47292380Y-50672857D01*
X47625714Y-49768095D02*
X48292380Y-49768095D01*
X47244761Y-50006190D02*
X47959047Y-50244285D01*
X47959047Y-49625238D01*
X48292380Y-48720476D02*
X48292380Y-49291904D01*
X48292380Y-49006190D02*
X47292380Y-49006190D01*
X47435238Y-49101428D01*
X47530476Y-49196666D01*
X47578095Y-49291904D01*
X47625714Y-47863333D02*
X48292380Y-47863333D01*
X47244761Y-48101428D02*
X47959047Y-48339523D01*
X47959047Y-47720476D01*
X47720952Y-47196666D02*
X47673333Y-47291904D01*
X47625714Y-47339523D01*
X47530476Y-47387142D01*
X47482857Y-47387142D01*
X47387619Y-47339523D01*
X47340000Y-47291904D01*
X47292380Y-47196666D01*
X47292380Y-47006190D01*
X47340000Y-46910952D01*
X47387619Y-46863333D01*
X47482857Y-46815714D01*
X47530476Y-46815714D01*
X47625714Y-46863333D01*
X47673333Y-46910952D01*
X47720952Y-47006190D01*
X47720952Y-47196666D01*
X47768571Y-47291904D01*
X47816190Y-47339523D01*
X47911428Y-47387142D01*
X48101904Y-47387142D01*
X48197142Y-47339523D01*
X48244761Y-47291904D01*
X48292380Y-47196666D01*
X48292380Y-47006190D01*
X48244761Y-46910952D01*
X48197142Y-46863333D01*
X48101904Y-46815714D01*
X47911428Y-46815714D01*
X47816190Y-46863333D01*
X47768571Y-46910952D01*
X47720952Y-47006190D01*
D13*
X46081904Y-50525238D02*
X45281904Y-50525238D01*
X45281904Y-50334761D01*
X45320000Y-50220476D01*
X45396190Y-50144285D01*
X45472380Y-50106190D01*
X45624761Y-50068095D01*
X45739047Y-50068095D01*
X45891428Y-50106190D01*
X45967619Y-50144285D01*
X46043809Y-50220476D01*
X46081904Y-50334761D01*
X46081904Y-50525238D01*
X46081904Y-49344285D02*
X46081904Y-49725238D01*
X45281904Y-49725238D01*
X45358095Y-49115714D02*
X45320000Y-49077619D01*
X45281904Y-49001428D01*
X45281904Y-48810952D01*
X45320000Y-48734761D01*
X45358095Y-48696666D01*
X45434285Y-48658571D01*
X45510476Y-48658571D01*
X45624761Y-48696666D01*
X46081904Y-49153809D01*
X46081904Y-48658571D01*
X46081904Y-47896666D02*
X46081904Y-48353809D01*
X46081904Y-48125238D02*
X45281904Y-48125238D01*
X45396190Y-48201428D01*
X45472380Y-48277619D01*
X45510476Y-48353809D01*
D11*
X44372380Y-53601904D02*
X43372380Y-53601904D01*
X44372380Y-53030476D02*
X43800952Y-53459047D01*
X43372380Y-53030476D02*
X43943809Y-53601904D01*
%TO.C,DL15*%
X48292380Y-127872857D02*
X48292380Y-128444285D01*
X48292380Y-128158571D02*
X47292380Y-128158571D01*
X47435238Y-128253809D01*
X47530476Y-128349047D01*
X47578095Y-128444285D01*
X48292380Y-127444285D02*
X47292380Y-127444285D01*
X48292380Y-126872857D01*
X47292380Y-126872857D01*
X47625714Y-125968095D02*
X48292380Y-125968095D01*
X47244761Y-126206190D02*
X47959047Y-126444285D01*
X47959047Y-125825238D01*
X48292380Y-124920476D02*
X48292380Y-125491904D01*
X48292380Y-125206190D02*
X47292380Y-125206190D01*
X47435238Y-125301428D01*
X47530476Y-125396666D01*
X47578095Y-125491904D01*
X47625714Y-124063333D02*
X48292380Y-124063333D01*
X47244761Y-124301428D02*
X47959047Y-124539523D01*
X47959047Y-123920476D01*
X47720952Y-123396666D02*
X47673333Y-123491904D01*
X47625714Y-123539523D01*
X47530476Y-123587142D01*
X47482857Y-123587142D01*
X47387619Y-123539523D01*
X47340000Y-123491904D01*
X47292380Y-123396666D01*
X47292380Y-123206190D01*
X47340000Y-123110952D01*
X47387619Y-123063333D01*
X47482857Y-123015714D01*
X47530476Y-123015714D01*
X47625714Y-123063333D01*
X47673333Y-123110952D01*
X47720952Y-123206190D01*
X47720952Y-123396666D01*
X47768571Y-123491904D01*
X47816190Y-123539523D01*
X47911428Y-123587142D01*
X48101904Y-123587142D01*
X48197142Y-123539523D01*
X48244761Y-123491904D01*
X48292380Y-123396666D01*
X48292380Y-123206190D01*
X48244761Y-123110952D01*
X48197142Y-123063333D01*
X48101904Y-123015714D01*
X47911428Y-123015714D01*
X47816190Y-123063333D01*
X47768571Y-123110952D01*
X47720952Y-123206190D01*
X44372380Y-129801904D02*
X43372380Y-129801904D01*
X44372380Y-129230476D02*
X43800952Y-129659047D01*
X43372380Y-129230476D02*
X43943809Y-129801904D01*
D13*
X46081904Y-126725238D02*
X45281904Y-126725238D01*
X45281904Y-126534761D01*
X45320000Y-126420476D01*
X45396190Y-126344285D01*
X45472380Y-126306190D01*
X45624761Y-126268095D01*
X45739047Y-126268095D01*
X45891428Y-126306190D01*
X45967619Y-126344285D01*
X46043809Y-126420476D01*
X46081904Y-126534761D01*
X46081904Y-126725238D01*
X46081904Y-125544285D02*
X46081904Y-125925238D01*
X45281904Y-125925238D01*
X46081904Y-124858571D02*
X46081904Y-125315714D01*
X46081904Y-125087142D02*
X45281904Y-125087142D01*
X45396190Y-125163333D01*
X45472380Y-125239523D01*
X45510476Y-125315714D01*
X45281904Y-124134761D02*
X45281904Y-124515714D01*
X45662857Y-124553809D01*
X45624761Y-124515714D01*
X45586666Y-124439523D01*
X45586666Y-124249047D01*
X45624761Y-124172857D01*
X45662857Y-124134761D01*
X45739047Y-124096666D01*
X45929523Y-124096666D01*
X46005714Y-124134761D01*
X46043809Y-124172857D01*
X46081904Y-124249047D01*
X46081904Y-124439523D01*
X46043809Y-124515714D01*
X46005714Y-124553809D01*
%TO.C,DL14*%
D11*
X29242380Y-108822857D02*
X29242380Y-109394285D01*
X29242380Y-109108571D02*
X28242380Y-109108571D01*
X28385238Y-109203809D01*
X28480476Y-109299047D01*
X28528095Y-109394285D01*
X29242380Y-108394285D02*
X28242380Y-108394285D01*
X29242380Y-107822857D01*
X28242380Y-107822857D01*
X28575714Y-106918095D02*
X29242380Y-106918095D01*
X28194761Y-107156190D02*
X28909047Y-107394285D01*
X28909047Y-106775238D01*
X29242380Y-105870476D02*
X29242380Y-106441904D01*
X29242380Y-106156190D02*
X28242380Y-106156190D01*
X28385238Y-106251428D01*
X28480476Y-106346666D01*
X28528095Y-106441904D01*
X28575714Y-105013333D02*
X29242380Y-105013333D01*
X28194761Y-105251428D02*
X28909047Y-105489523D01*
X28909047Y-104870476D01*
X28670952Y-104346666D02*
X28623333Y-104441904D01*
X28575714Y-104489523D01*
X28480476Y-104537142D01*
X28432857Y-104537142D01*
X28337619Y-104489523D01*
X28290000Y-104441904D01*
X28242380Y-104346666D01*
X28242380Y-104156190D01*
X28290000Y-104060952D01*
X28337619Y-104013333D01*
X28432857Y-103965714D01*
X28480476Y-103965714D01*
X28575714Y-104013333D01*
X28623333Y-104060952D01*
X28670952Y-104156190D01*
X28670952Y-104346666D01*
X28718571Y-104441904D01*
X28766190Y-104489523D01*
X28861428Y-104537142D01*
X29051904Y-104537142D01*
X29147142Y-104489523D01*
X29194761Y-104441904D01*
X29242380Y-104346666D01*
X29242380Y-104156190D01*
X29194761Y-104060952D01*
X29147142Y-104013333D01*
X29051904Y-103965714D01*
X28861428Y-103965714D01*
X28766190Y-104013333D01*
X28718571Y-104060952D01*
X28670952Y-104156190D01*
X25322380Y-110751904D02*
X24322380Y-110751904D01*
X25322380Y-110180476D02*
X24750952Y-110609047D01*
X24322380Y-110180476D02*
X24893809Y-110751904D01*
D13*
X27031904Y-107675238D02*
X26231904Y-107675238D01*
X26231904Y-107484761D01*
X26270000Y-107370476D01*
X26346190Y-107294285D01*
X26422380Y-107256190D01*
X26574761Y-107218095D01*
X26689047Y-107218095D01*
X26841428Y-107256190D01*
X26917619Y-107294285D01*
X26993809Y-107370476D01*
X27031904Y-107484761D01*
X27031904Y-107675238D01*
X27031904Y-106494285D02*
X27031904Y-106875238D01*
X26231904Y-106875238D01*
X27031904Y-105808571D02*
X27031904Y-106265714D01*
X27031904Y-106037142D02*
X26231904Y-106037142D01*
X26346190Y-106113333D01*
X26422380Y-106189523D01*
X26460476Y-106265714D01*
X26498571Y-105122857D02*
X27031904Y-105122857D01*
X26193809Y-105313333D02*
X26765238Y-105503809D01*
X26765238Y-105008571D01*
%TO.C,DL13*%
D11*
X29242380Y-89772857D02*
X29242380Y-90344285D01*
X29242380Y-90058571D02*
X28242380Y-90058571D01*
X28385238Y-90153809D01*
X28480476Y-90249047D01*
X28528095Y-90344285D01*
X29242380Y-89344285D02*
X28242380Y-89344285D01*
X29242380Y-88772857D01*
X28242380Y-88772857D01*
X28575714Y-87868095D02*
X29242380Y-87868095D01*
X28194761Y-88106190D02*
X28909047Y-88344285D01*
X28909047Y-87725238D01*
X29242380Y-86820476D02*
X29242380Y-87391904D01*
X29242380Y-87106190D02*
X28242380Y-87106190D01*
X28385238Y-87201428D01*
X28480476Y-87296666D01*
X28528095Y-87391904D01*
X28575714Y-85963333D02*
X29242380Y-85963333D01*
X28194761Y-86201428D02*
X28909047Y-86439523D01*
X28909047Y-85820476D01*
X28670952Y-85296666D02*
X28623333Y-85391904D01*
X28575714Y-85439523D01*
X28480476Y-85487142D01*
X28432857Y-85487142D01*
X28337619Y-85439523D01*
X28290000Y-85391904D01*
X28242380Y-85296666D01*
X28242380Y-85106190D01*
X28290000Y-85010952D01*
X28337619Y-84963333D01*
X28432857Y-84915714D01*
X28480476Y-84915714D01*
X28575714Y-84963333D01*
X28623333Y-85010952D01*
X28670952Y-85106190D01*
X28670952Y-85296666D01*
X28718571Y-85391904D01*
X28766190Y-85439523D01*
X28861428Y-85487142D01*
X29051904Y-85487142D01*
X29147142Y-85439523D01*
X29194761Y-85391904D01*
X29242380Y-85296666D01*
X29242380Y-85106190D01*
X29194761Y-85010952D01*
X29147142Y-84963333D01*
X29051904Y-84915714D01*
X28861428Y-84915714D01*
X28766190Y-84963333D01*
X28718571Y-85010952D01*
X28670952Y-85106190D01*
D13*
X27031904Y-88625238D02*
X26231904Y-88625238D01*
X26231904Y-88434761D01*
X26270000Y-88320476D01*
X26346190Y-88244285D01*
X26422380Y-88206190D01*
X26574761Y-88168095D01*
X26689047Y-88168095D01*
X26841428Y-88206190D01*
X26917619Y-88244285D01*
X26993809Y-88320476D01*
X27031904Y-88434761D01*
X27031904Y-88625238D01*
X27031904Y-87444285D02*
X27031904Y-87825238D01*
X26231904Y-87825238D01*
X27031904Y-86758571D02*
X27031904Y-87215714D01*
X27031904Y-86987142D02*
X26231904Y-86987142D01*
X26346190Y-87063333D01*
X26422380Y-87139523D01*
X26460476Y-87215714D01*
X26231904Y-86491904D02*
X26231904Y-85996666D01*
X26536666Y-86263333D01*
X26536666Y-86149047D01*
X26574761Y-86072857D01*
X26612857Y-86034761D01*
X26689047Y-85996666D01*
X26879523Y-85996666D01*
X26955714Y-86034761D01*
X26993809Y-86072857D01*
X27031904Y-86149047D01*
X27031904Y-86377619D01*
X26993809Y-86453809D01*
X26955714Y-86491904D01*
D11*
X25322380Y-91701904D02*
X24322380Y-91701904D01*
X25322380Y-91130476D02*
X24750952Y-91559047D01*
X24322380Y-91130476D02*
X24893809Y-91701904D01*
%TO.C,DL12*%
X29242380Y-70722857D02*
X29242380Y-71294285D01*
X29242380Y-71008571D02*
X28242380Y-71008571D01*
X28385238Y-71103809D01*
X28480476Y-71199047D01*
X28528095Y-71294285D01*
X29242380Y-70294285D02*
X28242380Y-70294285D01*
X29242380Y-69722857D01*
X28242380Y-69722857D01*
X28575714Y-68818095D02*
X29242380Y-68818095D01*
X28194761Y-69056190D02*
X28909047Y-69294285D01*
X28909047Y-68675238D01*
X29242380Y-67770476D02*
X29242380Y-68341904D01*
X29242380Y-68056190D02*
X28242380Y-68056190D01*
X28385238Y-68151428D01*
X28480476Y-68246666D01*
X28528095Y-68341904D01*
X28575714Y-66913333D02*
X29242380Y-66913333D01*
X28194761Y-67151428D02*
X28909047Y-67389523D01*
X28909047Y-66770476D01*
X28670952Y-66246666D02*
X28623333Y-66341904D01*
X28575714Y-66389523D01*
X28480476Y-66437142D01*
X28432857Y-66437142D01*
X28337619Y-66389523D01*
X28290000Y-66341904D01*
X28242380Y-66246666D01*
X28242380Y-66056190D01*
X28290000Y-65960952D01*
X28337619Y-65913333D01*
X28432857Y-65865714D01*
X28480476Y-65865714D01*
X28575714Y-65913333D01*
X28623333Y-65960952D01*
X28670952Y-66056190D01*
X28670952Y-66246666D01*
X28718571Y-66341904D01*
X28766190Y-66389523D01*
X28861428Y-66437142D01*
X29051904Y-66437142D01*
X29147142Y-66389523D01*
X29194761Y-66341904D01*
X29242380Y-66246666D01*
X29242380Y-66056190D01*
X29194761Y-65960952D01*
X29147142Y-65913333D01*
X29051904Y-65865714D01*
X28861428Y-65865714D01*
X28766190Y-65913333D01*
X28718571Y-65960952D01*
X28670952Y-66056190D01*
D13*
X27031904Y-69575238D02*
X26231904Y-69575238D01*
X26231904Y-69384761D01*
X26270000Y-69270476D01*
X26346190Y-69194285D01*
X26422380Y-69156190D01*
X26574761Y-69118095D01*
X26689047Y-69118095D01*
X26841428Y-69156190D01*
X26917619Y-69194285D01*
X26993809Y-69270476D01*
X27031904Y-69384761D01*
X27031904Y-69575238D01*
X27031904Y-68394285D02*
X27031904Y-68775238D01*
X26231904Y-68775238D01*
X27031904Y-67708571D02*
X27031904Y-68165714D01*
X27031904Y-67937142D02*
X26231904Y-67937142D01*
X26346190Y-68013333D01*
X26422380Y-68089523D01*
X26460476Y-68165714D01*
X26308095Y-67403809D02*
X26270000Y-67365714D01*
X26231904Y-67289523D01*
X26231904Y-67099047D01*
X26270000Y-67022857D01*
X26308095Y-66984761D01*
X26384285Y-66946666D01*
X26460476Y-66946666D01*
X26574761Y-66984761D01*
X27031904Y-67441904D01*
X27031904Y-66946666D01*
D11*
X25322380Y-72651904D02*
X24322380Y-72651904D01*
X25322380Y-72080476D02*
X24750952Y-72509047D01*
X24322380Y-72080476D02*
X24893809Y-72651904D01*
%TO.C,DL11*%
X29242380Y-51672857D02*
X29242380Y-52244285D01*
X29242380Y-51958571D02*
X28242380Y-51958571D01*
X28385238Y-52053809D01*
X28480476Y-52149047D01*
X28528095Y-52244285D01*
X29242380Y-51244285D02*
X28242380Y-51244285D01*
X29242380Y-50672857D01*
X28242380Y-50672857D01*
X28575714Y-49768095D02*
X29242380Y-49768095D01*
X28194761Y-50006190D02*
X28909047Y-50244285D01*
X28909047Y-49625238D01*
X29242380Y-48720476D02*
X29242380Y-49291904D01*
X29242380Y-49006190D02*
X28242380Y-49006190D01*
X28385238Y-49101428D01*
X28480476Y-49196666D01*
X28528095Y-49291904D01*
X28575714Y-47863333D02*
X29242380Y-47863333D01*
X28194761Y-48101428D02*
X28909047Y-48339523D01*
X28909047Y-47720476D01*
X28670952Y-47196666D02*
X28623333Y-47291904D01*
X28575714Y-47339523D01*
X28480476Y-47387142D01*
X28432857Y-47387142D01*
X28337619Y-47339523D01*
X28290000Y-47291904D01*
X28242380Y-47196666D01*
X28242380Y-47006190D01*
X28290000Y-46910952D01*
X28337619Y-46863333D01*
X28432857Y-46815714D01*
X28480476Y-46815714D01*
X28575714Y-46863333D01*
X28623333Y-46910952D01*
X28670952Y-47006190D01*
X28670952Y-47196666D01*
X28718571Y-47291904D01*
X28766190Y-47339523D01*
X28861428Y-47387142D01*
X29051904Y-47387142D01*
X29147142Y-47339523D01*
X29194761Y-47291904D01*
X29242380Y-47196666D01*
X29242380Y-47006190D01*
X29194761Y-46910952D01*
X29147142Y-46863333D01*
X29051904Y-46815714D01*
X28861428Y-46815714D01*
X28766190Y-46863333D01*
X28718571Y-46910952D01*
X28670952Y-47006190D01*
X25322380Y-53601904D02*
X24322380Y-53601904D01*
X25322380Y-53030476D02*
X24750952Y-53459047D01*
X24322380Y-53030476D02*
X24893809Y-53601904D01*
D13*
X27031904Y-50525238D02*
X26231904Y-50525238D01*
X26231904Y-50334761D01*
X26270000Y-50220476D01*
X26346190Y-50144285D01*
X26422380Y-50106190D01*
X26574761Y-50068095D01*
X26689047Y-50068095D01*
X26841428Y-50106190D01*
X26917619Y-50144285D01*
X26993809Y-50220476D01*
X27031904Y-50334761D01*
X27031904Y-50525238D01*
X27031904Y-49344285D02*
X27031904Y-49725238D01*
X26231904Y-49725238D01*
X27031904Y-48658571D02*
X27031904Y-49115714D01*
X27031904Y-48887142D02*
X26231904Y-48887142D01*
X26346190Y-48963333D01*
X26422380Y-49039523D01*
X26460476Y-49115714D01*
X27031904Y-47896666D02*
X27031904Y-48353809D01*
X27031904Y-48125238D02*
X26231904Y-48125238D01*
X26346190Y-48201428D01*
X26422380Y-48277619D01*
X26460476Y-48353809D01*
%TO.C,U1*%
D11*
X151582380Y-55093809D02*
X150582380Y-55093809D01*
X150582380Y-54712857D01*
X150630000Y-54617619D01*
X150677619Y-54570000D01*
X150772857Y-54522380D01*
X150915714Y-54522380D01*
X151010952Y-54570000D01*
X151058571Y-54617619D01*
X151106190Y-54712857D01*
X151106190Y-55093809D01*
X151582380Y-54093809D02*
X150915714Y-54093809D01*
X151106190Y-54093809D02*
X151010952Y-54046190D01*
X150963333Y-53998571D01*
X150915714Y-53903333D01*
X150915714Y-53808095D01*
X151582380Y-53331904D02*
X151534761Y-53427142D01*
X151487142Y-53474761D01*
X151391904Y-53522380D01*
X151106190Y-53522380D01*
X151010952Y-53474761D01*
X150963333Y-53427142D01*
X150915714Y-53331904D01*
X150915714Y-53189047D01*
X150963333Y-53093809D01*
X151010952Y-53046190D01*
X151106190Y-52998571D01*
X151391904Y-52998571D01*
X151487142Y-53046190D01*
X151534761Y-53093809D01*
X151582380Y-53189047D01*
X151582380Y-53331904D01*
X151582380Y-52570000D02*
X150582380Y-52570000D01*
X151296666Y-52236666D01*
X150582380Y-51903333D01*
X151582380Y-51903333D01*
X151582380Y-51427142D02*
X150915714Y-51427142D01*
X150582380Y-51427142D02*
X150630000Y-51474761D01*
X150677619Y-51427142D01*
X150630000Y-51379523D01*
X150582380Y-51427142D01*
X150677619Y-51427142D01*
X151534761Y-50522380D02*
X151582380Y-50617619D01*
X151582380Y-50808095D01*
X151534761Y-50903333D01*
X151487142Y-50950952D01*
X151391904Y-50998571D01*
X151106190Y-50998571D01*
X151010952Y-50950952D01*
X150963333Y-50903333D01*
X150915714Y-50808095D01*
X150915714Y-50617619D01*
X150963333Y-50522380D01*
X151582380Y-50093809D02*
X150915714Y-50093809D01*
X151106190Y-50093809D02*
X151010952Y-50046190D01*
X150963333Y-49998571D01*
X150915714Y-49903333D01*
X150915714Y-49808095D01*
X151582380Y-49331904D02*
X151534761Y-49427142D01*
X151487142Y-49474761D01*
X151391904Y-49522380D01*
X151106190Y-49522380D01*
X151010952Y-49474761D01*
X150963333Y-49427142D01*
X150915714Y-49331904D01*
X150915714Y-49189047D01*
X150963333Y-49093809D01*
X151010952Y-49046190D01*
X151106190Y-48998571D01*
X151391904Y-48998571D01*
X151487142Y-49046190D01*
X151534761Y-49093809D01*
X151582380Y-49189047D01*
X151582380Y-49331904D01*
%TD*%
M02*
