%TF.GenerationSoftware,KiCad,Pcbnew,(5.1.9)-1*%
%TF.CreationDate,2021-03-27T16:34:22+07:00*%
%TF.ProjectId,LetsSplit256,4c657473-5370-46c6-9974-3235362e6b69,rev?*%
%TF.SameCoordinates,Original*%
%TF.FileFunction,Copper,L1,Top*%
%TF.FilePolarity,Positive*%
%FSLAX46Y46*%
G04 Gerber Fmt 4.6, Leading zero omitted, Abs format (unit mm)*
G04 Created by KiCad (PCBNEW (5.1.9)-1) date 2021-03-27 16:34:22*
%MOMM*%
%LPD*%
G01*
G04 APERTURE LIST*
%TA.AperFunction,ComponentPad*%
%ADD10O,1.700000X1.700000*%
%TD*%
%TA.AperFunction,ComponentPad*%
%ADD11R,1.700000X1.700000*%
%TD*%
%TA.AperFunction,ComponentPad*%
%ADD12C,1.000000*%
%TD*%
%TA.AperFunction,ComponentPad*%
%ADD13O,2.500000X1.800000*%
%TD*%
%TA.AperFunction,ComponentPad*%
%ADD14C,2.500000*%
%TD*%
%TA.AperFunction,ComponentPad*%
%ADD15C,2.000000*%
%TD*%
%TA.AperFunction,ComponentPad*%
%ADD16C,4.300000*%
%TD*%
%TA.AperFunction,ComponentPad*%
%ADD17C,1.600000*%
%TD*%
%TA.AperFunction,ComponentPad*%
%ADD18R,1.600000X1.600000*%
%TD*%
%TA.AperFunction,ComponentPad*%
%ADD19O,1.600000X1.600000*%
%TD*%
%TA.AperFunction,ViaPad*%
%ADD20C,0.800000*%
%TD*%
%TA.AperFunction,Conductor*%
%ADD21C,0.250000*%
%TD*%
%TA.AperFunction,Conductor*%
%ADD22C,2.000000*%
%TD*%
G04 APERTURE END LIST*
D10*
%TO.P,JL1,4*%
%TO.N,Net-(JL1-Pad4)*%
X157480000Y-81280000D03*
%TO.P,JL1,3*%
%TO.N,Net-(JL1-Pad3)*%
X154940000Y-81280000D03*
%TO.P,JL1,2*%
%TO.N,Net-(JL1-Pad2)*%
X152400000Y-81280000D03*
D11*
%TO.P,JL1,1*%
%TO.N,Net-(JL1-Pad1)*%
X149860000Y-81280000D03*
%TD*%
D10*
%TO.P,JL2,4*%
%TO.N,N/C*%
X149860000Y-87630000D03*
%TO.P,JL2,3*%
X152400000Y-87630000D03*
%TO.P,JL2,2*%
X154940000Y-87630000D03*
D11*
%TO.P,JL2,1*%
X157480000Y-87630000D03*
%TD*%
D12*
%TO.P,KLZ1,1*%
%TO.N,Net-(DL24-Pad2)*%
X47910000Y-101870000D03*
X47910000Y-103870000D03*
X47910000Y-102870000D03*
D13*
%TO.P,KLZ1,2*%
%TO.N,Net-(KL1-Pad2)*%
X57150000Y-107746800D03*
D14*
%TO.P,KLZ1,1*%
%TO.N,Net-(DL24-Pad2)*%
X50800000Y-105410000D03*
D13*
X52070000Y-107746800D03*
D14*
%TO.P,KLZ1,2*%
%TO.N,Net-(KL1-Pad2)*%
X58420000Y-105410000D03*
D15*
%TO.P,KLZ1,1*%
%TO.N,Net-(DL24-Pad2)*%
X49530000Y-102870000D03*
%TO.P,KLZ1,2*%
%TO.N,Net-(KL1-Pad2)*%
X59690000Y-102870000D03*
D16*
%TO.P,KLZ1,0*%
%TO.N,N/C*%
X54610000Y-102870000D03*
D12*
%TO.P,KLZ1,2*%
%TO.N,Net-(KL1-Pad2)*%
X61310000Y-102870000D03*
X61310000Y-101870000D03*
X61310000Y-103870000D03*
D17*
%TO.P,KLZ1,0*%
%TO.N,N/C*%
X55880000Y-97790000D03*
X53340000Y-97790000D03*
%TD*%
D12*
%TO.P,KLX1,1*%
%TO.N,Net-(DL34-Pad2)*%
X66960000Y-96790000D03*
X66960000Y-98790000D03*
X66960000Y-97790000D03*
D13*
%TO.P,KLX1,2*%
%TO.N,Net-(KL2-Pad2)*%
X76200000Y-102666800D03*
D14*
%TO.P,KLX1,1*%
%TO.N,Net-(DL34-Pad2)*%
X69850000Y-100330000D03*
D13*
X71120000Y-102666800D03*
D14*
%TO.P,KLX1,2*%
%TO.N,Net-(KL2-Pad2)*%
X77470000Y-100330000D03*
D15*
%TO.P,KLX1,1*%
%TO.N,Net-(DL34-Pad2)*%
X68580000Y-97790000D03*
%TO.P,KLX1,2*%
%TO.N,Net-(KL2-Pad2)*%
X78740000Y-97790000D03*
D16*
%TO.P,KLX1,0*%
%TO.N,N/C*%
X73660000Y-97790000D03*
D12*
%TO.P,KLX1,2*%
%TO.N,Net-(KL2-Pad2)*%
X80360000Y-97790000D03*
X80360000Y-96790000D03*
X80360000Y-98790000D03*
D17*
%TO.P,KLX1,0*%
%TO.N,N/C*%
X74930000Y-92710000D03*
X72390000Y-92710000D03*
%TD*%
D12*
%TO.P,KLW1,1*%
%TO.N,Net-(DL32-Pad2)*%
X66960000Y-58690000D03*
X66960000Y-60690000D03*
X66960000Y-59690000D03*
D13*
%TO.P,KLW1,2*%
%TO.N,Net-(KL2-Pad2)*%
X76200000Y-64566800D03*
D14*
%TO.P,KLW1,1*%
%TO.N,Net-(DL32-Pad2)*%
X69850000Y-62230000D03*
D13*
X71120000Y-64566800D03*
D14*
%TO.P,KLW1,2*%
%TO.N,Net-(KL2-Pad2)*%
X77470000Y-62230000D03*
D15*
%TO.P,KLW1,1*%
%TO.N,Net-(DL32-Pad2)*%
X68580000Y-59690000D03*
%TO.P,KLW1,2*%
%TO.N,Net-(KL2-Pad2)*%
X78740000Y-59690000D03*
D16*
%TO.P,KLW1,0*%
%TO.N,N/C*%
X73660000Y-59690000D03*
D12*
%TO.P,KLW1,2*%
%TO.N,Net-(KL2-Pad2)*%
X80360000Y-59690000D03*
X80360000Y-58690000D03*
X80360000Y-60690000D03*
D17*
%TO.P,KLW1,0*%
%TO.N,N/C*%
X74930000Y-54610000D03*
X72390000Y-54610000D03*
%TD*%
D12*
%TO.P,KLV1,1*%
%TO.N,Net-(DL54-Pad2)*%
X105060000Y-96790000D03*
X105060000Y-98790000D03*
X105060000Y-97790000D03*
D13*
%TO.P,KLV1,2*%
%TO.N,Net-(KL4-Pad2)*%
X114300000Y-102666800D03*
D14*
%TO.P,KLV1,1*%
%TO.N,Net-(DL54-Pad2)*%
X107950000Y-100330000D03*
D13*
X109220000Y-102666800D03*
D14*
%TO.P,KLV1,2*%
%TO.N,Net-(KL4-Pad2)*%
X115570000Y-100330000D03*
D15*
%TO.P,KLV1,1*%
%TO.N,Net-(DL54-Pad2)*%
X106680000Y-97790000D03*
%TO.P,KLV1,2*%
%TO.N,Net-(KL4-Pad2)*%
X116840000Y-97790000D03*
D16*
%TO.P,KLV1,0*%
%TO.N,N/C*%
X111760000Y-97790000D03*
D12*
%TO.P,KLV1,2*%
%TO.N,Net-(KL4-Pad2)*%
X118460000Y-97790000D03*
X118460000Y-96790000D03*
X118460000Y-98790000D03*
D17*
%TO.P,KLV1,0*%
%TO.N,N/C*%
X113030000Y-92710000D03*
X110490000Y-92710000D03*
%TD*%
D12*
%TO.P,KLR1,1*%
%TO.N,Net-(DL52-Pad2)*%
X105060000Y-58690000D03*
X105060000Y-60690000D03*
X105060000Y-59690000D03*
D13*
%TO.P,KLR1,2*%
%TO.N,Net-(KL4-Pad2)*%
X114300000Y-64566800D03*
D14*
%TO.P,KLR1,1*%
%TO.N,Net-(DL52-Pad2)*%
X107950000Y-62230000D03*
D13*
X109220000Y-64566800D03*
D14*
%TO.P,KLR1,2*%
%TO.N,Net-(KL4-Pad2)*%
X115570000Y-62230000D03*
D15*
%TO.P,KLR1,1*%
%TO.N,Net-(DL52-Pad2)*%
X106680000Y-59690000D03*
%TO.P,KLR1,2*%
%TO.N,Net-(KL4-Pad2)*%
X116840000Y-59690000D03*
D16*
%TO.P,KLR1,0*%
%TO.N,N/C*%
X111760000Y-59690000D03*
D12*
%TO.P,KLR1,2*%
%TO.N,Net-(KL4-Pad2)*%
X118460000Y-59690000D03*
X118460000Y-58690000D03*
X118460000Y-60690000D03*
D17*
%TO.P,KLR1,0*%
%TO.N,N/C*%
X113030000Y-54610000D03*
X110490000Y-54610000D03*
%TD*%
D12*
%TO.P,KLQ1,1*%
%TO.N,Net-(DL22-Pad2)*%
X47910000Y-63770000D03*
X47910000Y-65770000D03*
X47910000Y-64770000D03*
D13*
%TO.P,KLQ1,2*%
%TO.N,Net-(KL1-Pad2)*%
X57150000Y-69646800D03*
D14*
%TO.P,KLQ1,1*%
%TO.N,Net-(DL22-Pad2)*%
X50800000Y-67310000D03*
D13*
X52070000Y-69646800D03*
D14*
%TO.P,KLQ1,2*%
%TO.N,Net-(KL1-Pad2)*%
X58420000Y-67310000D03*
D15*
%TO.P,KLQ1,1*%
%TO.N,Net-(DL22-Pad2)*%
X49530000Y-64770000D03*
%TO.P,KLQ1,2*%
%TO.N,Net-(KL1-Pad2)*%
X59690000Y-64770000D03*
D16*
%TO.P,KLQ1,0*%
%TO.N,N/C*%
X54610000Y-64770000D03*
D12*
%TO.P,KLQ1,2*%
%TO.N,Net-(KL1-Pad2)*%
X61310000Y-64770000D03*
X61310000Y-63770000D03*
X61310000Y-65770000D03*
D17*
%TO.P,KLQ1,0*%
%TO.N,N/C*%
X55880000Y-59690000D03*
X53340000Y-59690000D03*
%TD*%
%TO.P,KLFunc65,0*%
%TO.N,N/C*%
X148590000Y-128270000D03*
X151130000Y-128270000D03*
D12*
%TO.P,KLFunc65,2*%
%TO.N,Net-(KL5-Pad2)*%
X156560000Y-134350000D03*
X156560000Y-132350000D03*
X156560000Y-133350000D03*
D16*
%TO.P,KLFunc65,0*%
%TO.N,N/C*%
X149860000Y-133350000D03*
D15*
%TO.P,KLFunc65,2*%
%TO.N,Net-(KL5-Pad2)*%
X154940000Y-133350000D03*
%TO.P,KLFunc65,1*%
%TO.N,Net-(DL65-Pad2)*%
X144780000Y-133350000D03*
D14*
%TO.P,KLFunc65,2*%
%TO.N,Net-(KL5-Pad2)*%
X153670000Y-135890000D03*
D13*
%TO.P,KLFunc65,1*%
%TO.N,Net-(DL65-Pad2)*%
X147320000Y-138226800D03*
D14*
X146050000Y-135890000D03*
D13*
%TO.P,KLFunc65,2*%
%TO.N,Net-(KL5-Pad2)*%
X152400000Y-138226800D03*
D12*
%TO.P,KLFunc65,1*%
%TO.N,Net-(DL65-Pad2)*%
X143160000Y-133350000D03*
X143160000Y-134350000D03*
X143160000Y-132350000D03*
%TD*%
%TO.P,KLFunc55,1*%
%TO.N,Net-(DL55-Pad2)*%
X124110000Y-120920000D03*
X124110000Y-122920000D03*
X124110000Y-121920000D03*
D13*
%TO.P,KLFunc55,2*%
%TO.N,Net-(KL4-Pad2)*%
X133350000Y-126796800D03*
D14*
%TO.P,KLFunc55,1*%
%TO.N,Net-(DL55-Pad2)*%
X127000000Y-124460000D03*
D13*
X128270000Y-126796800D03*
D14*
%TO.P,KLFunc55,2*%
%TO.N,Net-(KL4-Pad2)*%
X134620000Y-124460000D03*
D15*
%TO.P,KLFunc55,1*%
%TO.N,Net-(DL55-Pad2)*%
X125730000Y-121920000D03*
%TO.P,KLFunc55,2*%
%TO.N,Net-(KL4-Pad2)*%
X135890000Y-121920000D03*
D16*
%TO.P,KLFunc55,0*%
%TO.N,N/C*%
X130810000Y-121920000D03*
D12*
%TO.P,KLFunc55,2*%
%TO.N,Net-(KL4-Pad2)*%
X137510000Y-121920000D03*
X137510000Y-120920000D03*
X137510000Y-122920000D03*
D17*
%TO.P,KLFunc55,0*%
%TO.N,N/C*%
X132080000Y-116840000D03*
X129540000Y-116840000D03*
%TD*%
D12*
%TO.P,KLFunc35,1*%
%TO.N,Net-(DL35-Pad2)*%
X86010000Y-110760000D03*
X86010000Y-112760000D03*
X86010000Y-111760000D03*
D13*
%TO.P,KLFunc35,2*%
%TO.N,Net-(KL2-Pad2)*%
X95250000Y-116636800D03*
D14*
%TO.P,KLFunc35,1*%
%TO.N,Net-(DL35-Pad2)*%
X88900000Y-114300000D03*
D13*
X90170000Y-116636800D03*
D14*
%TO.P,KLFunc35,2*%
%TO.N,Net-(KL2-Pad2)*%
X96520000Y-114300000D03*
D15*
%TO.P,KLFunc35,1*%
%TO.N,Net-(DL35-Pad2)*%
X87630000Y-111760000D03*
%TO.P,KLFunc35,2*%
%TO.N,Net-(KL2-Pad2)*%
X97790000Y-111760000D03*
D16*
%TO.P,KLFunc35,0*%
%TO.N,N/C*%
X92710000Y-111760000D03*
D12*
%TO.P,KLFunc35,2*%
%TO.N,Net-(KL2-Pad2)*%
X99410000Y-111760000D03*
X99410000Y-110760000D03*
X99410000Y-112760000D03*
D17*
%TO.P,KLFunc35,0*%
%TO.N,N/C*%
X93980000Y-106680000D03*
X91440000Y-106680000D03*
%TD*%
D12*
%TO.P,KLFunc25,1*%
%TO.N,Net-(DL25-Pad2)*%
X66960000Y-115840000D03*
X66960000Y-117840000D03*
X66960000Y-116840000D03*
D13*
%TO.P,KLFunc25,2*%
%TO.N,Net-(KL1-Pad2)*%
X76200000Y-121716800D03*
D14*
%TO.P,KLFunc25,1*%
%TO.N,Net-(DL25-Pad2)*%
X69850000Y-119380000D03*
D13*
X71120000Y-121716800D03*
D14*
%TO.P,KLFunc25,2*%
%TO.N,Net-(KL1-Pad2)*%
X77470000Y-119380000D03*
D15*
%TO.P,KLFunc25,1*%
%TO.N,Net-(DL25-Pad2)*%
X68580000Y-116840000D03*
%TO.P,KLFunc25,2*%
%TO.N,Net-(KL1-Pad2)*%
X78740000Y-116840000D03*
D16*
%TO.P,KLFunc25,0*%
%TO.N,N/C*%
X73660000Y-116840000D03*
D12*
%TO.P,KLFunc25,2*%
%TO.N,Net-(KL1-Pad2)*%
X80360000Y-116840000D03*
X80360000Y-115840000D03*
X80360000Y-117840000D03*
D17*
%TO.P,KLFunc25,0*%
%TO.N,N/C*%
X74930000Y-111760000D03*
X72390000Y-111760000D03*
%TD*%
D12*
%TO.P,KLFunc15,1*%
%TO.N,Net-(DL15-Pad2)*%
X47910000Y-120920000D03*
X47910000Y-122920000D03*
X47910000Y-121920000D03*
D13*
%TO.P,KLFunc15,2*%
%TO.N,Net-(KLFunc11-Pad2)*%
X57150000Y-126796800D03*
D14*
%TO.P,KLFunc15,1*%
%TO.N,Net-(DL15-Pad2)*%
X50800000Y-124460000D03*
D13*
X52070000Y-126796800D03*
D14*
%TO.P,KLFunc15,2*%
%TO.N,Net-(KLFunc11-Pad2)*%
X58420000Y-124460000D03*
D15*
%TO.P,KLFunc15,1*%
%TO.N,Net-(DL15-Pad2)*%
X49530000Y-121920000D03*
%TO.P,KLFunc15,2*%
%TO.N,Net-(KLFunc11-Pad2)*%
X59690000Y-121920000D03*
D16*
%TO.P,KLFunc15,0*%
%TO.N,N/C*%
X54610000Y-121920000D03*
D12*
%TO.P,KLFunc15,2*%
%TO.N,Net-(KLFunc11-Pad2)*%
X61310000Y-121920000D03*
X61310000Y-120920000D03*
X61310000Y-122920000D03*
D17*
%TO.P,KLFunc15,0*%
%TO.N,N/C*%
X55880000Y-116840000D03*
X53340000Y-116840000D03*
%TD*%
D12*
%TO.P,KLFunc14,1*%
%TO.N,Net-(DL14-Pad2)*%
X28860000Y-101870000D03*
X28860000Y-103870000D03*
X28860000Y-102870000D03*
D13*
%TO.P,KLFunc14,2*%
%TO.N,Net-(KLFunc11-Pad2)*%
X38100000Y-107746800D03*
D14*
%TO.P,KLFunc14,1*%
%TO.N,Net-(DL14-Pad2)*%
X31750000Y-105410000D03*
D13*
X33020000Y-107746800D03*
D14*
%TO.P,KLFunc14,2*%
%TO.N,Net-(KLFunc11-Pad2)*%
X39370000Y-105410000D03*
D15*
%TO.P,KLFunc14,1*%
%TO.N,Net-(DL14-Pad2)*%
X30480000Y-102870000D03*
%TO.P,KLFunc14,2*%
%TO.N,Net-(KLFunc11-Pad2)*%
X40640000Y-102870000D03*
D16*
%TO.P,KLFunc14,0*%
%TO.N,N/C*%
X35560000Y-102870000D03*
D12*
%TO.P,KLFunc14,2*%
%TO.N,Net-(KLFunc11-Pad2)*%
X42260000Y-102870000D03*
X42260000Y-101870000D03*
X42260000Y-103870000D03*
D17*
%TO.P,KLFunc14,0*%
%TO.N,N/C*%
X36830000Y-97790000D03*
X34290000Y-97790000D03*
%TD*%
D12*
%TO.P,KLFunc13,1*%
%TO.N,Net-(DL13-Pad2)*%
X28860000Y-82820000D03*
X28860000Y-84820000D03*
X28860000Y-83820000D03*
D13*
%TO.P,KLFunc13,2*%
%TO.N,Net-(KLFunc11-Pad2)*%
X38100000Y-88696800D03*
D14*
%TO.P,KLFunc13,1*%
%TO.N,Net-(DL13-Pad2)*%
X31750000Y-86360000D03*
D13*
X33020000Y-88696800D03*
D14*
%TO.P,KLFunc13,2*%
%TO.N,Net-(KLFunc11-Pad2)*%
X39370000Y-86360000D03*
D15*
%TO.P,KLFunc13,1*%
%TO.N,Net-(DL13-Pad2)*%
X30480000Y-83820000D03*
%TO.P,KLFunc13,2*%
%TO.N,Net-(KLFunc11-Pad2)*%
X40640000Y-83820000D03*
D16*
%TO.P,KLFunc13,0*%
%TO.N,N/C*%
X35560000Y-83820000D03*
D12*
%TO.P,KLFunc13,2*%
%TO.N,Net-(KLFunc11-Pad2)*%
X42260000Y-83820000D03*
X42260000Y-82820000D03*
X42260000Y-84820000D03*
D17*
%TO.P,KLFunc13,0*%
%TO.N,N/C*%
X36830000Y-78740000D03*
X34290000Y-78740000D03*
%TD*%
D12*
%TO.P,KLFunc12,1*%
%TO.N,Net-(DL12-Pad2)*%
X28860000Y-63770000D03*
X28860000Y-65770000D03*
X28860000Y-64770000D03*
D13*
%TO.P,KLFunc12,2*%
%TO.N,Net-(KLFunc11-Pad2)*%
X38100000Y-69646800D03*
D14*
%TO.P,KLFunc12,1*%
%TO.N,Net-(DL12-Pad2)*%
X31750000Y-67310000D03*
D13*
X33020000Y-69646800D03*
D14*
%TO.P,KLFunc12,2*%
%TO.N,Net-(KLFunc11-Pad2)*%
X39370000Y-67310000D03*
D15*
%TO.P,KLFunc12,1*%
%TO.N,Net-(DL12-Pad2)*%
X30480000Y-64770000D03*
%TO.P,KLFunc12,2*%
%TO.N,Net-(KLFunc11-Pad2)*%
X40640000Y-64770000D03*
D16*
%TO.P,KLFunc12,0*%
%TO.N,N/C*%
X35560000Y-64770000D03*
D12*
%TO.P,KLFunc12,2*%
%TO.N,Net-(KLFunc11-Pad2)*%
X42260000Y-64770000D03*
X42260000Y-63770000D03*
X42260000Y-65770000D03*
D17*
%TO.P,KLFunc12,0*%
%TO.N,N/C*%
X36830000Y-59690000D03*
X34290000Y-59690000D03*
%TD*%
D12*
%TO.P,KLFunc11,1*%
%TO.N,Net-(DL11-Pad2)*%
X28860000Y-44720000D03*
X28860000Y-46720000D03*
X28860000Y-45720000D03*
D13*
%TO.P,KLFunc11,2*%
%TO.N,Net-(KLFunc11-Pad2)*%
X38100000Y-50596800D03*
D14*
%TO.P,KLFunc11,1*%
%TO.N,Net-(DL11-Pad2)*%
X31750000Y-48260000D03*
D13*
X33020000Y-50596800D03*
D14*
%TO.P,KLFunc11,2*%
%TO.N,Net-(KLFunc11-Pad2)*%
X39370000Y-48260000D03*
D15*
%TO.P,KLFunc11,1*%
%TO.N,Net-(DL11-Pad2)*%
X30480000Y-45720000D03*
%TO.P,KLFunc11,2*%
%TO.N,Net-(KLFunc11-Pad2)*%
X40640000Y-45720000D03*
D16*
%TO.P,KLFunc11,0*%
%TO.N,N/C*%
X35560000Y-45720000D03*
D12*
%TO.P,KLFunc11,2*%
%TO.N,Net-(KLFunc11-Pad2)*%
X42260000Y-45720000D03*
X42260000Y-44720000D03*
X42260000Y-46720000D03*
D17*
%TO.P,KLFunc11,0*%
%TO.N,N/C*%
X36830000Y-40640000D03*
X34290000Y-40640000D03*
%TD*%
D12*
%TO.P,KLF1,1*%
%TO.N,Net-(DL53-Pad2)*%
X105060000Y-77740000D03*
X105060000Y-79740000D03*
X105060000Y-78740000D03*
D13*
%TO.P,KLF1,2*%
%TO.N,Net-(KL4-Pad2)*%
X114300000Y-83616800D03*
D14*
%TO.P,KLF1,1*%
%TO.N,Net-(DL53-Pad2)*%
X107950000Y-81280000D03*
D13*
X109220000Y-83616800D03*
D14*
%TO.P,KLF1,2*%
%TO.N,Net-(KL4-Pad2)*%
X115570000Y-81280000D03*
D15*
%TO.P,KLF1,1*%
%TO.N,Net-(DL53-Pad2)*%
X106680000Y-78740000D03*
%TO.P,KLF1,2*%
%TO.N,Net-(KL4-Pad2)*%
X116840000Y-78740000D03*
D16*
%TO.P,KLF1,0*%
%TO.N,N/C*%
X111760000Y-78740000D03*
D12*
%TO.P,KLF1,2*%
%TO.N,Net-(KL4-Pad2)*%
X118460000Y-78740000D03*
X118460000Y-77740000D03*
X118460000Y-79740000D03*
D17*
%TO.P,KLF1,0*%
%TO.N,N/C*%
X113030000Y-73660000D03*
X110490000Y-73660000D03*
%TD*%
D12*
%TO.P,KLE1,1*%
%TO.N,Net-(DL42-Pad2)*%
X86010000Y-53610000D03*
X86010000Y-55610000D03*
X86010000Y-54610000D03*
D13*
%TO.P,KLE1,2*%
%TO.N,Net-(KL3-Pad2)*%
X95250000Y-59486800D03*
D14*
%TO.P,KLE1,1*%
%TO.N,Net-(DL42-Pad2)*%
X88900000Y-57150000D03*
D13*
X90170000Y-59486800D03*
D14*
%TO.P,KLE1,2*%
%TO.N,Net-(KL3-Pad2)*%
X96520000Y-57150000D03*
D15*
%TO.P,KLE1,1*%
%TO.N,Net-(DL42-Pad2)*%
X87630000Y-54610000D03*
%TO.P,KLE1,2*%
%TO.N,Net-(KL3-Pad2)*%
X97790000Y-54610000D03*
D16*
%TO.P,KLE1,0*%
%TO.N,N/C*%
X92710000Y-54610000D03*
D12*
%TO.P,KLE1,2*%
%TO.N,Net-(KL3-Pad2)*%
X99410000Y-54610000D03*
X99410000Y-53610000D03*
X99410000Y-55610000D03*
D17*
%TO.P,KLE1,0*%
%TO.N,N/C*%
X93980000Y-49530000D03*
X91440000Y-49530000D03*
%TD*%
D12*
%TO.P,KLD1,1*%
%TO.N,Net-(DL43-Pad2)*%
X86010000Y-72660000D03*
X86010000Y-74660000D03*
X86010000Y-73660000D03*
D13*
%TO.P,KLD1,2*%
%TO.N,Net-(KL3-Pad2)*%
X95250000Y-78536800D03*
D14*
%TO.P,KLD1,1*%
%TO.N,Net-(DL43-Pad2)*%
X88900000Y-76200000D03*
D13*
X90170000Y-78536800D03*
D14*
%TO.P,KLD1,2*%
%TO.N,Net-(KL3-Pad2)*%
X96520000Y-76200000D03*
D15*
%TO.P,KLD1,1*%
%TO.N,Net-(DL43-Pad2)*%
X87630000Y-73660000D03*
%TO.P,KLD1,2*%
%TO.N,Net-(KL3-Pad2)*%
X97790000Y-73660000D03*
D16*
%TO.P,KLD1,0*%
%TO.N,N/C*%
X92710000Y-73660000D03*
D12*
%TO.P,KLD1,2*%
%TO.N,Net-(KL3-Pad2)*%
X99410000Y-73660000D03*
X99410000Y-72660000D03*
X99410000Y-74660000D03*
D17*
%TO.P,KLD1,0*%
%TO.N,N/C*%
X93980000Y-68580000D03*
X91440000Y-68580000D03*
%TD*%
D12*
%TO.P,KLC1,1*%
%TO.N,Net-(DL44-Pad2)*%
X86010000Y-91710000D03*
X86010000Y-93710000D03*
X86010000Y-92710000D03*
D13*
%TO.P,KLC1,2*%
%TO.N,Net-(KL3-Pad2)*%
X95250000Y-97586800D03*
D14*
%TO.P,KLC1,1*%
%TO.N,Net-(DL44-Pad2)*%
X88900000Y-95250000D03*
D13*
X90170000Y-97586800D03*
D14*
%TO.P,KLC1,2*%
%TO.N,Net-(KL3-Pad2)*%
X96520000Y-95250000D03*
D15*
%TO.P,KLC1,1*%
%TO.N,Net-(DL44-Pad2)*%
X87630000Y-92710000D03*
%TO.P,KLC1,2*%
%TO.N,Net-(KL3-Pad2)*%
X97790000Y-92710000D03*
D16*
%TO.P,KLC1,0*%
%TO.N,N/C*%
X92710000Y-92710000D03*
D12*
%TO.P,KLC1,2*%
%TO.N,Net-(KL3-Pad2)*%
X99410000Y-92710000D03*
X99410000Y-91710000D03*
X99410000Y-93710000D03*
D17*
%TO.P,KLC1,0*%
%TO.N,N/C*%
X93980000Y-87630000D03*
X91440000Y-87630000D03*
%TD*%
D12*
%TO.P,KLB1,1*%
%TO.N,Net-(DL64-Pad2)*%
X124110000Y-101870000D03*
X124110000Y-103870000D03*
X124110000Y-102870000D03*
D13*
%TO.P,KLB1,2*%
%TO.N,Net-(KL5-Pad2)*%
X133350000Y-107746800D03*
D14*
%TO.P,KLB1,1*%
%TO.N,Net-(DL64-Pad2)*%
X127000000Y-105410000D03*
D13*
X128270000Y-107746800D03*
D14*
%TO.P,KLB1,2*%
%TO.N,Net-(KL5-Pad2)*%
X134620000Y-105410000D03*
D15*
%TO.P,KLB1,1*%
%TO.N,Net-(DL64-Pad2)*%
X125730000Y-102870000D03*
%TO.P,KLB1,2*%
%TO.N,Net-(KL5-Pad2)*%
X135890000Y-102870000D03*
D16*
%TO.P,KLB1,0*%
%TO.N,N/C*%
X130810000Y-102870000D03*
D12*
%TO.P,KLB1,2*%
%TO.N,Net-(KL5-Pad2)*%
X137510000Y-102870000D03*
X137510000Y-101870000D03*
X137510000Y-103870000D03*
D17*
%TO.P,KLB1,0*%
%TO.N,N/C*%
X132080000Y-97790000D03*
X129540000Y-97790000D03*
%TD*%
D12*
%TO.P,KLA1,1*%
%TO.N,Net-(DL23-Pad2)*%
X47910000Y-82820000D03*
X47910000Y-84820000D03*
X47910000Y-83820000D03*
D13*
%TO.P,KLA1,2*%
%TO.N,Net-(KL1-Pad2)*%
X57150000Y-88696800D03*
D14*
%TO.P,KLA1,1*%
%TO.N,Net-(DL23-Pad2)*%
X50800000Y-86360000D03*
D13*
X52070000Y-88696800D03*
D14*
%TO.P,KLA1,2*%
%TO.N,Net-(KL1-Pad2)*%
X58420000Y-86360000D03*
D15*
%TO.P,KLA1,1*%
%TO.N,Net-(DL23-Pad2)*%
X49530000Y-83820000D03*
%TO.P,KLA1,2*%
%TO.N,Net-(KL1-Pad2)*%
X59690000Y-83820000D03*
D16*
%TO.P,KLA1,0*%
%TO.N,N/C*%
X54610000Y-83820000D03*
D12*
%TO.P,KLA1,2*%
%TO.N,Net-(KL1-Pad2)*%
X61310000Y-83820000D03*
X61310000Y-82820000D03*
X61310000Y-84820000D03*
D17*
%TO.P,KLA1,0*%
%TO.N,N/C*%
X55880000Y-78740000D03*
X53340000Y-78740000D03*
%TD*%
D12*
%TO.P,KL4,1*%
%TO.N,Net-(DL51-Pad2)*%
X105060000Y-39640000D03*
X105060000Y-41640000D03*
X105060000Y-40640000D03*
D13*
%TO.P,KL4,2*%
%TO.N,Net-(KL4-Pad2)*%
X114300000Y-45516800D03*
D14*
%TO.P,KL4,1*%
%TO.N,Net-(DL51-Pad2)*%
X107950000Y-43180000D03*
D13*
X109220000Y-45516800D03*
D14*
%TO.P,KL4,2*%
%TO.N,Net-(KL4-Pad2)*%
X115570000Y-43180000D03*
D15*
%TO.P,KL4,1*%
%TO.N,Net-(DL51-Pad2)*%
X106680000Y-40640000D03*
%TO.P,KL4,2*%
%TO.N,Net-(KL4-Pad2)*%
X116840000Y-40640000D03*
D16*
%TO.P,KL4,0*%
%TO.N,N/C*%
X111760000Y-40640000D03*
D12*
%TO.P,KL4,2*%
%TO.N,Net-(KL4-Pad2)*%
X118460000Y-40640000D03*
X118460000Y-39640000D03*
X118460000Y-41640000D03*
D17*
%TO.P,KL4,0*%
%TO.N,N/C*%
X113030000Y-35560000D03*
X110490000Y-35560000D03*
%TD*%
D12*
%TO.P,KL3,1*%
%TO.N,Net-(DL41-Pad2)*%
X86010000Y-34560000D03*
X86010000Y-36560000D03*
X86010000Y-35560000D03*
D13*
%TO.P,KL3,2*%
%TO.N,Net-(KL3-Pad2)*%
X95250000Y-40436800D03*
D14*
%TO.P,KL3,1*%
%TO.N,Net-(DL41-Pad2)*%
X88900000Y-38100000D03*
D13*
X90170000Y-40436800D03*
D14*
%TO.P,KL3,2*%
%TO.N,Net-(KL3-Pad2)*%
X96520000Y-38100000D03*
D15*
%TO.P,KL3,1*%
%TO.N,Net-(DL41-Pad2)*%
X87630000Y-35560000D03*
%TO.P,KL3,2*%
%TO.N,Net-(KL3-Pad2)*%
X97790000Y-35560000D03*
D16*
%TO.P,KL3,0*%
%TO.N,N/C*%
X92710000Y-35560000D03*
D12*
%TO.P,KL3,2*%
%TO.N,Net-(KL3-Pad2)*%
X99410000Y-35560000D03*
X99410000Y-34560000D03*
X99410000Y-36560000D03*
D17*
%TO.P,KL3,0*%
%TO.N,N/C*%
X93980000Y-30480000D03*
X91440000Y-30480000D03*
%TD*%
D12*
%TO.P,KL2,1*%
%TO.N,Net-(DL31-Pad2)*%
X66960000Y-39640000D03*
X66960000Y-41640000D03*
X66960000Y-40640000D03*
D13*
%TO.P,KL2,2*%
%TO.N,Net-(KL2-Pad2)*%
X76200000Y-45516800D03*
D14*
%TO.P,KL2,1*%
%TO.N,Net-(DL31-Pad2)*%
X69850000Y-43180000D03*
D13*
X71120000Y-45516800D03*
D14*
%TO.P,KL2,2*%
%TO.N,Net-(KL2-Pad2)*%
X77470000Y-43180000D03*
D15*
%TO.P,KL2,1*%
%TO.N,Net-(DL31-Pad2)*%
X68580000Y-40640000D03*
%TO.P,KL2,2*%
%TO.N,Net-(KL2-Pad2)*%
X78740000Y-40640000D03*
D16*
%TO.P,KL2,0*%
%TO.N,N/C*%
X73660000Y-40640000D03*
D12*
%TO.P,KL2,2*%
%TO.N,Net-(KL2-Pad2)*%
X80360000Y-40640000D03*
X80360000Y-39640000D03*
X80360000Y-41640000D03*
D17*
%TO.P,KL2,0*%
%TO.N,N/C*%
X74930000Y-35560000D03*
X72390000Y-35560000D03*
%TD*%
D12*
%TO.P,KL1,1*%
%TO.N,Net-(DL21-Pad2)*%
X47910000Y-44720000D03*
X47910000Y-46720000D03*
X47910000Y-45720000D03*
D13*
%TO.P,KL1,2*%
%TO.N,Net-(KL1-Pad2)*%
X57150000Y-50596800D03*
D14*
%TO.P,KL1,1*%
%TO.N,Net-(DL21-Pad2)*%
X50800000Y-48260000D03*
D13*
X52070000Y-50596800D03*
D14*
%TO.P,KL1,2*%
%TO.N,Net-(KL1-Pad2)*%
X58420000Y-48260000D03*
D15*
%TO.P,KL1,1*%
%TO.N,Net-(DL21-Pad2)*%
X49530000Y-45720000D03*
%TO.P,KL1,2*%
%TO.N,Net-(KL1-Pad2)*%
X59690000Y-45720000D03*
D16*
%TO.P,KL1,0*%
%TO.N,N/C*%
X54610000Y-45720000D03*
D12*
%TO.P,KL1,2*%
%TO.N,Net-(KL1-Pad2)*%
X61310000Y-45720000D03*
X61310000Y-44720000D03*
X61310000Y-46720000D03*
D17*
%TO.P,KL1,0*%
%TO.N,N/C*%
X55880000Y-40640000D03*
X53340000Y-40640000D03*
%TD*%
D12*
%TO.P,KLS1,1*%
%TO.N,Net-(DL33-Pad2)*%
X66960000Y-77740000D03*
X66960000Y-79740000D03*
X66960000Y-78740000D03*
D13*
%TO.P,KLS1,2*%
%TO.N,Net-(KL2-Pad2)*%
X76200000Y-83616800D03*
D14*
%TO.P,KLS1,1*%
%TO.N,Net-(DL33-Pad2)*%
X69850000Y-81280000D03*
D13*
X71120000Y-83616800D03*
D14*
%TO.P,KLS1,2*%
%TO.N,Net-(KL2-Pad2)*%
X77470000Y-81280000D03*
D15*
%TO.P,KLS1,1*%
%TO.N,Net-(DL33-Pad2)*%
X68580000Y-78740000D03*
%TO.P,KLS1,2*%
%TO.N,Net-(KL2-Pad2)*%
X78740000Y-78740000D03*
D16*
%TO.P,KLS1,0*%
%TO.N,N/C*%
X73660000Y-78740000D03*
D12*
%TO.P,KLS1,2*%
%TO.N,Net-(KL2-Pad2)*%
X80360000Y-78740000D03*
X80360000Y-77740000D03*
X80360000Y-79740000D03*
D17*
%TO.P,KLS1,0*%
%TO.N,N/C*%
X74930000Y-73660000D03*
X72390000Y-73660000D03*
%TD*%
D12*
%TO.P,KLFunc45,1*%
%TO.N,Net-(DL45-Pad2)*%
X105060000Y-115840000D03*
X105060000Y-117840000D03*
X105060000Y-116840000D03*
D13*
%TO.P,KLFunc45,2*%
%TO.N,Net-(KL3-Pad2)*%
X114300000Y-121716800D03*
D14*
%TO.P,KLFunc45,1*%
%TO.N,Net-(DL45-Pad2)*%
X107950000Y-119380000D03*
D13*
X109220000Y-121716800D03*
D14*
%TO.P,KLFunc45,2*%
%TO.N,Net-(KL3-Pad2)*%
X115570000Y-119380000D03*
D15*
%TO.P,KLFunc45,1*%
%TO.N,Net-(DL45-Pad2)*%
X106680000Y-116840000D03*
%TO.P,KLFunc45,2*%
%TO.N,Net-(KL3-Pad2)*%
X116840000Y-116840000D03*
D16*
%TO.P,KLFunc45,0*%
%TO.N,N/C*%
X111760000Y-116840000D03*
D12*
%TO.P,KLFunc45,2*%
%TO.N,Net-(KL3-Pad2)*%
X118460000Y-116840000D03*
X118460000Y-115840000D03*
X118460000Y-117840000D03*
D17*
%TO.P,KLFunc45,0*%
%TO.N,N/C*%
X113030000Y-111760000D03*
X110490000Y-111760000D03*
%TD*%
D12*
%TO.P,KLT1,1*%
%TO.N,Net-(DL62-Pad2)*%
X124110000Y-63770000D03*
X124110000Y-65770000D03*
X124110000Y-64770000D03*
D13*
%TO.P,KLT1,2*%
%TO.N,Net-(KL5-Pad2)*%
X133350000Y-69646800D03*
D14*
%TO.P,KLT1,1*%
%TO.N,Net-(DL62-Pad2)*%
X127000000Y-67310000D03*
D13*
X128270000Y-69646800D03*
D14*
%TO.P,KLT1,2*%
%TO.N,Net-(KL5-Pad2)*%
X134620000Y-67310000D03*
D15*
%TO.P,KLT1,1*%
%TO.N,Net-(DL62-Pad2)*%
X125730000Y-64770000D03*
%TO.P,KLT1,2*%
%TO.N,Net-(KL5-Pad2)*%
X135890000Y-64770000D03*
D16*
%TO.P,KLT1,0*%
%TO.N,N/C*%
X130810000Y-64770000D03*
D12*
%TO.P,KLT1,2*%
%TO.N,Net-(KL5-Pad2)*%
X137510000Y-64770000D03*
X137510000Y-63770000D03*
X137510000Y-65770000D03*
D17*
%TO.P,KLT1,0*%
%TO.N,N/C*%
X132080000Y-59690000D03*
X129540000Y-59690000D03*
%TD*%
D12*
%TO.P,KL5,1*%
%TO.N,Net-(DL61-Pad2)*%
X124110000Y-44720000D03*
X124110000Y-46720000D03*
X124110000Y-45720000D03*
D13*
%TO.P,KL5,2*%
%TO.N,Net-(KL5-Pad2)*%
X133350000Y-50596800D03*
D14*
%TO.P,KL5,1*%
%TO.N,Net-(DL61-Pad2)*%
X127000000Y-48260000D03*
D13*
X128270000Y-50596800D03*
D14*
%TO.P,KL5,2*%
%TO.N,Net-(KL5-Pad2)*%
X134620000Y-48260000D03*
D15*
%TO.P,KL5,1*%
%TO.N,Net-(DL61-Pad2)*%
X125730000Y-45720000D03*
%TO.P,KL5,2*%
%TO.N,Net-(KL5-Pad2)*%
X135890000Y-45720000D03*
D16*
%TO.P,KL5,0*%
%TO.N,N/C*%
X130810000Y-45720000D03*
D12*
%TO.P,KL5,2*%
%TO.N,Net-(KL5-Pad2)*%
X137510000Y-45720000D03*
X137510000Y-44720000D03*
X137510000Y-46720000D03*
D17*
%TO.P,KL5,0*%
%TO.N,N/C*%
X132080000Y-40640000D03*
X129540000Y-40640000D03*
%TD*%
D12*
%TO.P,KLG1,1*%
%TO.N,Net-(DL63-Pad2)*%
X124110000Y-82820000D03*
X124110000Y-84820000D03*
X124110000Y-83820000D03*
D13*
%TO.P,KLG1,2*%
%TO.N,Net-(KL5-Pad2)*%
X133350000Y-88696800D03*
D14*
%TO.P,KLG1,1*%
%TO.N,Net-(DL63-Pad2)*%
X127000000Y-86360000D03*
D13*
X128270000Y-88696800D03*
D14*
%TO.P,KLG1,2*%
%TO.N,Net-(KL5-Pad2)*%
X134620000Y-86360000D03*
D15*
%TO.P,KLG1,1*%
%TO.N,Net-(DL63-Pad2)*%
X125730000Y-83820000D03*
%TO.P,KLG1,2*%
%TO.N,Net-(KL5-Pad2)*%
X135890000Y-83820000D03*
D16*
%TO.P,KLG1,0*%
%TO.N,N/C*%
X130810000Y-83820000D03*
D12*
%TO.P,KLG1,2*%
%TO.N,Net-(KL5-Pad2)*%
X137510000Y-83820000D03*
X137510000Y-82820000D03*
X137510000Y-84820000D03*
D17*
%TO.P,KLG1,0*%
%TO.N,N/C*%
X132080000Y-78740000D03*
X129540000Y-78740000D03*
%TD*%
D18*
%TO.P,DL65,1*%
%TO.N,Net-(DL15-Pad1)*%
X140970000Y-140970000D03*
D19*
%TO.P,DL65,2*%
%TO.N,Net-(DL65-Pad2)*%
X140970000Y-133350000D03*
%TD*%
%TO.P,DL64,2*%
%TO.N,Net-(DL64-Pad2)*%
X121920000Y-102870000D03*
D18*
%TO.P,DL64,1*%
%TO.N,Net-(DL14-Pad1)*%
X121920000Y-110490000D03*
%TD*%
%TO.P,DL63,1*%
%TO.N,Net-(DL13-Pad1)*%
X121920000Y-91440000D03*
D19*
%TO.P,DL63,2*%
%TO.N,Net-(DL63-Pad2)*%
X121920000Y-83820000D03*
%TD*%
D18*
%TO.P,DL62,1*%
%TO.N,Net-(DL12-Pad1)*%
X121920000Y-72390000D03*
D19*
%TO.P,DL62,2*%
%TO.N,Net-(DL62-Pad2)*%
X121920000Y-64770000D03*
%TD*%
D18*
%TO.P,DL61,1*%
%TO.N,Net-(DL11-Pad1)*%
X121920000Y-53340000D03*
D19*
%TO.P,DL61,2*%
%TO.N,Net-(DL61-Pad2)*%
X121920000Y-45720000D03*
%TD*%
%TO.P,DL55,2*%
%TO.N,Net-(DL55-Pad2)*%
X121920000Y-121920000D03*
D18*
%TO.P,DL55,1*%
%TO.N,Net-(DL15-Pad1)*%
X121920000Y-129540000D03*
%TD*%
%TO.P,DL54,1*%
%TO.N,Net-(DL14-Pad1)*%
X102870000Y-105410000D03*
D19*
%TO.P,DL54,2*%
%TO.N,Net-(DL54-Pad2)*%
X102870000Y-97790000D03*
%TD*%
%TO.P,DL53,2*%
%TO.N,Net-(DL53-Pad2)*%
X102870000Y-78740000D03*
D18*
%TO.P,DL53,1*%
%TO.N,Net-(DL13-Pad1)*%
X102870000Y-86360000D03*
%TD*%
D19*
%TO.P,DL52,2*%
%TO.N,Net-(DL52-Pad2)*%
X102870000Y-59690000D03*
D18*
%TO.P,DL52,1*%
%TO.N,Net-(DL12-Pad1)*%
X102870000Y-67310000D03*
%TD*%
D19*
%TO.P,DL51,2*%
%TO.N,Net-(DL51-Pad2)*%
X102870000Y-40640000D03*
D18*
%TO.P,DL51,1*%
%TO.N,Net-(DL11-Pad1)*%
X102870000Y-48260000D03*
%TD*%
%TO.P,DL45,1*%
%TO.N,Net-(DL15-Pad1)*%
X102870000Y-124460000D03*
D19*
%TO.P,DL45,2*%
%TO.N,Net-(DL45-Pad2)*%
X102870000Y-116840000D03*
%TD*%
%TO.P,DL44,2*%
%TO.N,Net-(DL44-Pad2)*%
X83820000Y-92710000D03*
D18*
%TO.P,DL44,1*%
%TO.N,Net-(DL14-Pad1)*%
X83820000Y-100330000D03*
%TD*%
%TO.P,DL43,1*%
%TO.N,Net-(DL13-Pad1)*%
X83820000Y-81280000D03*
D19*
%TO.P,DL43,2*%
%TO.N,Net-(DL43-Pad2)*%
X83820000Y-73660000D03*
%TD*%
D18*
%TO.P,DL42,1*%
%TO.N,Net-(DL12-Pad1)*%
X83820000Y-62230000D03*
D19*
%TO.P,DL42,2*%
%TO.N,Net-(DL42-Pad2)*%
X83820000Y-54610000D03*
%TD*%
D18*
%TO.P,DL41,1*%
%TO.N,Net-(DL11-Pad1)*%
X83820000Y-43180000D03*
D19*
%TO.P,DL41,2*%
%TO.N,Net-(DL41-Pad2)*%
X83820000Y-35560000D03*
%TD*%
%TO.P,DL35,2*%
%TO.N,Net-(DL35-Pad2)*%
X83820000Y-111760000D03*
D18*
%TO.P,DL35,1*%
%TO.N,Net-(DL15-Pad1)*%
X83820000Y-119380000D03*
%TD*%
%TO.P,DL34,1*%
%TO.N,Net-(DL14-Pad1)*%
X64770000Y-105410000D03*
D19*
%TO.P,DL34,2*%
%TO.N,Net-(DL34-Pad2)*%
X64770000Y-97790000D03*
%TD*%
%TO.P,DL33,2*%
%TO.N,Net-(DL33-Pad2)*%
X64770000Y-78740000D03*
D18*
%TO.P,DL33,1*%
%TO.N,Net-(DL13-Pad1)*%
X64770000Y-86360000D03*
%TD*%
D19*
%TO.P,DL32,2*%
%TO.N,Net-(DL32-Pad2)*%
X64770000Y-59690000D03*
D18*
%TO.P,DL32,1*%
%TO.N,Net-(DL12-Pad1)*%
X64770000Y-67310000D03*
%TD*%
D19*
%TO.P,DL31,2*%
%TO.N,Net-(DL31-Pad2)*%
X64770000Y-40640000D03*
D18*
%TO.P,DL31,1*%
%TO.N,Net-(DL11-Pad1)*%
X64770000Y-48260000D03*
%TD*%
%TO.P,DL25,1*%
%TO.N,Net-(DL15-Pad1)*%
X64770000Y-124460000D03*
D19*
%TO.P,DL25,2*%
%TO.N,Net-(DL25-Pad2)*%
X64770000Y-116840000D03*
%TD*%
%TO.P,DL24,2*%
%TO.N,Net-(DL24-Pad2)*%
X45720000Y-102870000D03*
D18*
%TO.P,DL24,1*%
%TO.N,Net-(DL14-Pad1)*%
X45720000Y-110490000D03*
%TD*%
%TO.P,DL23,1*%
%TO.N,Net-(DL13-Pad1)*%
X45720000Y-91440000D03*
D19*
%TO.P,DL23,2*%
%TO.N,Net-(DL23-Pad2)*%
X45720000Y-83820000D03*
%TD*%
%TO.P,DL22,2*%
%TO.N,Net-(DL22-Pad2)*%
X45720000Y-64770000D03*
D18*
%TO.P,DL22,1*%
%TO.N,Net-(DL12-Pad1)*%
X45720000Y-72390000D03*
%TD*%
%TO.P,DL21,1*%
%TO.N,Net-(DL11-Pad1)*%
X45720000Y-53340000D03*
D19*
%TO.P,DL21,2*%
%TO.N,Net-(DL21-Pad2)*%
X45720000Y-45720000D03*
%TD*%
%TO.P,DL15,2*%
%TO.N,Net-(DL15-Pad2)*%
X45720000Y-121920000D03*
D18*
%TO.P,DL15,1*%
%TO.N,Net-(DL15-Pad1)*%
X45720000Y-129540000D03*
%TD*%
D19*
%TO.P,DL14,2*%
%TO.N,Net-(DL14-Pad2)*%
X26670000Y-102870000D03*
D18*
%TO.P,DL14,1*%
%TO.N,Net-(DL14-Pad1)*%
X26670000Y-110490000D03*
%TD*%
%TO.P,DL13,1*%
%TO.N,Net-(DL13-Pad1)*%
X26670000Y-91440000D03*
D19*
%TO.P,DL13,2*%
%TO.N,Net-(DL13-Pad2)*%
X26670000Y-83820000D03*
%TD*%
D18*
%TO.P,DL12,1*%
%TO.N,Net-(DL12-Pad1)*%
X26670000Y-72390000D03*
D19*
%TO.P,DL12,2*%
%TO.N,Net-(DL12-Pad2)*%
X26670000Y-64770000D03*
%TD*%
%TO.P,DL11,2*%
%TO.N,Net-(DL11-Pad2)*%
X26670000Y-45720000D03*
D18*
%TO.P,DL11,1*%
%TO.N,Net-(DL11-Pad1)*%
X26670000Y-53340000D03*
%TD*%
D17*
%TO.P,U1,24*%
%TO.N,Net-(U1-Pad24)*%
X158750000Y-38100000D03*
%TO.P,U1,23*%
%TO.N,Net-(JL1-Pad1)*%
X158750000Y-40640000D03*
%TO.P,U1,22*%
%TO.N,Net-(U1-Pad22)*%
X158750000Y-43180000D03*
%TO.P,U1,21*%
%TO.N,Net-(JL1-Pad3)*%
X158750000Y-45720000D03*
%TO.P,U1,20*%
%TO.N,Net-(JL1-Pad4)*%
X158750000Y-48260000D03*
%TO.P,U1,19*%
%TO.N,Net-(U1-Pad19)*%
X158750000Y-50800000D03*
%TO.P,U1,18*%
%TO.N,Net-(KLFunc11-Pad2)*%
X158750000Y-53340000D03*
%TO.P,U1,17*%
%TO.N,Net-(KL1-Pad2)*%
X158750000Y-55880000D03*
%TO.P,U1,16*%
%TO.N,Net-(KL2-Pad2)*%
X158750000Y-58420000D03*
%TO.P,U1,15*%
%TO.N,Net-(KL3-Pad2)*%
X158750000Y-60960000D03*
%TO.P,U1,14*%
%TO.N,Net-(KL4-Pad2)*%
X158750000Y-63500000D03*
%TO.P,U1,13*%
%TO.N,Net-(KL5-Pad2)*%
X158750000Y-66040000D03*
%TO.P,U1,12*%
%TO.N,Net-(DL15-Pad1)*%
X143510000Y-66040000D03*
%TO.P,U1,11*%
%TO.N,Net-(DL14-Pad1)*%
X143510000Y-63500000D03*
%TO.P,U1,10*%
%TO.N,Net-(DL13-Pad1)*%
X143510000Y-60960000D03*
%TO.P,U1,9*%
%TO.N,Net-(DL12-Pad1)*%
X143510000Y-58420000D03*
%TO.P,U1,8*%
%TO.N,Net-(DL11-Pad1)*%
X143510000Y-55880000D03*
%TO.P,U1,7*%
%TO.N,Net-(U1-Pad7)*%
X143510000Y-53340000D03*
%TO.P,U1,6*%
%TO.N,Net-(U1-Pad6)*%
X143510000Y-50800000D03*
%TO.P,U1,5*%
%TO.N,Net-(U1-Pad5)*%
X143510000Y-48260000D03*
%TO.P,U1,4*%
%TO.N,Net-(U1-Pad4)*%
X143510000Y-45720000D03*
%TO.P,U1,3*%
%TO.N,Net-(U1-Pad3)*%
X143510000Y-43180000D03*
%TO.P,U1,2*%
%TO.N,Net-(U1-Pad2)*%
X143510000Y-40640000D03*
D18*
%TO.P,U1,1*%
%TO.N,Net-(U1-Pad1)*%
X143510000Y-38100000D03*
%TD*%
D20*
%TO.N,Net-(DL13-Pad1)*%
X139700000Y-90170000D03*
%TO.N,Net-(DL14-Pad1)*%
X140970000Y-109220000D03*
%TO.N,Net-(KL4-Pad2)*%
X124460000Y-114300000D03*
%TO.N,Net-(KL5-Pad2)*%
X139700000Y-115570000D03*
%TD*%
D21*
%TO.N,Net-(DL11-Pad2)*%
X26670000Y-45720000D02*
X28860000Y-45720000D01*
X28860000Y-45720000D02*
X30480000Y-45720000D01*
X28860000Y-44720000D02*
X28860000Y-46720000D01*
%TO.N,Net-(DL12-Pad2)*%
X26670000Y-64770000D02*
X28860000Y-64770000D01*
X30480000Y-64770000D02*
X28860000Y-64770000D01*
X28860000Y-63770000D02*
X28860000Y-65770000D01*
%TO.N,Net-(DL13-Pad1)*%
X143510000Y-60960000D02*
X139700000Y-64770000D01*
X139700000Y-64770000D02*
X139700000Y-90170000D01*
X139700000Y-90170000D02*
X139700000Y-90170000D01*
%TO.N,Net-(DL13-Pad2)*%
X26670000Y-83820000D02*
X28860000Y-83820000D01*
X30480000Y-83820000D02*
X28860000Y-83820000D01*
X28860000Y-82820000D02*
X28860000Y-84820000D01*
%TO.N,Net-(DL14-Pad2)*%
X28860000Y-101870000D02*
X28860000Y-103870000D01*
X26670000Y-102870000D02*
X30480000Y-102870000D01*
%TO.N,Net-(DL14-Pad1)*%
X143510000Y-63500000D02*
X141695001Y-65314999D01*
X140970000Y-66040000D02*
X143510000Y-63500000D01*
X140970000Y-109220000D02*
X140970000Y-66040000D01*
%TO.N,Net-(DL15-Pad2)*%
X45720000Y-121920000D02*
X47910000Y-121920000D01*
X47910000Y-121920000D02*
X49530000Y-121920000D01*
X47910000Y-120920000D02*
X47910000Y-122920000D01*
%TO.N,Net-(DL15-Pad1)*%
X137755699Y-129540000D02*
X121920000Y-129540000D01*
X143510000Y-66040000D02*
X142240000Y-67310000D01*
X142240000Y-67310000D02*
X142240000Y-125055700D01*
X140970000Y-140970000D02*
X139700000Y-140970000D01*
X138727849Y-139997849D02*
X138727849Y-128567849D01*
X139700000Y-140970000D02*
X138727849Y-139997849D01*
X138727849Y-128567849D02*
X137755699Y-129540000D01*
X142240000Y-125055700D02*
X138727849Y-128567849D01*
%TO.N,Net-(DL21-Pad2)*%
X45720000Y-45720000D02*
X47910000Y-45720000D01*
X49530000Y-45720000D02*
X47910000Y-45720000D01*
X47910000Y-44720000D02*
X47910000Y-45720000D01*
X47910000Y-46720000D02*
X47910000Y-45720000D01*
%TO.N,Net-(DL22-Pad2)*%
X45720000Y-64770000D02*
X49530000Y-64770000D01*
X47910000Y-63770000D02*
X47910000Y-65770000D01*
%TO.N,Net-(DL23-Pad2)*%
X47910000Y-82820000D02*
X47910000Y-84820000D01*
X45720000Y-83820000D02*
X49530000Y-83820000D01*
%TO.N,Net-(DL24-Pad2)*%
X45720000Y-102870000D02*
X47910000Y-102870000D01*
X47910000Y-101870000D02*
X47910000Y-103870000D01*
X49530000Y-102870000D02*
X47910000Y-102870000D01*
%TO.N,Net-(DL25-Pad2)*%
X66960000Y-116840000D02*
X68580000Y-116840000D01*
X64770000Y-116840000D02*
X66960000Y-116840000D01*
X66960000Y-115840000D02*
X66960000Y-117840000D01*
%TO.N,Net-(DL31-Pad2)*%
X64770000Y-40640000D02*
X66960000Y-40640000D01*
X68580000Y-40640000D02*
X66960000Y-40640000D01*
X66960000Y-39640000D02*
X66960000Y-41640000D01*
%TO.N,Net-(DL32-Pad2)*%
X64770000Y-59690000D02*
X68580000Y-59690000D01*
X66960000Y-58690000D02*
X66960000Y-60690000D01*
%TO.N,Net-(DL33-Pad2)*%
X64770000Y-78740000D02*
X68580000Y-78740000D01*
X66960000Y-77740000D02*
X66960000Y-79660000D01*
X66960000Y-79660000D02*
X66960000Y-79740000D01*
%TO.N,Net-(DL34-Pad2)*%
X64770000Y-97790000D02*
X66960000Y-97790000D01*
X68580000Y-97790000D02*
X66960000Y-97790000D01*
X66960000Y-96790000D02*
X66960000Y-98790000D01*
%TO.N,Net-(DL35-Pad2)*%
X83615001Y-111760000D02*
X86010000Y-111760000D01*
X86010000Y-110760000D02*
X86010000Y-112760000D01*
X86010000Y-111760000D02*
X87630000Y-111760000D01*
%TO.N,Net-(DL41-Pad2)*%
X83820000Y-35560000D02*
X86010000Y-35560000D01*
X86010000Y-35560000D02*
X87630000Y-35560000D01*
X86010000Y-34560000D02*
X86010000Y-36560000D01*
%TO.N,Net-(DL42-Pad2)*%
X83820000Y-54610000D02*
X87630000Y-54610000D01*
X86010000Y-53610000D02*
X86010000Y-55610000D01*
%TO.N,Net-(DL43-Pad2)*%
X83820000Y-73660000D02*
X87630000Y-73660000D01*
X86010000Y-72660000D02*
X86010000Y-74660000D01*
%TO.N,Net-(DL44-Pad2)*%
X83820000Y-92710000D02*
X86010000Y-92710000D01*
X86010000Y-92710000D02*
X86010000Y-93630000D01*
X86010000Y-93630000D02*
X86010000Y-91710000D01*
X86010000Y-92710000D02*
X87630000Y-92710000D01*
%TO.N,Net-(DL45-Pad2)*%
X102870000Y-116840000D02*
X105060000Y-116840000D01*
X105060000Y-115840000D02*
X105060000Y-117840000D01*
X106680000Y-116840000D02*
X105060000Y-116840000D01*
%TO.N,Net-(DL51-Pad2)*%
X102870000Y-40640000D02*
X105060000Y-40640000D01*
X102870000Y-40640000D02*
X106680000Y-40640000D01*
X105060000Y-39640000D02*
X105060000Y-41640000D01*
%TO.N,Net-(DL52-Pad2)*%
X102870000Y-59690000D02*
X106680000Y-59690000D01*
X105060000Y-58690000D02*
X105060000Y-60690000D01*
%TO.N,Net-(DL53-Pad2)*%
X102870000Y-78740000D02*
X106680000Y-78740000D01*
X105060000Y-77740000D02*
X105060000Y-79740000D01*
%TO.N,Net-(DL54-Pad2)*%
X102870000Y-97790000D02*
X105060000Y-97790000D01*
X102870000Y-97790000D02*
X106680000Y-97790000D01*
X105060000Y-96790000D02*
X105060000Y-98790000D01*
%TO.N,Net-(DL55-Pad2)*%
X121920000Y-121920000D02*
X125730000Y-121920000D01*
X124110000Y-120920000D02*
X124110000Y-122920000D01*
%TO.N,Net-(DL61-Pad2)*%
X121920000Y-45720000D02*
X124110000Y-45720000D01*
X121920000Y-45720000D02*
X125730000Y-45720000D01*
X124110000Y-44720000D02*
X124110000Y-46720000D01*
%TO.N,Net-(DL62-Pad2)*%
X121920000Y-64770000D02*
X125730000Y-64770000D01*
X124110000Y-63770000D02*
X124110000Y-65770000D01*
%TO.N,Net-(DL63-Pad2)*%
X121920000Y-83820000D02*
X125730000Y-83820000D01*
X124110000Y-82820000D02*
X124110000Y-84820000D01*
%TO.N,Net-(DL64-Pad2)*%
X121920000Y-102870000D02*
X124110000Y-102870000D01*
X121920000Y-102870000D02*
X125730000Y-102870000D01*
X124110000Y-101870000D02*
X124110000Y-102870000D01*
X124110000Y-103870000D02*
X124110000Y-102870000D01*
%TO.N,Net-(DL65-Pad2)*%
X144780000Y-133350000D02*
X143160000Y-133350000D01*
X143160000Y-132350000D02*
X143160000Y-134350000D01*
X140970000Y-133350000D02*
X143160000Y-133350000D01*
%TO.N,Net-(JL1-Pad1)*%
X149860000Y-49530000D02*
X149860000Y-81280000D01*
X158750000Y-40640000D02*
X149860000Y-49530000D01*
%TO.N,Net-(JL1-Pad3)*%
X154940000Y-49530000D02*
X158750000Y-45720000D01*
X154940000Y-81280000D02*
X154940000Y-49530000D01*
%TO.N,Net-(JL1-Pad4)*%
X156210000Y-80010000D02*
X157480000Y-81280000D01*
X156210000Y-50800000D02*
X156210000Y-80010000D01*
X158750000Y-48260000D02*
X156210000Y-50800000D01*
%TO.N,Net-(KL1-Pad2)*%
X61310000Y-45720000D02*
X59690000Y-45720000D01*
X61310000Y-44720000D02*
X61310000Y-46720000D01*
X61310000Y-63770000D02*
X61310000Y-65770000D01*
X59690000Y-64770000D02*
X61310000Y-64770000D01*
X61310000Y-82820000D02*
X61310000Y-84820000D01*
X59690000Y-83820000D02*
X61310000Y-83820000D01*
X59690000Y-102870000D02*
X61310000Y-102870000D01*
X61310000Y-101870000D02*
X61310000Y-103870000D01*
D22*
X58420000Y-46990000D02*
X58420000Y-48260000D01*
X59690000Y-45720000D02*
X58420000Y-46990000D01*
X58420000Y-49326800D02*
X57150000Y-50596800D01*
X58420000Y-48260000D02*
X58420000Y-49326800D01*
X58420000Y-66040000D02*
X58420000Y-67310000D01*
X59690000Y-64770000D02*
X58420000Y-66040000D01*
X58420000Y-68376800D02*
X57150000Y-69646800D01*
X58420000Y-67310000D02*
X58420000Y-68376800D01*
X58420000Y-85090000D02*
X58420000Y-86360000D01*
X59690000Y-83820000D02*
X58420000Y-85090000D01*
X58420000Y-87426800D02*
X57150000Y-88696800D01*
X58420000Y-86360000D02*
X58420000Y-87426800D01*
X58420000Y-104140000D02*
X58420000Y-105410000D01*
X59690000Y-102870000D02*
X58420000Y-104140000D01*
X58420000Y-106476800D02*
X57150000Y-107746800D01*
X58420000Y-105410000D02*
X58420000Y-106476800D01*
D21*
X61375699Y-63770000D02*
X61310000Y-63770000D01*
X62010010Y-63135689D02*
X61375699Y-63770000D01*
X61375699Y-46720000D02*
X62010010Y-47354311D01*
X62010010Y-47354311D02*
X62010010Y-63135689D01*
X61310000Y-46720000D02*
X61375699Y-46720000D01*
X61375699Y-82820000D02*
X61310000Y-82820000D01*
X62010010Y-82185689D02*
X61375699Y-82820000D01*
X62010010Y-66404311D02*
X62010010Y-82185689D01*
X61375699Y-65770000D02*
X62010010Y-66404311D01*
X61310000Y-65770000D02*
X61375699Y-65770000D01*
X61375699Y-101870000D02*
X61310000Y-101870000D01*
X62010010Y-101235689D02*
X61375699Y-101870000D01*
X62010010Y-85454311D02*
X62010010Y-101235689D01*
X61375699Y-84820000D02*
X62010010Y-85454311D01*
X61310000Y-84820000D02*
X61375699Y-84820000D01*
X61310000Y-103870000D02*
X61375699Y-103870000D01*
X80360000Y-115840000D02*
X80360000Y-117840000D01*
X78740000Y-116840000D02*
X80360000Y-116840000D01*
D22*
X77470000Y-118110000D02*
X77470000Y-119380000D01*
X78740000Y-116840000D02*
X77470000Y-118110000D01*
X77470000Y-120446800D02*
X76200000Y-121716800D01*
X77470000Y-119380000D02*
X77470000Y-120446800D01*
D21*
X80360000Y-115840000D02*
X80425699Y-115840000D01*
X61310000Y-103870000D02*
X61960000Y-103870000D01*
X61960000Y-103870000D02*
X62230000Y-104140000D01*
X62230000Y-104140000D02*
X62230000Y-107950000D01*
X62230000Y-107950000D02*
X63500000Y-109220000D01*
X63500000Y-109220000D02*
X81280000Y-109220000D01*
X81067106Y-115840000D02*
X80360000Y-115840000D01*
X81280000Y-115627106D02*
X81067106Y-115840000D01*
X81280000Y-109220000D02*
X81280000Y-115627106D01*
%TO.N,Net-(KL2-Pad2)*%
X80360000Y-39640000D02*
X80360000Y-41640000D01*
X78740000Y-40640000D02*
X80360000Y-40640000D01*
X78740000Y-59690000D02*
X80360000Y-59690000D01*
X80360000Y-58690000D02*
X80360000Y-60690000D01*
X80360000Y-77740000D02*
X80360000Y-79740000D01*
X78740000Y-78740000D02*
X80360000Y-78740000D01*
X78740000Y-97790000D02*
X80360000Y-97790000D01*
X80360000Y-96790000D02*
X80360000Y-98790000D01*
D22*
X77470000Y-41910000D02*
X77470000Y-43180000D01*
X78740000Y-40640000D02*
X77470000Y-41910000D01*
X77470000Y-44246800D02*
X76200000Y-45516800D01*
X77470000Y-43180000D02*
X77470000Y-44246800D01*
X77470000Y-60960000D02*
X77470000Y-62230000D01*
X78740000Y-59690000D02*
X77470000Y-60960000D01*
X77470000Y-63296800D02*
X76200000Y-64566800D01*
X77470000Y-62230000D02*
X77470000Y-63296800D01*
X77470000Y-80010000D02*
X77470000Y-81280000D01*
X78740000Y-78740000D02*
X77470000Y-80010000D01*
X77470000Y-82346800D02*
X76200000Y-83616800D01*
X77470000Y-81280000D02*
X77470000Y-82346800D01*
X77470000Y-99060000D02*
X77470000Y-100330000D01*
X78740000Y-97790000D02*
X77470000Y-99060000D01*
X77470000Y-101396800D02*
X76200000Y-102666800D01*
X77470000Y-100330000D02*
X77470000Y-101396800D01*
D21*
X80425699Y-79740000D02*
X80360000Y-79740000D01*
X81060010Y-80374311D02*
X80425699Y-79740000D01*
X81060010Y-96155689D02*
X81060010Y-80374311D01*
X80425699Y-96790000D02*
X81060010Y-96155689D01*
X80360000Y-96790000D02*
X80425699Y-96790000D01*
X80425699Y-60690000D02*
X80360000Y-60690000D01*
X81060010Y-77105689D02*
X81060010Y-61324311D01*
X81060010Y-61324311D02*
X80425699Y-60690000D01*
X80425699Y-77740000D02*
X81060010Y-77105689D01*
X80360000Y-77740000D02*
X80425699Y-77740000D01*
X80425699Y-41640000D02*
X80360000Y-41640000D01*
X81060010Y-42274311D02*
X80425699Y-41640000D01*
X81060010Y-58055689D02*
X81060010Y-42274311D01*
X80425699Y-58690000D02*
X81060010Y-58055689D01*
X80360000Y-58690000D02*
X80425699Y-58690000D01*
X97790000Y-111760000D02*
X99410000Y-111760000D01*
X99410000Y-110760000D02*
X99410000Y-112760000D01*
D22*
X96520000Y-113030000D02*
X96520000Y-114300000D01*
X97790000Y-111760000D02*
X96520000Y-113030000D01*
X96520000Y-115366800D02*
X95250000Y-116636800D01*
X96520000Y-114300000D02*
X96520000Y-115366800D01*
D21*
X99475699Y-110760000D02*
X99410000Y-110760000D01*
X80425699Y-98790000D02*
X80360000Y-98790000D01*
X81060010Y-99424311D02*
X80425699Y-98790000D01*
X81060010Y-101380010D02*
X81060010Y-99424311D01*
X82550000Y-102870000D02*
X81060010Y-101380010D01*
X99060000Y-102870000D02*
X82550000Y-102870000D01*
X100330000Y-104140000D02*
X99060000Y-102870000D01*
X100330000Y-110547106D02*
X100330000Y-104140000D01*
X100117106Y-110760000D02*
X100330000Y-110547106D01*
X99410000Y-110760000D02*
X100117106Y-110760000D01*
%TO.N,Net-(KL3-Pad2)*%
X97790000Y-54610000D02*
X99410000Y-54610000D01*
X99410000Y-53610000D02*
X99410000Y-55610000D01*
X97790000Y-73660000D02*
X99410000Y-73660000D01*
X99410000Y-72660000D02*
X99410000Y-74660000D01*
X99410000Y-91710000D02*
X99410000Y-93630000D01*
X98490000Y-92710000D02*
X97790000Y-92710000D01*
X99410000Y-93630000D02*
X98490000Y-92710000D01*
X97790000Y-35560000D02*
X99410000Y-35560000D01*
X99410000Y-34560000D02*
X99410000Y-36560000D01*
D22*
X95250000Y-96520000D02*
X96520000Y-95250000D01*
X95250000Y-97586800D02*
X95250000Y-96520000D01*
X96520000Y-93980000D02*
X97790000Y-92710000D01*
X96520000Y-95250000D02*
X96520000Y-93980000D01*
X96520000Y-74930000D02*
X96520000Y-76200000D01*
X97790000Y-73660000D02*
X96520000Y-74930000D01*
X96520000Y-77266800D02*
X95250000Y-78536800D01*
X96520000Y-76200000D02*
X96520000Y-77266800D01*
X96520000Y-55880000D02*
X96520000Y-57150000D01*
X97790000Y-54610000D02*
X96520000Y-55880000D01*
X96520000Y-58216800D02*
X95250000Y-59486800D01*
X96520000Y-57150000D02*
X96520000Y-58216800D01*
X96520000Y-36830000D02*
X96520000Y-38100000D01*
X97790000Y-35560000D02*
X96520000Y-36830000D01*
X96520000Y-39166800D02*
X95250000Y-40436800D01*
X96520000Y-38100000D02*
X96520000Y-39166800D01*
D21*
X99475699Y-53610000D02*
X99410000Y-53610000D01*
X100110010Y-52975689D02*
X99475699Y-53610000D01*
X100110010Y-37194311D02*
X100110010Y-52975689D01*
X99475699Y-36560000D02*
X100110010Y-37194311D01*
X99410000Y-36560000D02*
X99475699Y-36560000D01*
X99475699Y-72660000D02*
X99410000Y-72660000D01*
X100110010Y-72025689D02*
X99475699Y-72660000D01*
X100110010Y-56244311D02*
X100110010Y-72025689D01*
X99475699Y-55610000D02*
X100110010Y-56244311D01*
X99410000Y-55610000D02*
X99475699Y-55610000D01*
X99475699Y-91710000D02*
X99410000Y-91710000D01*
X100110010Y-91075689D02*
X99475699Y-91710000D01*
X100110010Y-75294311D02*
X100110010Y-91075689D01*
X99475699Y-74660000D02*
X100110010Y-75294311D01*
X99410000Y-74660000D02*
X99475699Y-74660000D01*
X99475699Y-93710000D02*
X100110010Y-94344311D01*
X116840000Y-116840000D02*
X118460000Y-116840000D01*
X118460000Y-115840000D02*
X118460000Y-117840000D01*
D22*
X115570000Y-118110000D02*
X115570000Y-119380000D01*
X116840000Y-116840000D02*
X115570000Y-118110000D01*
X115570000Y-120446800D02*
X114300000Y-121716800D01*
X115570000Y-119380000D02*
X115570000Y-120446800D01*
D21*
X119167106Y-115840000D02*
X119380000Y-115627106D01*
X118460000Y-115840000D02*
X119167106Y-115840000D01*
X119380000Y-115627106D02*
X119380000Y-109220000D01*
X99475699Y-93710000D02*
X99410000Y-93710000D01*
X101600000Y-95834301D02*
X99475699Y-93710000D01*
X102870000Y-109220000D02*
X101600000Y-107950000D01*
X119380000Y-109220000D02*
X102870000Y-109220000D01*
X101600000Y-95834301D02*
X101600000Y-107950000D01*
%TO.N,Net-(KL4-Pad2)*%
X116840000Y-40640000D02*
X118460000Y-40640000D01*
X118460000Y-39640000D02*
X118460000Y-41640000D01*
X118460000Y-58690000D02*
X118460000Y-60690000D01*
X116840000Y-59690000D02*
X118460000Y-59690000D01*
X118460000Y-77740000D02*
X118460000Y-79740000D01*
X116840000Y-78740000D02*
X118460000Y-78740000D01*
X116840000Y-97790000D02*
X118460000Y-97790000D01*
X118460000Y-96790000D02*
X118460000Y-98790000D01*
D22*
X115570000Y-41910000D02*
X115570000Y-43180000D01*
X116840000Y-40640000D02*
X115570000Y-41910000D01*
X115570000Y-44246800D02*
X114300000Y-45516800D01*
X115570000Y-43180000D02*
X115570000Y-44246800D01*
X115570000Y-60960000D02*
X115570000Y-62230000D01*
X116840000Y-59690000D02*
X115570000Y-60960000D01*
X115570000Y-63296800D02*
X114300000Y-64566800D01*
X115570000Y-62230000D02*
X115570000Y-63296800D01*
X115570000Y-80010000D02*
X115570000Y-81280000D01*
X116840000Y-78740000D02*
X115570000Y-80010000D01*
X115570000Y-82346800D02*
X114300000Y-83616800D01*
X115570000Y-81280000D02*
X115570000Y-82346800D01*
X115570000Y-99060000D02*
X115570000Y-100330000D01*
X116840000Y-97790000D02*
X115570000Y-99060000D01*
X115570000Y-101396800D02*
X114300000Y-102666800D01*
X115570000Y-100330000D02*
X115570000Y-101396800D01*
D21*
X119160010Y-58989990D02*
X118460000Y-59690000D01*
X119160010Y-41340010D02*
X119160010Y-58989990D01*
X118460000Y-40640000D02*
X119160010Y-41340010D01*
X119160010Y-78039990D02*
X118460000Y-78740000D01*
X119160010Y-60390010D02*
X119160010Y-78039990D01*
X118460000Y-59690000D02*
X119160010Y-60390010D01*
X119160010Y-97089990D02*
X118460000Y-97790000D01*
X119160010Y-79440010D02*
X119160010Y-97089990D01*
X118460000Y-78740000D02*
X119160010Y-79440010D01*
D22*
X134620000Y-125526800D02*
X133350000Y-126796800D01*
X134620000Y-124460000D02*
X134620000Y-125526800D01*
X135890000Y-121920000D02*
X134620000Y-123190000D01*
X134620000Y-123190000D02*
X134620000Y-124460000D01*
D21*
X137510000Y-120920000D02*
X137510000Y-122920000D01*
X135890000Y-121920000D02*
X137510000Y-121920000D01*
X137575699Y-120920000D02*
X137510000Y-120920000D01*
X119167106Y-98790000D02*
X119380000Y-99002894D01*
X119167106Y-98790000D02*
X118460000Y-98790000D01*
X120650000Y-100272894D02*
X119167106Y-98790000D01*
X120650000Y-113030000D02*
X120650000Y-100272894D01*
X121920000Y-114300000D02*
X120650000Y-113030000D01*
X121920000Y-114300000D02*
X124460000Y-114300000D01*
%TO.N,Net-(KL5-Pad2)*%
X137510000Y-101870000D02*
X137510000Y-103870000D01*
X135890000Y-102870000D02*
X137510000Y-102870000D01*
X137510000Y-83820000D02*
X137510000Y-84820000D01*
X137510000Y-82820000D02*
X137510000Y-84820000D01*
X135890000Y-83820000D02*
X137510000Y-83820000D01*
X137510000Y-44720000D02*
X137510000Y-46720000D01*
X135890000Y-45720000D02*
X137510000Y-45720000D01*
X137510000Y-63770000D02*
X137510000Y-65770000D01*
X135890000Y-64770000D02*
X137510000Y-64770000D01*
D22*
X134620000Y-104140000D02*
X134620000Y-105410000D01*
X135890000Y-102870000D02*
X134620000Y-104140000D01*
X134620000Y-106476800D02*
X133350000Y-107746800D01*
X134620000Y-105410000D02*
X134620000Y-106476800D01*
X134620000Y-85090000D02*
X134620000Y-86360000D01*
X135890000Y-83820000D02*
X134620000Y-85090000D01*
X134620000Y-87426800D02*
X133350000Y-88696800D01*
X134620000Y-86360000D02*
X134620000Y-87426800D01*
X134620000Y-66040000D02*
X134620000Y-67310000D01*
X135890000Y-64770000D02*
X134620000Y-66040000D01*
X134620000Y-68376800D02*
X133350000Y-69646800D01*
X134620000Y-67310000D02*
X134620000Y-68376800D01*
X134620000Y-46990000D02*
X134620000Y-48260000D01*
X135890000Y-45720000D02*
X134620000Y-46990000D01*
X134620000Y-49326800D02*
X133350000Y-50596800D01*
X134620000Y-48260000D02*
X134620000Y-49326800D01*
D21*
X137575699Y-63770000D02*
X137510000Y-63770000D01*
X138210010Y-63135689D02*
X137575699Y-63770000D01*
X138210010Y-47354311D02*
X138210010Y-63135689D01*
X137575699Y-46720000D02*
X138210010Y-47354311D01*
X137510000Y-46720000D02*
X137575699Y-46720000D01*
X138210010Y-82185689D02*
X137575699Y-82820000D01*
X137575699Y-82820000D02*
X137510000Y-82820000D01*
X138210010Y-66404311D02*
X138210010Y-82185689D01*
X137575699Y-65770000D02*
X138210010Y-66404311D01*
X137510000Y-65770000D02*
X137575699Y-65770000D01*
X137575699Y-103870000D02*
X137510000Y-103870000D01*
X138210010Y-85454311D02*
X137575699Y-84820000D01*
X138210010Y-101235689D02*
X138210010Y-85454311D01*
X137575699Y-84820000D02*
X137510000Y-84820000D01*
X137575699Y-101870000D02*
X138210010Y-101235689D01*
X137510000Y-101870000D02*
X137575699Y-101870000D01*
X154940000Y-133350000D02*
X156560000Y-133350000D01*
X156560000Y-132350000D02*
X156560000Y-134350000D01*
D22*
X153670000Y-134620000D02*
X153670000Y-135890000D01*
X154940000Y-133350000D02*
X153670000Y-134620000D01*
X153670000Y-136956800D02*
X152400000Y-138226800D01*
X153670000Y-135890000D02*
X153670000Y-136956800D01*
D21*
X138217106Y-103870000D02*
X137510000Y-103870000D01*
X139700000Y-105352894D02*
X138217106Y-103870000D01*
X139700000Y-115570000D02*
X139700000Y-105352894D01*
%TO.N,Net-(KLFunc11-Pad2)*%
X61310000Y-120920000D02*
X61310000Y-122920000D01*
X59690000Y-121920000D02*
X61310000Y-121920000D01*
D22*
X58420000Y-123190000D02*
X58420000Y-124460000D01*
X59690000Y-121920000D02*
X58420000Y-123190000D01*
X58420000Y-125526800D02*
X57150000Y-126796800D01*
X58420000Y-124460000D02*
X58420000Y-125526800D01*
D21*
X61375699Y-120920000D02*
X61310000Y-120920000D01*
X40640000Y-45720000D02*
X42260000Y-45720000D01*
X40640000Y-83820000D02*
X42260000Y-83820000D01*
X40640000Y-64770000D02*
X42260000Y-64770000D01*
X42260000Y-63770000D02*
X42260000Y-65770000D01*
X42260000Y-82820000D02*
X42260000Y-84820000D01*
X42260000Y-101870000D02*
X42260000Y-103870000D01*
X40640000Y-102870000D02*
X42260000Y-102870000D01*
X42260000Y-44720000D02*
X42260000Y-46720000D01*
D22*
X39370000Y-46990000D02*
X39370000Y-48260000D01*
X40640000Y-45720000D02*
X39370000Y-46990000D01*
X39370000Y-49326800D02*
X38100000Y-50596800D01*
X39370000Y-48260000D02*
X39370000Y-49326800D01*
X39370000Y-66040000D02*
X39370000Y-67310000D01*
X40640000Y-64770000D02*
X39370000Y-66040000D01*
X39370000Y-68376800D02*
X38100000Y-69646800D01*
X39370000Y-67310000D02*
X39370000Y-68376800D01*
X39370000Y-85090000D02*
X39370000Y-86360000D01*
X40640000Y-83820000D02*
X39370000Y-85090000D01*
X39370000Y-87426800D02*
X38100000Y-88696800D01*
X39370000Y-86360000D02*
X39370000Y-87426800D01*
X39370000Y-104140000D02*
X39370000Y-105410000D01*
X40640000Y-102870000D02*
X39370000Y-104140000D01*
X39370000Y-106476800D02*
X38100000Y-107746800D01*
X39370000Y-105410000D02*
X39370000Y-106476800D01*
D21*
X42325699Y-63770000D02*
X42260000Y-63770000D01*
X42325699Y-46720000D02*
X42960010Y-47354311D01*
X42260000Y-46720000D02*
X42325699Y-46720000D01*
X42325699Y-82820000D02*
X42260000Y-82820000D01*
X42960010Y-82185689D02*
X42325699Y-82820000D01*
X42960010Y-66404311D02*
X42960010Y-82185689D01*
X42325699Y-65770000D02*
X42960010Y-66404311D01*
X42260000Y-65770000D02*
X42325699Y-65770000D01*
X42325699Y-101870000D02*
X42260000Y-101870000D01*
X42960010Y-101235689D02*
X42325699Y-101870000D01*
X42960010Y-85454311D02*
X42960010Y-101235689D01*
X42325699Y-84820000D02*
X42960010Y-85454311D01*
X42260000Y-84820000D02*
X42325699Y-84820000D01*
X42960010Y-63135689D02*
X42325699Y-63770000D01*
X42960010Y-47354311D02*
X42960010Y-63135689D01*
X42325699Y-103870000D02*
X42260000Y-103870000D01*
X43180000Y-104724301D02*
X42325699Y-103870000D01*
X43180000Y-111760000D02*
X43180000Y-104724301D01*
X44450000Y-113030000D02*
X43180000Y-111760000D01*
X60960000Y-113030000D02*
X44450000Y-113030000D01*
X62230000Y-114300000D02*
X60960000Y-113030000D01*
X62017106Y-120920000D02*
X62230000Y-120707106D01*
X62230000Y-120707106D02*
X62230000Y-114300000D01*
X61310000Y-120920000D02*
X62017106Y-120920000D01*
%TD*%
M02*
