%TF.GenerationSoftware,KiCad,Pcbnew,(5.1.9)-1*%
%TF.CreationDate,2021-03-27T16:34:22+07:00*%
%TF.ProjectId,LetsSplit256,4c657473-5370-46c6-9974-3235362e6b69,rev?*%
%TF.SameCoordinates,Original*%
%TF.FileFunction,Legend,Top*%
%TF.FilePolarity,Positive*%
%FSLAX46Y46*%
G04 Gerber Fmt 4.6, Leading zero omitted, Abs format (unit mm)*
G04 Created by KiCad (PCBNEW (5.1.9)-1) date 2021-03-27 16:34:22*
%MOMM*%
%LPD*%
G01*
G04 APERTURE LIST*
%ADD10C,0.120000*%
%ADD11C,0.150000*%
G04 APERTURE END LIST*
D10*
%TO.C,JL1*%
X158810000Y-82610000D02*
X158810000Y-79950000D01*
X151130000Y-82610000D02*
X158810000Y-82610000D01*
X151130000Y-79950000D02*
X158810000Y-79950000D01*
X151130000Y-82610000D02*
X151130000Y-79950000D01*
X149860000Y-82610000D02*
X148530000Y-82610000D01*
X148530000Y-82610000D02*
X148530000Y-81280000D01*
%TO.C,JL2*%
X148530000Y-86300000D02*
X148530000Y-88960000D01*
X156210000Y-86300000D02*
X148530000Y-86300000D01*
X156210000Y-88960000D02*
X148530000Y-88960000D01*
X156210000Y-86300000D02*
X156210000Y-88960000D01*
X157480000Y-86300000D02*
X158810000Y-86300000D01*
X158810000Y-86300000D02*
X158810000Y-87630000D01*
%TO.C,DL65*%
X139850000Y-138680000D02*
X142090000Y-138680000D01*
X139850000Y-138440000D02*
X142090000Y-138440000D01*
X139850000Y-138560000D02*
X142090000Y-138560000D01*
X140970000Y-134390000D02*
X140970000Y-135040000D01*
X140970000Y-139930000D02*
X140970000Y-139280000D01*
X139850000Y-135040000D02*
X139850000Y-139280000D01*
X142090000Y-135040000D02*
X139850000Y-135040000D01*
X142090000Y-139280000D02*
X142090000Y-135040000D01*
X139850000Y-139280000D02*
X142090000Y-139280000D01*
%TO.C,DL64*%
X120800000Y-108800000D02*
X123040000Y-108800000D01*
X123040000Y-108800000D02*
X123040000Y-104560000D01*
X123040000Y-104560000D02*
X120800000Y-104560000D01*
X120800000Y-104560000D02*
X120800000Y-108800000D01*
X121920000Y-109450000D02*
X121920000Y-108800000D01*
X121920000Y-103910000D02*
X121920000Y-104560000D01*
X120800000Y-108080000D02*
X123040000Y-108080000D01*
X120800000Y-107960000D02*
X123040000Y-107960000D01*
X120800000Y-108200000D02*
X123040000Y-108200000D01*
%TO.C,DL63*%
X120800000Y-89150000D02*
X123040000Y-89150000D01*
X120800000Y-88910000D02*
X123040000Y-88910000D01*
X120800000Y-89030000D02*
X123040000Y-89030000D01*
X121920000Y-84860000D02*
X121920000Y-85510000D01*
X121920000Y-90400000D02*
X121920000Y-89750000D01*
X120800000Y-85510000D02*
X120800000Y-89750000D01*
X123040000Y-85510000D02*
X120800000Y-85510000D01*
X123040000Y-89750000D02*
X123040000Y-85510000D01*
X120800000Y-89750000D02*
X123040000Y-89750000D01*
%TO.C,DL62*%
X120800000Y-70100000D02*
X123040000Y-70100000D01*
X120800000Y-69860000D02*
X123040000Y-69860000D01*
X120800000Y-69980000D02*
X123040000Y-69980000D01*
X121920000Y-65810000D02*
X121920000Y-66460000D01*
X121920000Y-71350000D02*
X121920000Y-70700000D01*
X120800000Y-66460000D02*
X120800000Y-70700000D01*
X123040000Y-66460000D02*
X120800000Y-66460000D01*
X123040000Y-70700000D02*
X123040000Y-66460000D01*
X120800000Y-70700000D02*
X123040000Y-70700000D01*
%TO.C,DL61*%
X120800000Y-51050000D02*
X123040000Y-51050000D01*
X120800000Y-50810000D02*
X123040000Y-50810000D01*
X120800000Y-50930000D02*
X123040000Y-50930000D01*
X121920000Y-46760000D02*
X121920000Y-47410000D01*
X121920000Y-52300000D02*
X121920000Y-51650000D01*
X120800000Y-47410000D02*
X120800000Y-51650000D01*
X123040000Y-47410000D02*
X120800000Y-47410000D01*
X123040000Y-51650000D02*
X123040000Y-47410000D01*
X120800000Y-51650000D02*
X123040000Y-51650000D01*
%TO.C,DL55*%
X120800000Y-127850000D02*
X123040000Y-127850000D01*
X123040000Y-127850000D02*
X123040000Y-123610000D01*
X123040000Y-123610000D02*
X120800000Y-123610000D01*
X120800000Y-123610000D02*
X120800000Y-127850000D01*
X121920000Y-128500000D02*
X121920000Y-127850000D01*
X121920000Y-122960000D02*
X121920000Y-123610000D01*
X120800000Y-127130000D02*
X123040000Y-127130000D01*
X120800000Y-127010000D02*
X123040000Y-127010000D01*
X120800000Y-127250000D02*
X123040000Y-127250000D01*
%TO.C,DL54*%
X101750000Y-103120000D02*
X103990000Y-103120000D01*
X101750000Y-102880000D02*
X103990000Y-102880000D01*
X101750000Y-103000000D02*
X103990000Y-103000000D01*
X102870000Y-98830000D02*
X102870000Y-99480000D01*
X102870000Y-104370000D02*
X102870000Y-103720000D01*
X101750000Y-99480000D02*
X101750000Y-103720000D01*
X103990000Y-99480000D02*
X101750000Y-99480000D01*
X103990000Y-103720000D02*
X103990000Y-99480000D01*
X101750000Y-103720000D02*
X103990000Y-103720000D01*
%TO.C,DL53*%
X101750000Y-84670000D02*
X103990000Y-84670000D01*
X103990000Y-84670000D02*
X103990000Y-80430000D01*
X103990000Y-80430000D02*
X101750000Y-80430000D01*
X101750000Y-80430000D02*
X101750000Y-84670000D01*
X102870000Y-85320000D02*
X102870000Y-84670000D01*
X102870000Y-79780000D02*
X102870000Y-80430000D01*
X101750000Y-83950000D02*
X103990000Y-83950000D01*
X101750000Y-83830000D02*
X103990000Y-83830000D01*
X101750000Y-84070000D02*
X103990000Y-84070000D01*
%TO.C,DL52*%
X101750000Y-65620000D02*
X103990000Y-65620000D01*
X103990000Y-65620000D02*
X103990000Y-61380000D01*
X103990000Y-61380000D02*
X101750000Y-61380000D01*
X101750000Y-61380000D02*
X101750000Y-65620000D01*
X102870000Y-66270000D02*
X102870000Y-65620000D01*
X102870000Y-60730000D02*
X102870000Y-61380000D01*
X101750000Y-64900000D02*
X103990000Y-64900000D01*
X101750000Y-64780000D02*
X103990000Y-64780000D01*
X101750000Y-65020000D02*
X103990000Y-65020000D01*
%TO.C,DL51*%
X101750000Y-46570000D02*
X103990000Y-46570000D01*
X103990000Y-46570000D02*
X103990000Y-42330000D01*
X103990000Y-42330000D02*
X101750000Y-42330000D01*
X101750000Y-42330000D02*
X101750000Y-46570000D01*
X102870000Y-47220000D02*
X102870000Y-46570000D01*
X102870000Y-41680000D02*
X102870000Y-42330000D01*
X101750000Y-45850000D02*
X103990000Y-45850000D01*
X101750000Y-45730000D02*
X103990000Y-45730000D01*
X101750000Y-45970000D02*
X103990000Y-45970000D01*
%TO.C,DL45*%
X101750000Y-122170000D02*
X103990000Y-122170000D01*
X101750000Y-121930000D02*
X103990000Y-121930000D01*
X101750000Y-122050000D02*
X103990000Y-122050000D01*
X102870000Y-117880000D02*
X102870000Y-118530000D01*
X102870000Y-123420000D02*
X102870000Y-122770000D01*
X101750000Y-118530000D02*
X101750000Y-122770000D01*
X103990000Y-118530000D02*
X101750000Y-118530000D01*
X103990000Y-122770000D02*
X103990000Y-118530000D01*
X101750000Y-122770000D02*
X103990000Y-122770000D01*
%TO.C,DL44*%
X82700000Y-98640000D02*
X84940000Y-98640000D01*
X84940000Y-98640000D02*
X84940000Y-94400000D01*
X84940000Y-94400000D02*
X82700000Y-94400000D01*
X82700000Y-94400000D02*
X82700000Y-98640000D01*
X83820000Y-99290000D02*
X83820000Y-98640000D01*
X83820000Y-93750000D02*
X83820000Y-94400000D01*
X82700000Y-97920000D02*
X84940000Y-97920000D01*
X82700000Y-97800000D02*
X84940000Y-97800000D01*
X82700000Y-98040000D02*
X84940000Y-98040000D01*
%TO.C,DL43*%
X82700000Y-78990000D02*
X84940000Y-78990000D01*
X82700000Y-78750000D02*
X84940000Y-78750000D01*
X82700000Y-78870000D02*
X84940000Y-78870000D01*
X83820000Y-74700000D02*
X83820000Y-75350000D01*
X83820000Y-80240000D02*
X83820000Y-79590000D01*
X82700000Y-75350000D02*
X82700000Y-79590000D01*
X84940000Y-75350000D02*
X82700000Y-75350000D01*
X84940000Y-79590000D02*
X84940000Y-75350000D01*
X82700000Y-79590000D02*
X84940000Y-79590000D01*
%TO.C,DL42*%
X82700000Y-59940000D02*
X84940000Y-59940000D01*
X82700000Y-59700000D02*
X84940000Y-59700000D01*
X82700000Y-59820000D02*
X84940000Y-59820000D01*
X83820000Y-55650000D02*
X83820000Y-56300000D01*
X83820000Y-61190000D02*
X83820000Y-60540000D01*
X82700000Y-56300000D02*
X82700000Y-60540000D01*
X84940000Y-56300000D02*
X82700000Y-56300000D01*
X84940000Y-60540000D02*
X84940000Y-56300000D01*
X82700000Y-60540000D02*
X84940000Y-60540000D01*
%TO.C,DL41*%
X82700000Y-40890000D02*
X84940000Y-40890000D01*
X82700000Y-40650000D02*
X84940000Y-40650000D01*
X82700000Y-40770000D02*
X84940000Y-40770000D01*
X83820000Y-36600000D02*
X83820000Y-37250000D01*
X83820000Y-42140000D02*
X83820000Y-41490000D01*
X82700000Y-37250000D02*
X82700000Y-41490000D01*
X84940000Y-37250000D02*
X82700000Y-37250000D01*
X84940000Y-41490000D02*
X84940000Y-37250000D01*
X82700000Y-41490000D02*
X84940000Y-41490000D01*
%TO.C,DL35*%
X82700000Y-117690000D02*
X84940000Y-117690000D01*
X84940000Y-117690000D02*
X84940000Y-113450000D01*
X84940000Y-113450000D02*
X82700000Y-113450000D01*
X82700000Y-113450000D02*
X82700000Y-117690000D01*
X83820000Y-118340000D02*
X83820000Y-117690000D01*
X83820000Y-112800000D02*
X83820000Y-113450000D01*
X82700000Y-116970000D02*
X84940000Y-116970000D01*
X82700000Y-116850000D02*
X84940000Y-116850000D01*
X82700000Y-117090000D02*
X84940000Y-117090000D01*
%TO.C,DL34*%
X63650000Y-103120000D02*
X65890000Y-103120000D01*
X63650000Y-102880000D02*
X65890000Y-102880000D01*
X63650000Y-103000000D02*
X65890000Y-103000000D01*
X64770000Y-98830000D02*
X64770000Y-99480000D01*
X64770000Y-104370000D02*
X64770000Y-103720000D01*
X63650000Y-99480000D02*
X63650000Y-103720000D01*
X65890000Y-99480000D02*
X63650000Y-99480000D01*
X65890000Y-103720000D02*
X65890000Y-99480000D01*
X63650000Y-103720000D02*
X65890000Y-103720000D01*
%TO.C,DL33*%
X63650000Y-84670000D02*
X65890000Y-84670000D01*
X65890000Y-84670000D02*
X65890000Y-80430000D01*
X65890000Y-80430000D02*
X63650000Y-80430000D01*
X63650000Y-80430000D02*
X63650000Y-84670000D01*
X64770000Y-85320000D02*
X64770000Y-84670000D01*
X64770000Y-79780000D02*
X64770000Y-80430000D01*
X63650000Y-83950000D02*
X65890000Y-83950000D01*
X63650000Y-83830000D02*
X65890000Y-83830000D01*
X63650000Y-84070000D02*
X65890000Y-84070000D01*
%TO.C,DL32*%
X63650000Y-65620000D02*
X65890000Y-65620000D01*
X65890000Y-65620000D02*
X65890000Y-61380000D01*
X65890000Y-61380000D02*
X63650000Y-61380000D01*
X63650000Y-61380000D02*
X63650000Y-65620000D01*
X64770000Y-66270000D02*
X64770000Y-65620000D01*
X64770000Y-60730000D02*
X64770000Y-61380000D01*
X63650000Y-64900000D02*
X65890000Y-64900000D01*
X63650000Y-64780000D02*
X65890000Y-64780000D01*
X63650000Y-65020000D02*
X65890000Y-65020000D01*
%TO.C,DL31*%
X63650000Y-46570000D02*
X65890000Y-46570000D01*
X65890000Y-46570000D02*
X65890000Y-42330000D01*
X65890000Y-42330000D02*
X63650000Y-42330000D01*
X63650000Y-42330000D02*
X63650000Y-46570000D01*
X64770000Y-47220000D02*
X64770000Y-46570000D01*
X64770000Y-41680000D02*
X64770000Y-42330000D01*
X63650000Y-45850000D02*
X65890000Y-45850000D01*
X63650000Y-45730000D02*
X65890000Y-45730000D01*
X63650000Y-45970000D02*
X65890000Y-45970000D01*
%TO.C,DL25*%
X63650000Y-122170000D02*
X65890000Y-122170000D01*
X63650000Y-121930000D02*
X65890000Y-121930000D01*
X63650000Y-122050000D02*
X65890000Y-122050000D01*
X64770000Y-117880000D02*
X64770000Y-118530000D01*
X64770000Y-123420000D02*
X64770000Y-122770000D01*
X63650000Y-118530000D02*
X63650000Y-122770000D01*
X65890000Y-118530000D02*
X63650000Y-118530000D01*
X65890000Y-122770000D02*
X65890000Y-118530000D01*
X63650000Y-122770000D02*
X65890000Y-122770000D01*
%TO.C,DL24*%
X44600000Y-108800000D02*
X46840000Y-108800000D01*
X46840000Y-108800000D02*
X46840000Y-104560000D01*
X46840000Y-104560000D02*
X44600000Y-104560000D01*
X44600000Y-104560000D02*
X44600000Y-108800000D01*
X45720000Y-109450000D02*
X45720000Y-108800000D01*
X45720000Y-103910000D02*
X45720000Y-104560000D01*
X44600000Y-108080000D02*
X46840000Y-108080000D01*
X44600000Y-107960000D02*
X46840000Y-107960000D01*
X44600000Y-108200000D02*
X46840000Y-108200000D01*
%TO.C,DL23*%
X44600000Y-89150000D02*
X46840000Y-89150000D01*
X44600000Y-88910000D02*
X46840000Y-88910000D01*
X44600000Y-89030000D02*
X46840000Y-89030000D01*
X45720000Y-84860000D02*
X45720000Y-85510000D01*
X45720000Y-90400000D02*
X45720000Y-89750000D01*
X44600000Y-85510000D02*
X44600000Y-89750000D01*
X46840000Y-85510000D02*
X44600000Y-85510000D01*
X46840000Y-89750000D02*
X46840000Y-85510000D01*
X44600000Y-89750000D02*
X46840000Y-89750000D01*
%TO.C,DL22*%
X44600000Y-70700000D02*
X46840000Y-70700000D01*
X46840000Y-70700000D02*
X46840000Y-66460000D01*
X46840000Y-66460000D02*
X44600000Y-66460000D01*
X44600000Y-66460000D02*
X44600000Y-70700000D01*
X45720000Y-71350000D02*
X45720000Y-70700000D01*
X45720000Y-65810000D02*
X45720000Y-66460000D01*
X44600000Y-69980000D02*
X46840000Y-69980000D01*
X44600000Y-69860000D02*
X46840000Y-69860000D01*
X44600000Y-70100000D02*
X46840000Y-70100000D01*
%TO.C,DL21*%
X44600000Y-51050000D02*
X46840000Y-51050000D01*
X44600000Y-50810000D02*
X46840000Y-50810000D01*
X44600000Y-50930000D02*
X46840000Y-50930000D01*
X45720000Y-46760000D02*
X45720000Y-47410000D01*
X45720000Y-52300000D02*
X45720000Y-51650000D01*
X44600000Y-47410000D02*
X44600000Y-51650000D01*
X46840000Y-47410000D02*
X44600000Y-47410000D01*
X46840000Y-51650000D02*
X46840000Y-47410000D01*
X44600000Y-51650000D02*
X46840000Y-51650000D01*
%TO.C,DL15*%
X44600000Y-127850000D02*
X46840000Y-127850000D01*
X46840000Y-127850000D02*
X46840000Y-123610000D01*
X46840000Y-123610000D02*
X44600000Y-123610000D01*
X44600000Y-123610000D02*
X44600000Y-127850000D01*
X45720000Y-128500000D02*
X45720000Y-127850000D01*
X45720000Y-122960000D02*
X45720000Y-123610000D01*
X44600000Y-127130000D02*
X46840000Y-127130000D01*
X44600000Y-127010000D02*
X46840000Y-127010000D01*
X44600000Y-127250000D02*
X46840000Y-127250000D01*
%TO.C,DL14*%
X25550000Y-108800000D02*
X27790000Y-108800000D01*
X27790000Y-108800000D02*
X27790000Y-104560000D01*
X27790000Y-104560000D02*
X25550000Y-104560000D01*
X25550000Y-104560000D02*
X25550000Y-108800000D01*
X26670000Y-109450000D02*
X26670000Y-108800000D01*
X26670000Y-103910000D02*
X26670000Y-104560000D01*
X25550000Y-108080000D02*
X27790000Y-108080000D01*
X25550000Y-107960000D02*
X27790000Y-107960000D01*
X25550000Y-108200000D02*
X27790000Y-108200000D01*
%TO.C,DL13*%
X25550000Y-89150000D02*
X27790000Y-89150000D01*
X25550000Y-88910000D02*
X27790000Y-88910000D01*
X25550000Y-89030000D02*
X27790000Y-89030000D01*
X26670000Y-84860000D02*
X26670000Y-85510000D01*
X26670000Y-90400000D02*
X26670000Y-89750000D01*
X25550000Y-85510000D02*
X25550000Y-89750000D01*
X27790000Y-85510000D02*
X25550000Y-85510000D01*
X27790000Y-89750000D02*
X27790000Y-85510000D01*
X25550000Y-89750000D02*
X27790000Y-89750000D01*
%TO.C,DL12*%
X25550000Y-70100000D02*
X27790000Y-70100000D01*
X25550000Y-69860000D02*
X27790000Y-69860000D01*
X25550000Y-69980000D02*
X27790000Y-69980000D01*
X26670000Y-65810000D02*
X26670000Y-66460000D01*
X26670000Y-71350000D02*
X26670000Y-70700000D01*
X25550000Y-66460000D02*
X25550000Y-70700000D01*
X27790000Y-66460000D02*
X25550000Y-66460000D01*
X27790000Y-70700000D02*
X27790000Y-66460000D01*
X25550000Y-70700000D02*
X27790000Y-70700000D01*
%TO.C,DL11*%
X25550000Y-51650000D02*
X27790000Y-51650000D01*
X27790000Y-51650000D02*
X27790000Y-47410000D01*
X27790000Y-47410000D02*
X25550000Y-47410000D01*
X25550000Y-47410000D02*
X25550000Y-51650000D01*
X26670000Y-52300000D02*
X26670000Y-51650000D01*
X26670000Y-46760000D02*
X26670000Y-47410000D01*
X25550000Y-50930000D02*
X27790000Y-50930000D01*
X25550000Y-50810000D02*
X27790000Y-50810000D01*
X25550000Y-51050000D02*
X27790000Y-51050000D01*
D11*
%TO.C,U1*%
X142240000Y-36830000D02*
X142240000Y-67310000D01*
X142240000Y-36830000D02*
X147320000Y-36830000D01*
X147320000Y-36830000D02*
X147320000Y-34290000D01*
X147320000Y-34290000D02*
X154940000Y-34290000D01*
X154940000Y-34290000D02*
X154940000Y-36830000D01*
X154940000Y-36830000D02*
X160020000Y-36830000D01*
X160020000Y-36830000D02*
X160020000Y-67310000D01*
X160020000Y-67310000D02*
X142240000Y-67310000D01*
%TO.C,JL1*%
X159472380Y-82018095D02*
X160186666Y-82018095D01*
X160329523Y-82065714D01*
X160424761Y-82160952D01*
X160472380Y-82303809D01*
X160472380Y-82399047D01*
X160472380Y-81065714D02*
X160472380Y-81541904D01*
X159472380Y-81541904D01*
X160472380Y-80208571D02*
X160472380Y-80780000D01*
X160472380Y-80494285D02*
X159472380Y-80494285D01*
X159615238Y-80589523D01*
X159710476Y-80684761D01*
X159758095Y-80780000D01*
%TO.C,JL2*%
X146772380Y-88368095D02*
X147486666Y-88368095D01*
X147629523Y-88415714D01*
X147724761Y-88510952D01*
X147772380Y-88653809D01*
X147772380Y-88749047D01*
X147772380Y-87415714D02*
X147772380Y-87891904D01*
X146772380Y-87891904D01*
X146867619Y-87130000D02*
X146820000Y-87082380D01*
X146772380Y-86987142D01*
X146772380Y-86749047D01*
X146820000Y-86653809D01*
X146867619Y-86606190D01*
X146962857Y-86558571D01*
X147058095Y-86558571D01*
X147200952Y-86606190D01*
X147772380Y-87177619D01*
X147772380Y-86558571D01*
%TO.C,DL65*%
X139302380Y-138779047D02*
X138302380Y-138779047D01*
X138302380Y-138540952D01*
X138350000Y-138398095D01*
X138445238Y-138302857D01*
X138540476Y-138255238D01*
X138730952Y-138207619D01*
X138873809Y-138207619D01*
X139064285Y-138255238D01*
X139159523Y-138302857D01*
X139254761Y-138398095D01*
X139302380Y-138540952D01*
X139302380Y-138779047D01*
X139302380Y-137302857D02*
X139302380Y-137779047D01*
X138302380Y-137779047D01*
X138302380Y-136540952D02*
X138302380Y-136731428D01*
X138350000Y-136826666D01*
X138397619Y-136874285D01*
X138540476Y-136969523D01*
X138730952Y-137017142D01*
X139111904Y-137017142D01*
X139207142Y-136969523D01*
X139254761Y-136921904D01*
X139302380Y-136826666D01*
X139302380Y-136636190D01*
X139254761Y-136540952D01*
X139207142Y-136493333D01*
X139111904Y-136445714D01*
X138873809Y-136445714D01*
X138778571Y-136493333D01*
X138730952Y-136540952D01*
X138683333Y-136636190D01*
X138683333Y-136826666D01*
X138730952Y-136921904D01*
X138778571Y-136969523D01*
X138873809Y-137017142D01*
X138302380Y-135540952D02*
X138302380Y-136017142D01*
X138778571Y-136064761D01*
X138730952Y-136017142D01*
X138683333Y-135921904D01*
X138683333Y-135683809D01*
X138730952Y-135588571D01*
X138778571Y-135540952D01*
X138873809Y-135493333D01*
X139111904Y-135493333D01*
X139207142Y-135540952D01*
X139254761Y-135588571D01*
X139302380Y-135683809D01*
X139302380Y-135921904D01*
X139254761Y-136017142D01*
X139207142Y-136064761D01*
X139622380Y-141231904D02*
X138622380Y-141231904D01*
X139622380Y-140660476D02*
X139050952Y-141089047D01*
X138622380Y-140660476D02*
X139193809Y-141231904D01*
%TO.C,DL64*%
X120252380Y-108299047D02*
X119252380Y-108299047D01*
X119252380Y-108060952D01*
X119300000Y-107918095D01*
X119395238Y-107822857D01*
X119490476Y-107775238D01*
X119680952Y-107727619D01*
X119823809Y-107727619D01*
X120014285Y-107775238D01*
X120109523Y-107822857D01*
X120204761Y-107918095D01*
X120252380Y-108060952D01*
X120252380Y-108299047D01*
X120252380Y-106822857D02*
X120252380Y-107299047D01*
X119252380Y-107299047D01*
X119252380Y-106060952D02*
X119252380Y-106251428D01*
X119300000Y-106346666D01*
X119347619Y-106394285D01*
X119490476Y-106489523D01*
X119680952Y-106537142D01*
X120061904Y-106537142D01*
X120157142Y-106489523D01*
X120204761Y-106441904D01*
X120252380Y-106346666D01*
X120252380Y-106156190D01*
X120204761Y-106060952D01*
X120157142Y-106013333D01*
X120061904Y-105965714D01*
X119823809Y-105965714D01*
X119728571Y-106013333D01*
X119680952Y-106060952D01*
X119633333Y-106156190D01*
X119633333Y-106346666D01*
X119680952Y-106441904D01*
X119728571Y-106489523D01*
X119823809Y-106537142D01*
X119585714Y-105108571D02*
X120252380Y-105108571D01*
X119204761Y-105346666D02*
X119919047Y-105584761D01*
X119919047Y-104965714D01*
X120572380Y-110751904D02*
X119572380Y-110751904D01*
X120572380Y-110180476D02*
X120000952Y-110609047D01*
X119572380Y-110180476D02*
X120143809Y-110751904D01*
%TO.C,DL63*%
X120252380Y-89249047D02*
X119252380Y-89249047D01*
X119252380Y-89010952D01*
X119300000Y-88868095D01*
X119395238Y-88772857D01*
X119490476Y-88725238D01*
X119680952Y-88677619D01*
X119823809Y-88677619D01*
X120014285Y-88725238D01*
X120109523Y-88772857D01*
X120204761Y-88868095D01*
X120252380Y-89010952D01*
X120252380Y-89249047D01*
X120252380Y-87772857D02*
X120252380Y-88249047D01*
X119252380Y-88249047D01*
X119252380Y-87010952D02*
X119252380Y-87201428D01*
X119300000Y-87296666D01*
X119347619Y-87344285D01*
X119490476Y-87439523D01*
X119680952Y-87487142D01*
X120061904Y-87487142D01*
X120157142Y-87439523D01*
X120204761Y-87391904D01*
X120252380Y-87296666D01*
X120252380Y-87106190D01*
X120204761Y-87010952D01*
X120157142Y-86963333D01*
X120061904Y-86915714D01*
X119823809Y-86915714D01*
X119728571Y-86963333D01*
X119680952Y-87010952D01*
X119633333Y-87106190D01*
X119633333Y-87296666D01*
X119680952Y-87391904D01*
X119728571Y-87439523D01*
X119823809Y-87487142D01*
X119252380Y-86582380D02*
X119252380Y-85963333D01*
X119633333Y-86296666D01*
X119633333Y-86153809D01*
X119680952Y-86058571D01*
X119728571Y-86010952D01*
X119823809Y-85963333D01*
X120061904Y-85963333D01*
X120157142Y-86010952D01*
X120204761Y-86058571D01*
X120252380Y-86153809D01*
X120252380Y-86439523D01*
X120204761Y-86534761D01*
X120157142Y-86582380D01*
X120572380Y-91701904D02*
X119572380Y-91701904D01*
X120572380Y-91130476D02*
X120000952Y-91559047D01*
X119572380Y-91130476D02*
X120143809Y-91701904D01*
%TO.C,DL62*%
X120252380Y-70199047D02*
X119252380Y-70199047D01*
X119252380Y-69960952D01*
X119300000Y-69818095D01*
X119395238Y-69722857D01*
X119490476Y-69675238D01*
X119680952Y-69627619D01*
X119823809Y-69627619D01*
X120014285Y-69675238D01*
X120109523Y-69722857D01*
X120204761Y-69818095D01*
X120252380Y-69960952D01*
X120252380Y-70199047D01*
X120252380Y-68722857D02*
X120252380Y-69199047D01*
X119252380Y-69199047D01*
X119252380Y-67960952D02*
X119252380Y-68151428D01*
X119300000Y-68246666D01*
X119347619Y-68294285D01*
X119490476Y-68389523D01*
X119680952Y-68437142D01*
X120061904Y-68437142D01*
X120157142Y-68389523D01*
X120204761Y-68341904D01*
X120252380Y-68246666D01*
X120252380Y-68056190D01*
X120204761Y-67960952D01*
X120157142Y-67913333D01*
X120061904Y-67865714D01*
X119823809Y-67865714D01*
X119728571Y-67913333D01*
X119680952Y-67960952D01*
X119633333Y-68056190D01*
X119633333Y-68246666D01*
X119680952Y-68341904D01*
X119728571Y-68389523D01*
X119823809Y-68437142D01*
X119347619Y-67484761D02*
X119300000Y-67437142D01*
X119252380Y-67341904D01*
X119252380Y-67103809D01*
X119300000Y-67008571D01*
X119347619Y-66960952D01*
X119442857Y-66913333D01*
X119538095Y-66913333D01*
X119680952Y-66960952D01*
X120252380Y-67532380D01*
X120252380Y-66913333D01*
X120572380Y-72651904D02*
X119572380Y-72651904D01*
X120572380Y-72080476D02*
X120000952Y-72509047D01*
X119572380Y-72080476D02*
X120143809Y-72651904D01*
%TO.C,DL61*%
X120252380Y-51149047D02*
X119252380Y-51149047D01*
X119252380Y-50910952D01*
X119300000Y-50768095D01*
X119395238Y-50672857D01*
X119490476Y-50625238D01*
X119680952Y-50577619D01*
X119823809Y-50577619D01*
X120014285Y-50625238D01*
X120109523Y-50672857D01*
X120204761Y-50768095D01*
X120252380Y-50910952D01*
X120252380Y-51149047D01*
X120252380Y-49672857D02*
X120252380Y-50149047D01*
X119252380Y-50149047D01*
X119252380Y-48910952D02*
X119252380Y-49101428D01*
X119300000Y-49196666D01*
X119347619Y-49244285D01*
X119490476Y-49339523D01*
X119680952Y-49387142D01*
X120061904Y-49387142D01*
X120157142Y-49339523D01*
X120204761Y-49291904D01*
X120252380Y-49196666D01*
X120252380Y-49006190D01*
X120204761Y-48910952D01*
X120157142Y-48863333D01*
X120061904Y-48815714D01*
X119823809Y-48815714D01*
X119728571Y-48863333D01*
X119680952Y-48910952D01*
X119633333Y-49006190D01*
X119633333Y-49196666D01*
X119680952Y-49291904D01*
X119728571Y-49339523D01*
X119823809Y-49387142D01*
X120252380Y-47863333D02*
X120252380Y-48434761D01*
X120252380Y-48149047D02*
X119252380Y-48149047D01*
X119395238Y-48244285D01*
X119490476Y-48339523D01*
X119538095Y-48434761D01*
X120572380Y-53601904D02*
X119572380Y-53601904D01*
X120572380Y-53030476D02*
X120000952Y-53459047D01*
X119572380Y-53030476D02*
X120143809Y-53601904D01*
%TO.C,DL55*%
X120252380Y-127349047D02*
X119252380Y-127349047D01*
X119252380Y-127110952D01*
X119300000Y-126968095D01*
X119395238Y-126872857D01*
X119490476Y-126825238D01*
X119680952Y-126777619D01*
X119823809Y-126777619D01*
X120014285Y-126825238D01*
X120109523Y-126872857D01*
X120204761Y-126968095D01*
X120252380Y-127110952D01*
X120252380Y-127349047D01*
X120252380Y-125872857D02*
X120252380Y-126349047D01*
X119252380Y-126349047D01*
X119252380Y-125063333D02*
X119252380Y-125539523D01*
X119728571Y-125587142D01*
X119680952Y-125539523D01*
X119633333Y-125444285D01*
X119633333Y-125206190D01*
X119680952Y-125110952D01*
X119728571Y-125063333D01*
X119823809Y-125015714D01*
X120061904Y-125015714D01*
X120157142Y-125063333D01*
X120204761Y-125110952D01*
X120252380Y-125206190D01*
X120252380Y-125444285D01*
X120204761Y-125539523D01*
X120157142Y-125587142D01*
X119252380Y-124110952D02*
X119252380Y-124587142D01*
X119728571Y-124634761D01*
X119680952Y-124587142D01*
X119633333Y-124491904D01*
X119633333Y-124253809D01*
X119680952Y-124158571D01*
X119728571Y-124110952D01*
X119823809Y-124063333D01*
X120061904Y-124063333D01*
X120157142Y-124110952D01*
X120204761Y-124158571D01*
X120252380Y-124253809D01*
X120252380Y-124491904D01*
X120204761Y-124587142D01*
X120157142Y-124634761D01*
X120572380Y-129801904D02*
X119572380Y-129801904D01*
X120572380Y-129230476D02*
X120000952Y-129659047D01*
X119572380Y-129230476D02*
X120143809Y-129801904D01*
%TO.C,DL54*%
X101202380Y-103219047D02*
X100202380Y-103219047D01*
X100202380Y-102980952D01*
X100250000Y-102838095D01*
X100345238Y-102742857D01*
X100440476Y-102695238D01*
X100630952Y-102647619D01*
X100773809Y-102647619D01*
X100964285Y-102695238D01*
X101059523Y-102742857D01*
X101154761Y-102838095D01*
X101202380Y-102980952D01*
X101202380Y-103219047D01*
X101202380Y-101742857D02*
X101202380Y-102219047D01*
X100202380Y-102219047D01*
X100202380Y-100933333D02*
X100202380Y-101409523D01*
X100678571Y-101457142D01*
X100630952Y-101409523D01*
X100583333Y-101314285D01*
X100583333Y-101076190D01*
X100630952Y-100980952D01*
X100678571Y-100933333D01*
X100773809Y-100885714D01*
X101011904Y-100885714D01*
X101107142Y-100933333D01*
X101154761Y-100980952D01*
X101202380Y-101076190D01*
X101202380Y-101314285D01*
X101154761Y-101409523D01*
X101107142Y-101457142D01*
X100535714Y-100028571D02*
X101202380Y-100028571D01*
X100154761Y-100266666D02*
X100869047Y-100504761D01*
X100869047Y-99885714D01*
X101522380Y-105671904D02*
X100522380Y-105671904D01*
X101522380Y-105100476D02*
X100950952Y-105529047D01*
X100522380Y-105100476D02*
X101093809Y-105671904D01*
%TO.C,DL53*%
X101202380Y-84169047D02*
X100202380Y-84169047D01*
X100202380Y-83930952D01*
X100250000Y-83788095D01*
X100345238Y-83692857D01*
X100440476Y-83645238D01*
X100630952Y-83597619D01*
X100773809Y-83597619D01*
X100964285Y-83645238D01*
X101059523Y-83692857D01*
X101154761Y-83788095D01*
X101202380Y-83930952D01*
X101202380Y-84169047D01*
X101202380Y-82692857D02*
X101202380Y-83169047D01*
X100202380Y-83169047D01*
X100202380Y-81883333D02*
X100202380Y-82359523D01*
X100678571Y-82407142D01*
X100630952Y-82359523D01*
X100583333Y-82264285D01*
X100583333Y-82026190D01*
X100630952Y-81930952D01*
X100678571Y-81883333D01*
X100773809Y-81835714D01*
X101011904Y-81835714D01*
X101107142Y-81883333D01*
X101154761Y-81930952D01*
X101202380Y-82026190D01*
X101202380Y-82264285D01*
X101154761Y-82359523D01*
X101107142Y-82407142D01*
X100202380Y-81502380D02*
X100202380Y-80883333D01*
X100583333Y-81216666D01*
X100583333Y-81073809D01*
X100630952Y-80978571D01*
X100678571Y-80930952D01*
X100773809Y-80883333D01*
X101011904Y-80883333D01*
X101107142Y-80930952D01*
X101154761Y-80978571D01*
X101202380Y-81073809D01*
X101202380Y-81359523D01*
X101154761Y-81454761D01*
X101107142Y-81502380D01*
X101522380Y-86621904D02*
X100522380Y-86621904D01*
X101522380Y-86050476D02*
X100950952Y-86479047D01*
X100522380Y-86050476D02*
X101093809Y-86621904D01*
%TO.C,DL52*%
X101202380Y-65119047D02*
X100202380Y-65119047D01*
X100202380Y-64880952D01*
X100250000Y-64738095D01*
X100345238Y-64642857D01*
X100440476Y-64595238D01*
X100630952Y-64547619D01*
X100773809Y-64547619D01*
X100964285Y-64595238D01*
X101059523Y-64642857D01*
X101154761Y-64738095D01*
X101202380Y-64880952D01*
X101202380Y-65119047D01*
X101202380Y-63642857D02*
X101202380Y-64119047D01*
X100202380Y-64119047D01*
X100202380Y-62833333D02*
X100202380Y-63309523D01*
X100678571Y-63357142D01*
X100630952Y-63309523D01*
X100583333Y-63214285D01*
X100583333Y-62976190D01*
X100630952Y-62880952D01*
X100678571Y-62833333D01*
X100773809Y-62785714D01*
X101011904Y-62785714D01*
X101107142Y-62833333D01*
X101154761Y-62880952D01*
X101202380Y-62976190D01*
X101202380Y-63214285D01*
X101154761Y-63309523D01*
X101107142Y-63357142D01*
X100297619Y-62404761D02*
X100250000Y-62357142D01*
X100202380Y-62261904D01*
X100202380Y-62023809D01*
X100250000Y-61928571D01*
X100297619Y-61880952D01*
X100392857Y-61833333D01*
X100488095Y-61833333D01*
X100630952Y-61880952D01*
X101202380Y-62452380D01*
X101202380Y-61833333D01*
X101522380Y-67571904D02*
X100522380Y-67571904D01*
X101522380Y-67000476D02*
X100950952Y-67429047D01*
X100522380Y-67000476D02*
X101093809Y-67571904D01*
%TO.C,DL51*%
X101202380Y-46069047D02*
X100202380Y-46069047D01*
X100202380Y-45830952D01*
X100250000Y-45688095D01*
X100345238Y-45592857D01*
X100440476Y-45545238D01*
X100630952Y-45497619D01*
X100773809Y-45497619D01*
X100964285Y-45545238D01*
X101059523Y-45592857D01*
X101154761Y-45688095D01*
X101202380Y-45830952D01*
X101202380Y-46069047D01*
X101202380Y-44592857D02*
X101202380Y-45069047D01*
X100202380Y-45069047D01*
X100202380Y-43783333D02*
X100202380Y-44259523D01*
X100678571Y-44307142D01*
X100630952Y-44259523D01*
X100583333Y-44164285D01*
X100583333Y-43926190D01*
X100630952Y-43830952D01*
X100678571Y-43783333D01*
X100773809Y-43735714D01*
X101011904Y-43735714D01*
X101107142Y-43783333D01*
X101154761Y-43830952D01*
X101202380Y-43926190D01*
X101202380Y-44164285D01*
X101154761Y-44259523D01*
X101107142Y-44307142D01*
X101202380Y-42783333D02*
X101202380Y-43354761D01*
X101202380Y-43069047D02*
X100202380Y-43069047D01*
X100345238Y-43164285D01*
X100440476Y-43259523D01*
X100488095Y-43354761D01*
X101522380Y-48521904D02*
X100522380Y-48521904D01*
X101522380Y-47950476D02*
X100950952Y-48379047D01*
X100522380Y-47950476D02*
X101093809Y-48521904D01*
%TO.C,DL45*%
X101202380Y-122269047D02*
X100202380Y-122269047D01*
X100202380Y-122030952D01*
X100250000Y-121888095D01*
X100345238Y-121792857D01*
X100440476Y-121745238D01*
X100630952Y-121697619D01*
X100773809Y-121697619D01*
X100964285Y-121745238D01*
X101059523Y-121792857D01*
X101154761Y-121888095D01*
X101202380Y-122030952D01*
X101202380Y-122269047D01*
X101202380Y-120792857D02*
X101202380Y-121269047D01*
X100202380Y-121269047D01*
X100535714Y-120030952D02*
X101202380Y-120030952D01*
X100154761Y-120269047D02*
X100869047Y-120507142D01*
X100869047Y-119888095D01*
X100202380Y-119030952D02*
X100202380Y-119507142D01*
X100678571Y-119554761D01*
X100630952Y-119507142D01*
X100583333Y-119411904D01*
X100583333Y-119173809D01*
X100630952Y-119078571D01*
X100678571Y-119030952D01*
X100773809Y-118983333D01*
X101011904Y-118983333D01*
X101107142Y-119030952D01*
X101154761Y-119078571D01*
X101202380Y-119173809D01*
X101202380Y-119411904D01*
X101154761Y-119507142D01*
X101107142Y-119554761D01*
X101522380Y-124721904D02*
X100522380Y-124721904D01*
X101522380Y-124150476D02*
X100950952Y-124579047D01*
X100522380Y-124150476D02*
X101093809Y-124721904D01*
%TO.C,DL44*%
X82152380Y-98139047D02*
X81152380Y-98139047D01*
X81152380Y-97900952D01*
X81200000Y-97758095D01*
X81295238Y-97662857D01*
X81390476Y-97615238D01*
X81580952Y-97567619D01*
X81723809Y-97567619D01*
X81914285Y-97615238D01*
X82009523Y-97662857D01*
X82104761Y-97758095D01*
X82152380Y-97900952D01*
X82152380Y-98139047D01*
X82152380Y-96662857D02*
X82152380Y-97139047D01*
X81152380Y-97139047D01*
X81485714Y-95900952D02*
X82152380Y-95900952D01*
X81104761Y-96139047D02*
X81819047Y-96377142D01*
X81819047Y-95758095D01*
X81485714Y-94948571D02*
X82152380Y-94948571D01*
X81104761Y-95186666D02*
X81819047Y-95424761D01*
X81819047Y-94805714D01*
X82472380Y-100591904D02*
X81472380Y-100591904D01*
X82472380Y-100020476D02*
X81900952Y-100449047D01*
X81472380Y-100020476D02*
X82043809Y-100591904D01*
%TO.C,DL43*%
X82152380Y-79089047D02*
X81152380Y-79089047D01*
X81152380Y-78850952D01*
X81200000Y-78708095D01*
X81295238Y-78612857D01*
X81390476Y-78565238D01*
X81580952Y-78517619D01*
X81723809Y-78517619D01*
X81914285Y-78565238D01*
X82009523Y-78612857D01*
X82104761Y-78708095D01*
X82152380Y-78850952D01*
X82152380Y-79089047D01*
X82152380Y-77612857D02*
X82152380Y-78089047D01*
X81152380Y-78089047D01*
X81485714Y-76850952D02*
X82152380Y-76850952D01*
X81104761Y-77089047D02*
X81819047Y-77327142D01*
X81819047Y-76708095D01*
X81152380Y-76422380D02*
X81152380Y-75803333D01*
X81533333Y-76136666D01*
X81533333Y-75993809D01*
X81580952Y-75898571D01*
X81628571Y-75850952D01*
X81723809Y-75803333D01*
X81961904Y-75803333D01*
X82057142Y-75850952D01*
X82104761Y-75898571D01*
X82152380Y-75993809D01*
X82152380Y-76279523D01*
X82104761Y-76374761D01*
X82057142Y-76422380D01*
X82472380Y-81541904D02*
X81472380Y-81541904D01*
X82472380Y-80970476D02*
X81900952Y-81399047D01*
X81472380Y-80970476D02*
X82043809Y-81541904D01*
%TO.C,DL42*%
X82152380Y-60039047D02*
X81152380Y-60039047D01*
X81152380Y-59800952D01*
X81200000Y-59658095D01*
X81295238Y-59562857D01*
X81390476Y-59515238D01*
X81580952Y-59467619D01*
X81723809Y-59467619D01*
X81914285Y-59515238D01*
X82009523Y-59562857D01*
X82104761Y-59658095D01*
X82152380Y-59800952D01*
X82152380Y-60039047D01*
X82152380Y-58562857D02*
X82152380Y-59039047D01*
X81152380Y-59039047D01*
X81485714Y-57800952D02*
X82152380Y-57800952D01*
X81104761Y-58039047D02*
X81819047Y-58277142D01*
X81819047Y-57658095D01*
X81247619Y-57324761D02*
X81200000Y-57277142D01*
X81152380Y-57181904D01*
X81152380Y-56943809D01*
X81200000Y-56848571D01*
X81247619Y-56800952D01*
X81342857Y-56753333D01*
X81438095Y-56753333D01*
X81580952Y-56800952D01*
X82152380Y-57372380D01*
X82152380Y-56753333D01*
X82472380Y-62491904D02*
X81472380Y-62491904D01*
X82472380Y-61920476D02*
X81900952Y-62349047D01*
X81472380Y-61920476D02*
X82043809Y-62491904D01*
%TO.C,DL41*%
X82152380Y-40989047D02*
X81152380Y-40989047D01*
X81152380Y-40750952D01*
X81200000Y-40608095D01*
X81295238Y-40512857D01*
X81390476Y-40465238D01*
X81580952Y-40417619D01*
X81723809Y-40417619D01*
X81914285Y-40465238D01*
X82009523Y-40512857D01*
X82104761Y-40608095D01*
X82152380Y-40750952D01*
X82152380Y-40989047D01*
X82152380Y-39512857D02*
X82152380Y-39989047D01*
X81152380Y-39989047D01*
X81485714Y-38750952D02*
X82152380Y-38750952D01*
X81104761Y-38989047D02*
X81819047Y-39227142D01*
X81819047Y-38608095D01*
X82152380Y-37703333D02*
X82152380Y-38274761D01*
X82152380Y-37989047D02*
X81152380Y-37989047D01*
X81295238Y-38084285D01*
X81390476Y-38179523D01*
X81438095Y-38274761D01*
X82472380Y-43441904D02*
X81472380Y-43441904D01*
X82472380Y-42870476D02*
X81900952Y-43299047D01*
X81472380Y-42870476D02*
X82043809Y-43441904D01*
%TO.C,DL35*%
X82152380Y-117189047D02*
X81152380Y-117189047D01*
X81152380Y-116950952D01*
X81200000Y-116808095D01*
X81295238Y-116712857D01*
X81390476Y-116665238D01*
X81580952Y-116617619D01*
X81723809Y-116617619D01*
X81914285Y-116665238D01*
X82009523Y-116712857D01*
X82104761Y-116808095D01*
X82152380Y-116950952D01*
X82152380Y-117189047D01*
X82152380Y-115712857D02*
X82152380Y-116189047D01*
X81152380Y-116189047D01*
X81152380Y-115474761D02*
X81152380Y-114855714D01*
X81533333Y-115189047D01*
X81533333Y-115046190D01*
X81580952Y-114950952D01*
X81628571Y-114903333D01*
X81723809Y-114855714D01*
X81961904Y-114855714D01*
X82057142Y-114903333D01*
X82104761Y-114950952D01*
X82152380Y-115046190D01*
X82152380Y-115331904D01*
X82104761Y-115427142D01*
X82057142Y-115474761D01*
X81152380Y-113950952D02*
X81152380Y-114427142D01*
X81628571Y-114474761D01*
X81580952Y-114427142D01*
X81533333Y-114331904D01*
X81533333Y-114093809D01*
X81580952Y-113998571D01*
X81628571Y-113950952D01*
X81723809Y-113903333D01*
X81961904Y-113903333D01*
X82057142Y-113950952D01*
X82104761Y-113998571D01*
X82152380Y-114093809D01*
X82152380Y-114331904D01*
X82104761Y-114427142D01*
X82057142Y-114474761D01*
X82472380Y-119641904D02*
X81472380Y-119641904D01*
X82472380Y-119070476D02*
X81900952Y-119499047D01*
X81472380Y-119070476D02*
X82043809Y-119641904D01*
%TO.C,DL34*%
X63102380Y-103219047D02*
X62102380Y-103219047D01*
X62102380Y-102980952D01*
X62150000Y-102838095D01*
X62245238Y-102742857D01*
X62340476Y-102695238D01*
X62530952Y-102647619D01*
X62673809Y-102647619D01*
X62864285Y-102695238D01*
X62959523Y-102742857D01*
X63054761Y-102838095D01*
X63102380Y-102980952D01*
X63102380Y-103219047D01*
X63102380Y-101742857D02*
X63102380Y-102219047D01*
X62102380Y-102219047D01*
X62102380Y-101504761D02*
X62102380Y-100885714D01*
X62483333Y-101219047D01*
X62483333Y-101076190D01*
X62530952Y-100980952D01*
X62578571Y-100933333D01*
X62673809Y-100885714D01*
X62911904Y-100885714D01*
X63007142Y-100933333D01*
X63054761Y-100980952D01*
X63102380Y-101076190D01*
X63102380Y-101361904D01*
X63054761Y-101457142D01*
X63007142Y-101504761D01*
X62435714Y-100028571D02*
X63102380Y-100028571D01*
X62054761Y-100266666D02*
X62769047Y-100504761D01*
X62769047Y-99885714D01*
X63422380Y-105671904D02*
X62422380Y-105671904D01*
X63422380Y-105100476D02*
X62850952Y-105529047D01*
X62422380Y-105100476D02*
X62993809Y-105671904D01*
%TO.C,DL33*%
X63102380Y-84169047D02*
X62102380Y-84169047D01*
X62102380Y-83930952D01*
X62150000Y-83788095D01*
X62245238Y-83692857D01*
X62340476Y-83645238D01*
X62530952Y-83597619D01*
X62673809Y-83597619D01*
X62864285Y-83645238D01*
X62959523Y-83692857D01*
X63054761Y-83788095D01*
X63102380Y-83930952D01*
X63102380Y-84169047D01*
X63102380Y-82692857D02*
X63102380Y-83169047D01*
X62102380Y-83169047D01*
X62102380Y-82454761D02*
X62102380Y-81835714D01*
X62483333Y-82169047D01*
X62483333Y-82026190D01*
X62530952Y-81930952D01*
X62578571Y-81883333D01*
X62673809Y-81835714D01*
X62911904Y-81835714D01*
X63007142Y-81883333D01*
X63054761Y-81930952D01*
X63102380Y-82026190D01*
X63102380Y-82311904D01*
X63054761Y-82407142D01*
X63007142Y-82454761D01*
X62102380Y-81502380D02*
X62102380Y-80883333D01*
X62483333Y-81216666D01*
X62483333Y-81073809D01*
X62530952Y-80978571D01*
X62578571Y-80930952D01*
X62673809Y-80883333D01*
X62911904Y-80883333D01*
X63007142Y-80930952D01*
X63054761Y-80978571D01*
X63102380Y-81073809D01*
X63102380Y-81359523D01*
X63054761Y-81454761D01*
X63007142Y-81502380D01*
X63422380Y-86621904D02*
X62422380Y-86621904D01*
X63422380Y-86050476D02*
X62850952Y-86479047D01*
X62422380Y-86050476D02*
X62993809Y-86621904D01*
%TO.C,DL32*%
X63102380Y-65119047D02*
X62102380Y-65119047D01*
X62102380Y-64880952D01*
X62150000Y-64738095D01*
X62245238Y-64642857D01*
X62340476Y-64595238D01*
X62530952Y-64547619D01*
X62673809Y-64547619D01*
X62864285Y-64595238D01*
X62959523Y-64642857D01*
X63054761Y-64738095D01*
X63102380Y-64880952D01*
X63102380Y-65119047D01*
X63102380Y-63642857D02*
X63102380Y-64119047D01*
X62102380Y-64119047D01*
X62102380Y-63404761D02*
X62102380Y-62785714D01*
X62483333Y-63119047D01*
X62483333Y-62976190D01*
X62530952Y-62880952D01*
X62578571Y-62833333D01*
X62673809Y-62785714D01*
X62911904Y-62785714D01*
X63007142Y-62833333D01*
X63054761Y-62880952D01*
X63102380Y-62976190D01*
X63102380Y-63261904D01*
X63054761Y-63357142D01*
X63007142Y-63404761D01*
X62197619Y-62404761D02*
X62150000Y-62357142D01*
X62102380Y-62261904D01*
X62102380Y-62023809D01*
X62150000Y-61928571D01*
X62197619Y-61880952D01*
X62292857Y-61833333D01*
X62388095Y-61833333D01*
X62530952Y-61880952D01*
X63102380Y-62452380D01*
X63102380Y-61833333D01*
X63422380Y-67571904D02*
X62422380Y-67571904D01*
X63422380Y-67000476D02*
X62850952Y-67429047D01*
X62422380Y-67000476D02*
X62993809Y-67571904D01*
%TO.C,DL31*%
X63102380Y-46069047D02*
X62102380Y-46069047D01*
X62102380Y-45830952D01*
X62150000Y-45688095D01*
X62245238Y-45592857D01*
X62340476Y-45545238D01*
X62530952Y-45497619D01*
X62673809Y-45497619D01*
X62864285Y-45545238D01*
X62959523Y-45592857D01*
X63054761Y-45688095D01*
X63102380Y-45830952D01*
X63102380Y-46069047D01*
X63102380Y-44592857D02*
X63102380Y-45069047D01*
X62102380Y-45069047D01*
X62102380Y-44354761D02*
X62102380Y-43735714D01*
X62483333Y-44069047D01*
X62483333Y-43926190D01*
X62530952Y-43830952D01*
X62578571Y-43783333D01*
X62673809Y-43735714D01*
X62911904Y-43735714D01*
X63007142Y-43783333D01*
X63054761Y-43830952D01*
X63102380Y-43926190D01*
X63102380Y-44211904D01*
X63054761Y-44307142D01*
X63007142Y-44354761D01*
X63102380Y-42783333D02*
X63102380Y-43354761D01*
X63102380Y-43069047D02*
X62102380Y-43069047D01*
X62245238Y-43164285D01*
X62340476Y-43259523D01*
X62388095Y-43354761D01*
X63422380Y-48521904D02*
X62422380Y-48521904D01*
X63422380Y-47950476D02*
X62850952Y-48379047D01*
X62422380Y-47950476D02*
X62993809Y-48521904D01*
%TO.C,DL25*%
X63102380Y-122269047D02*
X62102380Y-122269047D01*
X62102380Y-122030952D01*
X62150000Y-121888095D01*
X62245238Y-121792857D01*
X62340476Y-121745238D01*
X62530952Y-121697619D01*
X62673809Y-121697619D01*
X62864285Y-121745238D01*
X62959523Y-121792857D01*
X63054761Y-121888095D01*
X63102380Y-122030952D01*
X63102380Y-122269047D01*
X63102380Y-120792857D02*
X63102380Y-121269047D01*
X62102380Y-121269047D01*
X62197619Y-120507142D02*
X62150000Y-120459523D01*
X62102380Y-120364285D01*
X62102380Y-120126190D01*
X62150000Y-120030952D01*
X62197619Y-119983333D01*
X62292857Y-119935714D01*
X62388095Y-119935714D01*
X62530952Y-119983333D01*
X63102380Y-120554761D01*
X63102380Y-119935714D01*
X62102380Y-119030952D02*
X62102380Y-119507142D01*
X62578571Y-119554761D01*
X62530952Y-119507142D01*
X62483333Y-119411904D01*
X62483333Y-119173809D01*
X62530952Y-119078571D01*
X62578571Y-119030952D01*
X62673809Y-118983333D01*
X62911904Y-118983333D01*
X63007142Y-119030952D01*
X63054761Y-119078571D01*
X63102380Y-119173809D01*
X63102380Y-119411904D01*
X63054761Y-119507142D01*
X63007142Y-119554761D01*
X63422380Y-124721904D02*
X62422380Y-124721904D01*
X63422380Y-124150476D02*
X62850952Y-124579047D01*
X62422380Y-124150476D02*
X62993809Y-124721904D01*
%TO.C,DL24*%
X44052380Y-108299047D02*
X43052380Y-108299047D01*
X43052380Y-108060952D01*
X43100000Y-107918095D01*
X43195238Y-107822857D01*
X43290476Y-107775238D01*
X43480952Y-107727619D01*
X43623809Y-107727619D01*
X43814285Y-107775238D01*
X43909523Y-107822857D01*
X44004761Y-107918095D01*
X44052380Y-108060952D01*
X44052380Y-108299047D01*
X44052380Y-106822857D02*
X44052380Y-107299047D01*
X43052380Y-107299047D01*
X43147619Y-106537142D02*
X43100000Y-106489523D01*
X43052380Y-106394285D01*
X43052380Y-106156190D01*
X43100000Y-106060952D01*
X43147619Y-106013333D01*
X43242857Y-105965714D01*
X43338095Y-105965714D01*
X43480952Y-106013333D01*
X44052380Y-106584761D01*
X44052380Y-105965714D01*
X43385714Y-105108571D02*
X44052380Y-105108571D01*
X43004761Y-105346666D02*
X43719047Y-105584761D01*
X43719047Y-104965714D01*
X44372380Y-110751904D02*
X43372380Y-110751904D01*
X44372380Y-110180476D02*
X43800952Y-110609047D01*
X43372380Y-110180476D02*
X43943809Y-110751904D01*
%TO.C,DL23*%
X44052380Y-89249047D02*
X43052380Y-89249047D01*
X43052380Y-89010952D01*
X43100000Y-88868095D01*
X43195238Y-88772857D01*
X43290476Y-88725238D01*
X43480952Y-88677619D01*
X43623809Y-88677619D01*
X43814285Y-88725238D01*
X43909523Y-88772857D01*
X44004761Y-88868095D01*
X44052380Y-89010952D01*
X44052380Y-89249047D01*
X44052380Y-87772857D02*
X44052380Y-88249047D01*
X43052380Y-88249047D01*
X43147619Y-87487142D02*
X43100000Y-87439523D01*
X43052380Y-87344285D01*
X43052380Y-87106190D01*
X43100000Y-87010952D01*
X43147619Y-86963333D01*
X43242857Y-86915714D01*
X43338095Y-86915714D01*
X43480952Y-86963333D01*
X44052380Y-87534761D01*
X44052380Y-86915714D01*
X43052380Y-86582380D02*
X43052380Y-85963333D01*
X43433333Y-86296666D01*
X43433333Y-86153809D01*
X43480952Y-86058571D01*
X43528571Y-86010952D01*
X43623809Y-85963333D01*
X43861904Y-85963333D01*
X43957142Y-86010952D01*
X44004761Y-86058571D01*
X44052380Y-86153809D01*
X44052380Y-86439523D01*
X44004761Y-86534761D01*
X43957142Y-86582380D01*
X44372380Y-91701904D02*
X43372380Y-91701904D01*
X44372380Y-91130476D02*
X43800952Y-91559047D01*
X43372380Y-91130476D02*
X43943809Y-91701904D01*
%TO.C,DL22*%
X44052380Y-70199047D02*
X43052380Y-70199047D01*
X43052380Y-69960952D01*
X43100000Y-69818095D01*
X43195238Y-69722857D01*
X43290476Y-69675238D01*
X43480952Y-69627619D01*
X43623809Y-69627619D01*
X43814285Y-69675238D01*
X43909523Y-69722857D01*
X44004761Y-69818095D01*
X44052380Y-69960952D01*
X44052380Y-70199047D01*
X44052380Y-68722857D02*
X44052380Y-69199047D01*
X43052380Y-69199047D01*
X43147619Y-68437142D02*
X43100000Y-68389523D01*
X43052380Y-68294285D01*
X43052380Y-68056190D01*
X43100000Y-67960952D01*
X43147619Y-67913333D01*
X43242857Y-67865714D01*
X43338095Y-67865714D01*
X43480952Y-67913333D01*
X44052380Y-68484761D01*
X44052380Y-67865714D01*
X43147619Y-67484761D02*
X43100000Y-67437142D01*
X43052380Y-67341904D01*
X43052380Y-67103809D01*
X43100000Y-67008571D01*
X43147619Y-66960952D01*
X43242857Y-66913333D01*
X43338095Y-66913333D01*
X43480952Y-66960952D01*
X44052380Y-67532380D01*
X44052380Y-66913333D01*
X44372380Y-72651904D02*
X43372380Y-72651904D01*
X44372380Y-72080476D02*
X43800952Y-72509047D01*
X43372380Y-72080476D02*
X43943809Y-72651904D01*
%TO.C,DL21*%
X44052380Y-51149047D02*
X43052380Y-51149047D01*
X43052380Y-50910952D01*
X43100000Y-50768095D01*
X43195238Y-50672857D01*
X43290476Y-50625238D01*
X43480952Y-50577619D01*
X43623809Y-50577619D01*
X43814285Y-50625238D01*
X43909523Y-50672857D01*
X44004761Y-50768095D01*
X44052380Y-50910952D01*
X44052380Y-51149047D01*
X44052380Y-49672857D02*
X44052380Y-50149047D01*
X43052380Y-50149047D01*
X43147619Y-49387142D02*
X43100000Y-49339523D01*
X43052380Y-49244285D01*
X43052380Y-49006190D01*
X43100000Y-48910952D01*
X43147619Y-48863333D01*
X43242857Y-48815714D01*
X43338095Y-48815714D01*
X43480952Y-48863333D01*
X44052380Y-49434761D01*
X44052380Y-48815714D01*
X44052380Y-47863333D02*
X44052380Y-48434761D01*
X44052380Y-48149047D02*
X43052380Y-48149047D01*
X43195238Y-48244285D01*
X43290476Y-48339523D01*
X43338095Y-48434761D01*
X44372380Y-53601904D02*
X43372380Y-53601904D01*
X44372380Y-53030476D02*
X43800952Y-53459047D01*
X43372380Y-53030476D02*
X43943809Y-53601904D01*
%TO.C,DL15*%
X44902380Y-127349047D02*
X43902380Y-127349047D01*
X43902380Y-127110952D01*
X43950000Y-126968095D01*
X44045238Y-126872857D01*
X44140476Y-126825238D01*
X44330952Y-126777619D01*
X44473809Y-126777619D01*
X44664285Y-126825238D01*
X44759523Y-126872857D01*
X44854761Y-126968095D01*
X44902380Y-127110952D01*
X44902380Y-127349047D01*
X44902380Y-125872857D02*
X44902380Y-126349047D01*
X43902380Y-126349047D01*
X44902380Y-125015714D02*
X44902380Y-125587142D01*
X44902380Y-125301428D02*
X43902380Y-125301428D01*
X44045238Y-125396666D01*
X44140476Y-125491904D01*
X44188095Y-125587142D01*
X43902380Y-124110952D02*
X43902380Y-124587142D01*
X44378571Y-124634761D01*
X44330952Y-124587142D01*
X44283333Y-124491904D01*
X44283333Y-124253809D01*
X44330952Y-124158571D01*
X44378571Y-124110952D01*
X44473809Y-124063333D01*
X44711904Y-124063333D01*
X44807142Y-124110952D01*
X44854761Y-124158571D01*
X44902380Y-124253809D01*
X44902380Y-124491904D01*
X44854761Y-124587142D01*
X44807142Y-124634761D01*
X44372380Y-129801904D02*
X43372380Y-129801904D01*
X44372380Y-129230476D02*
X43800952Y-129659047D01*
X43372380Y-129230476D02*
X43943809Y-129801904D01*
%TO.C,DL14*%
X25852380Y-108299047D02*
X24852380Y-108299047D01*
X24852380Y-108060952D01*
X24900000Y-107918095D01*
X24995238Y-107822857D01*
X25090476Y-107775238D01*
X25280952Y-107727619D01*
X25423809Y-107727619D01*
X25614285Y-107775238D01*
X25709523Y-107822857D01*
X25804761Y-107918095D01*
X25852380Y-108060952D01*
X25852380Y-108299047D01*
X25852380Y-106822857D02*
X25852380Y-107299047D01*
X24852380Y-107299047D01*
X25852380Y-105965714D02*
X25852380Y-106537142D01*
X25852380Y-106251428D02*
X24852380Y-106251428D01*
X24995238Y-106346666D01*
X25090476Y-106441904D01*
X25138095Y-106537142D01*
X25185714Y-105108571D02*
X25852380Y-105108571D01*
X24804761Y-105346666D02*
X25519047Y-105584761D01*
X25519047Y-104965714D01*
X25322380Y-110751904D02*
X24322380Y-110751904D01*
X25322380Y-110180476D02*
X24750952Y-110609047D01*
X24322380Y-110180476D02*
X24893809Y-110751904D01*
%TO.C,DL13*%
X25852380Y-89249047D02*
X24852380Y-89249047D01*
X24852380Y-89010952D01*
X24900000Y-88868095D01*
X24995238Y-88772857D01*
X25090476Y-88725238D01*
X25280952Y-88677619D01*
X25423809Y-88677619D01*
X25614285Y-88725238D01*
X25709523Y-88772857D01*
X25804761Y-88868095D01*
X25852380Y-89010952D01*
X25852380Y-89249047D01*
X25852380Y-87772857D02*
X25852380Y-88249047D01*
X24852380Y-88249047D01*
X25852380Y-86915714D02*
X25852380Y-87487142D01*
X25852380Y-87201428D02*
X24852380Y-87201428D01*
X24995238Y-87296666D01*
X25090476Y-87391904D01*
X25138095Y-87487142D01*
X24852380Y-86582380D02*
X24852380Y-85963333D01*
X25233333Y-86296666D01*
X25233333Y-86153809D01*
X25280952Y-86058571D01*
X25328571Y-86010952D01*
X25423809Y-85963333D01*
X25661904Y-85963333D01*
X25757142Y-86010952D01*
X25804761Y-86058571D01*
X25852380Y-86153809D01*
X25852380Y-86439523D01*
X25804761Y-86534761D01*
X25757142Y-86582380D01*
X25322380Y-91701904D02*
X24322380Y-91701904D01*
X25322380Y-91130476D02*
X24750952Y-91559047D01*
X24322380Y-91130476D02*
X24893809Y-91701904D01*
%TO.C,DL12*%
X25852380Y-70199047D02*
X24852380Y-70199047D01*
X24852380Y-69960952D01*
X24900000Y-69818095D01*
X24995238Y-69722857D01*
X25090476Y-69675238D01*
X25280952Y-69627619D01*
X25423809Y-69627619D01*
X25614285Y-69675238D01*
X25709523Y-69722857D01*
X25804761Y-69818095D01*
X25852380Y-69960952D01*
X25852380Y-70199047D01*
X25852380Y-68722857D02*
X25852380Y-69199047D01*
X24852380Y-69199047D01*
X25852380Y-67865714D02*
X25852380Y-68437142D01*
X25852380Y-68151428D02*
X24852380Y-68151428D01*
X24995238Y-68246666D01*
X25090476Y-68341904D01*
X25138095Y-68437142D01*
X24947619Y-67484761D02*
X24900000Y-67437142D01*
X24852380Y-67341904D01*
X24852380Y-67103809D01*
X24900000Y-67008571D01*
X24947619Y-66960952D01*
X25042857Y-66913333D01*
X25138095Y-66913333D01*
X25280952Y-66960952D01*
X25852380Y-67532380D01*
X25852380Y-66913333D01*
X25322380Y-72651904D02*
X24322380Y-72651904D01*
X25322380Y-72080476D02*
X24750952Y-72509047D01*
X24322380Y-72080476D02*
X24893809Y-72651904D01*
%TO.C,DL11*%
X25852380Y-51149047D02*
X24852380Y-51149047D01*
X24852380Y-50910952D01*
X24900000Y-50768095D01*
X24995238Y-50672857D01*
X25090476Y-50625238D01*
X25280952Y-50577619D01*
X25423809Y-50577619D01*
X25614285Y-50625238D01*
X25709523Y-50672857D01*
X25804761Y-50768095D01*
X25852380Y-50910952D01*
X25852380Y-51149047D01*
X25852380Y-49672857D02*
X25852380Y-50149047D01*
X24852380Y-50149047D01*
X25852380Y-48815714D02*
X25852380Y-49387142D01*
X25852380Y-49101428D02*
X24852380Y-49101428D01*
X24995238Y-49196666D01*
X25090476Y-49291904D01*
X25138095Y-49387142D01*
X25852380Y-47863333D02*
X25852380Y-48434761D01*
X25852380Y-48149047D02*
X24852380Y-48149047D01*
X24995238Y-48244285D01*
X25090476Y-48339523D01*
X25138095Y-48434761D01*
X25322380Y-53601904D02*
X24322380Y-53601904D01*
X25322380Y-53030476D02*
X24750952Y-53459047D01*
X24322380Y-53030476D02*
X24893809Y-53601904D01*
%TD*%
M02*
