%TF.GenerationSoftware,KiCad,Pcbnew,(5.1.9)-1*%
%TF.CreationDate,2021-03-27T16:34:22+07:00*%
%TF.ProjectId,LetsSplit256,4c657473-5370-46c6-9974-3235362e6b69,rev?*%
%TF.SameCoordinates,Original*%
%TF.FileFunction,Other,User*%
%FSLAX46Y46*%
G04 Gerber Fmt 4.6, Leading zero omitted, Abs format (unit mm)*
G04 Created by KiCad (PCBNEW (5.1.9)-1) date 2021-03-27 16:34:22*
%MOMM*%
%LPD*%
G01*
G04 APERTURE LIST*
%ADD10C,0.050000*%
%ADD11C,0.150000*%
G04 APERTURE END LIST*
D10*
%TO.C,JL1*%
X148060000Y-83080000D02*
X159260000Y-83080000D01*
X159260000Y-83080000D02*
X159260000Y-79480000D01*
X159260000Y-79480000D02*
X148060000Y-79480000D01*
X148060000Y-79480000D02*
X148060000Y-83080000D01*
%TO.C,JL2*%
X159280000Y-85830000D02*
X148080000Y-85830000D01*
X148080000Y-85830000D02*
X148080000Y-89430000D01*
X148080000Y-89430000D02*
X159280000Y-89430000D01*
X159280000Y-89430000D02*
X159280000Y-85830000D01*
D11*
%TO.C,KLZ1*%
X47610000Y-95870000D02*
X47610000Y-109870000D01*
X47610000Y-109870000D02*
X61610000Y-109870000D01*
X61610000Y-109870000D02*
X61610000Y-95870000D01*
X61610000Y-95870000D02*
X47610000Y-95870000D01*
X45085000Y-93345000D02*
X64135000Y-93345000D01*
X64135000Y-93345000D02*
X64135000Y-112395000D01*
X64135000Y-112395000D02*
X45085000Y-112395000D01*
X45085000Y-112395000D02*
X45085000Y-93345000D01*
%TO.C,KLX1*%
X66660000Y-90790000D02*
X66660000Y-104790000D01*
X66660000Y-104790000D02*
X80660000Y-104790000D01*
X80660000Y-104790000D02*
X80660000Y-90790000D01*
X80660000Y-90790000D02*
X66660000Y-90790000D01*
X64135000Y-88265000D02*
X83185000Y-88265000D01*
X83185000Y-88265000D02*
X83185000Y-107315000D01*
X83185000Y-107315000D02*
X64135000Y-107315000D01*
X64135000Y-107315000D02*
X64135000Y-88265000D01*
%TO.C,KLW1*%
X66660000Y-52690000D02*
X66660000Y-66690000D01*
X66660000Y-66690000D02*
X80660000Y-66690000D01*
X80660000Y-66690000D02*
X80660000Y-52690000D01*
X80660000Y-52690000D02*
X66660000Y-52690000D01*
X64135000Y-50165000D02*
X83185000Y-50165000D01*
X83185000Y-50165000D02*
X83185000Y-69215000D01*
X83185000Y-69215000D02*
X64135000Y-69215000D01*
X64135000Y-69215000D02*
X64135000Y-50165000D01*
%TO.C,KLV1*%
X104760000Y-90790000D02*
X104760000Y-104790000D01*
X104760000Y-104790000D02*
X118760000Y-104790000D01*
X118760000Y-104790000D02*
X118760000Y-90790000D01*
X118760000Y-90790000D02*
X104760000Y-90790000D01*
X102235000Y-88265000D02*
X121285000Y-88265000D01*
X121285000Y-88265000D02*
X121285000Y-107315000D01*
X121285000Y-107315000D02*
X102235000Y-107315000D01*
X102235000Y-107315000D02*
X102235000Y-88265000D01*
%TO.C,KLR1*%
X104760000Y-52690000D02*
X104760000Y-66690000D01*
X104760000Y-66690000D02*
X118760000Y-66690000D01*
X118760000Y-66690000D02*
X118760000Y-52690000D01*
X118760000Y-52690000D02*
X104760000Y-52690000D01*
X102235000Y-50165000D02*
X121285000Y-50165000D01*
X121285000Y-50165000D02*
X121285000Y-69215000D01*
X121285000Y-69215000D02*
X102235000Y-69215000D01*
X102235000Y-69215000D02*
X102235000Y-50165000D01*
%TO.C,KLQ1*%
X47610000Y-57770000D02*
X47610000Y-71770000D01*
X47610000Y-71770000D02*
X61610000Y-71770000D01*
X61610000Y-71770000D02*
X61610000Y-57770000D01*
X61610000Y-57770000D02*
X47610000Y-57770000D01*
X45085000Y-55245000D02*
X64135000Y-55245000D01*
X64135000Y-55245000D02*
X64135000Y-74295000D01*
X64135000Y-74295000D02*
X45085000Y-74295000D01*
X45085000Y-74295000D02*
X45085000Y-55245000D01*
%TO.C,KLFunc65*%
X140335000Y-142875000D02*
X140335000Y-123825000D01*
X159385000Y-142875000D02*
X140335000Y-142875000D01*
X159385000Y-123825000D02*
X159385000Y-142875000D01*
X140335000Y-123825000D02*
X159385000Y-123825000D01*
X156860000Y-126350000D02*
X142860000Y-126350000D01*
X156860000Y-140350000D02*
X156860000Y-126350000D01*
X142860000Y-140350000D02*
X156860000Y-140350000D01*
X142860000Y-126350000D02*
X142860000Y-140350000D01*
%TO.C,KLFunc55*%
X123810000Y-114920000D02*
X123810000Y-128920000D01*
X123810000Y-128920000D02*
X137810000Y-128920000D01*
X137810000Y-128920000D02*
X137810000Y-114920000D01*
X137810000Y-114920000D02*
X123810000Y-114920000D01*
X121285000Y-112395000D02*
X140335000Y-112395000D01*
X140335000Y-112395000D02*
X140335000Y-131445000D01*
X140335000Y-131445000D02*
X121285000Y-131445000D01*
X121285000Y-131445000D02*
X121285000Y-112395000D01*
%TO.C,KLFunc35*%
X85710000Y-104760000D02*
X85710000Y-118760000D01*
X85710000Y-118760000D02*
X99710000Y-118760000D01*
X99710000Y-118760000D02*
X99710000Y-104760000D01*
X99710000Y-104760000D02*
X85710000Y-104760000D01*
X83185000Y-102235000D02*
X102235000Y-102235000D01*
X102235000Y-102235000D02*
X102235000Y-121285000D01*
X102235000Y-121285000D02*
X83185000Y-121285000D01*
X83185000Y-121285000D02*
X83185000Y-102235000D01*
%TO.C,KLFunc25*%
X66660000Y-109840000D02*
X66660000Y-123840000D01*
X66660000Y-123840000D02*
X80660000Y-123840000D01*
X80660000Y-123840000D02*
X80660000Y-109840000D01*
X80660000Y-109840000D02*
X66660000Y-109840000D01*
X64135000Y-107315000D02*
X83185000Y-107315000D01*
X83185000Y-107315000D02*
X83185000Y-126365000D01*
X83185000Y-126365000D02*
X64135000Y-126365000D01*
X64135000Y-126365000D02*
X64135000Y-107315000D01*
%TO.C,KLFunc15*%
X47610000Y-114920000D02*
X47610000Y-128920000D01*
X47610000Y-128920000D02*
X61610000Y-128920000D01*
X61610000Y-128920000D02*
X61610000Y-114920000D01*
X61610000Y-114920000D02*
X47610000Y-114920000D01*
X45085000Y-112395000D02*
X64135000Y-112395000D01*
X64135000Y-112395000D02*
X64135000Y-131445000D01*
X64135000Y-131445000D02*
X45085000Y-131445000D01*
X45085000Y-131445000D02*
X45085000Y-112395000D01*
%TO.C,KLFunc14*%
X28560000Y-95870000D02*
X28560000Y-109870000D01*
X28560000Y-109870000D02*
X42560000Y-109870000D01*
X42560000Y-109870000D02*
X42560000Y-95870000D01*
X42560000Y-95870000D02*
X28560000Y-95870000D01*
X26035000Y-93345000D02*
X45085000Y-93345000D01*
X45085000Y-93345000D02*
X45085000Y-112395000D01*
X45085000Y-112395000D02*
X26035000Y-112395000D01*
X26035000Y-112395000D02*
X26035000Y-93345000D01*
%TO.C,KLFunc13*%
X28560000Y-76820000D02*
X28560000Y-90820000D01*
X28560000Y-90820000D02*
X42560000Y-90820000D01*
X42560000Y-90820000D02*
X42560000Y-76820000D01*
X42560000Y-76820000D02*
X28560000Y-76820000D01*
X26035000Y-74295000D02*
X45085000Y-74295000D01*
X45085000Y-74295000D02*
X45085000Y-93345000D01*
X45085000Y-93345000D02*
X26035000Y-93345000D01*
X26035000Y-93345000D02*
X26035000Y-74295000D01*
%TO.C,KLFunc12*%
X28560000Y-57770000D02*
X28560000Y-71770000D01*
X28560000Y-71770000D02*
X42560000Y-71770000D01*
X42560000Y-71770000D02*
X42560000Y-57770000D01*
X42560000Y-57770000D02*
X28560000Y-57770000D01*
X26035000Y-55245000D02*
X45085000Y-55245000D01*
X45085000Y-55245000D02*
X45085000Y-74295000D01*
X45085000Y-74295000D02*
X26035000Y-74295000D01*
X26035000Y-74295000D02*
X26035000Y-55245000D01*
%TO.C,KLFunc11*%
X28560000Y-38720000D02*
X28560000Y-52720000D01*
X28560000Y-52720000D02*
X42560000Y-52720000D01*
X42560000Y-52720000D02*
X42560000Y-38720000D01*
X42560000Y-38720000D02*
X28560000Y-38720000D01*
X26035000Y-36195000D02*
X45085000Y-36195000D01*
X45085000Y-36195000D02*
X45085000Y-55245000D01*
X45085000Y-55245000D02*
X26035000Y-55245000D01*
X26035000Y-55245000D02*
X26035000Y-36195000D01*
%TO.C,KLF1*%
X104760000Y-71740000D02*
X104760000Y-85740000D01*
X104760000Y-85740000D02*
X118760000Y-85740000D01*
X118760000Y-85740000D02*
X118760000Y-71740000D01*
X118760000Y-71740000D02*
X104760000Y-71740000D01*
X102235000Y-69215000D02*
X121285000Y-69215000D01*
X121285000Y-69215000D02*
X121285000Y-88265000D01*
X121285000Y-88265000D02*
X102235000Y-88265000D01*
X102235000Y-88265000D02*
X102235000Y-69215000D01*
%TO.C,KLE1*%
X85710000Y-47610000D02*
X85710000Y-61610000D01*
X85710000Y-61610000D02*
X99710000Y-61610000D01*
X99710000Y-61610000D02*
X99710000Y-47610000D01*
X99710000Y-47610000D02*
X85710000Y-47610000D01*
X83185000Y-45085000D02*
X102235000Y-45085000D01*
X102235000Y-45085000D02*
X102235000Y-64135000D01*
X102235000Y-64135000D02*
X83185000Y-64135000D01*
X83185000Y-64135000D02*
X83185000Y-45085000D01*
%TO.C,KLD1*%
X85710000Y-66660000D02*
X85710000Y-80660000D01*
X85710000Y-80660000D02*
X99710000Y-80660000D01*
X99710000Y-80660000D02*
X99710000Y-66660000D01*
X99710000Y-66660000D02*
X85710000Y-66660000D01*
X83185000Y-64135000D02*
X102235000Y-64135000D01*
X102235000Y-64135000D02*
X102235000Y-83185000D01*
X102235000Y-83185000D02*
X83185000Y-83185000D01*
X83185000Y-83185000D02*
X83185000Y-64135000D01*
%TO.C,KLC1*%
X85710000Y-85710000D02*
X85710000Y-99710000D01*
X85710000Y-99710000D02*
X99710000Y-99710000D01*
X99710000Y-99710000D02*
X99710000Y-85710000D01*
X99710000Y-85710000D02*
X85710000Y-85710000D01*
X83185000Y-83185000D02*
X102235000Y-83185000D01*
X102235000Y-83185000D02*
X102235000Y-102235000D01*
X102235000Y-102235000D02*
X83185000Y-102235000D01*
X83185000Y-102235000D02*
X83185000Y-83185000D01*
%TO.C,KLB1*%
X123810000Y-95870000D02*
X123810000Y-109870000D01*
X123810000Y-109870000D02*
X137810000Y-109870000D01*
X137810000Y-109870000D02*
X137810000Y-95870000D01*
X137810000Y-95870000D02*
X123810000Y-95870000D01*
X121285000Y-93345000D02*
X140335000Y-93345000D01*
X140335000Y-93345000D02*
X140335000Y-112395000D01*
X140335000Y-112395000D02*
X121285000Y-112395000D01*
X121285000Y-112395000D02*
X121285000Y-93345000D01*
%TO.C,KLA1*%
X47610000Y-76820000D02*
X47610000Y-90820000D01*
X47610000Y-90820000D02*
X61610000Y-90820000D01*
X61610000Y-90820000D02*
X61610000Y-76820000D01*
X61610000Y-76820000D02*
X47610000Y-76820000D01*
X45085000Y-74295000D02*
X64135000Y-74295000D01*
X64135000Y-74295000D02*
X64135000Y-93345000D01*
X64135000Y-93345000D02*
X45085000Y-93345000D01*
X45085000Y-93345000D02*
X45085000Y-74295000D01*
%TO.C,KL4*%
X104760000Y-33640000D02*
X104760000Y-47640000D01*
X104760000Y-47640000D02*
X118760000Y-47640000D01*
X118760000Y-47640000D02*
X118760000Y-33640000D01*
X118760000Y-33640000D02*
X104760000Y-33640000D01*
X102235000Y-31115000D02*
X121285000Y-31115000D01*
X121285000Y-31115000D02*
X121285000Y-50165000D01*
X121285000Y-50165000D02*
X102235000Y-50165000D01*
X102235000Y-50165000D02*
X102235000Y-31115000D01*
%TO.C,KL3*%
X85710000Y-28560000D02*
X85710000Y-42560000D01*
X85710000Y-42560000D02*
X99710000Y-42560000D01*
X99710000Y-42560000D02*
X99710000Y-28560000D01*
X99710000Y-28560000D02*
X85710000Y-28560000D01*
X83185000Y-26035000D02*
X102235000Y-26035000D01*
X102235000Y-26035000D02*
X102235000Y-45085000D01*
X102235000Y-45085000D02*
X83185000Y-45085000D01*
X83185000Y-45085000D02*
X83185000Y-26035000D01*
%TO.C,KL2*%
X66660000Y-33640000D02*
X66660000Y-47640000D01*
X66660000Y-47640000D02*
X80660000Y-47640000D01*
X80660000Y-47640000D02*
X80660000Y-33640000D01*
X80660000Y-33640000D02*
X66660000Y-33640000D01*
X64135000Y-31115000D02*
X83185000Y-31115000D01*
X83185000Y-31115000D02*
X83185000Y-50165000D01*
X83185000Y-50165000D02*
X64135000Y-50165000D01*
X64135000Y-50165000D02*
X64135000Y-31115000D01*
%TO.C,KL1*%
X47610000Y-38720000D02*
X47610000Y-52720000D01*
X47610000Y-52720000D02*
X61610000Y-52720000D01*
X61610000Y-52720000D02*
X61610000Y-38720000D01*
X61610000Y-38720000D02*
X47610000Y-38720000D01*
X45085000Y-36195000D02*
X64135000Y-36195000D01*
X64135000Y-36195000D02*
X64135000Y-55245000D01*
X64135000Y-55245000D02*
X45085000Y-55245000D01*
X45085000Y-55245000D02*
X45085000Y-36195000D01*
%TO.C,KLS1*%
X66660000Y-71740000D02*
X66660000Y-85740000D01*
X66660000Y-85740000D02*
X80660000Y-85740000D01*
X80660000Y-85740000D02*
X80660000Y-71740000D01*
X80660000Y-71740000D02*
X66660000Y-71740000D01*
X64135000Y-69215000D02*
X83185000Y-69215000D01*
X83185000Y-69215000D02*
X83185000Y-88265000D01*
X83185000Y-88265000D02*
X64135000Y-88265000D01*
X64135000Y-88265000D02*
X64135000Y-69215000D01*
%TO.C,KLFunc45*%
X104760000Y-109840000D02*
X104760000Y-123840000D01*
X104760000Y-123840000D02*
X118760000Y-123840000D01*
X118760000Y-123840000D02*
X118760000Y-109840000D01*
X118760000Y-109840000D02*
X104760000Y-109840000D01*
X102235000Y-107315000D02*
X121285000Y-107315000D01*
X121285000Y-107315000D02*
X121285000Y-126365000D01*
X121285000Y-126365000D02*
X102235000Y-126365000D01*
X102235000Y-126365000D02*
X102235000Y-107315000D01*
%TO.C,KLT1*%
X123810000Y-57770000D02*
X123810000Y-71770000D01*
X123810000Y-71770000D02*
X137810000Y-71770000D01*
X137810000Y-71770000D02*
X137810000Y-57770000D01*
X137810000Y-57770000D02*
X123810000Y-57770000D01*
X121285000Y-55245000D02*
X140335000Y-55245000D01*
X140335000Y-55245000D02*
X140335000Y-74295000D01*
X140335000Y-74295000D02*
X121285000Y-74295000D01*
X121285000Y-74295000D02*
X121285000Y-55245000D01*
%TO.C,KL5*%
X123810000Y-38720000D02*
X123810000Y-52720000D01*
X123810000Y-52720000D02*
X137810000Y-52720000D01*
X137810000Y-52720000D02*
X137810000Y-38720000D01*
X137810000Y-38720000D02*
X123810000Y-38720000D01*
X121285000Y-36195000D02*
X140335000Y-36195000D01*
X140335000Y-36195000D02*
X140335000Y-55245000D01*
X140335000Y-55245000D02*
X121285000Y-55245000D01*
X121285000Y-55245000D02*
X121285000Y-36195000D01*
%TO.C,KLG1*%
X123810000Y-76820000D02*
X123810000Y-90820000D01*
X123810000Y-90820000D02*
X137810000Y-90820000D01*
X137810000Y-90820000D02*
X137810000Y-76820000D01*
X137810000Y-76820000D02*
X123810000Y-76820000D01*
X121285000Y-74295000D02*
X140335000Y-74295000D01*
X140335000Y-74295000D02*
X140335000Y-93345000D01*
X140335000Y-93345000D02*
X121285000Y-93345000D01*
X121285000Y-93345000D02*
X121285000Y-74295000D01*
D10*
%TO.C,DL65*%
X139720000Y-132300000D02*
X139720000Y-142020000D01*
X142220000Y-132300000D02*
X139720000Y-132300000D01*
X142220000Y-142020000D02*
X142220000Y-132300000D01*
X139720000Y-142020000D02*
X142220000Y-142020000D01*
%TO.C,DL64*%
X120670000Y-111540000D02*
X123170000Y-111540000D01*
X123170000Y-111540000D02*
X123170000Y-101820000D01*
X123170000Y-101820000D02*
X120670000Y-101820000D01*
X120670000Y-101820000D02*
X120670000Y-111540000D01*
%TO.C,DL63*%
X120670000Y-82770000D02*
X120670000Y-92490000D01*
X123170000Y-82770000D02*
X120670000Y-82770000D01*
X123170000Y-92490000D02*
X123170000Y-82770000D01*
X120670000Y-92490000D02*
X123170000Y-92490000D01*
%TO.C,DL62*%
X120670000Y-63720000D02*
X120670000Y-73440000D01*
X123170000Y-63720000D02*
X120670000Y-63720000D01*
X123170000Y-73440000D02*
X123170000Y-63720000D01*
X120670000Y-73440000D02*
X123170000Y-73440000D01*
%TO.C,DL61*%
X120670000Y-44670000D02*
X120670000Y-54390000D01*
X123170000Y-44670000D02*
X120670000Y-44670000D01*
X123170000Y-54390000D02*
X123170000Y-44670000D01*
X120670000Y-54390000D02*
X123170000Y-54390000D01*
%TO.C,DL55*%
X120670000Y-130590000D02*
X123170000Y-130590000D01*
X123170000Y-130590000D02*
X123170000Y-120870000D01*
X123170000Y-120870000D02*
X120670000Y-120870000D01*
X120670000Y-120870000D02*
X120670000Y-130590000D01*
%TO.C,DL54*%
X101620000Y-96740000D02*
X101620000Y-106460000D01*
X104120000Y-96740000D02*
X101620000Y-96740000D01*
X104120000Y-106460000D02*
X104120000Y-96740000D01*
X101620000Y-106460000D02*
X104120000Y-106460000D01*
%TO.C,DL53*%
X101620000Y-87410000D02*
X104120000Y-87410000D01*
X104120000Y-87410000D02*
X104120000Y-77690000D01*
X104120000Y-77690000D02*
X101620000Y-77690000D01*
X101620000Y-77690000D02*
X101620000Y-87410000D01*
%TO.C,DL52*%
X101620000Y-68360000D02*
X104120000Y-68360000D01*
X104120000Y-68360000D02*
X104120000Y-58640000D01*
X104120000Y-58640000D02*
X101620000Y-58640000D01*
X101620000Y-58640000D02*
X101620000Y-68360000D01*
%TO.C,DL51*%
X101620000Y-49310000D02*
X104120000Y-49310000D01*
X104120000Y-49310000D02*
X104120000Y-39590000D01*
X104120000Y-39590000D02*
X101620000Y-39590000D01*
X101620000Y-39590000D02*
X101620000Y-49310000D01*
%TO.C,DL45*%
X101620000Y-115790000D02*
X101620000Y-125510000D01*
X104120000Y-115790000D02*
X101620000Y-115790000D01*
X104120000Y-125510000D02*
X104120000Y-115790000D01*
X101620000Y-125510000D02*
X104120000Y-125510000D01*
%TO.C,DL44*%
X82570000Y-101380000D02*
X85070000Y-101380000D01*
X85070000Y-101380000D02*
X85070000Y-91660000D01*
X85070000Y-91660000D02*
X82570000Y-91660000D01*
X82570000Y-91660000D02*
X82570000Y-101380000D01*
%TO.C,DL43*%
X82570000Y-72610000D02*
X82570000Y-82330000D01*
X85070000Y-72610000D02*
X82570000Y-72610000D01*
X85070000Y-82330000D02*
X85070000Y-72610000D01*
X82570000Y-82330000D02*
X85070000Y-82330000D01*
%TO.C,DL42*%
X82570000Y-53560000D02*
X82570000Y-63280000D01*
X85070000Y-53560000D02*
X82570000Y-53560000D01*
X85070000Y-63280000D02*
X85070000Y-53560000D01*
X82570000Y-63280000D02*
X85070000Y-63280000D01*
%TO.C,DL41*%
X82570000Y-34510000D02*
X82570000Y-44230000D01*
X85070000Y-34510000D02*
X82570000Y-34510000D01*
X85070000Y-44230000D02*
X85070000Y-34510000D01*
X82570000Y-44230000D02*
X85070000Y-44230000D01*
%TO.C,DL35*%
X82570000Y-120430000D02*
X85070000Y-120430000D01*
X85070000Y-120430000D02*
X85070000Y-110710000D01*
X85070000Y-110710000D02*
X82570000Y-110710000D01*
X82570000Y-110710000D02*
X82570000Y-120430000D01*
%TO.C,DL34*%
X63520000Y-96740000D02*
X63520000Y-106460000D01*
X66020000Y-96740000D02*
X63520000Y-96740000D01*
X66020000Y-106460000D02*
X66020000Y-96740000D01*
X63520000Y-106460000D02*
X66020000Y-106460000D01*
%TO.C,DL33*%
X63520000Y-87410000D02*
X66020000Y-87410000D01*
X66020000Y-87410000D02*
X66020000Y-77690000D01*
X66020000Y-77690000D02*
X63520000Y-77690000D01*
X63520000Y-77690000D02*
X63520000Y-87410000D01*
%TO.C,DL32*%
X63520000Y-68360000D02*
X66020000Y-68360000D01*
X66020000Y-68360000D02*
X66020000Y-58640000D01*
X66020000Y-58640000D02*
X63520000Y-58640000D01*
X63520000Y-58640000D02*
X63520000Y-68360000D01*
%TO.C,DL31*%
X63520000Y-49310000D02*
X66020000Y-49310000D01*
X66020000Y-49310000D02*
X66020000Y-39590000D01*
X66020000Y-39590000D02*
X63520000Y-39590000D01*
X63520000Y-39590000D02*
X63520000Y-49310000D01*
%TO.C,DL25*%
X63520000Y-115790000D02*
X63520000Y-125510000D01*
X66020000Y-115790000D02*
X63520000Y-115790000D01*
X66020000Y-125510000D02*
X66020000Y-115790000D01*
X63520000Y-125510000D02*
X66020000Y-125510000D01*
%TO.C,DL24*%
X44470000Y-111540000D02*
X46970000Y-111540000D01*
X46970000Y-111540000D02*
X46970000Y-101820000D01*
X46970000Y-101820000D02*
X44470000Y-101820000D01*
X44470000Y-101820000D02*
X44470000Y-111540000D01*
%TO.C,DL23*%
X44470000Y-82770000D02*
X44470000Y-92490000D01*
X46970000Y-82770000D02*
X44470000Y-82770000D01*
X46970000Y-92490000D02*
X46970000Y-82770000D01*
X44470000Y-92490000D02*
X46970000Y-92490000D01*
%TO.C,DL22*%
X44470000Y-73440000D02*
X46970000Y-73440000D01*
X46970000Y-73440000D02*
X46970000Y-63720000D01*
X46970000Y-63720000D02*
X44470000Y-63720000D01*
X44470000Y-63720000D02*
X44470000Y-73440000D01*
%TO.C,DL21*%
X44470000Y-44670000D02*
X44470000Y-54390000D01*
X46970000Y-44670000D02*
X44470000Y-44670000D01*
X46970000Y-54390000D02*
X46970000Y-44670000D01*
X44470000Y-54390000D02*
X46970000Y-54390000D01*
%TO.C,DL15*%
X44470000Y-130590000D02*
X46970000Y-130590000D01*
X46970000Y-130590000D02*
X46970000Y-120870000D01*
X46970000Y-120870000D02*
X44470000Y-120870000D01*
X44470000Y-120870000D02*
X44470000Y-130590000D01*
%TO.C,DL14*%
X25420000Y-111540000D02*
X27920000Y-111540000D01*
X27920000Y-111540000D02*
X27920000Y-101820000D01*
X27920000Y-101820000D02*
X25420000Y-101820000D01*
X25420000Y-101820000D02*
X25420000Y-111540000D01*
%TO.C,DL13*%
X25420000Y-82770000D02*
X25420000Y-92490000D01*
X27920000Y-82770000D02*
X25420000Y-82770000D01*
X27920000Y-92490000D02*
X27920000Y-82770000D01*
X25420000Y-92490000D02*
X27920000Y-92490000D01*
%TO.C,DL12*%
X25420000Y-63720000D02*
X25420000Y-73440000D01*
X27920000Y-63720000D02*
X25420000Y-63720000D01*
X27920000Y-73440000D02*
X27920000Y-63720000D01*
X25420000Y-73440000D02*
X27920000Y-73440000D01*
%TO.C,DL11*%
X25420000Y-54390000D02*
X27920000Y-54390000D01*
X27920000Y-54390000D02*
X27920000Y-44670000D01*
X27920000Y-44670000D02*
X25420000Y-44670000D01*
X25420000Y-44670000D02*
X25420000Y-54390000D01*
%TD*%
M02*
