%FSLAX45Y45*%
G04 Gerber Fmt 4.5, Leading zero omitted, Abs format (unit mm)*
G04 Created by KiCad (PCBNEW (5.1.9)-1) date 2021-03-27 16:34:16*
%MOMM*%
%LPD*%
G01*
G04 APERTURE LIST*
%TA.AperFunction,Profile*%
%ADD10C,0.050000*%
%TD*%
%TA.AperFunction,Profile*%
%ADD11C,0.150000*%
%TD*%
%ADD12C,0.200000*%
%ADD13C,0.300000*%
G04 APERTURE END LIST*
D10*
X2413000Y-11176000D02*
X4445000Y-13208000D01*
X16129000Y-14097000D02*
X16129000Y-13081000D01*
X15875000Y-14351000D02*
X16129000Y-14097000D01*
X13970000Y-14351000D02*
X15875000Y-14351000D01*
X13716000Y-14097000D02*
X13970000Y-14351000D01*
X13716000Y-13462000D02*
X13716000Y-14097000D01*
X13462000Y-13208000D02*
X13716000Y-13462000D01*
X6350000Y-13208000D02*
X13462000Y-13208000D01*
X4445000Y-13208000D02*
X6350000Y-13208000D01*
X13970000Y-3556000D02*
X14097000Y-3683000D01*
X12319000Y-3556000D02*
X13970000Y-3556000D01*
X12192000Y-3429000D02*
X12319000Y-3556000D01*
X12192000Y-3175000D02*
X12192000Y-3429000D01*
X12065000Y-3048000D02*
X12192000Y-3175000D01*
X10414000Y-3048000D02*
X12065000Y-3048000D01*
X10287000Y-2921000D02*
X10414000Y-3048000D01*
X10287000Y-2667000D02*
X10287000Y-2921000D01*
X10160000Y-2540000D02*
X10287000Y-2667000D01*
X8382000Y-2540000D02*
X10160000Y-2540000D01*
X8255000Y-2667000D02*
X8382000Y-2540000D01*
X8255000Y-2921000D02*
X8255000Y-2667000D01*
X8128000Y-3048000D02*
X8255000Y-2921000D01*
X6477000Y-3048000D02*
X8128000Y-3048000D01*
X6350000Y-3175000D02*
X6477000Y-3048000D01*
X6350000Y-3429000D02*
X6350000Y-3175000D01*
X6223000Y-3556000D02*
X6350000Y-3429000D01*
X2540000Y-3556000D02*
X6223000Y-3556000D01*
X2540000Y-3556000D02*
X2413000Y-3683000D01*
X14732000Y-9525000D02*
X14732000Y-10287000D01*
X16129000Y-9398000D02*
X16129000Y-4064000D01*
X16129000Y-10414000D02*
X16129000Y-13081000D01*
X16002000Y-9525000D02*
X16129000Y-9398000D01*
X16002000Y-10287000D02*
X16129000Y-10414000D01*
X15621000Y-10287000D02*
X15367000Y-10287000D01*
X14732000Y-10287000D02*
X16002000Y-10287000D01*
X16002000Y-9525000D02*
X14732000Y-9525000D01*
X14097000Y-3810000D02*
X14224000Y-3937000D01*
X16002000Y-3937000D02*
X16129000Y-4064000D01*
X14224000Y-3937000D02*
X16002000Y-3937000D01*
X14097000Y-3683000D02*
X14097000Y-3810000D01*
D11*
X6081000Y-10907000D02*
X4841000Y-10907000D01*
D10*
X2413000Y-11176000D02*
X2413000Y-3683000D01*
D11*
X12461000Y-10907000D02*
X12461000Y-10467000D01*
X13701000Y-10907000D02*
X12461000Y-10907000D01*
X13781000Y-10487000D02*
X13781000Y-10987000D01*
X13781000Y-10987000D02*
X12381000Y-10987000D01*
X13781000Y-10487000D02*
X13781000Y-10467000D01*
X13781000Y-9587000D02*
X12381000Y-9587000D01*
X13701000Y-10467000D02*
X13701000Y-10907000D01*
X13781000Y-10467000D02*
X13701000Y-10467000D01*
X13701000Y-10087000D02*
X13701000Y-10107000D01*
X12381000Y-10087000D02*
X12381000Y-10107000D01*
X12461000Y-10467000D02*
X12381000Y-10467000D01*
X12381000Y-10987000D02*
X12381000Y-10487000D01*
X13701000Y-10107000D02*
X13781000Y-10107000D01*
X12381000Y-10467000D02*
X12381000Y-10487000D01*
X12461000Y-10107000D02*
X12461000Y-10087000D01*
X12381000Y-9587000D02*
X12381000Y-10087000D01*
X13781000Y-10107000D02*
X13781000Y-10087000D01*
X13701000Y-9667000D02*
X13701000Y-10087000D01*
X12381000Y-10107000D02*
X12461000Y-10107000D01*
X13781000Y-10087000D02*
X13781000Y-9587000D01*
X12461000Y-10087000D02*
X12461000Y-9667000D01*
X12461000Y-9667000D02*
X13701000Y-9667000D01*
X12461000Y-7097000D02*
X12461000Y-6657000D01*
X13701000Y-7097000D02*
X12461000Y-7097000D01*
X13781000Y-6677000D02*
X13781000Y-7177000D01*
X13781000Y-7177000D02*
X12381000Y-7177000D01*
X13781000Y-6677000D02*
X13781000Y-6657000D01*
X13781000Y-5777000D02*
X12381000Y-5777000D01*
X13701000Y-6657000D02*
X13701000Y-7097000D01*
X13781000Y-6657000D02*
X13701000Y-6657000D01*
X13701000Y-6277000D02*
X13701000Y-6297000D01*
X12381000Y-6277000D02*
X12381000Y-6297000D01*
X12461000Y-6657000D02*
X12381000Y-6657000D01*
X12381000Y-7177000D02*
X12381000Y-6677000D01*
X13701000Y-6297000D02*
X13781000Y-6297000D01*
X12381000Y-6657000D02*
X12381000Y-6677000D01*
X12461000Y-6297000D02*
X12461000Y-6277000D01*
X12381000Y-5777000D02*
X12381000Y-6277000D01*
X13781000Y-6297000D02*
X13781000Y-6277000D01*
X13701000Y-5857000D02*
X13701000Y-6277000D01*
X12381000Y-6297000D02*
X12461000Y-6297000D01*
X13781000Y-6277000D02*
X13781000Y-5777000D01*
X12461000Y-6277000D02*
X12461000Y-5857000D01*
X12461000Y-5857000D02*
X13701000Y-5857000D01*
X11876000Y-4764000D02*
X10476000Y-4764000D01*
X10556000Y-3884000D02*
X10556000Y-3864000D01*
X10556000Y-3444000D02*
X11796000Y-3444000D01*
X11876000Y-4264000D02*
X11876000Y-4244000D01*
X11876000Y-4244000D02*
X11796000Y-4244000D01*
X10556000Y-3864000D02*
X10556000Y-3444000D01*
X10556000Y-4684000D02*
X10556000Y-4244000D01*
X11796000Y-3444000D02*
X11796000Y-3864000D01*
X10476000Y-3884000D02*
X10556000Y-3884000D01*
X11796000Y-3864000D02*
X11796000Y-3884000D01*
X11796000Y-4244000D02*
X11796000Y-4684000D01*
X10476000Y-4244000D02*
X10476000Y-4264000D01*
X11796000Y-4684000D02*
X10556000Y-4684000D01*
X11796000Y-3884000D02*
X11876000Y-3884000D01*
X10476000Y-3864000D02*
X10476000Y-3884000D01*
X11876000Y-4264000D02*
X11876000Y-4764000D01*
X10476000Y-3364000D02*
X10476000Y-3864000D01*
X12381000Y-4752000D02*
X12381000Y-4772000D01*
X12461000Y-3952000D02*
X13701000Y-3952000D01*
X13701000Y-5192000D02*
X12461000Y-5192000D01*
X13701000Y-3952000D02*
X13701000Y-4372000D01*
X12381000Y-4392000D02*
X12461000Y-4392000D01*
X12381000Y-4372000D02*
X12381000Y-4392000D01*
X13701000Y-4752000D02*
X13701000Y-5192000D01*
X13701000Y-4372000D02*
X13701000Y-4392000D01*
X13781000Y-4772000D02*
X13781000Y-4752000D01*
X11876000Y-3864000D02*
X11876000Y-3364000D01*
X11876000Y-3364000D02*
X10476000Y-3364000D01*
X10556000Y-4244000D02*
X10476000Y-4244000D01*
X12461000Y-4372000D02*
X12461000Y-3952000D01*
X13781000Y-4772000D02*
X13781000Y-5272000D01*
X13781000Y-4752000D02*
X13701000Y-4752000D01*
X13781000Y-5272000D02*
X12381000Y-5272000D01*
X12461000Y-4392000D02*
X12461000Y-4372000D01*
X13701000Y-4392000D02*
X13781000Y-4392000D01*
X11876000Y-3884000D02*
X11876000Y-3864000D01*
X10476000Y-4764000D02*
X10476000Y-4264000D01*
X12461000Y-5192000D02*
X12461000Y-4752000D01*
X13781000Y-3872000D02*
X12381000Y-3872000D01*
X13781000Y-4392000D02*
X13781000Y-4372000D01*
X12381000Y-5272000D02*
X12381000Y-4772000D01*
X12461000Y-4752000D02*
X12381000Y-4752000D01*
X12381000Y-3872000D02*
X12381000Y-4372000D01*
X13781000Y-4372000D02*
X13781000Y-3872000D01*
X15686000Y-14035000D02*
X14286000Y-14035000D01*
X14366000Y-13155000D02*
X14366000Y-13135000D01*
X14366000Y-12715000D02*
X15606000Y-12715000D01*
X15686000Y-13535000D02*
X15686000Y-13515000D01*
X15686000Y-13515000D02*
X15606000Y-13515000D01*
X14366000Y-13135000D02*
X14366000Y-12715000D01*
X14366000Y-13955000D02*
X14366000Y-13515000D01*
X15606000Y-12715000D02*
X15606000Y-13135000D01*
X14286000Y-13155000D02*
X14366000Y-13155000D01*
X15606000Y-13135000D02*
X15606000Y-13155000D01*
X15606000Y-13515000D02*
X15606000Y-13955000D01*
X14286000Y-13515000D02*
X14286000Y-13535000D01*
X15606000Y-13955000D02*
X14366000Y-13955000D01*
X15606000Y-13155000D02*
X15686000Y-13155000D01*
X14286000Y-13135000D02*
X14286000Y-13155000D01*
X15686000Y-13535000D02*
X15686000Y-14035000D01*
X14286000Y-12635000D02*
X14286000Y-13135000D01*
X4761000Y-12372000D02*
X4761000Y-12392000D01*
X4841000Y-11572000D02*
X6081000Y-11572000D01*
X6081000Y-12812000D02*
X4841000Y-12812000D01*
X6081000Y-11572000D02*
X6081000Y-11992000D01*
X4761000Y-12012000D02*
X4841000Y-12012000D01*
X4761000Y-11992000D02*
X4761000Y-12012000D01*
X6081000Y-12372000D02*
X6081000Y-12812000D01*
X6081000Y-11992000D02*
X6081000Y-12012000D01*
X6161000Y-12392000D02*
X6161000Y-12372000D01*
X15686000Y-13135000D02*
X15686000Y-12635000D01*
X15686000Y-12635000D02*
X14286000Y-12635000D01*
X14366000Y-13515000D02*
X14286000Y-13515000D01*
X4841000Y-11992000D02*
X4841000Y-11572000D01*
X6161000Y-12392000D02*
X6161000Y-12892000D01*
X6161000Y-12372000D02*
X6081000Y-12372000D01*
X6161000Y-12892000D02*
X4761000Y-12892000D01*
X4841000Y-12012000D02*
X4841000Y-11992000D01*
X6081000Y-12012000D02*
X6161000Y-12012000D01*
X15686000Y-13155000D02*
X15686000Y-13135000D01*
X14286000Y-14035000D02*
X14286000Y-13535000D01*
X4841000Y-12812000D02*
X4841000Y-12372000D01*
X6161000Y-11492000D02*
X4761000Y-11492000D01*
X6161000Y-12012000D02*
X6161000Y-11992000D01*
X4761000Y-12892000D02*
X4761000Y-12392000D01*
X4841000Y-12372000D02*
X4761000Y-12372000D01*
X4761000Y-11492000D02*
X4761000Y-11992000D01*
X6161000Y-11992000D02*
X6161000Y-11492000D01*
X8066000Y-12384000D02*
X6666000Y-12384000D01*
X6746000Y-11504000D02*
X6746000Y-11484000D01*
X6746000Y-11064000D02*
X7986000Y-11064000D01*
X8066000Y-11884000D02*
X8066000Y-11864000D01*
X8066000Y-11864000D02*
X7986000Y-11864000D01*
X6746000Y-11484000D02*
X6746000Y-11064000D01*
X6746000Y-12304000D02*
X6746000Y-11864000D01*
X7986000Y-11064000D02*
X7986000Y-11484000D01*
X6666000Y-11504000D02*
X6746000Y-11504000D01*
X7986000Y-11484000D02*
X7986000Y-11504000D01*
X7986000Y-11864000D02*
X7986000Y-12304000D01*
X6666000Y-11864000D02*
X6666000Y-11884000D01*
X7986000Y-12304000D02*
X6746000Y-12304000D01*
X7986000Y-11504000D02*
X8066000Y-11504000D01*
X6666000Y-11484000D02*
X6666000Y-11504000D01*
X8066000Y-11884000D02*
X8066000Y-12384000D01*
X6666000Y-10984000D02*
X6666000Y-11484000D01*
X8571000Y-11356000D02*
X8571000Y-11376000D01*
X8651000Y-10556000D02*
X9891000Y-10556000D01*
X9891000Y-11796000D02*
X8651000Y-11796000D01*
X9891000Y-10556000D02*
X9891000Y-10976000D01*
X8571000Y-10996000D02*
X8651000Y-10996000D01*
X8571000Y-10976000D02*
X8571000Y-10996000D01*
X9891000Y-11356000D02*
X9891000Y-11796000D01*
X9891000Y-10976000D02*
X9891000Y-10996000D01*
X9971000Y-11376000D02*
X9971000Y-11356000D01*
X8066000Y-11484000D02*
X8066000Y-10984000D01*
X8066000Y-10984000D02*
X6666000Y-10984000D01*
X6746000Y-11864000D02*
X6666000Y-11864000D01*
X8651000Y-10976000D02*
X8651000Y-10556000D01*
X9971000Y-11376000D02*
X9971000Y-11876000D01*
X9971000Y-11356000D02*
X9891000Y-11356000D01*
X9971000Y-11876000D02*
X8571000Y-11876000D01*
X8651000Y-10996000D02*
X8651000Y-10976000D01*
X9891000Y-10996000D02*
X9971000Y-10996000D01*
X8066000Y-11504000D02*
X8066000Y-11484000D01*
X6666000Y-12384000D02*
X6666000Y-11884000D01*
X8651000Y-11796000D02*
X8651000Y-11356000D01*
X9971000Y-10476000D02*
X8571000Y-10476000D01*
X9971000Y-10996000D02*
X9971000Y-10976000D01*
X8571000Y-11876000D02*
X8571000Y-11376000D01*
X8651000Y-11356000D02*
X8571000Y-11356000D01*
X8571000Y-10476000D02*
X8571000Y-10976000D01*
X9971000Y-10976000D02*
X9971000Y-10476000D01*
X6161000Y-10987000D02*
X4761000Y-10987000D01*
X6161000Y-10467000D02*
X6081000Y-10467000D01*
X4841000Y-10467000D02*
X4761000Y-10467000D01*
X6161000Y-10107000D02*
X6161000Y-10087000D01*
X4761000Y-10087000D02*
X4761000Y-10107000D01*
X4761000Y-10987000D02*
X4761000Y-10487000D01*
X6081000Y-10467000D02*
X6081000Y-10907000D01*
X4841000Y-9667000D02*
X6081000Y-9667000D01*
X6161000Y-10487000D02*
X6161000Y-10467000D01*
X2856000Y-10107000D02*
X2936000Y-10107000D01*
X2856000Y-10467000D02*
X2856000Y-10487000D01*
X2856000Y-10087000D02*
X2856000Y-10107000D01*
X4176000Y-10087000D02*
X4176000Y-10107000D01*
X4256000Y-10107000D02*
X4256000Y-10087000D01*
X4176000Y-9667000D02*
X4176000Y-10087000D01*
X4256000Y-10087000D02*
X4256000Y-9587000D01*
X2936000Y-10107000D02*
X2936000Y-10087000D01*
X4176000Y-10107000D02*
X4256000Y-10107000D01*
X4256000Y-10467000D02*
X4176000Y-10467000D01*
X2936000Y-10907000D02*
X2936000Y-10467000D01*
X4176000Y-10467000D02*
X4176000Y-10907000D01*
X4256000Y-10487000D02*
X4256000Y-10467000D01*
X2936000Y-9667000D02*
X4176000Y-9667000D01*
X2856000Y-9587000D02*
X2856000Y-10087000D01*
X4256000Y-10987000D02*
X2856000Y-10987000D01*
X4256000Y-10487000D02*
X4256000Y-10987000D01*
X4176000Y-10907000D02*
X2936000Y-10907000D01*
X2936000Y-10087000D02*
X2936000Y-9667000D01*
X4256000Y-9587000D02*
X2856000Y-9587000D01*
X8571000Y-9071000D02*
X8571000Y-9091000D01*
X6746000Y-9599000D02*
X6746000Y-9579000D01*
X6081000Y-9667000D02*
X6081000Y-10087000D01*
X6161000Y-10087000D02*
X6161000Y-9587000D01*
X4761000Y-10467000D02*
X4761000Y-10487000D01*
X6161000Y-9587000D02*
X4761000Y-9587000D01*
X6081000Y-10107000D02*
X6161000Y-10107000D01*
X6081000Y-10087000D02*
X6081000Y-10107000D01*
X4761000Y-10107000D02*
X4841000Y-10107000D01*
X9971000Y-9471000D02*
X9971000Y-9971000D01*
X8651000Y-9891000D02*
X8651000Y-9451000D01*
X4841000Y-10107000D02*
X4841000Y-10087000D01*
X8571000Y-9451000D02*
X8571000Y-9471000D01*
X4761000Y-9587000D02*
X4761000Y-10087000D01*
X10556000Y-10399000D02*
X10556000Y-9959000D01*
X11796000Y-10399000D02*
X10556000Y-10399000D01*
X11876000Y-9979000D02*
X11876000Y-10479000D01*
X11876000Y-10479000D02*
X10476000Y-10479000D01*
X11876000Y-9979000D02*
X11876000Y-9959000D01*
X11876000Y-9079000D02*
X10476000Y-9079000D01*
X11796000Y-9959000D02*
X11796000Y-10399000D01*
X11876000Y-9959000D02*
X11796000Y-9959000D01*
X11796000Y-9579000D02*
X11796000Y-9599000D01*
X10476000Y-9579000D02*
X10476000Y-9599000D01*
X6746000Y-10399000D02*
X6746000Y-9959000D01*
X10556000Y-9959000D02*
X10476000Y-9959000D01*
X10476000Y-10479000D02*
X10476000Y-9979000D01*
X11796000Y-9599000D02*
X11876000Y-9599000D01*
X10476000Y-9959000D02*
X10476000Y-9979000D01*
X6746000Y-9579000D02*
X6746000Y-9159000D01*
X8651000Y-9071000D02*
X8651000Y-8651000D01*
X10556000Y-9599000D02*
X10556000Y-9579000D01*
X8571000Y-9091000D02*
X8651000Y-9091000D01*
X10476000Y-9079000D02*
X10476000Y-9579000D01*
X11876000Y-9599000D02*
X11876000Y-9579000D01*
X11796000Y-9159000D02*
X11796000Y-9579000D01*
X10476000Y-9599000D02*
X10556000Y-9599000D01*
X11876000Y-9579000D02*
X11876000Y-9079000D01*
X10556000Y-9579000D02*
X10556000Y-9159000D01*
X10556000Y-9159000D02*
X11796000Y-9159000D01*
X9971000Y-9971000D02*
X8571000Y-9971000D01*
X8651000Y-8651000D02*
X9891000Y-8651000D01*
X6746000Y-9959000D02*
X6666000Y-9959000D01*
X6666000Y-9079000D02*
X6666000Y-9579000D01*
X9971000Y-9451000D02*
X9891000Y-9451000D01*
X9891000Y-9451000D02*
X9891000Y-9891000D01*
X9891000Y-9891000D02*
X8651000Y-9891000D01*
X6666000Y-9599000D02*
X6746000Y-9599000D01*
X7986000Y-9599000D02*
X8066000Y-9599000D01*
X8651000Y-9091000D02*
X8651000Y-9071000D01*
X9891000Y-9091000D02*
X9971000Y-9091000D01*
X9891000Y-9071000D02*
X9891000Y-9091000D01*
X8066000Y-9599000D02*
X8066000Y-9579000D01*
X6746000Y-9159000D02*
X7986000Y-9159000D01*
X9971000Y-9471000D02*
X9971000Y-9451000D01*
X4841000Y-10087000D02*
X4841000Y-9667000D01*
X7986000Y-9959000D02*
X7986000Y-10399000D01*
X6666000Y-10479000D02*
X6666000Y-9979000D01*
X8066000Y-9959000D02*
X7986000Y-9959000D01*
X8066000Y-10479000D02*
X6666000Y-10479000D01*
X9971000Y-8571000D02*
X8571000Y-8571000D01*
X8571000Y-9971000D02*
X8571000Y-9471000D01*
X4841000Y-10907000D02*
X4841000Y-10467000D01*
X8651000Y-9451000D02*
X8571000Y-9451000D01*
X9971000Y-9091000D02*
X9971000Y-9071000D01*
X6666000Y-9959000D02*
X6666000Y-9979000D01*
X8066000Y-9079000D02*
X6666000Y-9079000D01*
X6161000Y-10487000D02*
X6161000Y-10987000D01*
X9891000Y-8651000D02*
X9891000Y-9071000D01*
X8571000Y-8571000D02*
X8571000Y-9071000D01*
X6666000Y-9579000D02*
X6666000Y-9599000D01*
X9971000Y-9071000D02*
X9971000Y-8571000D01*
X8066000Y-9579000D02*
X8066000Y-9079000D01*
X7986000Y-9159000D02*
X7986000Y-9579000D01*
X7986000Y-9579000D02*
X7986000Y-9599000D01*
X8066000Y-9979000D02*
X8066000Y-9959000D01*
X8066000Y-9979000D02*
X8066000Y-10479000D01*
X7986000Y-10399000D02*
X6746000Y-10399000D01*
X2856000Y-10987000D02*
X2856000Y-10487000D01*
X2936000Y-10467000D02*
X2856000Y-10467000D01*
X8066000Y-8574000D02*
X6666000Y-8574000D01*
X7986000Y-8494000D02*
X6746000Y-8494000D01*
X8066000Y-8054000D02*
X7986000Y-8054000D01*
X6746000Y-8054000D02*
X6666000Y-8054000D01*
X8066000Y-7694000D02*
X8066000Y-7674000D01*
X6666000Y-7674000D02*
X6666000Y-7694000D01*
X6666000Y-8574000D02*
X6666000Y-8074000D01*
X7986000Y-8054000D02*
X7986000Y-8494000D01*
X6746000Y-7254000D02*
X7986000Y-7254000D01*
X8066000Y-8074000D02*
X8066000Y-8054000D01*
X4761000Y-8202000D02*
X4841000Y-8202000D01*
X4761000Y-8562000D02*
X4761000Y-8582000D01*
X4761000Y-8182000D02*
X4761000Y-8202000D01*
X6081000Y-8182000D02*
X6081000Y-8202000D01*
X6161000Y-8202000D02*
X6161000Y-8182000D01*
X6081000Y-7762000D02*
X6081000Y-8182000D01*
X6161000Y-8182000D02*
X6161000Y-7682000D01*
X4841000Y-8202000D02*
X4841000Y-8182000D01*
X6081000Y-8202000D02*
X6161000Y-8202000D01*
X6161000Y-8562000D02*
X6081000Y-8562000D01*
X4841000Y-9002000D02*
X4841000Y-8562000D01*
X6081000Y-8562000D02*
X6081000Y-9002000D01*
X6161000Y-8582000D02*
X6161000Y-8562000D01*
X4841000Y-7762000D02*
X6081000Y-7762000D01*
X4761000Y-7682000D02*
X4761000Y-8182000D01*
X6161000Y-9082000D02*
X4761000Y-9082000D01*
X6161000Y-8582000D02*
X6161000Y-9082000D01*
X6081000Y-9002000D02*
X4841000Y-9002000D01*
X4841000Y-8182000D02*
X4841000Y-7762000D01*
X6161000Y-7682000D02*
X4761000Y-7682000D01*
X10476000Y-7674000D02*
X10476000Y-7694000D01*
X8651000Y-7186000D02*
X8651000Y-7166000D01*
X7986000Y-7254000D02*
X7986000Y-7674000D01*
X8066000Y-7674000D02*
X8066000Y-7174000D01*
X6666000Y-8054000D02*
X6666000Y-8074000D01*
X8066000Y-7174000D02*
X6666000Y-7174000D01*
X7986000Y-7694000D02*
X8066000Y-7694000D01*
X7986000Y-7674000D02*
X7986000Y-7694000D01*
X6666000Y-7694000D02*
X6746000Y-7694000D01*
X11876000Y-8074000D02*
X11876000Y-8574000D01*
X10556000Y-8494000D02*
X10556000Y-8054000D01*
X6746000Y-7694000D02*
X6746000Y-7674000D01*
X10476000Y-8054000D02*
X10476000Y-8074000D01*
X6666000Y-7174000D02*
X6666000Y-7674000D01*
X12461000Y-9002000D02*
X12461000Y-8562000D01*
X13701000Y-9002000D02*
X12461000Y-9002000D01*
X13781000Y-8582000D02*
X13781000Y-9082000D01*
X13781000Y-9082000D02*
X12381000Y-9082000D01*
X13781000Y-8582000D02*
X13781000Y-8562000D01*
X13781000Y-7682000D02*
X12381000Y-7682000D01*
X13701000Y-8562000D02*
X13701000Y-9002000D01*
X13781000Y-8562000D02*
X13701000Y-8562000D01*
X13701000Y-8182000D02*
X13701000Y-8202000D01*
X12381000Y-8182000D02*
X12381000Y-8202000D01*
X8651000Y-7986000D02*
X8651000Y-7546000D01*
X12461000Y-8562000D02*
X12381000Y-8562000D01*
X12381000Y-9082000D02*
X12381000Y-8582000D01*
X13701000Y-8202000D02*
X13781000Y-8202000D01*
X12381000Y-8562000D02*
X12381000Y-8582000D01*
X8651000Y-7166000D02*
X8651000Y-6746000D01*
X10556000Y-7674000D02*
X10556000Y-7254000D01*
X12461000Y-8202000D02*
X12461000Y-8182000D01*
X10476000Y-7694000D02*
X10556000Y-7694000D01*
X12381000Y-7682000D02*
X12381000Y-8182000D01*
X13781000Y-8202000D02*
X13781000Y-8182000D01*
X13701000Y-7762000D02*
X13701000Y-8182000D01*
X12381000Y-8202000D02*
X12461000Y-8202000D01*
X13781000Y-8182000D02*
X13781000Y-7682000D01*
X12461000Y-8182000D02*
X12461000Y-7762000D01*
X12461000Y-7762000D02*
X13701000Y-7762000D01*
X11876000Y-8574000D02*
X10476000Y-8574000D01*
X10556000Y-7254000D02*
X11796000Y-7254000D01*
X8651000Y-7546000D02*
X8571000Y-7546000D01*
X8571000Y-6666000D02*
X8571000Y-7166000D01*
X11876000Y-8054000D02*
X11796000Y-8054000D01*
X11796000Y-8054000D02*
X11796000Y-8494000D01*
X11796000Y-8494000D02*
X10556000Y-8494000D01*
X8571000Y-7186000D02*
X8651000Y-7186000D01*
X9891000Y-7186000D02*
X9971000Y-7186000D01*
X10556000Y-7694000D02*
X10556000Y-7674000D01*
X11796000Y-7694000D02*
X11876000Y-7694000D01*
X11796000Y-7674000D02*
X11796000Y-7694000D01*
X9971000Y-7186000D02*
X9971000Y-7166000D01*
X8651000Y-6746000D02*
X9891000Y-6746000D01*
X11876000Y-8074000D02*
X11876000Y-8054000D01*
X6746000Y-7674000D02*
X6746000Y-7254000D01*
X9891000Y-7546000D02*
X9891000Y-7986000D01*
X8571000Y-8066000D02*
X8571000Y-7566000D01*
X9971000Y-7546000D02*
X9891000Y-7546000D01*
X9971000Y-8066000D02*
X8571000Y-8066000D01*
X11876000Y-7174000D02*
X10476000Y-7174000D01*
X10476000Y-8574000D02*
X10476000Y-8074000D01*
X6746000Y-8494000D02*
X6746000Y-8054000D01*
X10556000Y-8054000D02*
X10476000Y-8054000D01*
X11876000Y-7694000D02*
X11876000Y-7674000D01*
X8571000Y-7546000D02*
X8571000Y-7566000D01*
X9971000Y-6666000D02*
X8571000Y-6666000D01*
X8066000Y-8074000D02*
X8066000Y-8574000D01*
X11796000Y-7254000D02*
X11796000Y-7674000D01*
X10476000Y-7174000D02*
X10476000Y-7674000D01*
X8571000Y-7166000D02*
X8571000Y-7186000D01*
X11876000Y-7674000D02*
X11876000Y-7174000D01*
X9971000Y-7166000D02*
X9971000Y-6666000D01*
X9891000Y-6746000D02*
X9891000Y-7166000D01*
X9891000Y-7166000D02*
X9891000Y-7186000D01*
X9971000Y-7566000D02*
X9971000Y-7546000D01*
X9971000Y-7566000D02*
X9971000Y-8066000D01*
X9891000Y-7986000D02*
X8651000Y-7986000D01*
X4761000Y-9082000D02*
X4761000Y-8582000D01*
X4841000Y-8562000D02*
X4761000Y-8562000D01*
X11796000Y-5789000D02*
X11876000Y-5789000D01*
X11876000Y-6169000D02*
X11876000Y-6149000D01*
X10476000Y-5269000D02*
X10476000Y-5769000D01*
X11796000Y-6149000D02*
X11796000Y-6589000D01*
X11796000Y-5349000D02*
X11796000Y-5769000D01*
X11876000Y-6149000D02*
X11796000Y-6149000D01*
X10556000Y-6149000D02*
X10476000Y-6149000D01*
X11796000Y-6589000D02*
X10556000Y-6589000D01*
X10556000Y-5769000D02*
X10556000Y-5349000D01*
X10476000Y-6669000D02*
X10476000Y-6169000D01*
X10556000Y-5349000D02*
X11796000Y-5349000D01*
X11796000Y-5769000D02*
X11796000Y-5789000D01*
X10476000Y-5789000D02*
X10556000Y-5789000D01*
X11876000Y-5269000D02*
X10476000Y-5269000D01*
X11876000Y-6169000D02*
X11876000Y-6669000D01*
X10556000Y-6589000D02*
X10556000Y-6149000D01*
X11876000Y-6669000D02*
X10476000Y-6669000D01*
X10476000Y-6149000D02*
X10476000Y-6169000D01*
X11876000Y-5769000D02*
X11876000Y-5269000D01*
X10476000Y-5769000D02*
X10476000Y-5789000D01*
X10556000Y-5789000D02*
X10556000Y-5769000D01*
X11876000Y-5789000D02*
X11876000Y-5769000D01*
X8651000Y-5261000D02*
X8651000Y-4841000D01*
X6746000Y-6589000D02*
X6746000Y-6149000D01*
X8571000Y-5281000D02*
X8651000Y-5281000D01*
X6746000Y-5769000D02*
X6746000Y-5349000D01*
X9971000Y-6161000D02*
X8571000Y-6161000D01*
X8651000Y-4841000D02*
X9891000Y-4841000D01*
X6746000Y-6149000D02*
X6666000Y-6149000D01*
X9891000Y-5641000D02*
X9891000Y-6081000D01*
X9891000Y-6081000D02*
X8651000Y-6081000D01*
X8651000Y-5281000D02*
X8651000Y-5261000D01*
X8066000Y-5789000D02*
X8066000Y-5769000D01*
X9891000Y-5261000D02*
X9891000Y-5281000D01*
X7986000Y-5789000D02*
X8066000Y-5789000D01*
X9891000Y-5281000D02*
X9971000Y-5281000D01*
X6666000Y-5269000D02*
X6666000Y-5769000D01*
X9971000Y-5661000D02*
X9971000Y-5641000D01*
X6666000Y-5789000D02*
X6746000Y-5789000D01*
X9971000Y-5641000D02*
X9891000Y-5641000D01*
X6746000Y-5349000D02*
X7986000Y-5349000D01*
X9891000Y-4841000D02*
X9891000Y-5261000D01*
X8571000Y-4761000D02*
X8571000Y-5261000D01*
X7986000Y-6589000D02*
X6746000Y-6589000D01*
X6666000Y-5769000D02*
X6666000Y-5789000D01*
X9971000Y-5261000D02*
X9971000Y-4761000D01*
X4841000Y-6277000D02*
X4841000Y-5857000D01*
X9971000Y-5281000D02*
X9971000Y-5261000D01*
X9971000Y-4761000D02*
X8571000Y-4761000D01*
X8571000Y-6161000D02*
X8571000Y-5661000D01*
X7986000Y-6149000D02*
X7986000Y-6589000D01*
X8066000Y-5769000D02*
X8066000Y-5269000D01*
X7986000Y-5349000D02*
X7986000Y-5769000D01*
X8066000Y-6149000D02*
X7986000Y-6149000D01*
X8066000Y-5269000D02*
X6666000Y-5269000D01*
X6666000Y-6669000D02*
X6666000Y-6169000D01*
X4841000Y-7097000D02*
X4841000Y-6657000D01*
X8651000Y-5641000D02*
X8571000Y-5641000D01*
X8066000Y-6669000D02*
X6666000Y-6669000D01*
X8066000Y-6169000D02*
X8066000Y-6149000D01*
X8066000Y-6169000D02*
X8066000Y-6669000D01*
X7986000Y-5769000D02*
X7986000Y-5789000D01*
X6161000Y-6677000D02*
X6161000Y-7177000D01*
X6666000Y-6149000D02*
X6666000Y-6169000D01*
X8571000Y-5261000D02*
X8571000Y-5281000D01*
X6746000Y-5789000D02*
X6746000Y-5769000D01*
X9971000Y-5661000D02*
X9971000Y-6161000D01*
X8651000Y-6081000D02*
X8651000Y-5641000D01*
X8571000Y-5641000D02*
X8571000Y-5661000D01*
X6081000Y-6277000D02*
X6081000Y-6297000D01*
X6081000Y-5857000D02*
X6081000Y-6277000D01*
X4761000Y-5777000D02*
X4761000Y-6277000D01*
X6161000Y-5777000D02*
X4761000Y-5777000D01*
X4761000Y-6657000D02*
X4761000Y-6677000D01*
X4841000Y-6297000D02*
X4841000Y-6277000D01*
X6081000Y-6297000D02*
X6161000Y-6297000D01*
X6161000Y-6277000D02*
X6161000Y-5777000D01*
X4761000Y-6297000D02*
X4841000Y-6297000D01*
X6161000Y-7177000D02*
X4761000Y-7177000D01*
X6081000Y-7097000D02*
X4841000Y-7097000D01*
X6161000Y-6657000D02*
X6081000Y-6657000D01*
X4841000Y-6657000D02*
X4761000Y-6657000D01*
X6161000Y-6297000D02*
X6161000Y-6277000D01*
X4761000Y-6277000D02*
X4761000Y-6297000D01*
X4761000Y-7177000D02*
X4761000Y-6677000D01*
X6081000Y-6657000D02*
X6081000Y-7097000D01*
X4841000Y-5857000D02*
X6081000Y-5857000D01*
X6161000Y-6677000D02*
X6161000Y-6657000D01*
X9971000Y-3756000D02*
X9971000Y-4256000D01*
X8651000Y-4176000D02*
X8651000Y-3736000D01*
X8651000Y-3356000D02*
X8651000Y-2936000D01*
X8571000Y-3376000D02*
X8651000Y-3376000D01*
X9971000Y-4256000D02*
X8571000Y-4256000D01*
X8571000Y-3736000D02*
X8571000Y-3756000D01*
X8571000Y-3356000D02*
X8571000Y-3376000D01*
X9891000Y-3736000D02*
X9891000Y-4176000D01*
X8651000Y-3376000D02*
X8651000Y-3356000D01*
X8651000Y-2936000D02*
X9891000Y-2936000D01*
X9891000Y-3356000D02*
X9891000Y-3376000D01*
X9891000Y-3376000D02*
X9971000Y-3376000D01*
X9891000Y-4176000D02*
X8651000Y-4176000D01*
X9971000Y-3756000D02*
X9971000Y-3736000D01*
X9891000Y-2936000D02*
X9891000Y-3356000D01*
X9971000Y-3736000D02*
X9891000Y-3736000D01*
X8571000Y-2856000D02*
X8571000Y-3356000D01*
X9971000Y-3356000D02*
X9971000Y-2856000D01*
X9971000Y-3376000D02*
X9971000Y-3356000D01*
X9971000Y-2856000D02*
X8571000Y-2856000D01*
X8571000Y-4256000D02*
X8571000Y-3756000D01*
X8651000Y-3736000D02*
X8571000Y-3736000D01*
X4256000Y-8582000D02*
X4256000Y-9082000D01*
X2936000Y-9002000D02*
X2936000Y-8562000D01*
X2936000Y-8182000D02*
X2936000Y-7762000D01*
X2856000Y-8202000D02*
X2936000Y-8202000D01*
X4256000Y-9082000D02*
X2856000Y-9082000D01*
X2856000Y-8562000D02*
X2856000Y-8582000D01*
X2856000Y-8182000D02*
X2856000Y-8202000D01*
X4176000Y-8562000D02*
X4176000Y-9002000D01*
X2936000Y-8202000D02*
X2936000Y-8182000D01*
X2936000Y-7762000D02*
X4176000Y-7762000D01*
X4176000Y-8182000D02*
X4176000Y-8202000D01*
X4176000Y-8202000D02*
X4256000Y-8202000D01*
X4176000Y-9002000D02*
X2936000Y-9002000D01*
X4256000Y-8582000D02*
X4256000Y-8562000D01*
X4176000Y-7762000D02*
X4176000Y-8182000D01*
X4256000Y-8562000D02*
X4176000Y-8562000D01*
X2856000Y-7682000D02*
X2856000Y-8182000D01*
X4256000Y-8182000D02*
X4256000Y-7682000D01*
X4256000Y-8202000D02*
X4256000Y-8182000D01*
X4256000Y-7682000D02*
X2856000Y-7682000D01*
X2856000Y-9082000D02*
X2856000Y-8582000D01*
X2936000Y-8562000D02*
X2856000Y-8562000D01*
X4256000Y-6677000D02*
X4256000Y-7177000D01*
X2936000Y-7097000D02*
X2936000Y-6657000D01*
X2936000Y-6277000D02*
X2936000Y-5857000D01*
X2856000Y-6297000D02*
X2936000Y-6297000D01*
X4256000Y-7177000D02*
X2856000Y-7177000D01*
X2856000Y-6657000D02*
X2856000Y-6677000D01*
X2856000Y-6277000D02*
X2856000Y-6297000D01*
X4176000Y-6657000D02*
X4176000Y-7097000D01*
X2936000Y-6297000D02*
X2936000Y-6277000D01*
X2936000Y-5857000D02*
X4176000Y-5857000D01*
X4176000Y-6277000D02*
X4176000Y-6297000D01*
X4176000Y-6297000D02*
X4256000Y-6297000D01*
X4176000Y-7097000D02*
X2936000Y-7097000D01*
X4256000Y-6677000D02*
X4256000Y-6657000D01*
X4176000Y-5857000D02*
X4176000Y-6277000D01*
X4256000Y-6657000D02*
X4176000Y-6657000D01*
X2856000Y-5777000D02*
X2856000Y-6277000D01*
X4256000Y-6277000D02*
X4256000Y-5777000D01*
X4256000Y-6297000D02*
X4256000Y-6277000D01*
X4256000Y-5777000D02*
X2856000Y-5777000D01*
X2856000Y-7177000D02*
X2856000Y-6677000D01*
X2936000Y-6657000D02*
X2856000Y-6657000D01*
X8066000Y-4264000D02*
X8066000Y-4764000D01*
X6746000Y-4684000D02*
X6746000Y-4244000D01*
X6746000Y-3864000D02*
X6746000Y-3444000D01*
X6666000Y-3884000D02*
X6746000Y-3884000D01*
X8066000Y-4764000D02*
X6666000Y-4764000D01*
X6666000Y-4244000D02*
X6666000Y-4264000D01*
X6666000Y-3864000D02*
X6666000Y-3884000D01*
X7986000Y-4244000D02*
X7986000Y-4684000D01*
X6746000Y-3884000D02*
X6746000Y-3864000D01*
X6746000Y-3444000D02*
X7986000Y-3444000D01*
X7986000Y-3864000D02*
X7986000Y-3884000D01*
X7986000Y-3884000D02*
X8066000Y-3884000D01*
X7986000Y-4684000D02*
X6746000Y-4684000D01*
X8066000Y-4264000D02*
X8066000Y-4244000D01*
X7986000Y-3444000D02*
X7986000Y-3864000D01*
X8066000Y-4244000D02*
X7986000Y-4244000D01*
X6666000Y-3364000D02*
X6666000Y-3864000D01*
X8066000Y-3864000D02*
X8066000Y-3364000D01*
X8066000Y-3884000D02*
X8066000Y-3864000D01*
X8066000Y-3364000D02*
X6666000Y-3364000D01*
X6666000Y-4764000D02*
X6666000Y-4264000D01*
X6746000Y-4244000D02*
X6666000Y-4244000D01*
X6161000Y-4772000D02*
X6161000Y-5272000D01*
X4841000Y-5192000D02*
X4841000Y-4752000D01*
X4841000Y-4372000D02*
X4841000Y-3952000D01*
X4761000Y-4392000D02*
X4841000Y-4392000D01*
X6161000Y-5272000D02*
X4761000Y-5272000D01*
X4761000Y-4752000D02*
X4761000Y-4772000D01*
X4761000Y-4372000D02*
X4761000Y-4392000D01*
X6081000Y-4752000D02*
X6081000Y-5192000D01*
X4841000Y-4392000D02*
X4841000Y-4372000D01*
X4841000Y-3952000D02*
X6081000Y-3952000D01*
X6081000Y-4372000D02*
X6081000Y-4392000D01*
X6081000Y-4392000D02*
X6161000Y-4392000D01*
X6081000Y-5192000D02*
X4841000Y-5192000D01*
X6161000Y-4772000D02*
X6161000Y-4752000D01*
X6081000Y-3952000D02*
X6081000Y-4372000D01*
X6161000Y-4752000D02*
X6081000Y-4752000D01*
X4761000Y-3872000D02*
X4761000Y-4372000D01*
X6161000Y-4372000D02*
X6161000Y-3872000D01*
X6161000Y-4392000D02*
X6161000Y-4372000D01*
X6161000Y-3872000D02*
X4761000Y-3872000D01*
X4761000Y-5272000D02*
X4761000Y-4772000D01*
X4841000Y-4752000D02*
X4761000Y-4752000D01*
X4256000Y-4772000D02*
X4256000Y-5272000D01*
X2936000Y-5192000D02*
X2936000Y-4752000D01*
X2936000Y-4372000D02*
X2936000Y-3952000D01*
X2856000Y-4392000D02*
X2936000Y-4392000D01*
X4256000Y-5272000D02*
X2856000Y-5272000D01*
X2856000Y-4752000D02*
X2856000Y-4772000D01*
X2856000Y-4372000D02*
X2856000Y-4392000D01*
X4176000Y-4752000D02*
X4176000Y-5192000D01*
X2936000Y-4392000D02*
X2936000Y-4372000D01*
X2936000Y-3952000D02*
X4176000Y-3952000D01*
X4176000Y-4372000D02*
X4176000Y-4392000D01*
X4176000Y-4392000D02*
X4256000Y-4392000D01*
X4176000Y-5192000D02*
X2936000Y-5192000D01*
X4256000Y-4772000D02*
X4256000Y-4752000D01*
X4176000Y-3952000D02*
X4176000Y-4372000D01*
X4256000Y-4752000D02*
X4176000Y-4752000D01*
X2856000Y-3872000D02*
X2856000Y-4372000D01*
X4256000Y-4372000D02*
X4256000Y-3872000D01*
X4256000Y-4392000D02*
X4256000Y-4372000D01*
X4256000Y-3872000D02*
X2856000Y-3872000D01*
X2856000Y-5272000D02*
X2856000Y-4772000D01*
X2936000Y-4752000D02*
X2856000Y-4752000D01*
X11876000Y-11884000D02*
X11876000Y-12384000D01*
X10556000Y-12304000D02*
X10556000Y-11864000D01*
X10556000Y-11484000D02*
X10556000Y-11064000D01*
X10476000Y-11504000D02*
X10556000Y-11504000D01*
X11876000Y-12384000D02*
X10476000Y-12384000D01*
X10476000Y-11864000D02*
X10476000Y-11884000D01*
X10476000Y-11484000D02*
X10476000Y-11504000D01*
X11796000Y-11864000D02*
X11796000Y-12304000D01*
X10556000Y-11504000D02*
X10556000Y-11484000D01*
X10556000Y-11064000D02*
X11796000Y-11064000D01*
X11796000Y-11484000D02*
X11796000Y-11504000D01*
X11796000Y-11504000D02*
X11876000Y-11504000D01*
X11796000Y-12304000D02*
X10556000Y-12304000D01*
X11876000Y-11884000D02*
X11876000Y-11864000D01*
X11796000Y-11064000D02*
X11796000Y-11484000D01*
X11876000Y-11864000D02*
X11796000Y-11864000D01*
X10476000Y-10984000D02*
X10476000Y-11484000D01*
X11876000Y-11484000D02*
X11876000Y-10984000D01*
X11876000Y-11504000D02*
X11876000Y-11484000D01*
X11876000Y-10984000D02*
X10476000Y-10984000D01*
X10476000Y-12384000D02*
X10476000Y-11884000D01*
X10556000Y-11864000D02*
X10476000Y-11864000D01*
X13781000Y-12392000D02*
X13781000Y-12892000D01*
X12461000Y-12812000D02*
X12461000Y-12372000D01*
X12461000Y-11992000D02*
X12461000Y-11572000D01*
X12381000Y-12012000D02*
X12461000Y-12012000D01*
X13781000Y-12892000D02*
X12381000Y-12892000D01*
X12381000Y-12372000D02*
X12381000Y-12392000D01*
X12381000Y-11992000D02*
X12381000Y-12012000D01*
X13701000Y-12372000D02*
X13701000Y-12812000D01*
X12461000Y-12012000D02*
X12461000Y-11992000D01*
X12461000Y-11572000D02*
X13701000Y-11572000D01*
X13701000Y-11992000D02*
X13701000Y-12012000D01*
X13701000Y-12012000D02*
X13781000Y-12012000D01*
X13701000Y-12812000D02*
X12461000Y-12812000D01*
X13781000Y-12392000D02*
X13781000Y-12372000D01*
X13701000Y-11572000D02*
X13701000Y-11992000D01*
X13781000Y-12372000D02*
X13701000Y-12372000D01*
X12381000Y-11492000D02*
X12381000Y-11992000D01*
X13781000Y-11992000D02*
X13781000Y-11492000D01*
X13781000Y-12012000D02*
X13781000Y-11992000D01*
X13781000Y-11492000D02*
X12381000Y-11492000D01*
X12381000Y-12892000D02*
X12381000Y-12392000D01*
X12461000Y-12372000D02*
X12381000Y-12372000D01*
D12*
X12426000Y-11410000D02*
X12466000Y-11450000D01*
X12466000Y-11410000D02*
X12426000Y-11450000D01*
X13950000Y-8997000D02*
X13990000Y-9037000D01*
X13990000Y-8997000D02*
X13950000Y-9037000D01*
X13950000Y-11537000D02*
X13990000Y-11577000D01*
X13990000Y-11537000D02*
X13950000Y-11577000D01*
X14077000Y-10902000D02*
X14117000Y-10942000D01*
X14117000Y-10902000D02*
X14077000Y-10942000D01*
X2911000Y-4472000D02*
G75*
G03*
X2911000Y-4472000I-25000J0D01*
G01*
X2911000Y-4572000D02*
G75*
G03*
X2911000Y-4572000I-25000J0D01*
G01*
X2911000Y-4672000D02*
G75*
G03*
X2911000Y-4672000I-25000J0D01*
G01*
X2911000Y-6377000D02*
G75*
G03*
X2911000Y-6377000I-25000J0D01*
G01*
X2911000Y-6477000D02*
G75*
G03*
X2911000Y-6477000I-25000J0D01*
G01*
X2911000Y-6577000D02*
G75*
G03*
X2911000Y-6577000I-25000J0D01*
G01*
X2911000Y-8282000D02*
G75*
G03*
X2911000Y-8282000I-25000J0D01*
G01*
X2911000Y-8382000D02*
G75*
G03*
X2911000Y-8382000I-25000J0D01*
G01*
X2911000Y-8482000D02*
G75*
G03*
X2911000Y-8482000I-25000J0D01*
G01*
X2911000Y-10187000D02*
G75*
G03*
X2911000Y-10187000I-25000J0D01*
G01*
X2911000Y-10287000D02*
G75*
G03*
X2911000Y-10287000I-25000J0D01*
G01*
X2911000Y-10387000D02*
G75*
G03*
X2911000Y-10387000I-25000J0D01*
G01*
X4251000Y-4472000D02*
G75*
G03*
X4251000Y-4472000I-25000J0D01*
G01*
X4251000Y-4572000D02*
G75*
G03*
X4251000Y-4572000I-25000J0D01*
G01*
X4251000Y-4672000D02*
G75*
G03*
X4251000Y-4672000I-25000J0D01*
G01*
X4251000Y-6377000D02*
G75*
G03*
X4251000Y-6377000I-25000J0D01*
G01*
X4251000Y-6477000D02*
G75*
G03*
X4251000Y-6477000I-25000J0D01*
G01*
X4251000Y-6577000D02*
G75*
G03*
X4251000Y-6577000I-25000J0D01*
G01*
X4251000Y-8282000D02*
G75*
G03*
X4251000Y-8282000I-25000J0D01*
G01*
X4251000Y-8382000D02*
G75*
G03*
X4251000Y-8382000I-25000J0D01*
G01*
X4251000Y-8482000D02*
G75*
G03*
X4251000Y-8482000I-25000J0D01*
G01*
X4251000Y-10187000D02*
G75*
G03*
X4251000Y-10187000I-25000J0D01*
G01*
X4251000Y-10287000D02*
G75*
G03*
X4251000Y-10287000I-25000J0D01*
G01*
X4251000Y-10387000D02*
G75*
G03*
X4251000Y-10387000I-25000J0D01*
G01*
X4816000Y-4472000D02*
G75*
G03*
X4816000Y-4472000I-25000J0D01*
G01*
X4816000Y-4572000D02*
G75*
G03*
X4816000Y-4572000I-25000J0D01*
G01*
X4816000Y-4672000D02*
G75*
G03*
X4816000Y-4672000I-25000J0D01*
G01*
X4816000Y-6377000D02*
G75*
G03*
X4816000Y-6377000I-25000J0D01*
G01*
X4816000Y-6477000D02*
G75*
G03*
X4816000Y-6477000I-25000J0D01*
G01*
X4816000Y-6577000D02*
G75*
G03*
X4816000Y-6577000I-25000J0D01*
G01*
X4816000Y-8282000D02*
G75*
G03*
X4816000Y-8282000I-25000J0D01*
G01*
X4816000Y-8382000D02*
G75*
G03*
X4816000Y-8382000I-25000J0D01*
G01*
X4816000Y-8482000D02*
G75*
G03*
X4816000Y-8482000I-25000J0D01*
G01*
X4816000Y-10187000D02*
G75*
G03*
X4816000Y-10187000I-25000J0D01*
G01*
X4816000Y-10287000D02*
G75*
G03*
X4816000Y-10287000I-25000J0D01*
G01*
X4816000Y-10387000D02*
G75*
G03*
X4816000Y-10387000I-25000J0D01*
G01*
X4816000Y-12092000D02*
G75*
G03*
X4816000Y-12092000I-25000J0D01*
G01*
X4816000Y-12192000D02*
G75*
G03*
X4816000Y-12192000I-25000J0D01*
G01*
X4816000Y-12292000D02*
G75*
G03*
X4816000Y-12292000I-25000J0D01*
G01*
X6156000Y-4472000D02*
G75*
G03*
X6156000Y-4472000I-25000J0D01*
G01*
X6156000Y-4572000D02*
G75*
G03*
X6156000Y-4572000I-25000J0D01*
G01*
X6156000Y-4672000D02*
G75*
G03*
X6156000Y-4672000I-25000J0D01*
G01*
X6156000Y-6377000D02*
G75*
G03*
X6156000Y-6377000I-25000J0D01*
G01*
X6156000Y-6477000D02*
G75*
G03*
X6156000Y-6477000I-25000J0D01*
G01*
X6156000Y-6577000D02*
G75*
G03*
X6156000Y-6577000I-25000J0D01*
G01*
X6156000Y-8282000D02*
G75*
G03*
X6156000Y-8282000I-25000J0D01*
G01*
X6156000Y-8382000D02*
G75*
G03*
X6156000Y-8382000I-25000J0D01*
G01*
X6156000Y-8482000D02*
G75*
G03*
X6156000Y-8482000I-25000J0D01*
G01*
X6156000Y-10187000D02*
G75*
G03*
X6156000Y-10187000I-25000J0D01*
G01*
X6156000Y-10287000D02*
G75*
G03*
X6156000Y-10287000I-25000J0D01*
G01*
X6156000Y-10387000D02*
G75*
G03*
X6156000Y-10387000I-25000J0D01*
G01*
X6156000Y-12092000D02*
G75*
G03*
X6156000Y-12092000I-25000J0D01*
G01*
X6156000Y-12192000D02*
G75*
G03*
X6156000Y-12192000I-25000J0D01*
G01*
X6156000Y-12292000D02*
G75*
G03*
X6156000Y-12292000I-25000J0D01*
G01*
X6721000Y-3964000D02*
G75*
G03*
X6721000Y-3964000I-25000J0D01*
G01*
X6721000Y-4064000D02*
G75*
G03*
X6721000Y-4064000I-25000J0D01*
G01*
X6721000Y-4164000D02*
G75*
G03*
X6721000Y-4164000I-25000J0D01*
G01*
X6721000Y-5869000D02*
G75*
G03*
X6721000Y-5869000I-25000J0D01*
G01*
X6721000Y-5969000D02*
G75*
G03*
X6721000Y-5969000I-25000J0D01*
G01*
X6721000Y-6069000D02*
G75*
G03*
X6721000Y-6069000I-25000J0D01*
G01*
X6721000Y-7774000D02*
G75*
G03*
X6721000Y-7774000I-25000J0D01*
G01*
X6721000Y-7874000D02*
G75*
G03*
X6721000Y-7874000I-25000J0D01*
G01*
X6721000Y-7974000D02*
G75*
G03*
X6721000Y-7974000I-25000J0D01*
G01*
X6721000Y-9679000D02*
G75*
G03*
X6721000Y-9679000I-25000J0D01*
G01*
X6721000Y-9779000D02*
G75*
G03*
X6721000Y-9779000I-25000J0D01*
G01*
X6721000Y-9879000D02*
G75*
G03*
X6721000Y-9879000I-25000J0D01*
G01*
X6721000Y-11584000D02*
G75*
G03*
X6721000Y-11584000I-25000J0D01*
G01*
X6721000Y-11684000D02*
G75*
G03*
X6721000Y-11684000I-25000J0D01*
G01*
X6721000Y-11784000D02*
G75*
G03*
X6721000Y-11784000I-25000J0D01*
G01*
X8061000Y-3964000D02*
G75*
G03*
X8061000Y-3964000I-25000J0D01*
G01*
X8061000Y-4064000D02*
G75*
G03*
X8061000Y-4064000I-25000J0D01*
G01*
X8061000Y-4164000D02*
G75*
G03*
X8061000Y-4164000I-25000J0D01*
G01*
X8061000Y-5869000D02*
G75*
G03*
X8061000Y-5869000I-25000J0D01*
G01*
X8061000Y-5969000D02*
G75*
G03*
X8061000Y-5969000I-25000J0D01*
G01*
X8061000Y-6069000D02*
G75*
G03*
X8061000Y-6069000I-25000J0D01*
G01*
X8061000Y-7774000D02*
G75*
G03*
X8061000Y-7774000I-25000J0D01*
G01*
X8061000Y-7874000D02*
G75*
G03*
X8061000Y-7874000I-25000J0D01*
G01*
X8061000Y-7974000D02*
G75*
G03*
X8061000Y-7974000I-25000J0D01*
G01*
X8061000Y-9679000D02*
G75*
G03*
X8061000Y-9679000I-25000J0D01*
G01*
X8061000Y-9779000D02*
G75*
G03*
X8061000Y-9779000I-25000J0D01*
G01*
X8061000Y-9879000D02*
G75*
G03*
X8061000Y-9879000I-25000J0D01*
G01*
X8061000Y-11584000D02*
G75*
G03*
X8061000Y-11584000I-25000J0D01*
G01*
X8061000Y-11684000D02*
G75*
G03*
X8061000Y-11684000I-25000J0D01*
G01*
X8061000Y-11784000D02*
G75*
G03*
X8061000Y-11784000I-25000J0D01*
G01*
X8626000Y-3456000D02*
G75*
G03*
X8626000Y-3456000I-25000J0D01*
G01*
X8626000Y-3556000D02*
G75*
G03*
X8626000Y-3556000I-25000J0D01*
G01*
X8626000Y-3656000D02*
G75*
G03*
X8626000Y-3656000I-25000J0D01*
G01*
X8626000Y-5361000D02*
G75*
G03*
X8626000Y-5361000I-25000J0D01*
G01*
X8626000Y-5461000D02*
G75*
G03*
X8626000Y-5461000I-25000J0D01*
G01*
X8626000Y-5561000D02*
G75*
G03*
X8626000Y-5561000I-25000J0D01*
G01*
X8626000Y-7266000D02*
G75*
G03*
X8626000Y-7266000I-25000J0D01*
G01*
X8626000Y-7366000D02*
G75*
G03*
X8626000Y-7366000I-25000J0D01*
G01*
X8626000Y-7466000D02*
G75*
G03*
X8626000Y-7466000I-25000J0D01*
G01*
X8626000Y-9171000D02*
G75*
G03*
X8626000Y-9171000I-25000J0D01*
G01*
X8626000Y-9271000D02*
G75*
G03*
X8626000Y-9271000I-25000J0D01*
G01*
X8626000Y-9371000D02*
G75*
G03*
X8626000Y-9371000I-25000J0D01*
G01*
X8626000Y-11076000D02*
G75*
G03*
X8626000Y-11076000I-25000J0D01*
G01*
X8626000Y-11176000D02*
G75*
G03*
X8626000Y-11176000I-25000J0D01*
G01*
X8626000Y-11276000D02*
G75*
G03*
X8626000Y-11276000I-25000J0D01*
G01*
X9966000Y-3456000D02*
G75*
G03*
X9966000Y-3456000I-25000J0D01*
G01*
X9966000Y-3556000D02*
G75*
G03*
X9966000Y-3556000I-25000J0D01*
G01*
X9966000Y-3656000D02*
G75*
G03*
X9966000Y-3656000I-25000J0D01*
G01*
X9966000Y-5361000D02*
G75*
G03*
X9966000Y-5361000I-25000J0D01*
G01*
X9966000Y-5461000D02*
G75*
G03*
X9966000Y-5461000I-25000J0D01*
G01*
X9966000Y-5561000D02*
G75*
G03*
X9966000Y-5561000I-25000J0D01*
G01*
X9966000Y-7266000D02*
G75*
G03*
X9966000Y-7266000I-25000J0D01*
G01*
X9966000Y-7366000D02*
G75*
G03*
X9966000Y-7366000I-25000J0D01*
G01*
X9966000Y-7466000D02*
G75*
G03*
X9966000Y-7466000I-25000J0D01*
G01*
X9966000Y-9171000D02*
G75*
G03*
X9966000Y-9171000I-25000J0D01*
G01*
X9966000Y-9271000D02*
G75*
G03*
X9966000Y-9271000I-25000J0D01*
G01*
X9966000Y-9371000D02*
G75*
G03*
X9966000Y-9371000I-25000J0D01*
G01*
X9966000Y-11076000D02*
G75*
G03*
X9966000Y-11076000I-25000J0D01*
G01*
X9966000Y-11176000D02*
G75*
G03*
X9966000Y-11176000I-25000J0D01*
G01*
X9966000Y-11276000D02*
G75*
G03*
X9966000Y-11276000I-25000J0D01*
G01*
X10531000Y-3964000D02*
G75*
G03*
X10531000Y-3964000I-25000J0D01*
G01*
X10531000Y-4064000D02*
G75*
G03*
X10531000Y-4064000I-25000J0D01*
G01*
X10531000Y-4164000D02*
G75*
G03*
X10531000Y-4164000I-25000J0D01*
G01*
X10531000Y-5869000D02*
G75*
G03*
X10531000Y-5869000I-25000J0D01*
G01*
X10531000Y-5969000D02*
G75*
G03*
X10531000Y-5969000I-25000J0D01*
G01*
X10531000Y-6069000D02*
G75*
G03*
X10531000Y-6069000I-25000J0D01*
G01*
X10531000Y-7774000D02*
G75*
G03*
X10531000Y-7774000I-25000J0D01*
G01*
X10531000Y-7874000D02*
G75*
G03*
X10531000Y-7874000I-25000J0D01*
G01*
X10531000Y-7974000D02*
G75*
G03*
X10531000Y-7974000I-25000J0D01*
G01*
X10531000Y-9679000D02*
G75*
G03*
X10531000Y-9679000I-25000J0D01*
G01*
X10531000Y-9779000D02*
G75*
G03*
X10531000Y-9779000I-25000J0D01*
G01*
X10531000Y-9879000D02*
G75*
G03*
X10531000Y-9879000I-25000J0D01*
G01*
X10531000Y-11584000D02*
G75*
G03*
X10531000Y-11584000I-25000J0D01*
G01*
X10531000Y-11684000D02*
G75*
G03*
X10531000Y-11684000I-25000J0D01*
G01*
X10531000Y-11784000D02*
G75*
G03*
X10531000Y-11784000I-25000J0D01*
G01*
X11871000Y-3964000D02*
G75*
G03*
X11871000Y-3964000I-25000J0D01*
G01*
X11871000Y-4064000D02*
G75*
G03*
X11871000Y-4064000I-25000J0D01*
G01*
X11871000Y-4164000D02*
G75*
G03*
X11871000Y-4164000I-25000J0D01*
G01*
X11871000Y-5869000D02*
G75*
G03*
X11871000Y-5869000I-25000J0D01*
G01*
X11871000Y-5969000D02*
G75*
G03*
X11871000Y-5969000I-25000J0D01*
G01*
X11871000Y-6069000D02*
G75*
G03*
X11871000Y-6069000I-25000J0D01*
G01*
X11871000Y-7774000D02*
G75*
G03*
X11871000Y-7774000I-25000J0D01*
G01*
X11871000Y-7874000D02*
G75*
G03*
X11871000Y-7874000I-25000J0D01*
G01*
X11871000Y-7974000D02*
G75*
G03*
X11871000Y-7974000I-25000J0D01*
G01*
X11871000Y-9679000D02*
G75*
G03*
X11871000Y-9679000I-25000J0D01*
G01*
X11871000Y-9779000D02*
G75*
G03*
X11871000Y-9779000I-25000J0D01*
G01*
X11871000Y-9879000D02*
G75*
G03*
X11871000Y-9879000I-25000J0D01*
G01*
X11871000Y-11584000D02*
G75*
G03*
X11871000Y-11584000I-25000J0D01*
G01*
X11871000Y-11684000D02*
G75*
G03*
X11871000Y-11684000I-25000J0D01*
G01*
X11871000Y-11784000D02*
G75*
G03*
X11871000Y-11784000I-25000J0D01*
G01*
X12436000Y-4472000D02*
G75*
G03*
X12436000Y-4472000I-25000J0D01*
G01*
X12436000Y-4572000D02*
G75*
G03*
X12436000Y-4572000I-25000J0D01*
G01*
X12436000Y-4672000D02*
G75*
G03*
X12436000Y-4672000I-25000J0D01*
G01*
X12436000Y-6377000D02*
G75*
G03*
X12436000Y-6377000I-25000J0D01*
G01*
X12436000Y-6477000D02*
G75*
G03*
X12436000Y-6477000I-25000J0D01*
G01*
X12436000Y-6577000D02*
G75*
G03*
X12436000Y-6577000I-25000J0D01*
G01*
X12436000Y-8282000D02*
G75*
G03*
X12436000Y-8282000I-25000J0D01*
G01*
X12436000Y-8382000D02*
G75*
G03*
X12436000Y-8382000I-25000J0D01*
G01*
X12436000Y-8482000D02*
G75*
G03*
X12436000Y-8482000I-25000J0D01*
G01*
X12436000Y-10187000D02*
G75*
G03*
X12436000Y-10187000I-25000J0D01*
G01*
X12436000Y-10287000D02*
G75*
G03*
X12436000Y-10287000I-25000J0D01*
G01*
X12436000Y-10387000D02*
G75*
G03*
X12436000Y-10387000I-25000J0D01*
G01*
X12436000Y-12092000D02*
G75*
G03*
X12436000Y-12092000I-25000J0D01*
G01*
X12436000Y-12192000D02*
G75*
G03*
X12436000Y-12192000I-25000J0D01*
G01*
X12436000Y-12292000D02*
G75*
G03*
X12436000Y-12292000I-25000J0D01*
G01*
X13776000Y-4472000D02*
G75*
G03*
X13776000Y-4472000I-25000J0D01*
G01*
X13776000Y-4572000D02*
G75*
G03*
X13776000Y-4572000I-25000J0D01*
G01*
X13776000Y-4672000D02*
G75*
G03*
X13776000Y-4672000I-25000J0D01*
G01*
X13776000Y-6377000D02*
G75*
G03*
X13776000Y-6377000I-25000J0D01*
G01*
X13776000Y-6477000D02*
G75*
G03*
X13776000Y-6477000I-25000J0D01*
G01*
X13776000Y-6577000D02*
G75*
G03*
X13776000Y-6577000I-25000J0D01*
G01*
X13776000Y-8282000D02*
G75*
G03*
X13776000Y-8282000I-25000J0D01*
G01*
X13776000Y-8382000D02*
G75*
G03*
X13776000Y-8382000I-25000J0D01*
G01*
X13776000Y-8482000D02*
G75*
G03*
X13776000Y-8482000I-25000J0D01*
G01*
X13776000Y-10187000D02*
G75*
G03*
X13776000Y-10187000I-25000J0D01*
G01*
X13776000Y-10287000D02*
G75*
G03*
X13776000Y-10287000I-25000J0D01*
G01*
X13776000Y-10387000D02*
G75*
G03*
X13776000Y-10387000I-25000J0D01*
G01*
X13776000Y-12092000D02*
G75*
G03*
X13776000Y-12092000I-25000J0D01*
G01*
X13776000Y-12192000D02*
G75*
G03*
X13776000Y-12192000I-25000J0D01*
G01*
X13776000Y-12292000D02*
G75*
G03*
X13776000Y-12292000I-25000J0D01*
G01*
X14341000Y-13235000D02*
G75*
G03*
X14341000Y-13235000I-25000J0D01*
G01*
X14341000Y-13335000D02*
G75*
G03*
X14341000Y-13335000I-25000J0D01*
G01*
X14341000Y-13435000D02*
G75*
G03*
X14341000Y-13435000I-25000J0D01*
G01*
X15681000Y-13235000D02*
G75*
G03*
X15681000Y-13235000I-25000J0D01*
G01*
X15681000Y-13335000D02*
G75*
G03*
X15681000Y-13335000I-25000J0D01*
G01*
X15681000Y-13435000D02*
G75*
G03*
X15681000Y-13435000I-25000J0D01*
G01*
X2667000Y-4532000D02*
X2667000Y-4612000D01*
X2627000Y-4572000D02*
X2707000Y-4572000D01*
X2667000Y-5294000D02*
X2667000Y-5374000D01*
X2627000Y-5334000D02*
X2707000Y-5334000D01*
X2667000Y-6437000D02*
X2667000Y-6517000D01*
X2627000Y-6477000D02*
X2707000Y-6477000D01*
X2667000Y-7199000D02*
X2667000Y-7279000D01*
X2627000Y-7239000D02*
X2707000Y-7239000D01*
X2667000Y-8342000D02*
X2667000Y-8422000D01*
X2627000Y-8382000D02*
X2707000Y-8382000D01*
X2667000Y-9104000D02*
X2667000Y-9184000D01*
X2627000Y-9144000D02*
X2707000Y-9144000D01*
X2667000Y-10247000D02*
X2667000Y-10327000D01*
X2627000Y-10287000D02*
X2707000Y-10287000D01*
X2667000Y-11009000D02*
X2667000Y-11089000D01*
X2627000Y-11049000D02*
X2707000Y-11049000D01*
X4572000Y-4532000D02*
X4572000Y-4612000D01*
X4532000Y-4572000D02*
X4612000Y-4572000D01*
X4572000Y-5294000D02*
X4572000Y-5374000D01*
X4532000Y-5334000D02*
X4612000Y-5334000D01*
X4572000Y-6437000D02*
X4572000Y-6517000D01*
X4532000Y-6477000D02*
X4612000Y-6477000D01*
X4572000Y-7199000D02*
X4572000Y-7279000D01*
X4532000Y-7239000D02*
X4612000Y-7239000D01*
X4572000Y-8342000D02*
X4572000Y-8422000D01*
X4532000Y-8382000D02*
X4612000Y-8382000D01*
X4572000Y-9104000D02*
X4572000Y-9184000D01*
X4532000Y-9144000D02*
X4612000Y-9144000D01*
X4572000Y-10247000D02*
X4572000Y-10327000D01*
X4532000Y-10287000D02*
X4612000Y-10287000D01*
X4572000Y-11009000D02*
X4572000Y-11089000D01*
X4532000Y-11049000D02*
X4612000Y-11049000D01*
X4572000Y-12152000D02*
X4572000Y-12232000D01*
X4532000Y-12192000D02*
X4612000Y-12192000D01*
X4572000Y-12914000D02*
X4572000Y-12994000D01*
X4532000Y-12954000D02*
X4612000Y-12954000D01*
X6477000Y-4024000D02*
X6477000Y-4104000D01*
X6437000Y-4064000D02*
X6517000Y-4064000D01*
X6477000Y-4786000D02*
X6477000Y-4866000D01*
X6437000Y-4826000D02*
X6517000Y-4826000D01*
X6477000Y-5929000D02*
X6477000Y-6009000D01*
X6437000Y-5969000D02*
X6517000Y-5969000D01*
X6477000Y-6691000D02*
X6477000Y-6771000D01*
X6437000Y-6731000D02*
X6517000Y-6731000D01*
X6477000Y-7834000D02*
X6477000Y-7914000D01*
X6437000Y-7874000D02*
X6517000Y-7874000D01*
X6477000Y-8596000D02*
X6477000Y-8676000D01*
X6437000Y-8636000D02*
X6517000Y-8636000D01*
X6477000Y-9739000D02*
X6477000Y-9819000D01*
X6437000Y-9779000D02*
X6517000Y-9779000D01*
X6477000Y-10501000D02*
X6477000Y-10581000D01*
X6437000Y-10541000D02*
X6517000Y-10541000D01*
X6477000Y-11644000D02*
X6477000Y-11724000D01*
X6437000Y-11684000D02*
X6517000Y-11684000D01*
X6477000Y-12406000D02*
X6477000Y-12486000D01*
X6437000Y-12446000D02*
X6517000Y-12446000D01*
X8382000Y-3516000D02*
X8382000Y-3596000D01*
X8342000Y-3556000D02*
X8422000Y-3556000D01*
X8382000Y-4278000D02*
X8382000Y-4358000D01*
X8342000Y-4318000D02*
X8422000Y-4318000D01*
X8382000Y-5421000D02*
X8382000Y-5501000D01*
X8342000Y-5461000D02*
X8422000Y-5461000D01*
X8382000Y-6183000D02*
X8382000Y-6263000D01*
X8342000Y-6223000D02*
X8422000Y-6223000D01*
X8382000Y-7326000D02*
X8382000Y-7406000D01*
X8342000Y-7366000D02*
X8422000Y-7366000D01*
X8382000Y-8088000D02*
X8382000Y-8168000D01*
X8342000Y-8128000D02*
X8422000Y-8128000D01*
X8382000Y-9231000D02*
X8382000Y-9311000D01*
X8342000Y-9271000D02*
X8422000Y-9271000D01*
X8382000Y-9993000D02*
X8382000Y-10073000D01*
X8342000Y-10033000D02*
X8422000Y-10033000D01*
X8382000Y-11136000D02*
X8382000Y-11216000D01*
X8342000Y-11176000D02*
X8422000Y-11176000D01*
X8382000Y-11898000D02*
X8382000Y-11978000D01*
X8342000Y-11938000D02*
X8422000Y-11938000D01*
X10287000Y-4024000D02*
X10287000Y-4104000D01*
X10247000Y-4064000D02*
X10327000Y-4064000D01*
X10287000Y-4786000D02*
X10287000Y-4866000D01*
X10247000Y-4826000D02*
X10327000Y-4826000D01*
X10287000Y-5929000D02*
X10287000Y-6009000D01*
X10247000Y-5969000D02*
X10327000Y-5969000D01*
X10287000Y-6691000D02*
X10287000Y-6771000D01*
X10247000Y-6731000D02*
X10327000Y-6731000D01*
X10287000Y-7834000D02*
X10287000Y-7914000D01*
X10247000Y-7874000D02*
X10327000Y-7874000D01*
X10287000Y-8596000D02*
X10287000Y-8676000D01*
X10247000Y-8636000D02*
X10327000Y-8636000D01*
X10287000Y-9739000D02*
X10287000Y-9819000D01*
X10247000Y-9779000D02*
X10327000Y-9779000D01*
X10287000Y-10501000D02*
X10287000Y-10581000D01*
X10247000Y-10541000D02*
X10327000Y-10541000D01*
X10287000Y-11644000D02*
X10287000Y-11724000D01*
X10247000Y-11684000D02*
X10327000Y-11684000D01*
X10287000Y-12406000D02*
X10287000Y-12486000D01*
X10247000Y-12446000D02*
X10327000Y-12446000D01*
X12192000Y-4532000D02*
X12192000Y-4612000D01*
X12152000Y-4572000D02*
X12232000Y-4572000D01*
X12192000Y-5294000D02*
X12192000Y-5374000D01*
X12152000Y-5334000D02*
X12232000Y-5334000D01*
X12192000Y-6437000D02*
X12192000Y-6517000D01*
X12152000Y-6477000D02*
X12232000Y-6477000D01*
X12192000Y-7199000D02*
X12192000Y-7279000D01*
X12152000Y-7239000D02*
X12232000Y-7239000D01*
X12192000Y-8342000D02*
X12192000Y-8422000D01*
X12152000Y-8382000D02*
X12232000Y-8382000D01*
X12192000Y-9104000D02*
X12192000Y-9184000D01*
X12152000Y-9144000D02*
X12232000Y-9144000D01*
X12192000Y-10247000D02*
X12192000Y-10327000D01*
X12152000Y-10287000D02*
X12232000Y-10287000D01*
X12192000Y-11009000D02*
X12192000Y-11089000D01*
X12152000Y-11049000D02*
X12232000Y-11049000D01*
X12192000Y-12152000D02*
X12192000Y-12232000D01*
X12152000Y-12192000D02*
X12232000Y-12192000D01*
X12192000Y-12914000D02*
X12192000Y-12994000D01*
X12152000Y-12954000D02*
X12232000Y-12954000D01*
X14097000Y-13295000D02*
X14097000Y-13375000D01*
X14057000Y-13335000D02*
X14137000Y-13335000D01*
X14097000Y-14057000D02*
X14097000Y-14137000D01*
X14057000Y-14097000D02*
X14137000Y-14097000D01*
X15021356Y-8163356D02*
X15021356Y-8092644D01*
X14950644Y-8092644D01*
X14950644Y-8163356D01*
X15021356Y-8163356D01*
X15021356Y-8798356D02*
X15021356Y-8727644D01*
X14950644Y-8727644D01*
X14950644Y-8798356D01*
X15021356Y-8798356D01*
X15275356Y-8163356D02*
X15275356Y-8092644D01*
X15204644Y-8092644D01*
X15204644Y-8163356D01*
X15275356Y-8163356D01*
X15275356Y-8798356D02*
X15275356Y-8727644D01*
X15204644Y-8727644D01*
X15204644Y-8798356D01*
X15275356Y-8798356D01*
X15529356Y-8163356D02*
X15529356Y-8092644D01*
X15458644Y-8092644D01*
X15458644Y-8163356D01*
X15529356Y-8163356D01*
X15529356Y-8798356D02*
X15529356Y-8727644D01*
X15458644Y-8727644D01*
X15458644Y-8798356D01*
X15529356Y-8798356D01*
X15783356Y-8163356D02*
X15783356Y-8092644D01*
X15712644Y-8092644D01*
X15712644Y-8163356D01*
X15783356Y-8163356D01*
X15783356Y-8798356D02*
X15783356Y-8727644D01*
X15712644Y-8727644D01*
X15712644Y-8798356D01*
X15783356Y-8798356D01*
X3429000Y-4119000D02*
X3484000Y-4064000D01*
X3429000Y-4009000D01*
X3374000Y-4064000D01*
X3429000Y-4119000D01*
X3429000Y-6024000D02*
X3484000Y-5969000D01*
X3429000Y-5914000D01*
X3374000Y-5969000D01*
X3429000Y-6024000D01*
X3429000Y-7929000D02*
X3484000Y-7874000D01*
X3429000Y-7819000D01*
X3374000Y-7874000D01*
X3429000Y-7929000D01*
X3429000Y-9834000D02*
X3484000Y-9779000D01*
X3429000Y-9724000D01*
X3374000Y-9779000D01*
X3429000Y-9834000D01*
X3683000Y-4119000D02*
X3738000Y-4064000D01*
X3683000Y-4009000D01*
X3628000Y-4064000D01*
X3683000Y-4119000D01*
X3683000Y-6024000D02*
X3738000Y-5969000D01*
X3683000Y-5914000D01*
X3628000Y-5969000D01*
X3683000Y-6024000D01*
X3683000Y-7929000D02*
X3738000Y-7874000D01*
X3683000Y-7819000D01*
X3628000Y-7874000D01*
X3683000Y-7929000D01*
X3683000Y-9834000D02*
X3738000Y-9779000D01*
X3683000Y-9724000D01*
X3628000Y-9779000D01*
X3683000Y-9834000D01*
X5334000Y-4119000D02*
X5389000Y-4064000D01*
X5334000Y-4009000D01*
X5279000Y-4064000D01*
X5334000Y-4119000D01*
X5334000Y-6024000D02*
X5389000Y-5969000D01*
X5334000Y-5914000D01*
X5279000Y-5969000D01*
X5334000Y-6024000D01*
X5334000Y-7929000D02*
X5389000Y-7874000D01*
X5334000Y-7819000D01*
X5279000Y-7874000D01*
X5334000Y-7929000D01*
X5334000Y-9834000D02*
X5389000Y-9779000D01*
X5334000Y-9724000D01*
X5279000Y-9779000D01*
X5334000Y-9834000D01*
X5334000Y-11739000D02*
X5389000Y-11684000D01*
X5334000Y-11629000D01*
X5279000Y-11684000D01*
X5334000Y-11739000D01*
X5588000Y-4119000D02*
X5643000Y-4064000D01*
X5588000Y-4009000D01*
X5533000Y-4064000D01*
X5588000Y-4119000D01*
X5588000Y-6024000D02*
X5643000Y-5969000D01*
X5588000Y-5914000D01*
X5533000Y-5969000D01*
X5588000Y-6024000D01*
X5588000Y-7929000D02*
X5643000Y-7874000D01*
X5588000Y-7819000D01*
X5533000Y-7874000D01*
X5588000Y-7929000D01*
X5588000Y-9834000D02*
X5643000Y-9779000D01*
X5588000Y-9724000D01*
X5533000Y-9779000D01*
X5588000Y-9834000D01*
X5588000Y-11739000D02*
X5643000Y-11684000D01*
X5588000Y-11629000D01*
X5533000Y-11684000D01*
X5588000Y-11739000D01*
X7239000Y-3611000D02*
X7294000Y-3556000D01*
X7239000Y-3501000D01*
X7184000Y-3556000D01*
X7239000Y-3611000D01*
X7239000Y-5516000D02*
X7294000Y-5461000D01*
X7239000Y-5406000D01*
X7184000Y-5461000D01*
X7239000Y-5516000D01*
X7239000Y-7421000D02*
X7294000Y-7366000D01*
X7239000Y-7311000D01*
X7184000Y-7366000D01*
X7239000Y-7421000D01*
X7239000Y-9326000D02*
X7294000Y-9271000D01*
X7239000Y-9216000D01*
X7184000Y-9271000D01*
X7239000Y-9326000D01*
X7239000Y-11231000D02*
X7294000Y-11176000D01*
X7239000Y-11121000D01*
X7184000Y-11176000D01*
X7239000Y-11231000D01*
X7493000Y-3611000D02*
X7548000Y-3556000D01*
X7493000Y-3501000D01*
X7438000Y-3556000D01*
X7493000Y-3611000D01*
X7493000Y-5516000D02*
X7548000Y-5461000D01*
X7493000Y-5406000D01*
X7438000Y-5461000D01*
X7493000Y-5516000D01*
X7493000Y-7421000D02*
X7548000Y-7366000D01*
X7493000Y-7311000D01*
X7438000Y-7366000D01*
X7493000Y-7421000D01*
X7493000Y-9326000D02*
X7548000Y-9271000D01*
X7493000Y-9216000D01*
X7438000Y-9271000D01*
X7493000Y-9326000D01*
X7493000Y-11231000D02*
X7548000Y-11176000D01*
X7493000Y-11121000D01*
X7438000Y-11176000D01*
X7493000Y-11231000D01*
X9144000Y-3103000D02*
X9199000Y-3048000D01*
X9144000Y-2993000D01*
X9089000Y-3048000D01*
X9144000Y-3103000D01*
X9144000Y-5008000D02*
X9199000Y-4953000D01*
X9144000Y-4898000D01*
X9089000Y-4953000D01*
X9144000Y-5008000D01*
X9144000Y-6913000D02*
X9199000Y-6858000D01*
X9144000Y-6803000D01*
X9089000Y-6858000D01*
X9144000Y-6913000D01*
X9144000Y-8818000D02*
X9199000Y-8763000D01*
X9144000Y-8708000D01*
X9089000Y-8763000D01*
X9144000Y-8818000D01*
X9144000Y-10723000D02*
X9199000Y-10668000D01*
X9144000Y-10613000D01*
X9089000Y-10668000D01*
X9144000Y-10723000D01*
X9398000Y-3103000D02*
X9453000Y-3048000D01*
X9398000Y-2993000D01*
X9343000Y-3048000D01*
X9398000Y-3103000D01*
X9398000Y-5008000D02*
X9453000Y-4953000D01*
X9398000Y-4898000D01*
X9343000Y-4953000D01*
X9398000Y-5008000D01*
X9398000Y-6913000D02*
X9453000Y-6858000D01*
X9398000Y-6803000D01*
X9343000Y-6858000D01*
X9398000Y-6913000D01*
X9398000Y-8818000D02*
X9453000Y-8763000D01*
X9398000Y-8708000D01*
X9343000Y-8763000D01*
X9398000Y-8818000D01*
X9398000Y-10723000D02*
X9453000Y-10668000D01*
X9398000Y-10613000D01*
X9343000Y-10668000D01*
X9398000Y-10723000D01*
X11049000Y-3611000D02*
X11104000Y-3556000D01*
X11049000Y-3501000D01*
X10994000Y-3556000D01*
X11049000Y-3611000D01*
X11049000Y-5516000D02*
X11104000Y-5461000D01*
X11049000Y-5406000D01*
X10994000Y-5461000D01*
X11049000Y-5516000D01*
X11049000Y-7421000D02*
X11104000Y-7366000D01*
X11049000Y-7311000D01*
X10994000Y-7366000D01*
X11049000Y-7421000D01*
X11049000Y-9326000D02*
X11104000Y-9271000D01*
X11049000Y-9216000D01*
X10994000Y-9271000D01*
X11049000Y-9326000D01*
X11049000Y-11231000D02*
X11104000Y-11176000D01*
X11049000Y-11121000D01*
X10994000Y-11176000D01*
X11049000Y-11231000D01*
X11303000Y-3611000D02*
X11358000Y-3556000D01*
X11303000Y-3501000D01*
X11248000Y-3556000D01*
X11303000Y-3611000D01*
X11303000Y-5516000D02*
X11358000Y-5461000D01*
X11303000Y-5406000D01*
X11248000Y-5461000D01*
X11303000Y-5516000D01*
X11303000Y-7421000D02*
X11358000Y-7366000D01*
X11303000Y-7311000D01*
X11248000Y-7366000D01*
X11303000Y-7421000D01*
X11303000Y-9326000D02*
X11358000Y-9271000D01*
X11303000Y-9216000D01*
X11248000Y-9271000D01*
X11303000Y-9326000D01*
X11303000Y-11231000D02*
X11358000Y-11176000D01*
X11303000Y-11121000D01*
X11248000Y-11176000D01*
X11303000Y-11231000D01*
X12954000Y-4119000D02*
X13009000Y-4064000D01*
X12954000Y-4009000D01*
X12899000Y-4064000D01*
X12954000Y-4119000D01*
X12954000Y-6024000D02*
X13009000Y-5969000D01*
X12954000Y-5914000D01*
X12899000Y-5969000D01*
X12954000Y-6024000D01*
X12954000Y-7929000D02*
X13009000Y-7874000D01*
X12954000Y-7819000D01*
X12899000Y-7874000D01*
X12954000Y-7929000D01*
X12954000Y-9834000D02*
X13009000Y-9779000D01*
X12954000Y-9724000D01*
X12899000Y-9779000D01*
X12954000Y-9834000D01*
X12954000Y-11739000D02*
X13009000Y-11684000D01*
X12954000Y-11629000D01*
X12899000Y-11684000D01*
X12954000Y-11739000D01*
X13208000Y-4119000D02*
X13263000Y-4064000D01*
X13208000Y-4009000D01*
X13153000Y-4064000D01*
X13208000Y-4119000D01*
X13208000Y-6024000D02*
X13263000Y-5969000D01*
X13208000Y-5914000D01*
X13153000Y-5969000D01*
X13208000Y-6024000D01*
X13208000Y-7929000D02*
X13263000Y-7874000D01*
X13208000Y-7819000D01*
X13153000Y-7874000D01*
X13208000Y-7929000D01*
X13208000Y-9834000D02*
X13263000Y-9779000D01*
X13208000Y-9724000D01*
X13153000Y-9779000D01*
X13208000Y-9834000D01*
X13208000Y-11739000D02*
X13263000Y-11684000D01*
X13208000Y-11629000D01*
X13153000Y-11684000D01*
X13208000Y-11739000D01*
X14351000Y-3865000D02*
X14406000Y-3810000D01*
X14351000Y-3755000D01*
X14296000Y-3810000D01*
X14351000Y-3865000D01*
X14351000Y-4119000D02*
X14406000Y-4064000D01*
X14351000Y-4009000D01*
X14296000Y-4064000D01*
X14351000Y-4119000D01*
X14351000Y-4373000D02*
X14406000Y-4318000D01*
X14351000Y-4263000D01*
X14296000Y-4318000D01*
X14351000Y-4373000D01*
X14351000Y-4627000D02*
X14406000Y-4572000D01*
X14351000Y-4517000D01*
X14296000Y-4572000D01*
X14351000Y-4627000D01*
X14351000Y-4881000D02*
X14406000Y-4826000D01*
X14351000Y-4771000D01*
X14296000Y-4826000D01*
X14351000Y-4881000D01*
X14351000Y-5135000D02*
X14406000Y-5080000D01*
X14351000Y-5025000D01*
X14296000Y-5080000D01*
X14351000Y-5135000D01*
X14351000Y-5389000D02*
X14406000Y-5334000D01*
X14351000Y-5279000D01*
X14296000Y-5334000D01*
X14351000Y-5389000D01*
X14351000Y-5643000D02*
X14406000Y-5588000D01*
X14351000Y-5533000D01*
X14296000Y-5588000D01*
X14351000Y-5643000D01*
X14351000Y-5897000D02*
X14406000Y-5842000D01*
X14351000Y-5787000D01*
X14296000Y-5842000D01*
X14351000Y-5897000D01*
X14351000Y-6151000D02*
X14406000Y-6096000D01*
X14351000Y-6041000D01*
X14296000Y-6096000D01*
X14351000Y-6151000D01*
X14351000Y-6405000D02*
X14406000Y-6350000D01*
X14351000Y-6295000D01*
X14296000Y-6350000D01*
X14351000Y-6405000D01*
X14351000Y-6659000D02*
X14406000Y-6604000D01*
X14351000Y-6549000D01*
X14296000Y-6604000D01*
X14351000Y-6659000D01*
X14859000Y-12882000D02*
X14914000Y-12827000D01*
X14859000Y-12772000D01*
X14804000Y-12827000D01*
X14859000Y-12882000D01*
X15113000Y-12882000D02*
X15168000Y-12827000D01*
X15113000Y-12772000D01*
X15058000Y-12827000D01*
X15113000Y-12882000D01*
X15875000Y-3865000D02*
X15930000Y-3810000D01*
X15875000Y-3755000D01*
X15820000Y-3810000D01*
X15875000Y-3865000D01*
X15875000Y-4119000D02*
X15930000Y-4064000D01*
X15875000Y-4009000D01*
X15820000Y-4064000D01*
X15875000Y-4119000D01*
X15875000Y-4373000D02*
X15930000Y-4318000D01*
X15875000Y-4263000D01*
X15820000Y-4318000D01*
X15875000Y-4373000D01*
X15875000Y-4627000D02*
X15930000Y-4572000D01*
X15875000Y-4517000D01*
X15820000Y-4572000D01*
X15875000Y-4627000D01*
X15875000Y-4881000D02*
X15930000Y-4826000D01*
X15875000Y-4771000D01*
X15820000Y-4826000D01*
X15875000Y-4881000D01*
X15875000Y-5135000D02*
X15930000Y-5080000D01*
X15875000Y-5025000D01*
X15820000Y-5080000D01*
X15875000Y-5135000D01*
X15875000Y-5389000D02*
X15930000Y-5334000D01*
X15875000Y-5279000D01*
X15820000Y-5334000D01*
X15875000Y-5389000D01*
X15875000Y-5643000D02*
X15930000Y-5588000D01*
X15875000Y-5533000D01*
X15820000Y-5588000D01*
X15875000Y-5643000D01*
X15875000Y-5897000D02*
X15930000Y-5842000D01*
X15875000Y-5787000D01*
X15820000Y-5842000D01*
X15875000Y-5897000D01*
X15875000Y-6151000D02*
X15930000Y-6096000D01*
X15875000Y-6041000D01*
X15820000Y-6096000D01*
X15875000Y-6151000D01*
X15875000Y-6405000D02*
X15930000Y-6350000D01*
X15875000Y-6295000D01*
X15820000Y-6350000D01*
X15875000Y-6405000D01*
X15875000Y-6659000D02*
X15930000Y-6604000D01*
X15875000Y-6549000D01*
X15820000Y-6604000D01*
X15875000Y-6659000D01*
X3105000Y-4756000D02*
X3245000Y-4896000D01*
X3245000Y-4756000D02*
X3105000Y-4896000D01*
X3245000Y-4826000D02*
G75*
G03*
X3245000Y-4826000I-70000J0D01*
G01*
X3105000Y-6661000D02*
X3245000Y-6801000D01*
X3245000Y-6661000D02*
X3105000Y-6801000D01*
X3245000Y-6731000D02*
G75*
G03*
X3245000Y-6731000I-70000J0D01*
G01*
X3105000Y-8566000D02*
X3245000Y-8706000D01*
X3245000Y-8566000D02*
X3105000Y-8706000D01*
X3245000Y-8636000D02*
G75*
G03*
X3245000Y-8636000I-70000J0D01*
G01*
X3105000Y-10471000D02*
X3245000Y-10611000D01*
X3245000Y-10471000D02*
X3105000Y-10611000D01*
X3245000Y-10541000D02*
G75*
G03*
X3245000Y-10541000I-70000J0D01*
G01*
X3232000Y-4989680D02*
X3372000Y-5129680D01*
X3372000Y-4989680D02*
X3232000Y-5129680D01*
X3372000Y-5059680D02*
G75*
G03*
X3372000Y-5059680I-70000J0D01*
G01*
X3232000Y-6894680D02*
X3372000Y-7034680D01*
X3372000Y-6894680D02*
X3232000Y-7034680D01*
X3372000Y-6964680D02*
G75*
G03*
X3372000Y-6964680I-70000J0D01*
G01*
X3232000Y-8799680D02*
X3372000Y-8939680D01*
X3372000Y-8799680D02*
X3232000Y-8939680D01*
X3372000Y-8869680D02*
G75*
G03*
X3372000Y-8869680I-70000J0D01*
G01*
X3232000Y-10704680D02*
X3372000Y-10844680D01*
X3372000Y-10704680D02*
X3232000Y-10844680D01*
X3372000Y-10774680D02*
G75*
G03*
X3372000Y-10774680I-70000J0D01*
G01*
X3740000Y-4989680D02*
X3880000Y-5129680D01*
X3880000Y-4989680D02*
X3740000Y-5129680D01*
X3880000Y-5059680D02*
G75*
G03*
X3880000Y-5059680I-70000J0D01*
G01*
X3740000Y-6894680D02*
X3880000Y-7034680D01*
X3880000Y-6894680D02*
X3740000Y-7034680D01*
X3880000Y-6964680D02*
G75*
G03*
X3880000Y-6964680I-70000J0D01*
G01*
X3740000Y-8799680D02*
X3880000Y-8939680D01*
X3880000Y-8799680D02*
X3740000Y-8939680D01*
X3880000Y-8869680D02*
G75*
G03*
X3880000Y-8869680I-70000J0D01*
G01*
X3740000Y-10704680D02*
X3880000Y-10844680D01*
X3880000Y-10704680D02*
X3740000Y-10844680D01*
X3880000Y-10774680D02*
G75*
G03*
X3880000Y-10774680I-70000J0D01*
G01*
X3867000Y-4756000D02*
X4007000Y-4896000D01*
X4007000Y-4756000D02*
X3867000Y-4896000D01*
X4007000Y-4826000D02*
G75*
G03*
X4007000Y-4826000I-70000J0D01*
G01*
X3867000Y-6661000D02*
X4007000Y-6801000D01*
X4007000Y-6661000D02*
X3867000Y-6801000D01*
X4007000Y-6731000D02*
G75*
G03*
X4007000Y-6731000I-70000J0D01*
G01*
X3867000Y-8566000D02*
X4007000Y-8706000D01*
X4007000Y-8566000D02*
X3867000Y-8706000D01*
X4007000Y-8636000D02*
G75*
G03*
X4007000Y-8636000I-70000J0D01*
G01*
X3867000Y-10471000D02*
X4007000Y-10611000D01*
X4007000Y-10471000D02*
X3867000Y-10611000D01*
X4007000Y-10541000D02*
G75*
G03*
X4007000Y-10541000I-70000J0D01*
G01*
X5010000Y-4756000D02*
X5150000Y-4896000D01*
X5150000Y-4756000D02*
X5010000Y-4896000D01*
X5150000Y-4826000D02*
G75*
G03*
X5150000Y-4826000I-70000J0D01*
G01*
X5010000Y-6661000D02*
X5150000Y-6801000D01*
X5150000Y-6661000D02*
X5010000Y-6801000D01*
X5150000Y-6731000D02*
G75*
G03*
X5150000Y-6731000I-70000J0D01*
G01*
X5010000Y-8566000D02*
X5150000Y-8706000D01*
X5150000Y-8566000D02*
X5010000Y-8706000D01*
X5150000Y-8636000D02*
G75*
G03*
X5150000Y-8636000I-70000J0D01*
G01*
X5010000Y-10471000D02*
X5150000Y-10611000D01*
X5150000Y-10471000D02*
X5010000Y-10611000D01*
X5150000Y-10541000D02*
G75*
G03*
X5150000Y-10541000I-70000J0D01*
G01*
X5010000Y-12376000D02*
X5150000Y-12516000D01*
X5150000Y-12376000D02*
X5010000Y-12516000D01*
X5150000Y-12446000D02*
G75*
G03*
X5150000Y-12446000I-70000J0D01*
G01*
X5137000Y-4989680D02*
X5277000Y-5129680D01*
X5277000Y-4989680D02*
X5137000Y-5129680D01*
X5277000Y-5059680D02*
G75*
G03*
X5277000Y-5059680I-70000J0D01*
G01*
X5137000Y-6894680D02*
X5277000Y-7034680D01*
X5277000Y-6894680D02*
X5137000Y-7034680D01*
X5277000Y-6964680D02*
G75*
G03*
X5277000Y-6964680I-70000J0D01*
G01*
X5137000Y-8799680D02*
X5277000Y-8939680D01*
X5277000Y-8799680D02*
X5137000Y-8939680D01*
X5277000Y-8869680D02*
G75*
G03*
X5277000Y-8869680I-70000J0D01*
G01*
X5137000Y-10704680D02*
X5277000Y-10844680D01*
X5277000Y-10704680D02*
X5137000Y-10844680D01*
X5277000Y-10774680D02*
G75*
G03*
X5277000Y-10774680I-70000J0D01*
G01*
X5137000Y-12609680D02*
X5277000Y-12749680D01*
X5277000Y-12609680D02*
X5137000Y-12749680D01*
X5277000Y-12679680D02*
G75*
G03*
X5277000Y-12679680I-70000J0D01*
G01*
X5645000Y-4989680D02*
X5785000Y-5129680D01*
X5785000Y-4989680D02*
X5645000Y-5129680D01*
X5785000Y-5059680D02*
G75*
G03*
X5785000Y-5059680I-70000J0D01*
G01*
X5645000Y-6894680D02*
X5785000Y-7034680D01*
X5785000Y-6894680D02*
X5645000Y-7034680D01*
X5785000Y-6964680D02*
G75*
G03*
X5785000Y-6964680I-70000J0D01*
G01*
X5645000Y-8799680D02*
X5785000Y-8939680D01*
X5785000Y-8799680D02*
X5645000Y-8939680D01*
X5785000Y-8869680D02*
G75*
G03*
X5785000Y-8869680I-70000J0D01*
G01*
X5645000Y-10704680D02*
X5785000Y-10844680D01*
X5785000Y-10704680D02*
X5645000Y-10844680D01*
X5785000Y-10774680D02*
G75*
G03*
X5785000Y-10774680I-70000J0D01*
G01*
X5645000Y-12609680D02*
X5785000Y-12749680D01*
X5785000Y-12609680D02*
X5645000Y-12749680D01*
X5785000Y-12679680D02*
G75*
G03*
X5785000Y-12679680I-70000J0D01*
G01*
X5772000Y-4756000D02*
X5912000Y-4896000D01*
X5912000Y-4756000D02*
X5772000Y-4896000D01*
X5912000Y-4826000D02*
G75*
G03*
X5912000Y-4826000I-70000J0D01*
G01*
X5772000Y-6661000D02*
X5912000Y-6801000D01*
X5912000Y-6661000D02*
X5772000Y-6801000D01*
X5912000Y-6731000D02*
G75*
G03*
X5912000Y-6731000I-70000J0D01*
G01*
X5772000Y-8566000D02*
X5912000Y-8706000D01*
X5912000Y-8566000D02*
X5772000Y-8706000D01*
X5912000Y-8636000D02*
G75*
G03*
X5912000Y-8636000I-70000J0D01*
G01*
X5772000Y-10471000D02*
X5912000Y-10611000D01*
X5912000Y-10471000D02*
X5772000Y-10611000D01*
X5912000Y-10541000D02*
G75*
G03*
X5912000Y-10541000I-70000J0D01*
G01*
X5772000Y-12376000D02*
X5912000Y-12516000D01*
X5912000Y-12376000D02*
X5772000Y-12516000D01*
X5912000Y-12446000D02*
G75*
G03*
X5912000Y-12446000I-70000J0D01*
G01*
X6915000Y-4248000D02*
X7055000Y-4388000D01*
X7055000Y-4248000D02*
X6915000Y-4388000D01*
X7055000Y-4318000D02*
G75*
G03*
X7055000Y-4318000I-70000J0D01*
G01*
X6915000Y-6153000D02*
X7055000Y-6293000D01*
X7055000Y-6153000D02*
X6915000Y-6293000D01*
X7055000Y-6223000D02*
G75*
G03*
X7055000Y-6223000I-70000J0D01*
G01*
X6915000Y-8058000D02*
X7055000Y-8198000D01*
X7055000Y-8058000D02*
X6915000Y-8198000D01*
X7055000Y-8128000D02*
G75*
G03*
X7055000Y-8128000I-70000J0D01*
G01*
X6915000Y-9963000D02*
X7055000Y-10103000D01*
X7055000Y-9963000D02*
X6915000Y-10103000D01*
X7055000Y-10033000D02*
G75*
G03*
X7055000Y-10033000I-70000J0D01*
G01*
X6915000Y-11868000D02*
X7055000Y-12008000D01*
X7055000Y-11868000D02*
X6915000Y-12008000D01*
X7055000Y-11938000D02*
G75*
G03*
X7055000Y-11938000I-70000J0D01*
G01*
X7042000Y-4481680D02*
X7182000Y-4621680D01*
X7182000Y-4481680D02*
X7042000Y-4621680D01*
X7182000Y-4551680D02*
G75*
G03*
X7182000Y-4551680I-70000J0D01*
G01*
X7042000Y-6386680D02*
X7182000Y-6526680D01*
X7182000Y-6386680D02*
X7042000Y-6526680D01*
X7182000Y-6456680D02*
G75*
G03*
X7182000Y-6456680I-70000J0D01*
G01*
X7042000Y-8291680D02*
X7182000Y-8431680D01*
X7182000Y-8291680D02*
X7042000Y-8431680D01*
X7182000Y-8361680D02*
G75*
G03*
X7182000Y-8361680I-70000J0D01*
G01*
X7042000Y-10196680D02*
X7182000Y-10336680D01*
X7182000Y-10196680D02*
X7042000Y-10336680D01*
X7182000Y-10266680D02*
G75*
G03*
X7182000Y-10266680I-70000J0D01*
G01*
X7042000Y-12101680D02*
X7182000Y-12241680D01*
X7182000Y-12101680D02*
X7042000Y-12241680D01*
X7182000Y-12171680D02*
G75*
G03*
X7182000Y-12171680I-70000J0D01*
G01*
X7550000Y-4481680D02*
X7690000Y-4621680D01*
X7690000Y-4481680D02*
X7550000Y-4621680D01*
X7690000Y-4551680D02*
G75*
G03*
X7690000Y-4551680I-70000J0D01*
G01*
X7550000Y-6386680D02*
X7690000Y-6526680D01*
X7690000Y-6386680D02*
X7550000Y-6526680D01*
X7690000Y-6456680D02*
G75*
G03*
X7690000Y-6456680I-70000J0D01*
G01*
X7550000Y-8291680D02*
X7690000Y-8431680D01*
X7690000Y-8291680D02*
X7550000Y-8431680D01*
X7690000Y-8361680D02*
G75*
G03*
X7690000Y-8361680I-70000J0D01*
G01*
X7550000Y-10196680D02*
X7690000Y-10336680D01*
X7690000Y-10196680D02*
X7550000Y-10336680D01*
X7690000Y-10266680D02*
G75*
G03*
X7690000Y-10266680I-70000J0D01*
G01*
X7550000Y-12101680D02*
X7690000Y-12241680D01*
X7690000Y-12101680D02*
X7550000Y-12241680D01*
X7690000Y-12171680D02*
G75*
G03*
X7690000Y-12171680I-70000J0D01*
G01*
X7677000Y-4248000D02*
X7817000Y-4388000D01*
X7817000Y-4248000D02*
X7677000Y-4388000D01*
X7817000Y-4318000D02*
G75*
G03*
X7817000Y-4318000I-70000J0D01*
G01*
X7677000Y-6153000D02*
X7817000Y-6293000D01*
X7817000Y-6153000D02*
X7677000Y-6293000D01*
X7817000Y-6223000D02*
G75*
G03*
X7817000Y-6223000I-70000J0D01*
G01*
X7677000Y-8058000D02*
X7817000Y-8198000D01*
X7817000Y-8058000D02*
X7677000Y-8198000D01*
X7817000Y-8128000D02*
G75*
G03*
X7817000Y-8128000I-70000J0D01*
G01*
X7677000Y-9963000D02*
X7817000Y-10103000D01*
X7817000Y-9963000D02*
X7677000Y-10103000D01*
X7817000Y-10033000D02*
G75*
G03*
X7817000Y-10033000I-70000J0D01*
G01*
X7677000Y-11868000D02*
X7817000Y-12008000D01*
X7817000Y-11868000D02*
X7677000Y-12008000D01*
X7817000Y-11938000D02*
G75*
G03*
X7817000Y-11938000I-70000J0D01*
G01*
X8820000Y-3740000D02*
X8960000Y-3880000D01*
X8960000Y-3740000D02*
X8820000Y-3880000D01*
X8960000Y-3810000D02*
G75*
G03*
X8960000Y-3810000I-70000J0D01*
G01*
X8820000Y-5645000D02*
X8960000Y-5785000D01*
X8960000Y-5645000D02*
X8820000Y-5785000D01*
X8960000Y-5715000D02*
G75*
G03*
X8960000Y-5715000I-70000J0D01*
G01*
X8820000Y-7550000D02*
X8960000Y-7690000D01*
X8960000Y-7550000D02*
X8820000Y-7690000D01*
X8960000Y-7620000D02*
G75*
G03*
X8960000Y-7620000I-70000J0D01*
G01*
X8820000Y-9455000D02*
X8960000Y-9595000D01*
X8960000Y-9455000D02*
X8820000Y-9595000D01*
X8960000Y-9525000D02*
G75*
G03*
X8960000Y-9525000I-70000J0D01*
G01*
X8820000Y-11360000D02*
X8960000Y-11500000D01*
X8960000Y-11360000D02*
X8820000Y-11500000D01*
X8960000Y-11430000D02*
G75*
G03*
X8960000Y-11430000I-70000J0D01*
G01*
X8947000Y-3973680D02*
X9087000Y-4113680D01*
X9087000Y-3973680D02*
X8947000Y-4113680D01*
X9087000Y-4043680D02*
G75*
G03*
X9087000Y-4043680I-70000J0D01*
G01*
X8947000Y-5878680D02*
X9087000Y-6018680D01*
X9087000Y-5878680D02*
X8947000Y-6018680D01*
X9087000Y-5948680D02*
G75*
G03*
X9087000Y-5948680I-70000J0D01*
G01*
X8947000Y-7783680D02*
X9087000Y-7923680D01*
X9087000Y-7783680D02*
X8947000Y-7923680D01*
X9087000Y-7853680D02*
G75*
G03*
X9087000Y-7853680I-70000J0D01*
G01*
X8947000Y-9688680D02*
X9087000Y-9828680D01*
X9087000Y-9688680D02*
X8947000Y-9828680D01*
X9087000Y-9758680D02*
G75*
G03*
X9087000Y-9758680I-70000J0D01*
G01*
X8947000Y-11593680D02*
X9087000Y-11733680D01*
X9087000Y-11593680D02*
X8947000Y-11733680D01*
X9087000Y-11663680D02*
G75*
G03*
X9087000Y-11663680I-70000J0D01*
G01*
X9455000Y-3973680D02*
X9595000Y-4113680D01*
X9595000Y-3973680D02*
X9455000Y-4113680D01*
X9595000Y-4043680D02*
G75*
G03*
X9595000Y-4043680I-70000J0D01*
G01*
X9455000Y-5878680D02*
X9595000Y-6018680D01*
X9595000Y-5878680D02*
X9455000Y-6018680D01*
X9595000Y-5948680D02*
G75*
G03*
X9595000Y-5948680I-70000J0D01*
G01*
X9455000Y-7783680D02*
X9595000Y-7923680D01*
X9595000Y-7783680D02*
X9455000Y-7923680D01*
X9595000Y-7853680D02*
G75*
G03*
X9595000Y-7853680I-70000J0D01*
G01*
X9455000Y-9688680D02*
X9595000Y-9828680D01*
X9595000Y-9688680D02*
X9455000Y-9828680D01*
X9595000Y-9758680D02*
G75*
G03*
X9595000Y-9758680I-70000J0D01*
G01*
X9455000Y-11593680D02*
X9595000Y-11733680D01*
X9595000Y-11593680D02*
X9455000Y-11733680D01*
X9595000Y-11663680D02*
G75*
G03*
X9595000Y-11663680I-70000J0D01*
G01*
X9582000Y-3740000D02*
X9722000Y-3880000D01*
X9722000Y-3740000D02*
X9582000Y-3880000D01*
X9722000Y-3810000D02*
G75*
G03*
X9722000Y-3810000I-70000J0D01*
G01*
X9582000Y-5645000D02*
X9722000Y-5785000D01*
X9722000Y-5645000D02*
X9582000Y-5785000D01*
X9722000Y-5715000D02*
G75*
G03*
X9722000Y-5715000I-70000J0D01*
G01*
X9582000Y-7550000D02*
X9722000Y-7690000D01*
X9722000Y-7550000D02*
X9582000Y-7690000D01*
X9722000Y-7620000D02*
G75*
G03*
X9722000Y-7620000I-70000J0D01*
G01*
X9582000Y-9455000D02*
X9722000Y-9595000D01*
X9722000Y-9455000D02*
X9582000Y-9595000D01*
X9722000Y-9525000D02*
G75*
G03*
X9722000Y-9525000I-70000J0D01*
G01*
X9582000Y-11360000D02*
X9722000Y-11500000D01*
X9722000Y-11360000D02*
X9582000Y-11500000D01*
X9722000Y-11430000D02*
G75*
G03*
X9722000Y-11430000I-70000J0D01*
G01*
X10725000Y-4248000D02*
X10865000Y-4388000D01*
X10865000Y-4248000D02*
X10725000Y-4388000D01*
X10865000Y-4318000D02*
G75*
G03*
X10865000Y-4318000I-70000J0D01*
G01*
X10725000Y-6153000D02*
X10865000Y-6293000D01*
X10865000Y-6153000D02*
X10725000Y-6293000D01*
X10865000Y-6223000D02*
G75*
G03*
X10865000Y-6223000I-70000J0D01*
G01*
X10725000Y-8058000D02*
X10865000Y-8198000D01*
X10865000Y-8058000D02*
X10725000Y-8198000D01*
X10865000Y-8128000D02*
G75*
G03*
X10865000Y-8128000I-70000J0D01*
G01*
X10725000Y-9963000D02*
X10865000Y-10103000D01*
X10865000Y-9963000D02*
X10725000Y-10103000D01*
X10865000Y-10033000D02*
G75*
G03*
X10865000Y-10033000I-70000J0D01*
G01*
X10725000Y-11868000D02*
X10865000Y-12008000D01*
X10865000Y-11868000D02*
X10725000Y-12008000D01*
X10865000Y-11938000D02*
G75*
G03*
X10865000Y-11938000I-70000J0D01*
G01*
X10852000Y-4481680D02*
X10992000Y-4621680D01*
X10992000Y-4481680D02*
X10852000Y-4621680D01*
X10992000Y-4551680D02*
G75*
G03*
X10992000Y-4551680I-70000J0D01*
G01*
X10852000Y-6386680D02*
X10992000Y-6526680D01*
X10992000Y-6386680D02*
X10852000Y-6526680D01*
X10992000Y-6456680D02*
G75*
G03*
X10992000Y-6456680I-70000J0D01*
G01*
X10852000Y-8291680D02*
X10992000Y-8431680D01*
X10992000Y-8291680D02*
X10852000Y-8431680D01*
X10992000Y-8361680D02*
G75*
G03*
X10992000Y-8361680I-70000J0D01*
G01*
X10852000Y-10196680D02*
X10992000Y-10336680D01*
X10992000Y-10196680D02*
X10852000Y-10336680D01*
X10992000Y-10266680D02*
G75*
G03*
X10992000Y-10266680I-70000J0D01*
G01*
X10852000Y-12101680D02*
X10992000Y-12241680D01*
X10992000Y-12101680D02*
X10852000Y-12241680D01*
X10992000Y-12171680D02*
G75*
G03*
X10992000Y-12171680I-70000J0D01*
G01*
X11360000Y-4481680D02*
X11500000Y-4621680D01*
X11500000Y-4481680D02*
X11360000Y-4621680D01*
X11500000Y-4551680D02*
G75*
G03*
X11500000Y-4551680I-70000J0D01*
G01*
X11360000Y-6386680D02*
X11500000Y-6526680D01*
X11500000Y-6386680D02*
X11360000Y-6526680D01*
X11500000Y-6456680D02*
G75*
G03*
X11500000Y-6456680I-70000J0D01*
G01*
X11360000Y-8291680D02*
X11500000Y-8431680D01*
X11500000Y-8291680D02*
X11360000Y-8431680D01*
X11500000Y-8361680D02*
G75*
G03*
X11500000Y-8361680I-70000J0D01*
G01*
X11360000Y-10196680D02*
X11500000Y-10336680D01*
X11500000Y-10196680D02*
X11360000Y-10336680D01*
X11500000Y-10266680D02*
G75*
G03*
X11500000Y-10266680I-70000J0D01*
G01*
X11360000Y-12101680D02*
X11500000Y-12241680D01*
X11500000Y-12101680D02*
X11360000Y-12241680D01*
X11500000Y-12171680D02*
G75*
G03*
X11500000Y-12171680I-70000J0D01*
G01*
X11487000Y-4248000D02*
X11627000Y-4388000D01*
X11627000Y-4248000D02*
X11487000Y-4388000D01*
X11627000Y-4318000D02*
G75*
G03*
X11627000Y-4318000I-70000J0D01*
G01*
X11487000Y-6153000D02*
X11627000Y-6293000D01*
X11627000Y-6153000D02*
X11487000Y-6293000D01*
X11627000Y-6223000D02*
G75*
G03*
X11627000Y-6223000I-70000J0D01*
G01*
X11487000Y-8058000D02*
X11627000Y-8198000D01*
X11627000Y-8058000D02*
X11487000Y-8198000D01*
X11627000Y-8128000D02*
G75*
G03*
X11627000Y-8128000I-70000J0D01*
G01*
X11487000Y-9963000D02*
X11627000Y-10103000D01*
X11627000Y-9963000D02*
X11487000Y-10103000D01*
X11627000Y-10033000D02*
G75*
G03*
X11627000Y-10033000I-70000J0D01*
G01*
X11487000Y-11868000D02*
X11627000Y-12008000D01*
X11627000Y-11868000D02*
X11487000Y-12008000D01*
X11627000Y-11938000D02*
G75*
G03*
X11627000Y-11938000I-70000J0D01*
G01*
X12630000Y-4756000D02*
X12770000Y-4896000D01*
X12770000Y-4756000D02*
X12630000Y-4896000D01*
X12770000Y-4826000D02*
G75*
G03*
X12770000Y-4826000I-70000J0D01*
G01*
X12630000Y-6661000D02*
X12770000Y-6801000D01*
X12770000Y-6661000D02*
X12630000Y-6801000D01*
X12770000Y-6731000D02*
G75*
G03*
X12770000Y-6731000I-70000J0D01*
G01*
X12630000Y-8566000D02*
X12770000Y-8706000D01*
X12770000Y-8566000D02*
X12630000Y-8706000D01*
X12770000Y-8636000D02*
G75*
G03*
X12770000Y-8636000I-70000J0D01*
G01*
X12630000Y-10471000D02*
X12770000Y-10611000D01*
X12770000Y-10471000D02*
X12630000Y-10611000D01*
X12770000Y-10541000D02*
G75*
G03*
X12770000Y-10541000I-70000J0D01*
G01*
X12630000Y-12376000D02*
X12770000Y-12516000D01*
X12770000Y-12376000D02*
X12630000Y-12516000D01*
X12770000Y-12446000D02*
G75*
G03*
X12770000Y-12446000I-70000J0D01*
G01*
X12757000Y-4989680D02*
X12897000Y-5129680D01*
X12897000Y-4989680D02*
X12757000Y-5129680D01*
X12897000Y-5059680D02*
G75*
G03*
X12897000Y-5059680I-70000J0D01*
G01*
X12757000Y-6894680D02*
X12897000Y-7034680D01*
X12897000Y-6894680D02*
X12757000Y-7034680D01*
X12897000Y-6964680D02*
G75*
G03*
X12897000Y-6964680I-70000J0D01*
G01*
X12757000Y-8799680D02*
X12897000Y-8939680D01*
X12897000Y-8799680D02*
X12757000Y-8939680D01*
X12897000Y-8869680D02*
G75*
G03*
X12897000Y-8869680I-70000J0D01*
G01*
X12757000Y-10704680D02*
X12897000Y-10844680D01*
X12897000Y-10704680D02*
X12757000Y-10844680D01*
X12897000Y-10774680D02*
G75*
G03*
X12897000Y-10774680I-70000J0D01*
G01*
X12757000Y-12609680D02*
X12897000Y-12749680D01*
X12897000Y-12609680D02*
X12757000Y-12749680D01*
X12897000Y-12679680D02*
G75*
G03*
X12897000Y-12679680I-70000J0D01*
G01*
X13265000Y-4989680D02*
X13405000Y-5129680D01*
X13405000Y-4989680D02*
X13265000Y-5129680D01*
X13405000Y-5059680D02*
G75*
G03*
X13405000Y-5059680I-70000J0D01*
G01*
X13265000Y-6894680D02*
X13405000Y-7034680D01*
X13405000Y-6894680D02*
X13265000Y-7034680D01*
X13405000Y-6964680D02*
G75*
G03*
X13405000Y-6964680I-70000J0D01*
G01*
X13265000Y-8799680D02*
X13405000Y-8939680D01*
X13405000Y-8799680D02*
X13265000Y-8939680D01*
X13405000Y-8869680D02*
G75*
G03*
X13405000Y-8869680I-70000J0D01*
G01*
X13265000Y-10704680D02*
X13405000Y-10844680D01*
X13405000Y-10704680D02*
X13265000Y-10844680D01*
X13405000Y-10774680D02*
G75*
G03*
X13405000Y-10774680I-70000J0D01*
G01*
X13265000Y-12609680D02*
X13405000Y-12749680D01*
X13405000Y-12609680D02*
X13265000Y-12749680D01*
X13405000Y-12679680D02*
G75*
G03*
X13405000Y-12679680I-70000J0D01*
G01*
X13392000Y-4756000D02*
X13532000Y-4896000D01*
X13532000Y-4756000D02*
X13392000Y-4896000D01*
X13532000Y-4826000D02*
G75*
G03*
X13532000Y-4826000I-70000J0D01*
G01*
X13392000Y-6661000D02*
X13532000Y-6801000D01*
X13532000Y-6661000D02*
X13392000Y-6801000D01*
X13532000Y-6731000D02*
G75*
G03*
X13532000Y-6731000I-70000J0D01*
G01*
X13392000Y-8566000D02*
X13532000Y-8706000D01*
X13532000Y-8566000D02*
X13392000Y-8706000D01*
X13532000Y-8636000D02*
G75*
G03*
X13532000Y-8636000I-70000J0D01*
G01*
X13392000Y-10471000D02*
X13532000Y-10611000D01*
X13532000Y-10471000D02*
X13392000Y-10611000D01*
X13532000Y-10541000D02*
G75*
G03*
X13532000Y-10541000I-70000J0D01*
G01*
X13392000Y-12376000D02*
X13532000Y-12516000D01*
X13532000Y-12376000D02*
X13392000Y-12516000D01*
X13532000Y-12446000D02*
G75*
G03*
X13532000Y-12446000I-70000J0D01*
G01*
X14535000Y-13519000D02*
X14675000Y-13659000D01*
X14675000Y-13519000D02*
X14535000Y-13659000D01*
X14675000Y-13589000D02*
G75*
G03*
X14675000Y-13589000I-70000J0D01*
G01*
X14662000Y-13752680D02*
X14802000Y-13892680D01*
X14802000Y-13752680D02*
X14662000Y-13892680D01*
X14802000Y-13822680D02*
G75*
G03*
X14802000Y-13822680I-70000J0D01*
G01*
X15170000Y-13752680D02*
X15310000Y-13892680D01*
X15310000Y-13752680D02*
X15170000Y-13892680D01*
X15310000Y-13822680D02*
G75*
G03*
X15310000Y-13822680I-70000J0D01*
G01*
X15297000Y-13519000D02*
X15437000Y-13659000D01*
X15437000Y-13519000D02*
X15297000Y-13659000D01*
X15437000Y-13589000D02*
G75*
G03*
X15437000Y-13589000I-70000J0D01*
G01*
X2962910Y-4486910D02*
X3133090Y-4657090D01*
X3133090Y-4486910D02*
X2962910Y-4657090D01*
X3048000Y-4486910D02*
X3048000Y-4657090D01*
X2962910Y-4572000D02*
X3133090Y-4572000D01*
X2962910Y-6391910D02*
X3133090Y-6562090D01*
X3133090Y-6391910D02*
X2962910Y-6562090D01*
X3048000Y-6391910D02*
X3048000Y-6562090D01*
X2962910Y-6477000D02*
X3133090Y-6477000D01*
X2962910Y-8296910D02*
X3133090Y-8467090D01*
X3133090Y-8296910D02*
X2962910Y-8467090D01*
X3048000Y-8296910D02*
X3048000Y-8467090D01*
X2962910Y-8382000D02*
X3133090Y-8382000D01*
X2962910Y-10201910D02*
X3133090Y-10372090D01*
X3133090Y-10201910D02*
X2962910Y-10372090D01*
X3048000Y-10201910D02*
X3048000Y-10372090D01*
X2962910Y-10287000D02*
X3133090Y-10287000D01*
X3978910Y-4486910D02*
X4149090Y-4657090D01*
X4149090Y-4486910D02*
X3978910Y-4657090D01*
X4064000Y-4486910D02*
X4064000Y-4657090D01*
X3978910Y-4572000D02*
X4149090Y-4572000D01*
X3978910Y-6391910D02*
X4149090Y-6562090D01*
X4149090Y-6391910D02*
X3978910Y-6562090D01*
X4064000Y-6391910D02*
X4064000Y-6562090D01*
X3978910Y-6477000D02*
X4149090Y-6477000D01*
X3978910Y-8296910D02*
X4149090Y-8467090D01*
X4149090Y-8296910D02*
X3978910Y-8467090D01*
X4064000Y-8296910D02*
X4064000Y-8467090D01*
X3978910Y-8382000D02*
X4149090Y-8382000D01*
X3978910Y-10201910D02*
X4149090Y-10372090D01*
X4149090Y-10201910D02*
X3978910Y-10372090D01*
X4064000Y-10201910D02*
X4064000Y-10372090D01*
X3978910Y-10287000D02*
X4149090Y-10287000D01*
X4867910Y-4486910D02*
X5038090Y-4657090D01*
X5038090Y-4486910D02*
X4867910Y-4657090D01*
X4953000Y-4486910D02*
X4953000Y-4657090D01*
X4867910Y-4572000D02*
X5038090Y-4572000D01*
X4867910Y-6391910D02*
X5038090Y-6562090D01*
X5038090Y-6391910D02*
X4867910Y-6562090D01*
X4953000Y-6391910D02*
X4953000Y-6562090D01*
X4867910Y-6477000D02*
X5038090Y-6477000D01*
X4867910Y-8296910D02*
X5038090Y-8467090D01*
X5038090Y-8296910D02*
X4867910Y-8467090D01*
X4953000Y-8296910D02*
X4953000Y-8467090D01*
X4867910Y-8382000D02*
X5038090Y-8382000D01*
X4867910Y-10201910D02*
X5038090Y-10372090D01*
X5038090Y-10201910D02*
X4867910Y-10372090D01*
X4953000Y-10201910D02*
X4953000Y-10372090D01*
X4867910Y-10287000D02*
X5038090Y-10287000D01*
X4867910Y-12106910D02*
X5038090Y-12277090D01*
X5038090Y-12106910D02*
X4867910Y-12277090D01*
X4953000Y-12106910D02*
X4953000Y-12277090D01*
X4867910Y-12192000D02*
X5038090Y-12192000D01*
X5883910Y-4486910D02*
X6054090Y-4657090D01*
X6054090Y-4486910D02*
X5883910Y-4657090D01*
X5969000Y-4486910D02*
X5969000Y-4657090D01*
X5883910Y-4572000D02*
X6054090Y-4572000D01*
X5883910Y-6391910D02*
X6054090Y-6562090D01*
X6054090Y-6391910D02*
X5883910Y-6562090D01*
X5969000Y-6391910D02*
X5969000Y-6562090D01*
X5883910Y-6477000D02*
X6054090Y-6477000D01*
X5883910Y-8296910D02*
X6054090Y-8467090D01*
X6054090Y-8296910D02*
X5883910Y-8467090D01*
X5969000Y-8296910D02*
X5969000Y-8467090D01*
X5883910Y-8382000D02*
X6054090Y-8382000D01*
X5883910Y-10201910D02*
X6054090Y-10372090D01*
X6054090Y-10201910D02*
X5883910Y-10372090D01*
X5969000Y-10201910D02*
X5969000Y-10372090D01*
X5883910Y-10287000D02*
X6054090Y-10287000D01*
X5883910Y-12106910D02*
X6054090Y-12277090D01*
X6054090Y-12106910D02*
X5883910Y-12277090D01*
X5969000Y-12106910D02*
X5969000Y-12277090D01*
X5883910Y-12192000D02*
X6054090Y-12192000D01*
X6772910Y-3978910D02*
X6943090Y-4149090D01*
X6943090Y-3978910D02*
X6772910Y-4149090D01*
X6858000Y-3978910D02*
X6858000Y-4149090D01*
X6772910Y-4064000D02*
X6943090Y-4064000D01*
X6772910Y-5883910D02*
X6943090Y-6054090D01*
X6943090Y-5883910D02*
X6772910Y-6054090D01*
X6858000Y-5883910D02*
X6858000Y-6054090D01*
X6772910Y-5969000D02*
X6943090Y-5969000D01*
X6772910Y-7788910D02*
X6943090Y-7959090D01*
X6943090Y-7788910D02*
X6772910Y-7959090D01*
X6858000Y-7788910D02*
X6858000Y-7959090D01*
X6772910Y-7874000D02*
X6943090Y-7874000D01*
X6772910Y-9693910D02*
X6943090Y-9864090D01*
X6943090Y-9693910D02*
X6772910Y-9864090D01*
X6858000Y-9693910D02*
X6858000Y-9864090D01*
X6772910Y-9779000D02*
X6943090Y-9779000D01*
X6772910Y-11598910D02*
X6943090Y-11769090D01*
X6943090Y-11598910D02*
X6772910Y-11769090D01*
X6858000Y-11598910D02*
X6858000Y-11769090D01*
X6772910Y-11684000D02*
X6943090Y-11684000D01*
X7788910Y-3978910D02*
X7959090Y-4149090D01*
X7959090Y-3978910D02*
X7788910Y-4149090D01*
X7874000Y-3978910D02*
X7874000Y-4149090D01*
X7788910Y-4064000D02*
X7959090Y-4064000D01*
X7788910Y-5883910D02*
X7959090Y-6054090D01*
X7959090Y-5883910D02*
X7788910Y-6054090D01*
X7874000Y-5883910D02*
X7874000Y-6054090D01*
X7788910Y-5969000D02*
X7959090Y-5969000D01*
X7788910Y-7788910D02*
X7959090Y-7959090D01*
X7959090Y-7788910D02*
X7788910Y-7959090D01*
X7874000Y-7788910D02*
X7874000Y-7959090D01*
X7788910Y-7874000D02*
X7959090Y-7874000D01*
X7788910Y-9693910D02*
X7959090Y-9864090D01*
X7959090Y-9693910D02*
X7788910Y-9864090D01*
X7874000Y-9693910D02*
X7874000Y-9864090D01*
X7788910Y-9779000D02*
X7959090Y-9779000D01*
X7788910Y-11598910D02*
X7959090Y-11769090D01*
X7959090Y-11598910D02*
X7788910Y-11769090D01*
X7874000Y-11598910D02*
X7874000Y-11769090D01*
X7788910Y-11684000D02*
X7959090Y-11684000D01*
X8677910Y-3470910D02*
X8848090Y-3641090D01*
X8848090Y-3470910D02*
X8677910Y-3641090D01*
X8763000Y-3470910D02*
X8763000Y-3641090D01*
X8677910Y-3556000D02*
X8848090Y-3556000D01*
X8677910Y-5375910D02*
X8848090Y-5546090D01*
X8848090Y-5375910D02*
X8677910Y-5546090D01*
X8763000Y-5375910D02*
X8763000Y-5546090D01*
X8677910Y-5461000D02*
X8848090Y-5461000D01*
X8677910Y-7280910D02*
X8848090Y-7451090D01*
X8848090Y-7280910D02*
X8677910Y-7451090D01*
X8763000Y-7280910D02*
X8763000Y-7451090D01*
X8677910Y-7366000D02*
X8848090Y-7366000D01*
X8677910Y-9185910D02*
X8848090Y-9356090D01*
X8848090Y-9185910D02*
X8677910Y-9356090D01*
X8763000Y-9185910D02*
X8763000Y-9356090D01*
X8677910Y-9271000D02*
X8848090Y-9271000D01*
X8677910Y-11090910D02*
X8848090Y-11261090D01*
X8848090Y-11090910D02*
X8677910Y-11261090D01*
X8763000Y-11090910D02*
X8763000Y-11261090D01*
X8677910Y-11176000D02*
X8848090Y-11176000D01*
X9693910Y-3470910D02*
X9864090Y-3641090D01*
X9864090Y-3470910D02*
X9693910Y-3641090D01*
X9779000Y-3470910D02*
X9779000Y-3641090D01*
X9693910Y-3556000D02*
X9864090Y-3556000D01*
X9693910Y-5375910D02*
X9864090Y-5546090D01*
X9864090Y-5375910D02*
X9693910Y-5546090D01*
X9779000Y-5375910D02*
X9779000Y-5546090D01*
X9693910Y-5461000D02*
X9864090Y-5461000D01*
X9693910Y-7280910D02*
X9864090Y-7451090D01*
X9864090Y-7280910D02*
X9693910Y-7451090D01*
X9779000Y-7280910D02*
X9779000Y-7451090D01*
X9693910Y-7366000D02*
X9864090Y-7366000D01*
X9693910Y-9185910D02*
X9864090Y-9356090D01*
X9864090Y-9185910D02*
X9693910Y-9356090D01*
X9779000Y-9185910D02*
X9779000Y-9356090D01*
X9693910Y-9271000D02*
X9864090Y-9271000D01*
X9693910Y-11090910D02*
X9864090Y-11261090D01*
X9864090Y-11090910D02*
X9693910Y-11261090D01*
X9779000Y-11090910D02*
X9779000Y-11261090D01*
X9693910Y-11176000D02*
X9864090Y-11176000D01*
X10582910Y-3978910D02*
X10753090Y-4149090D01*
X10753090Y-3978910D02*
X10582910Y-4149090D01*
X10668000Y-3978910D02*
X10668000Y-4149090D01*
X10582910Y-4064000D02*
X10753090Y-4064000D01*
X10582910Y-5883910D02*
X10753090Y-6054090D01*
X10753090Y-5883910D02*
X10582910Y-6054090D01*
X10668000Y-5883910D02*
X10668000Y-6054090D01*
X10582910Y-5969000D02*
X10753090Y-5969000D01*
X10582910Y-7788910D02*
X10753090Y-7959090D01*
X10753090Y-7788910D02*
X10582910Y-7959090D01*
X10668000Y-7788910D02*
X10668000Y-7959090D01*
X10582910Y-7874000D02*
X10753090Y-7874000D01*
X10582910Y-9693910D02*
X10753090Y-9864090D01*
X10753090Y-9693910D02*
X10582910Y-9864090D01*
X10668000Y-9693910D02*
X10668000Y-9864090D01*
X10582910Y-9779000D02*
X10753090Y-9779000D01*
X10582910Y-11598910D02*
X10753090Y-11769090D01*
X10753090Y-11598910D02*
X10582910Y-11769090D01*
X10668000Y-11598910D02*
X10668000Y-11769090D01*
X10582910Y-11684000D02*
X10753090Y-11684000D01*
X11598910Y-3978910D02*
X11769090Y-4149090D01*
X11769090Y-3978910D02*
X11598910Y-4149090D01*
X11684000Y-3978910D02*
X11684000Y-4149090D01*
X11598910Y-4064000D02*
X11769090Y-4064000D01*
X11598910Y-5883910D02*
X11769090Y-6054090D01*
X11769090Y-5883910D02*
X11598910Y-6054090D01*
X11684000Y-5883910D02*
X11684000Y-6054090D01*
X11598910Y-5969000D02*
X11769090Y-5969000D01*
X11598910Y-7788910D02*
X11769090Y-7959090D01*
X11769090Y-7788910D02*
X11598910Y-7959090D01*
X11684000Y-7788910D02*
X11684000Y-7959090D01*
X11598910Y-7874000D02*
X11769090Y-7874000D01*
X11598910Y-9693910D02*
X11769090Y-9864090D01*
X11769090Y-9693910D02*
X11598910Y-9864090D01*
X11684000Y-9693910D02*
X11684000Y-9864090D01*
X11598910Y-9779000D02*
X11769090Y-9779000D01*
X11598910Y-11598910D02*
X11769090Y-11769090D01*
X11769090Y-11598910D02*
X11598910Y-11769090D01*
X11684000Y-11598910D02*
X11684000Y-11769090D01*
X11598910Y-11684000D02*
X11769090Y-11684000D01*
X12487910Y-4486910D02*
X12658090Y-4657090D01*
X12658090Y-4486910D02*
X12487910Y-4657090D01*
X12573000Y-4486910D02*
X12573000Y-4657090D01*
X12487910Y-4572000D02*
X12658090Y-4572000D01*
X12487910Y-6391910D02*
X12658090Y-6562090D01*
X12658090Y-6391910D02*
X12487910Y-6562090D01*
X12573000Y-6391910D02*
X12573000Y-6562090D01*
X12487910Y-6477000D02*
X12658090Y-6477000D01*
X12487910Y-8296910D02*
X12658090Y-8467090D01*
X12658090Y-8296910D02*
X12487910Y-8467090D01*
X12573000Y-8296910D02*
X12573000Y-8467090D01*
X12487910Y-8382000D02*
X12658090Y-8382000D01*
X12487910Y-10201910D02*
X12658090Y-10372090D01*
X12658090Y-10201910D02*
X12487910Y-10372090D01*
X12573000Y-10201910D02*
X12573000Y-10372090D01*
X12487910Y-10287000D02*
X12658090Y-10287000D01*
X12487910Y-12106910D02*
X12658090Y-12277090D01*
X12658090Y-12106910D02*
X12487910Y-12277090D01*
X12573000Y-12106910D02*
X12573000Y-12277090D01*
X12487910Y-12192000D02*
X12658090Y-12192000D01*
X13503910Y-4486910D02*
X13674090Y-4657090D01*
X13674090Y-4486910D02*
X13503910Y-4657090D01*
X13589000Y-4486910D02*
X13589000Y-4657090D01*
X13503910Y-4572000D02*
X13674090Y-4572000D01*
X13503910Y-6391910D02*
X13674090Y-6562090D01*
X13674090Y-6391910D02*
X13503910Y-6562090D01*
X13589000Y-6391910D02*
X13589000Y-6562090D01*
X13503910Y-6477000D02*
X13674090Y-6477000D01*
X13503910Y-8296910D02*
X13674090Y-8467090D01*
X13674090Y-8296910D02*
X13503910Y-8467090D01*
X13589000Y-8296910D02*
X13589000Y-8467090D01*
X13503910Y-8382000D02*
X13674090Y-8382000D01*
X13503910Y-10201910D02*
X13674090Y-10372090D01*
X13674090Y-10201910D02*
X13503910Y-10372090D01*
X13589000Y-10201910D02*
X13589000Y-10372090D01*
X13503910Y-10287000D02*
X13674090Y-10287000D01*
X13503910Y-12106910D02*
X13674090Y-12277090D01*
X13674090Y-12106910D02*
X13503910Y-12277090D01*
X13589000Y-12106910D02*
X13589000Y-12277090D01*
X13503910Y-12192000D02*
X13674090Y-12192000D01*
X14392910Y-13249910D02*
X14563090Y-13420090D01*
X14563090Y-13249910D02*
X14392910Y-13420090D01*
X14478000Y-13249910D02*
X14478000Y-13420090D01*
X14392910Y-13335000D02*
X14563090Y-13335000D01*
X15408910Y-13249910D02*
X15579090Y-13420090D01*
X15579090Y-13249910D02*
X15408910Y-13420090D01*
X15494000Y-13249910D02*
X15494000Y-13420090D01*
X15408910Y-13335000D02*
X15579090Y-13335000D01*
X3356610Y-4372610D02*
X3755390Y-4771390D01*
X3755390Y-4372610D02*
X3356610Y-4771390D01*
X3696991Y-4712991D02*
X3696991Y-4431009D01*
X3415009Y-4431009D01*
X3415009Y-4712991D01*
X3696991Y-4712991D01*
X3356610Y-6277610D02*
X3755390Y-6676390D01*
X3755390Y-6277610D02*
X3356610Y-6676390D01*
X3696991Y-6617991D02*
X3696991Y-6336009D01*
X3415009Y-6336009D01*
X3415009Y-6617991D01*
X3696991Y-6617991D01*
X3356610Y-8182610D02*
X3755390Y-8581390D01*
X3755390Y-8182610D02*
X3356610Y-8581390D01*
X3696991Y-8522991D02*
X3696991Y-8241009D01*
X3415009Y-8241009D01*
X3415009Y-8522991D01*
X3696991Y-8522991D01*
X3356610Y-10087610D02*
X3755390Y-10486390D01*
X3755390Y-10087610D02*
X3356610Y-10486390D01*
X3696991Y-10427991D02*
X3696991Y-10146009D01*
X3415009Y-10146009D01*
X3415009Y-10427991D01*
X3696991Y-10427991D01*
X5261610Y-4372610D02*
X5660390Y-4771390D01*
X5660390Y-4372610D02*
X5261610Y-4771390D01*
X5601991Y-4712991D02*
X5601991Y-4431009D01*
X5320009Y-4431009D01*
X5320009Y-4712991D01*
X5601991Y-4712991D01*
X5261610Y-6277610D02*
X5660390Y-6676390D01*
X5660390Y-6277610D02*
X5261610Y-6676390D01*
X5601991Y-6617991D02*
X5601991Y-6336009D01*
X5320009Y-6336009D01*
X5320009Y-6617991D01*
X5601991Y-6617991D01*
X5261610Y-8182610D02*
X5660390Y-8581390D01*
X5660390Y-8182610D02*
X5261610Y-8581390D01*
X5601991Y-8522991D02*
X5601991Y-8241009D01*
X5320009Y-8241009D01*
X5320009Y-8522991D01*
X5601991Y-8522991D01*
X5261610Y-10087610D02*
X5660390Y-10486390D01*
X5660390Y-10087610D02*
X5261610Y-10486390D01*
X5601991Y-10427991D02*
X5601991Y-10146009D01*
X5320009Y-10146009D01*
X5320009Y-10427991D01*
X5601991Y-10427991D01*
X5261610Y-11992610D02*
X5660390Y-12391390D01*
X5660390Y-11992610D02*
X5261610Y-12391390D01*
X5601991Y-12332991D02*
X5601991Y-12051009D01*
X5320009Y-12051009D01*
X5320009Y-12332991D01*
X5601991Y-12332991D01*
X7166610Y-3864610D02*
X7565390Y-4263390D01*
X7565390Y-3864610D02*
X7166610Y-4263390D01*
X7506991Y-4204991D02*
X7506991Y-3923009D01*
X7225009Y-3923009D01*
X7225009Y-4204991D01*
X7506991Y-4204991D01*
X7166610Y-5769610D02*
X7565390Y-6168390D01*
X7565390Y-5769610D02*
X7166610Y-6168390D01*
X7506991Y-6109991D02*
X7506991Y-5828009D01*
X7225009Y-5828009D01*
X7225009Y-6109991D01*
X7506991Y-6109991D01*
X7166610Y-7674610D02*
X7565390Y-8073390D01*
X7565390Y-7674610D02*
X7166610Y-8073390D01*
X7506991Y-8014991D02*
X7506991Y-7733009D01*
X7225009Y-7733009D01*
X7225009Y-8014991D01*
X7506991Y-8014991D01*
X7166610Y-9579610D02*
X7565390Y-9978390D01*
X7565390Y-9579610D02*
X7166610Y-9978390D01*
X7506991Y-9919991D02*
X7506991Y-9638009D01*
X7225009Y-9638009D01*
X7225009Y-9919991D01*
X7506991Y-9919991D01*
X7166610Y-11484610D02*
X7565390Y-11883390D01*
X7565390Y-11484610D02*
X7166610Y-11883390D01*
X7506991Y-11824991D02*
X7506991Y-11543009D01*
X7225009Y-11543009D01*
X7225009Y-11824991D01*
X7506991Y-11824991D01*
X9071610Y-3356610D02*
X9470390Y-3755390D01*
X9470390Y-3356610D02*
X9071610Y-3755390D01*
X9411991Y-3696991D02*
X9411991Y-3415009D01*
X9130009Y-3415009D01*
X9130009Y-3696991D01*
X9411991Y-3696991D01*
X9071610Y-5261610D02*
X9470390Y-5660390D01*
X9470390Y-5261610D02*
X9071610Y-5660390D01*
X9411991Y-5601991D02*
X9411991Y-5320009D01*
X9130009Y-5320009D01*
X9130009Y-5601991D01*
X9411991Y-5601991D01*
X9071610Y-7166610D02*
X9470390Y-7565390D01*
X9470390Y-7166610D02*
X9071610Y-7565390D01*
X9411991Y-7506991D02*
X9411991Y-7225009D01*
X9130009Y-7225009D01*
X9130009Y-7506991D01*
X9411991Y-7506991D01*
X9071610Y-9071610D02*
X9470390Y-9470390D01*
X9470390Y-9071610D02*
X9071610Y-9470390D01*
X9411991Y-9411991D02*
X9411991Y-9130009D01*
X9130009Y-9130009D01*
X9130009Y-9411991D01*
X9411991Y-9411991D01*
X9071610Y-10976610D02*
X9470390Y-11375390D01*
X9470390Y-10976610D02*
X9071610Y-11375390D01*
X9411991Y-11316991D02*
X9411991Y-11035009D01*
X9130009Y-11035009D01*
X9130009Y-11316991D01*
X9411991Y-11316991D01*
X10976610Y-3864610D02*
X11375390Y-4263390D01*
X11375390Y-3864610D02*
X10976610Y-4263390D01*
X11316991Y-4204991D02*
X11316991Y-3923009D01*
X11035009Y-3923009D01*
X11035009Y-4204991D01*
X11316991Y-4204991D01*
X10976610Y-5769610D02*
X11375390Y-6168390D01*
X11375390Y-5769610D02*
X10976610Y-6168390D01*
X11316991Y-6109991D02*
X11316991Y-5828009D01*
X11035009Y-5828009D01*
X11035009Y-6109991D01*
X11316991Y-6109991D01*
X10976610Y-7674610D02*
X11375390Y-8073390D01*
X11375390Y-7674610D02*
X10976610Y-8073390D01*
X11316991Y-8014991D02*
X11316991Y-7733009D01*
X11035009Y-7733009D01*
X11035009Y-8014991D01*
X11316991Y-8014991D01*
X10976610Y-9579610D02*
X11375390Y-9978390D01*
X11375390Y-9579610D02*
X10976610Y-9978390D01*
X11316991Y-9919991D02*
X11316991Y-9638009D01*
X11035009Y-9638009D01*
X11035009Y-9919991D01*
X11316991Y-9919991D01*
X10976610Y-11484610D02*
X11375390Y-11883390D01*
X11375390Y-11484610D02*
X10976610Y-11883390D01*
X11316991Y-11824991D02*
X11316991Y-11543009D01*
X11035009Y-11543009D01*
X11035009Y-11824991D01*
X11316991Y-11824991D01*
X12881610Y-4372610D02*
X13280390Y-4771390D01*
X13280390Y-4372610D02*
X12881610Y-4771390D01*
X13221991Y-4712991D02*
X13221991Y-4431009D01*
X12940009Y-4431009D01*
X12940009Y-4712991D01*
X13221991Y-4712991D01*
X12881610Y-6277610D02*
X13280390Y-6676390D01*
X13280390Y-6277610D02*
X12881610Y-6676390D01*
X13221991Y-6617991D02*
X13221991Y-6336009D01*
X12940009Y-6336009D01*
X12940009Y-6617991D01*
X13221991Y-6617991D01*
X12881610Y-8182610D02*
X13280390Y-8581390D01*
X13280390Y-8182610D02*
X12881610Y-8581390D01*
X13221991Y-8522991D02*
X13221991Y-8241009D01*
X12940009Y-8241009D01*
X12940009Y-8522991D01*
X13221991Y-8522991D01*
X12881610Y-10087610D02*
X13280390Y-10486390D01*
X13280390Y-10087610D02*
X12881610Y-10486390D01*
X13221991Y-10427991D02*
X13221991Y-10146009D01*
X12940009Y-10146009D01*
X12940009Y-10427991D01*
X13221991Y-10427991D01*
X12881610Y-11992610D02*
X13280390Y-12391390D01*
X13280390Y-11992610D02*
X12881610Y-12391390D01*
X13221991Y-12332991D02*
X13221991Y-12051009D01*
X12940009Y-12051009D01*
X12940009Y-12332991D01*
X13221991Y-12332991D01*
X14786610Y-13135610D02*
X15185390Y-13534390D01*
X15185390Y-13135610D02*
X14786610Y-13534390D01*
X15126991Y-13475991D02*
X15126991Y-13194009D01*
X14845009Y-13194009D01*
X14845009Y-13475991D01*
X15126991Y-13475991D01*
D13*
X2696928Y-14819214D02*
X2696928Y-14519214D01*
X2768357Y-14519214D01*
X2811214Y-14533500D01*
X2839786Y-14562071D01*
X2854071Y-14590643D01*
X2868357Y-14647786D01*
X2868357Y-14690643D01*
X2854071Y-14747786D01*
X2839786Y-14776357D01*
X2811214Y-14804929D01*
X2768357Y-14819214D01*
X2696928Y-14819214D01*
X2996928Y-14819214D02*
X2996928Y-14619214D01*
X2996928Y-14676357D02*
X3011214Y-14647786D01*
X3025500Y-14633500D01*
X3054071Y-14619214D01*
X3082643Y-14619214D01*
X3182643Y-14819214D02*
X3182643Y-14619214D01*
X3182643Y-14519214D02*
X3168357Y-14533500D01*
X3182643Y-14547786D01*
X3196928Y-14533500D01*
X3182643Y-14519214D01*
X3182643Y-14547786D01*
X3368357Y-14819214D02*
X3339786Y-14804929D01*
X3325500Y-14776357D01*
X3325500Y-14519214D01*
X3525500Y-14819214D02*
X3496928Y-14804929D01*
X3482643Y-14776357D01*
X3482643Y-14519214D01*
X3868357Y-14819214D02*
X3868357Y-14519214D01*
X3968357Y-14733500D01*
X4068357Y-14519214D01*
X4068357Y-14819214D01*
X4339786Y-14819214D02*
X4339786Y-14662071D01*
X4325500Y-14633500D01*
X4296928Y-14619214D01*
X4239786Y-14619214D01*
X4211214Y-14633500D01*
X4339786Y-14804929D02*
X4311214Y-14819214D01*
X4239786Y-14819214D01*
X4211214Y-14804929D01*
X4196928Y-14776357D01*
X4196928Y-14747786D01*
X4211214Y-14719214D01*
X4239786Y-14704929D01*
X4311214Y-14704929D01*
X4339786Y-14690643D01*
X4482643Y-14619214D02*
X4482643Y-14919214D01*
X4482643Y-14633500D02*
X4511214Y-14619214D01*
X4568357Y-14619214D01*
X4596928Y-14633500D01*
X4611214Y-14647786D01*
X4625500Y-14676357D01*
X4625500Y-14762071D01*
X4611214Y-14790643D01*
X4596928Y-14804929D01*
X4568357Y-14819214D01*
X4511214Y-14819214D01*
X4482643Y-14804929D01*
X4754071Y-14790643D02*
X4768357Y-14804929D01*
X4754071Y-14819214D01*
X4739786Y-14804929D01*
X4754071Y-14790643D01*
X4754071Y-14819214D01*
X4754071Y-14633500D02*
X4768357Y-14647786D01*
X4754071Y-14662071D01*
X4739786Y-14647786D01*
X4754071Y-14633500D01*
X4754071Y-14662071D01*
X2370500Y-15293500D02*
X2410500Y-15333500D01*
X2410500Y-15293500D02*
X2370500Y-15333500D01*
X2754071Y-15149214D02*
X2782643Y-15149214D01*
X2811214Y-15163500D01*
X2825500Y-15177786D01*
X2839786Y-15206357D01*
X2854071Y-15263500D01*
X2854071Y-15334929D01*
X2839786Y-15392071D01*
X2825500Y-15420643D01*
X2811214Y-15434929D01*
X2782643Y-15449214D01*
X2754071Y-15449214D01*
X2725500Y-15434929D01*
X2711214Y-15420643D01*
X2696928Y-15392071D01*
X2682643Y-15334929D01*
X2682643Y-15263500D01*
X2696928Y-15206357D01*
X2711214Y-15177786D01*
X2725500Y-15163500D01*
X2754071Y-15149214D01*
X2982643Y-15420643D02*
X2996928Y-15434929D01*
X2982643Y-15449214D01*
X2968357Y-15434929D01*
X2982643Y-15420643D01*
X2982643Y-15449214D01*
X3254071Y-15249214D02*
X3254071Y-15449214D01*
X3182643Y-15134929D02*
X3111214Y-15349214D01*
X3296928Y-15349214D01*
X3468357Y-15149214D02*
X3496928Y-15149214D01*
X3525500Y-15163500D01*
X3539786Y-15177786D01*
X3554071Y-15206357D01*
X3568357Y-15263500D01*
X3568357Y-15334929D01*
X3554071Y-15392071D01*
X3539786Y-15420643D01*
X3525500Y-15434929D01*
X3496928Y-15449214D01*
X3468357Y-15449214D01*
X3439786Y-15434929D01*
X3425500Y-15420643D01*
X3411214Y-15392071D01*
X3396928Y-15334929D01*
X3396928Y-15263500D01*
X3411214Y-15206357D01*
X3425500Y-15177786D01*
X3439786Y-15163500D01*
X3468357Y-15149214D01*
X3696928Y-15449214D02*
X3696928Y-15249214D01*
X3696928Y-15277786D02*
X3711214Y-15263500D01*
X3739786Y-15249214D01*
X3782643Y-15249214D01*
X3811214Y-15263500D01*
X3825500Y-15292071D01*
X3825500Y-15449214D01*
X3825500Y-15292071D02*
X3839786Y-15263500D01*
X3868357Y-15249214D01*
X3911214Y-15249214D01*
X3939786Y-15263500D01*
X3954071Y-15292071D01*
X3954071Y-15449214D01*
X4096928Y-15449214D02*
X4096928Y-15249214D01*
X4096928Y-15277786D02*
X4111214Y-15263500D01*
X4139786Y-15249214D01*
X4182643Y-15249214D01*
X4211214Y-15263500D01*
X4225500Y-15292071D01*
X4225500Y-15449214D01*
X4225500Y-15292071D02*
X4239786Y-15263500D01*
X4268357Y-15249214D01*
X4311214Y-15249214D01*
X4339786Y-15263500D01*
X4354071Y-15292071D01*
X4354071Y-15449214D01*
X4939786Y-15134929D02*
X4682643Y-15520643D01*
X5325500Y-15149214D02*
X5354071Y-15149214D01*
X5382643Y-15163500D01*
X5396928Y-15177786D01*
X5411214Y-15206357D01*
X5425500Y-15263500D01*
X5425500Y-15334929D01*
X5411214Y-15392071D01*
X5396928Y-15420643D01*
X5382643Y-15434929D01*
X5354071Y-15449214D01*
X5325500Y-15449214D01*
X5296928Y-15434929D01*
X5282643Y-15420643D01*
X5268357Y-15392071D01*
X5254071Y-15334929D01*
X5254071Y-15263500D01*
X5268357Y-15206357D01*
X5282643Y-15177786D01*
X5296928Y-15163500D01*
X5325500Y-15149214D01*
X5554071Y-15420643D02*
X5568357Y-15434929D01*
X5554071Y-15449214D01*
X5539786Y-15434929D01*
X5554071Y-15420643D01*
X5554071Y-15449214D01*
X5754071Y-15149214D02*
X5782643Y-15149214D01*
X5811214Y-15163500D01*
X5825500Y-15177786D01*
X5839786Y-15206357D01*
X5854071Y-15263500D01*
X5854071Y-15334929D01*
X5839786Y-15392071D01*
X5825500Y-15420643D01*
X5811214Y-15434929D01*
X5782643Y-15449214D01*
X5754071Y-15449214D01*
X5725500Y-15434929D01*
X5711214Y-15420643D01*
X5696928Y-15392071D01*
X5682643Y-15334929D01*
X5682643Y-15263500D01*
X5696928Y-15206357D01*
X5711214Y-15177786D01*
X5725500Y-15163500D01*
X5754071Y-15149214D01*
X6139786Y-15449214D02*
X5968357Y-15449214D01*
X6054071Y-15449214D02*
X6054071Y-15149214D01*
X6025500Y-15192071D01*
X5996928Y-15220643D01*
X5968357Y-15234929D01*
X6396928Y-15149214D02*
X6339786Y-15149214D01*
X6311214Y-15163500D01*
X6296928Y-15177786D01*
X6268357Y-15220643D01*
X6254071Y-15277786D01*
X6254071Y-15392071D01*
X6268357Y-15420643D01*
X6282643Y-15434929D01*
X6311214Y-15449214D01*
X6368357Y-15449214D01*
X6396928Y-15434929D01*
X6411214Y-15420643D01*
X6425500Y-15392071D01*
X6425500Y-15320643D01*
X6411214Y-15292071D01*
X6396928Y-15277786D01*
X6368357Y-15263500D01*
X6311214Y-15263500D01*
X6282643Y-15277786D01*
X6268357Y-15292071D01*
X6254071Y-15320643D01*
X6539786Y-15149214D02*
X6539786Y-15206357D01*
X6654071Y-15149214D02*
X6654071Y-15206357D01*
X7096928Y-15563500D02*
X7082643Y-15549214D01*
X7054071Y-15506357D01*
X7039786Y-15477786D01*
X7025500Y-15434929D01*
X7011214Y-15363500D01*
X7011214Y-15306357D01*
X7025500Y-15234929D01*
X7039786Y-15192071D01*
X7054071Y-15163500D01*
X7082643Y-15120643D01*
X7096928Y-15106357D01*
X7339786Y-15249214D02*
X7339786Y-15449214D01*
X7268357Y-15134929D02*
X7196928Y-15349214D01*
X7382643Y-15349214D01*
X7725500Y-15449214D02*
X7725500Y-15149214D01*
X7854071Y-15449214D02*
X7854071Y-15292071D01*
X7839786Y-15263500D01*
X7811214Y-15249214D01*
X7768357Y-15249214D01*
X7739786Y-15263500D01*
X7725500Y-15277786D01*
X8039786Y-15449214D02*
X8011214Y-15434929D01*
X7996928Y-15420643D01*
X7982643Y-15392071D01*
X7982643Y-15306357D01*
X7996928Y-15277786D01*
X8011214Y-15263500D01*
X8039786Y-15249214D01*
X8082643Y-15249214D01*
X8111214Y-15263500D01*
X8125500Y-15277786D01*
X8139786Y-15306357D01*
X8139786Y-15392071D01*
X8125500Y-15420643D01*
X8111214Y-15434929D01*
X8082643Y-15449214D01*
X8039786Y-15449214D01*
X8311214Y-15449214D02*
X8282643Y-15434929D01*
X8268357Y-15406357D01*
X8268357Y-15149214D01*
X8539786Y-15434929D02*
X8511214Y-15449214D01*
X8454071Y-15449214D01*
X8425500Y-15434929D01*
X8411214Y-15406357D01*
X8411214Y-15292071D01*
X8425500Y-15263500D01*
X8454071Y-15249214D01*
X8511214Y-15249214D01*
X8539786Y-15263500D01*
X8554071Y-15292071D01*
X8554071Y-15320643D01*
X8411214Y-15349214D01*
X8668357Y-15434929D02*
X8696928Y-15449214D01*
X8754071Y-15449214D01*
X8782643Y-15434929D01*
X8796928Y-15406357D01*
X8796928Y-15392071D01*
X8782643Y-15363500D01*
X8754071Y-15349214D01*
X8711214Y-15349214D01*
X8682643Y-15334929D01*
X8668357Y-15306357D01*
X8668357Y-15292071D01*
X8682643Y-15263500D01*
X8711214Y-15249214D01*
X8754071Y-15249214D01*
X8782643Y-15263500D01*
X8896928Y-15563500D02*
X8911214Y-15549214D01*
X8939786Y-15506357D01*
X8954071Y-15477786D01*
X8968357Y-15434929D01*
X8982643Y-15363500D01*
X8982643Y-15306357D01*
X8968357Y-15234929D01*
X8954071Y-15192071D01*
X8939786Y-15163500D01*
X8911214Y-15120643D01*
X8896928Y-15106357D01*
X2410500Y-15709500D02*
G75*
G03*
X2410500Y-15709500I-25000J0D01*
G01*
X2754071Y-15545214D02*
X2782643Y-15545214D01*
X2811214Y-15559500D01*
X2825500Y-15573786D01*
X2839786Y-15602357D01*
X2854071Y-15659500D01*
X2854071Y-15730929D01*
X2839786Y-15788071D01*
X2825500Y-15816643D01*
X2811214Y-15830929D01*
X2782643Y-15845214D01*
X2754071Y-15845214D01*
X2725500Y-15830929D01*
X2711214Y-15816643D01*
X2696928Y-15788071D01*
X2682643Y-15730929D01*
X2682643Y-15659500D01*
X2696928Y-15602357D01*
X2711214Y-15573786D01*
X2725500Y-15559500D01*
X2754071Y-15545214D01*
X2982643Y-15816643D02*
X2996928Y-15830929D01*
X2982643Y-15845214D01*
X2968357Y-15830929D01*
X2982643Y-15816643D01*
X2982643Y-15845214D01*
X3268357Y-15545214D02*
X3125500Y-15545214D01*
X3111214Y-15688071D01*
X3125500Y-15673786D01*
X3154071Y-15659500D01*
X3225500Y-15659500D01*
X3254071Y-15673786D01*
X3268357Y-15688071D01*
X3282643Y-15716643D01*
X3282643Y-15788071D01*
X3268357Y-15816643D01*
X3254071Y-15830929D01*
X3225500Y-15845214D01*
X3154071Y-15845214D01*
X3125500Y-15830929D01*
X3111214Y-15816643D01*
X3468357Y-15545214D02*
X3496928Y-15545214D01*
X3525500Y-15559500D01*
X3539786Y-15573786D01*
X3554071Y-15602357D01*
X3568357Y-15659500D01*
X3568357Y-15730929D01*
X3554071Y-15788071D01*
X3539786Y-15816643D01*
X3525500Y-15830929D01*
X3496928Y-15845214D01*
X3468357Y-15845214D01*
X3439786Y-15830929D01*
X3425500Y-15816643D01*
X3411214Y-15788071D01*
X3396928Y-15730929D01*
X3396928Y-15659500D01*
X3411214Y-15602357D01*
X3425500Y-15573786D01*
X3439786Y-15559500D01*
X3468357Y-15545214D01*
X3696928Y-15845214D02*
X3696928Y-15645214D01*
X3696928Y-15673786D02*
X3711214Y-15659500D01*
X3739786Y-15645214D01*
X3782643Y-15645214D01*
X3811214Y-15659500D01*
X3825500Y-15688071D01*
X3825500Y-15845214D01*
X3825500Y-15688071D02*
X3839786Y-15659500D01*
X3868357Y-15645214D01*
X3911214Y-15645214D01*
X3939786Y-15659500D01*
X3954071Y-15688071D01*
X3954071Y-15845214D01*
X4096928Y-15845214D02*
X4096928Y-15645214D01*
X4096928Y-15673786D02*
X4111214Y-15659500D01*
X4139786Y-15645214D01*
X4182643Y-15645214D01*
X4211214Y-15659500D01*
X4225500Y-15688071D01*
X4225500Y-15845214D01*
X4225500Y-15688071D02*
X4239786Y-15659500D01*
X4268357Y-15645214D01*
X4311214Y-15645214D01*
X4339786Y-15659500D01*
X4354071Y-15688071D01*
X4354071Y-15845214D01*
X4939786Y-15530929D02*
X4682643Y-15916643D01*
X5325500Y-15545214D02*
X5354071Y-15545214D01*
X5382643Y-15559500D01*
X5396928Y-15573786D01*
X5411214Y-15602357D01*
X5425500Y-15659500D01*
X5425500Y-15730929D01*
X5411214Y-15788071D01*
X5396928Y-15816643D01*
X5382643Y-15830929D01*
X5354071Y-15845214D01*
X5325500Y-15845214D01*
X5296928Y-15830929D01*
X5282643Y-15816643D01*
X5268357Y-15788071D01*
X5254071Y-15730929D01*
X5254071Y-15659500D01*
X5268357Y-15602357D01*
X5282643Y-15573786D01*
X5296928Y-15559500D01*
X5325500Y-15545214D01*
X5554071Y-15816643D02*
X5568357Y-15830929D01*
X5554071Y-15845214D01*
X5539786Y-15830929D01*
X5554071Y-15816643D01*
X5554071Y-15845214D01*
X5754071Y-15545214D02*
X5782643Y-15545214D01*
X5811214Y-15559500D01*
X5825500Y-15573786D01*
X5839786Y-15602357D01*
X5854071Y-15659500D01*
X5854071Y-15730929D01*
X5839786Y-15788071D01*
X5825500Y-15816643D01*
X5811214Y-15830929D01*
X5782643Y-15845214D01*
X5754071Y-15845214D01*
X5725500Y-15830929D01*
X5711214Y-15816643D01*
X5696928Y-15788071D01*
X5682643Y-15730929D01*
X5682643Y-15659500D01*
X5696928Y-15602357D01*
X5711214Y-15573786D01*
X5725500Y-15559500D01*
X5754071Y-15545214D01*
X5968357Y-15573786D02*
X5982643Y-15559500D01*
X6011214Y-15545214D01*
X6082643Y-15545214D01*
X6111214Y-15559500D01*
X6125500Y-15573786D01*
X6139786Y-15602357D01*
X6139786Y-15630929D01*
X6125500Y-15673786D01*
X5954071Y-15845214D01*
X6139786Y-15845214D01*
X6325500Y-15545214D02*
X6354071Y-15545214D01*
X6382643Y-15559500D01*
X6396928Y-15573786D01*
X6411214Y-15602357D01*
X6425500Y-15659500D01*
X6425500Y-15730929D01*
X6411214Y-15788071D01*
X6396928Y-15816643D01*
X6382643Y-15830929D01*
X6354071Y-15845214D01*
X6325500Y-15845214D01*
X6296928Y-15830929D01*
X6282643Y-15816643D01*
X6268357Y-15788071D01*
X6254071Y-15730929D01*
X6254071Y-15659500D01*
X6268357Y-15602357D01*
X6282643Y-15573786D01*
X6296928Y-15559500D01*
X6325500Y-15545214D01*
X6539786Y-15545214D02*
X6539786Y-15602357D01*
X6654071Y-15545214D02*
X6654071Y-15602357D01*
X7096928Y-15959500D02*
X7082643Y-15945214D01*
X7054071Y-15902357D01*
X7039786Y-15873786D01*
X7025500Y-15830929D01*
X7011214Y-15759500D01*
X7011214Y-15702357D01*
X7025500Y-15630929D01*
X7039786Y-15588071D01*
X7054071Y-15559500D01*
X7082643Y-15516643D01*
X7096928Y-15502357D01*
X7368357Y-15845214D02*
X7196928Y-15845214D01*
X7282643Y-15845214D02*
X7282643Y-15545214D01*
X7254071Y-15588071D01*
X7225500Y-15616643D01*
X7196928Y-15630929D01*
X7539786Y-15673786D02*
X7511214Y-15659500D01*
X7496928Y-15645214D01*
X7482643Y-15616643D01*
X7482643Y-15602357D01*
X7496928Y-15573786D01*
X7511214Y-15559500D01*
X7539786Y-15545214D01*
X7596928Y-15545214D01*
X7625500Y-15559500D01*
X7639786Y-15573786D01*
X7654071Y-15602357D01*
X7654071Y-15616643D01*
X7639786Y-15645214D01*
X7625500Y-15659500D01*
X7596928Y-15673786D01*
X7539786Y-15673786D01*
X7511214Y-15688071D01*
X7496928Y-15702357D01*
X7482643Y-15730929D01*
X7482643Y-15788071D01*
X7496928Y-15816643D01*
X7511214Y-15830929D01*
X7539786Y-15845214D01*
X7596928Y-15845214D01*
X7625500Y-15830929D01*
X7639786Y-15816643D01*
X7654071Y-15788071D01*
X7654071Y-15730929D01*
X7639786Y-15702357D01*
X7625500Y-15688071D01*
X7596928Y-15673786D01*
X7839786Y-15545214D02*
X7868357Y-15545214D01*
X7896928Y-15559500D01*
X7911214Y-15573786D01*
X7925500Y-15602357D01*
X7939786Y-15659500D01*
X7939786Y-15730929D01*
X7925500Y-15788071D01*
X7911214Y-15816643D01*
X7896928Y-15830929D01*
X7868357Y-15845214D01*
X7839786Y-15845214D01*
X7811214Y-15830929D01*
X7796928Y-15816643D01*
X7782643Y-15788071D01*
X7768357Y-15730929D01*
X7768357Y-15659500D01*
X7782643Y-15602357D01*
X7796928Y-15573786D01*
X7811214Y-15559500D01*
X7839786Y-15545214D01*
X8296928Y-15845214D02*
X8296928Y-15545214D01*
X8425500Y-15845214D02*
X8425500Y-15688071D01*
X8411214Y-15659500D01*
X8382643Y-15645214D01*
X8339786Y-15645214D01*
X8311214Y-15659500D01*
X8296928Y-15673786D01*
X8611214Y-15845214D02*
X8582643Y-15830929D01*
X8568357Y-15816643D01*
X8554071Y-15788071D01*
X8554071Y-15702357D01*
X8568357Y-15673786D01*
X8582643Y-15659500D01*
X8611214Y-15645214D01*
X8654071Y-15645214D01*
X8682643Y-15659500D01*
X8696928Y-15673786D01*
X8711214Y-15702357D01*
X8711214Y-15788071D01*
X8696928Y-15816643D01*
X8682643Y-15830929D01*
X8654071Y-15845214D01*
X8611214Y-15845214D01*
X8882643Y-15845214D02*
X8854071Y-15830929D01*
X8839786Y-15802357D01*
X8839786Y-15545214D01*
X9111214Y-15830929D02*
X9082643Y-15845214D01*
X9025500Y-15845214D01*
X8996928Y-15830929D01*
X8982643Y-15802357D01*
X8982643Y-15688071D01*
X8996928Y-15659500D01*
X9025500Y-15645214D01*
X9082643Y-15645214D01*
X9111214Y-15659500D01*
X9125500Y-15688071D01*
X9125500Y-15716643D01*
X8982643Y-15745214D01*
X9239786Y-15830929D02*
X9268357Y-15845214D01*
X9325500Y-15845214D01*
X9354071Y-15830929D01*
X9368357Y-15802357D01*
X9368357Y-15788071D01*
X9354071Y-15759500D01*
X9325500Y-15745214D01*
X9282643Y-15745214D01*
X9254071Y-15730929D01*
X9239786Y-15702357D01*
X9239786Y-15688071D01*
X9254071Y-15659500D01*
X9282643Y-15645214D01*
X9325500Y-15645214D01*
X9354071Y-15659500D01*
X9468357Y-15959500D02*
X9482643Y-15945214D01*
X9511214Y-15902357D01*
X9525500Y-15873786D01*
X9539786Y-15830929D01*
X9554071Y-15759500D01*
X9554071Y-15702357D01*
X9539786Y-15630929D01*
X9525500Y-15588071D01*
X9511214Y-15559500D01*
X9482643Y-15516643D01*
X9468357Y-15502357D01*
X2370500Y-16065500D02*
X2370500Y-16145500D01*
X2330500Y-16105500D02*
X2410500Y-16105500D01*
X2754071Y-15941214D02*
X2782643Y-15941214D01*
X2811214Y-15955500D01*
X2825500Y-15969786D01*
X2839786Y-15998357D01*
X2854071Y-16055500D01*
X2854071Y-16126929D01*
X2839786Y-16184071D01*
X2825500Y-16212643D01*
X2811214Y-16226929D01*
X2782643Y-16241214D01*
X2754071Y-16241214D01*
X2725500Y-16226929D01*
X2711214Y-16212643D01*
X2696928Y-16184071D01*
X2682643Y-16126929D01*
X2682643Y-16055500D01*
X2696928Y-15998357D01*
X2711214Y-15969786D01*
X2725500Y-15955500D01*
X2754071Y-15941214D01*
X2982643Y-16212643D02*
X2996928Y-16226929D01*
X2982643Y-16241214D01*
X2968357Y-16226929D01*
X2982643Y-16212643D01*
X2982643Y-16241214D01*
X3168357Y-16069786D02*
X3139786Y-16055500D01*
X3125500Y-16041214D01*
X3111214Y-16012643D01*
X3111214Y-15998357D01*
X3125500Y-15969786D01*
X3139786Y-15955500D01*
X3168357Y-15941214D01*
X3225500Y-15941214D01*
X3254071Y-15955500D01*
X3268357Y-15969786D01*
X3282643Y-15998357D01*
X3282643Y-16012643D01*
X3268357Y-16041214D01*
X3254071Y-16055500D01*
X3225500Y-16069786D01*
X3168357Y-16069786D01*
X3139786Y-16084071D01*
X3125500Y-16098357D01*
X3111214Y-16126929D01*
X3111214Y-16184071D01*
X3125500Y-16212643D01*
X3139786Y-16226929D01*
X3168357Y-16241214D01*
X3225500Y-16241214D01*
X3254071Y-16226929D01*
X3268357Y-16212643D01*
X3282643Y-16184071D01*
X3282643Y-16126929D01*
X3268357Y-16098357D01*
X3254071Y-16084071D01*
X3225500Y-16069786D01*
X3468357Y-15941214D02*
X3496928Y-15941214D01*
X3525500Y-15955500D01*
X3539786Y-15969786D01*
X3554071Y-15998357D01*
X3568357Y-16055500D01*
X3568357Y-16126929D01*
X3554071Y-16184071D01*
X3539786Y-16212643D01*
X3525500Y-16226929D01*
X3496928Y-16241214D01*
X3468357Y-16241214D01*
X3439786Y-16226929D01*
X3425500Y-16212643D01*
X3411214Y-16184071D01*
X3396928Y-16126929D01*
X3396928Y-16055500D01*
X3411214Y-15998357D01*
X3425500Y-15969786D01*
X3439786Y-15955500D01*
X3468357Y-15941214D01*
X3696928Y-16241214D02*
X3696928Y-16041214D01*
X3696928Y-16069786D02*
X3711214Y-16055500D01*
X3739786Y-16041214D01*
X3782643Y-16041214D01*
X3811214Y-16055500D01*
X3825500Y-16084071D01*
X3825500Y-16241214D01*
X3825500Y-16084071D02*
X3839786Y-16055500D01*
X3868357Y-16041214D01*
X3911214Y-16041214D01*
X3939786Y-16055500D01*
X3954071Y-16084071D01*
X3954071Y-16241214D01*
X4096928Y-16241214D02*
X4096928Y-16041214D01*
X4096928Y-16069786D02*
X4111214Y-16055500D01*
X4139786Y-16041214D01*
X4182643Y-16041214D01*
X4211214Y-16055500D01*
X4225500Y-16084071D01*
X4225500Y-16241214D01*
X4225500Y-16084071D02*
X4239786Y-16055500D01*
X4268357Y-16041214D01*
X4311214Y-16041214D01*
X4339786Y-16055500D01*
X4354071Y-16084071D01*
X4354071Y-16241214D01*
X4939786Y-15926929D02*
X4682643Y-16312643D01*
X5325500Y-15941214D02*
X5354071Y-15941214D01*
X5382643Y-15955500D01*
X5396928Y-15969786D01*
X5411214Y-15998357D01*
X5425500Y-16055500D01*
X5425500Y-16126929D01*
X5411214Y-16184071D01*
X5396928Y-16212643D01*
X5382643Y-16226929D01*
X5354071Y-16241214D01*
X5325500Y-16241214D01*
X5296928Y-16226929D01*
X5282643Y-16212643D01*
X5268357Y-16184071D01*
X5254071Y-16126929D01*
X5254071Y-16055500D01*
X5268357Y-15998357D01*
X5282643Y-15969786D01*
X5296928Y-15955500D01*
X5325500Y-15941214D01*
X5554071Y-16212643D02*
X5568357Y-16226929D01*
X5554071Y-16241214D01*
X5539786Y-16226929D01*
X5554071Y-16212643D01*
X5554071Y-16241214D01*
X5754071Y-15941214D02*
X5782643Y-15941214D01*
X5811214Y-15955500D01*
X5825500Y-15969786D01*
X5839786Y-15998357D01*
X5854071Y-16055500D01*
X5854071Y-16126929D01*
X5839786Y-16184071D01*
X5825500Y-16212643D01*
X5811214Y-16226929D01*
X5782643Y-16241214D01*
X5754071Y-16241214D01*
X5725500Y-16226929D01*
X5711214Y-16212643D01*
X5696928Y-16184071D01*
X5682643Y-16126929D01*
X5682643Y-16055500D01*
X5696928Y-15998357D01*
X5711214Y-15969786D01*
X5725500Y-15955500D01*
X5754071Y-15941214D01*
X5954071Y-15941214D02*
X6139786Y-15941214D01*
X6039786Y-16055500D01*
X6082643Y-16055500D01*
X6111214Y-16069786D01*
X6125500Y-16084071D01*
X6139786Y-16112643D01*
X6139786Y-16184071D01*
X6125500Y-16212643D01*
X6111214Y-16226929D01*
X6082643Y-16241214D01*
X5996928Y-16241214D01*
X5968357Y-16226929D01*
X5954071Y-16212643D01*
X6425500Y-16241214D02*
X6254071Y-16241214D01*
X6339786Y-16241214D02*
X6339786Y-15941214D01*
X6311214Y-15984071D01*
X6282643Y-16012643D01*
X6254071Y-16026929D01*
X6539786Y-15941214D02*
X6539786Y-15998357D01*
X6654071Y-15941214D02*
X6654071Y-15998357D01*
X7096928Y-16355500D02*
X7082643Y-16341214D01*
X7054071Y-16298357D01*
X7039786Y-16269786D01*
X7025500Y-16226929D01*
X7011214Y-16155500D01*
X7011214Y-16098357D01*
X7025500Y-16026929D01*
X7039786Y-15984071D01*
X7054071Y-15955500D01*
X7082643Y-15912643D01*
X7096928Y-15898357D01*
X7339786Y-15941214D02*
X7282643Y-15941214D01*
X7254071Y-15955500D01*
X7239786Y-15969786D01*
X7211214Y-16012643D01*
X7196928Y-16069786D01*
X7196928Y-16184071D01*
X7211214Y-16212643D01*
X7225500Y-16226929D01*
X7254071Y-16241214D01*
X7311214Y-16241214D01*
X7339786Y-16226929D01*
X7354071Y-16212643D01*
X7368357Y-16184071D01*
X7368357Y-16112643D01*
X7354071Y-16084071D01*
X7339786Y-16069786D01*
X7311214Y-16055500D01*
X7254071Y-16055500D01*
X7225500Y-16069786D01*
X7211214Y-16084071D01*
X7196928Y-16112643D01*
X7554071Y-15941214D02*
X7582643Y-15941214D01*
X7611214Y-15955500D01*
X7625500Y-15969786D01*
X7639786Y-15998357D01*
X7654071Y-16055500D01*
X7654071Y-16126929D01*
X7639786Y-16184071D01*
X7625500Y-16212643D01*
X7611214Y-16226929D01*
X7582643Y-16241214D01*
X7554071Y-16241214D01*
X7525500Y-16226929D01*
X7511214Y-16212643D01*
X7496928Y-16184071D01*
X7482643Y-16126929D01*
X7482643Y-16055500D01*
X7496928Y-15998357D01*
X7511214Y-15969786D01*
X7525500Y-15955500D01*
X7554071Y-15941214D01*
X8011214Y-16241214D02*
X8011214Y-15941214D01*
X8139786Y-16241214D02*
X8139786Y-16084071D01*
X8125500Y-16055500D01*
X8096928Y-16041214D01*
X8054071Y-16041214D01*
X8025500Y-16055500D01*
X8011214Y-16069786D01*
X8325500Y-16241214D02*
X8296928Y-16226929D01*
X8282643Y-16212643D01*
X8268357Y-16184071D01*
X8268357Y-16098357D01*
X8282643Y-16069786D01*
X8296928Y-16055500D01*
X8325500Y-16041214D01*
X8368357Y-16041214D01*
X8396928Y-16055500D01*
X8411214Y-16069786D01*
X8425500Y-16098357D01*
X8425500Y-16184071D01*
X8411214Y-16212643D01*
X8396928Y-16226929D01*
X8368357Y-16241214D01*
X8325500Y-16241214D01*
X8596928Y-16241214D02*
X8568357Y-16226929D01*
X8554071Y-16198357D01*
X8554071Y-15941214D01*
X8825500Y-16226929D02*
X8796928Y-16241214D01*
X8739786Y-16241214D01*
X8711214Y-16226929D01*
X8696928Y-16198357D01*
X8696928Y-16084071D01*
X8711214Y-16055500D01*
X8739786Y-16041214D01*
X8796928Y-16041214D01*
X8825500Y-16055500D01*
X8839786Y-16084071D01*
X8839786Y-16112643D01*
X8696928Y-16141214D01*
X8954071Y-16226929D02*
X8982643Y-16241214D01*
X9039786Y-16241214D01*
X9068357Y-16226929D01*
X9082643Y-16198357D01*
X9082643Y-16184071D01*
X9068357Y-16155500D01*
X9039786Y-16141214D01*
X8996928Y-16141214D01*
X8968357Y-16126929D01*
X8954071Y-16098357D01*
X8954071Y-16084071D01*
X8968357Y-16055500D01*
X8996928Y-16041214D01*
X9039786Y-16041214D01*
X9068357Y-16055500D01*
X9182643Y-16355500D02*
X9196928Y-16341214D01*
X9225500Y-16298357D01*
X9239786Y-16269786D01*
X9254071Y-16226929D01*
X9268357Y-16155500D01*
X9268357Y-16098357D01*
X9254071Y-16026929D01*
X9239786Y-15984071D01*
X9225500Y-15955500D01*
X9196928Y-15912643D01*
X9182643Y-15898357D01*
X2395856Y-16536856D02*
X2395856Y-16466144D01*
X2325144Y-16466144D01*
X2325144Y-16536856D01*
X2395856Y-16536856D01*
X2854071Y-16637214D02*
X2682643Y-16637214D01*
X2768357Y-16637214D02*
X2768357Y-16337214D01*
X2739786Y-16380071D01*
X2711214Y-16408643D01*
X2682643Y-16422929D01*
X2982643Y-16608643D02*
X2996928Y-16622929D01*
X2982643Y-16637214D01*
X2968357Y-16622929D01*
X2982643Y-16608643D01*
X2982643Y-16637214D01*
X3182643Y-16337214D02*
X3211214Y-16337214D01*
X3239786Y-16351500D01*
X3254071Y-16365786D01*
X3268357Y-16394357D01*
X3282643Y-16451500D01*
X3282643Y-16522929D01*
X3268357Y-16580071D01*
X3254071Y-16608643D01*
X3239786Y-16622929D01*
X3211214Y-16637214D01*
X3182643Y-16637214D01*
X3154071Y-16622929D01*
X3139786Y-16608643D01*
X3125500Y-16580071D01*
X3111214Y-16522929D01*
X3111214Y-16451500D01*
X3125500Y-16394357D01*
X3139786Y-16365786D01*
X3154071Y-16351500D01*
X3182643Y-16337214D01*
X3468357Y-16337214D02*
X3496928Y-16337214D01*
X3525500Y-16351500D01*
X3539786Y-16365786D01*
X3554071Y-16394357D01*
X3568357Y-16451500D01*
X3568357Y-16522929D01*
X3554071Y-16580071D01*
X3539786Y-16608643D01*
X3525500Y-16622929D01*
X3496928Y-16637214D01*
X3468357Y-16637214D01*
X3439786Y-16622929D01*
X3425500Y-16608643D01*
X3411214Y-16580071D01*
X3396928Y-16522929D01*
X3396928Y-16451500D01*
X3411214Y-16394357D01*
X3425500Y-16365786D01*
X3439786Y-16351500D01*
X3468357Y-16337214D01*
X3696928Y-16637214D02*
X3696928Y-16437214D01*
X3696928Y-16465786D02*
X3711214Y-16451500D01*
X3739786Y-16437214D01*
X3782643Y-16437214D01*
X3811214Y-16451500D01*
X3825500Y-16480071D01*
X3825500Y-16637214D01*
X3825500Y-16480071D02*
X3839786Y-16451500D01*
X3868357Y-16437214D01*
X3911214Y-16437214D01*
X3939786Y-16451500D01*
X3954071Y-16480071D01*
X3954071Y-16637214D01*
X4096928Y-16637214D02*
X4096928Y-16437214D01*
X4096928Y-16465786D02*
X4111214Y-16451500D01*
X4139786Y-16437214D01*
X4182643Y-16437214D01*
X4211214Y-16451500D01*
X4225500Y-16480071D01*
X4225500Y-16637214D01*
X4225500Y-16480071D02*
X4239786Y-16451500D01*
X4268357Y-16437214D01*
X4311214Y-16437214D01*
X4339786Y-16451500D01*
X4354071Y-16480071D01*
X4354071Y-16637214D01*
X4939786Y-16322929D02*
X4682643Y-16708643D01*
X5325500Y-16337214D02*
X5354071Y-16337214D01*
X5382643Y-16351500D01*
X5396928Y-16365786D01*
X5411214Y-16394357D01*
X5425500Y-16451500D01*
X5425500Y-16522929D01*
X5411214Y-16580071D01*
X5396928Y-16608643D01*
X5382643Y-16622929D01*
X5354071Y-16637214D01*
X5325500Y-16637214D01*
X5296928Y-16622929D01*
X5282643Y-16608643D01*
X5268357Y-16580071D01*
X5254071Y-16522929D01*
X5254071Y-16451500D01*
X5268357Y-16394357D01*
X5282643Y-16365786D01*
X5296928Y-16351500D01*
X5325500Y-16337214D01*
X5554071Y-16608643D02*
X5568357Y-16622929D01*
X5554071Y-16637214D01*
X5539786Y-16622929D01*
X5554071Y-16608643D01*
X5554071Y-16637214D01*
X5754071Y-16337214D02*
X5782643Y-16337214D01*
X5811214Y-16351500D01*
X5825500Y-16365786D01*
X5839786Y-16394357D01*
X5854071Y-16451500D01*
X5854071Y-16522929D01*
X5839786Y-16580071D01*
X5825500Y-16608643D01*
X5811214Y-16622929D01*
X5782643Y-16637214D01*
X5754071Y-16637214D01*
X5725500Y-16622929D01*
X5711214Y-16608643D01*
X5696928Y-16580071D01*
X5682643Y-16522929D01*
X5682643Y-16451500D01*
X5696928Y-16394357D01*
X5711214Y-16365786D01*
X5725500Y-16351500D01*
X5754071Y-16337214D01*
X5954071Y-16337214D02*
X6139786Y-16337214D01*
X6039786Y-16451500D01*
X6082643Y-16451500D01*
X6111214Y-16465786D01*
X6125500Y-16480071D01*
X6139786Y-16508643D01*
X6139786Y-16580071D01*
X6125500Y-16608643D01*
X6111214Y-16622929D01*
X6082643Y-16637214D01*
X5996928Y-16637214D01*
X5968357Y-16622929D01*
X5954071Y-16608643D01*
X6282643Y-16637214D02*
X6339786Y-16637214D01*
X6368357Y-16622929D01*
X6382643Y-16608643D01*
X6411214Y-16565786D01*
X6425500Y-16508643D01*
X6425500Y-16394357D01*
X6411214Y-16365786D01*
X6396928Y-16351500D01*
X6368357Y-16337214D01*
X6311214Y-16337214D01*
X6282643Y-16351500D01*
X6268357Y-16365786D01*
X6254071Y-16394357D01*
X6254071Y-16465786D01*
X6268357Y-16494357D01*
X6282643Y-16508643D01*
X6311214Y-16522929D01*
X6368357Y-16522929D01*
X6396928Y-16508643D01*
X6411214Y-16494357D01*
X6425500Y-16465786D01*
X6539786Y-16337214D02*
X6539786Y-16394357D01*
X6654071Y-16337214D02*
X6654071Y-16394357D01*
X7096928Y-16751500D02*
X7082643Y-16737214D01*
X7054071Y-16694357D01*
X7039786Y-16665786D01*
X7025500Y-16622929D01*
X7011214Y-16551500D01*
X7011214Y-16494357D01*
X7025500Y-16422929D01*
X7039786Y-16380071D01*
X7054071Y-16351500D01*
X7082643Y-16308643D01*
X7096928Y-16294357D01*
X7254071Y-16465786D02*
X7225500Y-16451500D01*
X7211214Y-16437214D01*
X7196928Y-16408643D01*
X7196928Y-16394357D01*
X7211214Y-16365786D01*
X7225500Y-16351500D01*
X7254071Y-16337214D01*
X7311214Y-16337214D01*
X7339786Y-16351500D01*
X7354071Y-16365786D01*
X7368357Y-16394357D01*
X7368357Y-16408643D01*
X7354071Y-16437214D01*
X7339786Y-16451500D01*
X7311214Y-16465786D01*
X7254071Y-16465786D01*
X7225500Y-16480071D01*
X7211214Y-16494357D01*
X7196928Y-16522929D01*
X7196928Y-16580071D01*
X7211214Y-16608643D01*
X7225500Y-16622929D01*
X7254071Y-16637214D01*
X7311214Y-16637214D01*
X7339786Y-16622929D01*
X7354071Y-16608643D01*
X7368357Y-16580071D01*
X7368357Y-16522929D01*
X7354071Y-16494357D01*
X7339786Y-16480071D01*
X7311214Y-16465786D01*
X7725500Y-16637214D02*
X7725500Y-16337214D01*
X7854071Y-16637214D02*
X7854071Y-16480071D01*
X7839786Y-16451500D01*
X7811214Y-16437214D01*
X7768357Y-16437214D01*
X7739786Y-16451500D01*
X7725500Y-16465786D01*
X8039786Y-16637214D02*
X8011214Y-16622929D01*
X7996928Y-16608643D01*
X7982643Y-16580071D01*
X7982643Y-16494357D01*
X7996928Y-16465786D01*
X8011214Y-16451500D01*
X8039786Y-16437214D01*
X8082643Y-16437214D01*
X8111214Y-16451500D01*
X8125500Y-16465786D01*
X8139786Y-16494357D01*
X8139786Y-16580071D01*
X8125500Y-16608643D01*
X8111214Y-16622929D01*
X8082643Y-16637214D01*
X8039786Y-16637214D01*
X8311214Y-16637214D02*
X8282643Y-16622929D01*
X8268357Y-16594357D01*
X8268357Y-16337214D01*
X8539786Y-16622929D02*
X8511214Y-16637214D01*
X8454071Y-16637214D01*
X8425500Y-16622929D01*
X8411214Y-16594357D01*
X8411214Y-16480071D01*
X8425500Y-16451500D01*
X8454071Y-16437214D01*
X8511214Y-16437214D01*
X8539786Y-16451500D01*
X8554071Y-16480071D01*
X8554071Y-16508643D01*
X8411214Y-16537214D01*
X8668357Y-16622929D02*
X8696928Y-16637214D01*
X8754071Y-16637214D01*
X8782643Y-16622929D01*
X8796928Y-16594357D01*
X8796928Y-16580071D01*
X8782643Y-16551500D01*
X8754071Y-16537214D01*
X8711214Y-16537214D01*
X8682643Y-16522929D01*
X8668357Y-16494357D01*
X8668357Y-16480071D01*
X8682643Y-16451500D01*
X8711214Y-16437214D01*
X8754071Y-16437214D01*
X8782643Y-16451500D01*
X8896928Y-16751500D02*
X8911214Y-16737214D01*
X8939786Y-16694357D01*
X8954071Y-16665786D01*
X8968357Y-16622929D01*
X8982643Y-16551500D01*
X8982643Y-16494357D01*
X8968357Y-16422929D01*
X8954071Y-16380071D01*
X8939786Y-16351500D01*
X8911214Y-16308643D01*
X8896928Y-16294357D01*
X2355500Y-16952500D02*
X2410500Y-16897500D01*
X2355500Y-16842500D01*
X2300500Y-16897500D01*
X2355500Y-16952500D01*
X2854071Y-17033214D02*
X2682643Y-17033214D01*
X2768357Y-17033214D02*
X2768357Y-16733214D01*
X2739786Y-16776071D01*
X2711214Y-16804643D01*
X2682643Y-16818929D01*
X2982643Y-17004643D02*
X2996928Y-17018929D01*
X2982643Y-17033214D01*
X2968357Y-17018929D01*
X2982643Y-17004643D01*
X2982643Y-17033214D01*
X3282643Y-17033214D02*
X3111214Y-17033214D01*
X3196928Y-17033214D02*
X3196928Y-16733214D01*
X3168357Y-16776071D01*
X3139786Y-16804643D01*
X3111214Y-16818929D01*
X3468357Y-16733214D02*
X3496928Y-16733214D01*
X3525500Y-16747500D01*
X3539786Y-16761786D01*
X3554071Y-16790357D01*
X3568357Y-16847500D01*
X3568357Y-16918929D01*
X3554071Y-16976072D01*
X3539786Y-17004643D01*
X3525500Y-17018929D01*
X3496928Y-17033214D01*
X3468357Y-17033214D01*
X3439786Y-17018929D01*
X3425500Y-17004643D01*
X3411214Y-16976072D01*
X3396928Y-16918929D01*
X3396928Y-16847500D01*
X3411214Y-16790357D01*
X3425500Y-16761786D01*
X3439786Y-16747500D01*
X3468357Y-16733214D01*
X3696928Y-17033214D02*
X3696928Y-16833214D01*
X3696928Y-16861786D02*
X3711214Y-16847500D01*
X3739786Y-16833214D01*
X3782643Y-16833214D01*
X3811214Y-16847500D01*
X3825500Y-16876072D01*
X3825500Y-17033214D01*
X3825500Y-16876072D02*
X3839786Y-16847500D01*
X3868357Y-16833214D01*
X3911214Y-16833214D01*
X3939786Y-16847500D01*
X3954071Y-16876072D01*
X3954071Y-17033214D01*
X4096928Y-17033214D02*
X4096928Y-16833214D01*
X4096928Y-16861786D02*
X4111214Y-16847500D01*
X4139786Y-16833214D01*
X4182643Y-16833214D01*
X4211214Y-16847500D01*
X4225500Y-16876072D01*
X4225500Y-17033214D01*
X4225500Y-16876072D02*
X4239786Y-16847500D01*
X4268357Y-16833214D01*
X4311214Y-16833214D01*
X4339786Y-16847500D01*
X4354071Y-16876072D01*
X4354071Y-17033214D01*
X4939786Y-16718929D02*
X4682643Y-17104643D01*
X5325500Y-16733214D02*
X5354071Y-16733214D01*
X5382643Y-16747500D01*
X5396928Y-16761786D01*
X5411214Y-16790357D01*
X5425500Y-16847500D01*
X5425500Y-16918929D01*
X5411214Y-16976072D01*
X5396928Y-17004643D01*
X5382643Y-17018929D01*
X5354071Y-17033214D01*
X5325500Y-17033214D01*
X5296928Y-17018929D01*
X5282643Y-17004643D01*
X5268357Y-16976072D01*
X5254071Y-16918929D01*
X5254071Y-16847500D01*
X5268357Y-16790357D01*
X5282643Y-16761786D01*
X5296928Y-16747500D01*
X5325500Y-16733214D01*
X5554071Y-17004643D02*
X5568357Y-17018929D01*
X5554071Y-17033214D01*
X5539786Y-17018929D01*
X5554071Y-17004643D01*
X5554071Y-17033214D01*
X5754071Y-16733214D02*
X5782643Y-16733214D01*
X5811214Y-16747500D01*
X5825500Y-16761786D01*
X5839786Y-16790357D01*
X5854071Y-16847500D01*
X5854071Y-16918929D01*
X5839786Y-16976072D01*
X5825500Y-17004643D01*
X5811214Y-17018929D01*
X5782643Y-17033214D01*
X5754071Y-17033214D01*
X5725500Y-17018929D01*
X5711214Y-17004643D01*
X5696928Y-16976072D01*
X5682643Y-16918929D01*
X5682643Y-16847500D01*
X5696928Y-16790357D01*
X5711214Y-16761786D01*
X5725500Y-16747500D01*
X5754071Y-16733214D01*
X6111214Y-16833214D02*
X6111214Y-17033214D01*
X6039786Y-16718929D02*
X5968357Y-16933214D01*
X6154071Y-16933214D01*
X6239786Y-16733214D02*
X6425500Y-16733214D01*
X6325500Y-16847500D01*
X6368357Y-16847500D01*
X6396928Y-16861786D01*
X6411214Y-16876072D01*
X6425500Y-16904643D01*
X6425500Y-16976072D01*
X6411214Y-17004643D01*
X6396928Y-17018929D01*
X6368357Y-17033214D01*
X6282643Y-17033214D01*
X6254071Y-17018929D01*
X6239786Y-17004643D01*
X6539786Y-16733214D02*
X6539786Y-16790357D01*
X6654071Y-16733214D02*
X6654071Y-16790357D01*
X7096928Y-17147500D02*
X7082643Y-17133214D01*
X7054071Y-17090357D01*
X7039786Y-17061786D01*
X7025500Y-17018929D01*
X7011214Y-16947500D01*
X7011214Y-16890357D01*
X7025500Y-16818929D01*
X7039786Y-16776071D01*
X7054071Y-16747500D01*
X7082643Y-16704643D01*
X7096928Y-16690357D01*
X7254071Y-16861786D02*
X7225500Y-16847500D01*
X7211214Y-16833214D01*
X7196928Y-16804643D01*
X7196928Y-16790357D01*
X7211214Y-16761786D01*
X7225500Y-16747500D01*
X7254071Y-16733214D01*
X7311214Y-16733214D01*
X7339786Y-16747500D01*
X7354071Y-16761786D01*
X7368357Y-16790357D01*
X7368357Y-16804643D01*
X7354071Y-16833214D01*
X7339786Y-16847500D01*
X7311214Y-16861786D01*
X7254071Y-16861786D01*
X7225500Y-16876072D01*
X7211214Y-16890357D01*
X7196928Y-16918929D01*
X7196928Y-16976072D01*
X7211214Y-17004643D01*
X7225500Y-17018929D01*
X7254071Y-17033214D01*
X7311214Y-17033214D01*
X7339786Y-17018929D01*
X7354071Y-17004643D01*
X7368357Y-16976072D01*
X7368357Y-16918929D01*
X7354071Y-16890357D01*
X7339786Y-16876072D01*
X7311214Y-16861786D01*
X7625500Y-16833214D02*
X7625500Y-17033214D01*
X7554071Y-16718929D02*
X7482643Y-16933214D01*
X7668357Y-16933214D01*
X8011214Y-17033214D02*
X8011214Y-16733214D01*
X8139786Y-17033214D02*
X8139786Y-16876072D01*
X8125500Y-16847500D01*
X8096928Y-16833214D01*
X8054071Y-16833214D01*
X8025500Y-16847500D01*
X8011214Y-16861786D01*
X8325500Y-17033214D02*
X8296928Y-17018929D01*
X8282643Y-17004643D01*
X8268357Y-16976072D01*
X8268357Y-16890357D01*
X8282643Y-16861786D01*
X8296928Y-16847500D01*
X8325500Y-16833214D01*
X8368357Y-16833214D01*
X8396928Y-16847500D01*
X8411214Y-16861786D01*
X8425500Y-16890357D01*
X8425500Y-16976072D01*
X8411214Y-17004643D01*
X8396928Y-17018929D01*
X8368357Y-17033214D01*
X8325500Y-17033214D01*
X8596928Y-17033214D02*
X8568357Y-17018929D01*
X8554071Y-16990357D01*
X8554071Y-16733214D01*
X8825500Y-17018929D02*
X8796928Y-17033214D01*
X8739786Y-17033214D01*
X8711214Y-17018929D01*
X8696928Y-16990357D01*
X8696928Y-16876072D01*
X8711214Y-16847500D01*
X8739786Y-16833214D01*
X8796928Y-16833214D01*
X8825500Y-16847500D01*
X8839786Y-16876072D01*
X8839786Y-16904643D01*
X8696928Y-16933214D01*
X8954071Y-17018929D02*
X8982643Y-17033214D01*
X9039786Y-17033214D01*
X9068357Y-17018929D01*
X9082643Y-16990357D01*
X9082643Y-16976072D01*
X9068357Y-16947500D01*
X9039786Y-16933214D01*
X8996928Y-16933214D01*
X8968357Y-16918929D01*
X8954071Y-16890357D01*
X8954071Y-16876072D01*
X8968357Y-16847500D01*
X8996928Y-16833214D01*
X9039786Y-16833214D01*
X9068357Y-16847500D01*
X9182643Y-17147500D02*
X9196928Y-17133214D01*
X9225500Y-17090357D01*
X9239786Y-17061786D01*
X9254071Y-17018929D01*
X9268357Y-16947500D01*
X9268357Y-16890357D01*
X9254071Y-16818929D01*
X9239786Y-16776071D01*
X9225500Y-16747500D01*
X9196928Y-16704643D01*
X9182643Y-16690357D01*
X2270500Y-17223500D02*
X2410500Y-17363500D01*
X2410500Y-17223500D02*
X2270500Y-17363500D01*
X2410500Y-17293500D02*
G75*
G03*
X2410500Y-17293500I-70000J0D01*
G01*
X2854071Y-17429214D02*
X2682643Y-17429214D01*
X2768357Y-17429214D02*
X2768357Y-17129214D01*
X2739786Y-17172072D01*
X2711214Y-17200643D01*
X2682643Y-17214929D01*
X2982643Y-17400643D02*
X2996928Y-17414929D01*
X2982643Y-17429214D01*
X2968357Y-17414929D01*
X2982643Y-17400643D01*
X2982643Y-17429214D01*
X3254071Y-17229214D02*
X3254071Y-17429214D01*
X3182643Y-17114929D02*
X3111214Y-17329214D01*
X3296928Y-17329214D01*
X3468357Y-17129214D02*
X3496928Y-17129214D01*
X3525500Y-17143500D01*
X3539786Y-17157786D01*
X3554071Y-17186357D01*
X3568357Y-17243500D01*
X3568357Y-17314929D01*
X3554071Y-17372072D01*
X3539786Y-17400643D01*
X3525500Y-17414929D01*
X3496928Y-17429214D01*
X3468357Y-17429214D01*
X3439786Y-17414929D01*
X3425500Y-17400643D01*
X3411214Y-17372072D01*
X3396928Y-17314929D01*
X3396928Y-17243500D01*
X3411214Y-17186357D01*
X3425500Y-17157786D01*
X3439786Y-17143500D01*
X3468357Y-17129214D01*
X3696928Y-17429214D02*
X3696928Y-17229214D01*
X3696928Y-17257786D02*
X3711214Y-17243500D01*
X3739786Y-17229214D01*
X3782643Y-17229214D01*
X3811214Y-17243500D01*
X3825500Y-17272072D01*
X3825500Y-17429214D01*
X3825500Y-17272072D02*
X3839786Y-17243500D01*
X3868357Y-17229214D01*
X3911214Y-17229214D01*
X3939786Y-17243500D01*
X3954071Y-17272072D01*
X3954071Y-17429214D01*
X4096928Y-17429214D02*
X4096928Y-17229214D01*
X4096928Y-17257786D02*
X4111214Y-17243500D01*
X4139786Y-17229214D01*
X4182643Y-17229214D01*
X4211214Y-17243500D01*
X4225500Y-17272072D01*
X4225500Y-17429214D01*
X4225500Y-17272072D02*
X4239786Y-17243500D01*
X4268357Y-17229214D01*
X4311214Y-17229214D01*
X4339786Y-17243500D01*
X4354071Y-17272072D01*
X4354071Y-17429214D01*
X4939786Y-17114929D02*
X4682643Y-17500643D01*
X5325500Y-17129214D02*
X5354071Y-17129214D01*
X5382643Y-17143500D01*
X5396928Y-17157786D01*
X5411214Y-17186357D01*
X5425500Y-17243500D01*
X5425500Y-17314929D01*
X5411214Y-17372072D01*
X5396928Y-17400643D01*
X5382643Y-17414929D01*
X5354071Y-17429214D01*
X5325500Y-17429214D01*
X5296928Y-17414929D01*
X5282643Y-17400643D01*
X5268357Y-17372072D01*
X5254071Y-17314929D01*
X5254071Y-17243500D01*
X5268357Y-17186357D01*
X5282643Y-17157786D01*
X5296928Y-17143500D01*
X5325500Y-17129214D01*
X5554071Y-17400643D02*
X5568357Y-17414929D01*
X5554071Y-17429214D01*
X5539786Y-17414929D01*
X5554071Y-17400643D01*
X5554071Y-17429214D01*
X5754071Y-17129214D02*
X5782643Y-17129214D01*
X5811214Y-17143500D01*
X5825500Y-17157786D01*
X5839786Y-17186357D01*
X5854071Y-17243500D01*
X5854071Y-17314929D01*
X5839786Y-17372072D01*
X5825500Y-17400643D01*
X5811214Y-17414929D01*
X5782643Y-17429214D01*
X5754071Y-17429214D01*
X5725500Y-17414929D01*
X5711214Y-17400643D01*
X5696928Y-17372072D01*
X5682643Y-17314929D01*
X5682643Y-17243500D01*
X5696928Y-17186357D01*
X5711214Y-17157786D01*
X5725500Y-17143500D01*
X5754071Y-17129214D01*
X6125500Y-17129214D02*
X5982643Y-17129214D01*
X5968357Y-17272072D01*
X5982643Y-17257786D01*
X6011214Y-17243500D01*
X6082643Y-17243500D01*
X6111214Y-17257786D01*
X6125500Y-17272072D01*
X6139786Y-17300643D01*
X6139786Y-17372072D01*
X6125500Y-17400643D01*
X6111214Y-17414929D01*
X6082643Y-17429214D01*
X6011214Y-17429214D01*
X5982643Y-17414929D01*
X5968357Y-17400643D01*
X6411214Y-17129214D02*
X6268357Y-17129214D01*
X6254071Y-17272072D01*
X6268357Y-17257786D01*
X6296928Y-17243500D01*
X6368357Y-17243500D01*
X6396928Y-17257786D01*
X6411214Y-17272072D01*
X6425500Y-17300643D01*
X6425500Y-17372072D01*
X6411214Y-17400643D01*
X6396928Y-17414929D01*
X6368357Y-17429214D01*
X6296928Y-17429214D01*
X6268357Y-17414929D01*
X6254071Y-17400643D01*
X6539786Y-17129214D02*
X6539786Y-17186357D01*
X6654071Y-17129214D02*
X6654071Y-17186357D01*
X7096928Y-17543500D02*
X7082643Y-17529214D01*
X7054071Y-17486357D01*
X7039786Y-17457786D01*
X7025500Y-17414929D01*
X7011214Y-17343500D01*
X7011214Y-17286357D01*
X7025500Y-17214929D01*
X7039786Y-17172072D01*
X7054071Y-17143500D01*
X7082643Y-17100643D01*
X7096928Y-17086357D01*
X7368357Y-17429214D02*
X7196928Y-17429214D01*
X7282643Y-17429214D02*
X7282643Y-17129214D01*
X7254071Y-17172072D01*
X7225500Y-17200643D01*
X7196928Y-17214929D01*
X7482643Y-17157786D02*
X7496928Y-17143500D01*
X7525500Y-17129214D01*
X7596928Y-17129214D01*
X7625500Y-17143500D01*
X7639786Y-17157786D01*
X7654071Y-17186357D01*
X7654071Y-17214929D01*
X7639786Y-17257786D01*
X7468357Y-17429214D01*
X7654071Y-17429214D01*
X7839786Y-17129214D02*
X7868357Y-17129214D01*
X7896928Y-17143500D01*
X7911214Y-17157786D01*
X7925500Y-17186357D01*
X7939786Y-17243500D01*
X7939786Y-17314929D01*
X7925500Y-17372072D01*
X7911214Y-17400643D01*
X7896928Y-17414929D01*
X7868357Y-17429214D01*
X7839786Y-17429214D01*
X7811214Y-17414929D01*
X7796928Y-17400643D01*
X7782643Y-17372072D01*
X7768357Y-17314929D01*
X7768357Y-17243500D01*
X7782643Y-17186357D01*
X7796928Y-17157786D01*
X7811214Y-17143500D01*
X7839786Y-17129214D01*
X8296928Y-17429214D02*
X8296928Y-17129214D01*
X8425500Y-17429214D02*
X8425500Y-17272072D01*
X8411214Y-17243500D01*
X8382643Y-17229214D01*
X8339786Y-17229214D01*
X8311214Y-17243500D01*
X8296928Y-17257786D01*
X8611214Y-17429214D02*
X8582643Y-17414929D01*
X8568357Y-17400643D01*
X8554071Y-17372072D01*
X8554071Y-17286357D01*
X8568357Y-17257786D01*
X8582643Y-17243500D01*
X8611214Y-17229214D01*
X8654071Y-17229214D01*
X8682643Y-17243500D01*
X8696928Y-17257786D01*
X8711214Y-17286357D01*
X8711214Y-17372072D01*
X8696928Y-17400643D01*
X8682643Y-17414929D01*
X8654071Y-17429214D01*
X8611214Y-17429214D01*
X8882643Y-17429214D02*
X8854071Y-17414929D01*
X8839786Y-17386357D01*
X8839786Y-17129214D01*
X9111214Y-17414929D02*
X9082643Y-17429214D01*
X9025500Y-17429214D01*
X8996928Y-17414929D01*
X8982643Y-17386357D01*
X8982643Y-17272072D01*
X8996928Y-17243500D01*
X9025500Y-17229214D01*
X9082643Y-17229214D01*
X9111214Y-17243500D01*
X9125500Y-17272072D01*
X9125500Y-17300643D01*
X8982643Y-17329214D01*
X9239786Y-17414929D02*
X9268357Y-17429214D01*
X9325500Y-17429214D01*
X9354071Y-17414929D01*
X9368357Y-17386357D01*
X9368357Y-17372072D01*
X9354071Y-17343500D01*
X9325500Y-17329214D01*
X9282643Y-17329214D01*
X9254071Y-17314929D01*
X9239786Y-17286357D01*
X9239786Y-17272072D01*
X9254071Y-17243500D01*
X9282643Y-17229214D01*
X9325500Y-17229214D01*
X9354071Y-17243500D01*
X9468357Y-17543500D02*
X9482643Y-17529214D01*
X9511214Y-17486357D01*
X9525500Y-17457786D01*
X9539786Y-17414929D01*
X9554071Y-17343500D01*
X9554071Y-17286357D01*
X9539786Y-17214929D01*
X9525500Y-17172072D01*
X9511214Y-17143500D01*
X9482643Y-17100643D01*
X9468357Y-17086357D01*
X2240320Y-17604410D02*
X2410500Y-17774590D01*
X2410500Y-17604410D02*
X2240320Y-17774590D01*
X2325410Y-17604410D02*
X2325410Y-17774590D01*
X2240320Y-17689500D02*
X2410500Y-17689500D01*
X2854071Y-17825214D02*
X2682643Y-17825214D01*
X2768357Y-17825214D02*
X2768357Y-17525214D01*
X2739786Y-17568072D01*
X2711214Y-17596643D01*
X2682643Y-17610929D01*
X2982643Y-17796643D02*
X2996928Y-17810929D01*
X2982643Y-17825214D01*
X2968357Y-17810929D01*
X2982643Y-17796643D01*
X2982643Y-17825214D01*
X3096928Y-17525214D02*
X3296928Y-17525214D01*
X3168357Y-17825214D01*
X3468357Y-17525214D02*
X3496928Y-17525214D01*
X3525500Y-17539500D01*
X3539786Y-17553786D01*
X3554071Y-17582357D01*
X3568357Y-17639500D01*
X3568357Y-17710929D01*
X3554071Y-17768072D01*
X3539786Y-17796643D01*
X3525500Y-17810929D01*
X3496928Y-17825214D01*
X3468357Y-17825214D01*
X3439786Y-17810929D01*
X3425500Y-17796643D01*
X3411214Y-17768072D01*
X3396928Y-17710929D01*
X3396928Y-17639500D01*
X3411214Y-17582357D01*
X3425500Y-17553786D01*
X3439786Y-17539500D01*
X3468357Y-17525214D01*
X3696928Y-17825214D02*
X3696928Y-17625214D01*
X3696928Y-17653786D02*
X3711214Y-17639500D01*
X3739786Y-17625214D01*
X3782643Y-17625214D01*
X3811214Y-17639500D01*
X3825500Y-17668072D01*
X3825500Y-17825214D01*
X3825500Y-17668072D02*
X3839786Y-17639500D01*
X3868357Y-17625214D01*
X3911214Y-17625214D01*
X3939786Y-17639500D01*
X3954071Y-17668072D01*
X3954071Y-17825214D01*
X4096928Y-17825214D02*
X4096928Y-17625214D01*
X4096928Y-17653786D02*
X4111214Y-17639500D01*
X4139786Y-17625214D01*
X4182643Y-17625214D01*
X4211214Y-17639500D01*
X4225500Y-17668072D01*
X4225500Y-17825214D01*
X4225500Y-17668072D02*
X4239786Y-17639500D01*
X4268357Y-17625214D01*
X4311214Y-17625214D01*
X4339786Y-17639500D01*
X4354071Y-17668072D01*
X4354071Y-17825214D01*
X4939786Y-17510929D02*
X4682643Y-17896643D01*
X5325500Y-17525214D02*
X5354071Y-17525214D01*
X5382643Y-17539500D01*
X5396928Y-17553786D01*
X5411214Y-17582357D01*
X5425500Y-17639500D01*
X5425500Y-17710929D01*
X5411214Y-17768072D01*
X5396928Y-17796643D01*
X5382643Y-17810929D01*
X5354071Y-17825214D01*
X5325500Y-17825214D01*
X5296928Y-17810929D01*
X5282643Y-17796643D01*
X5268357Y-17768072D01*
X5254071Y-17710929D01*
X5254071Y-17639500D01*
X5268357Y-17582357D01*
X5282643Y-17553786D01*
X5296928Y-17539500D01*
X5325500Y-17525214D01*
X5554071Y-17796643D02*
X5568357Y-17810929D01*
X5554071Y-17825214D01*
X5539786Y-17810929D01*
X5554071Y-17796643D01*
X5554071Y-17825214D01*
X5754071Y-17525214D02*
X5782643Y-17525214D01*
X5811214Y-17539500D01*
X5825500Y-17553786D01*
X5839786Y-17582357D01*
X5854071Y-17639500D01*
X5854071Y-17710929D01*
X5839786Y-17768072D01*
X5825500Y-17796643D01*
X5811214Y-17810929D01*
X5782643Y-17825214D01*
X5754071Y-17825214D01*
X5725500Y-17810929D01*
X5711214Y-17796643D01*
X5696928Y-17768072D01*
X5682643Y-17710929D01*
X5682643Y-17639500D01*
X5696928Y-17582357D01*
X5711214Y-17553786D01*
X5725500Y-17539500D01*
X5754071Y-17525214D01*
X6111214Y-17525214D02*
X6054071Y-17525214D01*
X6025500Y-17539500D01*
X6011214Y-17553786D01*
X5982643Y-17596643D01*
X5968357Y-17653786D01*
X5968357Y-17768072D01*
X5982643Y-17796643D01*
X5996928Y-17810929D01*
X6025500Y-17825214D01*
X6082643Y-17825214D01*
X6111214Y-17810929D01*
X6125500Y-17796643D01*
X6139786Y-17768072D01*
X6139786Y-17696643D01*
X6125500Y-17668072D01*
X6111214Y-17653786D01*
X6082643Y-17639500D01*
X6025500Y-17639500D01*
X5996928Y-17653786D01*
X5982643Y-17668072D01*
X5968357Y-17696643D01*
X6239786Y-17525214D02*
X6439786Y-17525214D01*
X6311214Y-17825214D01*
X6539786Y-17525214D02*
X6539786Y-17582357D01*
X6654071Y-17525214D02*
X6654071Y-17582357D01*
X7096928Y-17939500D02*
X7082643Y-17925214D01*
X7054071Y-17882357D01*
X7039786Y-17853786D01*
X7025500Y-17810929D01*
X7011214Y-17739500D01*
X7011214Y-17682357D01*
X7025500Y-17610929D01*
X7039786Y-17568072D01*
X7054071Y-17539500D01*
X7082643Y-17496643D01*
X7096928Y-17482357D01*
X7339786Y-17525214D02*
X7282643Y-17525214D01*
X7254071Y-17539500D01*
X7239786Y-17553786D01*
X7211214Y-17596643D01*
X7196928Y-17653786D01*
X7196928Y-17768072D01*
X7211214Y-17796643D01*
X7225500Y-17810929D01*
X7254071Y-17825214D01*
X7311214Y-17825214D01*
X7339786Y-17810929D01*
X7354071Y-17796643D01*
X7368357Y-17768072D01*
X7368357Y-17696643D01*
X7354071Y-17668072D01*
X7339786Y-17653786D01*
X7311214Y-17639500D01*
X7254071Y-17639500D01*
X7225500Y-17653786D01*
X7211214Y-17668072D01*
X7196928Y-17696643D01*
X7554071Y-17525214D02*
X7582643Y-17525214D01*
X7611214Y-17539500D01*
X7625500Y-17553786D01*
X7639786Y-17582357D01*
X7654071Y-17639500D01*
X7654071Y-17710929D01*
X7639786Y-17768072D01*
X7625500Y-17796643D01*
X7611214Y-17810929D01*
X7582643Y-17825214D01*
X7554071Y-17825214D01*
X7525500Y-17810929D01*
X7511214Y-17796643D01*
X7496928Y-17768072D01*
X7482643Y-17710929D01*
X7482643Y-17639500D01*
X7496928Y-17582357D01*
X7511214Y-17553786D01*
X7525500Y-17539500D01*
X7554071Y-17525214D01*
X8011214Y-17825214D02*
X8011214Y-17525214D01*
X8139786Y-17825214D02*
X8139786Y-17668072D01*
X8125500Y-17639500D01*
X8096928Y-17625214D01*
X8054071Y-17625214D01*
X8025500Y-17639500D01*
X8011214Y-17653786D01*
X8325500Y-17825214D02*
X8296928Y-17810929D01*
X8282643Y-17796643D01*
X8268357Y-17768072D01*
X8268357Y-17682357D01*
X8282643Y-17653786D01*
X8296928Y-17639500D01*
X8325500Y-17625214D01*
X8368357Y-17625214D01*
X8396928Y-17639500D01*
X8411214Y-17653786D01*
X8425500Y-17682357D01*
X8425500Y-17768072D01*
X8411214Y-17796643D01*
X8396928Y-17810929D01*
X8368357Y-17825214D01*
X8325500Y-17825214D01*
X8596928Y-17825214D02*
X8568357Y-17810929D01*
X8554071Y-17782357D01*
X8554071Y-17525214D01*
X8825500Y-17810929D02*
X8796928Y-17825214D01*
X8739786Y-17825214D01*
X8711214Y-17810929D01*
X8696928Y-17782357D01*
X8696928Y-17668072D01*
X8711214Y-17639500D01*
X8739786Y-17625214D01*
X8796928Y-17625214D01*
X8825500Y-17639500D01*
X8839786Y-17668072D01*
X8839786Y-17696643D01*
X8696928Y-17725214D01*
X8954071Y-17810929D02*
X8982643Y-17825214D01*
X9039786Y-17825214D01*
X9068357Y-17810929D01*
X9082643Y-17782357D01*
X9082643Y-17768072D01*
X9068357Y-17739500D01*
X9039786Y-17725214D01*
X8996928Y-17725214D01*
X8968357Y-17710929D01*
X8954071Y-17682357D01*
X8954071Y-17668072D01*
X8968357Y-17639500D01*
X8996928Y-17625214D01*
X9039786Y-17625214D01*
X9068357Y-17639500D01*
X9182643Y-17939500D02*
X9196928Y-17925214D01*
X9225500Y-17882357D01*
X9239786Y-17853786D01*
X9254071Y-17810929D01*
X9268357Y-17739500D01*
X9268357Y-17682357D01*
X9254071Y-17610929D01*
X9239786Y-17568072D01*
X9225500Y-17539500D01*
X9196928Y-17496643D01*
X9182643Y-17482357D01*
X2011720Y-17886110D02*
X2410500Y-18284890D01*
X2410500Y-17886110D02*
X2011720Y-18284890D01*
X2352101Y-18226492D02*
X2352101Y-17944509D01*
X2070118Y-17944509D01*
X2070118Y-18226492D01*
X2352101Y-18226492D01*
X2668357Y-17921214D02*
X2854071Y-17921214D01*
X2754071Y-18035500D01*
X2796928Y-18035500D01*
X2825500Y-18049786D01*
X2839786Y-18064072D01*
X2854071Y-18092643D01*
X2854071Y-18164072D01*
X2839786Y-18192643D01*
X2825500Y-18206929D01*
X2796928Y-18221214D01*
X2711214Y-18221214D01*
X2682643Y-18206929D01*
X2668357Y-18192643D01*
X2982643Y-18192643D02*
X2996928Y-18206929D01*
X2982643Y-18221214D01*
X2968357Y-18206929D01*
X2982643Y-18192643D01*
X2982643Y-18221214D01*
X3139786Y-18221214D02*
X3196928Y-18221214D01*
X3225500Y-18206929D01*
X3239786Y-18192643D01*
X3268357Y-18149786D01*
X3282643Y-18092643D01*
X3282643Y-17978357D01*
X3268357Y-17949786D01*
X3254071Y-17935500D01*
X3225500Y-17921214D01*
X3168357Y-17921214D01*
X3139786Y-17935500D01*
X3125500Y-17949786D01*
X3111214Y-17978357D01*
X3111214Y-18049786D01*
X3125500Y-18078357D01*
X3139786Y-18092643D01*
X3168357Y-18106929D01*
X3225500Y-18106929D01*
X3254071Y-18092643D01*
X3268357Y-18078357D01*
X3282643Y-18049786D01*
X3425500Y-18221214D02*
X3482643Y-18221214D01*
X3511214Y-18206929D01*
X3525500Y-18192643D01*
X3554071Y-18149786D01*
X3568357Y-18092643D01*
X3568357Y-17978357D01*
X3554071Y-17949786D01*
X3539786Y-17935500D01*
X3511214Y-17921214D01*
X3454071Y-17921214D01*
X3425500Y-17935500D01*
X3411214Y-17949786D01*
X3396928Y-17978357D01*
X3396928Y-18049786D01*
X3411214Y-18078357D01*
X3425500Y-18092643D01*
X3454071Y-18106929D01*
X3511214Y-18106929D01*
X3539786Y-18092643D01*
X3554071Y-18078357D01*
X3568357Y-18049786D01*
X3696928Y-18221214D02*
X3696928Y-18021214D01*
X3696928Y-18049786D02*
X3711214Y-18035500D01*
X3739786Y-18021214D01*
X3782643Y-18021214D01*
X3811214Y-18035500D01*
X3825500Y-18064072D01*
X3825500Y-18221214D01*
X3825500Y-18064072D02*
X3839786Y-18035500D01*
X3868357Y-18021214D01*
X3911214Y-18021214D01*
X3939786Y-18035500D01*
X3954071Y-18064072D01*
X3954071Y-18221214D01*
X4096928Y-18221214D02*
X4096928Y-18021214D01*
X4096928Y-18049786D02*
X4111214Y-18035500D01*
X4139786Y-18021214D01*
X4182643Y-18021214D01*
X4211214Y-18035500D01*
X4225500Y-18064072D01*
X4225500Y-18221214D01*
X4225500Y-18064072D02*
X4239786Y-18035500D01*
X4268357Y-18021214D01*
X4311214Y-18021214D01*
X4339786Y-18035500D01*
X4354071Y-18064072D01*
X4354071Y-18221214D01*
X4939786Y-17906929D02*
X4682643Y-18292643D01*
X5325500Y-17921214D02*
X5354071Y-17921214D01*
X5382643Y-17935500D01*
X5396928Y-17949786D01*
X5411214Y-17978357D01*
X5425500Y-18035500D01*
X5425500Y-18106929D01*
X5411214Y-18164072D01*
X5396928Y-18192643D01*
X5382643Y-18206929D01*
X5354071Y-18221214D01*
X5325500Y-18221214D01*
X5296928Y-18206929D01*
X5282643Y-18192643D01*
X5268357Y-18164072D01*
X5254071Y-18106929D01*
X5254071Y-18035500D01*
X5268357Y-17978357D01*
X5282643Y-17949786D01*
X5296928Y-17935500D01*
X5325500Y-17921214D01*
X5554071Y-18192643D02*
X5568357Y-18206929D01*
X5554071Y-18221214D01*
X5539786Y-18206929D01*
X5554071Y-18192643D01*
X5554071Y-18221214D01*
X5854071Y-18221214D02*
X5682643Y-18221214D01*
X5768357Y-18221214D02*
X5768357Y-17921214D01*
X5739786Y-17964072D01*
X5711214Y-17992643D01*
X5682643Y-18006929D01*
X6125500Y-17921214D02*
X5982643Y-17921214D01*
X5968357Y-18064072D01*
X5982643Y-18049786D01*
X6011214Y-18035500D01*
X6082643Y-18035500D01*
X6111214Y-18049786D01*
X6125500Y-18064072D01*
X6139786Y-18092643D01*
X6139786Y-18164072D01*
X6125500Y-18192643D01*
X6111214Y-18206929D01*
X6082643Y-18221214D01*
X6011214Y-18221214D01*
X5982643Y-18206929D01*
X5968357Y-18192643D01*
X6239786Y-17921214D02*
X6439786Y-17921214D01*
X6311214Y-18221214D01*
X6539786Y-17921214D02*
X6539786Y-17978357D01*
X6654071Y-17921214D02*
X6654071Y-17978357D01*
X7096928Y-18335500D02*
X7082643Y-18321214D01*
X7054071Y-18278357D01*
X7039786Y-18249786D01*
X7025500Y-18206929D01*
X7011214Y-18135500D01*
X7011214Y-18078357D01*
X7025500Y-18006929D01*
X7039786Y-17964072D01*
X7054071Y-17935500D01*
X7082643Y-17892643D01*
X7096928Y-17878357D01*
X7182643Y-17921214D02*
X7368357Y-17921214D01*
X7268357Y-18035500D01*
X7311214Y-18035500D01*
X7339786Y-18049786D01*
X7354071Y-18064072D01*
X7368357Y-18092643D01*
X7368357Y-18164072D01*
X7354071Y-18192643D01*
X7339786Y-18206929D01*
X7311214Y-18221214D01*
X7225500Y-18221214D01*
X7196928Y-18206929D01*
X7182643Y-18192643D01*
X7554071Y-17921214D02*
X7582643Y-17921214D01*
X7611214Y-17935500D01*
X7625500Y-17949786D01*
X7639786Y-17978357D01*
X7654071Y-18035500D01*
X7654071Y-18106929D01*
X7639786Y-18164072D01*
X7625500Y-18192643D01*
X7611214Y-18206929D01*
X7582643Y-18221214D01*
X7554071Y-18221214D01*
X7525500Y-18206929D01*
X7511214Y-18192643D01*
X7496928Y-18164072D01*
X7482643Y-18106929D01*
X7482643Y-18035500D01*
X7496928Y-17978357D01*
X7511214Y-17949786D01*
X7525500Y-17935500D01*
X7554071Y-17921214D01*
X8011214Y-18221214D02*
X8011214Y-17921214D01*
X8139786Y-18221214D02*
X8139786Y-18064072D01*
X8125500Y-18035500D01*
X8096928Y-18021214D01*
X8054071Y-18021214D01*
X8025500Y-18035500D01*
X8011214Y-18049786D01*
X8325500Y-18221214D02*
X8296928Y-18206929D01*
X8282643Y-18192643D01*
X8268357Y-18164072D01*
X8268357Y-18078357D01*
X8282643Y-18049786D01*
X8296928Y-18035500D01*
X8325500Y-18021214D01*
X8368357Y-18021214D01*
X8396928Y-18035500D01*
X8411214Y-18049786D01*
X8425500Y-18078357D01*
X8425500Y-18164072D01*
X8411214Y-18192643D01*
X8396928Y-18206929D01*
X8368357Y-18221214D01*
X8325500Y-18221214D01*
X8596928Y-18221214D02*
X8568357Y-18206929D01*
X8554071Y-18178357D01*
X8554071Y-17921214D01*
X8825500Y-18206929D02*
X8796928Y-18221214D01*
X8739786Y-18221214D01*
X8711214Y-18206929D01*
X8696928Y-18178357D01*
X8696928Y-18064072D01*
X8711214Y-18035500D01*
X8739786Y-18021214D01*
X8796928Y-18021214D01*
X8825500Y-18035500D01*
X8839786Y-18064072D01*
X8839786Y-18092643D01*
X8696928Y-18121214D01*
X8954071Y-18206929D02*
X8982643Y-18221214D01*
X9039786Y-18221214D01*
X9068357Y-18206929D01*
X9082643Y-18178357D01*
X9082643Y-18164072D01*
X9068357Y-18135500D01*
X9039786Y-18121214D01*
X8996928Y-18121214D01*
X8968357Y-18106929D01*
X8954071Y-18078357D01*
X8954071Y-18064072D01*
X8968357Y-18035500D01*
X8996928Y-18021214D01*
X9039786Y-18021214D01*
X9068357Y-18035500D01*
X9182643Y-18335500D02*
X9196928Y-18321214D01*
X9225500Y-18278357D01*
X9239786Y-18249786D01*
X9254071Y-18206929D01*
X9268357Y-18135500D01*
X9268357Y-18078357D01*
X9254071Y-18006929D01*
X9239786Y-17964072D01*
X9225500Y-17935500D01*
X9196928Y-17892643D01*
X9182643Y-17878357D01*
M02*
